<?xml version="1.0" encoding="utf-8" standalone="no"?>
<!DOCTYPE svg PUBLIC "-//W3C//DTD SVG 1.1//EN"
  "http://www.w3.org/Graphics/SVG/1.1/DTD/svg11.dtd">
<svg xmlns:xlink="http://www.w3.org/1999/xlink" width="450.78375pt" height="271.149375pt" viewBox="0 0 450.78375 271.149375" xmlns="http://www.w3.org/2000/svg" version="1.1">
 <metadata>
  <rdf:RDF xmlns:dc="http://purl.org/dc/elements/1.1/" xmlns:cc="http://creativecommons.org/ns#" xmlns:rdf="http://www.w3.org/1999/02/22-rdf-syntax-ns#">
   <cc:Work>
    <dc:type rdf:resource="http://purl.org/dc/dcmitype/StillImage"/>
    <dc:date>2026-07-11T20:14:06.966624</dc:date>
    <dc:format>image/svg+xml</dc:format>
    <dc:creator>
     <cc:Agent>
      <dc:title>Matplotlib v3.9.4, https://matplotlib.org/</dc:title>
     </cc:Agent>
    </dc:creator>
   </cc:Work>
  </rdf:RDF>
 </metadata>
 <defs>
  <style type="text/css">*{stroke-linejoin: round; stroke-linecap: butt}</style>
 </defs>
 <g id="figure_1">
  <g id="patch_1">
   <path d="M 0 271.149375 
L 450.78375 271.149375 
L 450.78375 0 
L 0 0 
z
" style="fill: #ffffff"/>
  </g>
  <g id="axes_1">
   <g id="patch_2">
    <path d="M 66.63875 208.429375 
L 439.98375 208.429375 
L 439.98375 35.259375 
L 66.63875 35.259375 
z
" style="fill: #ffffff"/>
   </g>
   <g id="matplotlib.axis_1">
    <g id="xtick_1">
     <g id="line2d_1">
      <defs>
       <path id="m29ef6e0fea" d="M 0 0 
L 0 3.5 
" style="stroke: #808080; stroke-width: 0.8"/>
      </defs>
      <g>
       <use xlink:href="#m29ef6e0fea" x="83.608977" y="208.429375" style="fill: #808080; stroke: #808080; stroke-width: 0.8"/>
      </g>
     </g>
     <g id="text_1">
      <text style="fill: #808080; font: 22px 'PingFang SC', 'Heiti SC', 'STHeiti', 'Calibri', 'Arial', 'Helvetica Neue', 'Arial Unicode MS', 'Noto Sans CJK SC', 'DejaVu Sans', sans-serif; text-anchor: middle" x="83.608977" y="232.94" transform="rotate(-0 83.608977 232.94)">38</text>
     </g>
    </g>
    <g id="xtick_2">
     <g id="line2d_2">
      <g>
       <use xlink:href="#m29ef6e0fea" x="219.370795" y="208.429375" style="fill: #808080; stroke: #808080; stroke-width: 0.8"/>
      </g>
     </g>
     <g id="text_2">
      <text style="fill: #808080; font: 22px 'PingFang SC', 'Heiti SC', 'STHeiti', 'Calibri', 'Arial', 'Helvetica Neue', 'Arial Unicode MS', 'Noto Sans CJK SC', 'DejaVu Sans', sans-serif; text-anchor: middle" x="219.370795" y="232.94" transform="rotate(-0 219.370795 232.94)">40</text>
     </g>
    </g>
    <g id="xtick_3">
     <g id="line2d_3">
      <g>
       <use xlink:href="#m29ef6e0fea" x="355.132614" y="208.429375" style="fill: #808080; stroke: #808080; stroke-width: 0.8"/>
      </g>
     </g>
     <g id="text_3">
      <text style="fill: #808080; font: 22px 'PingFang SC', 'Heiti SC', 'STHeiti', 'Calibri', 'Arial', 'Helvetica Neue', 'Arial Unicode MS', 'Noto Sans CJK SC', 'DejaVu Sans', sans-serif; text-anchor: middle" x="355.132614" y="232.94" transform="rotate(-0 355.132614 232.94)">42</text>
     </g>
    </g>
    <g id="text_4">
     <text style="font: 22px 'PingFang SC', 'Heiti SC', 'STHeiti', 'Calibri', 'Arial', 'Helvetica Neue', 'Arial Unicode MS', 'Noto Sans CJK SC', 'DejaVu Sans', sans-serif; text-anchor: middle" x="253.31125" y="257.4" transform="rotate(-0 253.31125 257.4)">health_temp_c</text>
    </g>
   </g>
   <g id="matplotlib.axis_2">
    <g id="ytick_1">
     <g id="line2d_4">
      <path d="M 66.63875 208.429375 
L 439.98375 208.429375 
" clip-path="url(#p2914f6aa97)" style="fill: none; stroke-dasharray: 1,1.65; stroke-dashoffset: 0; stroke: #808080; stroke-opacity: 0.55"/>
     </g>
     <g id="line2d_5">
      <defs>
       <path id="ma1bab4c6fa" d="M 0 0 
L -3.5 0 
" style="stroke: #808080; stroke-width: 0.8"/>
      </defs>
      <g>
       <use xlink:href="#ma1bab4c6fa" x="66.63875" y="208.429375" style="fill: #808080; stroke: #808080; stroke-width: 0.8"/>
      </g>
     </g>
     <g id="text_5">
      <text style="fill: #808080; font: 22px 'PingFang SC', 'Heiti SC', 'STHeiti', 'Calibri', 'Arial', 'Helvetica Neue', 'Arial Unicode MS', 'Noto Sans CJK SC', 'DejaVu Sans', sans-serif; text-anchor: end" x="59.63875" y="217.184688" transform="rotate(-0 59.63875 217.184688)">0</text>
     </g>
    </g>
    <g id="ytick_2">
     <g id="line2d_6">
      <path d="M 66.63875 93.898952 
L 439.98375 93.898952 
" clip-path="url(#p2914f6aa97)" style="fill: none; stroke-dasharray: 1,1.65; stroke-dashoffset: 0; stroke: #808080; stroke-opacity: 0.55"/>
     </g>
     <g id="line2d_7">
      <g>
       <use xlink:href="#ma1bab4c6fa" x="66.63875" y="93.898952" style="fill: #808080; stroke: #808080; stroke-width: 0.8"/>
      </g>
     </g>
     <g id="text_6">
      <text style="fill: #808080; font: 22px 'PingFang SC', 'Heiti SC', 'STHeiti', 'Calibri', 'Arial', 'Helvetica Neue', 'Arial Unicode MS', 'Noto Sans CJK SC', 'DejaVu Sans', sans-serif; text-anchor: end" x="59.63875" y="102.654264" transform="rotate(-0 59.63875 102.654264)">50</text>
     </g>
    </g>
    <g id="text_7">
     <text style="font: 22px 'PingFang SC', 'Heiti SC', 'STHeiti', 'Calibri', 'Arial', 'Helvetica Neue', 'Arial Unicode MS', 'Noto Sans CJK SC', 'DejaVu Sans', sans-serif; text-anchor: middle" x="28.310625" y="121.844375" transform="rotate(-90 28.310625 121.844375)">count</text>
    </g>
   </g>
   <g id="patch_3">
    <path d="M 83.608977 208.429375 
L 94.922462 208.429375 
L 94.922462 206.138767 
L 83.608977 206.138767 
z
" clip-path="url(#p2914f6aa97)" style="fill: #4c78a8; opacity: 0.85; stroke: #ffffff; stroke-linejoin: miter"/>
   </g>
   <g id="patch_4">
    <path d="M 94.922462 208.429375 
L 106.235947 208.429375 
L 106.235947 208.429375 
L 94.922462 208.429375 
z
" clip-path="url(#p2914f6aa97)" style="fill: #4c78a8; opacity: 0.85; stroke: #ffffff; stroke-linejoin: miter"/>
   </g>
   <g id="patch_5">
    <path d="M 106.235947 208.429375 
L 117.549432 208.429375 
L 117.549432 208.429375 
L 106.235947 208.429375 
z
" clip-path="url(#p2914f6aa97)" style="fill: #4c78a8; opacity: 0.85; stroke: #ffffff; stroke-linejoin: miter"/>
   </g>
   <g id="patch_6">
    <path d="M 117.549432 208.429375 
L 128.862917 208.429375 
L 128.862917 208.429375 
L 117.549432 208.429375 
z
" clip-path="url(#p2914f6aa97)" style="fill: #4c78a8; opacity: 0.85; stroke: #ffffff; stroke-linejoin: miter"/>
   </g>
   <g id="patch_7">
    <path d="M 128.862917 208.429375 
L 140.176402 208.429375 
L 140.176402 208.429375 
L 128.862917 208.429375 
z
" clip-path="url(#p2914f6aa97)" style="fill: #4c78a8; opacity: 0.85; stroke: #ffffff; stroke-linejoin: miter"/>
   </g>
   <g id="patch_8">
    <path d="M 140.176402 208.429375 
L 151.489886 208.429375 
L 151.489886 208.429375 
L 140.176402 208.429375 
z
" clip-path="url(#p2914f6aa97)" style="fill: #4c78a8; opacity: 0.85; stroke: #ffffff; stroke-linejoin: miter"/>
   </g>
   <g id="patch_9">
    <path d="M 151.489886 208.429375 
L 162.803371 208.429375 
L 162.803371 167.198423 
L 151.489886 167.198423 
z
" clip-path="url(#p2914f6aa97)" style="fill: #4c78a8; opacity: 0.85; stroke: #ffffff; stroke-linejoin: miter"/>
   </g>
   <g id="patch_10">
    <path d="M 162.803371 208.429375 
L 174.116856 208.429375 
L 174.116856 208.429375 
L 162.803371 208.429375 
z
" clip-path="url(#p2914f6aa97)" style="fill: #4c78a8; opacity: 0.85; stroke: #ffffff; stroke-linejoin: miter"/>
   </g>
   <g id="patch_11">
    <path d="M 174.116856 208.429375 
L 185.430341 208.429375 
L 185.430341 208.429375 
L 174.116856 208.429375 
z
" clip-path="url(#p2914f6aa97)" style="fill: #4c78a8; opacity: 0.85; stroke: #ffffff; stroke-linejoin: miter"/>
   </g>
   <g id="patch_12">
    <path d="M 185.430341 208.429375 
L 196.743826 208.429375 
L 196.743826 208.429375 
L 185.430341 208.429375 
z
" clip-path="url(#p2914f6aa97)" style="fill: #4c78a8; opacity: 0.85; stroke: #ffffff; stroke-linejoin: miter"/>
   </g>
   <g id="patch_13">
    <path d="M 196.743826 208.429375 
L 208.057311 208.429375 
L 208.057311 208.429375 
L 196.743826 208.429375 
z
" clip-path="url(#p2914f6aa97)" style="fill: #4c78a8; opacity: 0.85; stroke: #ffffff; stroke-linejoin: miter"/>
   </g>
   <g id="patch_14">
    <path d="M 208.057311 208.429375 
L 219.370795 208.429375 
L 219.370795 208.429375 
L 208.057311 208.429375 
z
" clip-path="url(#p2914f6aa97)" style="fill: #4c78a8; opacity: 0.85; stroke: #ffffff; stroke-linejoin: miter"/>
   </g>
   <g id="patch_15">
    <path d="M 219.370795 208.429375 
L 230.68428 208.429375 
L 230.68428 43.505565 
L 219.370795 43.505565 
z
" clip-path="url(#p2914f6aa97)" style="fill: #4c78a8; opacity: 0.85; stroke: #ffffff; stroke-linejoin: miter"/>
   </g>
   <g id="patch_16">
    <path d="M 230.68428 208.429375 
L 241.997765 208.429375 
L 241.997765 208.429375 
L 230.68428 208.429375 
z
" clip-path="url(#p2914f6aa97)" style="fill: #4c78a8; opacity: 0.85; stroke: #ffffff; stroke-linejoin: miter"/>
   </g>
   <g id="patch_17">
    <path d="M 241.997765 208.429375 
L 253.31125 208.429375 
L 253.31125 208.429375 
L 241.997765 208.429375 
z
" clip-path="url(#p2914f6aa97)" style="fill: #4c78a8; opacity: 0.85; stroke: #ffffff; stroke-linejoin: miter"/>
   </g>
   <g id="patch_18">
    <path d="M 253.31125 208.429375 
L 264.624735 208.429375 
L 264.624735 208.429375 
L 253.31125 208.429375 
z
" clip-path="url(#p2914f6aa97)" style="fill: #4c78a8; opacity: 0.85; stroke: #ffffff; stroke-linejoin: miter"/>
   </g>
   <g id="patch_19">
    <path d="M 264.624735 208.429375 
L 275.93822 208.429375 
L 275.93822 208.429375 
L 264.624735 208.429375 
z
" clip-path="url(#p2914f6aa97)" style="fill: #4c78a8; opacity: 0.85; stroke: #ffffff; stroke-linejoin: miter"/>
   </g>
   <g id="patch_20">
    <path d="M 275.93822 208.429375 
L 287.251705 208.429375 
L 287.251705 208.429375 
L 275.93822 208.429375 
z
" clip-path="url(#p2914f6aa97)" style="fill: #4c78a8; opacity: 0.85; stroke: #ffffff; stroke-linejoin: miter"/>
   </g>
   <g id="patch_21">
    <path d="M 287.251705 208.429375 
L 298.565189 208.429375 
L 298.565189 135.129904 
L 287.251705 135.129904 
z
" clip-path="url(#p2914f6aa97)" style="fill: #4c78a8; opacity: 0.85; stroke: #ffffff; stroke-linejoin: miter"/>
   </g>
   <g id="patch_22">
    <path d="M 298.565189 208.429375 
L 309.878674 208.429375 
L 309.878674 208.429375 
L 298.565189 208.429375 
z
" clip-path="url(#p2914f6aa97)" style="fill: #4c78a8; opacity: 0.85; stroke: #ffffff; stroke-linejoin: miter"/>
   </g>
   <g id="patch_23">
    <path d="M 309.878674 208.429375 
L 321.192159 208.429375 
L 321.192159 208.429375 
L 309.878674 208.429375 
z
" clip-path="url(#p2914f6aa97)" style="fill: #4c78a8; opacity: 0.85; stroke: #ffffff; stroke-linejoin: miter"/>
   </g>
   <g id="patch_24">
    <path d="M 321.192159 208.429375 
L 332.505644 208.429375 
L 332.505644 208.429375 
L 321.192159 208.429375 
z
" clip-path="url(#p2914f6aa97)" style="fill: #4c78a8; opacity: 0.85; stroke: #ffffff; stroke-linejoin: miter"/>
   </g>
   <g id="patch_25">
    <path d="M 332.505644 208.429375 
L 343.819129 208.429375 
L 343.819129 208.429375 
L 332.505644 208.429375 
z
" clip-path="url(#p2914f6aa97)" style="fill: #4c78a8; opacity: 0.85; stroke: #ffffff; stroke-linejoin: miter"/>
   </g>
   <g id="patch_26">
    <path d="M 343.819129 208.429375 
L 355.132614 208.429375 
L 355.132614 208.429375 
L 343.819129 208.429375 
z
" clip-path="url(#p2914f6aa97)" style="fill: #4c78a8; opacity: 0.85; stroke: #ffffff; stroke-linejoin: miter"/>
   </g>
   <g id="patch_27">
    <path d="M 355.132614 208.429375 
L 366.446098 208.429375 
L 366.446098 201.55755 
L 355.132614 201.55755 
z
" clip-path="url(#p2914f6aa97)" style="fill: #4c78a8; opacity: 0.85; stroke: #ffffff; stroke-linejoin: miter"/>
   </g>
   <g id="patch_28">
    <path d="M 366.446098 208.429375 
L 377.759583 208.429375 
L 377.759583 208.429375 
L 366.446098 208.429375 
z
" clip-path="url(#p2914f6aa97)" style="fill: #4c78a8; opacity: 0.85; stroke: #ffffff; stroke-linejoin: miter"/>
   </g>
   <g id="patch_29">
    <path d="M 377.759583 208.429375 
L 389.073068 208.429375 
L 389.073068 208.429375 
L 377.759583 208.429375 
z
" clip-path="url(#p2914f6aa97)" style="fill: #4c78a8; opacity: 0.85; stroke: #ffffff; stroke-linejoin: miter"/>
   </g>
   <g id="patch_30">
    <path d="M 389.073068 208.429375 
L 400.386553 208.429375 
L 400.386553 208.429375 
L 389.073068 208.429375 
z
" clip-path="url(#p2914f6aa97)" style="fill: #4c78a8; opacity: 0.85; stroke: #ffffff; stroke-linejoin: miter"/>
   </g>
   <g id="patch_31">
    <path d="M 400.386553 208.429375 
L 411.700038 208.429375 
L 411.700038 208.429375 
L 400.386553 208.429375 
z
" clip-path="url(#p2914f6aa97)" style="fill: #4c78a8; opacity: 0.85; stroke: #ffffff; stroke-linejoin: miter"/>
   </g>
   <g id="patch_32">
    <path d="M 411.700038 208.429375 
L 423.013523 208.429375 
L 423.013523 203.848158 
L 411.700038 203.848158 
z
" clip-path="url(#p2914f6aa97)" style="fill: #4c78a8; opacity: 0.85; stroke: #ffffff; stroke-linejoin: miter"/>
   </g>
   <g id="line2d_8">
    <path d="M 219.370795 208.429375 
L 219.370795 35.259375 
" clip-path="url(#p2914f6aa97)" style="fill: none; stroke-dasharray: 5.55,2.4; stroke-dashoffset: 0; stroke: #e45756; stroke-width: 1.5"/>
   </g>
   <g id="patch_33">
    <path d="M 66.63875 208.429375 
L 66.63875 35.259375 
" style="fill: none; stroke: #808080; stroke-width: 0.8; stroke-linejoin: miter; stroke-linecap: square"/>
   </g>
   <g id="patch_34">
    <path d="M 66.63875 208.429375 
L 439.98375 208.429375 
" style="fill: none; stroke: #808080; stroke-width: 0.8; stroke-linejoin: miter; stroke-linecap: square"/>
   </g>
   <g id="text_8">
    <text style="font: 22px 'PingFang SC', 'Heiti SC', 'STHeiti', 'Calibri', 'Arial', 'Helvetica Neue', 'Arial Unicode MS', 'Noto Sans CJK SC', 'DejaVu Sans', sans-serif; text-anchor: middle" x="253.31125" y="29.259375" transform="rotate(-0 253.31125 29.259375)">Health temp (C)</text>
   </g>
   <g id="legend_1">
    <g id="patch_35">
     <path d="M 364.94375 53.099375 
L 434.38375 53.099375 
Q 435.98375 53.099375 435.98375 51.499375 
L 435.98375 40.859375 
Q 435.98375 39.259375 434.38375 39.259375 
L 364.94375 39.259375 
Q 363.34375 39.259375 363.34375 40.859375 
L 363.34375 51.499375 
Q 363.34375 53.099375 364.94375 53.099375 
z
" style="fill: #ffffff; opacity: 0.5; stroke: #cccccc; stroke-linejoin: miter"/>
    </g>
    <g id="line2d_9">
     <path d="M 366.54375 46.026875 
L 374.54375 46.026875 
L 382.54375 46.026875 
" style="fill: none; stroke-dasharray: 5.55,2.4; stroke-dashoffset: 0; stroke: #e45756; stroke-width: 1.5"/>
    </g>
    <g id="text_9">
     <text style="font: 8px 'PingFang SC', 'Heiti SC', 'STHeiti', 'Calibri', 'Arial', 'Helvetica Neue', 'Arial Unicode MS', 'Noto Sans CJK SC', 'DejaVu Sans', sans-serif; text-anchor: start" x="388.94375" y="48.826875" transform="rotate(-0 388.94375 48.826875)">median=40</text>
    </g>
   </g>
  </g>
 </g>
 <defs>
  <clipPath id="p2914f6aa97">
   <rect x="66.63875" y="35.259375" width="373.345" height="173.17"/>
  </clipPath>
 </defs>
</svg>
