<?xml version="1.0" encoding="utf-8" standalone="no"?>
<!DOCTYPE svg PUBLIC "-//W3C//DTD SVG 1.1//EN"
  "http://www.w3.org/Graphics/SVG/1.1/DTD/svg11.dtd">
<svg xmlns:xlink="http://www.w3.org/1999/xlink" width="719.548125pt" height="307.086549pt" viewBox="0 0 719.548125 307.086549" xmlns="http://www.w3.org/2000/svg" version="1.1">
 <metadata>
  <rdf:RDF xmlns:dc="http://purl.org/dc/elements/1.1/" xmlns:cc="http://creativecommons.org/ns#" xmlns:rdf="http://www.w3.org/1999/02/22-rdf-syntax-ns#">
   <cc:Work>
    <dc:type rdf:resource="http://purl.org/dc/dcmitype/StillImage"/>
    <dc:date>2026-07-11T20:14:09.742262</dc:date>
    <dc:format>image/svg+xml</dc:format>
    <dc:creator>
     <cc:Agent>
      <dc:title>Matplotlib v3.9.4, https://matplotlib.org/</dc:title>
     </cc:Agent>
    </dc:creator>
   </cc:Work>
  </rdf:RDF>
 </metadata>
 <defs>
  <style type="text/css">*{stroke-linejoin: round; stroke-linecap: butt}</style>
 </defs>
 <g id="figure_1">
  <g id="patch_1">
   <path d="M 0 307.086549 
L 719.548125 307.086549 
L 719.548125 0 
L 0 0 
z
" style="fill: #ffffff"/>
  </g>
  <g id="axes_1">
   <g id="patch_2">
    <path d="M 78.828125 242.229555 
L 708.748125 242.229555 
L 708.748125 34.4 
L 78.828125 34.4 
z
" style="fill: #ffffff"/>
   </g>
   <g id="matplotlib.axis_1">
    <g id="xtick_1">
     <g id="line2d_1">
      <defs>
       <path id="ma2fee1d332" d="M 0 0 
L 0 3.5 
" style="stroke: #808080; stroke-width: 0.8"/>
      </defs>
      <g>
       <use xlink:href="#ma2fee1d332" x="109.364475" y="242.229555" style="fill: #808080; stroke: #808080; stroke-width: 0.8"/>
      </g>
     </g>
     <g id="text_1">
      <text style="fill: #808080; font: 8px 'PingFang SC', 'Heiti SC', 'STHeiti', 'Calibri', 'Arial', 'Helvetica Neue', 'Arial Unicode MS', 'Noto Sans CJK SC', 'DejaVu Sans', sans-serif" transform="translate(85.631288 291.911641) rotate(-60)">master-0:d8</text>
     </g>
    </g>
    <g id="xtick_2">
     <g id="line2d_2">
      <g>
       <use xlink:href="#ma2fee1d332" x="145.197376" y="242.229555" style="fill: #808080; stroke: #808080; stroke-width: 0.8"/>
      </g>
     </g>
     <g id="text_2">
      <text style="fill: #808080; font: 8px 'PingFang SC', 'Heiti SC', 'STHeiti', 'Calibri', 'Arial', 'Helvetica Neue', 'Arial Unicode MS', 'Noto Sans CJK SC', 'DejaVu Sans', sans-serif" transform="translate(121.700439 291.502444) rotate(-60)">worker-5:d5</text>
     </g>
    </g>
    <g id="xtick_3">
     <g id="line2d_3">
      <g>
       <use xlink:href="#ma2fee1d332" x="181.030277" y="242.229555" style="fill: #808080; stroke: #808080; stroke-width: 0.8"/>
      </g>
     </g>
     <g id="text_3">
      <text style="fill: #808080; font: 8px 'PingFang SC', 'Heiti SC', 'STHeiti', 'Calibri', 'Arial', 'Helvetica Neue', 'Arial Unicode MS', 'Noto Sans CJK SC', 'DejaVu Sans', sans-serif" transform="translate(157.297089 291.911641) rotate(-60)">master-0:d6</text>
     </g>
    </g>
    <g id="xtick_4">
     <g id="line2d_4">
      <g>
       <use xlink:href="#ma2fee1d332" x="216.863177" y="242.229555" style="fill: #808080; stroke: #808080; stroke-width: 0.8"/>
      </g>
     </g>
     <g id="text_4">
      <text style="fill: #808080; font: 8px 'PingFang SC', 'Heiti SC', 'STHeiti', 'Calibri', 'Arial', 'Helvetica Neue', 'Arial Unicode MS', 'Noto Sans CJK SC', 'DejaVu Sans', sans-serif" transform="translate(193.36624 291.502444) rotate(-60)">worker-3:d7</text>
     </g>
    </g>
    <g id="xtick_5">
     <g id="line2d_5">
      <g>
       <use xlink:href="#ma2fee1d332" x="252.696078" y="242.229555" style="fill: #808080; stroke: #808080; stroke-width: 0.8"/>
      </g>
     </g>
     <g id="text_5">
      <text style="fill: #808080; font: 8px 'PingFang SC', 'Heiti SC', 'STHeiti', 'Calibri', 'Arial', 'Helvetica Neue', 'Arial Unicode MS', 'Noto Sans CJK SC', 'DejaVu Sans', sans-serif" transform="translate(229.199141 291.502444) rotate(-60)">worker-3:d2</text>
     </g>
    </g>
    <g id="xtick_6">
     <g id="line2d_6">
      <g>
       <use xlink:href="#ma2fee1d332" x="288.528979" y="242.229555" style="fill: #808080; stroke: #808080; stroke-width: 0.8"/>
      </g>
     </g>
     <g id="text_6">
      <text style="fill: #808080; font: 8px 'PingFang SC', 'Heiti SC', 'STHeiti', 'Calibri', 'Arial', 'Helvetica Neue', 'Arial Unicode MS', 'Noto Sans CJK SC', 'DejaVu Sans', sans-serif" transform="translate(265.032042 291.502444) rotate(-60)">worker-1:d8</text>
     </g>
    </g>
    <g id="xtick_7">
     <g id="line2d_7">
      <g>
       <use xlink:href="#ma2fee1d332" x="324.36188" y="242.229555" style="fill: #808080; stroke: #808080; stroke-width: 0.8"/>
      </g>
     </g>
     <g id="text_7">
      <text style="fill: #808080; font: 8px 'PingFang SC', 'Heiti SC', 'STHeiti', 'Calibri', 'Arial', 'Helvetica Neue', 'Arial Unicode MS', 'Noto Sans CJK SC', 'DejaVu Sans', sans-serif" transform="translate(300.864943 291.502444) rotate(-60)">worker-5:d2</text>
     </g>
    </g>
    <g id="xtick_8">
     <g id="line2d_8">
      <g>
       <use xlink:href="#ma2fee1d332" x="360.194781" y="242.229555" style="fill: #808080; stroke: #808080; stroke-width: 0.8"/>
      </g>
     </g>
     <g id="text_8">
      <text style="fill: #808080; font: 8px 'PingFang SC', 'Heiti SC', 'STHeiti', 'Calibri', 'Arial', 'Helvetica Neue', 'Arial Unicode MS', 'Noto Sans CJK SC', 'DejaVu Sans', sans-serif" transform="translate(334.245343 295.750299) rotate(-60)">master-0:d11</text>
     </g>
    </g>
    <g id="xtick_9">
     <g id="line2d_9">
      <g>
       <use xlink:href="#ma2fee1d332" x="396.027681" y="242.229555" style="fill: #808080; stroke: #808080; stroke-width: 0.8"/>
      </g>
     </g>
     <g id="text_9">
      <text style="fill: #808080; font: 8px 'PingFang SC', 'Heiti SC', 'STHeiti', 'Calibri', 'Arial', 'Helvetica Neue', 'Arial Unicode MS', 'Noto Sans CJK SC', 'DejaVu Sans', sans-serif" transform="translate(372.530744 291.502444) rotate(-60)">worker-2:d3</text>
     </g>
    </g>
    <g id="xtick_10">
     <g id="line2d_10">
      <g>
       <use xlink:href="#ma2fee1d332" x="431.860582" y="242.229555" style="fill: #808080; stroke: #808080; stroke-width: 0.8"/>
      </g>
     </g>
     <g id="text_10">
      <text style="fill: #808080; font: 8px 'PingFang SC', 'Heiti SC', 'STHeiti', 'Calibri', 'Arial', 'Helvetica Neue', 'Arial Unicode MS', 'Noto Sans CJK SC', 'DejaVu Sans', sans-serif" transform="translate(408.363645 291.502444) rotate(-60)">worker-2:d8</text>
     </g>
    </g>
    <g id="xtick_11">
     <g id="line2d_11">
      <g>
       <use xlink:href="#ma2fee1d332" x="467.693483" y="242.229555" style="fill: #808080; stroke: #808080; stroke-width: 0.8"/>
      </g>
     </g>
     <g id="text_11">
      <text style="fill: #808080; font: 8px 'PingFang SC', 'Heiti SC', 'STHeiti', 'Calibri', 'Arial', 'Helvetica Neue', 'Arial Unicode MS', 'Noto Sans CJK SC', 'DejaVu Sans', sans-serif" transform="translate(443.960296 291.911641) rotate(-60)">master-0:d1</text>
     </g>
    </g>
    <g id="xtick_12">
     <g id="line2d_12">
      <g>
       <use xlink:href="#ma2fee1d332" x="503.526384" y="242.229555" style="fill: #808080; stroke: #808080; stroke-width: 0.8"/>
      </g>
     </g>
     <g id="text_12">
      <text style="fill: #808080; font: 8px 'PingFang SC', 'Heiti SC', 'STHeiti', 'Calibri', 'Arial', 'Helvetica Neue', 'Arial Unicode MS', 'Noto Sans CJK SC', 'DejaVu Sans', sans-serif" transform="translate(477.813196 295.341102) rotate(-60)">worker-5:d10</text>
     </g>
    </g>
    <g id="xtick_13">
     <g id="line2d_13">
      <g>
       <use xlink:href="#ma2fee1d332" x="539.359284" y="242.229555" style="fill: #808080; stroke: #808080; stroke-width: 0.8"/>
      </g>
     </g>
     <g id="text_13">
      <text style="fill: #808080; font: 8px 'PingFang SC', 'Heiti SC', 'STHeiti', 'Calibri', 'Arial', 'Helvetica Neue', 'Arial Unicode MS', 'Noto Sans CJK SC', 'DejaVu Sans', sans-serif" transform="translate(515.862347 291.502444) rotate(-60)">worker-4:d9</text>
     </g>
    </g>
    <g id="xtick_14">
     <g id="line2d_14">
      <g>
       <use xlink:href="#ma2fee1d332" x="575.192185" y="242.229555" style="fill: #808080; stroke: #808080; stroke-width: 0.8"/>
      </g>
     </g>
     <g id="text_14">
      <text style="fill: #808080; font: 8px 'PingFang SC', 'Heiti SC', 'STHeiti', 'Calibri', 'Arial', 'Helvetica Neue', 'Arial Unicode MS', 'Noto Sans CJK SC', 'DejaVu Sans', sans-serif" transform="translate(549.478998 295.341102) rotate(-60)">worker-2:d13</text>
     </g>
    </g>
    <g id="xtick_15">
     <g id="line2d_15">
      <g>
       <use xlink:href="#ma2fee1d332" x="611.025086" y="242.229555" style="fill: #808080; stroke: #808080; stroke-width: 0.8"/>
      </g>
     </g>
     <g id="text_15">
      <text style="fill: #808080; font: 8px 'PingFang SC', 'Heiti SC', 'STHeiti', 'Calibri', 'Arial', 'Helvetica Neue', 'Arial Unicode MS', 'Noto Sans CJK SC', 'DejaVu Sans', sans-serif" transform="translate(585.311899 295.341102) rotate(-60)">worker-0:d13</text>
     </g>
    </g>
    <g id="xtick_16">
     <g id="line2d_16">
      <g>
       <use xlink:href="#ma2fee1d332" x="646.857987" y="242.229555" style="fill: #808080; stroke: #808080; stroke-width: 0.8"/>
      </g>
     </g>
     <g id="text_16">
      <text style="fill: #808080; font: 8px 'PingFang SC', 'Heiti SC', 'STHeiti', 'Calibri', 'Arial', 'Helvetica Neue', 'Arial Unicode MS', 'Noto Sans CJK SC', 'DejaVu Sans', sans-serif" transform="translate(621.144799 295.341102) rotate(-60)">worker-5:d11</text>
     </g>
    </g>
   </g>
   <g id="matplotlib.axis_2">
    <g id="ytick_1">
     <g id="line2d_17">
      <path d="M 78.828125 242.229555 
L 708.748125 242.229555 
" clip-path="url(#pfcaa292d07)" style="fill: none; stroke-dasharray: 1,1.65; stroke-dashoffset: 0; stroke: #808080; stroke-opacity: 0.55"/>
     </g>
     <g id="line2d_18">
      <defs>
       <path id="md1ae0fa0f7" d="M 0 0 
L -3.5 0 
" style="stroke: #808080; stroke-width: 0.8"/>
      </defs>
      <g>
       <use xlink:href="#md1ae0fa0f7" x="78.828125" y="242.229555" style="fill: #808080; stroke: #808080; stroke-width: 0.8"/>
      </g>
     </g>
     <g id="text_17">
      <text style="fill: #808080; font: 22px 'PingFang SC', 'Heiti SC', 'STHeiti', 'Calibri', 'Arial', 'Helvetica Neue', 'Arial Unicode MS', 'Noto Sans CJK SC', 'DejaVu Sans', sans-serif; text-anchor: end" x="71.828125" y="250.984868" transform="rotate(-0 71.828125 250.984868)">0</text>
     </g>
    </g>
    <g id="ytick_2">
     <g id="line2d_19">
      <path d="M 78.828125 164.486968 
L 708.748125 164.486968 
" clip-path="url(#pfcaa292d07)" style="fill: none; stroke-dasharray: 1,1.65; stroke-dashoffset: 0; stroke: #808080; stroke-opacity: 0.55"/>
     </g>
     <g id="line2d_20">
      <g>
       <use xlink:href="#md1ae0fa0f7" x="78.828125" y="164.486968" style="fill: #808080; stroke: #808080; stroke-width: 0.8"/>
      </g>
     </g>
     <g id="text_18">
      <text style="fill: #808080; font: 22px 'PingFang SC', 'Heiti SC', 'STHeiti', 'Calibri', 'Arial', 'Helvetica Neue', 'Arial Unicode MS', 'Noto Sans CJK SC', 'DejaVu Sans', sans-serif; text-anchor: end" x="71.828125" y="173.24228" transform="rotate(-0 71.828125 173.24228)">100</text>
     </g>
    </g>
    <g id="ytick_3">
     <g id="line2d_21">
      <path d="M 78.828125 86.74438 
L 708.748125 86.74438 
" clip-path="url(#pfcaa292d07)" style="fill: none; stroke-dasharray: 1,1.65; stroke-dashoffset: 0; stroke: #808080; stroke-opacity: 0.55"/>
     </g>
     <g id="line2d_22">
      <g>
       <use xlink:href="#md1ae0fa0f7" x="78.828125" y="86.74438" style="fill: #808080; stroke: #808080; stroke-width: 0.8"/>
      </g>
     </g>
     <g id="text_19">
      <text style="fill: #808080; font: 22px 'PingFang SC', 'Heiti SC', 'STHeiti', 'Calibri', 'Arial', 'Helvetica Neue', 'Arial Unicode MS', 'Noto Sans CJK SC', 'DejaVu Sans', sans-serif; text-anchor: end" x="71.828125" y="95.499693" transform="rotate(-0 71.828125 95.499693)">200</text>
     </g>
    </g>
    <g id="text_20">
     <text style="font: 22px 'PingFang SC', 'Heiti SC', 'STHeiti', 'Calibri', 'Arial', 'Helvetica Neue', 'Arial Unicode MS', 'Noto Sans CJK SC', 'DejaVu Sans', sans-serif; text-anchor: middle" x="28.310625" y="138.314778" transform="rotate(-90 28.310625 138.314778)">Cube+Vector TFLOPS</text>
    </g>
   </g>
   <g id="patch_3">
    <path d="M 107.460852 242.229555 
L 111.268098 242.229555 
L 111.268098 67.061201 
L 107.460852 67.061201 
z
" clip-path="url(#pfcaa292d07)" style="fill: url(#hc5c8c970b6); stroke: #2ca02c; stroke-width: 2; stroke-linejoin: miter"/>
   </g>
   <g id="patch_4">
    <path d="M 111.939965 242.229555 
L 115.747211 242.229555 
L 115.747211 65.175172 
L 111.939965 65.175172 
z
" clip-path="url(#pfcaa292d07)" style="fill: url(#hc5c8c970b6); stroke: #2ca02c; stroke-width: 2; stroke-linejoin: miter"/>
   </g>
   <g id="patch_5">
    <path d="M 116.419077 242.229555 
L 120.226323 242.229555 
L 120.226323 63.905013 
L 116.419077 63.905013 
z
" clip-path="url(#pfcaa292d07)" style="fill: url(#hc5c8c970b6); stroke: #2ca02c; stroke-width: 2; stroke-linejoin: miter"/>
   </g>
   <g id="patch_6">
    <path d="M 120.89819 242.229555 
L 124.705436 242.229555 
L 124.705436 63.535355 
L 120.89819 63.535355 
z
" clip-path="url(#pfcaa292d07)" style="fill: url(#hc5c8c970b6); stroke: #2ca02c; stroke-width: 2; stroke-linejoin: miter"/>
   </g>
   <g id="patch_7">
    <path d="M 125.377303 242.229555 
L 129.184548 242.229555 
L 129.184548 63.385853 
L 125.377303 63.385853 
z
" clip-path="url(#pfcaa292d07)" style="fill: url(#hc5c8c970b6); stroke: #2ca02c; stroke-width: 2; stroke-linejoin: miter"/>
   </g>
   <g id="patch_8">
    <path d="M 129.856415 242.229555 
L 133.663661 242.229555 
L 133.663661 63.349942 
L 129.856415 63.349942 
z
" clip-path="url(#pfcaa292d07)" style="fill: url(#hc5c8c970b6); stroke: #2ca02c; stroke-width: 2; stroke-linejoin: miter"/>
   </g>
   <g id="patch_9">
    <path d="M 134.335528 242.229555 
L 138.142774 242.229555 
L 138.142774 62.682874 
L 134.335528 62.682874 
z
" clip-path="url(#pfcaa292d07)" style="fill: url(#hc5c8c970b6); stroke: #2ca02c; stroke-width: 2; stroke-linejoin: miter"/>
   </g>
   <g id="patch_10">
    <path d="M 138.81464 242.229555 
L 142.621886 242.229555 
L 142.621886 62.350502 
L 138.81464 62.350502 
z
" clip-path="url(#pfcaa292d07)" style="fill: url(#hc5c8c970b6); stroke: #2ca02c; stroke-width: 2; stroke-linejoin: miter"/>
   </g>
   <g id="patch_11">
    <path d="M 143.293753 242.229555 
L 147.100999 242.229555 
L 147.100999 62.338394 
L 143.293753 62.338394 
z
" clip-path="url(#pfcaa292d07)" style="fill: url(#hc5c8c970b6); stroke: #2ca02c; stroke-width: 2; stroke-linejoin: miter"/>
   </g>
   <g id="patch_12">
    <path d="M 147.772866 242.229555 
L 151.580111 242.229555 
L 151.580111 62.041216 
L 147.772866 62.041216 
z
" clip-path="url(#pfcaa292d07)" style="fill: url(#hc5c8c970b6); stroke: #2ca02c; stroke-width: 2; stroke-linejoin: miter"/>
   </g>
   <g id="patch_13">
    <path d="M 152.251978 242.229555 
L 156.059224 242.229555 
L 156.059224 61.864861 
L 152.251978 61.864861 
z
" clip-path="url(#pfcaa292d07)" style="fill: url(#hc5c8c970b6); stroke: #2ca02c; stroke-width: 2; stroke-linejoin: miter"/>
   </g>
   <g id="patch_14">
    <path d="M 156.731091 242.229555 
L 160.538337 242.229555 
L 160.538337 61.235712 
L 156.731091 61.235712 
z
" clip-path="url(#pfcaa292d07)" style="fill: url(#hc5c8c970b6); stroke: #2ca02c; stroke-width: 2; stroke-linejoin: miter"/>
   </g>
   <g id="patch_15">
    <path d="M 161.210203 242.229555 
L 165.017449 242.229555 
L 165.017449 61.045493 
L 161.210203 61.045493 
z
" clip-path="url(#pfcaa292d07)" style="fill: url(#hc5c8c970b6); stroke: #2ca02c; stroke-width: 2; stroke-linejoin: miter"/>
   </g>
   <g id="patch_16">
    <path d="M 165.689316 242.229555 
L 169.496562 242.229555 
L 169.496562 60.928699 
L 165.689316 60.928699 
z
" clip-path="url(#pfcaa292d07)" style="fill: url(#hc5c8c970b6); stroke: #2ca02c; stroke-width: 2; stroke-linejoin: miter"/>
   </g>
   <g id="patch_17">
    <path d="M 170.168429 242.229555 
L 173.975674 242.229555 
L 173.975674 60.515694 
L 170.168429 60.515694 
z
" clip-path="url(#pfcaa292d07)" style="fill: url(#hc5c8c970b6); stroke: #2ca02c; stroke-width: 2; stroke-linejoin: miter"/>
   </g>
   <g id="patch_18">
    <path d="M 174.647541 242.229555 
L 178.454787 242.229555 
L 178.454787 60.218646 
L 174.647541 60.218646 
z
" clip-path="url(#pfcaa292d07)" style="fill: url(#hc5c8c970b6); stroke: #2ca02c; stroke-width: 2; stroke-linejoin: miter"/>
   </g>
   <g id="patch_19">
    <path d="M 179.126654 242.229555 
L 182.9339 242.229555 
L 182.9339 60.212439 
L 179.126654 60.212439 
z
" clip-path="url(#pfcaa292d07)" style="fill: url(#hc5c8c970b6); stroke: #2ca02c; stroke-width: 2; stroke-linejoin: miter"/>
   </g>
   <g id="patch_20">
    <path d="M 183.605766 242.229555 
L 187.413012 242.229555 
L 187.413012 59.93927 
L 183.605766 59.93927 
z
" clip-path="url(#pfcaa292d07)" style="fill: url(#hc5c8c970b6); stroke: #2ca02c; stroke-width: 2; stroke-linejoin: miter"/>
   </g>
   <g id="patch_21">
    <path d="M 188.084879 242.229555 
L 191.892125 242.229555 
L 191.892125 59.852192 
L 188.084879 59.852192 
z
" clip-path="url(#pfcaa292d07)" style="fill: url(#hc5c8c970b6); stroke: #2ca02c; stroke-width: 2; stroke-linejoin: miter"/>
   </g>
   <g id="patch_22">
    <path d="M 192.563992 242.229555 
L 196.371237 242.229555 
L 196.371237 59.471762 
L 192.563992 59.471762 
z
" clip-path="url(#pfcaa292d07)" style="fill: url(#hc5c8c970b6); stroke: #2ca02c; stroke-width: 2; stroke-linejoin: miter"/>
   </g>
   <g id="patch_23">
    <path d="M 197.043104 242.229555 
L 200.85035 242.229555 
L 200.85035 59.40299 
L 197.043104 59.40299 
z
" clip-path="url(#pfcaa292d07)" style="fill: url(#hc5c8c970b6); stroke: #2ca02c; stroke-width: 2; stroke-linejoin: miter"/>
   </g>
   <g id="patch_24">
    <path d="M 201.522217 242.229555 
L 205.329463 242.229555 
L 205.329463 59.177549 
L 201.522217 59.177549 
z
" clip-path="url(#pfcaa292d07)" style="fill: url(#hc5c8c970b6); stroke: #2ca02c; stroke-width: 2; stroke-linejoin: miter"/>
   </g>
   <g id="patch_25">
    <path d="M 206.001329 242.229555 
L 209.808575 242.229555 
L 209.808575 58.92641 
L 206.001329 58.92641 
z
" clip-path="url(#pfcaa292d07)" style="fill: url(#hc5c8c970b6); stroke: #2ca02c; stroke-width: 2; stroke-linejoin: miter"/>
   </g>
   <g id="patch_26">
    <path d="M 210.480442 242.229555 
L 214.287688 242.229555 
L 214.287688 58.7754 
L 210.480442 58.7754 
z
" clip-path="url(#pfcaa292d07)" style="fill: url(#hc5c8c970b6); stroke: #2ca02c; stroke-width: 2; stroke-linejoin: miter"/>
   </g>
   <g id="patch_27">
    <path d="M 214.959555 242.229555 
L 218.7668 242.229555 
L 218.7668 58.756499 
L 214.959555 58.756499 
z
" clip-path="url(#pfcaa292d07)" style="fill: url(#hc5c8c970b6); stroke: #2ca02c; stroke-width: 2; stroke-linejoin: miter"/>
   </g>
   <g id="patch_28">
    <path d="M 219.438667 242.229555 
L 223.245913 242.229555 
L 223.245913 58.62414 
L 219.438667 58.62414 
z
" clip-path="url(#pfcaa292d07)" style="fill: url(#hc5c8c970b6); stroke: #2ca02c; stroke-width: 2; stroke-linejoin: miter"/>
   </g>
   <g id="patch_29">
    <path d="M 223.91778 242.229555 
L 227.725025 242.229555 
L 227.725025 58.611525 
L 223.91778 58.611525 
z
" clip-path="url(#pfcaa292d07)" style="fill: url(#hc5c8c970b6); stroke: #2ca02c; stroke-width: 2; stroke-linejoin: miter"/>
   </g>
   <g id="patch_30">
    <path d="M 228.396892 242.229555 
L 232.204138 242.229555 
L 232.204138 58.611525 
L 228.396892 58.611525 
z
" clip-path="url(#pfcaa292d07)" style="fill: url(#hc5c8c970b6); stroke: #2ca02c; stroke-width: 2; stroke-linejoin: miter"/>
   </g>
   <g id="patch_31">
    <path d="M 232.876005 242.229555 
L 236.683251 242.229555 
L 236.683251 58.384127 
L 232.876005 58.384127 
z
" clip-path="url(#pfcaa292d07)" style="fill: url(#hc5c8c970b6); stroke: #2ca02c; stroke-width: 2; stroke-linejoin: miter"/>
   </g>
   <g id="patch_32">
    <path d="M 237.355118 242.229555 
L 241.162363 242.229555 
L 241.162363 58.320871 
L 237.355118 58.320871 
z
" clip-path="url(#pfcaa292d07)" style="fill: url(#hc5c8c970b6); stroke: #2ca02c; stroke-width: 2; stroke-linejoin: miter"/>
   </g>
   <g id="patch_33">
    <path d="M 241.83423 242.229555 
L 245.641476 242.229555 
L 245.641476 57.965776 
L 241.83423 57.965776 
z
" clip-path="url(#pfcaa292d07)" style="fill: url(#hc5c8c970b6); stroke: #2ca02c; stroke-width: 2; stroke-linejoin: miter"/>
   </g>
   <g id="patch_34">
    <path d="M 246.313343 242.229555 
L 250.120588 242.229555 
L 250.120588 57.832274 
L 246.313343 57.832274 
z
" clip-path="url(#pfcaa292d07)" style="fill: url(#hc5c8c970b6); stroke: #2ca02c; stroke-width: 2; stroke-linejoin: miter"/>
   </g>
   <g id="patch_35">
    <path d="M 250.792455 242.229555 
L 254.599701 242.229555 
L 254.599701 57.813178 
L 250.792455 57.813178 
z
" clip-path="url(#pfcaa292d07)" style="fill: url(#hc5c8c970b6); stroke: #2ca02c; stroke-width: 2; stroke-linejoin: miter"/>
   </g>
   <g id="patch_36">
    <path d="M 255.271568 242.229555 
L 259.078814 242.229555 
L 259.078814 57.679454 
L 255.271568 57.679454 
z
" clip-path="url(#pfcaa292d07)" style="fill: url(#hc5c8c970b6); stroke: #2ca02c; stroke-width: 2; stroke-linejoin: miter"/>
   </g>
   <g id="patch_37">
    <path d="M 259.750681 242.229555 
L 263.557926 242.229555 
L 263.557926 57.596572 
L 259.750681 57.596572 
z
" clip-path="url(#pfcaa292d07)" style="fill: url(#hc5c8c970b6); stroke: #2ca02c; stroke-width: 2; stroke-linejoin: miter"/>
   </g>
   <g id="patch_38">
    <path d="M 264.229793 242.229555 
L 268.037039 242.229555 
L 268.037039 57.257887 
L 264.229793 57.257887 
z
" clip-path="url(#pfcaa292d07)" style="fill: url(#hc5c8c970b6); stroke: #2ca02c; stroke-width: 2; stroke-linejoin: miter"/>
   </g>
   <g id="patch_39">
    <path d="M 268.708906 242.229555 
L 272.516151 242.229555 
L 272.516151 57.136176 
L 268.708906 57.136176 
z
" clip-path="url(#pfcaa292d07)" style="fill: url(#hc5c8c970b6); stroke: #2ca02c; stroke-width: 2; stroke-linejoin: miter"/>
   </g>
   <g id="patch_40">
    <path d="M 273.188018 242.229555 
L 276.995264 242.229555 
L 276.995264 57.123356 
L 273.188018 57.123356 
z
" clip-path="url(#pfcaa292d07)" style="fill: url(#hc5c8c970b6); stroke: #2ca02c; stroke-width: 2; stroke-linejoin: miter"/>
   </g>
   <g id="patch_41">
    <path d="M 277.667131 242.229555 
L 281.474377 242.229555 
L 281.474377 56.924391 
L 277.667131 56.924391 
z
" clip-path="url(#pfcaa292d07)" style="fill: url(#hc5c8c970b6); stroke: #2ca02c; stroke-width: 2; stroke-linejoin: miter"/>
   </g>
   <g id="patch_42">
    <path d="M 282.146244 242.229555 
L 285.953489 242.229555 
L 285.953489 56.795798 
L 282.146244 56.795798 
z
" clip-path="url(#pfcaa292d07)" style="fill: url(#hc5c8c970b6); stroke: #2ca02c; stroke-width: 2; stroke-linejoin: miter"/>
   </g>
   <g id="patch_43">
    <path d="M 286.625356 242.229555 
L 290.432602 242.229555 
L 290.432602 56.731426 
L 286.625356 56.731426 
z
" clip-path="url(#pfcaa292d07)" style="fill: url(#hc5c8c970b6); stroke: #2ca02c; stroke-width: 2; stroke-linejoin: miter"/>
   </g>
   <g id="patch_44">
    <path d="M 291.104469 242.229555 
L 294.911714 242.229555 
L 294.911714 56.724997 
L 291.104469 56.724997 
z
" clip-path="url(#pfcaa292d07)" style="fill: url(#hc5c8c970b6); stroke: #2ca02c; stroke-width: 2; stroke-linejoin: miter"/>
   </g>
   <g id="patch_45">
    <path d="M 295.583581 242.229555 
L 299.390827 242.229555 
L 299.390827 56.71212 
L 295.583581 56.71212 
z
" clip-path="url(#pfcaa292d07)" style="fill: url(#hc5c8c970b6); stroke: #2ca02c; stroke-width: 2; stroke-linejoin: miter"/>
   </g>
   <g id="patch_46">
    <path d="M 300.062694 242.229555 
L 303.86994 242.229555 
L 303.86994 56.615476 
L 300.062694 56.615476 
z
" clip-path="url(#pfcaa292d07)" style="fill: url(#hc5c8c970b6); stroke: #2ca02c; stroke-width: 2; stroke-linejoin: miter"/>
   </g>
   <g id="patch_47">
    <path d="M 304.541807 242.229555 
L 308.349052 242.229555 
L 308.349052 56.583233 
L 304.541807 56.583233 
z
" clip-path="url(#pfcaa292d07)" style="fill: url(#hc5c8c970b6); stroke: #2ca02c; stroke-width: 2; stroke-linejoin: miter"/>
   </g>
   <g id="patch_48">
    <path d="M 309.020919 242.229555 
L 312.828165 242.229555 
L 312.828165 56.305511 
L 309.020919 56.305511 
z
" clip-path="url(#pfcaa292d07)" style="fill: url(#hc5c8c970b6); stroke: #2ca02c; stroke-width: 2; stroke-linejoin: miter"/>
   </g>
   <g id="patch_49">
    <path d="M 313.500032 242.229555 
L 317.307277 242.229555 
L 317.307277 56.299053 
L 313.500032 56.299053 
z
" clip-path="url(#pfcaa292d07)" style="fill: url(#hc5c8c970b6); stroke: #2ca02c; stroke-width: 2; stroke-linejoin: miter"/>
   </g>
   <g id="patch_50">
    <path d="M 317.979144 242.229555 
L 321.78639 242.229555 
L 321.78639 56.2667 
L 317.979144 56.2667 
z
" clip-path="url(#pfcaa292d07)" style="fill: url(#hc5c8c970b6); stroke: #2ca02c; stroke-width: 2; stroke-linejoin: miter"/>
   </g>
   <g id="patch_51">
    <path d="M 322.458257 242.229555 
L 326.265503 242.229555 
L 326.265503 56.253759 
L 322.458257 56.253759 
z
" clip-path="url(#pfcaa292d07)" style="fill: url(#hc5c8c970b6); stroke: #2ca02c; stroke-width: 2; stroke-linejoin: miter"/>
   </g>
   <g id="patch_52">
    <path d="M 326.937369 242.229555 
L 330.744615 242.229555 
L 330.744615 56.201978 
L 326.937369 56.201978 
z
" clip-path="url(#pfcaa292d07)" style="fill: url(#hc5c8c970b6); stroke: #2ca02c; stroke-width: 2; stroke-linejoin: miter"/>
   </g>
   <g id="patch_53">
    <path d="M 331.416482 242.229555 
L 335.223728 242.229555 
L 335.223728 56.039948 
L 331.416482 56.039948 
z
" clip-path="url(#pfcaa292d07)" style="fill: url(#hc5c8c970b6); stroke: #2ca02c; stroke-width: 2; stroke-linejoin: miter"/>
   </g>
   <g id="patch_54">
    <path d="M 335.895595 242.229555 
L 339.70284 242.229555 
L 339.70284 55.994528 
L 335.895595 55.994528 
z
" clip-path="url(#pfcaa292d07)" style="fill: url(#hc5c8c970b6); stroke: #2ca02c; stroke-width: 2; stroke-linejoin: miter"/>
   </g>
   <g id="patch_55">
    <path d="M 340.374707 242.229555 
L 344.181953 242.229555 
L 344.181953 55.916629 
L 340.374707 55.916629 
z
" clip-path="url(#pfcaa292d07)" style="fill: url(#hc5c8c970b6); stroke: #2ca02c; stroke-width: 2; stroke-linejoin: miter"/>
   </g>
   <g id="patch_56">
    <path d="M 344.85382 242.229555 
L 348.661066 242.229555 
L 348.661066 55.90364 
L 344.85382 55.90364 
z
" clip-path="url(#pfcaa292d07)" style="fill: url(#hc5c8c970b6); stroke: #2ca02c; stroke-width: 2; stroke-linejoin: miter"/>
   </g>
   <g id="patch_57">
    <path d="M 349.332932 242.229555 
L 353.140178 242.229555 
L 353.140178 55.897135 
L 349.332932 55.897135 
z
" clip-path="url(#pfcaa292d07)" style="fill: url(#hc5c8c970b6); stroke: #2ca02c; stroke-width: 2; stroke-linejoin: miter"/>
   </g>
   <g id="patch_58">
    <path d="M 353.812045 242.229555 
L 357.619291 242.229555 
L 357.619291 55.832156 
L 353.812045 55.832156 
z
" clip-path="url(#pfcaa292d07)" style="fill: url(#hc5c8c970b6); stroke: #2ca02c; stroke-width: 2; stroke-linejoin: miter"/>
   </g>
   <g id="patch_59">
    <path d="M 358.291158 242.229555 
L 362.098403 242.229555 
L 362.098403 55.799639 
L 358.291158 55.799639 
z
" clip-path="url(#pfcaa292d07)" style="fill: url(#hc5c8c970b6); stroke: #2ca02c; stroke-width: 2; stroke-linejoin: miter"/>
   </g>
   <g id="patch_60">
    <path d="M 362.77027 242.229555 
L 366.577516 242.229555 
L 366.577516 55.695523 
L 362.77027 55.695523 
z
" clip-path="url(#pfcaa292d07)" style="fill: url(#hc5c8c970b6); stroke: #2ca02c; stroke-width: 2; stroke-linejoin: miter"/>
   </g>
   <g id="patch_61">
    <path d="M 367.249383 242.229555 
L 371.056629 242.229555 
L 371.056629 55.656456 
L 367.249383 55.656456 
z
" clip-path="url(#pfcaa292d07)" style="fill: url(#hc5c8c970b6); stroke: #2ca02c; stroke-width: 2; stroke-linejoin: miter"/>
   </g>
   <g id="patch_62">
    <path d="M 371.728495 242.229555 
L 375.535741 242.229555 
L 375.535741 55.649954 
L 371.728495 55.649954 
z
" clip-path="url(#pfcaa292d07)" style="fill: url(#hc5c8c970b6); stroke: #2ca02c; stroke-width: 2; stroke-linejoin: miter"/>
   </g>
   <g id="patch_63">
    <path d="M 376.207608 242.229555 
L 380.014854 242.229555 
L 380.014854 55.597817 
L 376.207608 55.597817 
z
" clip-path="url(#pfcaa292d07)" style="fill: url(#hc5c8c970b6); stroke: #2ca02c; stroke-width: 2; stroke-linejoin: miter"/>
   </g>
   <g id="patch_64">
    <path d="M 380.686721 242.229555 
L 384.493966 242.229555 
L 384.493966 55.55218 
L 380.686721 55.55218 
z
" clip-path="url(#pfcaa292d07)" style="fill: url(#hc5c8c970b6); stroke: #2ca02c; stroke-width: 2; stroke-linejoin: miter"/>
   </g>
   <g id="patch_65">
    <path d="M 385.165833 242.229555 
L 388.973079 242.229555 
L 388.973079 55.519585 
L 385.165833 55.519585 
z
" clip-path="url(#pfcaa292d07)" style="fill: url(#hc5c8c970b6); stroke: #2ca02c; stroke-width: 2; stroke-linejoin: miter"/>
   </g>
   <g id="patch_66">
    <path d="M 389.644946 242.229555 
L 393.452192 242.229555 
L 393.452192 55.473911 
L 389.644946 55.473911 
z
" clip-path="url(#pfcaa292d07)" style="fill: url(#hc5c8c970b6); stroke: #2ca02c; stroke-width: 2; stroke-linejoin: miter"/>
   </g>
   <g id="patch_67">
    <path d="M 394.124058 242.229555 
L 397.931304 242.229555 
L 397.931304 55.454323 
L 394.124058 55.454323 
z
" clip-path="url(#pfcaa292d07)" style="fill: url(#h4dbdc265b6); stroke: #ff7f0e; stroke-width: 2; stroke-linejoin: miter"/>
   </g>
   <g id="patch_68">
    <path d="M 398.603171 242.229555 
L 402.410417 242.229555 
L 402.410417 55.199412 
L 398.603171 55.199412 
z
" clip-path="url(#pfcaa292d07)" style="fill: url(#h4dbdc265b6); stroke: #ff7f0e; stroke-width: 2; stroke-linejoin: miter"/>
   </g>
   <g id="patch_69">
    <path d="M 403.082284 242.229555 
L 406.889529 242.229555 
L 406.889529 55.03563 
L 403.082284 55.03563 
z
" clip-path="url(#pfcaa292d07)" style="fill: url(#h4dbdc265b6); stroke: #ff7f0e; stroke-width: 2; stroke-linejoin: miter"/>
   </g>
   <g id="patch_70">
    <path d="M 407.561396 242.229555 
L 411.368642 242.229555 
L 411.368642 54.983168 
L 407.561396 54.983168 
z
" clip-path="url(#pfcaa292d07)" style="fill: url(#h4dbdc265b6); stroke: #ff7f0e; stroke-width: 2; stroke-linejoin: miter"/>
   </g>
   <g id="patch_71">
    <path d="M 412.040509 242.229555 
L 415.847755 242.229555 
L 415.847755 54.838728 
L 412.040509 54.838728 
z
" clip-path="url(#pfcaa292d07)" style="fill: url(#h4dbdc265b6); stroke: #ff7f0e; stroke-width: 2; stroke-linejoin: miter"/>
   </g>
   <g id="patch_72">
    <path d="M 416.519621 242.229555 
L 420.326867 242.229555 
L 420.326867 54.766424 
L 416.519621 54.766424 
z
" clip-path="url(#pfcaa292d07)" style="fill: url(#h4dbdc265b6); stroke: #ff7f0e; stroke-width: 2; stroke-linejoin: miter"/>
   </g>
   <g id="patch_73">
    <path d="M 420.998734 242.229555 
L 424.80598 242.229555 
L 424.80598 54.733535 
L 420.998734 54.733535 
z
" clip-path="url(#pfcaa292d07)" style="fill: url(#h4dbdc265b6); stroke: #ff7f0e; stroke-width: 2; stroke-linejoin: miter"/>
   </g>
   <g id="patch_74">
    <path d="M 425.477847 242.229555 
L 429.285092 242.229555 
L 429.285092 54.694065 
L 425.477847 54.694065 
z
" clip-path="url(#pfcaa292d07)" style="fill: url(#h4dbdc265b6); stroke: #ff7f0e; stroke-width: 2; stroke-linejoin: miter"/>
   </g>
   <g id="patch_75">
    <path d="M 429.956959 242.229555 
L 433.764205 242.229555 
L 433.764205 54.66115 
L 429.956959 54.66115 
z
" clip-path="url(#pfcaa292d07)" style="fill: url(#h4dbdc265b6); stroke: #ff7f0e; stroke-width: 2; stroke-linejoin: miter"/>
   </g>
   <g id="patch_76">
    <path d="M 434.436072 242.229555 
L 438.243318 242.229555 
L 438.243318 54.641412 
L 434.436072 54.641412 
z
" clip-path="url(#pfcaa292d07)" style="fill: url(#h4dbdc265b6); stroke: #ff7f0e; stroke-width: 2; stroke-linejoin: miter"/>
   </g>
   <g id="patch_77">
    <path d="M 438.915184 242.229555 
L 442.72243 242.229555 
L 442.72243 54.417267 
L 438.915184 54.417267 
z
" clip-path="url(#pfcaa292d07)" style="fill: url(#h4dbdc265b6); stroke: #ff7f0e; stroke-width: 2; stroke-linejoin: miter"/>
   </g>
   <g id="patch_78">
    <path d="M 443.394297 242.229555 
L 447.201543 242.229555 
L 447.201543 54.417267 
L 443.394297 54.417267 
z
" clip-path="url(#pfcaa292d07)" style="fill: url(#h4dbdc265b6); stroke: #ff7f0e; stroke-width: 2; stroke-linejoin: miter"/>
   </g>
   <g id="patch_79">
    <path d="M 447.87341 242.229555 
L 451.680655 242.229555 
L 451.680655 54.417267 
L 447.87341 54.417267 
z
" clip-path="url(#pfcaa292d07)" style="fill: url(#h4dbdc265b6); stroke: #ff7f0e; stroke-width: 2; stroke-linejoin: miter"/>
   </g>
   <g id="patch_80">
    <path d="M 452.352522 242.229555 
L 456.159768 242.229555 
L 456.159768 54.351251 
L 452.352522 54.351251 
z
" clip-path="url(#pfcaa292d07)" style="fill: url(#h4dbdc265b6); stroke: #ff7f0e; stroke-width: 2; stroke-linejoin: miter"/>
   </g>
   <g id="patch_81">
    <path d="M 456.831635 242.229555 
L 460.638881 242.229555 
L 460.638881 54.28517 
L 456.831635 54.28517 
z
" clip-path="url(#pfcaa292d07)" style="fill: url(#h4dbdc265b6); stroke: #ff7f0e; stroke-width: 2; stroke-linejoin: miter"/>
   </g>
   <g id="patch_82">
    <path d="M 461.310747 242.229555 
L 465.117993 242.229555 
L 465.117993 54.258732 
L 461.310747 54.258732 
z
" clip-path="url(#pfcaa292d07)" style="fill: url(#h4dbdc265b6); stroke: #ff7f0e; stroke-width: 2; stroke-linejoin: miter"/>
   </g>
   <g id="patch_83">
    <path d="M 465.78986 242.229555 
L 469.597106 242.229555 
L 469.597106 54.225664 
L 465.78986 54.225664 
z
" clip-path="url(#pfcaa292d07)" style="fill: url(#h4dbdc265b6); stroke: #ff7f0e; stroke-width: 2; stroke-linejoin: miter"/>
   </g>
   <g id="patch_84">
    <path d="M 470.268973 242.229555 
L 474.076218 242.229555 
L 474.076218 54.19921 
L 470.268973 54.19921 
z
" clip-path="url(#pfcaa292d07)" style="fill: url(#h4dbdc265b6); stroke: #ff7f0e; stroke-width: 2; stroke-linejoin: miter"/>
   </g>
   <g id="patch_85">
    <path d="M 474.748085 242.229555 
L 478.555331 242.229555 
L 478.555331 54.106561 
L 474.748085 54.106561 
z
" clip-path="url(#pfcaa292d07)" style="fill: url(#h4dbdc265b6); stroke: #ff7f0e; stroke-width: 2; stroke-linejoin: miter"/>
   </g>
   <g id="patch_86">
    <path d="M 479.227198 242.229555 
L 483.034443 242.229555 
L 483.034443 54.073439 
L 479.227198 54.073439 
z
" clip-path="url(#pfcaa292d07)" style="fill: url(#h4dbdc265b6); stroke: #ff7f0e; stroke-width: 2; stroke-linejoin: miter"/>
   </g>
   <g id="patch_87">
    <path d="M 483.70631 242.229555 
L 487.513556 242.229555 
L 487.513556 54.033691 
L 483.70631 54.033691 
z
" clip-path="url(#pfcaa292d07)" style="fill: url(#h4dbdc265b6); stroke: #ff7f0e; stroke-width: 2; stroke-linejoin: miter"/>
   </g>
   <g id="patch_88">
    <path d="M 488.185423 242.229555 
L 491.992669 242.229555 
L 491.992669 53.861212 
L 488.185423 53.861212 
z
" clip-path="url(#pfcaa292d07)" style="fill: url(#h4dbdc265b6); stroke: #ff7f0e; stroke-width: 2; stroke-linejoin: miter"/>
   </g>
   <g id="patch_89">
    <path d="M 492.664536 242.229555 
L 496.471781 242.229555 
L 496.471781 53.781518 
L 492.664536 53.781518 
z
" clip-path="url(#pfcaa292d07)" style="fill: url(#h4dbdc265b6); stroke: #ff7f0e; stroke-width: 2; stroke-linejoin: miter"/>
   </g>
   <g id="patch_90">
    <path d="M 497.143648 242.229555 
L 500.950894 242.229555 
L 500.950894 53.688436 
L 497.143648 53.688436 
z
" clip-path="url(#pfcaa292d07)" style="fill: url(#h4dbdc265b6); stroke: #ff7f0e; stroke-width: 2; stroke-linejoin: miter"/>
   </g>
   <g id="patch_91">
    <path d="M 501.622761 242.229555 
L 505.430006 242.229555 
L 505.430006 53.548662 
L 501.622761 53.548662 
z
" clip-path="url(#pfcaa292d07)" style="fill: url(#h4dbdc265b6); stroke: #ff7f0e; stroke-width: 2; stroke-linejoin: miter"/>
   </g>
   <g id="patch_92">
    <path d="M 506.101873 242.229555 
L 509.909119 242.229555 
L 509.909119 53.341933 
L 506.101873 53.341933 
z
" clip-path="url(#pfcaa292d07)" style="fill: url(#h4dbdc265b6); stroke: #ff7f0e; stroke-width: 2; stroke-linejoin: miter"/>
   </g>
   <g id="patch_93">
    <path d="M 510.580986 242.229555 
L 514.388232 242.229555 
L 514.388232 53.315229 
L 510.580986 53.315229 
z
" clip-path="url(#pfcaa292d07)" style="fill: url(#h4dbdc265b6); stroke: #ff7f0e; stroke-width: 2; stroke-linejoin: miter"/>
   </g>
   <g id="patch_94">
    <path d="M 515.060099 242.229555 
L 518.867344 242.229555 
L 518.867344 53.054441 
L 515.060099 53.054441 
z
" clip-path="url(#pfcaa292d07)" style="fill: url(#h4dbdc265b6); stroke: #ff7f0e; stroke-width: 2; stroke-linejoin: miter"/>
   </g>
   <g id="patch_95">
    <path d="M 519.539211 242.229555 
L 523.346457 242.229555 
L 523.346457 52.980754 
L 519.539211 52.980754 
z
" clip-path="url(#pfcaa292d07)" style="fill: url(#h4dbdc265b6); stroke: #ff7f0e; stroke-width: 2; stroke-linejoin: miter"/>
   </g>
   <g id="patch_96">
    <path d="M 524.018324 242.229555 
L 527.825569 242.229555 
L 527.825569 52.766052 
L 524.018324 52.766052 
z
" clip-path="url(#pfcaa292d07)" style="fill: url(#h4dbdc265b6); stroke: #ff7f0e; stroke-width: 2; stroke-linejoin: miter"/>
   </g>
   <g id="patch_97">
    <path d="M 528.497436 242.229555 
L 532.304682 242.229555 
L 532.304682 52.105532 
L 528.497436 52.105532 
z
" clip-path="url(#pfcaa292d07)" style="fill: url(#h4dbdc265b6); stroke: #ff7f0e; stroke-width: 2; stroke-linejoin: miter"/>
   </g>
   <g id="patch_98">
    <path d="M 532.976549 242.229555 
L 536.783795 242.229555 
L 536.783795 51.929519 
L 532.976549 51.929519 
z
" clip-path="url(#pfcaa292d07)" style="fill: url(#h4dbdc265b6); stroke: #ff7f0e; stroke-width: 2; stroke-linejoin: miter"/>
   </g>
   <g id="patch_99">
    <path d="M 537.455662 242.229555 
L 541.262907 242.229555 
L 541.262907 51.915968 
L 537.455662 51.915968 
z
" clip-path="url(#pfcaa292d07)" style="fill: url(#h4dbdc265b6); stroke: #ff7f0e; stroke-width: 2; stroke-linejoin: miter"/>
   </g>
   <g id="patch_100">
    <path d="M 541.934774 242.229555 
L 545.74202 242.229555 
L 545.74202 51.841391 
L 541.934774 51.841391 
z
" clip-path="url(#pfcaa292d07)" style="fill: url(#h4dbdc265b6); stroke: #ff7f0e; stroke-width: 2; stroke-linejoin: miter"/>
   </g>
   <g id="patch_101">
    <path d="M 546.413887 242.229555 
L 550.221132 242.229555 
L 550.221132 51.167557 
L 546.413887 51.167557 
z
" clip-path="url(#pfcaa292d07)" style="fill: url(#h4dbdc265b6); stroke: #ff7f0e; stroke-width: 2; stroke-linejoin: miter"/>
   </g>
   <g id="patch_102">
    <path d="M 550.892999 242.229555 
L 554.700245 242.229555 
L 554.700245 51.112884 
L 550.892999 51.112884 
z
" clip-path="url(#pfcaa292d07)" style="fill: url(#h4dbdc265b6); stroke: #ff7f0e; stroke-width: 2; stroke-linejoin: miter"/>
   </g>
   <g id="patch_103">
    <path d="M 555.372112 242.229555 
L 559.179358 242.229555 
L 559.179358 50.887082 
L 555.372112 50.887082 
z
" clip-path="url(#pfcaa292d07)" style="fill: url(#h4dbdc265b6); stroke: #ff7f0e; stroke-width: 2; stroke-linejoin: miter"/>
   </g>
   <g id="patch_104">
    <path d="M 559.851225 242.229555 
L 563.65847 242.229555 
L 563.65847 50.804851 
L 559.851225 50.804851 
z
" clip-path="url(#pfcaa292d07)" style="fill: url(#h4dbdc265b6); stroke: #ff7f0e; stroke-width: 2; stroke-linejoin: miter"/>
   </g>
   <g id="patch_105">
    <path d="M 564.330337 242.229555 
L 568.137583 242.229555 
L 568.137583 50.708805 
L 564.330337 50.708805 
z
" clip-path="url(#pfcaa292d07)" style="fill: url(#h4dbdc265b6); stroke: #ff7f0e; stroke-width: 2; stroke-linejoin: miter"/>
   </g>
   <g id="patch_106">
    <path d="M 568.80945 242.229555 
L 572.616695 242.229555 
L 572.616695 50.688226 
L 568.80945 50.688226 
z
" clip-path="url(#pfcaa292d07)" style="fill: url(#h4dbdc265b6); stroke: #ff7f0e; stroke-width: 2; stroke-linejoin: miter"/>
   </g>
   <g id="patch_107">
    <path d="M 573.288562 242.229555 
L 577.095808 242.229555 
L 577.095808 50.337476 
L 573.288562 50.337476 
z
" clip-path="url(#pfcaa292d07)" style="fill: url(#h4dbdc265b6); stroke: #ff7f0e; stroke-width: 2; stroke-linejoin: miter"/>
   </g>
   <g id="patch_108">
    <path d="M 577.767675 242.229555 
L 581.574921 242.229555 
L 581.574921 50.234074 
L 577.767675 50.234074 
z
" clip-path="url(#pfcaa292d07)" style="fill: url(#h4dbdc265b6); stroke: #ff7f0e; stroke-width: 2; stroke-linejoin: miter"/>
   </g>
   <g id="patch_109">
    <path d="M 582.246787 242.229555 
L 586.054033 242.229555 
L 586.054033 50.096025 
L 582.246787 50.096025 
z
" clip-path="url(#pfcaa292d07)" style="fill: url(#h4dbdc265b6); stroke: #ff7f0e; stroke-width: 2; stroke-linejoin: miter"/>
   </g>
   <g id="patch_110">
    <path d="M 586.7259 242.229555 
L 590.533146 242.229555 
L 590.533146 49.930108 
L 586.7259 49.930108 
z
" clip-path="url(#pfcaa292d07)" style="fill: url(#h4dbdc265b6); stroke: #ff7f0e; stroke-width: 2; stroke-linejoin: miter"/>
   </g>
   <g id="patch_111">
    <path d="M 591.205013 242.229555 
L 595.012258 242.229555 
L 595.012258 49.763904 
L 591.205013 49.763904 
z
" clip-path="url(#pfcaa292d07)" style="fill: url(#h4dbdc265b6); stroke: #ff7f0e; stroke-width: 2; stroke-linejoin: miter"/>
   </g>
   <g id="patch_112">
    <path d="M 595.684125 242.229555 
L 599.491371 242.229555 
L 599.491371 49.277496 
L 595.684125 49.277496 
z
" clip-path="url(#pfcaa292d07)" style="fill: url(#h4dbdc265b6); stroke: #ff7f0e; stroke-width: 2; stroke-linejoin: miter"/>
   </g>
   <g id="patch_113">
    <path d="M 600.163238 242.229555 
L 603.970484 242.229555 
L 603.970484 48.802623 
L 600.163238 48.802623 
z
" clip-path="url(#pfcaa292d07)" style="fill: url(#h4dbdc265b6); stroke: #ff7f0e; stroke-width: 2; stroke-linejoin: miter"/>
   </g>
   <g id="patch_114">
    <path d="M 604.64235 242.229555 
L 608.449596 242.229555 
L 608.449596 48.550264 
L 604.64235 48.550264 
z
" clip-path="url(#pfcaa292d07)" style="fill: url(#h4dbdc265b6); stroke: #ff7f0e; stroke-width: 2; stroke-linejoin: miter"/>
   </g>
   <g id="patch_115">
    <path d="M 609.121463 242.229555 
L 612.928709 242.229555 
L 612.928709 48.501115 
L 609.121463 48.501115 
z
" clip-path="url(#pfcaa292d07)" style="fill: url(#h4dbdc265b6); stroke: #ff7f0e; stroke-width: 2; stroke-linejoin: miter"/>
   </g>
   <g id="patch_116">
    <path d="M 613.600576 242.229555 
L 617.407821 242.229555 
L 617.407821 48.388685 
L 613.600576 48.388685 
z
" clip-path="url(#pfcaa292d07)" style="fill: url(#h4dbdc265b6); stroke: #ff7f0e; stroke-width: 2; stroke-linejoin: miter"/>
   </g>
   <g id="patch_117">
    <path d="M 618.079688 242.229555 
L 621.886934 242.229555 
L 621.886934 48.184599 
L 618.079688 48.184599 
z
" clip-path="url(#pfcaa292d07)" style="fill: url(#h4dbdc265b6); stroke: #ff7f0e; stroke-width: 2; stroke-linejoin: miter"/>
   </g>
   <g id="patch_118">
    <path d="M 622.558801 242.229555 
L 626.366047 242.229555 
L 626.366047 47.775093 
L 622.558801 47.775093 
z
" clip-path="url(#pfcaa292d07)" style="fill: url(#h4dbdc265b6); stroke: #ff7f0e; stroke-width: 2; stroke-linejoin: miter"/>
   </g>
   <g id="patch_119">
    <path d="M 627.037913 242.229555 
L 630.845159 242.229555 
L 630.845159 47.619314 
L 627.037913 47.619314 
z
" clip-path="url(#pfcaa292d07)" style="fill: url(#h4dbdc265b6); stroke: #ff7f0e; stroke-width: 2; stroke-linejoin: miter"/>
   </g>
   <g id="patch_120">
    <path d="M 631.517026 242.229555 
L 635.324272 242.229555 
L 635.324272 47.257223 
L 631.517026 47.257223 
z
" clip-path="url(#pfcaa292d07)" style="fill: url(#h4dbdc265b6); stroke: #ff7f0e; stroke-width: 2; stroke-linejoin: miter"/>
   </g>
   <g id="patch_121">
    <path d="M 635.996139 242.229555 
L 639.803384 242.229555 
L 639.803384 46.965163 
L 635.996139 46.965163 
z
" clip-path="url(#pfcaa292d07)" style="fill: url(#h4dbdc265b6); stroke: #ff7f0e; stroke-width: 2; stroke-linejoin: miter"/>
   </g>
   <g id="patch_122">
    <path d="M 640.475251 242.229555 
L 644.282497 242.229555 
L 644.282497 46.772342 
L 640.475251 46.772342 
z
" clip-path="url(#pfcaa292d07)" style="fill: url(#h4dbdc265b6); stroke: #ff7f0e; stroke-width: 2; stroke-linejoin: miter"/>
   </g>
   <g id="patch_123">
    <path d="M 644.954364 242.229555 
L 648.76161 242.229555 
L 648.76161 45.744772 
L 644.954364 45.744772 
z
" clip-path="url(#pfcaa292d07)" style="fill: url(#h4dbdc265b6); stroke: #ff7f0e; stroke-width: 2; stroke-linejoin: miter"/>
   </g>
   <g id="patch_124">
    <path d="M 649.433476 242.229555 
L 653.240722 242.229555 
L 653.240722 45.701405 
L 649.433476 45.701405 
z
" clip-path="url(#pfcaa292d07)" style="fill: url(#h4dbdc265b6); stroke: #ff7f0e; stroke-width: 2; stroke-linejoin: miter"/>
   </g>
   <g id="patch_125">
    <path d="M 653.912589 242.229555 
L 657.719835 242.229555 
L 657.719835 45.694189 
L 653.912589 45.694189 
z
" clip-path="url(#pfcaa292d07)" style="fill: url(#h4dbdc265b6); stroke: #ff7f0e; stroke-width: 2; stroke-linejoin: miter"/>
   </g>
   <g id="patch_126">
    <path d="M 658.391702 242.229555 
L 662.198947 242.229555 
L 662.198947 45.614655 
L 658.391702 45.614655 
z
" clip-path="url(#pfcaa292d07)" style="fill: url(#h4dbdc265b6); stroke: #ff7f0e; stroke-width: 2; stroke-linejoin: miter"/>
   </g>
   <g id="patch_127">
    <path d="M 662.870814 242.229555 
L 666.67806 242.229555 
L 666.67806 45.585722 
L 662.870814 45.585722 
z
" clip-path="url(#pfcaa292d07)" style="fill: url(#h4dbdc265b6); stroke: #ff7f0e; stroke-width: 2; stroke-linejoin: miter"/>
   </g>
   <g id="patch_128">
    <path d="M 667.349927 242.229555 
L 671.157173 242.229555 
L 671.157173 44.545582 
L 667.349927 44.545582 
z
" clip-path="url(#pfcaa292d07)" style="fill: url(#h4dbdc265b6); stroke: #ff7f0e; stroke-width: 2; stroke-linejoin: miter"/>
   </g>
   <g id="patch_129">
    <path d="M 671.829039 242.229555 
L 675.636285 242.229555 
L 675.636285 44.399229 
L 671.829039 44.399229 
z
" clip-path="url(#pfcaa292d07)" style="fill: url(#h4dbdc265b6); stroke: #ff7f0e; stroke-width: 2; stroke-linejoin: miter"/>
   </g>
   <g id="patch_130">
    <path d="M 676.308152 242.229555 
L 680.115398 242.229555 
L 680.115398 44.296645 
L 676.308152 44.296645 
z
" clip-path="url(#pfcaa292d07)" style="fill: url(#h4dbdc265b6); stroke: #ff7f0e; stroke-width: 2; stroke-linejoin: miter"/>
   </g>
   <g id="line2d_23">
    <path d="M 78.828125 55.464117 
L 708.748125 55.464117 
" clip-path="url(#pfcaa292d07)" style="fill: none; stroke-dasharray: 4.44,1.92; stroke-dashoffset: 0; stroke: #f58518; stroke-width: 1.2"/>
   </g>
   <g id="patch_131">
    <path d="M 78.828125 242.229555 
L 78.828125 34.4 
" style="fill: none; stroke: #808080; stroke-width: 0.8; stroke-linejoin: miter; stroke-linecap: square"/>
   </g>
   <g id="patch_132">
    <path d="M 78.828125 242.229555 
L 708.748125 242.229555 
" style="fill: none; stroke: #808080; stroke-width: 0.8; stroke-linejoin: miter; stroke-linecap: square"/>
   </g>
   <g id="text_21">
    <text style="font: 22px 'PingFang SC', 'Heiti SC', 'STHeiti', 'Calibri', 'Arial', 'Helvetica Neue', 'Arial Unicode MS', 'Noto Sans CJK SC', 'DejaVu Sans', sans-serif; text-anchor: middle" x="393.788125" y="28.4" transform="rotate(-0 393.788125 28.4)">排序条形 · Cube+Vector TFLOPS</text>
   </g>
   <g id="legend_1">
    <g id="patch_133">
     <path d="M 87.228125 61.16 
L 208.01 61.16 
Q 210.41 61.16 210.41 58.76 
L 210.41 42.8 
Q 210.41 40.4 208.01 40.4 
L 87.228125 40.4 
Q 84.828125 40.4 84.828125 42.8 
L 84.828125 58.76 
Q 84.828125 61.16 87.228125 61.16 
z
" style="fill: #ffffff; opacity: 0.5; stroke: #cccccc; stroke-linejoin: miter"/>
    </g>
    <g id="line2d_24">
     <path d="M 89.628125 50.55125 
L 101.628125 50.55125 
L 113.628125 50.55125 
" style="fill: none; stroke-dasharray: 4.44,1.92; stroke-dashoffset: 0; stroke: #f58518; stroke-width: 1.2"/>
    </g>
    <g id="text_22">
     <text style="font: 12px 'PingFang SC', 'Heiti SC', 'STHeiti', 'Calibri', 'Arial', 'Helvetica Neue', 'Arial Unicode MS', 'Noto Sans CJK SC', 'DejaVu Sans', sans-serif; text-anchor: start" x="123.228125" y="54.75125" transform="rotate(-0 123.228125 54.75125)">median=240.2</text>
    </g>
   </g>
  </g>
 </g>
 <defs>
  <clipPath id="pfcaa292d07">
   <rect x="78.828125" y="34.4" width="629.92" height="207.829555"/>
  </clipPath>
 </defs>
 <defs>
  <pattern id="hc5c8c970b6" patternUnits="userSpaceOnUse" x="0" y="0" width="72" height="72">
   <rect x="0" y="0" width="73" height="73" fill="none"/>
   <path d="M -36 36 
L 36 -36 
M -30 42 
L 42 -30 
M -24 48 
L 48 -24 
M -18 54 
L 54 -18 
M -12 60 
L 60 -12 
M -6 66 
L 66 -6 
M 0 72 
L 72 0 
M 6 78 
L 78 6 
M 12 84 
L 84 12 
M 18 90 
L 90 18 
M 24 96 
L 96 24 
M 30 102 
L 102 30 
M 36 108 
L 108 36 
M -36 36 
L 36 108 
M -30 30 
L 42 102 
M -24 24 
L 48 96 
M -18 18 
L 54 90 
M -12 12 
L 60 84 
M -6 6 
L 66 78 
M 0 0 
L 72 72 
M 6 -6 
L 78 66 
M 12 -12 
L 84 60 
M 18 -18 
L 90 54 
M 24 -24 
L 96 48 
M 30 -30 
L 102 42 
M 36 -36 
L 108 36 
" style="fill: #2ca02c; stroke: #2ca02c; stroke-width: 1.0; stroke-linecap: butt; stroke-linejoin: miter"/>
  </pattern>
  <pattern id="h4dbdc265b6" patternUnits="userSpaceOnUse" x="0" y="0" width="72" height="72">
   <rect x="0" y="0" width="73" height="73" fill="none"/>
   <path d="M -36 36 
L 36 -36 
M -30 42 
L 42 -30 
M -24 48 
L 48 -24 
M -18 54 
L 54 -18 
M -12 60 
L 60 -12 
M -6 66 
L 66 -6 
M 0 72 
L 72 0 
M 6 78 
L 78 6 
M 12 84 
L 84 12 
M 18 90 
L 90 18 
M 24 96 
L 96 24 
M 30 102 
L 102 30 
M 36 108 
L 108 36 
" style="fill: #ff7f0e; stroke: #ff7f0e; stroke-width: 1.0; stroke-linecap: butt; stroke-linejoin: miter"/>
  </pattern>
 </defs>
</svg>
