<?xml version="1.0" encoding="utf-8" standalone="no"?>
<!DOCTYPE svg PUBLIC "-//W3C//DTD SVG 1.1//EN"
  "http://www.w3.org/Graphics/SVG/1.1/DTD/svg11.dtd">
<svg xmlns:xlink="http://www.w3.org/1999/xlink" width="719.71875pt" height="307.002198pt" viewBox="0 0 719.71875 307.002198" xmlns="http://www.w3.org/2000/svg" version="1.1">
 <metadata>
  <rdf:RDF xmlns:dc="http://purl.org/dc/elements/1.1/" xmlns:cc="http://creativecommons.org/ns#" xmlns:rdf="http://www.w3.org/1999/02/22-rdf-syntax-ns#">
   <cc:Work>
    <dc:type rdf:resource="http://purl.org/dc/dcmitype/StillImage"/>
    <dc:date>2026-07-11T20:14:14.739134</dc:date>
    <dc:format>image/svg+xml</dc:format>
    <dc:creator>
     <cc:Agent>
      <dc:title>Matplotlib v3.9.4, https://matplotlib.org/</dc:title>
     </cc:Agent>
    </dc:creator>
   </cc:Work>
  </rdf:RDF>
 </metadata>
 <defs>
  <style type="text/css">*{stroke-linejoin: round; stroke-linecap: butt}</style>
 </defs>
 <g id="figure_1">
  <g id="patch_1">
   <path d="M 0 307.002198 
L 719.71875 307.002198 
L 719.71875 0 
L 0 0 
z
" style="fill: #ffffff"/>
  </g>
  <g id="axes_1">
   <g id="patch_2">
    <path d="M 91.63625 242.145204 
L 708.91875 242.145204 
L 708.91875 34.929375 
L 91.63625 34.929375 
z
" style="fill: #ffffff"/>
   </g>
   <g id="matplotlib.axis_1">
    <g id="xtick_1">
     <g id="line2d_1">
      <defs>
       <path id="md08f8098fc" d="M 0 0 
L 0 3.5 
" style="stroke: #808080; stroke-width: 0.8"/>
      </defs>
      <g>
       <use xlink:href="#md08f8098fc" x="121.559978" y="242.145204" style="fill: #808080; stroke: #808080; stroke-width: 0.8"/>
      </g>
     </g>
     <g id="text_1">
      <text style="fill: #808080; font: 8px 'PingFang SC', 'Heiti SC', 'STHeiti', 'Calibri', 'Arial', 'Helvetica Neue', 'Arial Unicode MS', 'Noto Sans CJK SC', 'DejaVu Sans', sans-serif" transform="translate(98.06304 291.418093) rotate(-60)">worker-3:d7</text>
     </g>
    </g>
    <g id="xtick_2">
     <g id="line2d_2">
      <g>
       <use xlink:href="#md08f8098fc" x="156.673996" y="242.145204" style="fill: #808080; stroke: #808080; stroke-width: 0.8"/>
      </g>
     </g>
     <g id="text_2">
      <text style="fill: #808080; font: 8px 'PingFang SC', 'Heiti SC', 'STHeiti', 'Calibri', 'Arial', 'Helvetica Neue', 'Arial Unicode MS', 'Noto Sans CJK SC', 'DejaVu Sans', sans-serif" transform="translate(130.960809 295.256751) rotate(-60)">worker-3:d14</text>
     </g>
    </g>
    <g id="xtick_3">
     <g id="line2d_3">
      <g>
       <use xlink:href="#md08f8098fc" x="191.788015" y="242.145204" style="fill: #808080; stroke: #808080; stroke-width: 0.8"/>
      </g>
     </g>
     <g id="text_3">
      <text style="fill: #808080; font: 8px 'PingFang SC', 'Heiti SC', 'STHeiti', 'Calibri', 'Arial', 'Helvetica Neue', 'Arial Unicode MS', 'Noto Sans CJK SC', 'DejaVu Sans', sans-serif" transform="translate(168.291078 291.418093) rotate(-60)">worker-3:d2</text>
     </g>
    </g>
    <g id="xtick_4">
     <g id="line2d_4">
      <g>
       <use xlink:href="#md08f8098fc" x="226.902033" y="242.145204" style="fill: #808080; stroke: #808080; stroke-width: 0.8"/>
      </g>
     </g>
     <g id="text_4">
      <text style="fill: #808080; font: 8px 'PingFang SC', 'Heiti SC', 'STHeiti', 'Calibri', 'Arial', 'Helvetica Neue', 'Arial Unicode MS', 'Noto Sans CJK SC', 'DejaVu Sans', sans-serif" transform="translate(203.405096 291.418093) rotate(-60)">worker-4:d4</text>
     </g>
    </g>
    <g id="xtick_5">
     <g id="line2d_5">
      <g>
       <use xlink:href="#md08f8098fc" x="262.016052" y="242.145204" style="fill: #808080; stroke: #808080; stroke-width: 0.8"/>
      </g>
     </g>
     <g id="text_5">
      <text style="fill: #808080; font: 8px 'PingFang SC', 'Heiti SC', 'STHeiti', 'Calibri', 'Arial', 'Helvetica Neue', 'Arial Unicode MS', 'Noto Sans CJK SC', 'DejaVu Sans', sans-serif" transform="translate(238.282865 291.82729) rotate(-60)">master-0:d8</text>
     </g>
    </g>
    <g id="xtick_6">
     <g id="line2d_6">
      <g>
       <use xlink:href="#md08f8098fc" x="297.13007" y="242.145204" style="fill: #808080; stroke: #808080; stroke-width: 0.8"/>
      </g>
     </g>
     <g id="text_6">
      <text style="fill: #808080; font: 8px 'PingFang SC', 'Heiti SC', 'STHeiti', 'Calibri', 'Arial', 'Helvetica Neue', 'Arial Unicode MS', 'Noto Sans CJK SC', 'DejaVu Sans', sans-serif" transform="translate(273.633133 291.418093) rotate(-60)">worker-3:d4</text>
     </g>
    </g>
    <g id="xtick_7">
     <g id="line2d_7">
      <g>
       <use xlink:href="#md08f8098fc" x="332.244089" y="242.145204" style="fill: #808080; stroke: #808080; stroke-width: 0.8"/>
      </g>
     </g>
     <g id="text_7">
      <text style="fill: #808080; font: 8px 'PingFang SC', 'Heiti SC', 'STHeiti', 'Calibri', 'Arial', 'Helvetica Neue', 'Arial Unicode MS', 'Noto Sans CJK SC', 'DejaVu Sans', sans-serif" transform="translate(306.530902 295.256751) rotate(-60)">worker-2:d11</text>
     </g>
    </g>
    <g id="xtick_8">
     <g id="line2d_8">
      <g>
       <use xlink:href="#md08f8098fc" x="367.358108" y="242.145204" style="fill: #808080; stroke: #808080; stroke-width: 0.8"/>
      </g>
     </g>
     <g id="text_8">
      <text style="fill: #808080; font: 8px 'PingFang SC', 'Heiti SC', 'STHeiti', 'Calibri', 'Arial', 'Helvetica Neue', 'Arial Unicode MS', 'Noto Sans CJK SC', 'DejaVu Sans', sans-serif" transform="translate(341.40867 295.665948) rotate(-60)">master-0:d15</text>
     </g>
    </g>
    <g id="xtick_9">
     <g id="line2d_9">
      <g>
       <use xlink:href="#md08f8098fc" x="402.472126" y="242.145204" style="fill: #808080; stroke: #808080; stroke-width: 0.8"/>
      </g>
     </g>
     <g id="text_9">
      <text style="fill: #808080; font: 8px 'PingFang SC', 'Heiti SC', 'STHeiti', 'Calibri', 'Arial', 'Helvetica Neue', 'Arial Unicode MS', 'Noto Sans CJK SC', 'DejaVu Sans', sans-serif" transform="translate(378.975189 291.418093) rotate(-60)">worker-2:d9</text>
     </g>
    </g>
    <g id="xtick_10">
     <g id="line2d_10">
      <g>
       <use xlink:href="#md08f8098fc" x="437.586145" y="242.145204" style="fill: #808080; stroke: #808080; stroke-width: 0.8"/>
      </g>
     </g>
     <g id="text_10">
      <text style="fill: #808080; font: 8px 'PingFang SC', 'Heiti SC', 'STHeiti', 'Calibri', 'Arial', 'Helvetica Neue', 'Arial Unicode MS', 'Noto Sans CJK SC', 'DejaVu Sans', sans-serif" transform="translate(413.852957 291.82729) rotate(-60)">master-0:d9</text>
     </g>
    </g>
    <g id="xtick_11">
     <g id="line2d_11">
      <g>
       <use xlink:href="#md08f8098fc" x="472.700163" y="242.145204" style="fill: #808080; stroke: #808080; stroke-width: 0.8"/>
      </g>
     </g>
     <g id="text_11">
      <text style="fill: #808080; font: 8px 'PingFang SC', 'Heiti SC', 'STHeiti', 'Calibri', 'Arial', 'Helvetica Neue', 'Arial Unicode MS', 'Noto Sans CJK SC', 'DejaVu Sans', sans-serif" transform="translate(448.966976 291.82729) rotate(-60)">master-0:d0</text>
     </g>
    </g>
    <g id="xtick_12">
     <g id="line2d_12">
      <g>
       <use xlink:href="#md08f8098fc" x="507.814182" y="242.145204" style="fill: #808080; stroke: #808080; stroke-width: 0.8"/>
      </g>
     </g>
     <g id="text_12">
      <text style="fill: #808080; font: 8px 'PingFang SC', 'Heiti SC', 'STHeiti', 'Calibri', 'Arial', 'Helvetica Neue', 'Arial Unicode MS', 'Noto Sans CJK SC', 'DejaVu Sans', sans-serif" transform="translate(484.317245 291.418093) rotate(-60)">worker-3:d8</text>
     </g>
    </g>
    <g id="xtick_13">
     <g id="line2d_13">
      <g>
       <use xlink:href="#md08f8098fc" x="542.9282" y="242.145204" style="fill: #808080; stroke: #808080; stroke-width: 0.8"/>
      </g>
     </g>
     <g id="text_13">
      <text style="fill: #808080; font: 8px 'PingFang SC', 'Heiti SC', 'STHeiti', 'Calibri', 'Arial', 'Helvetica Neue', 'Arial Unicode MS', 'Noto Sans CJK SC', 'DejaVu Sans', sans-serif" transform="translate(519.431263 291.418093) rotate(-60)">worker-4:d3</text>
     </g>
    </g>
    <g id="xtick_14">
     <g id="line2d_14">
      <g>
       <use xlink:href="#md08f8098fc" x="578.042219" y="242.145204" style="fill: #808080; stroke: #808080; stroke-width: 0.8"/>
      </g>
     </g>
     <g id="text_14">
      <text style="fill: #808080; font: 8px 'PingFang SC', 'Heiti SC', 'STHeiti', 'Calibri', 'Arial', 'Helvetica Neue', 'Arial Unicode MS', 'Noto Sans CJK SC', 'DejaVu Sans', sans-serif" transform="translate(554.545282 291.418093) rotate(-60)">worker-5:d4</text>
     </g>
    </g>
    <g id="xtick_15">
     <g id="line2d_15">
      <g>
       <use xlink:href="#md08f8098fc" x="613.156238" y="242.145204" style="fill: #808080; stroke: #808080; stroke-width: 0.8"/>
      </g>
     </g>
     <g id="text_15">
      <text style="fill: #808080; font: 8px 'PingFang SC', 'Heiti SC', 'STHeiti', 'Calibri', 'Arial', 'Helvetica Neue', 'Arial Unicode MS', 'Noto Sans CJK SC', 'DejaVu Sans', sans-serif" transform="translate(589.6593 291.418093) rotate(-60)">worker-4:d0</text>
     </g>
    </g>
    <g id="xtick_16">
     <g id="line2d_16">
      <g>
       <use xlink:href="#md08f8098fc" x="648.270256" y="242.145204" style="fill: #808080; stroke: #808080; stroke-width: 0.8"/>
      </g>
     </g>
     <g id="text_16">
      <text style="fill: #808080; font: 8px 'PingFang SC', 'Heiti SC', 'STHeiti', 'Calibri', 'Arial', 'Helvetica Neue', 'Arial Unicode MS', 'Noto Sans CJK SC', 'DejaVu Sans', sans-serif" transform="translate(624.773319 291.418093) rotate(-60)">worker-4:d5</text>
     </g>
    </g>
   </g>
   <g id="matplotlib.axis_2">
    <g id="ytick_1">
     <g id="line2d_17">
      <path d="M 91.63625 242.145204 
L 708.91875 242.145204 
" clip-path="url(#pcf780a97dd)" style="fill: none; stroke-dasharray: 1,1.65; stroke-dashoffset: 0; stroke: #808080; stroke-opacity: 0.55"/>
     </g>
     <g id="line2d_18">
      <defs>
       <path id="mf182f0bd6c" d="M 0 0 
L -3.5 0 
" style="stroke: #808080; stroke-width: 0.8"/>
      </defs>
      <g>
       <use xlink:href="#mf182f0bd6c" x="91.63625" y="242.145204" style="fill: #808080; stroke: #808080; stroke-width: 0.8"/>
      </g>
     </g>
     <g id="text_17">
      <text style="fill: #808080; font: 22px 'PingFang SC', 'Heiti SC', 'STHeiti', 'Calibri', 'Arial', 'Helvetica Neue', 'Arial Unicode MS', 'Noto Sans CJK SC', 'DejaVu Sans', sans-serif; text-anchor: end" x="84.63625" y="250.900517" transform="rotate(-0 84.63625 250.900517)">0</text>
     </g>
    </g>
    <g id="ytick_2">
     <g id="line2d_19">
      <path d="M 91.63625 139.241664 
L 708.91875 139.241664 
" clip-path="url(#pcf780a97dd)" style="fill: none; stroke-dasharray: 1,1.65; stroke-dashoffset: 0; stroke: #808080; stroke-opacity: 0.55"/>
     </g>
     <g id="line2d_20">
      <g>
       <use xlink:href="#mf182f0bd6c" x="91.63625" y="139.241664" style="fill: #808080; stroke: #808080; stroke-width: 0.8"/>
      </g>
     </g>
     <g id="text_18">
      <text style="fill: #808080; font: 22px 'PingFang SC', 'Heiti SC', 'STHeiti', 'Calibri', 'Arial', 'Helvetica Neue', 'Arial Unicode MS', 'Noto Sans CJK SC', 'DejaVu Sans', sans-serif; text-anchor: end" x="84.63625" y="147.996977" transform="rotate(-0 84.63625 147.996977)">500</text>
     </g>
    </g>
    <g id="ytick_3">
     <g id="line2d_21">
      <path d="M 91.63625 36.338124 
L 708.91875 36.338124 
" clip-path="url(#pcf780a97dd)" style="fill: none; stroke-dasharray: 1,1.65; stroke-dashoffset: 0; stroke: #808080; stroke-opacity: 0.55"/>
     </g>
     <g id="line2d_22">
      <g>
       <use xlink:href="#mf182f0bd6c" x="91.63625" y="36.338124" style="fill: #808080; stroke: #808080; stroke-width: 0.8"/>
      </g>
     </g>
     <g id="text_19">
      <text style="fill: #808080; font: 22px 'PingFang SC', 'Heiti SC', 'STHeiti', 'Calibri', 'Arial', 'Helvetica Neue', 'Arial Unicode MS', 'Noto Sans CJK SC', 'DejaVu Sans', sans-serif; text-anchor: end" x="84.63625" y="45.093437" transform="rotate(-0 84.63625 45.093437)">1000</text>
     </g>
    </g>
    <g id="text_20">
     <text style="font: 22px 'PingFang SC', 'Heiti SC', 'STHeiti', 'Calibri', 'Arial', 'Helvetica Neue', 'Arial Unicode MS', 'Noto Sans CJK SC', 'DejaVu Sans', sans-serif; text-anchor: middle" x="28.929375" y="138.53729" transform="rotate(-90 28.929375 138.53729)">Power (W)</text>
    </g>
   </g>
   <g id="patch_3">
    <path d="M 119.694545 242.145204 
L 123.42541 242.145204 
L 123.42541 205.079349 
L 119.694545 205.079349 
z
" clip-path="url(#pcf780a97dd)" style="fill: url(#hb96319438e); stroke: #2ca02c; stroke-width: 2; stroke-linejoin: miter"/>
   </g>
   <g id="patch_4">
    <path d="M 124.083798 242.145204 
L 127.814662 242.145204 
L 127.814662 201.374822 
L 124.083798 201.374822 
z
" clip-path="url(#pcf780a97dd)" style="fill: url(#hb96319438e); stroke: #2ca02c; stroke-width: 2; stroke-linejoin: miter"/>
   </g>
   <g id="patch_5">
    <path d="M 128.47305 242.145204 
L 132.203915 242.145204 
L 132.203915 201.271918 
L 128.47305 201.271918 
z
" clip-path="url(#pcf780a97dd)" style="fill: url(#hb96319438e); stroke: #2ca02c; stroke-width: 2; stroke-linejoin: miter"/>
   </g>
   <g id="patch_6">
    <path d="M 132.862302 242.145204 
L 136.593167 242.145204 
L 136.593167 200.242883 
L 132.862302 200.242883 
z
" clip-path="url(#pcf780a97dd)" style="fill: url(#hb96319438e); stroke: #2ca02c; stroke-width: 2; stroke-linejoin: miter"/>
   </g>
   <g id="patch_7">
    <path d="M 137.251555 242.145204 
L 140.982419 242.145204 
L 140.982419 200.201721 
L 137.251555 200.201721 
z
" clip-path="url(#pcf780a97dd)" style="fill: url(#hb96319438e); stroke: #2ca02c; stroke-width: 2; stroke-linejoin: miter"/>
   </g>
   <g id="patch_8">
    <path d="M 141.640807 242.145204 
L 145.371672 242.145204 
L 145.371672 199.851849 
L 141.640807 199.851849 
z
" clip-path="url(#pcf780a97dd)" style="fill: url(#hb96319438e); stroke: #2ca02c; stroke-width: 2; stroke-linejoin: miter"/>
   </g>
   <g id="patch_9">
    <path d="M 146.030059 242.145204 
L 149.760924 242.145204 
L 149.760924 199.522558 
L 146.030059 199.522558 
z
" clip-path="url(#pcf780a97dd)" style="fill: url(#hb96319438e); stroke: #2ca02c; stroke-width: 2; stroke-linejoin: miter"/>
   </g>
   <g id="patch_10">
    <path d="M 150.419312 242.145204 
L 154.150176 242.145204 
L 154.150176 199.234428 
L 150.419312 199.234428 
z
" clip-path="url(#pcf780a97dd)" style="fill: url(#hb96319438e); stroke: #2ca02c; stroke-width: 2; stroke-linejoin: miter"/>
   </g>
   <g id="patch_11">
    <path d="M 154.808564 242.145204 
L 158.539428 242.145204 
L 158.539428 197.814359 
L 154.808564 197.814359 
z
" clip-path="url(#pcf780a97dd)" style="fill: url(#hb96319438e); stroke: #2ca02c; stroke-width: 2; stroke-linejoin: miter"/>
   </g>
   <g id="patch_12">
    <path d="M 159.197816 242.145204 
L 162.928681 242.145204 
L 162.928681 190.302401 
L 159.197816 190.302401 
z
" clip-path="url(#pcf780a97dd)" style="fill: url(#hb96319438e); stroke: #2ca02c; stroke-width: 2; stroke-linejoin: miter"/>
   </g>
   <g id="patch_13">
    <path d="M 163.587069 242.145204 
L 167.317933 242.145204 
L 167.317933 178.715462 
L 163.587069 178.715462 
z
" clip-path="url(#pcf780a97dd)" style="fill: url(#hb96319438e); stroke: #2ca02c; stroke-width: 2; stroke-linejoin: miter"/>
   </g>
   <g id="patch_14">
    <path d="M 167.976321 242.145204 
L 171.707185 242.145204 
L 171.707185 163.81503 
L 167.976321 163.81503 
z
" clip-path="url(#pcf780a97dd)" style="fill: url(#hb96319438e); stroke: #2ca02c; stroke-width: 2; stroke-linejoin: miter"/>
   </g>
   <g id="patch_15">
    <path d="M 172.365573 242.145204 
L 176.096438 242.145204 
L 176.096438 148.297176 
L 172.365573 148.297176 
z
" clip-path="url(#pcf780a97dd)" style="fill: url(#hb96319438e); stroke: #2ca02c; stroke-width: 2; stroke-linejoin: miter"/>
   </g>
   <g id="patch_16">
    <path d="M 176.754826 242.145204 
L 180.48569 242.145204 
L 180.48569 139.570956 
L 176.754826 139.570956 
z
" clip-path="url(#pcf780a97dd)" style="fill: url(#hb96319438e); stroke: #2ca02c; stroke-width: 2; stroke-linejoin: miter"/>
   </g>
   <g id="patch_17">
    <path d="M 181.144078 242.145204 
L 184.874942 242.145204 
L 184.874942 139.241664 
L 181.144078 139.241664 
z
" clip-path="url(#pcf780a97dd)" style="fill: url(#hb96319438e); stroke: #2ca02c; stroke-width: 2; stroke-linejoin: miter"/>
   </g>
   <g id="patch_18">
    <path d="M 185.53333 242.145204 
L 189.264195 242.145204 
L 189.264195 133.026291 
L 185.53333 133.026291 
z
" clip-path="url(#pcf780a97dd)" style="fill: url(#hb96319438e); stroke: #2ca02c; stroke-width: 2; stroke-linejoin: miter"/>
   </g>
   <g id="patch_19">
    <path d="M 189.922583 242.145204 
L 193.653447 242.145204 
L 193.653447 131.420995 
L 189.922583 131.420995 
z
" clip-path="url(#pcf780a97dd)" style="fill: url(#hb96319438e); stroke: #2ca02c; stroke-width: 2; stroke-linejoin: miter"/>
   </g>
   <g id="patch_20">
    <path d="M 194.311835 242.145204 
L 198.042699 242.145204 
L 198.042699 131.359253 
L 194.311835 131.359253 
z
" clip-path="url(#pcf780a97dd)" style="fill: url(#hb96319438e); stroke: #2ca02c; stroke-width: 2; stroke-linejoin: miter"/>
   </g>
   <g id="patch_21">
    <path d="M 198.701087 242.145204 
L 202.431952 242.145204 
L 202.431952 130.741832 
L 198.701087 130.741832 
z
" clip-path="url(#pcf780a97dd)" style="fill: url(#hb96319438e); stroke: #2ca02c; stroke-width: 2; stroke-linejoin: miter"/>
   </g>
   <g id="patch_22">
    <path d="M 203.09034 242.145204 
L 206.821204 242.145204 
L 206.821204 129.877442 
L 203.09034 129.877442 
z
" clip-path="url(#pcf780a97dd)" style="fill: url(#hb96319438e); stroke: #2ca02c; stroke-width: 2; stroke-linejoin: miter"/>
   </g>
   <g id="patch_23">
    <path d="M 207.479592 242.145204 
L 211.210456 242.145204 
L 211.210456 129.321763 
L 207.479592 129.321763 
z
" clip-path="url(#pcf780a97dd)" style="fill: url(#hb96319438e); stroke: #2ca02c; stroke-width: 2; stroke-linejoin: miter"/>
   </g>
   <g id="patch_24">
    <path d="M 211.868844 242.145204 
L 215.599709 242.145204 
L 215.599709 128.189824 
L 211.868844 128.189824 
z
" clip-path="url(#pcf780a97dd)" style="fill: url(#hb96319438e); stroke: #2ca02c; stroke-width: 2; stroke-linejoin: miter"/>
   </g>
   <g id="patch_25">
    <path d="M 216.258096 242.145204 
L 219.988961 242.145204 
L 219.988961 127.531241 
L 216.258096 127.531241 
z
" clip-path="url(#pcf780a97dd)" style="fill: url(#hb96319438e); stroke: #2ca02c; stroke-width: 2; stroke-linejoin: miter"/>
   </g>
   <g id="patch_26">
    <path d="M 220.647349 242.145204 
L 224.378213 242.145204 
L 224.378213 127.407757 
L 220.647349 127.407757 
z
" clip-path="url(#pcf780a97dd)" style="fill: url(#hb96319438e); stroke: #2ca02c; stroke-width: 2; stroke-linejoin: miter"/>
   </g>
   <g id="patch_27">
    <path d="M 225.036601 242.145204 
L 228.767466 242.145204 
L 228.767466 126.852078 
L 225.036601 126.852078 
z
" clip-path="url(#pcf780a97dd)" style="fill: url(#hb96319438e); stroke: #2ca02c; stroke-width: 2; stroke-linejoin: miter"/>
   </g>
   <g id="patch_28">
    <path d="M 229.425853 242.145204 
L 233.156718 242.145204 
L 233.156718 125.699558 
L 229.425853 125.699558 
z
" clip-path="url(#pcf780a97dd)" style="fill: url(#hb96319438e); stroke: #2ca02c; stroke-width: 2; stroke-linejoin: miter"/>
   </g>
   <g id="patch_29">
    <path d="M 233.815106 242.145204 
L 237.54597 242.145204 
L 237.54597 125.678978 
L 233.815106 125.678978 
z
" clip-path="url(#pcf780a97dd)" style="fill: url(#hb96319438e); stroke: #2ca02c; stroke-width: 2; stroke-linejoin: miter"/>
   </g>
   <g id="patch_30">
    <path d="M 238.204358 242.145204 
L 241.935223 242.145204 
L 241.935223 124.732265 
L 238.204358 124.732265 
z
" clip-path="url(#pcf780a97dd)" style="fill: url(#hb96319438e); stroke: #2ca02c; stroke-width: 2; stroke-linejoin: miter"/>
   </g>
   <g id="patch_31">
    <path d="M 242.59361 242.145204 
L 246.324475 242.145204 
L 246.324475 123.456261 
L 242.59361 123.456261 
z
" clip-path="url(#pcf780a97dd)" style="fill: url(#hb96319438e); stroke: #2ca02c; stroke-width: 2; stroke-linejoin: miter"/>
   </g>
   <g id="patch_32">
    <path d="M 246.982863 242.145204 
L 250.713727 242.145204 
L 250.713727 101.743614 
L 246.982863 101.743614 
z
" clip-path="url(#pcf780a97dd)" style="fill: url(#hb96319438e); stroke: #2ca02c; stroke-width: 2; stroke-linejoin: miter"/>
   </g>
   <g id="patch_33">
    <path d="M 251.372115 242.145204 
L 255.10298 242.145204 
L 255.10298 94.005268 
L 251.372115 94.005268 
z
" clip-path="url(#pcf780a97dd)" style="fill: url(#hb96319438e); stroke: #2ca02c; stroke-width: 2; stroke-linejoin: miter"/>
   </g>
   <g id="patch_34">
    <path d="M 255.761367 242.145204 
L 259.492232 242.145204 
L 259.492232 92.276489 
L 255.761367 92.276489 
z
" clip-path="url(#pcf780a97dd)" style="fill: url(#hb96319438e); stroke: #2ca02c; stroke-width: 2; stroke-linejoin: miter"/>
   </g>
   <g id="patch_35">
    <path d="M 260.15062 242.145204 
L 263.881484 242.145204 
L 263.881484 92.255908 
L 260.15062 92.255908 
z
" clip-path="url(#pcf780a97dd)" style="fill: url(#hb96319438e); stroke: #2ca02c; stroke-width: 2; stroke-linejoin: miter"/>
   </g>
   <g id="patch_36">
    <path d="M 264.539872 242.145204 
L 268.270736 242.145204 
L 268.270736 84.805692 
L 264.539872 84.805692 
z
" clip-path="url(#pcf780a97dd)" style="fill: url(#hb96319438e); stroke: #2ca02c; stroke-width: 2; stroke-linejoin: miter"/>
   </g>
   <g id="patch_37">
    <path d="M 268.929124 242.145204 
L 272.659989 242.145204 
L 272.659989 83.262139 
L 268.929124 83.262139 
z
" clip-path="url(#pcf780a97dd)" style="fill: url(#hb96319438e); stroke: #2ca02c; stroke-width: 2; stroke-linejoin: miter"/>
   </g>
   <g id="patch_38">
    <path d="M 273.318377 242.145204 
L 277.049241 242.145204 
L 277.049241 80.957099 
L 273.318377 80.957099 
z
" clip-path="url(#pcf780a97dd)" style="fill: url(#hb96319438e); stroke: #2ca02c; stroke-width: 2; stroke-linejoin: miter"/>
   </g>
   <g id="patch_39">
    <path d="M 277.707629 242.145204 
L 281.438493 242.145204 
L 281.438493 79.166578 
L 277.707629 79.166578 
z
" clip-path="url(#pcf780a97dd)" style="fill: url(#hb96319438e); stroke: #2ca02c; stroke-width: 2; stroke-linejoin: miter"/>
   </g>
   <g id="patch_40">
    <path d="M 282.096881 242.145204 
L 285.827746 242.145204 
L 285.827746 76.347021 
L 282.096881 76.347021 
z
" clip-path="url(#pcf780a97dd)" style="fill: url(#hb96319438e); stroke: #2ca02c; stroke-width: 2; stroke-linejoin: miter"/>
   </g>
   <g id="patch_41">
    <path d="M 286.486134 242.145204 
L 290.216998 242.145204 
L 290.216998 76.100052 
L 286.486134 76.100052 
z
" clip-path="url(#pcf780a97dd)" style="fill: url(#hb96319438e); stroke: #2ca02c; stroke-width: 2; stroke-linejoin: miter"/>
   </g>
   <g id="patch_42">
    <path d="M 290.875386 242.145204 
L 294.60625 242.145204 
L 294.60625 75.853084 
L 290.875386 75.853084 
z
" clip-path="url(#pcf780a97dd)" style="fill: url(#hb96319438e); stroke: #2ca02c; stroke-width: 2; stroke-linejoin: miter"/>
   </g>
   <g id="patch_43">
    <path d="M 295.264638 242.145204 
L 298.995503 242.145204 
L 298.995503 75.667857 
L 295.264638 75.667857 
z
" clip-path="url(#pcf780a97dd)" style="fill: url(#hb96319438e); stroke: #2ca02c; stroke-width: 2; stroke-linejoin: miter"/>
   </g>
   <g id="patch_44">
    <path d="M 299.653891 242.145204 
L 303.384755 242.145204 
L 303.384755 73.239334 
L 299.653891 73.239334 
z
" clip-path="url(#pcf780a97dd)" style="fill: url(#hb96319438e); stroke: #2ca02c; stroke-width: 2; stroke-linejoin: miter"/>
   </g>
   <g id="patch_45">
    <path d="M 304.043143 242.145204 
L 307.774007 242.145204 
L 307.774007 72.807139 
L 304.043143 72.807139 
z
" clip-path="url(#pcf780a97dd)" style="fill: url(#hb96319438e); stroke: #2ca02c; stroke-width: 2; stroke-linejoin: miter"/>
   </g>
   <g id="patch_46">
    <path d="M 308.432395 242.145204 
L 312.16326 242.145204 
L 312.16326 72.683655 
L 308.432395 72.683655 
z
" clip-path="url(#pcf780a97dd)" style="fill: url(#hb96319438e); stroke: #2ca02c; stroke-width: 2; stroke-linejoin: miter"/>
   </g>
   <g id="patch_47">
    <path d="M 312.821648 242.145204 
L 316.552512 242.145204 
L 316.552512 72.53959 
L 312.821648 72.53959 
z
" clip-path="url(#pcf780a97dd)" style="fill: url(#hb96319438e); stroke: #2ca02c; stroke-width: 2; stroke-linejoin: miter"/>
   </g>
   <g id="patch_48">
    <path d="M 317.2109 242.145204 
L 320.941764 242.145204 
L 320.941764 71.695781 
L 317.2109 71.695781 
z
" clip-path="url(#pcf780a97dd)" style="fill: url(#hb96319438e); stroke: #2ca02c; stroke-width: 2; stroke-linejoin: miter"/>
   </g>
   <g id="patch_49">
    <path d="M 321.600152 242.145204 
L 325.331017 242.145204 
L 325.331017 71.6752 
L 321.600152 71.6752 
z
" clip-path="url(#pcf780a97dd)" style="fill: url(#hb96319438e); stroke: #2ca02c; stroke-width: 2; stroke-linejoin: miter"/>
   </g>
   <g id="patch_50">
    <path d="M 325.989404 242.145204 
L 329.720269 242.145204 
L 329.720269 70.275712 
L 325.989404 70.275712 
z
" clip-path="url(#pcf780a97dd)" style="fill: url(#hb96319438e); stroke: #2ca02c; stroke-width: 2; stroke-linejoin: miter"/>
   </g>
   <g id="patch_51">
    <path d="M 330.378657 242.145204 
L 334.109521 242.145204 
L 334.109521 70.111066 
L 330.378657 70.111066 
z
" clip-path="url(#pcf780a97dd)" style="fill: url(#hb96319438e); stroke: #2ca02c; stroke-width: 2; stroke-linejoin: miter"/>
   </g>
   <g id="patch_52">
    <path d="M 334.767909 242.145204 
L 338.498774 242.145204 
L 338.498774 68.917385 
L 334.767909 68.917385 
z
" clip-path="url(#pcf780a97dd)" style="fill: url(#hb96319438e); stroke: #2ca02c; stroke-width: 2; stroke-linejoin: miter"/>
   </g>
   <g id="patch_53">
    <path d="M 339.157161 242.145204 
L 342.888026 242.145204 
L 342.888026 68.670417 
L 339.157161 68.670417 
z
" clip-path="url(#pcf780a97dd)" style="fill: url(#hb96319438e); stroke: #2ca02c; stroke-width: 2; stroke-linejoin: miter"/>
   </g>
   <g id="patch_54">
    <path d="M 343.546414 242.145204 
L 347.277278 242.145204 
L 347.277278 68.341125 
L 343.546414 68.341125 
z
" clip-path="url(#pcf780a97dd)" style="fill: url(#hb96319438e); stroke: #2ca02c; stroke-width: 2; stroke-linejoin: miter"/>
   </g>
   <g id="patch_55">
    <path d="M 347.935666 242.145204 
L 351.666531 242.145204 
L 351.666531 67.620801 
L 347.935666 67.620801 
z
" clip-path="url(#pcf780a97dd)" style="fill: url(#hb96319438e); stroke: #2ca02c; stroke-width: 2; stroke-linejoin: miter"/>
   </g>
   <g id="patch_56">
    <path d="M 352.324918 242.145204 
L 356.055783 242.145204 
L 356.055783 67.065121 
L 352.324918 67.065121 
z
" clip-path="url(#pcf780a97dd)" style="fill: url(#hb96319438e); stroke: #2ca02c; stroke-width: 2; stroke-linejoin: miter"/>
   </g>
   <g id="patch_57">
    <path d="M 356.714171 242.145204 
L 360.445035 242.145204 
L 360.445035 65.665633 
L 356.714171 65.665633 
z
" clip-path="url(#pcf780a97dd)" style="fill: url(#hb96319438e); stroke: #2ca02c; stroke-width: 2; stroke-linejoin: miter"/>
   </g>
   <g id="patch_58">
    <path d="M 361.103423 242.145204 
L 364.834288 242.145204 
L 364.834288 65.58331 
L 361.103423 65.58331 
z
" clip-path="url(#pcf780a97dd)" style="fill: url(#hb96319438e); stroke: #2ca02c; stroke-width: 2; stroke-linejoin: miter"/>
   </g>
   <g id="patch_59">
    <path d="M 365.492675 242.145204 
L 369.22354 242.145204 
L 369.22354 65.480407 
L 365.492675 65.480407 
z
" clip-path="url(#pcf780a97dd)" style="fill: url(#hb96319438e); stroke: #2ca02c; stroke-width: 2; stroke-linejoin: miter"/>
   </g>
   <g id="patch_60">
    <path d="M 369.881928 242.145204 
L 373.612792 242.145204 
L 373.612792 65.418665 
L 369.881928 65.418665 
z
" clip-path="url(#pcf780a97dd)" style="fill: url(#hb96319438e); stroke: #2ca02c; stroke-width: 2; stroke-linejoin: miter"/>
   </g>
   <g id="patch_61">
    <path d="M 374.27118 242.145204 
L 378.002044 242.145204 
L 378.002044 64.883566 
L 374.27118 64.883566 
z
" clip-path="url(#pcf780a97dd)" style="fill: url(#hb96319438e); stroke: #2ca02c; stroke-width: 2; stroke-linejoin: miter"/>
   </g>
   <g id="patch_62">
    <path d="M 378.660432 242.145204 
L 382.391297 242.145204 
L 382.391297 64.862986 
L 378.660432 64.862986 
z
" clip-path="url(#pcf780a97dd)" style="fill: url(#hb96319438e); stroke: #2ca02c; stroke-width: 2; stroke-linejoin: miter"/>
   </g>
   <g id="patch_63">
    <path d="M 383.049685 242.145204 
L 386.780549 242.145204 
L 386.780549 63.772208 
L 383.049685 63.772208 
z
" clip-path="url(#pcf780a97dd)" style="fill: url(#hb96319438e); stroke: #2ca02c; stroke-width: 2; stroke-linejoin: miter"/>
   </g>
   <g id="patch_64">
    <path d="M 387.438937 242.145204 
L 391.169801 242.145204 
L 391.169801 63.52524 
L 387.438937 63.52524 
z
" clip-path="url(#pcf780a97dd)" style="fill: url(#hb96319438e); stroke: #2ca02c; stroke-width: 2; stroke-linejoin: miter"/>
   </g>
   <g id="patch_65">
    <path d="M 391.828189 242.145204 
L 395.559054 242.145204 
L 395.559054 63.216529 
L 391.828189 63.216529 
z
" clip-path="url(#pcf780a97dd)" style="fill: url(#hb96319438e); stroke: #2ca02c; stroke-width: 2; stroke-linejoin: miter"/>
   </g>
   <g id="patch_66">
    <path d="M 396.217442 242.145204 
L 399.948306 242.145204 
L 399.948306 63.010722 
L 396.217442 63.010722 
z
" clip-path="url(#pcf780a97dd)" style="fill: url(#hb96319438e); stroke: #2ca02c; stroke-width: 2; stroke-linejoin: miter"/>
   </g>
   <g id="patch_67">
    <path d="M 400.606694 242.145204 
L 404.337558 242.145204 
L 404.337558 62.537366 
L 400.606694 62.537366 
z
" clip-path="url(#pcf780a97dd)" style="fill: url(#hc7873caad2); stroke: #ff7f0e; stroke-width: 2; stroke-linejoin: miter"/>
   </g>
   <g id="patch_68">
    <path d="M 404.995946 242.145204 
L 408.726811 242.145204 
L 408.726811 62.496204 
L 404.995946 62.496204 
z
" clip-path="url(#pcf780a97dd)" style="fill: url(#hc7873caad2); stroke: #ff7f0e; stroke-width: 2; stroke-linejoin: miter"/>
   </g>
   <g id="patch_69">
    <path d="M 409.385199 242.145204 
L 413.116063 242.145204 
L 413.116063 62.434462 
L 409.385199 62.434462 
z
" clip-path="url(#pcf780a97dd)" style="fill: url(#hc7873caad2); stroke: #ff7f0e; stroke-width: 2; stroke-linejoin: miter"/>
   </g>
   <g id="patch_70">
    <path d="M 413.774451 242.145204 
L 417.505315 242.145204 
L 417.505315 62.146332 
L 413.774451 62.146332 
z
" clip-path="url(#pcf780a97dd)" style="fill: url(#hc7873caad2); stroke: #ff7f0e; stroke-width: 2; stroke-linejoin: miter"/>
   </g>
   <g id="patch_71">
    <path d="M 418.163703 242.145204 
L 421.894568 242.145204 
L 421.894568 62.125752 
L 418.163703 62.125752 
z
" clip-path="url(#pcf780a97dd)" style="fill: url(#hc7873caad2); stroke: #ff7f0e; stroke-width: 2; stroke-linejoin: miter"/>
   </g>
   <g id="patch_72">
    <path d="M 422.552956 242.145204 
L 426.28382 242.145204 
L 426.28382 61.878783 
L 422.552956 61.878783 
z
" clip-path="url(#pcf780a97dd)" style="fill: url(#hc7873caad2); stroke: #ff7f0e; stroke-width: 2; stroke-linejoin: miter"/>
   </g>
   <g id="patch_73">
    <path d="M 426.942208 242.145204 
L 430.673072 242.145204 
L 430.673072 61.343685 
L 426.942208 61.343685 
z
" clip-path="url(#pcf780a97dd)" style="fill: url(#hc7873caad2); stroke: #ff7f0e; stroke-width: 2; stroke-linejoin: miter"/>
   </g>
   <g id="patch_74">
    <path d="M 431.33146 242.145204 
L 435.062325 242.145204 
L 435.062325 61.117297 
L 431.33146 61.117297 
z
" clip-path="url(#pcf780a97dd)" style="fill: url(#hc7873caad2); stroke: #ff7f0e; stroke-width: 2; stroke-linejoin: miter"/>
   </g>
   <g id="patch_75">
    <path d="M 435.720712 242.145204 
L 439.451577 242.145204 
L 439.451577 60.788006 
L 435.720712 60.788006 
z
" clip-path="url(#pcf780a97dd)" style="fill: url(#hc7873caad2); stroke: #ff7f0e; stroke-width: 2; stroke-linejoin: miter"/>
   </g>
   <g id="patch_76">
    <path d="M 440.109965 242.145204 
L 443.840829 242.145204 
L 443.840829 60.685102 
L 440.109965 60.685102 
z
" clip-path="url(#pcf780a97dd)" style="fill: url(#hc7873caad2); stroke: #ff7f0e; stroke-width: 2; stroke-linejoin: miter"/>
   </g>
   <g id="patch_77">
    <path d="M 444.499217 242.145204 
L 448.230082 242.145204 
L 448.230082 60.582198 
L 444.499217 60.582198 
z
" clip-path="url(#pcf780a97dd)" style="fill: url(#hc7873caad2); stroke: #ff7f0e; stroke-width: 2; stroke-linejoin: miter"/>
   </g>
   <g id="patch_78">
    <path d="M 448.888469 242.145204 
L 452.619334 242.145204 
L 452.619334 60.479295 
L 448.888469 60.479295 
z
" clip-path="url(#pcf780a97dd)" style="fill: url(#hc7873caad2); stroke: #ff7f0e; stroke-width: 2; stroke-linejoin: miter"/>
   </g>
   <g id="patch_79">
    <path d="M 453.277722 242.145204 
L 457.008586 242.145204 
L 457.008586 59.676647 
L 453.277722 59.676647 
z
" clip-path="url(#pcf780a97dd)" style="fill: url(#hc7873caad2); stroke: #ff7f0e; stroke-width: 2; stroke-linejoin: miter"/>
   </g>
   <g id="patch_80">
    <path d="M 457.666974 242.145204 
L 461.397839 242.145204 
L 461.397839 58.58587 
L 457.666974 58.58587 
z
" clip-path="url(#pcf780a97dd)" style="fill: url(#hc7873caad2); stroke: #ff7f0e; stroke-width: 2; stroke-linejoin: miter"/>
   </g>
   <g id="patch_81">
    <path d="M 462.056226 242.145204 
L 465.787091 242.145204 
L 465.787091 58.091933 
L 462.056226 58.091933 
z
" clip-path="url(#pcf780a97dd)" style="fill: url(#hc7873caad2); stroke: #ff7f0e; stroke-width: 2; stroke-linejoin: miter"/>
   </g>
   <g id="patch_82">
    <path d="M 466.445479 242.145204 
L 470.176343 242.145204 
L 470.176343 57.927287 
L 466.445479 57.927287 
z
" clip-path="url(#pcf780a97dd)" style="fill: url(#hc7873caad2); stroke: #ff7f0e; stroke-width: 2; stroke-linejoin: miter"/>
   </g>
   <g id="patch_83">
    <path d="M 470.834731 242.145204 
L 474.565596 242.145204 
L 474.565596 57.762641 
L 470.834731 57.762641 
z
" clip-path="url(#pcf780a97dd)" style="fill: url(#hc7873caad2); stroke: #ff7f0e; stroke-width: 2; stroke-linejoin: miter"/>
   </g>
   <g id="patch_84">
    <path d="M 475.223983 242.145204 
L 478.954848 242.145204 
L 478.954848 57.556834 
L 475.223983 57.556834 
z
" clip-path="url(#pcf780a97dd)" style="fill: url(#hc7873caad2); stroke: #ff7f0e; stroke-width: 2; stroke-linejoin: miter"/>
   </g>
   <g id="patch_85">
    <path d="M 479.613236 242.145204 
L 483.3441 242.145204 
L 483.3441 57.206962 
L 479.613236 57.206962 
z
" clip-path="url(#pcf780a97dd)" style="fill: url(#hc7873caad2); stroke: #ff7f0e; stroke-width: 2; stroke-linejoin: miter"/>
   </g>
   <g id="patch_86">
    <path d="M 484.002488 242.145204 
L 487.733352 242.145204 
L 487.733352 57.104059 
L 484.002488 57.104059 
z
" clip-path="url(#pcf780a97dd)" style="fill: url(#hc7873caad2); stroke: #ff7f0e; stroke-width: 2; stroke-linejoin: miter"/>
   </g>
   <g id="patch_87">
    <path d="M 488.39174 242.145204 
L 492.122605 242.145204 
L 492.122605 56.939413 
L 488.39174 56.939413 
z
" clip-path="url(#pcf780a97dd)" style="fill: url(#hc7873caad2); stroke: #ff7f0e; stroke-width: 2; stroke-linejoin: miter"/>
   </g>
   <g id="patch_88">
    <path d="M 492.780993 242.145204 
L 496.511857 242.145204 
L 496.511857 56.85709 
L 492.780993 56.85709 
z
" clip-path="url(#pcf780a97dd)" style="fill: url(#hc7873caad2); stroke: #ff7f0e; stroke-width: 2; stroke-linejoin: miter"/>
   </g>
   <g id="patch_89">
    <path d="M 497.170245 242.145204 
L 500.901109 242.145204 
L 500.901109 56.424895 
L 497.170245 56.424895 
z
" clip-path="url(#pcf780a97dd)" style="fill: url(#hc7873caad2); stroke: #ff7f0e; stroke-width: 2; stroke-linejoin: miter"/>
   </g>
   <g id="patch_90">
    <path d="M 501.559497 242.145204 
L 505.290362 242.145204 
L 505.290362 56.321992 
L 501.559497 56.321992 
z
" clip-path="url(#pcf780a97dd)" style="fill: url(#hc7873caad2); stroke: #ff7f0e; stroke-width: 2; stroke-linejoin: miter"/>
   </g>
   <g id="patch_91">
    <path d="M 505.94875 242.145204 
L 509.679614 242.145204 
L 509.679614 56.013281 
L 505.94875 56.013281 
z
" clip-path="url(#pcf780a97dd)" style="fill: url(#hc7873caad2); stroke: #ff7f0e; stroke-width: 2; stroke-linejoin: miter"/>
   </g>
   <g id="patch_92">
    <path d="M 510.338002 242.145204 
L 514.068866 242.145204 
L 514.068866 55.848636 
L 510.338002 55.848636 
z
" clip-path="url(#pcf780a97dd)" style="fill: url(#hc7873caad2); stroke: #ff7f0e; stroke-width: 2; stroke-linejoin: miter"/>
   </g>
   <g id="patch_93">
    <path d="M 514.727254 242.145204 
L 518.458119 242.145204 
L 518.458119 55.786893 
L 514.727254 55.786893 
z
" clip-path="url(#pcf780a97dd)" style="fill: url(#hc7873caad2); stroke: #ff7f0e; stroke-width: 2; stroke-linejoin: miter"/>
   </g>
   <g id="patch_94">
    <path d="M 519.116507 242.145204 
L 522.847371 242.145204 
L 522.847371 55.766313 
L 519.116507 55.766313 
z
" clip-path="url(#pcf780a97dd)" style="fill: url(#hc7873caad2); stroke: #ff7f0e; stroke-width: 2; stroke-linejoin: miter"/>
   </g>
   <g id="patch_95">
    <path d="M 523.505759 242.145204 
L 527.236623 242.145204 
L 527.236623 54.963665 
L 523.505759 54.963665 
z
" clip-path="url(#pcf780a97dd)" style="fill: url(#hc7873caad2); stroke: #ff7f0e; stroke-width: 2; stroke-linejoin: miter"/>
   </g>
   <g id="patch_96">
    <path d="M 527.895011 242.145204 
L 531.625876 242.145204 
L 531.625876 54.654955 
L 527.895011 54.654955 
z
" clip-path="url(#pcf780a97dd)" style="fill: url(#hc7873caad2); stroke: #ff7f0e; stroke-width: 2; stroke-linejoin: miter"/>
   </g>
   <g id="patch_97">
    <path d="M 532.284264 242.145204 
L 536.015128 242.145204 
L 536.015128 54.469728 
L 532.284264 54.469728 
z
" clip-path="url(#pcf780a97dd)" style="fill: url(#hc7873caad2); stroke: #ff7f0e; stroke-width: 2; stroke-linejoin: miter"/>
   </g>
   <g id="patch_98">
    <path d="M 536.673516 242.145204 
L 540.40438 242.145204 
L 540.40438 54.284502 
L 536.673516 54.284502 
z
" clip-path="url(#pcf780a97dd)" style="fill: url(#hc7873caad2); stroke: #ff7f0e; stroke-width: 2; stroke-linejoin: miter"/>
   </g>
   <g id="patch_99">
    <path d="M 541.062768 242.145204 
L 544.793633 242.145204 
L 544.793633 54.119856 
L 541.062768 54.119856 
z
" clip-path="url(#pcf780a97dd)" style="fill: url(#hc7873caad2); stroke: #ff7f0e; stroke-width: 2; stroke-linejoin: miter"/>
   </g>
   <g id="patch_100">
    <path d="M 545.45202 242.145204 
L 549.182885 242.145204 
L 549.182885 53.893468 
L 545.45202 53.893468 
z
" clip-path="url(#pcf780a97dd)" style="fill: url(#hc7873caad2); stroke: #ff7f0e; stroke-width: 2; stroke-linejoin: miter"/>
   </g>
   <g id="patch_101">
    <path d="M 549.841273 242.145204 
L 553.572137 242.145204 
L 553.572137 53.831726 
L 549.841273 53.831726 
z
" clip-path="url(#pcf780a97dd)" style="fill: url(#hc7873caad2); stroke: #ff7f0e; stroke-width: 2; stroke-linejoin: miter"/>
   </g>
   <g id="patch_102">
    <path d="M 554.230525 242.145204 
L 557.96139 242.145204 
L 557.96139 53.831726 
L 554.230525 53.831726 
z
" clip-path="url(#pcf780a97dd)" style="fill: url(#hc7873caad2); stroke: #ff7f0e; stroke-width: 2; stroke-linejoin: miter"/>
   </g>
   <g id="patch_103">
    <path d="M 558.619777 242.145204 
L 562.350642 242.145204 
L 562.350642 53.831726 
L 558.619777 53.831726 
z
" clip-path="url(#pcf780a97dd)" style="fill: url(#hc7873caad2); stroke: #ff7f0e; stroke-width: 2; stroke-linejoin: miter"/>
   </g>
   <g id="patch_104">
    <path d="M 563.00903 242.145204 
L 566.739894 242.145204 
L 566.739894 53.790565 
L 563.00903 53.790565 
z
" clip-path="url(#pcf780a97dd)" style="fill: url(#hc7873caad2); stroke: #ff7f0e; stroke-width: 2; stroke-linejoin: miter"/>
   </g>
   <g id="patch_105">
    <path d="M 567.398282 242.145204 
L 571.129147 242.145204 
L 571.129147 53.625919 
L 567.398282 53.625919 
z
" clip-path="url(#pcf780a97dd)" style="fill: url(#hc7873caad2); stroke: #ff7f0e; stroke-width: 2; stroke-linejoin: miter"/>
   </g>
   <g id="patch_106">
    <path d="M 571.787534 242.145204 
L 575.518399 242.145204 
L 575.518399 53.564177 
L 571.787534 53.564177 
z
" clip-path="url(#pcf780a97dd)" style="fill: url(#hc7873caad2); stroke: #ff7f0e; stroke-width: 2; stroke-linejoin: miter"/>
   </g>
   <g id="patch_107">
    <path d="M 576.176787 242.145204 
L 579.907651 242.145204 
L 579.907651 53.502435 
L 576.176787 53.502435 
z
" clip-path="url(#pcf780a97dd)" style="fill: url(#hc7873caad2); stroke: #ff7f0e; stroke-width: 2; stroke-linejoin: miter"/>
   </g>
   <g id="patch_108">
    <path d="M 580.566039 242.145204 
L 584.296904 242.145204 
L 584.296904 53.35837 
L 580.566039 53.35837 
z
" clip-path="url(#pcf780a97dd)" style="fill: url(#hc7873caad2); stroke: #ff7f0e; stroke-width: 2; stroke-linejoin: miter"/>
   </g>
   <g id="patch_109">
    <path d="M 584.955291 242.145204 
L 588.686156 242.145204 
L 588.686156 53.317209 
L 584.955291 53.317209 
z
" clip-path="url(#pcf780a97dd)" style="fill: url(#hc7873caad2); stroke: #ff7f0e; stroke-width: 2; stroke-linejoin: miter"/>
   </g>
   <g id="patch_110">
    <path d="M 589.344544 242.145204 
L 593.075408 242.145204 
L 593.075408 53.296628 
L 589.344544 53.296628 
z
" clip-path="url(#pcf780a97dd)" style="fill: url(#hc7873caad2); stroke: #ff7f0e; stroke-width: 2; stroke-linejoin: miter"/>
   </g>
   <g id="patch_111">
    <path d="M 593.733796 242.145204 
L 597.46466 242.145204 
L 597.46466 53.090821 
L 593.733796 53.090821 
z
" clip-path="url(#pcf780a97dd)" style="fill: url(#hc7873caad2); stroke: #ff7f0e; stroke-width: 2; stroke-linejoin: miter"/>
   </g>
   <g id="patch_112">
    <path d="M 598.123048 242.145204 
L 601.853913 242.145204 
L 601.853913 52.843852 
L 598.123048 52.843852 
z
" clip-path="url(#pcf780a97dd)" style="fill: url(#hc7873caad2); stroke: #ff7f0e; stroke-width: 2; stroke-linejoin: miter"/>
   </g>
   <g id="patch_113">
    <path d="M 602.512301 242.145204 
L 606.243165 242.145204 
L 606.243165 52.843852 
L 602.512301 52.843852 
z
" clip-path="url(#pcf780a97dd)" style="fill: url(#hc7873caad2); stroke: #ff7f0e; stroke-width: 2; stroke-linejoin: miter"/>
   </g>
   <g id="patch_114">
    <path d="M 606.901553 242.145204 
L 610.632417 242.145204 
L 610.632417 52.452819 
L 606.901553 52.452819 
z
" clip-path="url(#pcf780a97dd)" style="fill: url(#hc7873caad2); stroke: #ff7f0e; stroke-width: 2; stroke-linejoin: miter"/>
   </g>
   <g id="patch_115">
    <path d="M 611.290805 242.145204 
L 615.02167 242.145204 
L 615.02167 52.349915 
L 611.290805 52.349915 
z
" clip-path="url(#pcf780a97dd)" style="fill: url(#hc7873caad2); stroke: #ff7f0e; stroke-width: 2; stroke-linejoin: miter"/>
   </g>
   <g id="patch_116">
    <path d="M 615.680058 242.145204 
L 619.410922 242.145204 
L 619.410922 52.144108 
L 615.680058 52.144108 
z
" clip-path="url(#pcf780a97dd)" style="fill: url(#hc7873caad2); stroke: #ff7f0e; stroke-width: 2; stroke-linejoin: miter"/>
   </g>
   <g id="patch_117">
    <path d="M 620.06931 242.145204 
L 623.800174 242.145204 
L 623.800174 51.958882 
L 620.06931 51.958882 
z
" clip-path="url(#pcf780a97dd)" style="fill: url(#hc7873caad2); stroke: #ff7f0e; stroke-width: 2; stroke-linejoin: miter"/>
   </g>
   <g id="patch_118">
    <path d="M 624.458562 242.145204 
L 628.189427 242.145204 
L 628.189427 51.403203 
L 624.458562 51.403203 
z
" clip-path="url(#pcf780a97dd)" style="fill: url(#hc7873caad2); stroke: #ff7f0e; stroke-width: 2; stroke-linejoin: miter"/>
   </g>
   <g id="patch_119">
    <path d="M 628.847815 242.145204 
L 632.578679 242.145204 
L 632.578679 50.950427 
L 628.847815 50.950427 
z
" clip-path="url(#pcf780a97dd)" style="fill: url(#hc7873caad2); stroke: #ff7f0e; stroke-width: 2; stroke-linejoin: miter"/>
   </g>
   <g id="patch_120">
    <path d="M 633.237067 242.145204 
L 636.967931 242.145204 
L 636.967931 50.662297 
L 633.237067 50.662297 
z
" clip-path="url(#pcf780a97dd)" style="fill: url(#hc7873caad2); stroke: #ff7f0e; stroke-width: 2; stroke-linejoin: miter"/>
   </g>
   <g id="patch_121">
    <path d="M 637.626319 242.145204 
L 641.357184 242.145204 
L 641.357184 50.518232 
L 637.626319 50.518232 
z
" clip-path="url(#pcf780a97dd)" style="fill: url(#hc7873caad2); stroke: #ff7f0e; stroke-width: 2; stroke-linejoin: miter"/>
   </g>
   <g id="patch_122">
    <path d="M 642.015572 242.145204 
L 645.746436 242.145204 
L 645.746436 49.797907 
L 642.015572 49.797907 
z
" clip-path="url(#pcf780a97dd)" style="fill: url(#hc7873caad2); stroke: #ff7f0e; stroke-width: 2; stroke-linejoin: miter"/>
   </g>
   <g id="patch_123">
    <path d="M 646.404824 242.145204 
L 650.135688 242.145204 
L 650.135688 49.509778 
L 646.404824 49.509778 
z
" clip-path="url(#pcf780a97dd)" style="fill: url(#hc7873caad2); stroke: #ff7f0e; stroke-width: 2; stroke-linejoin: miter"/>
   </g>
   <g id="patch_124">
    <path d="M 650.794076 242.145204 
L 654.524941 242.145204 
L 654.524941 49.30397 
L 650.794076 49.30397 
z
" clip-path="url(#pcf780a97dd)" style="fill: url(#hc7873caad2); stroke: #ff7f0e; stroke-width: 2; stroke-linejoin: miter"/>
   </g>
   <g id="patch_125">
    <path d="M 655.183328 242.145204 
L 658.914193 242.145204 
L 658.914193 49.242228 
L 655.183328 49.242228 
z
" clip-path="url(#pcf780a97dd)" style="fill: url(#hc7873caad2); stroke: #ff7f0e; stroke-width: 2; stroke-linejoin: miter"/>
   </g>
   <g id="patch_126">
    <path d="M 659.572581 242.145204 
L 663.303445 242.145204 
L 663.303445 48.810033 
L 659.572581 48.810033 
z
" clip-path="url(#pcf780a97dd)" style="fill: url(#hc7873caad2); stroke: #ff7f0e; stroke-width: 2; stroke-linejoin: miter"/>
   </g>
   <g id="patch_127">
    <path d="M 663.961833 242.145204 
L 667.692698 242.145204 
L 667.692698 48.665969 
L 663.961833 48.665969 
z
" clip-path="url(#pcf780a97dd)" style="fill: url(#hc7873caad2); stroke: #ff7f0e; stroke-width: 2; stroke-linejoin: miter"/>
   </g>
   <g id="patch_128">
    <path d="M 668.351085 242.145204 
L 672.08195 242.145204 
L 672.08195 48.563065 
L 668.351085 48.563065 
z
" clip-path="url(#pcf780a97dd)" style="fill: url(#hc7873caad2); stroke: #ff7f0e; stroke-width: 2; stroke-linejoin: miter"/>
   </g>
   <g id="patch_129">
    <path d="M 672.740338 242.145204 
L 676.471202 242.145204 
L 676.471202 45.373055 
L 672.740338 45.373055 
z
" clip-path="url(#pcf780a97dd)" style="fill: url(#hc7873caad2); stroke: #ff7f0e; stroke-width: 2; stroke-linejoin: miter"/>
   </g>
   <g id="patch_130">
    <path d="M 677.12959 242.145204 
L 680.860455 242.145204 
L 680.860455 44.796795 
L 677.12959 44.796795 
z
" clip-path="url(#pcf780a97dd)" style="fill: url(#hc7873caad2); stroke: #ff7f0e; stroke-width: 2; stroke-linejoin: miter"/>
   </g>
   <g id="line2d_23">
    <path d="M 91.63625 62.774044 
L 708.91875 62.774044 
" clip-path="url(#pcf780a97dd)" style="fill: none; stroke-dasharray: 4.44,1.92; stroke-dashoffset: 0; stroke: #f58518; stroke-width: 1.2"/>
   </g>
   <g id="patch_131">
    <path d="M 91.63625 242.145204 
L 91.63625 34.929375 
" style="fill: none; stroke: #808080; stroke-width: 0.8; stroke-linejoin: miter; stroke-linecap: square"/>
   </g>
   <g id="patch_132">
    <path d="M 91.63625 242.145204 
L 708.91875 242.145204 
" style="fill: none; stroke: #808080; stroke-width: 0.8; stroke-linejoin: miter; stroke-linecap: square"/>
   </g>
   <g id="text_21">
    <text style="font: 22px 'PingFang SC', 'Heiti SC', 'STHeiti', 'Calibri', 'Arial', 'Helvetica Neue', 'Arial Unicode MS', 'Noto Sans CJK SC', 'DejaVu Sans', sans-serif; text-anchor: middle" x="400.2775" y="28.929375" transform="rotate(-0 400.2775 28.929375)">排序条形 · Power (W)</text>
   </g>
   <g id="legend_1">
    <g id="patch_133">
     <path d="M 100.03625 61.689375 
L 220.818125 61.689375 
Q 223.218125 61.689375 223.218125 59.289375 
L 223.218125 43.329375 
Q 223.218125 40.929375 220.818125 40.929375 
L 100.03625 40.929375 
Q 97.63625 40.929375 97.63625 43.329375 
L 97.63625 59.289375 
Q 97.63625 61.689375 100.03625 61.689375 
z
" style="fill: #ffffff; opacity: 0.5; stroke: #cccccc; stroke-linejoin: miter"/>
    </g>
    <g id="line2d_24">
     <path d="M 102.43625 51.080625 
L 114.43625 51.080625 
L 126.43625 51.080625 
" style="fill: none; stroke-dasharray: 4.44,1.92; stroke-dashoffset: 0; stroke: #f58518; stroke-width: 1.2"/>
    </g>
    <g id="text_22">
     <text style="font: 12px 'PingFang SC', 'Heiti SC', 'STHeiti', 'Calibri', 'Arial', 'Helvetica Neue', 'Arial Unicode MS', 'Noto Sans CJK SC', 'DejaVu Sans', sans-serif; text-anchor: start" x="136.03625" y="55.280625" transform="rotate(-0 136.03625 55.280625)">median=871.5</text>
    </g>
   </g>
  </g>
 </g>
 <defs>
  <clipPath id="pcf780a97dd">
   <rect x="91.63625" y="34.929375" width="617.2825" height="207.215829"/>
  </clipPath>
 </defs>
 <defs>
  <pattern id="hb96319438e" patternUnits="userSpaceOnUse" x="0" y="0" width="72" height="72">
   <rect x="0" y="0" width="73" height="73" fill="none"/>
   <path d="M -36 36 
L 36 -36 
M -30 42 
L 42 -30 
M -24 48 
L 48 -24 
M -18 54 
L 54 -18 
M -12 60 
L 60 -12 
M -6 66 
L 66 -6 
M 0 72 
L 72 0 
M 6 78 
L 78 6 
M 12 84 
L 84 12 
M 18 90 
L 90 18 
M 24 96 
L 96 24 
M 30 102 
L 102 30 
M 36 108 
L 108 36 
M -36 36 
L 36 108 
M -30 30 
L 42 102 
M -24 24 
L 48 96 
M -18 18 
L 54 90 
M -12 12 
L 60 84 
M -6 6 
L 66 78 
M 0 0 
L 72 72 
M 6 -6 
L 78 66 
M 12 -12 
L 84 60 
M 18 -18 
L 90 54 
M 24 -24 
L 96 48 
M 30 -30 
L 102 42 
M 36 -36 
L 108 36 
" style="fill: #2ca02c; stroke: #2ca02c; stroke-width: 1.0; stroke-linecap: butt; stroke-linejoin: miter"/>
  </pattern>
  <pattern id="hc7873caad2" patternUnits="userSpaceOnUse" x="0" y="0" width="72" height="72">
   <rect x="0" y="0" width="73" height="73" fill="none"/>
   <path d="M -36 36 
L 36 -36 
M -30 42 
L 42 -30 
M -24 48 
L 48 -24 
M -18 54 
L 54 -18 
M -12 60 
L 60 -12 
M -6 66 
L 66 -6 
M 0 72 
L 72 0 
M 6 78 
L 78 6 
M 12 84 
L 84 12 
M 18 90 
L 90 18 
M 24 96 
L 96 24 
M 30 102 
L 102 30 
M 36 108 
L 108 36 
" style="fill: #ff7f0e; stroke: #ff7f0e; stroke-width: 1.0; stroke-linecap: butt; stroke-linejoin: miter"/>
  </pattern>
 </defs>
</svg>
