<?xml version="1.0" encoding="utf-8" standalone="no"?>
<!DOCTYPE svg PUBLIC "-//W3C//DTD SVG 1.1//EN"
  "http://www.w3.org/Graphics/SVG/1.1/DTD/svg11.dtd">
<svg xmlns:xlink="http://www.w3.org/1999/xlink" width="719.746875pt" height="307.032198pt" viewBox="0 0 719.746875 307.032198" xmlns="http://www.w3.org/2000/svg" version="1.1">
 <metadata>
  <rdf:RDF xmlns:dc="http://purl.org/dc/elements/1.1/" xmlns:cc="http://creativecommons.org/ns#" xmlns:rdf="http://www.w3.org/1999/02/22-rdf-syntax-ns#">
   <cc:Work>
    <dc:type rdf:resource="http://purl.org/dc/dcmitype/StillImage"/>
    <dc:date>2026-07-11T20:14:12.799213</dc:date>
    <dc:format>image/svg+xml</dc:format>
    <dc:creator>
     <cc:Agent>
      <dc:title>Matplotlib v3.9.4, https://matplotlib.org/</dc:title>
     </cc:Agent>
    </dc:creator>
   </cc:Work>
  </rdf:RDF>
 </metadata>
 <defs>
  <style type="text/css">*{stroke-linejoin: round; stroke-linecap: butt}</style>
 </defs>
 <g id="figure_1">
  <g id="patch_1">
   <path d="M 0 307.032198 
L 719.746875 307.032198 
L 719.746875 0 
L 0 0 
z
" style="fill: #ffffff"/>
  </g>
  <g id="axes_1">
   <g id="patch_2">
    <path d="M 79.776875 242.175204 
L 708.946875 242.175204 
L 708.946875 35.259375 
L 79.776875 35.259375 
z
" style="fill: #ffffff"/>
   </g>
   <g id="matplotlib.axis_1">
    <g id="xtick_1">
     <g id="line2d_1">
      <defs>
       <path id="m86386b2896" d="M 0 0 
L 0 3.5 
" style="stroke: #808080; stroke-width: 0.8"/>
      </defs>
      <g>
       <use xlink:href="#m86386b2896" x="110.276868" y="242.175204" style="fill: #808080; stroke: #808080; stroke-width: 0.8"/>
      </g>
     </g>
     <g id="text_1">
      <text style="fill: #808080; font: 8px 'PingFang SC', 'Heiti SC', 'STHeiti', 'Calibri', 'Arial', 'Helvetica Neue', 'Arial Unicode MS', 'Noto Sans CJK SC', 'DejaVu Sans', sans-serif" transform="translate(84.56368 295.286751) rotate(-60)">worker-1:d13</text>
     </g>
    </g>
    <g id="xtick_2">
     <g id="line2d_2">
      <g>
       <use xlink:href="#m86386b2896" x="146.067105" y="242.175204" style="fill: #808080; stroke: #808080; stroke-width: 0.8"/>
      </g>
     </g>
     <g id="text_2">
      <text style="fill: #808080; font: 8px 'PingFang SC', 'Heiti SC', 'STHeiti', 'Calibri', 'Arial', 'Helvetica Neue', 'Arial Unicode MS', 'Noto Sans CJK SC', 'DejaVu Sans', sans-serif" transform="translate(122.570168 291.448093) rotate(-60)">worker-2:d6</text>
     </g>
    </g>
    <g id="xtick_3">
     <g id="line2d_3">
      <g>
       <use xlink:href="#m86386b2896" x="181.857342" y="242.175204" style="fill: #808080; stroke: #808080; stroke-width: 0.8"/>
      </g>
     </g>
     <g id="text_3">
      <text style="fill: #808080; font: 8px 'PingFang SC', 'Heiti SC', 'STHeiti', 'Calibri', 'Arial', 'Helvetica Neue', 'Arial Unicode MS', 'Noto Sans CJK SC', 'DejaVu Sans', sans-serif" transform="translate(158.360405 291.448093) rotate(-60)">worker-5:d4</text>
     </g>
    </g>
    <g id="xtick_4">
     <g id="line2d_4">
      <g>
       <use xlink:href="#m86386b2896" x="217.647579" y="242.175204" style="fill: #808080; stroke: #808080; stroke-width: 0.8"/>
      </g>
     </g>
     <g id="text_4">
      <text style="fill: #808080; font: 8px 'PingFang SC', 'Heiti SC', 'STHeiti', 'Calibri', 'Arial', 'Helvetica Neue', 'Arial Unicode MS', 'Noto Sans CJK SC', 'DejaVu Sans', sans-serif" transform="translate(191.934392 295.286751) rotate(-60)">worker-3:d12</text>
     </g>
    </g>
    <g id="xtick_5">
     <g id="line2d_5">
      <g>
       <use xlink:href="#m86386b2896" x="253.437816" y="242.175204" style="fill: #808080; stroke: #808080; stroke-width: 0.8"/>
      </g>
     </g>
     <g id="text_5">
      <text style="fill: #808080; font: 8px 'PingFang SC', 'Heiti SC', 'STHeiti', 'Calibri', 'Arial', 'Helvetica Neue', 'Arial Unicode MS', 'Noto Sans CJK SC', 'DejaVu Sans', sans-serif" transform="translate(229.940879 291.448093) rotate(-60)">worker-4:d6</text>
     </g>
    </g>
    <g id="xtick_6">
     <g id="line2d_6">
      <g>
       <use xlink:href="#m86386b2896" x="289.228053" y="242.175204" style="fill: #808080; stroke: #808080; stroke-width: 0.8"/>
      </g>
     </g>
     <g id="text_6">
      <text style="fill: #808080; font: 8px 'PingFang SC', 'Heiti SC', 'STHeiti', 'Calibri', 'Arial', 'Helvetica Neue', 'Arial Unicode MS', 'Noto Sans CJK SC', 'DejaVu Sans', sans-serif" transform="translate(265.731116 291.448093) rotate(-60)">worker-4:d8</text>
     </g>
    </g>
    <g id="xtick_7">
     <g id="line2d_7">
      <g>
       <use xlink:href="#m86386b2896" x="325.018291" y="242.175204" style="fill: #808080; stroke: #808080; stroke-width: 0.8"/>
      </g>
     </g>
     <g id="text_7">
      <text style="fill: #808080; font: 8px 'PingFang SC', 'Heiti SC', 'STHeiti', 'Calibri', 'Arial', 'Helvetica Neue', 'Arial Unicode MS', 'Noto Sans CJK SC', 'DejaVu Sans', sans-serif" transform="translate(299.305103 295.286751) rotate(-60)">worker-4:d11</text>
     </g>
    </g>
    <g id="xtick_8">
     <g id="line2d_8">
      <g>
       <use xlink:href="#m86386b2896" x="360.808528" y="242.175204" style="fill: #808080; stroke: #808080; stroke-width: 0.8"/>
      </g>
     </g>
     <g id="text_8">
      <text style="fill: #808080; font: 8px 'PingFang SC', 'Heiti SC', 'STHeiti', 'Calibri', 'Arial', 'Helvetica Neue', 'Arial Unicode MS', 'Noto Sans CJK SC', 'DejaVu Sans', sans-serif" transform="translate(335.09534 295.286751) rotate(-60)">worker-5:d13</text>
     </g>
    </g>
    <g id="xtick_9">
     <g id="line2d_9">
      <g>
       <use xlink:href="#m86386b2896" x="396.598765" y="242.175204" style="fill: #808080; stroke: #808080; stroke-width: 0.8"/>
      </g>
     </g>
     <g id="text_9">
      <text style="fill: #808080; font: 8px 'PingFang SC', 'Heiti SC', 'STHeiti', 'Calibri', 'Arial', 'Helvetica Neue', 'Arial Unicode MS', 'Noto Sans CJK SC', 'DejaVu Sans', sans-serif" transform="translate(373.101828 291.448093) rotate(-60)">worker-1:d8</text>
     </g>
    </g>
    <g id="xtick_10">
     <g id="line2d_10">
      <g>
       <use xlink:href="#m86386b2896" x="432.389002" y="242.175204" style="fill: #808080; stroke: #808080; stroke-width: 0.8"/>
      </g>
     </g>
     <g id="text_10">
      <text style="fill: #808080; font: 8px 'PingFang SC', 'Heiti SC', 'STHeiti', 'Calibri', 'Arial', 'Helvetica Neue', 'Arial Unicode MS', 'Noto Sans CJK SC', 'DejaVu Sans', sans-serif" transform="translate(408.892065 291.448093) rotate(-60)">worker-1:d9</text>
     </g>
    </g>
    <g id="xtick_11">
     <g id="line2d_11">
      <g>
       <use xlink:href="#m86386b2896" x="468.179239" y="242.175204" style="fill: #808080; stroke: #808080; stroke-width: 0.8"/>
      </g>
     </g>
     <g id="text_11">
      <text style="fill: #808080; font: 8px 'PingFang SC', 'Heiti SC', 'STHeiti', 'Calibri', 'Arial', 'Helvetica Neue', 'Arial Unicode MS', 'Noto Sans CJK SC', 'DejaVu Sans', sans-serif" transform="translate(444.446052 291.85729) rotate(-60)">master-0:d9</text>
     </g>
    </g>
    <g id="xtick_12">
     <g id="line2d_12">
      <g>
       <use xlink:href="#m86386b2896" x="503.969476" y="242.175204" style="fill: #808080; stroke: #808080; stroke-width: 0.8"/>
      </g>
     </g>
     <g id="text_12">
      <text style="fill: #808080; font: 8px 'PingFang SC', 'Heiti SC', 'STHeiti', 'Calibri', 'Arial', 'Helvetica Neue', 'Arial Unicode MS', 'Noto Sans CJK SC', 'DejaVu Sans', sans-serif" transform="translate(480.472539 291.448093) rotate(-60)">worker-1:d4</text>
     </g>
    </g>
    <g id="xtick_13">
     <g id="line2d_13">
      <g>
       <use xlink:href="#m86386b2896" x="539.759713" y="242.175204" style="fill: #808080; stroke: #808080; stroke-width: 0.8"/>
      </g>
     </g>
     <g id="text_13">
      <text style="fill: #808080; font: 8px 'PingFang SC', 'Heiti SC', 'STHeiti', 'Calibri', 'Arial', 'Helvetica Neue', 'Arial Unicode MS', 'Noto Sans CJK SC', 'DejaVu Sans', sans-serif" transform="translate(513.810276 295.695948) rotate(-60)">master-0:d12</text>
     </g>
    </g>
    <g id="xtick_14">
     <g id="line2d_14">
      <g>
       <use xlink:href="#m86386b2896" x="575.549951" y="242.175204" style="fill: #808080; stroke: #808080; stroke-width: 0.8"/>
      </g>
     </g>
     <g id="text_14">
      <text style="fill: #808080; font: 8px 'PingFang SC', 'Heiti SC', 'STHeiti', 'Calibri', 'Arial', 'Helvetica Neue', 'Arial Unicode MS', 'Noto Sans CJK SC', 'DejaVu Sans', sans-serif" transform="translate(549.836763 295.286751) rotate(-60)">worker-4:d15</text>
     </g>
    </g>
    <g id="xtick_15">
     <g id="line2d_15">
      <g>
       <use xlink:href="#m86386b2896" x="611.340188" y="242.175204" style="fill: #808080; stroke: #808080; stroke-width: 0.8"/>
      </g>
     </g>
     <g id="text_15">
      <text style="fill: #808080; font: 8px 'PingFang SC', 'Heiti SC', 'STHeiti', 'Calibri', 'Arial', 'Helvetica Neue', 'Arial Unicode MS', 'Noto Sans CJK SC', 'DejaVu Sans', sans-serif" transform="translate(587.84325 291.448093) rotate(-60)">worker-2:d8</text>
     </g>
    </g>
    <g id="xtick_16">
     <g id="line2d_16">
      <g>
       <use xlink:href="#m86386b2896" x="647.130425" y="242.175204" style="fill: #808080; stroke: #808080; stroke-width: 0.8"/>
      </g>
     </g>
     <g id="text_16">
      <text style="fill: #808080; font: 8px 'PingFang SC', 'Heiti SC', 'STHeiti', 'Calibri', 'Arial', 'Helvetica Neue', 'Arial Unicode MS', 'Noto Sans CJK SC', 'DejaVu Sans', sans-serif" transform="translate(623.633488 291.448093) rotate(-60)">worker-0:d4</text>
     </g>
    </g>
   </g>
   <g id="matplotlib.axis_2">
    <g id="ytick_1">
     <g id="line2d_17">
      <path d="M 79.776875 242.175204 
L 708.946875 242.175204 
" clip-path="url(#p21017ed283)" style="fill: none; stroke-dasharray: 1,1.65; stroke-dashoffset: 0; stroke: #808080; stroke-opacity: 0.55"/>
     </g>
     <g id="line2d_18">
      <defs>
       <path id="m2695ef7d57" d="M 0 0 
L -3.5 0 
" style="stroke: #808080; stroke-width: 0.8"/>
      </defs>
      <g>
       <use xlink:href="#m2695ef7d57" x="79.776875" y="242.175204" style="fill: #808080; stroke: #808080; stroke-width: 0.8"/>
      </g>
     </g>
     <g id="text_17">
      <text style="fill: #808080; font: 22px 'PingFang SC', 'Heiti SC', 'STHeiti', 'Calibri', 'Arial', 'Helvetica Neue', 'Arial Unicode MS', 'Noto Sans CJK SC', 'DejaVu Sans', sans-serif; text-anchor: end" x="72.776875" y="250.930517" transform="rotate(-0 72.776875 250.930517)">0</text>
     </g>
    </g>
    <g id="ytick_2">
     <g id="line2d_19">
      <path d="M 79.776875 158.973729 
L 708.946875 158.973729 
" clip-path="url(#p21017ed283)" style="fill: none; stroke-dasharray: 1,1.65; stroke-dashoffset: 0; stroke: #808080; stroke-opacity: 0.55"/>
     </g>
     <g id="line2d_20">
      <g>
       <use xlink:href="#m2695ef7d57" x="79.776875" y="158.973729" style="fill: #808080; stroke: #808080; stroke-width: 0.8"/>
      </g>
     </g>
     <g id="text_18">
      <text style="fill: #808080; font: 22px 'PingFang SC', 'Heiti SC', 'STHeiti', 'Calibri', 'Arial', 'Helvetica Neue', 'Arial Unicode MS', 'Noto Sans CJK SC', 'DejaVu Sans', sans-serif; text-anchor: end" x="72.776875" y="167.729041" transform="rotate(-0 72.776875 167.729041)">200</text>
     </g>
    </g>
    <g id="ytick_3">
     <g id="line2d_21">
      <path d="M 79.776875 75.772253 
L 708.946875 75.772253 
" clip-path="url(#p21017ed283)" style="fill: none; stroke-dasharray: 1,1.65; stroke-dashoffset: 0; stroke: #808080; stroke-opacity: 0.55"/>
     </g>
     <g id="line2d_22">
      <g>
       <use xlink:href="#m2695ef7d57" x="79.776875" y="75.772253" style="fill: #808080; stroke: #808080; stroke-width: 0.8"/>
      </g>
     </g>
     <g id="text_19">
      <text style="fill: #808080; font: 22px 'PingFang SC', 'Heiti SC', 'STHeiti', 'Calibri', 'Arial', 'Helvetica Neue', 'Arial Unicode MS', 'Noto Sans CJK SC', 'DejaVu Sans', sans-serif; text-anchor: end" x="72.776875" y="84.527566" transform="rotate(-0 72.776875 84.527566)">400</text>
     </g>
    </g>
    <g id="text_20">
     <text style="font: 22px 'PingFang SC', 'Heiti SC', 'STHeiti', 'Calibri', 'Arial', 'Helvetica Neue', 'Arial Unicode MS', 'Noto Sans CJK SC', 'DejaVu Sans', sans-serif; text-anchor: middle" x="29.259375" y="138.71729" transform="rotate(-90 29.259375 138.71729)">Health power (W)</text>
    </g>
   </g>
   <g id="patch_3">
    <path d="M 108.375511 242.175204 
L 112.178224 242.175204 
L 112.178224 177.527658 
L 108.375511 177.527658 
z
" clip-path="url(#p21017ed283)" style="fill: url(#h9824475803); stroke: #2ca02c; stroke-width: 2; stroke-linejoin: miter"/>
   </g>
   <g id="patch_4">
    <path d="M 112.849291 242.175204 
L 116.652004 242.175204 
L 116.652004 177.361255 
L 112.849291 177.361255 
z
" clip-path="url(#p21017ed283)" style="fill: url(#h9824475803); stroke: #2ca02c; stroke-width: 2; stroke-linejoin: miter"/>
   </g>
   <g id="patch_5">
    <path d="M 117.323071 242.175204 
L 121.125783 242.175204 
L 121.125783 177.319654 
L 117.323071 177.319654 
z
" clip-path="url(#p21017ed283)" style="fill: url(#h9824475803); stroke: #2ca02c; stroke-width: 2; stroke-linejoin: miter"/>
   </g>
   <g id="patch_6">
    <path d="M 121.79685 242.175204 
L 125.599563 242.175204 
L 125.599563 176.52924 
L 121.79685 176.52924 
z
" clip-path="url(#p21017ed283)" style="fill: url(#h9824475803); stroke: #2ca02c; stroke-width: 2; stroke-linejoin: miter"/>
   </g>
   <g id="patch_7">
    <path d="M 126.27063 242.175204 
L 130.073343 242.175204 
L 130.073343 176.404438 
L 126.27063 176.404438 
z
" clip-path="url(#p21017ed283)" style="fill: url(#h9824475803); stroke: #2ca02c; stroke-width: 2; stroke-linejoin: miter"/>
   </g>
   <g id="patch_8">
    <path d="M 130.74441 242.175204 
L 134.547122 242.175204 
L 134.547122 176.238035 
L 130.74441 176.238035 
z
" clip-path="url(#p21017ed283)" style="fill: url(#h9824475803); stroke: #2ca02c; stroke-width: 2; stroke-linejoin: miter"/>
   </g>
   <g id="patch_9">
    <path d="M 135.218189 242.175204 
L 139.020902 242.175204 
L 139.020902 175.988431 
L 135.218189 175.988431 
z
" clip-path="url(#p21017ed283)" style="fill: url(#h9824475803); stroke: #2ca02c; stroke-width: 2; stroke-linejoin: miter"/>
   </g>
   <g id="patch_10">
    <path d="M 139.691969 242.175204 
L 143.494682 242.175204 
L 143.494682 175.822028 
L 139.691969 175.822028 
z
" clip-path="url(#p21017ed283)" style="fill: url(#h9824475803); stroke: #2ca02c; stroke-width: 2; stroke-linejoin: miter"/>
   </g>
   <g id="patch_11">
    <path d="M 144.165749 242.175204 
L 147.968461 242.175204 
L 147.968461 175.780427 
L 144.165749 175.780427 
z
" clip-path="url(#p21017ed283)" style="fill: url(#h9824475803); stroke: #2ca02c; stroke-width: 2; stroke-linejoin: miter"/>
   </g>
   <g id="patch_12">
    <path d="M 148.639528 242.175204 
L 152.442241 242.175204 
L 152.442241 175.780427 
L 148.639528 175.780427 
z
" clip-path="url(#p21017ed283)" style="fill: url(#h9824475803); stroke: #2ca02c; stroke-width: 2; stroke-linejoin: miter"/>
   </g>
   <g id="patch_13">
    <path d="M 153.113308 242.175204 
L 156.91602 242.175204 
L 156.91602 175.697225 
L 153.113308 175.697225 
z
" clip-path="url(#p21017ed283)" style="fill: url(#h9824475803); stroke: #2ca02c; stroke-width: 2; stroke-linejoin: miter"/>
   </g>
   <g id="patch_14">
    <path d="M 157.587087 242.175204 
L 161.3898 242.175204 
L 161.3898 175.614024 
L 157.587087 175.614024 
z
" clip-path="url(#p21017ed283)" style="fill: url(#h9824475803); stroke: #2ca02c; stroke-width: 2; stroke-linejoin: miter"/>
   </g>
   <g id="patch_15">
    <path d="M 162.060867 242.175204 
L 165.86358 242.175204 
L 165.86358 175.530822 
L 162.060867 175.530822 
z
" clip-path="url(#p21017ed283)" style="fill: url(#h9824475803); stroke: #2ca02c; stroke-width: 2; stroke-linejoin: miter"/>
   </g>
   <g id="patch_16">
    <path d="M 166.534647 242.175204 
L 170.337359 242.175204 
L 170.337359 175.114815 
L 166.534647 175.114815 
z
" clip-path="url(#p21017ed283)" style="fill: url(#h9824475803); stroke: #2ca02c; stroke-width: 2; stroke-linejoin: miter"/>
   </g>
   <g id="patch_17">
    <path d="M 171.008426 242.175204 
L 174.811139 242.175204 
L 174.811139 175.114815 
L 171.008426 175.114815 
z
" clip-path="url(#p21017ed283)" style="fill: url(#h9824475803); stroke: #2ca02c; stroke-width: 2; stroke-linejoin: miter"/>
   </g>
   <g id="patch_18">
    <path d="M 175.482206 242.175204 
L 179.284919 242.175204 
L 179.284919 175.073214 
L 175.482206 175.073214 
z
" clip-path="url(#p21017ed283)" style="fill: url(#h9824475803); stroke: #2ca02c; stroke-width: 2; stroke-linejoin: miter"/>
   </g>
   <g id="patch_19">
    <path d="M 179.955986 242.175204 
L 183.758698 242.175204 
L 183.758698 174.948412 
L 179.955986 174.948412 
z
" clip-path="url(#p21017ed283)" style="fill: url(#h9824475803); stroke: #2ca02c; stroke-width: 2; stroke-linejoin: miter"/>
   </g>
   <g id="patch_20">
    <path d="M 184.429765 242.175204 
L 188.232478 242.175204 
L 188.232478 174.948412 
L 184.429765 174.948412 
z
" clip-path="url(#p21017ed283)" style="fill: url(#h9824475803); stroke: #2ca02c; stroke-width: 2; stroke-linejoin: miter"/>
   </g>
   <g id="patch_21">
    <path d="M 188.903545 242.175204 
L 192.706258 242.175204 
L 192.706258 174.906811 
L 188.903545 174.906811 
z
" clip-path="url(#p21017ed283)" style="fill: url(#h9824475803); stroke: #2ca02c; stroke-width: 2; stroke-linejoin: miter"/>
   </g>
   <g id="patch_22">
    <path d="M 193.377325 242.175204 
L 197.180037 242.175204 
L 197.180037 174.740408 
L 193.377325 174.740408 
z
" clip-path="url(#p21017ed283)" style="fill: url(#h9824475803); stroke: #2ca02c; stroke-width: 2; stroke-linejoin: miter"/>
   </g>
   <g id="patch_23">
    <path d="M 197.851104 242.175204 
L 201.653817 242.175204 
L 201.653817 174.740408 
L 197.851104 174.740408 
z
" clip-path="url(#p21017ed283)" style="fill: url(#h9824475803); stroke: #2ca02c; stroke-width: 2; stroke-linejoin: miter"/>
   </g>
   <g id="patch_24">
    <path d="M 202.324884 242.175204 
L 206.127597 242.175204 
L 206.127597 174.740408 
L 202.324884 174.740408 
z
" clip-path="url(#p21017ed283)" style="fill: url(#h9824475803); stroke: #2ca02c; stroke-width: 2; stroke-linejoin: miter"/>
   </g>
   <g id="patch_25">
    <path d="M 206.798663 242.175204 
L 210.601376 242.175204 
L 210.601376 174.657207 
L 206.798663 174.657207 
z
" clip-path="url(#p21017ed283)" style="fill: url(#h9824475803); stroke: #2ca02c; stroke-width: 2; stroke-linejoin: miter"/>
   </g>
   <g id="patch_26">
    <path d="M 211.272443 242.175204 
L 215.075156 242.175204 
L 215.075156 174.657207 
L 211.272443 174.657207 
z
" clip-path="url(#p21017ed283)" style="fill: url(#h9824475803); stroke: #2ca02c; stroke-width: 2; stroke-linejoin: miter"/>
   </g>
   <g id="patch_27">
    <path d="M 215.746223 242.175204 
L 219.548935 242.175204 
L 219.548935 174.615606 
L 215.746223 174.615606 
z
" clip-path="url(#p21017ed283)" style="fill: url(#h9824475803); stroke: #2ca02c; stroke-width: 2; stroke-linejoin: miter"/>
   </g>
   <g id="patch_28">
    <path d="M 220.220002 242.175204 
L 224.022715 242.175204 
L 224.022715 174.574005 
L 220.220002 174.574005 
z
" clip-path="url(#p21017ed283)" style="fill: url(#h9824475803); stroke: #2ca02c; stroke-width: 2; stroke-linejoin: miter"/>
   </g>
   <g id="patch_29">
    <path d="M 224.693782 242.175204 
L 228.496495 242.175204 
L 228.496495 174.532405 
L 224.693782 174.532405 
z
" clip-path="url(#p21017ed283)" style="fill: url(#h9824475803); stroke: #2ca02c; stroke-width: 2; stroke-linejoin: miter"/>
   </g>
   <g id="patch_30">
    <path d="M 229.167562 242.175204 
L 232.970274 242.175204 
L 232.970274 174.532405 
L 229.167562 174.532405 
z
" clip-path="url(#p21017ed283)" style="fill: url(#h9824475803); stroke: #2ca02c; stroke-width: 2; stroke-linejoin: miter"/>
   </g>
   <g id="patch_31">
    <path d="M 233.641341 242.175204 
L 237.444054 242.175204 
L 237.444054 174.490804 
L 233.641341 174.490804 
z
" clip-path="url(#p21017ed283)" style="fill: url(#h9824475803); stroke: #2ca02c; stroke-width: 2; stroke-linejoin: miter"/>
   </g>
   <g id="patch_32">
    <path d="M 238.115121 242.175204 
L 241.917834 242.175204 
L 241.917834 174.490804 
L 238.115121 174.490804 
z
" clip-path="url(#p21017ed283)" style="fill: url(#h9824475803); stroke: #2ca02c; stroke-width: 2; stroke-linejoin: miter"/>
   </g>
   <g id="patch_33">
    <path d="M 242.588901 242.175204 
L 246.391613 242.175204 
L 246.391613 174.449203 
L 242.588901 174.449203 
z
" clip-path="url(#p21017ed283)" style="fill: url(#h9824475803); stroke: #2ca02c; stroke-width: 2; stroke-linejoin: miter"/>
   </g>
   <g id="patch_34">
    <path d="M 247.06268 242.175204 
L 250.865393 242.175204 
L 250.865393 174.449203 
L 247.06268 174.449203 
z
" clip-path="url(#p21017ed283)" style="fill: url(#h9824475803); stroke: #2ca02c; stroke-width: 2; stroke-linejoin: miter"/>
   </g>
   <g id="patch_35">
    <path d="M 251.53646 242.175204 
L 255.339173 242.175204 
L 255.339173 174.407602 
L 251.53646 174.407602 
z
" clip-path="url(#p21017ed283)" style="fill: url(#h9824475803); stroke: #2ca02c; stroke-width: 2; stroke-linejoin: miter"/>
   </g>
   <g id="patch_36">
    <path d="M 256.01024 242.175204 
L 259.812952 242.175204 
L 259.812952 174.407602 
L 256.01024 174.407602 
z
" clip-path="url(#p21017ed283)" style="fill: url(#h9824475803); stroke: #2ca02c; stroke-width: 2; stroke-linejoin: miter"/>
   </g>
   <g id="patch_37">
    <path d="M 260.484019 242.175204 
L 264.286732 242.175204 
L 264.286732 174.324401 
L 260.484019 174.324401 
z
" clip-path="url(#p21017ed283)" style="fill: url(#h9824475803); stroke: #2ca02c; stroke-width: 2; stroke-linejoin: miter"/>
   </g>
   <g id="patch_38">
    <path d="M 264.957799 242.175204 
L 268.760512 242.175204 
L 268.760512 174.324401 
L 264.957799 174.324401 
z
" clip-path="url(#p21017ed283)" style="fill: url(#h9824475803); stroke: #2ca02c; stroke-width: 2; stroke-linejoin: miter"/>
   </g>
   <g id="patch_39">
    <path d="M 269.431578 242.175204 
L 273.234291 242.175204 
L 273.234291 174.2412 
L 269.431578 174.2412 
z
" clip-path="url(#p21017ed283)" style="fill: url(#h9824475803); stroke: #2ca02c; stroke-width: 2; stroke-linejoin: miter"/>
   </g>
   <g id="patch_40">
    <path d="M 273.905358 242.175204 
L 277.708071 242.175204 
L 277.708071 174.199599 
L 273.905358 174.199599 
z
" clip-path="url(#p21017ed283)" style="fill: url(#h9824475803); stroke: #2ca02c; stroke-width: 2; stroke-linejoin: miter"/>
   </g>
   <g id="patch_41">
    <path d="M 278.379138 242.175204 
L 282.18185 242.175204 
L 282.18185 174.157998 
L 278.379138 174.157998 
z
" clip-path="url(#p21017ed283)" style="fill: url(#h9824475803); stroke: #2ca02c; stroke-width: 2; stroke-linejoin: miter"/>
   </g>
   <g id="patch_42">
    <path d="M 282.852917 242.175204 
L 286.65563 242.175204 
L 286.65563 174.157998 
L 282.852917 174.157998 
z
" clip-path="url(#p21017ed283)" style="fill: url(#h9824475803); stroke: #2ca02c; stroke-width: 2; stroke-linejoin: miter"/>
   </g>
   <g id="patch_43">
    <path d="M 287.326697 242.175204 
L 291.12941 242.175204 
L 291.12941 174.116397 
L 287.326697 174.116397 
z
" clip-path="url(#p21017ed283)" style="fill: url(#h9824475803); stroke: #2ca02c; stroke-width: 2; stroke-linejoin: miter"/>
   </g>
   <g id="patch_44">
    <path d="M 291.800477 242.175204 
L 295.603189 242.175204 
L 295.603189 174.074797 
L 291.800477 174.074797 
z
" clip-path="url(#p21017ed283)" style="fill: url(#h9824475803); stroke: #2ca02c; stroke-width: 2; stroke-linejoin: miter"/>
   </g>
   <g id="patch_45">
    <path d="M 296.274256 242.175204 
L 300.076969 242.175204 
L 300.076969 173.866793 
L 296.274256 173.866793 
z
" clip-path="url(#p21017ed283)" style="fill: url(#h9824475803); stroke: #2ca02c; stroke-width: 2; stroke-linejoin: miter"/>
   </g>
   <g id="patch_46">
    <path d="M 300.748036 242.175204 
L 304.550749 242.175204 
L 304.550749 173.825192 
L 300.748036 173.825192 
z
" clip-path="url(#p21017ed283)" style="fill: url(#h9824475803); stroke: #2ca02c; stroke-width: 2; stroke-linejoin: miter"/>
   </g>
   <g id="patch_47">
    <path d="M 305.221816 242.175204 
L 309.024528 242.175204 
L 309.024528 173.825192 
L 305.221816 173.825192 
z
" clip-path="url(#p21017ed283)" style="fill: url(#h9824475803); stroke: #2ca02c; stroke-width: 2; stroke-linejoin: miter"/>
   </g>
   <g id="patch_48">
    <path d="M 309.695595 242.175204 
L 313.498308 242.175204 
L 313.498308 173.70039 
L 309.695595 173.70039 
z
" clip-path="url(#p21017ed283)" style="fill: url(#h9824475803); stroke: #2ca02c; stroke-width: 2; stroke-linejoin: miter"/>
   </g>
   <g id="patch_49">
    <path d="M 314.169375 242.175204 
L 317.972088 242.175204 
L 317.972088 173.658789 
L 314.169375 173.658789 
z
" clip-path="url(#p21017ed283)" style="fill: url(#h9824475803); stroke: #2ca02c; stroke-width: 2; stroke-linejoin: miter"/>
   </g>
   <g id="patch_50">
    <path d="M 318.643155 242.175204 
L 322.445867 242.175204 
L 322.445867 173.575588 
L 318.643155 173.575588 
z
" clip-path="url(#p21017ed283)" style="fill: url(#h9824475803); stroke: #2ca02c; stroke-width: 2; stroke-linejoin: miter"/>
   </g>
   <g id="patch_51">
    <path d="M 323.116934 242.175204 
L 326.919647 242.175204 
L 326.919647 173.533987 
L 323.116934 173.533987 
z
" clip-path="url(#p21017ed283)" style="fill: url(#h9824475803); stroke: #2ca02c; stroke-width: 2; stroke-linejoin: miter"/>
   </g>
   <g id="patch_52">
    <path d="M 327.590714 242.175204 
L 331.393427 242.175204 
L 331.393427 173.533987 
L 327.590714 173.533987 
z
" clip-path="url(#p21017ed283)" style="fill: url(#h9824475803); stroke: #2ca02c; stroke-width: 2; stroke-linejoin: miter"/>
   </g>
   <g id="patch_53">
    <path d="M 332.064493 242.175204 
L 335.867206 242.175204 
L 335.867206 173.533987 
L 332.064493 173.533987 
z
" clip-path="url(#p21017ed283)" style="fill: url(#h9824475803); stroke: #2ca02c; stroke-width: 2; stroke-linejoin: miter"/>
   </g>
   <g id="patch_54">
    <path d="M 336.538273 242.175204 
L 340.340986 242.175204 
L 340.340986 173.450786 
L 336.538273 173.450786 
z
" clip-path="url(#p21017ed283)" style="fill: url(#h9824475803); stroke: #2ca02c; stroke-width: 2; stroke-linejoin: miter"/>
   </g>
   <g id="patch_55">
    <path d="M 341.012053 242.175204 
L 344.814765 242.175204 
L 344.814765 173.242782 
L 341.012053 173.242782 
z
" clip-path="url(#p21017ed283)" style="fill: url(#h9824475803); stroke: #2ca02c; stroke-width: 2; stroke-linejoin: miter"/>
   </g>
   <g id="patch_56">
    <path d="M 345.485832 242.175204 
L 349.288545 242.175204 
L 349.288545 173.15958 
L 345.485832 173.15958 
z
" clip-path="url(#p21017ed283)" style="fill: url(#h9824475803); stroke: #2ca02c; stroke-width: 2; stroke-linejoin: miter"/>
   </g>
   <g id="patch_57">
    <path d="M 349.959612 242.175204 
L 353.762325 242.175204 
L 353.762325 173.11798 
L 349.959612 173.11798 
z
" clip-path="url(#p21017ed283)" style="fill: url(#h9824475803); stroke: #2ca02c; stroke-width: 2; stroke-linejoin: miter"/>
   </g>
   <g id="patch_58">
    <path d="M 354.433392 242.175204 
L 358.236104 242.175204 
L 358.236104 172.909976 
L 354.433392 172.909976 
z
" clip-path="url(#p21017ed283)" style="fill: url(#h9824475803); stroke: #2ca02c; stroke-width: 2; stroke-linejoin: miter"/>
   </g>
   <g id="patch_59">
    <path d="M 358.907171 242.175204 
L 362.709884 242.175204 
L 362.709884 172.909976 
L 358.907171 172.909976 
z
" clip-path="url(#p21017ed283)" style="fill: url(#h9824475803); stroke: #2ca02c; stroke-width: 2; stroke-linejoin: miter"/>
   </g>
   <g id="patch_60">
    <path d="M 363.380951 242.175204 
L 367.183664 242.175204 
L 367.183664 172.868375 
L 363.380951 172.868375 
z
" clip-path="url(#p21017ed283)" style="fill: url(#h9824475803); stroke: #2ca02c; stroke-width: 2; stroke-linejoin: miter"/>
   </g>
   <g id="patch_61">
    <path d="M 367.854731 242.175204 
L 371.657443 242.175204 
L 371.657443 172.618771 
L 367.854731 172.618771 
z
" clip-path="url(#p21017ed283)" style="fill: url(#h9824475803); stroke: #2ca02c; stroke-width: 2; stroke-linejoin: miter"/>
   </g>
   <g id="patch_62">
    <path d="M 372.32851 242.175204 
L 376.131223 242.175204 
L 376.131223 172.57717 
L 372.32851 172.57717 
z
" clip-path="url(#p21017ed283)" style="fill: url(#h9824475803); stroke: #2ca02c; stroke-width: 2; stroke-linejoin: miter"/>
   </g>
   <g id="patch_63">
    <path d="M 376.80229 242.175204 
L 380.605003 242.175204 
L 380.605003 172.369166 
L 376.80229 172.369166 
z
" clip-path="url(#p21017ed283)" style="fill: url(#h9824475803); stroke: #2ca02c; stroke-width: 2; stroke-linejoin: miter"/>
   </g>
   <g id="patch_64">
    <path d="M 381.27607 242.175204 
L 385.078782 242.175204 
L 385.078782 172.369166 
L 381.27607 172.369166 
z
" clip-path="url(#p21017ed283)" style="fill: url(#h9824475803); stroke: #2ca02c; stroke-width: 2; stroke-linejoin: miter"/>
   </g>
   <g id="patch_65">
    <path d="M 385.749849 242.175204 
L 389.552562 242.175204 
L 389.552562 172.369166 
L 385.749849 172.369166 
z
" clip-path="url(#p21017ed283)" style="fill: url(#h9824475803); stroke: #2ca02c; stroke-width: 2; stroke-linejoin: miter"/>
   </g>
   <g id="patch_66">
    <path d="M 390.223629 242.175204 
L 394.026342 242.175204 
L 394.026342 172.327566 
L 390.223629 172.327566 
z
" clip-path="url(#p21017ed283)" style="fill: url(#h9824475803); stroke: #2ca02c; stroke-width: 2; stroke-linejoin: miter"/>
   </g>
   <g id="patch_67">
    <path d="M 394.697408 242.175204 
L 398.500121 242.175204 
L 398.500121 172.285965 
L 394.697408 172.285965 
z
" clip-path="url(#p21017ed283)" style="fill: url(#he84a2efa5a); stroke: #ff7f0e; stroke-width: 2; stroke-linejoin: miter"/>
   </g>
   <g id="patch_68">
    <path d="M 399.171188 242.175204 
L 402.973901 242.175204 
L 402.973901 172.244364 
L 399.171188 172.244364 
z
" clip-path="url(#p21017ed283)" style="fill: url(#he84a2efa5a); stroke: #ff7f0e; stroke-width: 2; stroke-linejoin: miter"/>
   </g>
   <g id="patch_69">
    <path d="M 403.644968 242.175204 
L 407.44768 242.175204 
L 407.44768 172.202763 
L 403.644968 172.202763 
z
" clip-path="url(#p21017ed283)" style="fill: url(#he84a2efa5a); stroke: #ff7f0e; stroke-width: 2; stroke-linejoin: miter"/>
   </g>
   <g id="patch_70">
    <path d="M 408.118747 242.175204 
L 411.92146 242.175204 
L 411.92146 172.161163 
L 408.118747 172.161163 
z
" clip-path="url(#p21017ed283)" style="fill: url(#he84a2efa5a); stroke: #ff7f0e; stroke-width: 2; stroke-linejoin: miter"/>
   </g>
   <g id="patch_71">
    <path d="M 412.592527 242.175204 
L 416.39524 242.175204 
L 416.39524 172.119562 
L 412.592527 172.119562 
z
" clip-path="url(#p21017ed283)" style="fill: url(#he84a2efa5a); stroke: #ff7f0e; stroke-width: 2; stroke-linejoin: miter"/>
   </g>
   <g id="patch_72">
    <path d="M 417.066307 242.175204 
L 420.869019 242.175204 
L 420.869019 172.077961 
L 417.066307 172.077961 
z
" clip-path="url(#p21017ed283)" style="fill: url(#he84a2efa5a); stroke: #ff7f0e; stroke-width: 2; stroke-linejoin: miter"/>
   </g>
   <g id="patch_73">
    <path d="M 421.540086 242.175204 
L 425.342799 242.175204 
L 425.342799 172.03636 
L 421.540086 172.03636 
z
" clip-path="url(#p21017ed283)" style="fill: url(#he84a2efa5a); stroke: #ff7f0e; stroke-width: 2; stroke-linejoin: miter"/>
   </g>
   <g id="patch_74">
    <path d="M 426.013866 242.175204 
L 429.816579 242.175204 
L 429.816579 171.99476 
L 426.013866 171.99476 
z
" clip-path="url(#p21017ed283)" style="fill: url(#he84a2efa5a); stroke: #ff7f0e; stroke-width: 2; stroke-linejoin: miter"/>
   </g>
   <g id="patch_75">
    <path d="M 430.487646 242.175204 
L 434.290358 242.175204 
L 434.290358 171.911558 
L 430.487646 171.911558 
z
" clip-path="url(#p21017ed283)" style="fill: url(#he84a2efa5a); stroke: #ff7f0e; stroke-width: 2; stroke-linejoin: miter"/>
   </g>
   <g id="patch_76">
    <path d="M 434.961425 242.175204 
L 438.764138 242.175204 
L 438.764138 171.911558 
L 434.961425 171.911558 
z
" clip-path="url(#p21017ed283)" style="fill: url(#he84a2efa5a); stroke: #ff7f0e; stroke-width: 2; stroke-linejoin: miter"/>
   </g>
   <g id="patch_77">
    <path d="M 439.435205 242.175204 
L 443.237918 242.175204 
L 443.237918 171.828357 
L 439.435205 171.828357 
z
" clip-path="url(#p21017ed283)" style="fill: url(#he84a2efa5a); stroke: #ff7f0e; stroke-width: 2; stroke-linejoin: miter"/>
   </g>
   <g id="patch_78">
    <path d="M 443.908985 242.175204 
L 447.711697 242.175204 
L 447.711697 171.786756 
L 443.908985 171.786756 
z
" clip-path="url(#p21017ed283)" style="fill: url(#he84a2efa5a); stroke: #ff7f0e; stroke-width: 2; stroke-linejoin: miter"/>
   </g>
   <g id="patch_79">
    <path d="M 448.382764 242.175204 
L 452.185477 242.175204 
L 452.185477 171.786756 
L 448.382764 171.786756 
z
" clip-path="url(#p21017ed283)" style="fill: url(#he84a2efa5a); stroke: #ff7f0e; stroke-width: 2; stroke-linejoin: miter"/>
   </g>
   <g id="patch_80">
    <path d="M 452.856544 242.175204 
L 456.659257 242.175204 
L 456.659257 171.786756 
L 452.856544 171.786756 
z
" clip-path="url(#p21017ed283)" style="fill: url(#he84a2efa5a); stroke: #ff7f0e; stroke-width: 2; stroke-linejoin: miter"/>
   </g>
   <g id="patch_81">
    <path d="M 457.330323 242.175204 
L 461.133036 242.175204 
L 461.133036 171.745155 
L 457.330323 171.745155 
z
" clip-path="url(#p21017ed283)" style="fill: url(#he84a2efa5a); stroke: #ff7f0e; stroke-width: 2; stroke-linejoin: miter"/>
   </g>
   <g id="patch_82">
    <path d="M 461.804103 242.175204 
L 465.606816 242.175204 
L 465.606816 171.745155 
L 461.804103 171.745155 
z
" clip-path="url(#p21017ed283)" style="fill: url(#he84a2efa5a); stroke: #ff7f0e; stroke-width: 2; stroke-linejoin: miter"/>
   </g>
   <g id="patch_83">
    <path d="M 466.277883 242.175204 
L 470.080595 242.175204 
L 470.080595 171.745155 
L 466.277883 171.745155 
z
" clip-path="url(#p21017ed283)" style="fill: url(#he84a2efa5a); stroke: #ff7f0e; stroke-width: 2; stroke-linejoin: miter"/>
   </g>
   <g id="patch_84">
    <path d="M 470.751662 242.175204 
L 474.554375 242.175204 
L 474.554375 171.620353 
L 470.751662 171.620353 
z
" clip-path="url(#p21017ed283)" style="fill: url(#he84a2efa5a); stroke: #ff7f0e; stroke-width: 2; stroke-linejoin: miter"/>
   </g>
   <g id="patch_85">
    <path d="M 475.225442 242.175204 
L 479.028155 242.175204 
L 479.028155 171.578752 
L 475.225442 171.578752 
z
" clip-path="url(#p21017ed283)" style="fill: url(#he84a2efa5a); stroke: #ff7f0e; stroke-width: 2; stroke-linejoin: miter"/>
   </g>
   <g id="patch_86">
    <path d="M 479.699222 242.175204 
L 483.501934 242.175204 
L 483.501934 171.45395 
L 479.699222 171.45395 
z
" clip-path="url(#p21017ed283)" style="fill: url(#he84a2efa5a); stroke: #ff7f0e; stroke-width: 2; stroke-linejoin: miter"/>
   </g>
   <g id="patch_87">
    <path d="M 484.173001 242.175204 
L 487.975714 242.175204 
L 487.975714 171.412349 
L 484.173001 171.412349 
z
" clip-path="url(#p21017ed283)" style="fill: url(#he84a2efa5a); stroke: #ff7f0e; stroke-width: 2; stroke-linejoin: miter"/>
   </g>
   <g id="patch_88">
    <path d="M 488.646781 242.175204 
L 492.449494 242.175204 
L 492.449494 171.121144 
L 488.646781 171.121144 
z
" clip-path="url(#p21017ed283)" style="fill: url(#he84a2efa5a); stroke: #ff7f0e; stroke-width: 2; stroke-linejoin: miter"/>
   </g>
   <g id="patch_89">
    <path d="M 493.120561 242.175204 
L 496.923273 242.175204 
L 496.923273 170.788338 
L 493.120561 170.788338 
z
" clip-path="url(#p21017ed283)" style="fill: url(#he84a2efa5a); stroke: #ff7f0e; stroke-width: 2; stroke-linejoin: miter"/>
   </g>
   <g id="patch_90">
    <path d="M 497.59434 242.175204 
L 501.397053 242.175204 
L 501.397053 170.746738 
L 497.59434 170.746738 
z
" clip-path="url(#p21017ed283)" style="fill: url(#he84a2efa5a); stroke: #ff7f0e; stroke-width: 2; stroke-linejoin: miter"/>
   </g>
   <g id="patch_91">
    <path d="M 502.06812 242.175204 
L 505.870833 242.175204 
L 505.870833 170.247529 
L 502.06812 170.247529 
z
" clip-path="url(#p21017ed283)" style="fill: url(#he84a2efa5a); stroke: #ff7f0e; stroke-width: 2; stroke-linejoin: miter"/>
   </g>
   <g id="patch_92">
    <path d="M 506.5419 242.175204 
L 510.344612 242.175204 
L 510.344612 170.164327 
L 506.5419 170.164327 
z
" clip-path="url(#p21017ed283)" style="fill: url(#he84a2efa5a); stroke: #ff7f0e; stroke-width: 2; stroke-linejoin: miter"/>
   </g>
   <g id="patch_93">
    <path d="M 511.015679 242.175204 
L 514.818392 242.175204 
L 514.818392 168.417096 
L 511.015679 168.417096 
z
" clip-path="url(#p21017ed283)" style="fill: url(#he84a2efa5a); stroke: #ff7f0e; stroke-width: 2; stroke-linejoin: miter"/>
   </g>
   <g id="patch_94">
    <path d="M 515.489459 242.175204 
L 519.292172 242.175204 
L 519.292172 168.375496 
L 515.489459 168.375496 
z
" clip-path="url(#p21017ed283)" style="fill: url(#he84a2efa5a); stroke: #ff7f0e; stroke-width: 2; stroke-linejoin: miter"/>
   </g>
   <g id="patch_95">
    <path d="M 519.963238 242.175204 
L 523.765951 242.175204 
L 523.765951 168.125891 
L 519.963238 168.125891 
z
" clip-path="url(#p21017ed283)" style="fill: url(#he84a2efa5a); stroke: #ff7f0e; stroke-width: 2; stroke-linejoin: miter"/>
   </g>
   <g id="patch_96">
    <path d="M 524.437018 242.175204 
L 528.239731 242.175204 
L 528.239731 168.125891 
L 524.437018 168.125891 
z
" clip-path="url(#p21017ed283)" style="fill: url(#he84a2efa5a); stroke: #ff7f0e; stroke-width: 2; stroke-linejoin: miter"/>
   </g>
   <g id="patch_97">
    <path d="M 528.910798 242.175204 
L 532.71351 242.175204 
L 532.71351 167.834686 
L 528.910798 167.834686 
z
" clip-path="url(#p21017ed283)" style="fill: url(#he84a2efa5a); stroke: #ff7f0e; stroke-width: 2; stroke-linejoin: miter"/>
   </g>
   <g id="patch_98">
    <path d="M 533.384577 242.175204 
L 537.18729 242.175204 
L 537.18729 167.709884 
L 533.384577 167.709884 
z
" clip-path="url(#p21017ed283)" style="fill: url(#he84a2efa5a); stroke: #ff7f0e; stroke-width: 2; stroke-linejoin: miter"/>
   </g>
   <g id="patch_99">
    <path d="M 537.858357 242.175204 
L 541.66107 242.175204 
L 541.66107 167.50188 
L 537.858357 167.50188 
z
" clip-path="url(#p21017ed283)" style="fill: url(#he84a2efa5a); stroke: #ff7f0e; stroke-width: 2; stroke-linejoin: miter"/>
   </g>
   <g id="patch_100">
    <path d="M 542.332137 242.175204 
L 546.134849 242.175204 
L 546.134849 167.50188 
L 542.332137 167.50188 
z
" clip-path="url(#p21017ed283)" style="fill: url(#he84a2efa5a); stroke: #ff7f0e; stroke-width: 2; stroke-linejoin: miter"/>
   </g>
   <g id="patch_101">
    <path d="M 546.805916 242.175204 
L 550.608629 242.175204 
L 550.608629 167.169074 
L 546.805916 167.169074 
z
" clip-path="url(#p21017ed283)" style="fill: url(#he84a2efa5a); stroke: #ff7f0e; stroke-width: 2; stroke-linejoin: miter"/>
   </g>
   <g id="patch_102">
    <path d="M 551.279696 242.175204 
L 555.082409 242.175204 
L 555.082409 167.085873 
L 551.279696 167.085873 
z
" clip-path="url(#p21017ed283)" style="fill: url(#he84a2efa5a); stroke: #ff7f0e; stroke-width: 2; stroke-linejoin: miter"/>
   </g>
   <g id="patch_103">
    <path d="M 555.753476 242.175204 
L 559.556188 242.175204 
L 559.556188 166.503462 
L 555.753476 166.503462 
z
" clip-path="url(#p21017ed283)" style="fill: url(#he84a2efa5a); stroke: #ff7f0e; stroke-width: 2; stroke-linejoin: miter"/>
   </g>
   <g id="patch_104">
    <path d="M 560.227255 242.175204 
L 564.029968 242.175204 
L 564.029968 166.253858 
L 560.227255 166.253858 
z
" clip-path="url(#p21017ed283)" style="fill: url(#he84a2efa5a); stroke: #ff7f0e; stroke-width: 2; stroke-linejoin: miter"/>
   </g>
   <g id="patch_105">
    <path d="M 564.701035 242.175204 
L 568.503748 242.175204 
L 568.503748 166.045854 
L 564.701035 166.045854 
z
" clip-path="url(#p21017ed283)" style="fill: url(#he84a2efa5a); stroke: #ff7f0e; stroke-width: 2; stroke-linejoin: miter"/>
   </g>
   <g id="patch_106">
    <path d="M 569.174815 242.175204 
L 572.977527 242.175204 
L 572.977527 165.962653 
L 569.174815 165.962653 
z
" clip-path="url(#p21017ed283)" style="fill: url(#he84a2efa5a); stroke: #ff7f0e; stroke-width: 2; stroke-linejoin: miter"/>
   </g>
   <g id="patch_107">
    <path d="M 573.648594 242.175204 
L 577.451307 242.175204 
L 577.451307 165.879451 
L 573.648594 165.879451 
z
" clip-path="url(#p21017ed283)" style="fill: url(#he84a2efa5a); stroke: #ff7f0e; stroke-width: 2; stroke-linejoin: miter"/>
   </g>
   <g id="patch_108">
    <path d="M 578.122374 242.175204 
L 581.925087 242.175204 
L 581.925087 165.713048 
L 578.122374 165.713048 
z
" clip-path="url(#p21017ed283)" style="fill: url(#he84a2efa5a); stroke: #ff7f0e; stroke-width: 2; stroke-linejoin: miter"/>
   </g>
   <g id="patch_109">
    <path d="M 582.596153 242.175204 
L 586.398866 242.175204 
L 586.398866 165.505045 
L 582.596153 165.505045 
z
" clip-path="url(#p21017ed283)" style="fill: url(#he84a2efa5a); stroke: #ff7f0e; stroke-width: 2; stroke-linejoin: miter"/>
   </g>
   <g id="patch_110">
    <path d="M 587.069933 242.175204 
L 590.872646 242.175204 
L 590.872646 165.213839 
L 587.069933 165.213839 
z
" clip-path="url(#p21017ed283)" style="fill: url(#he84a2efa5a); stroke: #ff7f0e; stroke-width: 2; stroke-linejoin: miter"/>
   </g>
   <g id="patch_111">
    <path d="M 591.543713 242.175204 
L 595.346425 242.175204 
L 595.346425 164.964235 
L 591.543713 164.964235 
z
" clip-path="url(#p21017ed283)" style="fill: url(#he84a2efa5a); stroke: #ff7f0e; stroke-width: 2; stroke-linejoin: miter"/>
   </g>
   <g id="patch_112">
    <path d="M 596.017492 242.175204 
L 599.820205 242.175204 
L 599.820205 164.881034 
L 596.017492 164.881034 
z
" clip-path="url(#p21017ed283)" style="fill: url(#he84a2efa5a); stroke: #ff7f0e; stroke-width: 2; stroke-linejoin: miter"/>
   </g>
   <g id="patch_113">
    <path d="M 600.491272 242.175204 
L 604.293985 242.175204 
L 604.293985 164.465026 
L 600.491272 164.465026 
z
" clip-path="url(#p21017ed283)" style="fill: url(#he84a2efa5a); stroke: #ff7f0e; stroke-width: 2; stroke-linejoin: miter"/>
   </g>
   <g id="patch_114">
    <path d="M 604.965052 242.175204 
L 608.767764 242.175204 
L 608.767764 164.298623 
L 604.965052 164.298623 
z
" clip-path="url(#p21017ed283)" style="fill: url(#he84a2efa5a); stroke: #ff7f0e; stroke-width: 2; stroke-linejoin: miter"/>
   </g>
   <g id="patch_115">
    <path d="M 609.438831 242.175204 
L 613.241544 242.175204 
L 613.241544 163.674612 
L 609.438831 163.674612 
z
" clip-path="url(#p21017ed283)" style="fill: url(#he84a2efa5a); stroke: #ff7f0e; stroke-width: 2; stroke-linejoin: miter"/>
   </g>
   <g id="patch_116">
    <path d="M 613.912611 242.175204 
L 617.715324 242.175204 
L 617.715324 163.300206 
L 613.912611 163.300206 
z
" clip-path="url(#p21017ed283)" style="fill: url(#he84a2efa5a); stroke: #ff7f0e; stroke-width: 2; stroke-linejoin: miter"/>
   </g>
   <g id="patch_117">
    <path d="M 618.386391 242.175204 
L 622.189103 242.175204 
L 622.189103 163.050601 
L 618.386391 163.050601 
z
" clip-path="url(#p21017ed283)" style="fill: url(#he84a2efa5a); stroke: #ff7f0e; stroke-width: 2; stroke-linejoin: miter"/>
   </g>
   <g id="patch_118">
    <path d="M 622.86017 242.175204 
L 626.662883 242.175204 
L 626.662883 162.676194 
L 622.86017 162.676194 
z
" clip-path="url(#p21017ed283)" style="fill: url(#he84a2efa5a); stroke: #ff7f0e; stroke-width: 2; stroke-linejoin: miter"/>
   </g>
   <g id="patch_119">
    <path d="M 627.33395 242.175204 
L 631.136663 242.175204 
L 631.136663 162.052183 
L 627.33395 162.052183 
z
" clip-path="url(#p21017ed283)" style="fill: url(#he84a2efa5a); stroke: #ff7f0e; stroke-width: 2; stroke-linejoin: miter"/>
   </g>
   <g id="patch_120">
    <path d="M 631.80773 242.175204 
L 635.610442 242.175204 
L 635.610442 160.762561 
L 631.80773 160.762561 
z
" clip-path="url(#p21017ed283)" style="fill: url(#he84a2efa5a); stroke: #ff7f0e; stroke-width: 2; stroke-linejoin: miter"/>
   </g>
   <g id="patch_121">
    <path d="M 636.281509 242.175204 
L 640.084222 242.175204 
L 640.084222 145.578291 
L 636.281509 145.578291 
z
" clip-path="url(#p21017ed283)" style="fill: url(#he84a2efa5a); stroke: #ff7f0e; stroke-width: 2; stroke-linejoin: miter"/>
   </g>
   <g id="patch_122">
    <path d="M 640.755289 242.175204 
L 644.558001 242.175204 
L 644.558001 145.370288 
L 640.755289 145.370288 
z
" clip-path="url(#p21017ed283)" style="fill: url(#he84a2efa5a); stroke: #ff7f0e; stroke-width: 2; stroke-linejoin: miter"/>
   </g>
   <g id="patch_123">
    <path d="M 645.229068 242.175204 
L 649.031781 242.175204 
L 649.031781 138.547767 
L 645.229068 138.547767 
z
" clip-path="url(#p21017ed283)" style="fill: url(#he84a2efa5a); stroke: #ff7f0e; stroke-width: 2; stroke-linejoin: miter"/>
   </g>
   <g id="patch_124">
    <path d="M 649.702848 242.175204 
L 653.505561 242.175204 
L 653.505561 135.843719 
L 649.702848 135.843719 
z
" clip-path="url(#p21017ed283)" style="fill: url(#he84a2efa5a); stroke: #ff7f0e; stroke-width: 2; stroke-linejoin: miter"/>
   </g>
   <g id="patch_125">
    <path d="M 654.176628 242.175204 
L 657.97934 242.175204 
L 657.97934 128.147582 
L 654.176628 128.147582 
z
" clip-path="url(#p21017ed283)" style="fill: url(#he84a2efa5a); stroke: #ff7f0e; stroke-width: 2; stroke-linejoin: miter"/>
   </g>
   <g id="patch_126">
    <path d="M 658.650407 242.175204 
L 662.45312 242.175204 
L 662.45312 55.471093 
L 658.650407 55.471093 
z
" clip-path="url(#p21017ed283)" style="fill: url(#he84a2efa5a); stroke: #ff7f0e; stroke-width: 2; stroke-linejoin: miter"/>
   </g>
   <g id="patch_127">
    <path d="M 663.124187 242.175204 
L 666.9269 242.175204 
L 666.9269 51.061415 
L 663.124187 51.061415 
z
" clip-path="url(#p21017ed283)" style="fill: url(#he84a2efa5a); stroke: #ff7f0e; stroke-width: 2; stroke-linejoin: miter"/>
   </g>
   <g id="patch_128">
    <path d="M 667.597967 242.175204 
L 671.400679 242.175204 
L 671.400679 47.026144 
L 667.597967 47.026144 
z
" clip-path="url(#p21017ed283)" style="fill: url(#he84a2efa5a); stroke: #ff7f0e; stroke-width: 2; stroke-linejoin: miter"/>
   </g>
   <g id="patch_129">
    <path d="M 672.071746 242.175204 
L 675.874459 242.175204 
L 675.874459 45.278913 
L 672.071746 45.278913 
z
" clip-path="url(#p21017ed283)" style="fill: url(#he84a2efa5a); stroke: #ff7f0e; stroke-width: 2; stroke-linejoin: miter"/>
   </g>
   <g id="patch_130">
    <path d="M 676.545526 242.175204 
L 680.348239 242.175204 
L 680.348239 45.11251 
L 676.545526 45.11251 
z
" clip-path="url(#p21017ed283)" style="fill: url(#he84a2efa5a); stroke: #ff7f0e; stroke-width: 2; stroke-linejoin: miter"/>
   </g>
   <g id="line2d_23">
    <path d="M 79.776875 172.306765 
L 708.946875 172.306765 
" clip-path="url(#p21017ed283)" style="fill: none; stroke-dasharray: 4.44,1.92; stroke-dashoffset: 0; stroke: #f58518; stroke-width: 1.2"/>
   </g>
   <g id="patch_131">
    <path d="M 79.776875 242.175204 
L 79.776875 35.259375 
" style="fill: none; stroke: #808080; stroke-width: 0.8; stroke-linejoin: miter; stroke-linecap: square"/>
   </g>
   <g id="patch_132">
    <path d="M 79.776875 242.175204 
L 708.946875 242.175204 
" style="fill: none; stroke: #808080; stroke-width: 0.8; stroke-linejoin: miter; stroke-linecap: square"/>
   </g>
   <g id="text_21">
    <text style="font: 22px 'PingFang SC', 'Heiti SC', 'STHeiti', 'Calibri', 'Arial', 'Helvetica Neue', 'Arial Unicode MS', 'Noto Sans CJK SC', 'DejaVu Sans', sans-serif; text-anchor: middle" x="394.361875" y="29.259375" transform="rotate(-0 394.361875 29.259375)">排序条形 · Health power (W)</text>
   </g>
   <g id="legend_1">
    <g id="patch_133">
     <path d="M 88.176875 62.019375 
L 208.95875 62.019375 
Q 211.35875 62.019375 211.35875 59.619375 
L 211.35875 43.659375 
Q 211.35875 41.259375 208.95875 41.259375 
L 88.176875 41.259375 
Q 85.776875 41.259375 85.776875 43.659375 
L 85.776875 59.619375 
Q 85.776875 62.019375 88.176875 62.019375 
z
" style="fill: #ffffff; opacity: 0.5; stroke: #cccccc; stroke-linejoin: miter"/>
    </g>
    <g id="line2d_24">
     <path d="M 90.576875 51.410625 
L 102.576875 51.410625 
L 114.576875 51.410625 
" style="fill: none; stroke-dasharray: 4.44,1.92; stroke-dashoffset: 0; stroke: #f58518; stroke-width: 1.2"/>
    </g>
    <g id="text_22">
     <text style="font: 12px 'PingFang SC', 'Heiti SC', 'STHeiti', 'Calibri', 'Arial', 'Helvetica Neue', 'Arial Unicode MS', 'Noto Sans CJK SC', 'DejaVu Sans', sans-serif; text-anchor: start" x="124.176875" y="55.610625" transform="rotate(-0 124.176875 55.610625)">median=167.9</text>
    </g>
   </g>
  </g>
 </g>
 <defs>
  <clipPath id="p21017ed283">
   <rect x="79.776875" y="35.259375" width="629.17" height="206.915829"/>
  </clipPath>
 </defs>
 <defs>
  <pattern id="h9824475803" patternUnits="userSpaceOnUse" x="0" y="0" width="72" height="72">
   <rect x="0" y="0" width="73" height="73" fill="none"/>
   <path d="M -36 36 
L 36 -36 
M -30 42 
L 42 -30 
M -24 48 
L 48 -24 
M -18 54 
L 54 -18 
M -12 60 
L 60 -12 
M -6 66 
L 66 -6 
M 0 72 
L 72 0 
M 6 78 
L 78 6 
M 12 84 
L 84 12 
M 18 90 
L 90 18 
M 24 96 
L 96 24 
M 30 102 
L 102 30 
M 36 108 
L 108 36 
M -36 36 
L 36 108 
M -30 30 
L 42 102 
M -24 24 
L 48 96 
M -18 18 
L 54 90 
M -12 12 
L 60 84 
M -6 6 
L 66 78 
M 0 0 
L 72 72 
M 6 -6 
L 78 66 
M 12 -12 
L 84 60 
M 18 -18 
L 90 54 
M 24 -24 
L 96 48 
M 30 -30 
L 102 42 
M 36 -36 
L 108 36 
" style="fill: #2ca02c; stroke: #2ca02c; stroke-width: 1.0; stroke-linecap: butt; stroke-linejoin: miter"/>
  </pattern>
  <pattern id="he84a2efa5a" patternUnits="userSpaceOnUse" x="0" y="0" width="72" height="72">
   <rect x="0" y="0" width="73" height="73" fill="none"/>
   <path d="M -36 36 
L 36 -36 
M -30 42 
L 42 -30 
M -24 48 
L 48 -24 
M -18 54 
L 54 -18 
M -12 60 
L 60 -12 
M -6 66 
L 66 -6 
M 0 72 
L 72 0 
M 6 78 
L 78 6 
M 12 84 
L 84 12 
M 18 90 
L 90 18 
M 24 96 
L 96 24 
M 30 102 
L 102 30 
M 36 108 
L 108 36 
" style="fill: #ff7f0e; stroke: #ff7f0e; stroke-width: 1.0; stroke-linecap: butt; stroke-linejoin: miter"/>
  </pattern>
 </defs>
</svg>
