<?xml version="1.0" encoding="utf-8" standalone="no"?>
<!DOCTYPE svg PUBLIC "-//W3C//DTD SVG 1.1//EN"
  "http://www.w3.org/Graphics/SVG/1.1/DTD/svg11.dtd">
<svg xmlns:xlink="http://www.w3.org/1999/xlink" width="719.745pt" height="306.999722pt" viewBox="0 0 719.745 306.999722" xmlns="http://www.w3.org/2000/svg" version="1.1">
 <metadata>
  <rdf:RDF xmlns:dc="http://purl.org/dc/elements/1.1/" xmlns:cc="http://creativecommons.org/ns#" xmlns:rdf="http://www.w3.org/1999/02/22-rdf-syntax-ns#">
   <cc:Work>
    <dc:type rdf:resource="http://purl.org/dc/dcmitype/StillImage"/>
    <dc:date>2026-07-11T20:14:12.450950</dc:date>
    <dc:format>image/svg+xml</dc:format>
    <dc:creator>
     <cc:Agent>
      <dc:title>Matplotlib v3.9.4, https://matplotlib.org/</dc:title>
     </cc:Agent>
    </dc:creator>
   </cc:Work>
  </rdf:RDF>
 </metadata>
 <defs>
  <style type="text/css">*{stroke-linejoin: round; stroke-linecap: butt}</style>
 </defs>
 <g id="figure_1">
  <g id="patch_1">
   <path d="M 0 306.999722 
L 719.745 306.999722 
L 719.745 0 
L 0 0 
z
" style="fill: #ffffff"/>
  </g>
  <g id="axes_1">
   <g id="patch_2">
    <path d="M 67.5875 242.142728 
L 708.945 242.142728 
L 708.945 35.259375 
L 67.5875 35.259375 
z
" style="fill: #ffffff"/>
   </g>
   <g id="matplotlib.axis_1">
    <g id="xtick_1">
     <g id="line2d_1">
      <defs>
       <path id="m944c36c72a" d="M 0 0 
L 0 3.5 
" style="stroke: #808080; stroke-width: 0.8"/>
      </defs>
      <g>
       <use xlink:href="#m944c36c72a" x="98.678301" y="242.142728" style="fill: #808080; stroke: #808080; stroke-width: 0.8"/>
      </g>
     </g>
     <g id="text_1">
      <text style="fill: #808080; font: 8px 'PingFang SC', 'Heiti SC', 'STHeiti', 'Calibri', 'Arial', 'Helvetica Neue', 'Arial Unicode MS', 'Noto Sans CJK SC', 'DejaVu Sans', sans-serif" transform="translate(72.965113 295.254275) rotate(-60)">worker-1:d14</text>
     </g>
    </g>
    <g id="xtick_2">
     <g id="line2d_2">
      <g>
       <use xlink:href="#m944c36c72a" x="135.161822" y="242.142728" style="fill: #808080; stroke: #808080; stroke-width: 0.8"/>
      </g>
     </g>
     <g id="text_2">
      <text style="fill: #808080; font: 8px 'PingFang SC', 'Heiti SC', 'STHeiti', 'Calibri', 'Arial', 'Helvetica Neue', 'Arial Unicode MS', 'Noto Sans CJK SC', 'DejaVu Sans', sans-serif" transform="translate(111.664885 291.415617) rotate(-60)">worker-6:d8</text>
     </g>
    </g>
    <g id="xtick_3">
     <g id="line2d_3">
      <g>
       <use xlink:href="#m944c36c72a" x="171.645343" y="242.142728" style="fill: #808080; stroke: #808080; stroke-width: 0.8"/>
      </g>
     </g>
     <g id="text_3">
      <text style="fill: #808080; font: 8px 'PingFang SC', 'Heiti SC', 'STHeiti', 'Calibri', 'Arial', 'Helvetica Neue', 'Arial Unicode MS', 'Noto Sans CJK SC', 'DejaVu Sans', sans-serif" transform="translate(145.932156 295.254275) rotate(-60)">worker-1:d13</text>
     </g>
    </g>
    <g id="xtick_4">
     <g id="line2d_4">
      <g>
       <use xlink:href="#m944c36c72a" x="208.128864" y="242.142728" style="fill: #808080; stroke: #808080; stroke-width: 0.8"/>
      </g>
     </g>
     <g id="text_4">
      <text style="fill: #808080; font: 8px 'PingFang SC', 'Heiti SC', 'STHeiti', 'Calibri', 'Arial', 'Helvetica Neue', 'Arial Unicode MS', 'Noto Sans CJK SC', 'DejaVu Sans', sans-serif" transform="translate(182.415677 295.254275) rotate(-60)">worker-4:d10</text>
     </g>
    </g>
    <g id="xtick_5">
     <g id="line2d_5">
      <g>
       <use xlink:href="#m944c36c72a" x="244.612385" y="242.142728" style="fill: #808080; stroke: #808080; stroke-width: 0.8"/>
      </g>
     </g>
     <g id="text_5">
      <text style="fill: #808080; font: 8px 'PingFang SC', 'Heiti SC', 'STHeiti', 'Calibri', 'Arial', 'Helvetica Neue', 'Arial Unicode MS', 'Noto Sans CJK SC', 'DejaVu Sans', sans-serif" transform="translate(218.899198 295.254275) rotate(-60)">worker-3:d12</text>
     </g>
    </g>
    <g id="xtick_6">
     <g id="line2d_6">
      <g>
       <use xlink:href="#m944c36c72a" x="281.095907" y="242.142728" style="fill: #808080; stroke: #808080; stroke-width: 0.8"/>
      </g>
     </g>
     <g id="text_6">
      <text style="fill: #808080; font: 8px 'PingFang SC', 'Heiti SC', 'STHeiti', 'Calibri', 'Arial', 'Helvetica Neue', 'Arial Unicode MS', 'Noto Sans CJK SC', 'DejaVu Sans', sans-serif" transform="translate(255.382719 295.254275) rotate(-60)">worker-2:d12</text>
     </g>
    </g>
    <g id="xtick_7">
     <g id="line2d_7">
      <g>
       <use xlink:href="#m944c36c72a" x="317.579428" y="242.142728" style="fill: #808080; stroke: #808080; stroke-width: 0.8"/>
      </g>
     </g>
     <g id="text_7">
      <text style="fill: #808080; font: 8px 'PingFang SC', 'Heiti SC', 'STHeiti', 'Calibri', 'Arial', 'Helvetica Neue', 'Arial Unicode MS', 'Noto Sans CJK SC', 'DejaVu Sans', sans-serif" transform="translate(294.08249 291.415617) rotate(-60)">worker-5:d7</text>
     </g>
    </g>
    <g id="xtick_8">
     <g id="line2d_8">
      <g>
       <use xlink:href="#m944c36c72a" x="354.062949" y="242.142728" style="fill: #808080; stroke: #808080; stroke-width: 0.8"/>
      </g>
     </g>
     <g id="text_8">
      <text style="fill: #808080; font: 8px 'PingFang SC', 'Heiti SC', 'STHeiti', 'Calibri', 'Arial', 'Helvetica Neue', 'Arial Unicode MS', 'Noto Sans CJK SC', 'DejaVu Sans', sans-serif" transform="translate(330.566012 291.415617) rotate(-60)">worker-0:d1</text>
     </g>
    </g>
    <g id="xtick_9">
     <g id="line2d_9">
      <g>
       <use xlink:href="#m944c36c72a" x="390.54647" y="242.142728" style="fill: #808080; stroke: #808080; stroke-width: 0.8"/>
      </g>
     </g>
     <g id="text_9">
      <text style="fill: #808080; font: 8px 'PingFang SC', 'Heiti SC', 'STHeiti', 'Calibri', 'Arial', 'Helvetica Neue', 'Arial Unicode MS', 'Noto Sans CJK SC', 'DejaVu Sans', sans-serif" transform="translate(364.833283 295.254275) rotate(-60)">worker-0:d10</text>
     </g>
    </g>
    <g id="xtick_10">
     <g id="line2d_10">
      <g>
       <use xlink:href="#m944c36c72a" x="427.029991" y="242.142728" style="fill: #808080; stroke: #808080; stroke-width: 0.8"/>
      </g>
     </g>
     <g id="text_10">
      <text style="fill: #808080; font: 8px 'PingFang SC', 'Heiti SC', 'STHeiti', 'Calibri', 'Arial', 'Helvetica Neue', 'Arial Unicode MS', 'Noto Sans CJK SC', 'DejaVu Sans', sans-serif" transform="translate(403.533054 291.415617) rotate(-60)">worker-6:d6</text>
     </g>
    </g>
    <g id="xtick_11">
     <g id="line2d_11">
      <g>
       <use xlink:href="#m944c36c72a" x="463.513512" y="242.142728" style="fill: #808080; stroke: #808080; stroke-width: 0.8"/>
      </g>
     </g>
     <g id="text_11">
      <text style="fill: #808080; font: 8px 'PingFang SC', 'Heiti SC', 'STHeiti', 'Calibri', 'Arial', 'Helvetica Neue', 'Arial Unicode MS', 'Noto Sans CJK SC', 'DejaVu Sans', sans-serif" transform="translate(440.016575 291.415617) rotate(-60)">worker-1:d2</text>
     </g>
    </g>
    <g id="xtick_12">
     <g id="line2d_12">
      <g>
       <use xlink:href="#m944c36c72a" x="499.997034" y="242.142728" style="fill: #808080; stroke: #808080; stroke-width: 0.8"/>
      </g>
     </g>
     <g id="text_12">
      <text style="fill: #808080; font: 8px 'PingFang SC', 'Heiti SC', 'STHeiti', 'Calibri', 'Arial', 'Helvetica Neue', 'Arial Unicode MS', 'Noto Sans CJK SC', 'DejaVu Sans', sans-serif" transform="translate(476.263846 291.824814) rotate(-60)">master-0:d3</text>
     </g>
    </g>
    <g id="xtick_13">
     <g id="line2d_13">
      <g>
       <use xlink:href="#m944c36c72a" x="536.480555" y="242.142728" style="fill: #808080; stroke: #808080; stroke-width: 0.8"/>
      </g>
     </g>
     <g id="text_13">
      <text style="fill: #808080; font: 8px 'PingFang SC', 'Heiti SC', 'STHeiti', 'Calibri', 'Arial', 'Helvetica Neue', 'Arial Unicode MS', 'Noto Sans CJK SC', 'DejaVu Sans', sans-serif" transform="translate(512.983618 291.415617) rotate(-60)">worker-3:d0</text>
     </g>
    </g>
    <g id="xtick_14">
     <g id="line2d_14">
      <g>
       <use xlink:href="#m944c36c72a" x="572.964076" y="242.142728" style="fill: #808080; stroke: #808080; stroke-width: 0.8"/>
      </g>
     </g>
     <g id="text_14">
      <text style="fill: #808080; font: 8px 'PingFang SC', 'Heiti SC', 'STHeiti', 'Calibri', 'Arial', 'Helvetica Neue', 'Arial Unicode MS', 'Noto Sans CJK SC', 'DejaVu Sans', sans-serif" transform="translate(549.467139 291.415617) rotate(-60)">worker-2:d3</text>
     </g>
    </g>
    <g id="xtick_15">
     <g id="line2d_15">
      <g>
       <use xlink:href="#m944c36c72a" x="609.447597" y="242.142728" style="fill: #808080; stroke: #808080; stroke-width: 0.8"/>
      </g>
     </g>
     <g id="text_15">
      <text style="fill: #808080; font: 8px 'PingFang SC', 'Heiti SC', 'STHeiti', 'Calibri', 'Arial', 'Helvetica Neue', 'Arial Unicode MS', 'Noto Sans CJK SC', 'DejaVu Sans', sans-serif" transform="translate(585.95066 291.415617) rotate(-60)">worker-6:d1</text>
     </g>
    </g>
    <g id="xtick_16">
     <g id="line2d_16">
      <g>
       <use xlink:href="#m944c36c72a" x="645.931118" y="242.142728" style="fill: #808080; stroke: #808080; stroke-width: 0.8"/>
      </g>
     </g>
     <g id="text_16">
      <text style="fill: #808080; font: 8px 'PingFang SC', 'Heiti SC', 'STHeiti', 'Calibri', 'Arial', 'Helvetica Neue', 'Arial Unicode MS', 'Noto Sans CJK SC', 'DejaVu Sans', sans-serif" transform="translate(619.981681 295.663472) rotate(-60)">master-0:d10</text>
     </g>
    </g>
   </g>
   <g id="matplotlib.axis_2">
    <g id="ytick_1">
     <g id="line2d_17">
      <path d="M 67.5875 242.142728 
L 708.945 242.142728 
" clip-path="url(#pe3b76f7a1f)" style="fill: none; stroke-dasharray: 1,1.65; stroke-dashoffset: 0; stroke: #808080; stroke-opacity: 0.55"/>
     </g>
     <g id="line2d_18">
      <defs>
       <path id="mcacb524eaa" d="M 0 0 
L -3.5 0 
" style="stroke: #808080; stroke-width: 0.8"/>
      </defs>
      <g>
       <use xlink:href="#mcacb524eaa" x="67.5875" y="242.142728" style="fill: #808080; stroke: #808080; stroke-width: 0.8"/>
      </g>
     </g>
     <g id="text_17">
      <text style="fill: #808080; font: 22px 'PingFang SC', 'Heiti SC', 'STHeiti', 'Calibri', 'Arial', 'Helvetica Neue', 'Arial Unicode MS', 'Noto Sans CJK SC', 'DejaVu Sans', sans-serif; text-anchor: end" x="60.5875" y="250.898041" transform="rotate(-0 60.5875 250.898041)">0</text>
     </g>
    </g>
    <g id="ytick_2">
     <g id="line2d_19">
      <path d="M 67.5875 150.500047 
L 708.945 150.500047 
" clip-path="url(#pe3b76f7a1f)" style="fill: none; stroke-dasharray: 1,1.65; stroke-dashoffset: 0; stroke: #808080; stroke-opacity: 0.55"/>
     </g>
     <g id="line2d_20">
      <g>
       <use xlink:href="#mcacb524eaa" x="67.5875" y="150.500047" style="fill: #808080; stroke: #808080; stroke-width: 0.8"/>
      </g>
     </g>
     <g id="text_18">
      <text style="fill: #808080; font: 22px 'PingFang SC', 'Heiti SC', 'STHeiti', 'Calibri', 'Arial', 'Helvetica Neue', 'Arial Unicode MS', 'Noto Sans CJK SC', 'DejaVu Sans', sans-serif; text-anchor: end" x="60.5875" y="159.255359" transform="rotate(-0 60.5875 159.255359)">20</text>
     </g>
    </g>
    <g id="ytick_3">
     <g id="line2d_21">
      <path d="M 67.5875 58.857365 
L 708.945 58.857365 
" clip-path="url(#pe3b76f7a1f)" style="fill: none; stroke-dasharray: 1,1.65; stroke-dashoffset: 0; stroke: #808080; stroke-opacity: 0.55"/>
     </g>
     <g id="line2d_22">
      <g>
       <use xlink:href="#mcacb524eaa" x="67.5875" y="58.857365" style="fill: #808080; stroke: #808080; stroke-width: 0.8"/>
      </g>
     </g>
     <g id="text_19">
      <text style="fill: #808080; font: 22px 'PingFang SC', 'Heiti SC', 'STHeiti', 'Calibri', 'Arial', 'Helvetica Neue', 'Arial Unicode MS', 'Noto Sans CJK SC', 'DejaVu Sans', sans-serif; text-anchor: end" x="60.5875" y="67.612678" transform="rotate(-0 60.5875 67.612678)">40</text>
     </g>
    </g>
    <g id="text_20">
     <text style="font: 22px 'PingFang SC', 'Heiti SC', 'STHeiti', 'Calibri', 'Arial', 'Helvetica Neue', 'Arial Unicode MS', 'Noto Sans CJK SC', 'DejaVu Sans', sans-serif; text-anchor: middle" x="29.259375" y="138.701052" transform="rotate(-90 29.259375 138.701052)">Health temp (C)</text>
    </g>
   </g>
   <g id="patch_3">
    <path d="M 96.740114 242.142728 
L 100.616488 242.142728 
L 100.616488 68.021634 
L 96.740114 68.021634 
z
" clip-path="url(#pe3b76f7a1f)" style="fill: url(#h754c734124); stroke: #2ca02c; stroke-width: 2; stroke-linejoin: miter"/>
   </g>
   <g id="patch_4">
    <path d="M 101.300554 242.142728 
L 105.176928 242.142728 
L 105.176928 63.4395 
L 101.300554 63.4395 
z
" clip-path="url(#pe3b76f7a1f)" style="fill: url(#h754c734124); stroke: #2ca02c; stroke-width: 2; stroke-linejoin: miter"/>
   </g>
   <g id="patch_5">
    <path d="M 105.860994 242.142728 
L 109.737368 242.142728 
L 109.737368 63.4395 
L 105.860994 63.4395 
z
" clip-path="url(#pe3b76f7a1f)" style="fill: url(#h754c734124); stroke: #2ca02c; stroke-width: 2; stroke-linejoin: miter"/>
   </g>
   <g id="patch_6">
    <path d="M 110.421434 242.142728 
L 114.297808 242.142728 
L 114.297808 63.4395 
L 110.421434 63.4395 
z
" clip-path="url(#pe3b76f7a1f)" style="fill: url(#h754c734124); stroke: #2ca02c; stroke-width: 2; stroke-linejoin: miter"/>
   </g>
   <g id="patch_7">
    <path d="M 114.981874 242.142728 
L 118.858248 242.142728 
L 118.858248 63.4395 
L 114.981874 63.4395 
z
" clip-path="url(#pe3b76f7a1f)" style="fill: url(#h754c734124); stroke: #2ca02c; stroke-width: 2; stroke-linejoin: miter"/>
   </g>
   <g id="patch_8">
    <path d="M 119.542314 242.142728 
L 123.418688 242.142728 
L 123.418688 63.4395 
L 119.542314 63.4395 
z
" clip-path="url(#pe3b76f7a1f)" style="fill: url(#h754c734124); stroke: #2ca02c; stroke-width: 2; stroke-linejoin: miter"/>
   </g>
   <g id="patch_9">
    <path d="M 124.102755 242.142728 
L 127.979129 242.142728 
L 127.979129 63.4395 
L 124.102755 63.4395 
z
" clip-path="url(#pe3b76f7a1f)" style="fill: url(#h754c734124); stroke: #2ca02c; stroke-width: 2; stroke-linejoin: miter"/>
   </g>
   <g id="patch_10">
    <path d="M 128.663195 242.142728 
L 132.539569 242.142728 
L 132.539569 63.4395 
L 128.663195 63.4395 
z
" clip-path="url(#pe3b76f7a1f)" style="fill: url(#h754c734124); stroke: #2ca02c; stroke-width: 2; stroke-linejoin: miter"/>
   </g>
   <g id="patch_11">
    <path d="M 133.223635 242.142728 
L 137.100009 242.142728 
L 137.100009 63.4395 
L 133.223635 63.4395 
z
" clip-path="url(#pe3b76f7a1f)" style="fill: url(#h754c734124); stroke: #2ca02c; stroke-width: 2; stroke-linejoin: miter"/>
   </g>
   <g id="patch_12">
    <path d="M 137.784075 242.142728 
L 141.660449 242.142728 
L 141.660449 63.4395 
L 137.784075 63.4395 
z
" clip-path="url(#pe3b76f7a1f)" style="fill: url(#h754c734124); stroke: #2ca02c; stroke-width: 2; stroke-linejoin: miter"/>
   </g>
   <g id="patch_13">
    <path d="M 142.344515 242.142728 
L 146.220889 242.142728 
L 146.220889 63.4395 
L 142.344515 63.4395 
z
" clip-path="url(#pe3b76f7a1f)" style="fill: url(#h754c734124); stroke: #2ca02c; stroke-width: 2; stroke-linejoin: miter"/>
   </g>
   <g id="patch_14">
    <path d="M 146.904955 242.142728 
L 150.781329 242.142728 
L 150.781329 63.4395 
L 146.904955 63.4395 
z
" clip-path="url(#pe3b76f7a1f)" style="fill: url(#h754c734124); stroke: #2ca02c; stroke-width: 2; stroke-linejoin: miter"/>
   </g>
   <g id="patch_15">
    <path d="M 151.465395 242.142728 
L 155.34177 242.142728 
L 155.34177 63.4395 
L 151.465395 63.4395 
z
" clip-path="url(#pe3b76f7a1f)" style="fill: url(#h754c734124); stroke: #2ca02c; stroke-width: 2; stroke-linejoin: miter"/>
   </g>
   <g id="patch_16">
    <path d="M 156.025836 242.142728 
L 159.90221 242.142728 
L 159.90221 63.4395 
L 156.025836 63.4395 
z
" clip-path="url(#pe3b76f7a1f)" style="fill: url(#h754c734124); stroke: #2ca02c; stroke-width: 2; stroke-linejoin: miter"/>
   </g>
   <g id="patch_17">
    <path d="M 160.586276 242.142728 
L 164.46265 242.142728 
L 164.46265 63.4395 
L 160.586276 63.4395 
z
" clip-path="url(#pe3b76f7a1f)" style="fill: url(#h754c734124); stroke: #2ca02c; stroke-width: 2; stroke-linejoin: miter"/>
   </g>
   <g id="patch_18">
    <path d="M 165.146716 242.142728 
L 169.02309 242.142728 
L 169.02309 63.4395 
L 165.146716 63.4395 
z
" clip-path="url(#pe3b76f7a1f)" style="fill: url(#h754c734124); stroke: #2ca02c; stroke-width: 2; stroke-linejoin: miter"/>
   </g>
   <g id="patch_19">
    <path d="M 169.707156 242.142728 
L 173.58353 242.142728 
L 173.58353 63.4395 
L 169.707156 63.4395 
z
" clip-path="url(#pe3b76f7a1f)" style="fill: url(#h754c734124); stroke: #2ca02c; stroke-width: 2; stroke-linejoin: miter"/>
   </g>
   <g id="patch_20">
    <path d="M 174.267596 242.142728 
L 178.14397 242.142728 
L 178.14397 63.4395 
L 174.267596 63.4395 
z
" clip-path="url(#pe3b76f7a1f)" style="fill: url(#h754c734124); stroke: #2ca02c; stroke-width: 2; stroke-linejoin: miter"/>
   </g>
   <g id="patch_21">
    <path d="M 178.828036 242.142728 
L 182.70441 242.142728 
L 182.70441 63.4395 
L 178.828036 63.4395 
z
" clip-path="url(#pe3b76f7a1f)" style="fill: url(#h754c734124); stroke: #2ca02c; stroke-width: 2; stroke-linejoin: miter"/>
   </g>
   <g id="patch_22">
    <path d="M 183.388476 242.142728 
L 187.264851 242.142728 
L 187.264851 58.857365 
L 183.388476 58.857365 
z
" clip-path="url(#pe3b76f7a1f)" style="fill: url(#ha6bbc21765); stroke: #ff7f0e; stroke-width: 2; stroke-linejoin: miter"/>
   </g>
   <g id="patch_23">
    <path d="M 187.948917 242.142728 
L 191.825291 242.142728 
L 191.825291 58.857365 
L 187.948917 58.857365 
z
" clip-path="url(#pe3b76f7a1f)" style="fill: url(#ha6bbc21765); stroke: #ff7f0e; stroke-width: 2; stroke-linejoin: miter"/>
   </g>
   <g id="patch_24">
    <path d="M 192.509357 242.142728 
L 196.385731 242.142728 
L 196.385731 58.857365 
L 192.509357 58.857365 
z
" clip-path="url(#pe3b76f7a1f)" style="fill: url(#ha6bbc21765); stroke: #ff7f0e; stroke-width: 2; stroke-linejoin: miter"/>
   </g>
   <g id="patch_25">
    <path d="M 197.069797 242.142728 
L 200.946171 242.142728 
L 200.946171 58.857365 
L 197.069797 58.857365 
z
" clip-path="url(#pe3b76f7a1f)" style="fill: url(#ha6bbc21765); stroke: #ff7f0e; stroke-width: 2; stroke-linejoin: miter"/>
   </g>
   <g id="patch_26">
    <path d="M 201.630237 242.142728 
L 205.506611 242.142728 
L 205.506611 58.857365 
L 201.630237 58.857365 
z
" clip-path="url(#pe3b76f7a1f)" style="fill: url(#ha6bbc21765); stroke: #ff7f0e; stroke-width: 2; stroke-linejoin: miter"/>
   </g>
   <g id="patch_27">
    <path d="M 206.190677 242.142728 
L 210.067051 242.142728 
L 210.067051 58.857365 
L 206.190677 58.857365 
z
" clip-path="url(#pe3b76f7a1f)" style="fill: url(#ha6bbc21765); stroke: #ff7f0e; stroke-width: 2; stroke-linejoin: miter"/>
   </g>
   <g id="patch_28">
    <path d="M 210.751117 242.142728 
L 214.627491 242.142728 
L 214.627491 58.857365 
L 210.751117 58.857365 
z
" clip-path="url(#pe3b76f7a1f)" style="fill: url(#ha6bbc21765); stroke: #ff7f0e; stroke-width: 2; stroke-linejoin: miter"/>
   </g>
   <g id="patch_29">
    <path d="M 215.311557 242.142728 
L 219.187932 242.142728 
L 219.187932 58.857365 
L 215.311557 58.857365 
z
" clip-path="url(#pe3b76f7a1f)" style="fill: url(#ha6bbc21765); stroke: #ff7f0e; stroke-width: 2; stroke-linejoin: miter"/>
   </g>
   <g id="patch_30">
    <path d="M 219.871998 242.142728 
L 223.748372 242.142728 
L 223.748372 58.857365 
L 219.871998 58.857365 
z
" clip-path="url(#pe3b76f7a1f)" style="fill: url(#ha6bbc21765); stroke: #ff7f0e; stroke-width: 2; stroke-linejoin: miter"/>
   </g>
   <g id="patch_31">
    <path d="M 224.432438 242.142728 
L 228.308812 242.142728 
L 228.308812 58.857365 
L 224.432438 58.857365 
z
" clip-path="url(#pe3b76f7a1f)" style="fill: url(#ha6bbc21765); stroke: #ff7f0e; stroke-width: 2; stroke-linejoin: miter"/>
   </g>
   <g id="patch_32">
    <path d="M 228.992878 242.142728 
L 232.869252 242.142728 
L 232.869252 58.857365 
L 228.992878 58.857365 
z
" clip-path="url(#pe3b76f7a1f)" style="fill: url(#ha6bbc21765); stroke: #ff7f0e; stroke-width: 2; stroke-linejoin: miter"/>
   </g>
   <g id="patch_33">
    <path d="M 233.553318 242.142728 
L 237.429692 242.142728 
L 237.429692 58.857365 
L 233.553318 58.857365 
z
" clip-path="url(#pe3b76f7a1f)" style="fill: url(#ha6bbc21765); stroke: #ff7f0e; stroke-width: 2; stroke-linejoin: miter"/>
   </g>
   <g id="patch_34">
    <path d="M 238.113758 242.142728 
L 241.990132 242.142728 
L 241.990132 58.857365 
L 238.113758 58.857365 
z
" clip-path="url(#pe3b76f7a1f)" style="fill: url(#ha6bbc21765); stroke: #ff7f0e; stroke-width: 2; stroke-linejoin: miter"/>
   </g>
   <g id="patch_35">
    <path d="M 242.674198 242.142728 
L 246.550572 242.142728 
L 246.550572 58.857365 
L 242.674198 58.857365 
z
" clip-path="url(#pe3b76f7a1f)" style="fill: url(#ha6bbc21765); stroke: #ff7f0e; stroke-width: 2; stroke-linejoin: miter"/>
   </g>
   <g id="patch_36">
    <path d="M 247.234638 242.142728 
L 251.111013 242.142728 
L 251.111013 58.857365 
L 247.234638 58.857365 
z
" clip-path="url(#pe3b76f7a1f)" style="fill: url(#ha6bbc21765); stroke: #ff7f0e; stroke-width: 2; stroke-linejoin: miter"/>
   </g>
   <g id="patch_37">
    <path d="M 251.795079 242.142728 
L 255.671453 242.142728 
L 255.671453 58.857365 
L 251.795079 58.857365 
z
" clip-path="url(#pe3b76f7a1f)" style="fill: url(#ha6bbc21765); stroke: #ff7f0e; stroke-width: 2; stroke-linejoin: miter"/>
   </g>
   <g id="patch_38">
    <path d="M 256.355519 242.142728 
L 260.231893 242.142728 
L 260.231893 58.857365 
L 256.355519 58.857365 
z
" clip-path="url(#pe3b76f7a1f)" style="fill: url(#ha6bbc21765); stroke: #ff7f0e; stroke-width: 2; stroke-linejoin: miter"/>
   </g>
   <g id="patch_39">
    <path d="M 260.915959 242.142728 
L 264.792333 242.142728 
L 264.792333 58.857365 
L 260.915959 58.857365 
z
" clip-path="url(#pe3b76f7a1f)" style="fill: url(#ha6bbc21765); stroke: #ff7f0e; stroke-width: 2; stroke-linejoin: miter"/>
   </g>
   <g id="patch_40">
    <path d="M 265.476399 242.142728 
L 269.352773 242.142728 
L 269.352773 58.857365 
L 265.476399 58.857365 
z
" clip-path="url(#pe3b76f7a1f)" style="fill: url(#ha6bbc21765); stroke: #ff7f0e; stroke-width: 2; stroke-linejoin: miter"/>
   </g>
   <g id="patch_41">
    <path d="M 270.036839 242.142728 
L 273.913213 242.142728 
L 273.913213 58.857365 
L 270.036839 58.857365 
z
" clip-path="url(#pe3b76f7a1f)" style="fill: url(#ha6bbc21765); stroke: #ff7f0e; stroke-width: 2; stroke-linejoin: miter"/>
   </g>
   <g id="patch_42">
    <path d="M 274.597279 242.142728 
L 278.473653 242.142728 
L 278.473653 58.857365 
L 274.597279 58.857365 
z
" clip-path="url(#pe3b76f7a1f)" style="fill: url(#ha6bbc21765); stroke: #ff7f0e; stroke-width: 2; stroke-linejoin: miter"/>
   </g>
   <g id="patch_43">
    <path d="M 279.157719 242.142728 
L 283.034094 242.142728 
L 283.034094 58.857365 
L 279.157719 58.857365 
z
" clip-path="url(#pe3b76f7a1f)" style="fill: url(#ha6bbc21765); stroke: #ff7f0e; stroke-width: 2; stroke-linejoin: miter"/>
   </g>
   <g id="patch_44">
    <path d="M 283.71816 242.142728 
L 287.594534 242.142728 
L 287.594534 58.857365 
L 283.71816 58.857365 
z
" clip-path="url(#pe3b76f7a1f)" style="fill: url(#ha6bbc21765); stroke: #ff7f0e; stroke-width: 2; stroke-linejoin: miter"/>
   </g>
   <g id="patch_45">
    <path d="M 288.2786 242.142728 
L 292.154974 242.142728 
L 292.154974 58.857365 
L 288.2786 58.857365 
z
" clip-path="url(#pe3b76f7a1f)" style="fill: url(#ha6bbc21765); stroke: #ff7f0e; stroke-width: 2; stroke-linejoin: miter"/>
   </g>
   <g id="patch_46">
    <path d="M 292.83904 242.142728 
L 296.715414 242.142728 
L 296.715414 58.857365 
L 292.83904 58.857365 
z
" clip-path="url(#pe3b76f7a1f)" style="fill: url(#ha6bbc21765); stroke: #ff7f0e; stroke-width: 2; stroke-linejoin: miter"/>
   </g>
   <g id="patch_47">
    <path d="M 297.39948 242.142728 
L 301.275854 242.142728 
L 301.275854 58.857365 
L 297.39948 58.857365 
z
" clip-path="url(#pe3b76f7a1f)" style="fill: url(#ha6bbc21765); stroke: #ff7f0e; stroke-width: 2; stroke-linejoin: miter"/>
   </g>
   <g id="patch_48">
    <path d="M 301.95992 242.142728 
L 305.836294 242.142728 
L 305.836294 58.857365 
L 301.95992 58.857365 
z
" clip-path="url(#pe3b76f7a1f)" style="fill: url(#ha6bbc21765); stroke: #ff7f0e; stroke-width: 2; stroke-linejoin: miter"/>
   </g>
   <g id="patch_49">
    <path d="M 306.52036 242.142728 
L 310.396734 242.142728 
L 310.396734 58.857365 
L 306.52036 58.857365 
z
" clip-path="url(#pe3b76f7a1f)" style="fill: url(#ha6bbc21765); stroke: #ff7f0e; stroke-width: 2; stroke-linejoin: miter"/>
   </g>
   <g id="patch_50">
    <path d="M 311.080801 242.142728 
L 314.957175 242.142728 
L 314.957175 58.857365 
L 311.080801 58.857365 
z
" clip-path="url(#pe3b76f7a1f)" style="fill: url(#ha6bbc21765); stroke: #ff7f0e; stroke-width: 2; stroke-linejoin: miter"/>
   </g>
   <g id="patch_51">
    <path d="M 315.641241 242.142728 
L 319.517615 242.142728 
L 319.517615 58.857365 
L 315.641241 58.857365 
z
" clip-path="url(#pe3b76f7a1f)" style="fill: url(#ha6bbc21765); stroke: #ff7f0e; stroke-width: 2; stroke-linejoin: miter"/>
   </g>
   <g id="patch_52">
    <path d="M 320.201681 242.142728 
L 324.078055 242.142728 
L 324.078055 58.857365 
L 320.201681 58.857365 
z
" clip-path="url(#pe3b76f7a1f)" style="fill: url(#ha6bbc21765); stroke: #ff7f0e; stroke-width: 2; stroke-linejoin: miter"/>
   </g>
   <g id="patch_53">
    <path d="M 324.762121 242.142728 
L 328.638495 242.142728 
L 328.638495 58.857365 
L 324.762121 58.857365 
z
" clip-path="url(#pe3b76f7a1f)" style="fill: url(#ha6bbc21765); stroke: #ff7f0e; stroke-width: 2; stroke-linejoin: miter"/>
   </g>
   <g id="patch_54">
    <path d="M 329.322561 242.142728 
L 333.198935 242.142728 
L 333.198935 58.857365 
L 329.322561 58.857365 
z
" clip-path="url(#pe3b76f7a1f)" style="fill: url(#ha6bbc21765); stroke: #ff7f0e; stroke-width: 2; stroke-linejoin: miter"/>
   </g>
   <g id="patch_55">
    <path d="M 333.883001 242.142728 
L 337.759375 242.142728 
L 337.759375 58.857365 
L 333.883001 58.857365 
z
" clip-path="url(#pe3b76f7a1f)" style="fill: url(#ha6bbc21765); stroke: #ff7f0e; stroke-width: 2; stroke-linejoin: miter"/>
   </g>
   <g id="patch_56">
    <path d="M 338.443441 242.142728 
L 342.319816 242.142728 
L 342.319816 58.857365 
L 338.443441 58.857365 
z
" clip-path="url(#pe3b76f7a1f)" style="fill: url(#ha6bbc21765); stroke: #ff7f0e; stroke-width: 2; stroke-linejoin: miter"/>
   </g>
   <g id="patch_57">
    <path d="M 343.003882 242.142728 
L 346.880256 242.142728 
L 346.880256 58.857365 
L 343.003882 58.857365 
z
" clip-path="url(#pe3b76f7a1f)" style="fill: url(#ha6bbc21765); stroke: #ff7f0e; stroke-width: 2; stroke-linejoin: miter"/>
   </g>
   <g id="patch_58">
    <path d="M 347.564322 242.142728 
L 351.440696 242.142728 
L 351.440696 58.857365 
L 347.564322 58.857365 
z
" clip-path="url(#pe3b76f7a1f)" style="fill: url(#ha6bbc21765); stroke: #ff7f0e; stroke-width: 2; stroke-linejoin: miter"/>
   </g>
   <g id="patch_59">
    <path d="M 352.124762 242.142728 
L 356.001136 242.142728 
L 356.001136 58.857365 
L 352.124762 58.857365 
z
" clip-path="url(#pe3b76f7a1f)" style="fill: url(#ha6bbc21765); stroke: #ff7f0e; stroke-width: 2; stroke-linejoin: miter"/>
   </g>
   <g id="patch_60">
    <path d="M 356.685202 242.142728 
L 360.561576 242.142728 
L 360.561576 58.857365 
L 356.685202 58.857365 
z
" clip-path="url(#pe3b76f7a1f)" style="fill: url(#ha6bbc21765); stroke: #ff7f0e; stroke-width: 2; stroke-linejoin: miter"/>
   </g>
   <g id="patch_61">
    <path d="M 361.245642 242.142728 
L 365.122016 242.142728 
L 365.122016 58.857365 
L 361.245642 58.857365 
z
" clip-path="url(#pe3b76f7a1f)" style="fill: url(#ha6bbc21765); stroke: #ff7f0e; stroke-width: 2; stroke-linejoin: miter"/>
   </g>
   <g id="patch_62">
    <path d="M 365.806082 242.142728 
L 369.682456 242.142728 
L 369.682456 58.857365 
L 365.806082 58.857365 
z
" clip-path="url(#pe3b76f7a1f)" style="fill: url(#ha6bbc21765); stroke: #ff7f0e; stroke-width: 2; stroke-linejoin: miter"/>
   </g>
   <g id="patch_63">
    <path d="M 370.366522 242.142728 
L 374.242897 242.142728 
L 374.242897 58.857365 
L 370.366522 58.857365 
z
" clip-path="url(#pe3b76f7a1f)" style="fill: url(#ha6bbc21765); stroke: #ff7f0e; stroke-width: 2; stroke-linejoin: miter"/>
   </g>
   <g id="patch_64">
    <path d="M 374.926963 242.142728 
L 378.803337 242.142728 
L 378.803337 58.857365 
L 374.926963 58.857365 
z
" clip-path="url(#pe3b76f7a1f)" style="fill: url(#ha6bbc21765); stroke: #ff7f0e; stroke-width: 2; stroke-linejoin: miter"/>
   </g>
   <g id="patch_65">
    <path d="M 379.487403 242.142728 
L 383.363777 242.142728 
L 383.363777 58.857365 
L 379.487403 58.857365 
z
" clip-path="url(#pe3b76f7a1f)" style="fill: url(#ha6bbc21765); stroke: #ff7f0e; stroke-width: 2; stroke-linejoin: miter"/>
   </g>
   <g id="patch_66">
    <path d="M 384.047843 242.142728 
L 387.924217 242.142728 
L 387.924217 58.857365 
L 384.047843 58.857365 
z
" clip-path="url(#pe3b76f7a1f)" style="fill: url(#ha6bbc21765); stroke: #ff7f0e; stroke-width: 2; stroke-linejoin: miter"/>
   </g>
   <g id="patch_67">
    <path d="M 388.608283 242.142728 
L 392.484657 242.142728 
L 392.484657 58.857365 
L 388.608283 58.857365 
z
" clip-path="url(#pe3b76f7a1f)" style="fill: url(#ha6bbc21765); stroke: #ff7f0e; stroke-width: 2; stroke-linejoin: miter"/>
   </g>
   <g id="patch_68">
    <path d="M 393.168723 242.142728 
L 397.045097 242.142728 
L 397.045097 58.857365 
L 393.168723 58.857365 
z
" clip-path="url(#pe3b76f7a1f)" style="fill: url(#ha6bbc21765); stroke: #ff7f0e; stroke-width: 2; stroke-linejoin: miter"/>
   </g>
   <g id="patch_69">
    <path d="M 397.729163 242.142728 
L 401.605537 242.142728 
L 401.605537 58.857365 
L 397.729163 58.857365 
z
" clip-path="url(#pe3b76f7a1f)" style="fill: url(#ha6bbc21765); stroke: #ff7f0e; stroke-width: 2; stroke-linejoin: miter"/>
   </g>
   <g id="patch_70">
    <path d="M 402.289603 242.142728 
L 406.165978 242.142728 
L 406.165978 58.857365 
L 402.289603 58.857365 
z
" clip-path="url(#pe3b76f7a1f)" style="fill: url(#ha6bbc21765); stroke: #ff7f0e; stroke-width: 2; stroke-linejoin: miter"/>
   </g>
   <g id="patch_71">
    <path d="M 406.850044 242.142728 
L 410.726418 242.142728 
L 410.726418 58.857365 
L 406.850044 58.857365 
z
" clip-path="url(#pe3b76f7a1f)" style="fill: url(#ha6bbc21765); stroke: #ff7f0e; stroke-width: 2; stroke-linejoin: miter"/>
   </g>
   <g id="patch_72">
    <path d="M 411.410484 242.142728 
L 415.286858 242.142728 
L 415.286858 58.857365 
L 411.410484 58.857365 
z
" clip-path="url(#pe3b76f7a1f)" style="fill: url(#ha6bbc21765); stroke: #ff7f0e; stroke-width: 2; stroke-linejoin: miter"/>
   </g>
   <g id="patch_73">
    <path d="M 415.970924 242.142728 
L 419.847298 242.142728 
L 419.847298 58.857365 
L 415.970924 58.857365 
z
" clip-path="url(#pe3b76f7a1f)" style="fill: url(#ha6bbc21765); stroke: #ff7f0e; stroke-width: 2; stroke-linejoin: miter"/>
   </g>
   <g id="patch_74">
    <path d="M 420.531364 242.142728 
L 424.407738 242.142728 
L 424.407738 58.857365 
L 420.531364 58.857365 
z
" clip-path="url(#pe3b76f7a1f)" style="fill: url(#ha6bbc21765); stroke: #ff7f0e; stroke-width: 2; stroke-linejoin: miter"/>
   </g>
   <g id="patch_75">
    <path d="M 425.091804 242.142728 
L 428.968178 242.142728 
L 428.968178 58.857365 
L 425.091804 58.857365 
z
" clip-path="url(#pe3b76f7a1f)" style="fill: url(#ha6bbc21765); stroke: #ff7f0e; stroke-width: 2; stroke-linejoin: miter"/>
   </g>
   <g id="patch_76">
    <path d="M 429.652244 242.142728 
L 433.528618 242.142728 
L 433.528618 58.857365 
L 429.652244 58.857365 
z
" clip-path="url(#pe3b76f7a1f)" style="fill: url(#ha6bbc21765); stroke: #ff7f0e; stroke-width: 2; stroke-linejoin: miter"/>
   </g>
   <g id="patch_77">
    <path d="M 434.212684 242.142728 
L 438.089059 242.142728 
L 438.089059 58.857365 
L 434.212684 58.857365 
z
" clip-path="url(#pe3b76f7a1f)" style="fill: url(#ha6bbc21765); stroke: #ff7f0e; stroke-width: 2; stroke-linejoin: miter"/>
   </g>
   <g id="patch_78">
    <path d="M 438.773125 242.142728 
L 442.649499 242.142728 
L 442.649499 58.857365 
L 438.773125 58.857365 
z
" clip-path="url(#pe3b76f7a1f)" style="fill: url(#ha6bbc21765); stroke: #ff7f0e; stroke-width: 2; stroke-linejoin: miter"/>
   </g>
   <g id="patch_79">
    <path d="M 443.333565 242.142728 
L 447.209939 242.142728 
L 447.209939 58.857365 
L 443.333565 58.857365 
z
" clip-path="url(#pe3b76f7a1f)" style="fill: url(#ha6bbc21765); stroke: #ff7f0e; stroke-width: 2; stroke-linejoin: miter"/>
   </g>
   <g id="patch_80">
    <path d="M 447.894005 242.142728 
L 451.770379 242.142728 
L 451.770379 58.857365 
L 447.894005 58.857365 
z
" clip-path="url(#pe3b76f7a1f)" style="fill: url(#ha6bbc21765); stroke: #ff7f0e; stroke-width: 2; stroke-linejoin: miter"/>
   </g>
   <g id="patch_81">
    <path d="M 452.454445 242.142728 
L 456.330819 242.142728 
L 456.330819 58.857365 
L 452.454445 58.857365 
z
" clip-path="url(#pe3b76f7a1f)" style="fill: url(#ha6bbc21765); stroke: #ff7f0e; stroke-width: 2; stroke-linejoin: miter"/>
   </g>
   <g id="patch_82">
    <path d="M 457.014885 242.142728 
L 460.891259 242.142728 
L 460.891259 58.857365 
L 457.014885 58.857365 
z
" clip-path="url(#pe3b76f7a1f)" style="fill: url(#ha6bbc21765); stroke: #ff7f0e; stroke-width: 2; stroke-linejoin: miter"/>
   </g>
   <g id="patch_83">
    <path d="M 461.575325 242.142728 
L 465.451699 242.142728 
L 465.451699 58.857365 
L 461.575325 58.857365 
z
" clip-path="url(#pe3b76f7a1f)" style="fill: url(#ha6bbc21765); stroke: #ff7f0e; stroke-width: 2; stroke-linejoin: miter"/>
   </g>
   <g id="patch_84">
    <path d="M 466.135766 242.142728 
L 470.01214 242.142728 
L 470.01214 58.857365 
L 466.135766 58.857365 
z
" clip-path="url(#pe3b76f7a1f)" style="fill: url(#ha6bbc21765); stroke: #ff7f0e; stroke-width: 2; stroke-linejoin: miter"/>
   </g>
   <g id="patch_85">
    <path d="M 470.696206 242.142728 
L 474.57258 242.142728 
L 474.57258 58.857365 
L 470.696206 58.857365 
z
" clip-path="url(#pe3b76f7a1f)" style="fill: url(#ha6bbc21765); stroke: #ff7f0e; stroke-width: 2; stroke-linejoin: miter"/>
   </g>
   <g id="patch_86">
    <path d="M 475.256646 242.142728 
L 479.13302 242.142728 
L 479.13302 58.857365 
L 475.256646 58.857365 
z
" clip-path="url(#pe3b76f7a1f)" style="fill: url(#ha6bbc21765); stroke: #ff7f0e; stroke-width: 2; stroke-linejoin: miter"/>
   </g>
   <g id="patch_87">
    <path d="M 479.817086 242.142728 
L 483.69346 242.142728 
L 483.69346 58.857365 
L 479.817086 58.857365 
z
" clip-path="url(#pe3b76f7a1f)" style="fill: url(#ha6bbc21765); stroke: #ff7f0e; stroke-width: 2; stroke-linejoin: miter"/>
   </g>
   <g id="patch_88">
    <path d="M 484.377526 242.142728 
L 488.2539 242.142728 
L 488.2539 58.857365 
L 484.377526 58.857365 
z
" clip-path="url(#pe3b76f7a1f)" style="fill: url(#ha6bbc21765); stroke: #ff7f0e; stroke-width: 2; stroke-linejoin: miter"/>
   </g>
   <g id="patch_89">
    <path d="M 488.937966 242.142728 
L 492.81434 242.142728 
L 492.81434 58.857365 
L 488.937966 58.857365 
z
" clip-path="url(#pe3b76f7a1f)" style="fill: url(#ha6bbc21765); stroke: #ff7f0e; stroke-width: 2; stroke-linejoin: miter"/>
   </g>
   <g id="patch_90">
    <path d="M 493.498406 242.142728 
L 497.374781 242.142728 
L 497.374781 58.857365 
L 493.498406 58.857365 
z
" clip-path="url(#pe3b76f7a1f)" style="fill: url(#ha6bbc21765); stroke: #ff7f0e; stroke-width: 2; stroke-linejoin: miter"/>
   </g>
   <g id="patch_91">
    <path d="M 498.058847 242.142728 
L 501.935221 242.142728 
L 501.935221 58.857365 
L 498.058847 58.857365 
z
" clip-path="url(#pe3b76f7a1f)" style="fill: url(#ha6bbc21765); stroke: #ff7f0e; stroke-width: 2; stroke-linejoin: miter"/>
   </g>
   <g id="patch_92">
    <path d="M 502.619287 242.142728 
L 506.495661 242.142728 
L 506.495661 58.857365 
L 502.619287 58.857365 
z
" clip-path="url(#pe3b76f7a1f)" style="fill: url(#ha6bbc21765); stroke: #ff7f0e; stroke-width: 2; stroke-linejoin: miter"/>
   </g>
   <g id="patch_93">
    <path d="M 507.179727 242.142728 
L 511.056101 242.142728 
L 511.056101 58.857365 
L 507.179727 58.857365 
z
" clip-path="url(#pe3b76f7a1f)" style="fill: url(#ha6bbc21765); stroke: #ff7f0e; stroke-width: 2; stroke-linejoin: miter"/>
   </g>
   <g id="patch_94">
    <path d="M 511.740167 242.142728 
L 515.616541 242.142728 
L 515.616541 54.275231 
L 511.740167 54.275231 
z
" clip-path="url(#pe3b76f7a1f)" style="fill: url(#ha6bbc21765); stroke: #ff7f0e; stroke-width: 2; stroke-linejoin: miter"/>
   </g>
   <g id="patch_95">
    <path d="M 516.300607 242.142728 
L 520.176981 242.142728 
L 520.176981 54.275231 
L 516.300607 54.275231 
z
" clip-path="url(#pe3b76f7a1f)" style="fill: url(#ha6bbc21765); stroke: #ff7f0e; stroke-width: 2; stroke-linejoin: miter"/>
   </g>
   <g id="patch_96">
    <path d="M 520.861047 242.142728 
L 524.737421 242.142728 
L 524.737421 54.275231 
L 520.861047 54.275231 
z
" clip-path="url(#pe3b76f7a1f)" style="fill: url(#ha6bbc21765); stroke: #ff7f0e; stroke-width: 2; stroke-linejoin: miter"/>
   </g>
   <g id="patch_97">
    <path d="M 525.421487 242.142728 
L 529.297862 242.142728 
L 529.297862 54.275231 
L 525.421487 54.275231 
z
" clip-path="url(#pe3b76f7a1f)" style="fill: url(#ha6bbc21765); stroke: #ff7f0e; stroke-width: 2; stroke-linejoin: miter"/>
   </g>
   <g id="patch_98">
    <path d="M 529.981928 242.142728 
L 533.858302 242.142728 
L 533.858302 54.275231 
L 529.981928 54.275231 
z
" clip-path="url(#pe3b76f7a1f)" style="fill: url(#ha6bbc21765); stroke: #ff7f0e; stroke-width: 2; stroke-linejoin: miter"/>
   </g>
   <g id="patch_99">
    <path d="M 534.542368 242.142728 
L 538.418742 242.142728 
L 538.418742 54.275231 
L 534.542368 54.275231 
z
" clip-path="url(#pe3b76f7a1f)" style="fill: url(#ha6bbc21765); stroke: #ff7f0e; stroke-width: 2; stroke-linejoin: miter"/>
   </g>
   <g id="patch_100">
    <path d="M 539.102808 242.142728 
L 542.979182 242.142728 
L 542.979182 54.275231 
L 539.102808 54.275231 
z
" clip-path="url(#pe3b76f7a1f)" style="fill: url(#ha6bbc21765); stroke: #ff7f0e; stroke-width: 2; stroke-linejoin: miter"/>
   </g>
   <g id="patch_101">
    <path d="M 543.663248 242.142728 
L 547.539622 242.142728 
L 547.539622 54.275231 
L 543.663248 54.275231 
z
" clip-path="url(#pe3b76f7a1f)" style="fill: url(#ha6bbc21765); stroke: #ff7f0e; stroke-width: 2; stroke-linejoin: miter"/>
   </g>
   <g id="patch_102">
    <path d="M 548.223688 242.142728 
L 552.100062 242.142728 
L 552.100062 54.275231 
L 548.223688 54.275231 
z
" clip-path="url(#pe3b76f7a1f)" style="fill: url(#ha6bbc21765); stroke: #ff7f0e; stroke-width: 2; stroke-linejoin: miter"/>
   </g>
   <g id="patch_103">
    <path d="M 552.784128 242.142728 
L 556.660502 242.142728 
L 556.660502 54.275231 
L 552.784128 54.275231 
z
" clip-path="url(#pe3b76f7a1f)" style="fill: url(#ha6bbc21765); stroke: #ff7f0e; stroke-width: 2; stroke-linejoin: miter"/>
   </g>
   <g id="patch_104">
    <path d="M 557.344568 242.142728 
L 561.220943 242.142728 
L 561.220943 54.275231 
L 557.344568 54.275231 
z
" clip-path="url(#pe3b76f7a1f)" style="fill: url(#ha6bbc21765); stroke: #ff7f0e; stroke-width: 2; stroke-linejoin: miter"/>
   </g>
   <g id="patch_105">
    <path d="M 561.905009 242.142728 
L 565.781383 242.142728 
L 565.781383 54.275231 
L 561.905009 54.275231 
z
" clip-path="url(#pe3b76f7a1f)" style="fill: url(#ha6bbc21765); stroke: #ff7f0e; stroke-width: 2; stroke-linejoin: miter"/>
   </g>
   <g id="patch_106">
    <path d="M 566.465449 242.142728 
L 570.341823 242.142728 
L 570.341823 54.275231 
L 566.465449 54.275231 
z
" clip-path="url(#pe3b76f7a1f)" style="fill: url(#ha6bbc21765); stroke: #ff7f0e; stroke-width: 2; stroke-linejoin: miter"/>
   </g>
   <g id="patch_107">
    <path d="M 571.025889 242.142728 
L 574.902263 242.142728 
L 574.902263 54.275231 
L 571.025889 54.275231 
z
" clip-path="url(#pe3b76f7a1f)" style="fill: url(#ha6bbc21765); stroke: #ff7f0e; stroke-width: 2; stroke-linejoin: miter"/>
   </g>
   <g id="patch_108">
    <path d="M 575.586329 242.142728 
L 579.462703 242.142728 
L 579.462703 54.275231 
L 575.586329 54.275231 
z
" clip-path="url(#pe3b76f7a1f)" style="fill: url(#ha6bbc21765); stroke: #ff7f0e; stroke-width: 2; stroke-linejoin: miter"/>
   </g>
   <g id="patch_109">
    <path d="M 580.146769 242.142728 
L 584.023143 242.142728 
L 584.023143 54.275231 
L 580.146769 54.275231 
z
" clip-path="url(#pe3b76f7a1f)" style="fill: url(#ha6bbc21765); stroke: #ff7f0e; stroke-width: 2; stroke-linejoin: miter"/>
   </g>
   <g id="patch_110">
    <path d="M 584.707209 242.142728 
L 588.583583 242.142728 
L 588.583583 54.275231 
L 584.707209 54.275231 
z
" clip-path="url(#pe3b76f7a1f)" style="fill: url(#ha6bbc21765); stroke: #ff7f0e; stroke-width: 2; stroke-linejoin: miter"/>
   </g>
   <g id="patch_111">
    <path d="M 589.267649 242.142728 
L 593.144024 242.142728 
L 593.144024 54.275231 
L 589.267649 54.275231 
z
" clip-path="url(#pe3b76f7a1f)" style="fill: url(#ha6bbc21765); stroke: #ff7f0e; stroke-width: 2; stroke-linejoin: miter"/>
   </g>
   <g id="patch_112">
    <path d="M 593.82809 242.142728 
L 597.704464 242.142728 
L 597.704464 54.275231 
L 593.82809 54.275231 
z
" clip-path="url(#pe3b76f7a1f)" style="fill: url(#ha6bbc21765); stroke: #ff7f0e; stroke-width: 2; stroke-linejoin: miter"/>
   </g>
   <g id="patch_113">
    <path d="M 598.38853 242.142728 
L 602.264904 242.142728 
L 602.264904 54.275231 
L 598.38853 54.275231 
z
" clip-path="url(#pe3b76f7a1f)" style="fill: url(#ha6bbc21765); stroke: #ff7f0e; stroke-width: 2; stroke-linejoin: miter"/>
   </g>
   <g id="patch_114">
    <path d="M 602.94897 242.142728 
L 606.825344 242.142728 
L 606.825344 54.275231 
L 602.94897 54.275231 
z
" clip-path="url(#pe3b76f7a1f)" style="fill: url(#ha6bbc21765); stroke: #ff7f0e; stroke-width: 2; stroke-linejoin: miter"/>
   </g>
   <g id="patch_115">
    <path d="M 607.50941 242.142728 
L 611.385784 242.142728 
L 611.385784 54.275231 
L 607.50941 54.275231 
z
" clip-path="url(#pe3b76f7a1f)" style="fill: url(#ha6bbc21765); stroke: #ff7f0e; stroke-width: 2; stroke-linejoin: miter"/>
   </g>
   <g id="patch_116">
    <path d="M 612.06985 242.142728 
L 615.946224 242.142728 
L 615.946224 54.275231 
L 612.06985 54.275231 
z
" clip-path="url(#pe3b76f7a1f)" style="fill: url(#ha6bbc21765); stroke: #ff7f0e; stroke-width: 2; stroke-linejoin: miter"/>
   </g>
   <g id="patch_117">
    <path d="M 616.63029 242.142728 
L 620.506664 242.142728 
L 620.506664 54.275231 
L 616.63029 54.275231 
z
" clip-path="url(#pe3b76f7a1f)" style="fill: url(#ha6bbc21765); stroke: #ff7f0e; stroke-width: 2; stroke-linejoin: miter"/>
   </g>
   <g id="patch_118">
    <path d="M 621.19073 242.142728 
L 625.067105 242.142728 
L 625.067105 54.275231 
L 621.19073 54.275231 
z
" clip-path="url(#pe3b76f7a1f)" style="fill: url(#ha6bbc21765); stroke: #ff7f0e; stroke-width: 2; stroke-linejoin: miter"/>
   </g>
   <g id="patch_119">
    <path d="M 625.751171 242.142728 
L 629.627545 242.142728 
L 629.627545 54.275231 
L 625.751171 54.275231 
z
" clip-path="url(#pe3b76f7a1f)" style="fill: url(#ha6bbc21765); stroke: #ff7f0e; stroke-width: 2; stroke-linejoin: miter"/>
   </g>
   <g id="patch_120">
    <path d="M 630.311611 242.142728 
L 634.187985 242.142728 
L 634.187985 54.275231 
L 630.311611 54.275231 
z
" clip-path="url(#pe3b76f7a1f)" style="fill: url(#ha6bbc21765); stroke: #ff7f0e; stroke-width: 2; stroke-linejoin: miter"/>
   </g>
   <g id="patch_121">
    <path d="M 634.872051 242.142728 
L 638.748425 242.142728 
L 638.748425 54.275231 
L 634.872051 54.275231 
z
" clip-path="url(#pe3b76f7a1f)" style="fill: url(#ha6bbc21765); stroke: #ff7f0e; stroke-width: 2; stroke-linejoin: miter"/>
   </g>
   <g id="patch_122">
    <path d="M 639.432491 242.142728 
L 643.308865 242.142728 
L 643.308865 54.275231 
L 639.432491 54.275231 
z
" clip-path="url(#pe3b76f7a1f)" style="fill: url(#ha6bbc21765); stroke: #ff7f0e; stroke-width: 2; stroke-linejoin: miter"/>
   </g>
   <g id="patch_123">
    <path d="M 643.992931 242.142728 
L 647.869305 242.142728 
L 647.869305 54.275231 
L 643.992931 54.275231 
z
" clip-path="url(#pe3b76f7a1f)" style="fill: url(#ha6bbc21765); stroke: #ff7f0e; stroke-width: 2; stroke-linejoin: miter"/>
   </g>
   <g id="patch_124">
    <path d="M 648.553371 242.142728 
L 652.429745 242.142728 
L 652.429745 54.275231 
L 648.553371 54.275231 
z
" clip-path="url(#pe3b76f7a1f)" style="fill: url(#ha6bbc21765); stroke: #ff7f0e; stroke-width: 2; stroke-linejoin: miter"/>
   </g>
   <g id="patch_125">
    <path d="M 653.113812 242.142728 
L 656.990186 242.142728 
L 656.990186 54.275231 
L 653.113812 54.275231 
z
" clip-path="url(#pe3b76f7a1f)" style="fill: url(#ha6bbc21765); stroke: #ff7f0e; stroke-width: 2; stroke-linejoin: miter"/>
   </g>
   <g id="patch_126">
    <path d="M 657.674252 242.142728 
L 661.550626 242.142728 
L 661.550626 49.693097 
L 657.674252 49.693097 
z
" clip-path="url(#pe3b76f7a1f)" style="fill: url(#ha6bbc21765); stroke: #ff7f0e; stroke-width: 2; stroke-linejoin: miter"/>
   </g>
   <g id="patch_127">
    <path d="M 662.234692 242.142728 
L 666.111066 242.142728 
L 666.111066 49.693097 
L 662.234692 49.693097 
z
" clip-path="url(#pe3b76f7a1f)" style="fill: url(#ha6bbc21765); stroke: #ff7f0e; stroke-width: 2; stroke-linejoin: miter"/>
   </g>
   <g id="patch_128">
    <path d="M 666.795132 242.142728 
L 670.671506 242.142728 
L 670.671506 49.693097 
L 666.795132 49.693097 
z
" clip-path="url(#pe3b76f7a1f)" style="fill: url(#ha6bbc21765); stroke: #ff7f0e; stroke-width: 2; stroke-linejoin: miter"/>
   </g>
   <g id="patch_129">
    <path d="M 671.355572 242.142728 
L 675.231946 242.142728 
L 675.231946 45.110963 
L 671.355572 45.110963 
z
" clip-path="url(#pe3b76f7a1f)" style="fill: url(#ha6bbc21765); stroke: #ff7f0e; stroke-width: 2; stroke-linejoin: miter"/>
   </g>
   <g id="patch_130">
    <path d="M 675.916012 242.142728 
L 679.792386 242.142728 
L 679.792386 45.110963 
L 675.916012 45.110963 
z
" clip-path="url(#pe3b76f7a1f)" style="fill: url(#ha6bbc21765); stroke: #ff7f0e; stroke-width: 2; stroke-linejoin: miter"/>
   </g>
   <g id="line2d_23">
    <path d="M 67.5875 58.857365 
L 708.945 58.857365 
" clip-path="url(#pe3b76f7a1f)" style="fill: none; stroke-dasharray: 4.44,1.92; stroke-dashoffset: 0; stroke: #f58518; stroke-width: 1.2"/>
   </g>
   <g id="patch_131">
    <path d="M 67.5875 242.142728 
L 67.5875 35.259375 
" style="fill: none; stroke: #808080; stroke-width: 0.8; stroke-linejoin: miter; stroke-linecap: square"/>
   </g>
   <g id="patch_132">
    <path d="M 67.5875 242.142728 
L 708.945 242.142728 
" style="fill: none; stroke: #808080; stroke-width: 0.8; stroke-linejoin: miter; stroke-linecap: square"/>
   </g>
   <g id="text_21">
    <text style="font: 22px 'PingFang SC', 'Heiti SC', 'STHeiti', 'Calibri', 'Arial', 'Helvetica Neue', 'Arial Unicode MS', 'Noto Sans CJK SC', 'DejaVu Sans', sans-serif; text-anchor: middle" x="388.26625" y="29.259375" transform="rotate(-0 388.26625 29.259375)">排序条形 · Health temp (C)</text>
   </g>
   <g id="legend_1">
    <g id="patch_133">
     <path d="M 75.9875 62.019375 
L 180.1475 62.019375 
Q 182.5475 62.019375 182.5475 59.619375 
L 182.5475 43.659375 
Q 182.5475 41.259375 180.1475 41.259375 
L 75.9875 41.259375 
Q 73.5875 41.259375 73.5875 43.659375 
L 73.5875 59.619375 
Q 73.5875 62.019375 75.9875 62.019375 
z
" style="fill: #ffffff; opacity: 0.5; stroke: #cccccc; stroke-linejoin: miter"/>
    </g>
    <g id="line2d_24">
     <path d="M 78.3875 51.410625 
L 90.3875 51.410625 
L 102.3875 51.410625 
" style="fill: none; stroke-dasharray: 4.44,1.92; stroke-dashoffset: 0; stroke: #f58518; stroke-width: 1.2"/>
    </g>
    <g id="text_22">
     <text style="font: 12px 'PingFang SC', 'Heiti SC', 'STHeiti', 'Calibri', 'Arial', 'Helvetica Neue', 'Arial Unicode MS', 'Noto Sans CJK SC', 'DejaVu Sans', sans-serif; text-anchor: start" x="111.9875" y="55.610625" transform="rotate(-0 111.9875 55.610625)">median=40</text>
    </g>
   </g>
  </g>
 </g>
 <defs>
  <clipPath id="pe3b76f7a1f">
   <rect x="67.5875" y="35.259375" width="641.3575" height="206.883353"/>
  </clipPath>
 </defs>
 <defs>
  <pattern id="h754c734124" patternUnits="userSpaceOnUse" x="0" y="0" width="72" height="72">
   <rect x="0" y="0" width="73" height="73" fill="none"/>
   <path d="M -36 36 
L 36 -36 
M -30 42 
L 42 -30 
M -24 48 
L 48 -24 
M -18 54 
L 54 -18 
M -12 60 
L 60 -12 
M -6 66 
L 66 -6 
M 0 72 
L 72 0 
M 6 78 
L 78 6 
M 12 84 
L 84 12 
M 18 90 
L 90 18 
M 24 96 
L 96 24 
M 30 102 
L 102 30 
M 36 108 
L 108 36 
M -36 36 
L 36 108 
M -30 30 
L 42 102 
M -24 24 
L 48 96 
M -18 18 
L 54 90 
M -12 12 
L 60 84 
M -6 6 
L 66 78 
M 0 0 
L 72 72 
M 6 -6 
L 78 66 
M 12 -12 
L 84 60 
M 18 -18 
L 90 54 
M 24 -24 
L 96 48 
M 30 -30 
L 102 42 
M 36 -36 
L 108 36 
" style="fill: #2ca02c; stroke: #2ca02c; stroke-width: 1.0; stroke-linecap: butt; stroke-linejoin: miter"/>
  </pattern>
  <pattern id="ha6bbc21765" patternUnits="userSpaceOnUse" x="0" y="0" width="72" height="72">
   <rect x="0" y="0" width="73" height="73" fill="none"/>
   <path d="M -36 36 
L 36 -36 
M -30 42 
L 42 -30 
M -24 48 
L 48 -24 
M -18 54 
L 54 -18 
M -12 60 
L 60 -12 
M -6 66 
L 66 -6 
M 0 72 
L 72 0 
M 6 78 
L 78 6 
M 12 84 
L 84 12 
M 18 90 
L 90 18 
M 24 96 
L 96 24 
M 30 102 
L 102 30 
M 36 108 
L 108 36 
" style="fill: #ff7f0e; stroke: #ff7f0e; stroke-width: 1.0; stroke-linecap: butt; stroke-linejoin: miter"/>
  </pattern>
 </defs>
</svg>
