<?xml version="1.0" encoding="utf-8" standalone="no"?>
<!DOCTYPE svg PUBLIC "-//W3C//DTD SVG 1.1//EN"
  "http://www.w3.org/Graphics/SVG/1.1/DTD/svg11.dtd">
<svg xmlns:xlink="http://www.w3.org/1999/xlink" width="719.745pt" height="307.045188pt" viewBox="0 0 719.745 307.045188" xmlns="http://www.w3.org/2000/svg" version="1.1">
 <metadata>
  <rdf:RDF xmlns:dc="http://purl.org/dc/elements/1.1/" xmlns:cc="http://creativecommons.org/ns#" xmlns:rdf="http://www.w3.org/1999/02/22-rdf-syntax-ns#">
   <cc:Work>
    <dc:type rdf:resource="http://purl.org/dc/dcmitype/StillImage"/>
    <dc:date>2026-07-11T20:14:12.121364</dc:date>
    <dc:format>image/svg+xml</dc:format>
    <dc:creator>
     <cc:Agent>
      <dc:title>Matplotlib v3.9.4, https://matplotlib.org/</dc:title>
     </cc:Agent>
    </dc:creator>
   </cc:Work>
  </rdf:RDF>
 </metadata>
 <defs>
  <style type="text/css">*{stroke-linejoin: round; stroke-linecap: butt}</style>
 </defs>
 <g id="figure_1">
  <g id="patch_1">
   <path d="M 0 307.045188 
L 719.745 307.045188 
L 719.745 0 
L 0 0 
z
" style="fill: #ffffff"/>
  </g>
  <g id="axes_1">
   <g id="patch_2">
    <path d="M 67.5875 242.597392 
L 708.945 242.597392 
L 708.945 35.259375 
L 67.5875 35.259375 
z
" style="fill: #ffffff"/>
   </g>
   <g id="matplotlib.axis_1">
    <g id="xtick_1">
     <g id="line2d_1">
      <defs>
       <path id="m8d322ed6cb" d="M 0 0 
L 0 3.5 
" style="stroke: #808080; stroke-width: 0.8"/>
      </defs>
      <g>
       <use xlink:href="#m8d322ed6cb" x="98.678301" y="242.597392" style="fill: #808080; stroke: #808080; stroke-width: 0.8"/>
      </g>
     </g>
     <g id="text_1">
      <text style="fill: #808080; font: 8px 'PingFang SC', 'Heiti SC', 'STHeiti', 'Calibri', 'Arial', 'Helvetica Neue', 'Arial Unicode MS', 'Noto Sans CJK SC', 'DejaVu Sans', sans-serif" transform="translate(72.965113 295.708938) rotate(-60)">worker-4:d12</text>
     </g>
    </g>
    <g id="xtick_2">
     <g id="line2d_2">
      <g>
       <use xlink:href="#m8d322ed6cb" x="135.161822" y="242.597392" style="fill: #808080; stroke: #808080; stroke-width: 0.8"/>
      </g>
     </g>
     <g id="text_2">
      <text style="fill: #808080; font: 8px 'PingFang SC', 'Heiti SC', 'STHeiti', 'Calibri', 'Arial', 'Helvetica Neue', 'Arial Unicode MS', 'Noto Sans CJK SC', 'DejaVu Sans', sans-serif" transform="translate(111.664885 291.870281) rotate(-60)">worker-4:d9</text>
     </g>
    </g>
    <g id="xtick_3">
     <g id="line2d_3">
      <g>
       <use xlink:href="#m8d322ed6cb" x="171.645343" y="242.597392" style="fill: #808080; stroke: #808080; stroke-width: 0.8"/>
      </g>
     </g>
     <g id="text_3">
      <text style="fill: #808080; font: 8px 'PingFang SC', 'Heiti SC', 'STHeiti', 'Calibri', 'Arial', 'Helvetica Neue', 'Arial Unicode MS', 'Noto Sans CJK SC', 'DejaVu Sans', sans-serif" transform="translate(148.148406 291.870281) rotate(-60)">worker-2:d9</text>
     </g>
    </g>
    <g id="xtick_4">
     <g id="line2d_4">
      <g>
       <use xlink:href="#m8d322ed6cb" x="208.128864" y="242.597392" style="fill: #808080; stroke: #808080; stroke-width: 0.8"/>
      </g>
     </g>
     <g id="text_4">
      <text style="fill: #808080; font: 8px 'PingFang SC', 'Heiti SC', 'STHeiti', 'Calibri', 'Arial', 'Helvetica Neue', 'Arial Unicode MS', 'Noto Sans CJK SC', 'DejaVu Sans', sans-serif" transform="translate(184.631927 291.870281) rotate(-60)">worker-5:d3</text>
     </g>
    </g>
    <g id="xtick_5">
     <g id="line2d_5">
      <g>
       <use xlink:href="#m8d322ed6cb" x="244.612385" y="242.597392" style="fill: #808080; stroke: #808080; stroke-width: 0.8"/>
      </g>
     </g>
     <g id="text_5">
      <text style="fill: #808080; font: 8px 'PingFang SC', 'Heiti SC', 'STHeiti', 'Calibri', 'Arial', 'Helvetica Neue', 'Arial Unicode MS', 'Noto Sans CJK SC', 'DejaVu Sans', sans-serif" transform="translate(221.115448 291.870281) rotate(-60)">worker-5:d9</text>
     </g>
    </g>
    <g id="xtick_6">
     <g id="line2d_6">
      <g>
       <use xlink:href="#m8d322ed6cb" x="281.095907" y="242.597392" style="fill: #808080; stroke: #808080; stroke-width: 0.8"/>
      </g>
     </g>
     <g id="text_6">
      <text style="fill: #808080; font: 8px 'PingFang SC', 'Heiti SC', 'STHeiti', 'Calibri', 'Arial', 'Helvetica Neue', 'Arial Unicode MS', 'Noto Sans CJK SC', 'DejaVu Sans', sans-serif" transform="translate(255.382719 295.708938) rotate(-60)">worker-5:d10</text>
     </g>
    </g>
    <g id="xtick_7">
     <g id="line2d_7">
      <g>
       <use xlink:href="#m8d322ed6cb" x="317.579428" y="242.597392" style="fill: #808080; stroke: #808080; stroke-width: 0.8"/>
      </g>
     </g>
     <g id="text_7">
      <text style="fill: #808080; font: 8px 'PingFang SC', 'Heiti SC', 'STHeiti', 'Calibri', 'Arial', 'Helvetica Neue', 'Arial Unicode MS', 'Noto Sans CJK SC', 'DejaVu Sans', sans-serif" transform="translate(294.08249 291.870281) rotate(-60)">worker-6:d4</text>
     </g>
    </g>
    <g id="xtick_8">
     <g id="line2d_8">
      <g>
       <use xlink:href="#m8d322ed6cb" x="354.062949" y="242.597392" style="fill: #808080; stroke: #808080; stroke-width: 0.8"/>
      </g>
     </g>
     <g id="text_8">
      <text style="fill: #808080; font: 8px 'PingFang SC', 'Heiti SC', 'STHeiti', 'Calibri', 'Arial', 'Helvetica Neue', 'Arial Unicode MS', 'Noto Sans CJK SC', 'DejaVu Sans', sans-serif" transform="translate(330.566012 291.870281) rotate(-60)">worker-0:d8</text>
     </g>
    </g>
    <g id="xtick_9">
     <g id="line2d_9">
      <g>
       <use xlink:href="#m8d322ed6cb" x="390.54647" y="242.597392" style="fill: #808080; stroke: #808080; stroke-width: 0.8"/>
      </g>
     </g>
     <g id="text_9">
      <text style="fill: #808080; font: 8px 'PingFang SC', 'Heiti SC', 'STHeiti', 'Calibri', 'Arial', 'Helvetica Neue', 'Arial Unicode MS', 'Noto Sans CJK SC', 'DejaVu Sans', sans-serif" transform="translate(367.049533 291.870281) rotate(-60)">worker-6:d9</text>
     </g>
    </g>
    <g id="xtick_10">
     <g id="line2d_10">
      <g>
       <use xlink:href="#m8d322ed6cb" x="427.029991" y="242.597392" style="fill: #808080; stroke: #808080; stroke-width: 0.8"/>
      </g>
     </g>
     <g id="text_10">
      <text style="fill: #808080; font: 8px 'PingFang SC', 'Heiti SC', 'STHeiti', 'Calibri', 'Arial', 'Helvetica Neue', 'Arial Unicode MS', 'Noto Sans CJK SC', 'DejaVu Sans', sans-serif" transform="translate(403.533054 291.870281) rotate(-60)">worker-0:d5</text>
     </g>
    </g>
    <g id="xtick_11">
     <g id="line2d_11">
      <g>
       <use xlink:href="#m8d322ed6cb" x="463.513512" y="242.597392" style="fill: #808080; stroke: #808080; stroke-width: 0.8"/>
      </g>
     </g>
     <g id="text_11">
      <text style="fill: #808080; font: 8px 'PingFang SC', 'Heiti SC', 'STHeiti', 'Calibri', 'Arial', 'Helvetica Neue', 'Arial Unicode MS', 'Noto Sans CJK SC', 'DejaVu Sans', sans-serif" transform="translate(437.800325 295.708938) rotate(-60)">worker-4:d10</text>
     </g>
    </g>
    <g id="xtick_12">
     <g id="line2d_12">
      <g>
       <use xlink:href="#m8d322ed6cb" x="499.997034" y="242.597392" style="fill: #808080; stroke: #808080; stroke-width: 0.8"/>
      </g>
     </g>
     <g id="text_12">
      <text style="fill: #808080; font: 8px 'PingFang SC', 'Heiti SC', 'STHeiti', 'Calibri', 'Arial', 'Helvetica Neue', 'Arial Unicode MS', 'Noto Sans CJK SC', 'DejaVu Sans', sans-serif" transform="translate(474.283846 295.708938) rotate(-60)">worker-2:d14</text>
     </g>
    </g>
    <g id="xtick_13">
     <g id="line2d_13">
      <g>
       <use xlink:href="#m8d322ed6cb" x="536.480555" y="242.597392" style="fill: #808080; stroke: #808080; stroke-width: 0.8"/>
      </g>
     </g>
     <g id="text_13">
      <text style="fill: #808080; font: 8px 'PingFang SC', 'Heiti SC', 'STHeiti', 'Calibri', 'Arial', 'Helvetica Neue', 'Arial Unicode MS', 'Noto Sans CJK SC', 'DejaVu Sans', sans-serif" transform="translate(510.767368 295.708938) rotate(-60)">worker-1:d15</text>
     </g>
    </g>
    <g id="xtick_14">
     <g id="line2d_14">
      <g>
       <use xlink:href="#m8d322ed6cb" x="572.964076" y="242.597392" style="fill: #808080; stroke: #808080; stroke-width: 0.8"/>
      </g>
     </g>
     <g id="text_14">
      <text style="fill: #808080; font: 8px 'PingFang SC', 'Heiti SC', 'STHeiti', 'Calibri', 'Arial', 'Helvetica Neue', 'Arial Unicode MS', 'Noto Sans CJK SC', 'DejaVu Sans', sans-serif" transform="translate(547.250889 295.708938) rotate(-60)">worker-0:d13</text>
     </g>
    </g>
    <g id="xtick_15">
     <g id="line2d_15">
      <g>
       <use xlink:href="#m8d322ed6cb" x="609.447597" y="242.597392" style="fill: #808080; stroke: #808080; stroke-width: 0.8"/>
      </g>
     </g>
     <g id="text_15">
      <text style="fill: #808080; font: 8px 'PingFang SC', 'Heiti SC', 'STHeiti', 'Calibri', 'Arial', 'Helvetica Neue', 'Arial Unicode MS', 'Noto Sans CJK SC', 'DejaVu Sans', sans-serif" transform="translate(583.73441 295.708938) rotate(-60)">worker-5:d13</text>
     </g>
    </g>
    <g id="xtick_16">
     <g id="line2d_16">
      <g>
       <use xlink:href="#m8d322ed6cb" x="645.931118" y="242.597392" style="fill: #808080; stroke: #808080; stroke-width: 0.8"/>
      </g>
     </g>
     <g id="text_16">
      <text style="fill: #808080; font: 8px 'PingFang SC', 'Heiti SC', 'STHeiti', 'Calibri', 'Arial', 'Helvetica Neue', 'Arial Unicode MS', 'Noto Sans CJK SC', 'DejaVu Sans', sans-serif" transform="translate(622.197931 292.279478) rotate(-60)">master-0:d7</text>
     </g>
    </g>
   </g>
   <g id="matplotlib.axis_2">
    <g id="ytick_1">
     <g id="line2d_17">
      <path d="M 67.5875 242.597392 
L 708.945 242.597392 
" clip-path="url(#p6d45800a3b)" style="fill: none; stroke-dasharray: 1,1.65; stroke-dashoffset: 0; stroke: #808080; stroke-opacity: 0.55"/>
     </g>
     <g id="line2d_18">
      <defs>
       <path id="me2e7431f29" d="M 0 0 
L -3.5 0 
" style="stroke: #808080; stroke-width: 0.8"/>
      </defs>
      <g>
       <use xlink:href="#me2e7431f29" x="67.5875" y="242.597392" style="fill: #808080; stroke: #808080; stroke-width: 0.8"/>
      </g>
     </g>
     <g id="text_17">
      <text style="fill: #808080; font: 22px 'PingFang SC', 'Heiti SC', 'STHeiti', 'Calibri', 'Arial', 'Helvetica Neue', 'Arial Unicode MS', 'Noto Sans CJK SC', 'DejaVu Sans', sans-serif; text-anchor: end" x="60.5875" y="251.352704" transform="rotate(-0 60.5875 251.352704)">0</text>
     </g>
    </g>
    <g id="ytick_2">
     <g id="line2d_19">
      <path d="M 67.5875 163.063213 
L 708.945 163.063213 
" clip-path="url(#p6d45800a3b)" style="fill: none; stroke-dasharray: 1,1.65; stroke-dashoffset: 0; stroke: #808080; stroke-opacity: 0.55"/>
     </g>
     <g id="line2d_20">
      <g>
       <use xlink:href="#me2e7431f29" x="67.5875" y="163.063213" style="fill: #808080; stroke: #808080; stroke-width: 0.8"/>
      </g>
     </g>
     <g id="text_18">
      <text style="fill: #808080; font: 22px 'PingFang SC', 'Heiti SC', 'STHeiti', 'Calibri', 'Arial', 'Helvetica Neue', 'Arial Unicode MS', 'Noto Sans CJK SC', 'DejaVu Sans', sans-serif; text-anchor: end" x="60.5875" y="171.818525" transform="rotate(-0 60.5875 171.818525)">5</text>
     </g>
    </g>
    <g id="ytick_3">
     <g id="line2d_21">
      <path d="M 67.5875 83.529034 
L 708.945 83.529034 
" clip-path="url(#p6d45800a3b)" style="fill: none; stroke-dasharray: 1,1.65; stroke-dashoffset: 0; stroke: #808080; stroke-opacity: 0.55"/>
     </g>
     <g id="line2d_22">
      <g>
       <use xlink:href="#me2e7431f29" x="67.5875" y="83.529034" style="fill: #808080; stroke: #808080; stroke-width: 0.8"/>
      </g>
     </g>
     <g id="text_19">
      <text style="fill: #808080; font: 22px 'PingFang SC', 'Heiti SC', 'STHeiti', 'Calibri', 'Arial', 'Helvetica Neue', 'Arial Unicode MS', 'Noto Sans CJK SC', 'DejaVu Sans', sans-serif; text-anchor: end" x="60.5875" y="92.284346" transform="rotate(-0 60.5875 92.284346)">10</text>
     </g>
    </g>
    <g id="text_20">
     <text style="font: 22px 'PingFang SC', 'Heiti SC', 'STHeiti', 'Calibri', 'Arial', 'Helvetica Neue', 'Arial Unicode MS', 'Noto Sans CJK SC', 'DejaVu Sans', sans-serif; text-anchor: middle" x="29.259375" y="138.928383" transform="rotate(-90 29.259375 138.928383)">Burst/kernel p50 (us)</text>
    </g>
   </g>
   <g id="patch_3">
    <path d="M 96.740114 242.597392 
L 100.616488 242.597392 
L 100.616488 151.962459 
L 96.740114 151.962459 
z
" clip-path="url(#p6d45800a3b)" style="fill: url(#h1901e141f3); stroke: #2ca02c; stroke-width: 2; stroke-linejoin: miter"/>
   </g>
   <g id="patch_4">
    <path d="M 101.300554 242.597392 
L 105.176928 242.597392 
L 105.176928 148.545426 
L 101.300554 148.545426 
z
" clip-path="url(#p6d45800a3b)" style="fill: url(#h1901e141f3); stroke: #2ca02c; stroke-width: 2; stroke-linejoin: miter"/>
   </g>
   <g id="patch_5">
    <path d="M 105.860994 242.597392 
L 109.737368 242.597392 
L 109.737368 146.904731 
L 105.860994 146.904731 
z
" clip-path="url(#p6d45800a3b)" style="fill: url(#h1901e141f3); stroke: #2ca02c; stroke-width: 2; stroke-linejoin: miter"/>
   </g>
   <g id="patch_6">
    <path d="M 110.421434 242.597392 
L 114.297808 242.597392 
L 114.297808 146.787605 
L 110.421434 146.787605 
z
" clip-path="url(#p6d45800a3b)" style="fill: url(#h1901e141f3); stroke: #2ca02c; stroke-width: 2; stroke-linejoin: miter"/>
   </g>
   <g id="patch_7">
    <path d="M 114.981874 242.597392 
L 118.858248 242.597392 
L 118.858248 146.673257 
L 114.981874 146.673257 
z
" clip-path="url(#p6d45800a3b)" style="fill: url(#h1901e141f3); stroke: #2ca02c; stroke-width: 2; stroke-linejoin: miter"/>
   </g>
   <g id="patch_8">
    <path d="M 119.542314 242.597392 
L 123.418688 242.597392 
L 123.418688 145.833465 
L 119.542314 145.833465 
z
" clip-path="url(#p6d45800a3b)" style="fill: url(#h1901e141f3); stroke: #2ca02c; stroke-width: 2; stroke-linejoin: miter"/>
   </g>
   <g id="patch_9">
    <path d="M 124.102755 242.597392 
L 127.979129 242.597392 
L 127.979129 145.745505 
L 124.102755 145.745505 
z
" clip-path="url(#p6d45800a3b)" style="fill: url(#h1901e141f3); stroke: #2ca02c; stroke-width: 2; stroke-linejoin: miter"/>
   </g>
   <g id="patch_10">
    <path d="M 128.663195 242.597392 
L 132.539569 242.597392 
L 132.539569 145.575139 
L 128.663195 145.575139 
z
" clip-path="url(#p6d45800a3b)" style="fill: url(#h1901e141f3); stroke: #2ca02c; stroke-width: 2; stroke-linejoin: miter"/>
   </g>
   <g id="patch_11">
    <path d="M 133.223635 242.597392 
L 137.100009 242.597392 
L 137.100009 143.758524 
L 133.223635 143.758524 
z
" clip-path="url(#p6d45800a3b)" style="fill: url(#h1901e141f3); stroke: #2ca02c; stroke-width: 2; stroke-linejoin: miter"/>
   </g>
   <g id="patch_12">
    <path d="M 137.784075 242.597392 
L 141.660449 242.597392 
L 141.660449 142.942344 
L 137.784075 142.942344 
z
" clip-path="url(#p6d45800a3b)" style="fill: url(#h1901e141f3); stroke: #2ca02c; stroke-width: 2; stroke-linejoin: miter"/>
   </g>
   <g id="patch_13">
    <path d="M 142.344515 242.597392 
L 146.220889 242.597392 
L 146.220889 142.672444 
L 142.344515 142.672444 
z
" clip-path="url(#p6d45800a3b)" style="fill: url(#h1901e141f3); stroke: #2ca02c; stroke-width: 2; stroke-linejoin: miter"/>
   </g>
   <g id="patch_14">
    <path d="M 146.904955 242.597392 
L 150.781329 242.597392 
L 150.781329 141.473867 
L 146.904955 141.473867 
z
" clip-path="url(#p6d45800a3b)" style="fill: url(#h1901e141f3); stroke: #2ca02c; stroke-width: 2; stroke-linejoin: miter"/>
   </g>
   <g id="patch_15">
    <path d="M 151.465395 242.597392 
L 155.34177 242.597392 
L 155.34177 141.303038 
L 151.465395 141.303038 
z
" clip-path="url(#p6d45800a3b)" style="fill: url(#h1901e141f3); stroke: #2ca02c; stroke-width: 2; stroke-linejoin: miter"/>
   </g>
   <g id="patch_16">
    <path d="M 156.025836 242.597392 
L 159.90221 242.597392 
L 159.90221 141.093322 
L 156.025836 141.093322 
z
" clip-path="url(#p6d45800a3b)" style="fill: url(#h1901e141f3); stroke: #2ca02c; stroke-width: 2; stroke-linejoin: miter"/>
   </g>
   <g id="patch_17">
    <path d="M 160.586276 242.597392 
L 164.46265 242.597392 
L 164.46265 140.243346 
L 160.586276 140.243346 
z
" clip-path="url(#p6d45800a3b)" style="fill: url(#h1901e141f3); stroke: #2ca02c; stroke-width: 2; stroke-linejoin: miter"/>
   </g>
   <g id="patch_18">
    <path d="M 165.146716 242.597392 
L 169.02309 242.597392 
L 169.02309 139.880856 
L 165.146716 139.880856 
z
" clip-path="url(#p6d45800a3b)" style="fill: url(#h1901e141f3); stroke: #2ca02c; stroke-width: 2; stroke-linejoin: miter"/>
   </g>
   <g id="patch_19">
    <path d="M 169.707156 242.597392 
L 173.58353 242.597392 
L 173.58353 139.632715 
L 169.707156 139.632715 
z
" clip-path="url(#p6d45800a3b)" style="fill: url(#h1901e141f3); stroke: #2ca02c; stroke-width: 2; stroke-linejoin: miter"/>
   </g>
   <g id="patch_20">
    <path d="M 174.267596 242.597392 
L 178.14397 242.597392 
L 178.14397 139.450776 
L 174.267596 139.450776 
z
" clip-path="url(#p6d45800a3b)" style="fill: url(#h1901e141f3); stroke: #2ca02c; stroke-width: 2; stroke-linejoin: miter"/>
   </g>
   <g id="patch_21">
    <path d="M 178.828036 242.597392 
L 182.70441 242.597392 
L 182.70441 139.097082 
L 178.828036 139.097082 
z
" clip-path="url(#p6d45800a3b)" style="fill: url(#h1901e141f3); stroke: #2ca02c; stroke-width: 2; stroke-linejoin: miter"/>
   </g>
   <g id="patch_22">
    <path d="M 183.388476 242.597392 
L 187.264851 242.597392 
L 187.264851 139.037825 
L 183.388476 139.037825 
z
" clip-path="url(#p6d45800a3b)" style="fill: url(#h1901e141f3); stroke: #2ca02c; stroke-width: 2; stroke-linejoin: miter"/>
   </g>
   <g id="patch_23">
    <path d="M 187.948917 242.597392 
L 191.825291 242.597392 
L 191.825291 138.66515 
L 187.948917 138.66515 
z
" clip-path="url(#p6d45800a3b)" style="fill: url(#h1901e141f3); stroke: #2ca02c; stroke-width: 2; stroke-linejoin: miter"/>
   </g>
   <g id="patch_24">
    <path d="M 192.509357 242.597392 
L 196.385731 242.597392 
L 196.385731 137.444351 
L 192.509357 137.444351 
z
" clip-path="url(#p6d45800a3b)" style="fill: url(#h1901e141f3); stroke: #2ca02c; stroke-width: 2; stroke-linejoin: miter"/>
   </g>
   <g id="patch_25">
    <path d="M 197.069797 242.597392 
L 200.946171 242.597392 
L 200.946171 137.221672 
L 197.069797 137.221672 
z
" clip-path="url(#p6d45800a3b)" style="fill: url(#h1901e141f3); stroke: #2ca02c; stroke-width: 2; stroke-linejoin: miter"/>
   </g>
   <g id="patch_26">
    <path d="M 201.630237 242.597392 
L 205.506611 242.597392 
L 205.506611 137.211487 
L 201.630237 137.211487 
z
" clip-path="url(#p6d45800a3b)" style="fill: url(#h1901e141f3); stroke: #2ca02c; stroke-width: 2; stroke-linejoin: miter"/>
   </g>
   <g id="patch_27">
    <path d="M 206.190677 242.597392 
L 210.067051 242.597392 
L 210.067051 136.595301 
L 206.190677 136.595301 
z
" clip-path="url(#p6d45800a3b)" style="fill: url(#h1901e141f3); stroke: #2ca02c; stroke-width: 2; stroke-linejoin: miter"/>
   </g>
   <g id="patch_28">
    <path d="M 210.751117 242.597392 
L 214.627491 242.597392 
L 214.627491 136.222164 
L 210.751117 136.222164 
z
" clip-path="url(#p6d45800a3b)" style="fill: url(#h1901e141f3); stroke: #2ca02c; stroke-width: 2; stroke-linejoin: miter"/>
   </g>
   <g id="patch_29">
    <path d="M 215.311557 242.597392 
L 219.187932 242.597392 
L 219.187932 136.008281 
L 215.311557 136.008281 
z
" clip-path="url(#p6d45800a3b)" style="fill: url(#h1901e141f3); stroke: #2ca02c; stroke-width: 2; stroke-linejoin: miter"/>
   </g>
   <g id="patch_30">
    <path d="M 219.871998 242.597392 
L 223.748372 242.597392 
L 223.748372 135.714308 
L 219.871998 135.714308 
z
" clip-path="url(#p6d45800a3b)" style="fill: url(#h1901e141f3); stroke: #2ca02c; stroke-width: 2; stroke-linejoin: miter"/>
   </g>
   <g id="patch_31">
    <path d="M 224.432438 242.597392 
L 228.308812 242.597392 
L 228.308812 135.658291 
L 224.432438 135.658291 
z
" clip-path="url(#p6d45800a3b)" style="fill: url(#h1901e141f3); stroke: #2ca02c; stroke-width: 2; stroke-linejoin: miter"/>
   </g>
   <g id="patch_32">
    <path d="M 228.992878 242.597392 
L 232.869252 242.597392 
L 232.869252 135.471259 
L 228.992878 135.471259 
z
" clip-path="url(#p6d45800a3b)" style="fill: url(#h1901e141f3); stroke: #2ca02c; stroke-width: 2; stroke-linejoin: miter"/>
   </g>
   <g id="patch_33">
    <path d="M 233.553318 242.597392 
L 237.429692 242.597392 
L 237.429692 134.191203 
L 233.553318 134.191203 
z
" clip-path="url(#p6d45800a3b)" style="fill: url(#h1901e141f3); stroke: #2ca02c; stroke-width: 2; stroke-linejoin: miter"/>
   </g>
   <g id="patch_34">
    <path d="M 238.113758 242.597392 
L 241.990132 242.597392 
L 241.990132 133.973153 
L 238.113758 133.973153 
z
" clip-path="url(#p6d45800a3b)" style="fill: url(#h1901e141f3); stroke: #2ca02c; stroke-width: 2; stroke-linejoin: miter"/>
   </g>
   <g id="patch_35">
    <path d="M 242.674198 242.597392 
L 246.550572 242.597392 
L 246.550572 133.932414 
L 242.674198 133.932414 
z
" clip-path="url(#p6d45800a3b)" style="fill: url(#h1901e141f3); stroke: #2ca02c; stroke-width: 2; stroke-linejoin: miter"/>
   </g>
   <g id="patch_36">
    <path d="M 247.234638 242.597392 
L 251.111013 242.597392 
L 251.111013 133.416225 
L 247.234638 133.416225 
z
" clip-path="url(#p6d45800a3b)" style="fill: url(#h1901e141f3); stroke: #2ca02c; stroke-width: 2; stroke-linejoin: miter"/>
   </g>
   <g id="patch_37">
    <path d="M 251.795079 242.597392 
L 255.671453 242.597392 
L 255.671453 133.372244 
L 251.795079 133.372244 
z
" clip-path="url(#p6d45800a3b)" style="fill: url(#h1901e141f3); stroke: #2ca02c; stroke-width: 2; stroke-linejoin: miter"/>
   </g>
   <g id="patch_38">
    <path d="M 256.355519 242.597392 
L 260.231893 242.597392 
L 260.231893 133.231508 
L 256.355519 133.231508 
z
" clip-path="url(#p6d45800a3b)" style="fill: url(#h1901e141f3); stroke: #2ca02c; stroke-width: 2; stroke-linejoin: miter"/>
   </g>
   <g id="patch_39">
    <path d="M 260.915959 242.597392 
L 264.792333 242.597392 
L 264.792333 132.648654 
L 260.915959 132.648654 
z
" clip-path="url(#p6d45800a3b)" style="fill: url(#h1901e141f3); stroke: #2ca02c; stroke-width: 2; stroke-linejoin: miter"/>
   </g>
   <g id="patch_40">
    <path d="M 265.476399 242.597392 
L 269.352773 242.597392 
L 269.352773 132.625969 
L 265.476399 132.625969 
z
" clip-path="url(#p6d45800a3b)" style="fill: url(#h1901e141f3); stroke: #2ca02c; stroke-width: 2; stroke-linejoin: miter"/>
   </g>
   <g id="patch_41">
    <path d="M 270.036839 242.597392 
L 273.913213 242.597392 
L 273.913213 132.569026 
L 270.036839 132.569026 
z
" clip-path="url(#p6d45800a3b)" style="fill: url(#h1901e141f3); stroke: #2ca02c; stroke-width: 2; stroke-linejoin: miter"/>
   </g>
   <g id="patch_42">
    <path d="M 274.597279 242.597392 
L 278.473653 242.597392 
L 278.473653 132.468566 
L 274.597279 132.468566 
z
" clip-path="url(#p6d45800a3b)" style="fill: url(#h1901e141f3); stroke: #2ca02c; stroke-width: 2; stroke-linejoin: miter"/>
   </g>
   <g id="patch_43">
    <path d="M 279.157719 242.597392 
L 283.034094 242.597392 
L 283.034094 132.22274 
L 279.157719 132.22274 
z
" clip-path="url(#p6d45800a3b)" style="fill: url(#h1901e141f3); stroke: #2ca02c; stroke-width: 2; stroke-linejoin: miter"/>
   </g>
   <g id="patch_44">
    <path d="M 283.71816 242.597392 
L 287.594534 242.597392 
L 287.594534 131.519982 
L 283.71816 131.519982 
z
" clip-path="url(#p6d45800a3b)" style="fill: url(#h1901e141f3); stroke: #2ca02c; stroke-width: 2; stroke-linejoin: miter"/>
   </g>
   <g id="patch_45">
    <path d="M 288.2786 242.597392 
L 292.154974 242.597392 
L 292.154974 131.459799 
L 288.2786 131.459799 
z
" clip-path="url(#p6d45800a3b)" style="fill: url(#h1901e141f3); stroke: #2ca02c; stroke-width: 2; stroke-linejoin: miter"/>
   </g>
   <g id="patch_46">
    <path d="M 292.83904 242.597392 
L 296.715414 242.597392 
L 296.715414 131.181103 
L 292.83904 131.181103 
z
" clip-path="url(#p6d45800a3b)" style="fill: url(#h1901e141f3); stroke: #2ca02c; stroke-width: 2; stroke-linejoin: miter"/>
   </g>
   <g id="patch_47">
    <path d="M 297.39948 242.597392 
L 301.275854 242.597392 
L 301.275854 130.729264 
L 297.39948 130.729264 
z
" clip-path="url(#p6d45800a3b)" style="fill: url(#h1901e141f3); stroke: #2ca02c; stroke-width: 2; stroke-linejoin: miter"/>
   </g>
   <g id="patch_48">
    <path d="M 301.95992 242.597392 
L 305.836294 242.597392 
L 305.836294 130.21863 
L 301.95992 130.21863 
z
" clip-path="url(#p6d45800a3b)" style="fill: url(#h1901e141f3); stroke: #2ca02c; stroke-width: 2; stroke-linejoin: miter"/>
   </g>
   <g id="patch_49">
    <path d="M 306.52036 242.597392 
L 310.396734 242.597392 
L 310.396734 130.068634 
L 306.52036 130.068634 
z
" clip-path="url(#p6d45800a3b)" style="fill: url(#h1901e141f3); stroke: #2ca02c; stroke-width: 2; stroke-linejoin: miter"/>
   </g>
   <g id="patch_50">
    <path d="M 311.080801 242.597392 
L 314.957175 242.597392 
L 314.957175 129.344581 
L 311.080801 129.344581 
z
" clip-path="url(#p6d45800a3b)" style="fill: url(#h1901e141f3); stroke: #2ca02c; stroke-width: 2; stroke-linejoin: miter"/>
   </g>
   <g id="patch_51">
    <path d="M 315.641241 242.597392 
L 319.517615 242.597392 
L 319.517615 129.113569 
L 315.641241 129.113569 
z
" clip-path="url(#p6d45800a3b)" style="fill: url(#h1901e141f3); stroke: #2ca02c; stroke-width: 2; stroke-linejoin: miter"/>
   </g>
   <g id="patch_52">
    <path d="M 320.201681 242.597392 
L 324.078055 242.597392 
L 324.078055 128.817744 
L 320.201681 128.817744 
z
" clip-path="url(#p6d45800a3b)" style="fill: url(#h1901e141f3); stroke: #2ca02c; stroke-width: 2; stroke-linejoin: miter"/>
   </g>
   <g id="patch_53">
    <path d="M 324.762121 242.597392 
L 328.638495 242.597392 
L 328.638495 128.772838 
L 324.762121 128.772838 
z
" clip-path="url(#p6d45800a3b)" style="fill: url(#h1901e141f3); stroke: #2ca02c; stroke-width: 2; stroke-linejoin: miter"/>
   </g>
   <g id="patch_54">
    <path d="M 329.322561 242.597392 
L 333.198935 242.597392 
L 333.198935 128.730709 
L 329.322561 128.730709 
z
" clip-path="url(#p6d45800a3b)" style="fill: url(#h1901e141f3); stroke: #2ca02c; stroke-width: 2; stroke-linejoin: miter"/>
   </g>
   <g id="patch_55">
    <path d="M 333.883001 242.597392 
L 337.759375 242.597392 
L 337.759375 128.678396 
L 333.883001 128.678396 
z
" clip-path="url(#p6d45800a3b)" style="fill: url(#h1901e141f3); stroke: #2ca02c; stroke-width: 2; stroke-linejoin: miter"/>
   </g>
   <g id="patch_56">
    <path d="M 338.443441 242.597392 
L 342.319816 242.597392 
L 342.319816 128.437662 
L 338.443441 128.437662 
z
" clip-path="url(#p6d45800a3b)" style="fill: url(#h1901e141f3); stroke: #2ca02c; stroke-width: 2; stroke-linejoin: miter"/>
   </g>
   <g id="patch_57">
    <path d="M 343.003882 242.597392 
L 346.880256 242.597392 
L 346.880256 128.416366 
L 343.003882 128.416366 
z
" clip-path="url(#p6d45800a3b)" style="fill: url(#h1901e141f3); stroke: #2ca02c; stroke-width: 2; stroke-linejoin: miter"/>
   </g>
   <g id="patch_58">
    <path d="M 347.564322 242.597392 
L 351.440696 242.597392 
L 351.440696 128.402941 
L 347.564322 128.402941 
z
" clip-path="url(#p6d45800a3b)" style="fill: url(#h1901e141f3); stroke: #2ca02c; stroke-width: 2; stroke-linejoin: miter"/>
   </g>
   <g id="patch_59">
    <path d="M 352.124762 242.597392 
L 356.001136 242.597392 
L 356.001136 127.530743 
L 352.124762 127.530743 
z
" clip-path="url(#p6d45800a3b)" style="fill: url(#h1901e141f3); stroke: #2ca02c; stroke-width: 2; stroke-linejoin: miter"/>
   </g>
   <g id="patch_60">
    <path d="M 356.685202 242.597392 
L 360.561576 242.597392 
L 360.561576 127.307138 
L 356.685202 127.307138 
z
" clip-path="url(#p6d45800a3b)" style="fill: url(#h1901e141f3); stroke: #2ca02c; stroke-width: 2; stroke-linejoin: miter"/>
   </g>
   <g id="patch_61">
    <path d="M 361.245642 242.597392 
L 365.122016 242.597392 
L 365.122016 127.12057 
L 361.245642 127.12057 
z
" clip-path="url(#p6d45800a3b)" style="fill: url(#h1901e141f3); stroke: #2ca02c; stroke-width: 2; stroke-linejoin: miter"/>
   </g>
   <g id="patch_62">
    <path d="M 365.806082 242.597392 
L 369.682456 242.597392 
L 369.682456 125.971991 
L 365.806082 125.971991 
z
" clip-path="url(#p6d45800a3b)" style="fill: url(#h1901e141f3); stroke: #2ca02c; stroke-width: 2; stroke-linejoin: miter"/>
   </g>
   <g id="patch_63">
    <path d="M 370.366522 242.597392 
L 374.242897 242.597392 
L 374.242897 125.743757 
L 370.366522 125.743757 
z
" clip-path="url(#p6d45800a3b)" style="fill: url(#h1901e141f3); stroke: #2ca02c; stroke-width: 2; stroke-linejoin: miter"/>
   </g>
   <g id="patch_64">
    <path d="M 374.926963 242.597392 
L 378.803337 242.597392 
L 378.803337 125.62663 
L 374.926963 125.62663 
z
" clip-path="url(#p6d45800a3b)" style="fill: url(#h1901e141f3); stroke: #2ca02c; stroke-width: 2; stroke-linejoin: miter"/>
   </g>
   <g id="patch_65">
    <path d="M 379.487403 242.597392 
L 383.363777 242.597392 
L 383.363777 125.201642 
L 379.487403 125.201642 
z
" clip-path="url(#p6d45800a3b)" style="fill: url(#h1901e141f3); stroke: #2ca02c; stroke-width: 2; stroke-linejoin: miter"/>
   </g>
   <g id="patch_66">
    <path d="M 384.047843 242.597392 
L 387.924217 242.597392 
L 387.924217 125.194698 
L 384.047843 125.194698 
z
" clip-path="url(#p6d45800a3b)" style="fill: url(#h1901e141f3); stroke: #2ca02c; stroke-width: 2; stroke-linejoin: miter"/>
   </g>
   <g id="patch_67">
    <path d="M 388.608283 242.597392 
L 392.484657 242.597392 
L 392.484657 125.116923 
L 388.608283 125.116923 
z
" clip-path="url(#p6d45800a3b)" style="fill: url(#h54c2b0bb67); stroke: #ff7f0e; stroke-width: 2; stroke-linejoin: miter"/>
   </g>
   <g id="patch_68">
    <path d="M 393.168723 242.597392 
L 397.045097 242.597392 
L 397.045097 124.429442 
L 393.168723 124.429442 
z
" clip-path="url(#p6d45800a3b)" style="fill: url(#h54c2b0bb67); stroke: #ff7f0e; stroke-width: 2; stroke-linejoin: miter"/>
   </g>
   <g id="patch_69">
    <path d="M 397.729163 242.597392 
L 401.605537 242.597392 
L 401.605537 123.546134 
L 397.729163 123.546134 
z
" clip-path="url(#p6d45800a3b)" style="fill: url(#h54c2b0bb67); stroke: #ff7f0e; stroke-width: 2; stroke-linejoin: miter"/>
   </g>
   <g id="patch_70">
    <path d="M 402.289603 242.597392 
L 406.165978 242.597392 
L 406.165978 123.434563 
L 402.289603 123.434563 
z
" clip-path="url(#p6d45800a3b)" style="fill: url(#h54c2b0bb67); stroke: #ff7f0e; stroke-width: 2; stroke-linejoin: miter"/>
   </g>
   <g id="patch_71">
    <path d="M 406.850044 242.597392 
L 410.726418 242.597392 
L 410.726418 123.399842 
L 406.850044 123.399842 
z
" clip-path="url(#p6d45800a3b)" style="fill: url(#h54c2b0bb67); stroke: #ff7f0e; stroke-width: 2; stroke-linejoin: miter"/>
   </g>
   <g id="patch_72">
    <path d="M 411.410484 242.597392 
L 415.286858 242.597392 
L 415.286858 123.24105 
L 411.410484 123.24105 
z
" clip-path="url(#p6d45800a3b)" style="fill: url(#h54c2b0bb67); stroke: #ff7f0e; stroke-width: 2; stroke-linejoin: miter"/>
   </g>
   <g id="patch_73">
    <path d="M 415.970924 242.597392 
L 419.847298 242.597392 
L 419.847298 123.224847 
L 415.970924 123.224847 
z
" clip-path="url(#p6d45800a3b)" style="fill: url(#h54c2b0bb67); stroke: #ff7f0e; stroke-width: 2; stroke-linejoin: miter"/>
   </g>
   <g id="patch_74">
    <path d="M 420.531364 242.597392 
L 424.407738 242.597392 
L 424.407738 122.863283 
L 420.531364 122.863283 
z
" clip-path="url(#p6d45800a3b)" style="fill: url(#h54c2b0bb67); stroke: #ff7f0e; stroke-width: 2; stroke-linejoin: miter"/>
   </g>
   <g id="patch_75">
    <path d="M 425.091804 242.597392 
L 428.968178 242.597392 
L 428.968178 122.192005 
L 425.091804 122.192005 
z
" clip-path="url(#p6d45800a3b)" style="fill: url(#h54c2b0bb67); stroke: #ff7f0e; stroke-width: 2; stroke-linejoin: miter"/>
   </g>
   <g id="patch_76">
    <path d="M 429.652244 242.597392 
L 433.528618 242.597392 
L 433.528618 122.062379 
L 429.652244 122.062379 
z
" clip-path="url(#p6d45800a3b)" style="fill: url(#h54c2b0bb67); stroke: #ff7f0e; stroke-width: 2; stroke-linejoin: miter"/>
   </g>
   <g id="patch_77">
    <path d="M 434.212684 242.597392 
L 438.089059 242.597392 
L 438.089059 121.677668 
L 434.212684 121.677668 
z
" clip-path="url(#p6d45800a3b)" style="fill: url(#h54c2b0bb67); stroke: #ff7f0e; stroke-width: 2; stroke-linejoin: miter"/>
   </g>
   <g id="patch_78">
    <path d="M 438.773125 242.597392 
L 442.649499 242.597392 
L 442.649499 121.641558 
L 438.773125 121.641558 
z
" clip-path="url(#p6d45800a3b)" style="fill: url(#h54c2b0bb67); stroke: #ff7f0e; stroke-width: 2; stroke-linejoin: miter"/>
   </g>
   <g id="patch_79">
    <path d="M 443.333565 242.597392 
L 447.209939 242.597392 
L 447.209939 121.508691 
L 443.333565 121.508691 
z
" clip-path="url(#p6d45800a3b)" style="fill: url(#h54c2b0bb67); stroke: #ff7f0e; stroke-width: 2; stroke-linejoin: miter"/>
   </g>
   <g id="patch_80">
    <path d="M 447.894005 242.597392 
L 451.770379 242.597392 
L 451.770379 120.936948 
L 447.894005 120.936948 
z
" clip-path="url(#p6d45800a3b)" style="fill: url(#h54c2b0bb67); stroke: #ff7f0e; stroke-width: 2; stroke-linejoin: miter"/>
   </g>
   <g id="patch_81">
    <path d="M 452.454445 242.597392 
L 456.330819 242.597392 
L 456.330819 120.076788 
L 452.454445 120.076788 
z
" clip-path="url(#p6d45800a3b)" style="fill: url(#h54c2b0bb67); stroke: #ff7f0e; stroke-width: 2; stroke-linejoin: miter"/>
   </g>
   <g id="patch_82">
    <path d="M 457.014885 242.597392 
L 460.891259 242.597392 
L 460.891259 119.643929 
L 457.014885 119.643929 
z
" clip-path="url(#p6d45800a3b)" style="fill: url(#h54c2b0bb67); stroke: #ff7f0e; stroke-width: 2; stroke-linejoin: miter"/>
   </g>
   <g id="patch_83">
    <path d="M 461.575325 242.597392 
L 465.451699 242.597392 
L 465.451699 119.524488 
L 461.575325 119.524488 
z
" clip-path="url(#p6d45800a3b)" style="fill: url(#h54c2b0bb67); stroke: #ff7f0e; stroke-width: 2; stroke-linejoin: miter"/>
   </g>
   <g id="patch_84">
    <path d="M 466.135766 242.597392 
L 470.01214 242.597392 
L 470.01214 119.334679 
L 466.135766 119.334679 
z
" clip-path="url(#p6d45800a3b)" style="fill: url(#h54c2b0bb67); stroke: #ff7f0e; stroke-width: 2; stroke-linejoin: miter"/>
   </g>
   <g id="patch_85">
    <path d="M 470.696206 242.597392 
L 474.57258 242.597392 
L 474.57258 119.043021 
L 470.696206 119.043021 
z
" clip-path="url(#p6d45800a3b)" style="fill: url(#h54c2b0bb67); stroke: #ff7f0e; stroke-width: 2; stroke-linejoin: miter"/>
   </g>
   <g id="patch_86">
    <path d="M 475.256646 242.597392 
L 479.13302 242.597392 
L 479.13302 118.830527 
L 475.256646 118.830527 
z
" clip-path="url(#p6d45800a3b)" style="fill: url(#h54c2b0bb67); stroke: #ff7f0e; stroke-width: 2; stroke-linejoin: miter"/>
   </g>
   <g id="patch_87">
    <path d="M 479.817086 242.597392 
L 483.69346 242.597392 
L 483.69346 117.162055 
L 479.817086 117.162055 
z
" clip-path="url(#p6d45800a3b)" style="fill: url(#h54c2b0bb67); stroke: #ff7f0e; stroke-width: 2; stroke-linejoin: miter"/>
   </g>
   <g id="patch_88">
    <path d="M 484.377526 242.597392 
L 488.2539 242.597392 
L 488.2539 116.032458 
L 484.377526 116.032458 
z
" clip-path="url(#p6d45800a3b)" style="fill: url(#h54c2b0bb67); stroke: #ff7f0e; stroke-width: 2; stroke-linejoin: miter"/>
   </g>
   <g id="patch_89">
    <path d="M 488.937966 242.597392 
L 492.81434 242.597392 
L 492.81434 115.409327 
L 488.937966 115.409327 
z
" clip-path="url(#p6d45800a3b)" style="fill: url(#h54c2b0bb67); stroke: #ff7f0e; stroke-width: 2; stroke-linejoin: miter"/>
   </g>
   <g id="patch_90">
    <path d="M 493.498406 242.597392 
L 497.374781 242.597392 
L 497.374781 115.069059 
L 493.498406 115.069059 
z
" clip-path="url(#p6d45800a3b)" style="fill: url(#h54c2b0bb67); stroke: #ff7f0e; stroke-width: 2; stroke-linejoin: miter"/>
   </g>
   <g id="patch_91">
    <path d="M 498.058847 242.597392 
L 501.935221 242.597392 
L 501.935221 113.246888 
L 498.058847 113.246888 
z
" clip-path="url(#p6d45800a3b)" style="fill: url(#h54c2b0bb67); stroke: #ff7f0e; stroke-width: 2; stroke-linejoin: miter"/>
   </g>
   <g id="patch_92">
    <path d="M 502.619287 242.597392 
L 506.495661 242.597392 
L 506.495661 111.508975 
L 502.619287 111.508975 
z
" clip-path="url(#p6d45800a3b)" style="fill: url(#h54c2b0bb67); stroke: #ff7f0e; stroke-width: 2; stroke-linejoin: miter"/>
   </g>
   <g id="patch_93">
    <path d="M 507.179727 242.597392 
L 511.056101 242.597392 
L 511.056101 110.945102 
L 507.179727 110.945102 
z
" clip-path="url(#p6d45800a3b)" style="fill: url(#h54c2b0bb67); stroke: #ff7f0e; stroke-width: 2; stroke-linejoin: miter"/>
   </g>
   <g id="patch_94">
    <path d="M 511.740167 242.597392 
L 515.616541 242.597392 
L 515.616541 110.771496 
L 511.740167 110.771496 
z
" clip-path="url(#p6d45800a3b)" style="fill: url(#h54c2b0bb67); stroke: #ff7f0e; stroke-width: 2; stroke-linejoin: miter"/>
   </g>
   <g id="patch_95">
    <path d="M 516.300607 242.597392 
L 520.176981 242.597392 
L 520.176981 109.767357 
L 516.300607 109.767357 
z
" clip-path="url(#p6d45800a3b)" style="fill: url(#h54c2b0bb67); stroke: #ff7f0e; stroke-width: 2; stroke-linejoin: miter"/>
   </g>
   <g id="patch_96">
    <path d="M 520.861047 242.597392 
L 524.737421 242.597392 
L 524.737421 108.668777 
L 520.861047 108.668777 
z
" clip-path="url(#p6d45800a3b)" style="fill: url(#h54c2b0bb67); stroke: #ff7f0e; stroke-width: 2; stroke-linejoin: miter"/>
   </g>
   <g id="patch_97">
    <path d="M 525.421487 242.597392 
L 529.297862 242.597392 
L 529.297862 102.981901 
L 525.421487 102.981901 
z
" clip-path="url(#p6d45800a3b)" style="fill: url(#h54c2b0bb67); stroke: #ff7f0e; stroke-width: 2; stroke-linejoin: miter"/>
   </g>
   <g id="patch_98">
    <path d="M 529.981928 242.597392 
L 533.858302 242.597392 
L 533.858302 102.869868 
L 529.981928 102.869868 
z
" clip-path="url(#p6d45800a3b)" style="fill: url(#h54c2b0bb67); stroke: #ff7f0e; stroke-width: 2; stroke-linejoin: miter"/>
   </g>
   <g id="patch_99">
    <path d="M 534.542368 242.597392 
L 538.418742 242.597392 
L 538.418742 101.140287 
L 534.542368 101.140287 
z
" clip-path="url(#p6d45800a3b)" style="fill: url(#h54c2b0bb67); stroke: #ff7f0e; stroke-width: 2; stroke-linejoin: miter"/>
   </g>
   <g id="patch_100">
    <path d="M 539.102808 242.597392 
L 542.979182 242.597392 
L 542.979182 100.874554 
L 539.102808 100.874554 
z
" clip-path="url(#p6d45800a3b)" style="fill: url(#h54c2b0bb67); stroke: #ff7f0e; stroke-width: 2; stroke-linejoin: miter"/>
   </g>
   <g id="patch_101">
    <path d="M 543.663248 242.597392 
L 547.539622 242.597392 
L 547.539622 100.610672 
L 543.663248 100.610672 
z
" clip-path="url(#p6d45800a3b)" style="fill: url(#h54c2b0bb67); stroke: #ff7f0e; stroke-width: 2; stroke-linejoin: miter"/>
   </g>
   <g id="patch_102">
    <path d="M 548.223688 242.597392 
L 552.100062 242.597392 
L 552.100062 100.314847 
L 548.223688 100.314847 
z
" clip-path="url(#p6d45800a3b)" style="fill: url(#h54c2b0bb67); stroke: #ff7f0e; stroke-width: 2; stroke-linejoin: miter"/>
   </g>
   <g id="patch_103">
    <path d="M 552.784128 242.597392 
L 556.660502 242.597392 
L 556.660502 100.153741 
L 552.784128 100.153741 
z
" clip-path="url(#p6d45800a3b)" style="fill: url(#h54c2b0bb67); stroke: #ff7f0e; stroke-width: 2; stroke-linejoin: miter"/>
   </g>
   <g id="patch_104">
    <path d="M 557.344568 242.597392 
L 561.220943 242.597392 
L 561.220943 99.469038 
L 557.344568 99.469038 
z
" clip-path="url(#p6d45800a3b)" style="fill: url(#h54c2b0bb67); stroke: #ff7f0e; stroke-width: 2; stroke-linejoin: miter"/>
   </g>
   <g id="patch_105">
    <path d="M 561.905009 242.597392 
L 565.781383 242.597392 
L 565.781383 98.977385 
L 561.905009 98.977385 
z
" clip-path="url(#p6d45800a3b)" style="fill: url(#h54c2b0bb67); stroke: #ff7f0e; stroke-width: 2; stroke-linejoin: miter"/>
   </g>
   <g id="patch_106">
    <path d="M 566.465449 242.597392 
L 570.341823 242.597392 
L 570.341823 98.475548 
L 566.465449 98.475548 
z
" clip-path="url(#p6d45800a3b)" style="fill: url(#h54c2b0bb67); stroke: #ff7f0e; stroke-width: 2; stroke-linejoin: miter"/>
   </g>
   <g id="patch_107">
    <path d="M 571.025889 242.597392 
L 574.902263 242.597392 
L 574.902263 98.184815 
L 571.025889 98.184815 
z
" clip-path="url(#p6d45800a3b)" style="fill: url(#h54c2b0bb67); stroke: #ff7f0e; stroke-width: 2; stroke-linejoin: miter"/>
   </g>
   <g id="patch_108">
    <path d="M 575.586329 242.597392 
L 579.462703 242.597392 
L 579.462703 97.903804 
L 575.586329 97.903804 
z
" clip-path="url(#p6d45800a3b)" style="fill: url(#h54c2b0bb67); stroke: #ff7f0e; stroke-width: 2; stroke-linejoin: miter"/>
   </g>
   <g id="patch_109">
    <path d="M 580.146769 242.597392 
L 584.023143 242.597392 
L 584.023143 97.006608 
L 580.146769 97.006608 
z
" clip-path="url(#p6d45800a3b)" style="fill: url(#h54c2b0bb67); stroke: #ff7f0e; stroke-width: 2; stroke-linejoin: miter"/>
   </g>
   <g id="patch_110">
    <path d="M 584.707209 242.597392 
L 588.583583 242.597392 
L 588.583583 96.104781 
L 584.707209 96.104781 
z
" clip-path="url(#p6d45800a3b)" style="fill: url(#h54c2b0bb67); stroke: #ff7f0e; stroke-width: 2; stroke-linejoin: miter"/>
   </g>
   <g id="patch_111">
    <path d="M 589.267649 242.597392 
L 593.144024 242.597392 
L 593.144024 95.413134 
L 589.267649 95.413134 
z
" clip-path="url(#p6d45800a3b)" style="fill: url(#h54c2b0bb67); stroke: #ff7f0e; stroke-width: 2; stroke-linejoin: miter"/>
   </g>
   <g id="patch_112">
    <path d="M 593.82809 242.597392 
L 597.704464 242.597392 
L 597.704464 95.386283 
L 593.82809 95.386283 
z
" clip-path="url(#p6d45800a3b)" style="fill: url(#h54c2b0bb67); stroke: #ff7f0e; stroke-width: 2; stroke-linejoin: miter"/>
   </g>
   <g id="patch_113">
    <path d="M 598.38853 242.597392 
L 602.264904 242.597392 
L 602.264904 94.97611 
L 598.38853 94.97611 
z
" clip-path="url(#p6d45800a3b)" style="fill: url(#h54c2b0bb67); stroke: #ff7f0e; stroke-width: 2; stroke-linejoin: miter"/>
   </g>
   <g id="patch_114">
    <path d="M 602.94897 242.597392 
L 606.825344 242.597392 
L 606.825344 94.60575 
L 602.94897 94.60575 
z
" clip-path="url(#p6d45800a3b)" style="fill: url(#h54c2b0bb67); stroke: #ff7f0e; stroke-width: 2; stroke-linejoin: miter"/>
   </g>
   <g id="patch_115">
    <path d="M 607.50941 242.597392 
L 611.385784 242.597392 
L 611.385784 93.024776 
L 607.50941 93.024776 
z
" clip-path="url(#p6d45800a3b)" style="fill: url(#h54c2b0bb67); stroke: #ff7f0e; stroke-width: 2; stroke-linejoin: miter"/>
   </g>
   <g id="patch_116">
    <path d="M 612.06985 242.597392 
L 615.946224 242.597392 
L 615.946224 92.612751 
L 612.06985 92.612751 
z
" clip-path="url(#p6d45800a3b)" style="fill: url(#h54c2b0bb67); stroke: #ff7f0e; stroke-width: 2; stroke-linejoin: miter"/>
   </g>
   <g id="patch_117">
    <path d="M 616.63029 242.597392 
L 620.506664 242.597392 
L 620.506664 91.831754 
L 616.63029 91.831754 
z
" clip-path="url(#p6d45800a3b)" style="fill: url(#h54c2b0bb67); stroke: #ff7f0e; stroke-width: 2; stroke-linejoin: miter"/>
   </g>
   <g id="patch_118">
    <path d="M 621.19073 242.597392 
L 625.067105 242.597392 
L 625.067105 90.567438 
L 621.19073 90.567438 
z
" clip-path="url(#p6d45800a3b)" style="fill: url(#h54c2b0bb67); stroke: #ff7f0e; stroke-width: 2; stroke-linejoin: miter"/>
   </g>
   <g id="patch_119">
    <path d="M 625.751171 242.597392 
L 629.627545 242.597392 
L 629.627545 90.366055 
L 625.751171 90.366055 
z
" clip-path="url(#p6d45800a3b)" style="fill: url(#h54c2b0bb67); stroke: #ff7f0e; stroke-width: 2; stroke-linejoin: miter"/>
   </g>
   <g id="patch_120">
    <path d="M 630.311611 242.597392 
L 634.187985 242.597392 
L 634.187985 89.105905 
L 630.311611 89.105905 
z
" clip-path="url(#p6d45800a3b)" style="fill: url(#h54c2b0bb67); stroke: #ff7f0e; stroke-width: 2; stroke-linejoin: miter"/>
   </g>
   <g id="patch_121">
    <path d="M 634.872051 242.597392 
L 638.748425 242.597392 
L 638.748425 88.417499 
L 634.872051 88.417499 
z
" clip-path="url(#p6d45800a3b)" style="fill: url(#h54c2b0bb67); stroke: #ff7f0e; stroke-width: 2; stroke-linejoin: miter"/>
   </g>
   <g id="patch_122">
    <path d="M 639.432491 242.597392 
L 643.308865 242.597392 
L 643.308865 87.833719 
L 639.432491 87.833719 
z
" clip-path="url(#p6d45800a3b)" style="fill: url(#h54c2b0bb67); stroke: #ff7f0e; stroke-width: 2; stroke-linejoin: miter"/>
   </g>
   <g id="patch_123">
    <path d="M 643.992931 242.597392 
L 647.869305 242.597392 
L 647.869305 85.491656 
L 643.992931 85.491656 
z
" clip-path="url(#p6d45800a3b)" style="fill: url(#h54c2b0bb67); stroke: #ff7f0e; stroke-width: 2; stroke-linejoin: miter"/>
   </g>
   <g id="patch_124">
    <path d="M 648.553371 242.597392 
L 652.429745 242.597392 
L 652.429745 84.852785 
L 648.553371 84.852785 
z
" clip-path="url(#p6d45800a3b)" style="fill: url(#h54c2b0bb67); stroke: #ff7f0e; stroke-width: 2; stroke-linejoin: miter"/>
   </g>
   <g id="patch_125">
    <path d="M 653.113812 242.597392 
L 656.990186 242.597392 
L 656.990186 82.314894 
L 653.113812 82.314894 
z
" clip-path="url(#p6d45800a3b)" style="fill: url(#h54c2b0bb67); stroke: #ff7f0e; stroke-width: 2; stroke-linejoin: miter"/>
   </g>
   <g id="patch_126">
    <path d="M 657.674252 242.597392 
L 661.550626 242.597392 
L 661.550626 71.13234 
L 657.674252 71.13234 
z
" clip-path="url(#p6d45800a3b)" style="fill: url(#h54c2b0bb67); stroke: #ff7f0e; stroke-width: 2; stroke-linejoin: miter"/>
   </g>
   <g id="patch_127">
    <path d="M 662.234692 242.597392 
L 666.111066 242.597392 
L 666.111066 68.609264 
L 662.234692 68.609264 
z
" clip-path="url(#p6d45800a3b)" style="fill: url(#h54c2b0bb67); stroke: #ff7f0e; stroke-width: 2; stroke-linejoin: miter"/>
   </g>
   <g id="patch_128">
    <path d="M 666.795132 242.597392 
L 670.671506 242.597392 
L 670.671506 65.506111 
L 666.795132 65.506111 
z
" clip-path="url(#p6d45800a3b)" style="fill: url(#h54c2b0bb67); stroke: #ff7f0e; stroke-width: 2; stroke-linejoin: miter"/>
   </g>
   <g id="patch_129">
    <path d="M 671.355572 242.597392 
L 675.231946 242.597392 
L 675.231946 62.625174 
L 671.355572 62.625174 
z
" clip-path="url(#p6d45800a3b)" style="fill: url(#h54c2b0bb67); stroke: #ff7f0e; stroke-width: 2; stroke-linejoin: miter"/>
   </g>
   <g id="patch_130">
    <path d="M 675.916012 242.597392 
L 679.792386 242.597392 
L 679.792386 45.132614 
L 675.916012 45.132614 
z
" clip-path="url(#p6d45800a3b)" style="fill: url(#h54c2b0bb67); stroke: #ff7f0e; stroke-width: 2; stroke-linejoin: miter"/>
   </g>
   <g id="line2d_23">
    <path d="M 67.5875 125.15581 
L 708.945 125.15581 
" clip-path="url(#p6d45800a3b)" style="fill: none; stroke-dasharray: 4.44,1.92; stroke-dashoffset: 0; stroke: #f58518; stroke-width: 1.2"/>
   </g>
   <g id="patch_131">
    <path d="M 67.5875 242.597392 
L 67.5875 35.259375 
" style="fill: none; stroke: #808080; stroke-width: 0.8; stroke-linejoin: miter; stroke-linecap: square"/>
   </g>
   <g id="patch_132">
    <path d="M 67.5875 242.597392 
L 708.945 242.597392 
" style="fill: none; stroke: #808080; stroke-width: 0.8; stroke-linejoin: miter; stroke-linecap: square"/>
   </g>
   <g id="text_21">
    <text style="font: 22px 'PingFang SC', 'Heiti SC', 'STHeiti', 'Calibri', 'Arial', 'Helvetica Neue', 'Arial Unicode MS', 'Noto Sans CJK SC', 'DejaVu Sans', sans-serif; text-anchor: middle" x="388.26625" y="29.259375" transform="rotate(-0 388.26625 29.259375)">排序条形 · Burst/kernel p50 (us)</text>
   </g>
   <g id="legend_1">
    <g id="patch_133">
     <path d="M 75.9875 62.019375 
L 196.769375 62.019375 
Q 199.169375 62.019375 199.169375 59.619375 
L 199.169375 43.659375 
Q 199.169375 41.259375 196.769375 41.259375 
L 75.9875 41.259375 
Q 73.5875 41.259375 73.5875 43.659375 
L 73.5875 59.619375 
Q 73.5875 62.019375 75.9875 62.019375 
z
" style="fill: #ffffff; opacity: 0.5; stroke: #cccccc; stroke-linejoin: miter"/>
    </g>
    <g id="line2d_24">
     <path d="M 78.3875 51.410625 
L 90.3875 51.410625 
L 102.3875 51.410625 
" style="fill: none; stroke-dasharray: 4.44,1.92; stroke-dashoffset: 0; stroke: #f58518; stroke-width: 1.2"/>
    </g>
    <g id="text_22">
     <text style="font: 12px 'PingFang SC', 'Heiti SC', 'STHeiti', 'Calibri', 'Arial', 'Helvetica Neue', 'Arial Unicode MS', 'Noto Sans CJK SC', 'DejaVu Sans', sans-serif; text-anchor: start" x="111.9875" y="55.610625" transform="rotate(-0 111.9875 55.610625)">median=7.383</text>
    </g>
   </g>
  </g>
 </g>
 <defs>
  <clipPath id="p6d45800a3b">
   <rect x="67.5875" y="35.259375" width="641.3575" height="207.338017"/>
  </clipPath>
 </defs>
 <defs>
  <pattern id="h1901e141f3" patternUnits="userSpaceOnUse" x="0" y="0" width="72" height="72">
   <rect x="0" y="0" width="73" height="73" fill="none"/>
   <path d="M -36 36 
L 36 -36 
M -30 42 
L 42 -30 
M -24 48 
L 48 -24 
M -18 54 
L 54 -18 
M -12 60 
L 60 -12 
M -6 66 
L 66 -6 
M 0 72 
L 72 0 
M 6 78 
L 78 6 
M 12 84 
L 84 12 
M 18 90 
L 90 18 
M 24 96 
L 96 24 
M 30 102 
L 102 30 
M 36 108 
L 108 36 
M -36 36 
L 36 108 
M -30 30 
L 42 102 
M -24 24 
L 48 96 
M -18 18 
L 54 90 
M -12 12 
L 60 84 
M -6 6 
L 66 78 
M 0 0 
L 72 72 
M 6 -6 
L 78 66 
M 12 -12 
L 84 60 
M 18 -18 
L 90 54 
M 24 -24 
L 96 48 
M 30 -30 
L 102 42 
M 36 -36 
L 108 36 
" style="fill: #2ca02c; stroke: #2ca02c; stroke-width: 1.0; stroke-linecap: butt; stroke-linejoin: miter"/>
  </pattern>
  <pattern id="h54c2b0bb67" patternUnits="userSpaceOnUse" x="0" y="0" width="72" height="72">
   <rect x="0" y="0" width="73" height="73" fill="none"/>
   <path d="M -36 36 
L 36 -36 
M -30 42 
L 42 -30 
M -24 48 
L 48 -24 
M -18 54 
L 54 -18 
M -12 60 
L 60 -12 
M -6 66 
L 66 -6 
M 0 72 
L 72 0 
M 6 78 
L 78 6 
M 12 84 
L 84 12 
M 18 90 
L 90 18 
M 24 96 
L 96 24 
M 30 102 
L 102 30 
M 36 108 
L 108 36 
" style="fill: #ff7f0e; stroke: #ff7f0e; stroke-width: 1.0; stroke-linecap: butt; stroke-linejoin: miter"/>
  </pattern>
 </defs>
</svg>
