<?xml version="1.0" encoding="utf-8" standalone="no"?>
<!DOCTYPE svg PUBLIC "-//W3C//DTD SVG 1.1//EN"
  "http://www.w3.org/Graphics/SVG/1.1/DTD/svg11.dtd">
<svg xmlns:xlink="http://www.w3.org/1999/xlink" width="719.548125pt" height="307.086549pt" viewBox="0 0 719.548125 307.086549" xmlns="http://www.w3.org/2000/svg" version="1.1">
 <metadata>
  <rdf:RDF xmlns:dc="http://purl.org/dc/elements/1.1/" xmlns:cc="http://creativecommons.org/ns#" xmlns:rdf="http://www.w3.org/1999/02/22-rdf-syntax-ns#">
   <cc:Work>
    <dc:type rdf:resource="http://purl.org/dc/dcmitype/StillImage"/>
    <dc:date>2026-07-11T20:14:08.735562</dc:date>
    <dc:format>image/svg+xml</dc:format>
    <dc:creator>
     <cc:Agent>
      <dc:title>Matplotlib v3.9.4, https://matplotlib.org/</dc:title>
     </cc:Agent>
    </dc:creator>
   </cc:Work>
  </rdf:RDF>
 </metadata>
 <defs>
  <style type="text/css">*{stroke-linejoin: round; stroke-linecap: butt}</style>
 </defs>
 <g id="figure_1">
  <g id="patch_1">
   <path d="M 0 307.086549 
L 719.548125 307.086549 
L 719.548125 0 
L 0 0 
z
" style="fill: #ffffff"/>
  </g>
  <g id="axes_1">
   <g id="patch_2">
    <path d="M 78.828125 242.229555 
L 708.748125 242.229555 
L 708.748125 34.4 
L 78.828125 34.4 
z
" style="fill: #ffffff"/>
   </g>
   <g id="matplotlib.axis_1">
    <g id="xtick_1">
     <g id="line2d_1">
      <defs>
       <path id="m827f5825c1" d="M 0 0 
L 0 3.5 
" style="stroke: #808080; stroke-width: 0.8"/>
      </defs>
      <g>
       <use xlink:href="#m827f5825c1" x="109.364475" y="242.229555" style="fill: #808080; stroke: #808080; stroke-width: 0.8"/>
      </g>
     </g>
     <g id="text_1">
      <text style="fill: #808080; font: 8px 'PingFang SC', 'Heiti SC', 'STHeiti', 'Calibri', 'Arial', 'Helvetica Neue', 'Arial Unicode MS', 'Noto Sans CJK SC', 'DejaVu Sans', sans-serif" transform="translate(83.651288 295.341102) rotate(-60)">worker-3:d15</text>
     </g>
    </g>
    <g id="xtick_2">
     <g id="line2d_2">
      <g>
       <use xlink:href="#m827f5825c1" x="145.197376" y="242.229555" style="fill: #808080; stroke: #808080; stroke-width: 0.8"/>
      </g>
     </g>
     <g id="text_2">
      <text style="fill: #808080; font: 8px 'PingFang SC', 'Heiti SC', 'STHeiti', 'Calibri', 'Arial', 'Helvetica Neue', 'Arial Unicode MS', 'Noto Sans CJK SC', 'DejaVu Sans', sans-serif" transform="translate(121.700439 291.502444) rotate(-60)">worker-5:d8</text>
     </g>
    </g>
    <g id="xtick_3">
     <g id="line2d_3">
      <g>
       <use xlink:href="#m827f5825c1" x="181.030277" y="242.229555" style="fill: #808080; stroke: #808080; stroke-width: 0.8"/>
      </g>
     </g>
     <g id="text_3">
      <text style="fill: #808080; font: 8px 'PingFang SC', 'Heiti SC', 'STHeiti', 'Calibri', 'Arial', 'Helvetica Neue', 'Arial Unicode MS', 'Noto Sans CJK SC', 'DejaVu Sans', sans-serif" transform="translate(157.533339 291.502444) rotate(-60)">worker-6:d2</text>
     </g>
    </g>
    <g id="xtick_4">
     <g id="line2d_4">
      <g>
       <use xlink:href="#m827f5825c1" x="216.863177" y="242.229555" style="fill: #808080; stroke: #808080; stroke-width: 0.8"/>
      </g>
     </g>
     <g id="text_4">
      <text style="fill: #808080; font: 8px 'PingFang SC', 'Heiti SC', 'STHeiti', 'Calibri', 'Arial', 'Helvetica Neue', 'Arial Unicode MS', 'Noto Sans CJK SC', 'DejaVu Sans', sans-serif" transform="translate(193.36624 291.502444) rotate(-60)">worker-3:d5</text>
     </g>
    </g>
    <g id="xtick_5">
     <g id="line2d_5">
      <g>
       <use xlink:href="#m827f5825c1" x="252.696078" y="242.229555" style="fill: #808080; stroke: #808080; stroke-width: 0.8"/>
      </g>
     </g>
     <g id="text_5">
      <text style="fill: #808080; font: 8px 'PingFang SC', 'Heiti SC', 'STHeiti', 'Calibri', 'Arial', 'Helvetica Neue', 'Arial Unicode MS', 'Noto Sans CJK SC', 'DejaVu Sans', sans-serif" transform="translate(228.962891 291.911641) rotate(-60)">master-0:d1</text>
     </g>
    </g>
    <g id="xtick_6">
     <g id="line2d_6">
      <g>
       <use xlink:href="#m827f5825c1" x="288.528979" y="242.229555" style="fill: #808080; stroke: #808080; stroke-width: 0.8"/>
      </g>
     </g>
     <g id="text_6">
      <text style="fill: #808080; font: 8px 'PingFang SC', 'Heiti SC', 'STHeiti', 'Calibri', 'Arial', 'Helvetica Neue', 'Arial Unicode MS', 'Noto Sans CJK SC', 'DejaVu Sans', sans-serif" transform="translate(262.815792 295.341102) rotate(-60)">worker-5:d12</text>
     </g>
    </g>
    <g id="xtick_7">
     <g id="line2d_7">
      <g>
       <use xlink:href="#m827f5825c1" x="324.36188" y="242.229555" style="fill: #808080; stroke: #808080; stroke-width: 0.8"/>
      </g>
     </g>
     <g id="text_7">
      <text style="fill: #808080; font: 8px 'PingFang SC', 'Heiti SC', 'STHeiti', 'Calibri', 'Arial', 'Helvetica Neue', 'Arial Unicode MS', 'Noto Sans CJK SC', 'DejaVu Sans', sans-serif" transform="translate(300.864943 291.502444) rotate(-60)">worker-6:d9</text>
     </g>
    </g>
    <g id="xtick_8">
     <g id="line2d_8">
      <g>
       <use xlink:href="#m827f5825c1" x="360.194781" y="242.229555" style="fill: #808080; stroke: #808080; stroke-width: 0.8"/>
      </g>
     </g>
     <g id="text_8">
      <text style="fill: #808080; font: 8px 'PingFang SC', 'Heiti SC', 'STHeiti', 'Calibri', 'Arial', 'Helvetica Neue', 'Arial Unicode MS', 'Noto Sans CJK SC', 'DejaVu Sans', sans-serif" transform="translate(336.697843 291.502444) rotate(-60)">worker-2:d6</text>
     </g>
    </g>
    <g id="xtick_9">
     <g id="line2d_9">
      <g>
       <use xlink:href="#m827f5825c1" x="396.027681" y="242.229555" style="fill: #808080; stroke: #808080; stroke-width: 0.8"/>
      </g>
     </g>
     <g id="text_9">
      <text style="fill: #808080; font: 8px 'PingFang SC', 'Heiti SC', 'STHeiti', 'Calibri', 'Arial', 'Helvetica Neue', 'Arial Unicode MS', 'Noto Sans CJK SC', 'DejaVu Sans', sans-serif" transform="translate(372.530744 291.502444) rotate(-60)">worker-0:d6</text>
     </g>
    </g>
    <g id="xtick_10">
     <g id="line2d_10">
      <g>
       <use xlink:href="#m827f5825c1" x="431.860582" y="242.229555" style="fill: #808080; stroke: #808080; stroke-width: 0.8"/>
      </g>
     </g>
     <g id="text_10">
      <text style="fill: #808080; font: 8px 'PingFang SC', 'Heiti SC', 'STHeiti', 'Calibri', 'Arial', 'Helvetica Neue', 'Arial Unicode MS', 'Noto Sans CJK SC', 'DejaVu Sans', sans-serif" transform="translate(406.147395 295.341102) rotate(-60)">worker-0:d14</text>
     </g>
    </g>
    <g id="xtick_11">
     <g id="line2d_11">
      <g>
       <use xlink:href="#m827f5825c1" x="467.693483" y="242.229555" style="fill: #808080; stroke: #808080; stroke-width: 0.8"/>
      </g>
     </g>
     <g id="text_11">
      <text style="fill: #808080; font: 8px 'PingFang SC', 'Heiti SC', 'STHeiti', 'Calibri', 'Arial', 'Helvetica Neue', 'Arial Unicode MS', 'Noto Sans CJK SC', 'DejaVu Sans', sans-serif" transform="translate(441.980296 295.341102) rotate(-60)">worker-6:d12</text>
     </g>
    </g>
    <g id="xtick_12">
     <g id="line2d_12">
      <g>
       <use xlink:href="#m827f5825c1" x="503.526384" y="242.229555" style="fill: #808080; stroke: #808080; stroke-width: 0.8"/>
      </g>
     </g>
     <g id="text_12">
      <text style="fill: #808080; font: 8px 'PingFang SC', 'Heiti SC', 'STHeiti', 'Calibri', 'Arial', 'Helvetica Neue', 'Arial Unicode MS', 'Noto Sans CJK SC', 'DejaVu Sans', sans-serif" transform="translate(480.029446 291.502444) rotate(-60)">worker-0:d2</text>
     </g>
    </g>
    <g id="xtick_13">
     <g id="line2d_13">
      <g>
       <use xlink:href="#m827f5825c1" x="539.359284" y="242.229555" style="fill: #808080; stroke: #808080; stroke-width: 0.8"/>
      </g>
     </g>
     <g id="text_13">
      <text style="fill: #808080; font: 8px 'PingFang SC', 'Heiti SC', 'STHeiti', 'Calibri', 'Arial', 'Helvetica Neue', 'Arial Unicode MS', 'Noto Sans CJK SC', 'DejaVu Sans', sans-serif" transform="translate(513.646097 295.341102) rotate(-60)">worker-3:d12</text>
     </g>
    </g>
    <g id="xtick_14">
     <g id="line2d_14">
      <g>
       <use xlink:href="#m827f5825c1" x="575.192185" y="242.229555" style="fill: #808080; stroke: #808080; stroke-width: 0.8"/>
      </g>
     </g>
     <g id="text_14">
      <text style="fill: #808080; font: 8px 'PingFang SC', 'Heiti SC', 'STHeiti', 'Calibri', 'Arial', 'Helvetica Neue', 'Arial Unicode MS', 'Noto Sans CJK SC', 'DejaVu Sans', sans-serif" transform="translate(549.478998 295.341102) rotate(-60)">worker-3:d13</text>
     </g>
    </g>
    <g id="xtick_15">
     <g id="line2d_15">
      <g>
       <use xlink:href="#m827f5825c1" x="611.025086" y="242.229555" style="fill: #808080; stroke: #808080; stroke-width: 0.8"/>
      </g>
     </g>
     <g id="text_15">
      <text style="fill: #808080; font: 8px 'PingFang SC', 'Heiti SC', 'STHeiti', 'Calibri', 'Arial', 'Helvetica Neue', 'Arial Unicode MS', 'Noto Sans CJK SC', 'DejaVu Sans', sans-serif" transform="translate(585.075649 295.750299) rotate(-60)">master-0:d11</text>
     </g>
    </g>
    <g id="xtick_16">
     <g id="line2d_16">
      <g>
       <use xlink:href="#m827f5825c1" x="646.857987" y="242.229555" style="fill: #808080; stroke: #808080; stroke-width: 0.8"/>
      </g>
     </g>
     <g id="text_16">
      <text style="fill: #808080; font: 8px 'PingFang SC', 'Heiti SC', 'STHeiti', 'Calibri', 'Arial', 'Helvetica Neue', 'Arial Unicode MS', 'Noto Sans CJK SC', 'DejaVu Sans', sans-serif" transform="translate(623.361049 291.502444) rotate(-60)">worker-5:d5</text>
     </g>
    </g>
   </g>
   <g id="matplotlib.axis_2">
    <g id="ytick_1">
     <g id="line2d_17">
      <path d="M 78.828125 242.229555 
L 708.748125 242.229555 
" clip-path="url(#peee2fbb199)" style="fill: none; stroke-dasharray: 1,1.65; stroke-dashoffset: 0; stroke: #808080; stroke-opacity: 0.55"/>
     </g>
     <g id="line2d_18">
      <defs>
       <path id="m8ae4352657" d="M 0 0 
L -3.5 0 
" style="stroke: #808080; stroke-width: 0.8"/>
      </defs>
      <g>
       <use xlink:href="#m8ae4352657" x="78.828125" y="242.229555" style="fill: #808080; stroke: #808080; stroke-width: 0.8"/>
      </g>
     </g>
     <g id="text_17">
      <text style="fill: #808080; font: 22px 'PingFang SC', 'Heiti SC', 'STHeiti', 'Calibri', 'Arial', 'Helvetica Neue', 'Arial Unicode MS', 'Noto Sans CJK SC', 'DejaVu Sans', sans-serif; text-anchor: end" x="71.828125" y="250.984868" transform="rotate(-0 71.828125 250.984868)">0</text>
     </g>
    </g>
    <g id="ytick_2">
     <g id="line2d_19">
      <path d="M 78.828125 142.732001 
L 708.748125 142.732001 
" clip-path="url(#peee2fbb199)" style="fill: none; stroke-dasharray: 1,1.65; stroke-dashoffset: 0; stroke: #808080; stroke-opacity: 0.55"/>
     </g>
     <g id="line2d_20">
      <g>
       <use xlink:href="#m8ae4352657" x="78.828125" y="142.732001" style="fill: #808080; stroke: #808080; stroke-width: 0.8"/>
      </g>
     </g>
     <g id="text_18">
      <text style="fill: #808080; font: 22px 'PingFang SC', 'Heiti SC', 'STHeiti', 'Calibri', 'Arial', 'Helvetica Neue', 'Arial Unicode MS', 'Noto Sans CJK SC', 'DejaVu Sans', sans-serif; text-anchor: end" x="71.828125" y="151.487314" transform="rotate(-0 71.828125 151.487314)">50</text>
     </g>
    </g>
    <g id="ytick_3">
     <g id="line2d_21">
      <path d="M 78.828125 43.234447 
L 708.748125 43.234447 
" clip-path="url(#peee2fbb199)" style="fill: none; stroke-dasharray: 1,1.65; stroke-dashoffset: 0; stroke: #808080; stroke-opacity: 0.55"/>
     </g>
     <g id="line2d_22">
      <g>
       <use xlink:href="#m8ae4352657" x="78.828125" y="43.234447" style="fill: #808080; stroke: #808080; stroke-width: 0.8"/>
      </g>
     </g>
     <g id="text_19">
      <text style="fill: #808080; font: 22px 'PingFang SC', 'Heiti SC', 'STHeiti', 'Calibri', 'Arial', 'Helvetica Neue', 'Arial Unicode MS', 'Noto Sans CJK SC', 'DejaVu Sans', sans-serif; text-anchor: end" x="71.828125" y="51.98976" transform="rotate(-0 71.828125 51.98976)">100</text>
     </g>
    </g>
    <g id="text_20">
     <text style="font: 22px 'PingFang SC', 'Heiti SC', 'STHeiti', 'Calibri', 'Arial', 'Helvetica Neue', 'Arial Unicode MS', 'Noto Sans CJK SC', 'DejaVu Sans', sans-serif; text-anchor: middle" x="28.310625" y="138.314778" transform="rotate(-90 28.310625 138.314778)">Vector GFLOPS</text>
    </g>
   </g>
   <g id="patch_3">
    <path d="M 107.460852 242.229555 
L 111.268098 242.229555 
L 111.268098 47.107682 
L 107.460852 47.107682 
z
" clip-path="url(#peee2fbb199)" style="fill: url(#h0213109c85); stroke: #2ca02c; stroke-width: 2; stroke-linejoin: miter"/>
   </g>
   <g id="patch_4">
    <path d="M 111.939965 242.229555 
L 115.747211 242.229555 
L 115.747211 47.084875 
L 111.939965 47.084875 
z
" clip-path="url(#peee2fbb199)" style="fill: url(#h0213109c85); stroke: #2ca02c; stroke-width: 2; stroke-linejoin: miter"/>
   </g>
   <g id="patch_5">
    <path d="M 116.419077 242.229555 
L 120.226323 242.229555 
L 120.226323 47.007848 
L 116.419077 47.007848 
z
" clip-path="url(#peee2fbb199)" style="fill: url(#h0213109c85); stroke: #2ca02c; stroke-width: 2; stroke-linejoin: miter"/>
   </g>
   <g id="patch_6">
    <path d="M 120.89819 242.229555 
L 124.705436 242.229555 
L 124.705436 46.976459 
L 120.89819 46.976459 
z
" clip-path="url(#peee2fbb199)" style="fill: url(#h0213109c85); stroke: #2ca02c; stroke-width: 2; stroke-linejoin: miter"/>
   </g>
   <g id="patch_7">
    <path d="M 125.377303 242.229555 
L 129.184548 242.229555 
L 129.184548 46.950762 
L 125.377303 46.950762 
z
" clip-path="url(#peee2fbb199)" style="fill: url(#h0213109c85); stroke: #2ca02c; stroke-width: 2; stroke-linejoin: miter"/>
   </g>
   <g id="patch_8">
    <path d="M 129.856415 242.229555 
L 133.663661 242.229555 
L 133.663661 46.902208 
L 129.856415 46.902208 
z
" clip-path="url(#peee2fbb199)" style="fill: url(#h0213109c85); stroke: #2ca02c; stroke-width: 2; stroke-linejoin: miter"/>
   </g>
   <g id="patch_9">
    <path d="M 134.335528 242.229555 
L 138.142774 242.229555 
L 138.142774 46.876491 
L 134.335528 46.876491 
z
" clip-path="url(#peee2fbb199)" style="fill: url(#h0213109c85); stroke: #2ca02c; stroke-width: 2; stroke-linejoin: miter"/>
   </g>
   <g id="patch_10">
    <path d="M 138.81464 242.229555 
L 142.621886 242.229555 
L 142.621886 46.790725 
L 138.81464 46.790725 
z
" clip-path="url(#peee2fbb199)" style="fill: url(#h0213109c85); stroke: #2ca02c; stroke-width: 2; stroke-linejoin: miter"/>
   </g>
   <g id="patch_11">
    <path d="M 143.293753 242.229555 
L 147.100999 242.229555 
L 147.100999 46.664793 
L 143.293753 46.664793 
z
" clip-path="url(#peee2fbb199)" style="fill: url(#h0213109c85); stroke: #2ca02c; stroke-width: 2; stroke-linejoin: miter"/>
   </g>
   <g id="patch_12">
    <path d="M 147.772866 242.229555 
L 151.580111 242.229555 
L 151.580111 46.555893 
L 147.772866 46.555893 
z
" clip-path="url(#peee2fbb199)" style="fill: url(#h0213109c85); stroke: #2ca02c; stroke-width: 2; stroke-linejoin: miter"/>
   </g>
   <g id="patch_13">
    <path d="M 152.251978 242.229555 
L 156.059224 242.229555 
L 156.059224 46.495669 
L 152.251978 46.495669 
z
" clip-path="url(#peee2fbb199)" style="fill: url(#h0213109c85); stroke: #2ca02c; stroke-width: 2; stroke-linejoin: miter"/>
   </g>
   <g id="patch_14">
    <path d="M 156.731091 242.229555 
L 160.538337 242.229555 
L 160.538337 46.386598 
L 156.731091 46.386598 
z
" clip-path="url(#peee2fbb199)" style="fill: url(#h0213109c85); stroke: #2ca02c; stroke-width: 2; stroke-linejoin: miter"/>
   </g>
   <g id="patch_15">
    <path d="M 161.210203 242.229555 
L 165.017449 242.229555 
L 165.017449 46.260145 
L 161.210203 46.260145 
z
" clip-path="url(#peee2fbb199)" style="fill: url(#h0213109c85); stroke: #2ca02c; stroke-width: 2; stroke-linejoin: miter"/>
   </g>
   <g id="patch_16">
    <path d="M 165.689316 242.229555 
L 169.496562 242.229555 
L 169.496562 46.231378 
L 165.689316 46.231378 
z
" clip-path="url(#peee2fbb199)" style="fill: url(#h0213109c85); stroke: #2ca02c; stroke-width: 2; stroke-linejoin: miter"/>
   </g>
   <g id="patch_17">
    <path d="M 170.168429 242.229555 
L 173.975674 242.229555 
L 173.975674 46.225634 
L 170.168429 46.225634 
z
" clip-path="url(#peee2fbb199)" style="fill: url(#h0213109c85); stroke: #2ca02c; stroke-width: 2; stroke-linejoin: miter"/>
   </g>
   <g id="patch_18">
    <path d="M 174.647541 242.229555 
L 178.454787 242.229555 
L 178.454787 46.219873 
L 174.647541 46.219873 
z
" clip-path="url(#peee2fbb199)" style="fill: url(#h0213109c85); stroke: #2ca02c; stroke-width: 2; stroke-linejoin: miter"/>
   </g>
   <g id="patch_19">
    <path d="M 179.126654 242.229555 
L 182.9339 242.229555 
L 182.9339 46.193976 
L 179.126654 46.193976 
z
" clip-path="url(#peee2fbb199)" style="fill: url(#h0213109c85); stroke: #2ca02c; stroke-width: 2; stroke-linejoin: miter"/>
   </g>
   <g id="patch_20">
    <path d="M 183.605766 242.229555 
L 187.413012 242.229555 
L 187.413012 46.16519 
L 183.605766 46.16519 
z
" clip-path="url(#peee2fbb199)" style="fill: url(#h0213109c85); stroke: #2ca02c; stroke-width: 2; stroke-linejoin: miter"/>
   </g>
   <g id="patch_21">
    <path d="M 188.084879 242.229555 
L 191.892125 242.229555 
L 191.892125 46.159442 
L 188.084879 46.159442 
z
" clip-path="url(#peee2fbb199)" style="fill: url(#h0213109c85); stroke: #2ca02c; stroke-width: 2; stroke-linejoin: miter"/>
   </g>
   <g id="patch_22">
    <path d="M 192.563992 242.229555 
L 196.371237 242.229555 
L 196.371237 46.145045 
L 192.563992 46.145045 
z
" clip-path="url(#peee2fbb199)" style="fill: url(#h0213109c85); stroke: #2ca02c; stroke-width: 2; stroke-linejoin: miter"/>
   </g>
   <g id="patch_23">
    <path d="M 197.043104 242.229555 
L 200.85035 242.229555 
L 200.85035 46.096089 
L 197.043104 46.096089 
z
" clip-path="url(#peee2fbb199)" style="fill: url(#h0213109c85); stroke: #2ca02c; stroke-width: 2; stroke-linejoin: miter"/>
   </g>
   <g id="patch_24">
    <path d="M 201.522217 242.229555 
L 205.329463 242.229555 
L 205.329463 46.047109 
L 201.522217 46.047109 
z
" clip-path="url(#peee2fbb199)" style="fill: url(#h0213109c85); stroke: #2ca02c; stroke-width: 2; stroke-linejoin: miter"/>
   </g>
   <g id="patch_25">
    <path d="M 206.001329 242.229555 
L 209.808575 242.229555 
L 209.808575 46.026922 
L 206.001329 46.026922 
z
" clip-path="url(#peee2fbb199)" style="fill: url(#h0213109c85); stroke: #2ca02c; stroke-width: 2; stroke-linejoin: miter"/>
   </g>
   <g id="patch_26">
    <path d="M 210.480442 242.229555 
L 214.287688 242.229555 
L 214.287688 46.009636 
L 210.480442 46.009636 
z
" clip-path="url(#peee2fbb199)" style="fill: url(#h0213109c85); stroke: #2ca02c; stroke-width: 2; stroke-linejoin: miter"/>
   </g>
   <g id="patch_27">
    <path d="M 214.959555 242.229555 
L 218.7668 242.229555 
L 218.7668 45.995217 
L 214.959555 45.995217 
z
" clip-path="url(#peee2fbb199)" style="fill: url(#h0213109c85); stroke: #2ca02c; stroke-width: 2; stroke-linejoin: miter"/>
   </g>
   <g id="patch_28">
    <path d="M 219.438667 242.229555 
L 223.245913 242.229555 
L 223.245913 45.977908 
L 219.438667 45.977908 
z
" clip-path="url(#peee2fbb199)" style="fill: url(#h0213109c85); stroke: #2ca02c; stroke-width: 2; stroke-linejoin: miter"/>
   </g>
   <g id="patch_29">
    <path d="M 223.91778 242.229555 
L 227.725025 242.229555 
L 227.725025 45.977908 
L 223.91778 45.977908 
z
" clip-path="url(#peee2fbb199)" style="fill: url(#h0213109c85); stroke: #2ca02c; stroke-width: 2; stroke-linejoin: miter"/>
   </g>
   <g id="patch_30">
    <path d="M 228.396892 242.229555 
L 232.204138 242.229555 
L 232.204138 45.963484 
L 228.396892 45.963484 
z
" clip-path="url(#peee2fbb199)" style="fill: url(#h0213109c85); stroke: #2ca02c; stroke-width: 2; stroke-linejoin: miter"/>
   </g>
   <g id="patch_31">
    <path d="M 232.876005 242.229555 
L 236.683251 242.229555 
L 236.683251 45.949058 
L 232.876005 45.949058 
z
" clip-path="url(#peee2fbb199)" style="fill: url(#h0213109c85); stroke: #2ca02c; stroke-width: 2; stroke-linejoin: miter"/>
   </g>
   <g id="patch_32">
    <path d="M 237.355118 242.229555 
L 241.162363 242.229555 
L 241.162363 45.900005 
L 237.355118 45.900005 
z
" clip-path="url(#peee2fbb199)" style="fill: url(#h0213109c85); stroke: #2ca02c; stroke-width: 2; stroke-linejoin: miter"/>
   </g>
   <g id="patch_33">
    <path d="M 241.83423 242.229555 
L 245.641476 242.229555 
L 245.641476 45.882696 
L 241.83423 45.882696 
z
" clip-path="url(#peee2fbb199)" style="fill: url(#h0213109c85); stroke: #2ca02c; stroke-width: 2; stroke-linejoin: miter"/>
   </g>
   <g id="patch_34">
    <path d="M 246.313343 242.229555 
L 250.120588 242.229555 
L 250.120588 45.871149 
L 246.313343 45.871149 
z
" clip-path="url(#peee2fbb199)" style="fill: url(#h0213109c85); stroke: #2ca02c; stroke-width: 2; stroke-linejoin: miter"/>
   </g>
   <g id="patch_35">
    <path d="M 250.792455 242.229555 
L 254.599701 242.229555 
L 254.599701 45.868258 
L 250.792455 45.868258 
z
" clip-path="url(#peee2fbb199)" style="fill: url(#h0213109c85); stroke: #2ca02c; stroke-width: 2; stroke-linejoin: miter"/>
   </g>
   <g id="patch_36">
    <path d="M 255.271568 242.229555 
L 259.078814 242.229555 
L 259.078814 45.85671 
L 255.271568 45.85671 
z
" clip-path="url(#peee2fbb199)" style="fill: url(#h0213109c85); stroke: #2ca02c; stroke-width: 2; stroke-linejoin: miter"/>
   </g>
   <g id="patch_37">
    <path d="M 259.750681 242.229555 
L 263.557926 242.229555 
L 263.557926 45.836484 
L 259.750681 45.836484 
z
" clip-path="url(#peee2fbb199)" style="fill: url(#h0213109c85); stroke: #2ca02c; stroke-width: 2; stroke-linejoin: miter"/>
   </g>
   <g id="patch_38">
    <path d="M 264.229793 242.229555 
L 268.037039 242.229555 
L 268.037039 45.833609 
L 264.229793 45.833609 
z
" clip-path="url(#peee2fbb199)" style="fill: url(#h0213109c85); stroke: #2ca02c; stroke-width: 2; stroke-linejoin: miter"/>
   </g>
   <g id="patch_39">
    <path d="M 268.708906 242.229555 
L 272.516151 242.229555 
L 272.516151 45.833609 
L 268.708906 45.833609 
z
" clip-path="url(#peee2fbb199)" style="fill: url(#h0213109c85); stroke: #2ca02c; stroke-width: 2; stroke-linejoin: miter"/>
   </g>
   <g id="patch_40">
    <path d="M 273.188018 242.229555 
L 276.995264 242.229555 
L 276.995264 45.827825 
L 273.188018 45.827825 
z
" clip-path="url(#peee2fbb199)" style="fill: url(#h0213109c85); stroke: #2ca02c; stroke-width: 2; stroke-linejoin: miter"/>
   </g>
   <g id="patch_41">
    <path d="M 277.667131 242.229555 
L 281.474377 242.229555 
L 281.474377 45.827825 
L 277.667131 45.827825 
z
" clip-path="url(#peee2fbb199)" style="fill: url(#h0213109c85); stroke: #2ca02c; stroke-width: 2; stroke-linejoin: miter"/>
   </g>
   <g id="patch_42">
    <path d="M 282.146244 242.229555 
L 285.953489 242.229555 
L 285.953489 45.82204 
L 282.146244 45.82204 
z
" clip-path="url(#peee2fbb199)" style="fill: url(#h0213109c85); stroke: #2ca02c; stroke-width: 2; stroke-linejoin: miter"/>
   </g>
   <g id="patch_43">
    <path d="M 286.625356 242.229555 
L 290.432602 242.229555 
L 290.432602 45.798931 
L 286.625356 45.798931 
z
" clip-path="url(#peee2fbb199)" style="fill: url(#h0213109c85); stroke: #2ca02c; stroke-width: 2; stroke-linejoin: miter"/>
   </g>
   <g id="patch_44">
    <path d="M 291.104469 242.229555 
L 294.911714 242.229555 
L 294.911714 45.790268 
L 291.104469 45.790268 
z
" clip-path="url(#peee2fbb199)" style="fill: url(#h0213109c85); stroke: #2ca02c; stroke-width: 2; stroke-linejoin: miter"/>
   </g>
   <g id="patch_45">
    <path d="M 295.583581 242.229555 
L 299.390827 242.229555 
L 299.390827 45.787374 
L 295.583581 45.787374 
z
" clip-path="url(#peee2fbb199)" style="fill: url(#h0213109c85); stroke: #2ca02c; stroke-width: 2; stroke-linejoin: miter"/>
   </g>
   <g id="patch_46">
    <path d="M 300.062694 242.229555 
L 303.86994 242.229555 
L 303.86994 45.775817 
L 300.062694 45.775817 
z
" clip-path="url(#peee2fbb199)" style="fill: url(#h0213109c85); stroke: #2ca02c; stroke-width: 2; stroke-linejoin: miter"/>
   </g>
   <g id="patch_47">
    <path d="M 304.541807 242.229555 
L 308.349052 242.229555 
L 308.349052 45.755591 
L 304.541807 45.755591 
z
" clip-path="url(#peee2fbb199)" style="fill: url(#h0213109c85); stroke: #2ca02c; stroke-width: 2; stroke-linejoin: miter"/>
   </g>
   <g id="patch_48">
    <path d="M 309.020919 242.229555 
L 312.828165 242.229555 
L 312.828165 45.74403 
L 309.020919 45.74403 
z
" clip-path="url(#peee2fbb199)" style="fill: url(#h0213109c85); stroke: #2ca02c; stroke-width: 2; stroke-linejoin: miter"/>
   </g>
   <g id="patch_49">
    <path d="M 313.500032 242.229555 
L 317.307277 242.229555 
L 317.307277 45.700649 
L 313.500032 45.700649 
z
" clip-path="url(#peee2fbb199)" style="fill: url(#h0213109c85); stroke: #2ca02c; stroke-width: 2; stroke-linejoin: miter"/>
   </g>
   <g id="patch_50">
    <path d="M 317.979144 242.229555 
L 321.78639 242.229555 
L 321.78639 45.691978 
L 317.979144 45.691978 
z
" clip-path="url(#peee2fbb199)" style="fill: url(#h0213109c85); stroke: #2ca02c; stroke-width: 2; stroke-linejoin: miter"/>
   </g>
   <g id="patch_51">
    <path d="M 322.458257 242.229555 
L 326.265503 242.229555 
L 326.265503 45.686185 
L 322.458257 45.686185 
z
" clip-path="url(#peee2fbb199)" style="fill: url(#h0213109c85); stroke: #2ca02c; stroke-width: 2; stroke-linejoin: miter"/>
   </g>
   <g id="patch_52">
    <path d="M 326.937369 242.229555 
L 330.744615 242.229555 
L 330.744615 45.668838 
L 326.937369 45.668838 
z
" clip-path="url(#peee2fbb199)" style="fill: url(#h0213109c85); stroke: #2ca02c; stroke-width: 2; stroke-linejoin: miter"/>
   </g>
   <g id="patch_53">
    <path d="M 331.416482 242.229555 
L 335.223728 242.229555 
L 335.223728 45.665941 
L 331.416482 45.665941 
z
" clip-path="url(#peee2fbb199)" style="fill: url(#h0213109c85); stroke: #2ca02c; stroke-width: 2; stroke-linejoin: miter"/>
   </g>
   <g id="patch_54">
    <path d="M 335.895595 242.229555 
L 339.70284 242.229555 
L 339.70284 45.654369 
L 335.895595 45.654369 
z
" clip-path="url(#peee2fbb199)" style="fill: url(#h0213109c85); stroke: #2ca02c; stroke-width: 2; stroke-linejoin: miter"/>
   </g>
   <g id="patch_55">
    <path d="M 340.374707 242.229555 
L 344.181953 242.229555 
L 344.181953 45.645676 
L 340.374707 45.645676 
z
" clip-path="url(#peee2fbb199)" style="fill: url(#h0213109c85); stroke: #2ca02c; stroke-width: 2; stroke-linejoin: miter"/>
   </g>
   <g id="patch_56">
    <path d="M 344.85382 242.229555 
L 348.661066 242.229555 
L 348.661066 45.642795 
L 344.85382 45.642795 
z
" clip-path="url(#peee2fbb199)" style="fill: url(#h0213109c85); stroke: #2ca02c; stroke-width: 2; stroke-linejoin: miter"/>
   </g>
   <g id="patch_57">
    <path d="M 349.332932 242.229555 
L 353.140178 242.229555 
L 353.140178 45.637 
L 349.332932 45.637 
z
" clip-path="url(#peee2fbb199)" style="fill: url(#h0213109c85); stroke: #2ca02c; stroke-width: 2; stroke-linejoin: miter"/>
   </g>
   <g id="patch_58">
    <path d="M 353.812045 242.229555 
L 357.619291 242.229555 
L 357.619291 45.622526 
L 353.812045 45.622526 
z
" clip-path="url(#peee2fbb199)" style="fill: url(#h0213109c85); stroke: #2ca02c; stroke-width: 2; stroke-linejoin: miter"/>
   </g>
   <g id="patch_59">
    <path d="M 358.291158 242.229555 
L 362.098403 242.229555 
L 362.098403 45.60805 
L 358.291158 45.60805 
z
" clip-path="url(#peee2fbb199)" style="fill: url(#h0213109c85); stroke: #2ca02c; stroke-width: 2; stroke-linejoin: miter"/>
   </g>
   <g id="patch_60">
    <path d="M 362.77027 242.229555 
L 366.577516 242.229555 
L 366.577516 45.60805 
L 362.77027 45.60805 
z
" clip-path="url(#peee2fbb199)" style="fill: url(#h0213109c85); stroke: #2ca02c; stroke-width: 2; stroke-linejoin: miter"/>
   </g>
   <g id="patch_61">
    <path d="M 367.249383 242.229555 
L 371.056629 242.229555 
L 371.056629 45.60805 
L 367.249383 45.60805 
z
" clip-path="url(#peee2fbb199)" style="fill: url(#h0213109c85); stroke: #2ca02c; stroke-width: 2; stroke-linejoin: miter"/>
   </g>
   <g id="patch_62">
    <path d="M 371.728495 242.229555 
L 375.535741 242.229555 
L 375.535741 45.60805 
L 371.728495 45.60805 
z
" clip-path="url(#peee2fbb199)" style="fill: url(#h0213109c85); stroke: #2ca02c; stroke-width: 2; stroke-linejoin: miter"/>
   </g>
   <g id="patch_63">
    <path d="M 376.207608 242.229555 
L 380.014854 242.229555 
L 380.014854 45.602269 
L 376.207608 45.602269 
z
" clip-path="url(#peee2fbb199)" style="fill: url(#h0213109c85); stroke: #2ca02c; stroke-width: 2; stroke-linejoin: miter"/>
   </g>
   <g id="patch_64">
    <path d="M 380.686721 242.229555 
L 384.493966 242.229555 
L 384.493966 45.58779 
L 380.686721 45.58779 
z
" clip-path="url(#peee2fbb199)" style="fill: url(#h0213109c85); stroke: #2ca02c; stroke-width: 2; stroke-linejoin: miter"/>
   </g>
   <g id="patch_65">
    <path d="M 385.165833 242.229555 
L 388.973079 242.229555 
L 388.973079 45.58489 
L 385.165833 45.58489 
z
" clip-path="url(#peee2fbb199)" style="fill: url(#h0213109c85); stroke: #2ca02c; stroke-width: 2; stroke-linejoin: miter"/>
   </g>
   <g id="patch_66">
    <path d="M 389.644946 242.229555 
L 393.452192 242.229555 
L 393.452192 45.581991 
L 389.644946 45.581991 
z
" clip-path="url(#peee2fbb199)" style="fill: url(#h0213109c85); stroke: #2ca02c; stroke-width: 2; stroke-linejoin: miter"/>
   </g>
   <g id="patch_67">
    <path d="M 394.124058 242.229555 
L 397.931304 242.229555 
L 397.931304 45.576209 
L 394.124058 45.576209 
z
" clip-path="url(#peee2fbb199)" style="fill: url(#h179943e296); stroke: #ff7f0e; stroke-width: 2; stroke-linejoin: miter"/>
   </g>
   <g id="patch_68">
    <path d="M 398.603171 242.229555 
L 402.410417 242.229555 
L 402.410417 45.576209 
L 398.603171 45.576209 
z
" clip-path="url(#peee2fbb199)" style="fill: url(#h179943e296); stroke: #ff7f0e; stroke-width: 2; stroke-linejoin: miter"/>
   </g>
   <g id="patch_69">
    <path d="M 403.082284 242.229555 
L 406.889529 242.229555 
L 406.889529 45.573309 
L 403.082284 45.573309 
z
" clip-path="url(#peee2fbb199)" style="fill: url(#h179943e296); stroke: #ff7f0e; stroke-width: 2; stroke-linejoin: miter"/>
   </g>
   <g id="patch_70">
    <path d="M 407.561396 242.229555 
L 411.368642 242.229555 
L 411.368642 45.567526 
L 407.561396 45.567526 
z
" clip-path="url(#peee2fbb199)" style="fill: url(#h179943e296); stroke: #ff7f0e; stroke-width: 2; stroke-linejoin: miter"/>
   </g>
   <g id="patch_71">
    <path d="M 412.040509 242.229555 
L 415.847755 242.229555 
L 415.847755 45.564626 
L 412.040509 45.564626 
z
" clip-path="url(#peee2fbb199)" style="fill: url(#h179943e296); stroke: #ff7f0e; stroke-width: 2; stroke-linejoin: miter"/>
   </g>
   <g id="patch_72">
    <path d="M 416.519621 242.229555 
L 420.326867 242.229555 
L 420.326867 45.561726 
L 416.519621 45.561726 
z
" clip-path="url(#peee2fbb199)" style="fill: url(#h179943e296); stroke: #ff7f0e; stroke-width: 2; stroke-linejoin: miter"/>
   </g>
   <g id="patch_73">
    <path d="M 420.998734 242.229555 
L 424.80598 242.229555 
L 424.80598 45.526969 
L 420.998734 45.526969 
z
" clip-path="url(#peee2fbb199)" style="fill: url(#h179943e296); stroke: #ff7f0e; stroke-width: 2; stroke-linejoin: miter"/>
   </g>
   <g id="patch_74">
    <path d="M 425.477847 242.229555 
L 429.285092 242.229555 
L 429.285092 45.51538 
L 425.477847 45.51538 
z
" clip-path="url(#peee2fbb199)" style="fill: url(#h179943e296); stroke: #ff7f0e; stroke-width: 2; stroke-linejoin: miter"/>
   </g>
   <g id="patch_75">
    <path d="M 429.956959 242.229555 
L 433.764205 242.229555 
L 433.764205 45.51538 
L 429.956959 45.51538 
z
" clip-path="url(#peee2fbb199)" style="fill: url(#h179943e296); stroke: #ff7f0e; stroke-width: 2; stroke-linejoin: miter"/>
   </g>
   <g id="patch_76">
    <path d="M 434.436072 242.229555 
L 438.243318 242.229555 
L 438.243318 45.489297 
L 434.436072 45.489297 
z
" clip-path="url(#peee2fbb199)" style="fill: url(#h179943e296); stroke: #ff7f0e; stroke-width: 2; stroke-linejoin: miter"/>
   </g>
   <g id="patch_77">
    <path d="M 438.915184 242.229555 
L 442.72243 242.229555 
L 442.72243 45.489297 
L 438.915184 45.489297 
z
" clip-path="url(#peee2fbb199)" style="fill: url(#h179943e296); stroke: #ff7f0e; stroke-width: 2; stroke-linejoin: miter"/>
   </g>
   <g id="patch_78">
    <path d="M 443.394297 242.229555 
L 447.201543 242.229555 
L 447.201543 45.480589 
L 443.394297 45.480589 
z
" clip-path="url(#peee2fbb199)" style="fill: url(#h179943e296); stroke: #ff7f0e; stroke-width: 2; stroke-linejoin: miter"/>
   </g>
   <g id="patch_79">
    <path d="M 447.87341 242.229555 
L 451.680655 242.229555 
L 451.680655 45.477704 
L 447.87341 45.477704 
z
" clip-path="url(#peee2fbb199)" style="fill: url(#h179943e296); stroke: #ff7f0e; stroke-width: 2; stroke-linejoin: miter"/>
   </g>
   <g id="patch_80">
    <path d="M 452.352522 242.229555 
L 456.159768 242.229555 
L 456.159768 45.463206 
L 452.352522 45.463206 
z
" clip-path="url(#peee2fbb199)" style="fill: url(#h179943e296); stroke: #ff7f0e; stroke-width: 2; stroke-linejoin: miter"/>
   </g>
   <g id="patch_81">
    <path d="M 456.831635 242.229555 
L 460.638881 242.229555 
L 460.638881 45.411005 
L 456.831635 45.411005 
z
" clip-path="url(#peee2fbb199)" style="fill: url(#h179943e296); stroke: #ff7f0e; stroke-width: 2; stroke-linejoin: miter"/>
   </g>
   <g id="patch_82">
    <path d="M 461.310747 242.229555 
L 465.117993 242.229555 
L 465.117993 45.4081 
L 461.310747 45.4081 
z
" clip-path="url(#peee2fbb199)" style="fill: url(#h179943e296); stroke: #ff7f0e; stroke-width: 2; stroke-linejoin: miter"/>
   </g>
   <g id="patch_83">
    <path d="M 465.78986 242.229555 
L 469.597106 242.229555 
L 469.597106 45.4081 
L 465.78986 45.4081 
z
" clip-path="url(#peee2fbb199)" style="fill: url(#h179943e296); stroke: #ff7f0e; stroke-width: 2; stroke-linejoin: miter"/>
   </g>
   <g id="patch_84">
    <path d="M 470.268973 242.229555 
L 474.076218 242.229555 
L 474.076218 45.387799 
L 470.268973 45.387799 
z
" clip-path="url(#peee2fbb199)" style="fill: url(#h179943e296); stroke: #ff7f0e; stroke-width: 2; stroke-linejoin: miter"/>
   </g>
   <g id="patch_85">
    <path d="M 474.748085 242.229555 
L 478.555331 242.229555 
L 478.555331 45.384894 
L 474.748085 45.384894 
z
" clip-path="url(#peee2fbb199)" style="fill: url(#h179943e296); stroke: #ff7f0e; stroke-width: 2; stroke-linejoin: miter"/>
   </g>
   <g id="patch_86">
    <path d="M 479.227198 242.229555 
L 483.034443 242.229555 
L 483.034443 45.323947 
L 479.227198 45.323947 
z
" clip-path="url(#peee2fbb199)" style="fill: url(#h179943e296); stroke: #ff7f0e; stroke-width: 2; stroke-linejoin: miter"/>
   </g>
   <g id="patch_87">
    <path d="M 483.70631 242.229555 
L 487.513556 242.229555 
L 487.513556 45.309427 
L 483.70631 45.309427 
z
" clip-path="url(#peee2fbb199)" style="fill: url(#h179943e296); stroke: #ff7f0e; stroke-width: 2; stroke-linejoin: miter"/>
   </g>
   <g id="patch_88">
    <path d="M 488.185423 242.229555 
L 491.992669 242.229555 
L 491.992669 45.303611 
L 488.185423 45.303611 
z
" clip-path="url(#peee2fbb199)" style="fill: url(#h179943e296); stroke: #ff7f0e; stroke-width: 2; stroke-linejoin: miter"/>
   </g>
   <g id="patch_89">
    <path d="M 492.664536 242.229555 
L 496.471781 242.229555 
L 496.471781 45.297813 
L 492.664536 45.297813 
z
" clip-path="url(#peee2fbb199)" style="fill: url(#h179943e296); stroke: #ff7f0e; stroke-width: 2; stroke-linejoin: miter"/>
   </g>
   <g id="patch_90">
    <path d="M 497.143648 242.229555 
L 500.950894 242.229555 
L 500.950894 45.294905 
L 497.143648 45.294905 
z
" clip-path="url(#peee2fbb199)" style="fill: url(#h179943e296); stroke: #ff7f0e; stroke-width: 2; stroke-linejoin: miter"/>
   </g>
   <g id="patch_91">
    <path d="M 501.622761 242.229555 
L 505.430006 242.229555 
L 505.430006 45.291997 
L 501.622761 45.291997 
z
" clip-path="url(#peee2fbb199)" style="fill: url(#h179943e296); stroke: #ff7f0e; stroke-width: 2; stroke-linejoin: miter"/>
   </g>
   <g id="patch_92">
    <path d="M 506.101873 242.229555 
L 509.909119 242.229555 
L 509.909119 45.277472 
L 506.101873 45.277472 
z
" clip-path="url(#peee2fbb199)" style="fill: url(#h179943e296); stroke: #ff7f0e; stroke-width: 2; stroke-linejoin: miter"/>
   </g>
   <g id="patch_93">
    <path d="M 510.580986 242.229555 
L 514.388232 242.229555 
L 514.388232 45.190296 
L 510.580986 45.190296 
z
" clip-path="url(#peee2fbb199)" style="fill: url(#h179943e296); stroke: #ff7f0e; stroke-width: 2; stroke-linejoin: miter"/>
   </g>
   <g id="patch_94">
    <path d="M 515.060099 242.229555 
L 518.867344 242.229555 
L 518.867344 45.187384 
L 515.060099 45.187384 
z
" clip-path="url(#peee2fbb199)" style="fill: url(#h179943e296); stroke: #ff7f0e; stroke-width: 2; stroke-linejoin: miter"/>
   </g>
   <g id="patch_95">
    <path d="M 519.539211 242.229555 
L 523.346457 242.229555 
L 523.346457 45.172862 
L 519.539211 45.172862 
z
" clip-path="url(#peee2fbb199)" style="fill: url(#h179943e296); stroke: #ff7f0e; stroke-width: 2; stroke-linejoin: miter"/>
   </g>
   <g id="patch_96">
    <path d="M 524.018324 242.229555 
L 527.825569 242.229555 
L 527.825569 45.167038 
L 524.018324 45.167038 
z
" clip-path="url(#peee2fbb199)" style="fill: url(#h179943e296); stroke: #ff7f0e; stroke-width: 2; stroke-linejoin: miter"/>
   </g>
   <g id="patch_97">
    <path d="M 528.497436 242.229555 
L 532.304682 242.229555 
L 532.304682 45.126315 
L 528.497436 45.126315 
z
" clip-path="url(#peee2fbb199)" style="fill: url(#h179943e296); stroke: #ff7f0e; stroke-width: 2; stroke-linejoin: miter"/>
   </g>
   <g id="patch_98">
    <path d="M 532.976549 242.229555 
L 536.783795 242.229555 
L 536.783795 45.059378 
L 532.976549 45.059378 
z
" clip-path="url(#peee2fbb199)" style="fill: url(#h179943e296); stroke: #ff7f0e; stroke-width: 2; stroke-linejoin: miter"/>
   </g>
   <g id="patch_99">
    <path d="M 537.455662 242.229555 
L 541.262907 242.229555 
L 541.262907 45.039005 
L 537.455662 45.039005 
z
" clip-path="url(#peee2fbb199)" style="fill: url(#h179943e296); stroke: #ff7f0e; stroke-width: 2; stroke-linejoin: miter"/>
   </g>
   <g id="patch_100">
    <path d="M 541.934774 242.229555 
L 545.74202 242.229555 
L 545.74202 45.027359 
L 541.934774 45.027359 
z
" clip-path="url(#peee2fbb199)" style="fill: url(#h179943e296); stroke: #ff7f0e; stroke-width: 2; stroke-linejoin: miter"/>
   </g>
   <g id="patch_101">
    <path d="M 546.413887 242.229555 
L 550.221132 242.229555 
L 550.221132 45.024443 
L 546.413887 45.024443 
z
" clip-path="url(#peee2fbb199)" style="fill: url(#h179943e296); stroke: #ff7f0e; stroke-width: 2; stroke-linejoin: miter"/>
   </g>
   <g id="patch_102">
    <path d="M 550.892999 242.229555 
L 554.700245 242.229555 
L 554.700245 45.015711 
L 550.892999 45.015711 
z
" clip-path="url(#peee2fbb199)" style="fill: url(#h179943e296); stroke: #ff7f0e; stroke-width: 2; stroke-linejoin: miter"/>
   </g>
   <g id="patch_103">
    <path d="M 555.372112 242.229555 
L 559.179358 242.229555 
L 559.179358 44.995312 
L 555.372112 44.995312 
z
" clip-path="url(#peee2fbb199)" style="fill: url(#h179943e296); stroke: #ff7f0e; stroke-width: 2; stroke-linejoin: miter"/>
   </g>
   <g id="patch_104">
    <path d="M 559.851225 242.229555 
L 563.65847 242.229555 
L 563.65847 44.980761 
L 559.851225 44.980761 
z
" clip-path="url(#peee2fbb199)" style="fill: url(#h179943e296); stroke: #ff7f0e; stroke-width: 2; stroke-linejoin: miter"/>
   </g>
   <g id="patch_105">
    <path d="M 564.330337 242.229555 
L 568.137583 242.229555 
L 568.137583 44.972008 
L 564.330337 44.972008 
z
" clip-path="url(#peee2fbb199)" style="fill: url(#h179943e296); stroke: #ff7f0e; stroke-width: 2; stroke-linejoin: miter"/>
   </g>
   <g id="patch_106">
    <path d="M 568.80945 242.229555 
L 572.616695 242.229555 
L 572.616695 44.969091 
L 568.80945 44.969091 
z
" clip-path="url(#peee2fbb199)" style="fill: url(#h179943e296); stroke: #ff7f0e; stroke-width: 2; stroke-linejoin: miter"/>
   </g>
   <g id="patch_107">
    <path d="M 573.288562 242.229555 
L 577.095808 242.229555 
L 577.095808 44.945781 
L 573.288562 44.945781 
z
" clip-path="url(#peee2fbb199)" style="fill: url(#h179943e296); stroke: #ff7f0e; stroke-width: 2; stroke-linejoin: miter"/>
   </g>
   <g id="patch_108">
    <path d="M 577.767675 242.229555 
L 581.574921 242.229555 
L 581.574921 44.945781 
L 577.767675 44.945781 
z
" clip-path="url(#peee2fbb199)" style="fill: url(#h179943e296); stroke: #ff7f0e; stroke-width: 2; stroke-linejoin: miter"/>
   </g>
   <g id="patch_109">
    <path d="M 582.246787 242.229555 
L 586.054033 242.229555 
L 586.054033 44.931205 
L 582.246787 44.931205 
z
" clip-path="url(#peee2fbb199)" style="fill: url(#h179943e296); stroke: #ff7f0e; stroke-width: 2; stroke-linejoin: miter"/>
   </g>
   <g id="patch_110">
    <path d="M 586.7259 242.229555 
L 590.533146 242.229555 
L 590.533146 44.931205 
L 586.7259 44.931205 
z
" clip-path="url(#peee2fbb199)" style="fill: url(#h179943e296); stroke: #ff7f0e; stroke-width: 2; stroke-linejoin: miter"/>
   </g>
   <g id="patch_111">
    <path d="M 591.205013 242.229555 
L 595.012258 242.229555 
L 595.012258 44.919546 
L 591.205013 44.919546 
z
" clip-path="url(#peee2fbb199)" style="fill: url(#h179943e296); stroke: #ff7f0e; stroke-width: 2; stroke-linejoin: miter"/>
   </g>
   <g id="patch_112">
    <path d="M 595.684125 242.229555 
L 599.491371 242.229555 
L 599.491371 44.904966 
L 595.684125 44.904966 
z
" clip-path="url(#peee2fbb199)" style="fill: url(#h179943e296); stroke: #ff7f0e; stroke-width: 2; stroke-linejoin: miter"/>
   </g>
   <g id="patch_113">
    <path d="M 600.163238 242.229555 
L 603.970484 242.229555 
L 603.970484 44.893304 
L 600.163238 44.893304 
z
" clip-path="url(#peee2fbb199)" style="fill: url(#h179943e296); stroke: #ff7f0e; stroke-width: 2; stroke-linejoin: miter"/>
   </g>
   <g id="patch_114">
    <path d="M 604.64235 242.229555 
L 608.449596 242.229555 
L 608.449596 44.8408 
L 604.64235 44.8408 
z
" clip-path="url(#peee2fbb199)" style="fill: url(#h179943e296); stroke: #ff7f0e; stroke-width: 2; stroke-linejoin: miter"/>
   </g>
   <g id="patch_115">
    <path d="M 609.121463 242.229555 
L 612.928709 242.229555 
L 612.928709 44.829131 
L 609.121463 44.829131 
z
" clip-path="url(#peee2fbb199)" style="fill: url(#h179943e296); stroke: #ff7f0e; stroke-width: 2; stroke-linejoin: miter"/>
   </g>
   <g id="patch_116">
    <path d="M 613.600576 242.229555 
L 617.407821 242.229555 
L 617.407821 44.826226 
L 613.600576 44.826226 
z
" clip-path="url(#peee2fbb199)" style="fill: url(#h179943e296); stroke: #ff7f0e; stroke-width: 2; stroke-linejoin: miter"/>
   </g>
   <g id="patch_117">
    <path d="M 618.079688 242.229555 
L 621.886934 242.229555 
L 621.886934 44.80871 
L 618.079688 44.80871 
z
" clip-path="url(#peee2fbb199)" style="fill: url(#h179943e296); stroke: #ff7f0e; stroke-width: 2; stroke-linejoin: miter"/>
   </g>
   <g id="patch_118">
    <path d="M 622.558801 242.229555 
L 626.366047 242.229555 
L 626.366047 44.79996 
L 622.558801 44.79996 
z
" clip-path="url(#peee2fbb199)" style="fill: url(#h179943e296); stroke: #ff7f0e; stroke-width: 2; stroke-linejoin: miter"/>
   </g>
   <g id="patch_119">
    <path d="M 627.037913 242.229555 
L 630.845159 242.229555 
L 630.845159 44.776592 
L 627.037913 44.776592 
z
" clip-path="url(#peee2fbb199)" style="fill: url(#h179943e296); stroke: #ff7f0e; stroke-width: 2; stroke-linejoin: miter"/>
   </g>
   <g id="patch_120">
    <path d="M 631.517026 242.229555 
L 635.324272 242.229555 
L 635.324272 44.753237 
L 631.517026 44.753237 
z
" clip-path="url(#peee2fbb199)" style="fill: url(#h179943e296); stroke: #ff7f0e; stroke-width: 2; stroke-linejoin: miter"/>
   </g>
   <g id="patch_121">
    <path d="M 635.996139 242.229555 
L 639.803384 242.229555 
L 639.803384 44.665596 
L 635.996139 44.665596 
z
" clip-path="url(#peee2fbb199)" style="fill: url(#h179943e296); stroke: #ff7f0e; stroke-width: 2; stroke-linejoin: miter"/>
   </g>
   <g id="patch_122">
    <path d="M 640.475251 242.229555 
L 644.282497 242.229555 
L 644.282497 44.665596 
L 640.475251 44.665596 
z
" clip-path="url(#peee2fbb199)" style="fill: url(#h179943e296); stroke: #ff7f0e; stroke-width: 2; stroke-linejoin: miter"/>
   </g>
   <g id="patch_123">
    <path d="M 644.954364 242.229555 
L 648.76161 242.229555 
L 648.76161 44.665596 
L 644.954364 44.665596 
z
" clip-path="url(#peee2fbb199)" style="fill: url(#h179943e296); stroke: #ff7f0e; stroke-width: 2; stroke-linejoin: miter"/>
   </g>
   <g id="patch_124">
    <path d="M 649.433476 242.229555 
L 653.240722 242.229555 
L 653.240722 44.583736 
L 649.433476 44.583736 
z
" clip-path="url(#peee2fbb199)" style="fill: url(#h179943e296); stroke: #ff7f0e; stroke-width: 2; stroke-linejoin: miter"/>
   </g>
   <g id="patch_125">
    <path d="M 653.912589 242.229555 
L 657.719835 242.229555 
L 657.719835 44.577877 
L 653.912589 44.577877 
z
" clip-path="url(#peee2fbb199)" style="fill: url(#h179943e296); stroke: #ff7f0e; stroke-width: 2; stroke-linejoin: miter"/>
   </g>
   <g id="patch_126">
    <path d="M 658.391702 242.229555 
L 662.198947 242.229555 
L 662.198947 44.557404 
L 658.391702 44.557404 
z
" clip-path="url(#peee2fbb199)" style="fill: url(#h179943e296); stroke: #ff7f0e; stroke-width: 2; stroke-linejoin: miter"/>
   </g>
   <g id="patch_127">
    <path d="M 662.870814 242.229555 
L 666.67806 242.229555 
L 666.67806 44.545684 
L 662.870814 44.545684 
z
" clip-path="url(#peee2fbb199)" style="fill: url(#h179943e296); stroke: #ff7f0e; stroke-width: 2; stroke-linejoin: miter"/>
   </g>
   <g id="patch_128">
    <path d="M 667.349927 242.229555 
L 671.157173 242.229555 
L 671.157173 44.364101 
L 667.349927 44.364101 
z
" clip-path="url(#peee2fbb199)" style="fill: url(#h179943e296); stroke: #ff7f0e; stroke-width: 2; stroke-linejoin: miter"/>
   </g>
   <g id="patch_129">
    <path d="M 671.829039 242.229555 
L 675.636285 242.229555 
L 675.636285 44.325983 
L 671.829039 44.325983 
z
" clip-path="url(#peee2fbb199)" style="fill: url(#h179943e296); stroke: #ff7f0e; stroke-width: 2; stroke-linejoin: miter"/>
   </g>
   <g id="patch_130">
    <path d="M 676.308152 242.229555 
L 680.115398 242.229555 
L 680.115398 44.296645 
L 676.308152 44.296645 
z
" clip-path="url(#peee2fbb199)" style="fill: url(#h179943e296); stroke: #ff7f0e; stroke-width: 2; stroke-linejoin: miter"/>
   </g>
   <g id="line2d_23">
    <path d="M 78.828125 45.5791 
L 708.748125 45.5791 
" clip-path="url(#peee2fbb199)" style="fill: none; stroke-dasharray: 4.44,1.92; stroke-dashoffset: 0; stroke: #f58518; stroke-width: 1.2"/>
   </g>
   <g id="patch_131">
    <path d="M 78.828125 242.229555 
L 78.828125 34.4 
" style="fill: none; stroke: #808080; stroke-width: 0.8; stroke-linejoin: miter; stroke-linecap: square"/>
   </g>
   <g id="patch_132">
    <path d="M 78.828125 242.229555 
L 708.748125 242.229555 
" style="fill: none; stroke: #808080; stroke-width: 0.8; stroke-linejoin: miter; stroke-linecap: square"/>
   </g>
   <g id="text_21">
    <text style="font: 22px 'PingFang SC', 'Heiti SC', 'STHeiti', 'Calibri', 'Arial', 'Helvetica Neue', 'Arial Unicode MS', 'Noto Sans CJK SC', 'DejaVu Sans', sans-serif; text-anchor: middle" x="393.788125" y="28.4" transform="rotate(-0 393.788125 28.4)">排序条形 · Vector GFLOPS</text>
   </g>
   <g id="legend_1">
    <g id="patch_133">
     <path d="M 87.228125 236.229555 
L 208.01 236.229555 
Q 210.41 236.229555 210.41 233.829555 
L 210.41 217.869555 
Q 210.41 215.469555 208.01 215.469555 
L 87.228125 215.469555 
Q 84.828125 215.469555 84.828125 217.869555 
L 84.828125 233.829555 
Q 84.828125 236.229555 87.228125 236.229555 
z
" style="fill: #ffffff; opacity: 0.5; stroke: #cccccc; stroke-linejoin: miter"/>
    </g>
    <g id="line2d_24">
     <path d="M 89.628125 225.620805 
L 101.628125 225.620805 
L 113.628125 225.620805 
" style="fill: none; stroke-dasharray: 4.44,1.92; stroke-dashoffset: 0; stroke: #f58518; stroke-width: 1.2"/>
    </g>
    <g id="text_22">
     <text style="font: 12px 'PingFang SC', 'Heiti SC', 'STHeiti', 'Calibri', 'Arial', 'Helvetica Neue', 'Arial Unicode MS', 'Noto Sans CJK SC', 'DejaVu Sans', sans-serif; text-anchor: start" x="123.228125" y="229.820805" transform="rotate(-0 123.228125 229.820805)">median=98.82</text>
    </g>
   </g>
  </g>
 </g>
 <defs>
  <clipPath id="peee2fbb199">
   <rect x="78.828125" y="34.4" width="629.92" height="207.829555"/>
  </clipPath>
 </defs>
 <defs>
  <pattern id="h0213109c85" patternUnits="userSpaceOnUse" x="0" y="0" width="72" height="72">
   <rect x="0" y="0" width="73" height="73" fill="none"/>
   <path d="M -36 36 
L 36 -36 
M -30 42 
L 42 -30 
M -24 48 
L 48 -24 
M -18 54 
L 54 -18 
M -12 60 
L 60 -12 
M -6 66 
L 66 -6 
M 0 72 
L 72 0 
M 6 78 
L 78 6 
M 12 84 
L 84 12 
M 18 90 
L 90 18 
M 24 96 
L 96 24 
M 30 102 
L 102 30 
M 36 108 
L 108 36 
M -36 36 
L 36 108 
M -30 30 
L 42 102 
M -24 24 
L 48 96 
M -18 18 
L 54 90 
M -12 12 
L 60 84 
M -6 6 
L 66 78 
M 0 0 
L 72 72 
M 6 -6 
L 78 66 
M 12 -12 
L 84 60 
M 18 -18 
L 90 54 
M 24 -24 
L 96 48 
M 30 -30 
L 102 42 
M 36 -36 
L 108 36 
" style="fill: #2ca02c; stroke: #2ca02c; stroke-width: 1.0; stroke-linecap: butt; stroke-linejoin: miter"/>
  </pattern>
  <pattern id="h179943e296" patternUnits="userSpaceOnUse" x="0" y="0" width="72" height="72">
   <rect x="0" y="0" width="73" height="73" fill="none"/>
   <path d="M -36 36 
L 36 -36 
M -30 42 
L 42 -30 
M -24 48 
L 48 -24 
M -18 54 
L 54 -18 
M -12 60 
L 60 -12 
M -6 66 
L 66 -6 
M 0 72 
L 72 0 
M 6 78 
L 78 6 
M 12 84 
L 84 12 
M 18 90 
L 90 18 
M 24 96 
L 96 24 
M 30 102 
L 102 30 
M 36 108 
L 108 36 
" style="fill: #ff7f0e; stroke: #ff7f0e; stroke-width: 1.0; stroke-linecap: butt; stroke-linejoin: miter"/>
  </pattern>
 </defs>
</svg>
