<?xml version="1.0" encoding="utf-8" standalone="no"?>
<!DOCTYPE svg PUBLIC "-//W3C//DTD SVG 1.1//EN"
  "http://www.w3.org/Graphics/SVG/1.1/DTD/svg11.dtd">
<svg xmlns:xlink="http://www.w3.org/1999/xlink" width="719.55pt" height="307.054073pt" viewBox="0 0 719.55 307.054073" xmlns="http://www.w3.org/2000/svg" version="1.1">
 <metadata>
  <rdf:RDF xmlns:dc="http://purl.org/dc/elements/1.1/" xmlns:cc="http://creativecommons.org/ns#" xmlns:rdf="http://www.w3.org/1999/02/22-rdf-syntax-ns#">
   <cc:Work>
    <dc:type rdf:resource="http://purl.org/dc/dcmitype/StillImage"/>
    <dc:date>2026-07-11T20:14:08.044302</dc:date>
    <dc:format>image/svg+xml</dc:format>
    <dc:creator>
     <cc:Agent>
      <dc:title>Matplotlib v3.9.4, https://matplotlib.org/</dc:title>
     </cc:Agent>
    </dc:creator>
   </cc:Work>
  </rdf:RDF>
 </metadata>
 <defs>
  <style type="text/css">*{stroke-linejoin: round; stroke-linecap: butt}</style>
 </defs>
 <g id="figure_1">
  <g id="patch_1">
   <path d="M 0 307.054073 
L 719.55 307.054073 
L 719.55 0 
L 0 0 
z
" style="fill: #ffffff"/>
  </g>
  <g id="axes_1">
   <g id="patch_2">
    <path d="M 91.0175 242.197079 
L 708.75 242.197079 
L 708.75 34.4 
L 91.0175 34.4 
z
" style="fill: #ffffff"/>
   </g>
   <g id="matplotlib.axis_1">
    <g id="xtick_1">
     <g id="line2d_1">
      <defs>
       <path id="mcf6c7660ce" d="M 0 0 
L 0 3.5 
" style="stroke: #808080; stroke-width: 0.8"/>
      </defs>
      <g>
       <use xlink:href="#mcf6c7660ce" x="120.963042" y="242.197079" style="fill: #808080; stroke: #808080; stroke-width: 0.8"/>
      </g>
     </g>
     <g id="text_1">
      <text style="fill: #808080; font: 8px 'PingFang SC', 'Heiti SC', 'STHeiti', 'Calibri', 'Arial', 'Helvetica Neue', 'Arial Unicode MS', 'Noto Sans CJK SC', 'DejaVu Sans', sans-serif" transform="translate(97.466105 291.469968) rotate(-60)">worker-0:d0</text>
     </g>
    </g>
    <g id="xtick_2">
     <g id="line2d_2">
      <g>
       <use xlink:href="#mcf6c7660ce" x="156.102659" y="242.197079" style="fill: #808080; stroke: #808080; stroke-width: 0.8"/>
      </g>
     </g>
     <g id="text_2">
      <text style="fill: #808080; font: 8px 'PingFang SC', 'Heiti SC', 'STHeiti', 'Calibri', 'Arial', 'Helvetica Neue', 'Arial Unicode MS', 'Noto Sans CJK SC', 'DejaVu Sans', sans-serif" transform="translate(132.369472 291.879165) rotate(-60)">master-0:d4</text>
     </g>
    </g>
    <g id="xtick_3">
     <g id="line2d_3">
      <g>
       <use xlink:href="#mcf6c7660ce" x="191.242276" y="242.197079" style="fill: #808080; stroke: #808080; stroke-width: 0.8"/>
      </g>
     </g>
     <g id="text_3">
      <text style="fill: #808080; font: 8px 'PingFang SC', 'Heiti SC', 'STHeiti', 'Calibri', 'Arial', 'Helvetica Neue', 'Arial Unicode MS', 'Noto Sans CJK SC', 'DejaVu Sans', sans-serif" transform="translate(167.745338 291.469968) rotate(-60)">worker-2:d1</text>
     </g>
    </g>
    <g id="xtick_4">
     <g id="line2d_4">
      <g>
       <use xlink:href="#mcf6c7660ce" x="226.381892" y="242.197079" style="fill: #808080; stroke: #808080; stroke-width: 0.8"/>
      </g>
     </g>
     <g id="text_4">
      <text style="fill: #808080; font: 8px 'PingFang SC', 'Heiti SC', 'STHeiti', 'Calibri', 'Arial', 'Helvetica Neue', 'Arial Unicode MS', 'Noto Sans CJK SC', 'DejaVu Sans', sans-serif" transform="translate(200.668705 295.308626) rotate(-60)">worker-4:d14</text>
     </g>
    </g>
    <g id="xtick_5">
     <g id="line2d_5">
      <g>
       <use xlink:href="#mcf6c7660ce" x="261.521509" y="242.197079" style="fill: #808080; stroke: #808080; stroke-width: 0.8"/>
      </g>
     </g>
     <g id="text_5">
      <text style="fill: #808080; font: 8px 'PingFang SC', 'Heiti SC', 'STHeiti', 'Calibri', 'Arial', 'Helvetica Neue', 'Arial Unicode MS', 'Noto Sans CJK SC', 'DejaVu Sans', sans-serif" transform="translate(235.572072 295.717823) rotate(-60)">master-0:d15</text>
     </g>
    </g>
    <g id="xtick_6">
     <g id="line2d_6">
      <g>
       <use xlink:href="#mcf6c7660ce" x="296.661126" y="242.197079" style="fill: #808080; stroke: #808080; stroke-width: 0.8"/>
      </g>
     </g>
     <g id="text_6">
      <text style="fill: #808080; font: 8px 'PingFang SC', 'Heiti SC', 'STHeiti', 'Calibri', 'Arial', 'Helvetica Neue', 'Arial Unicode MS', 'Noto Sans CJK SC', 'DejaVu Sans', sans-serif" transform="translate(270.947939 295.308626) rotate(-60)">worker-2:d15</text>
     </g>
    </g>
    <g id="xtick_7">
     <g id="line2d_7">
      <g>
       <use xlink:href="#mcf6c7660ce" x="331.800743" y="242.197079" style="fill: #808080; stroke: #808080; stroke-width: 0.8"/>
      </g>
     </g>
     <g id="text_7">
      <text style="fill: #808080; font: 8px 'PingFang SC', 'Heiti SC', 'STHeiti', 'Calibri', 'Arial', 'Helvetica Neue', 'Arial Unicode MS', 'Noto Sans CJK SC', 'DejaVu Sans', sans-serif" transform="translate(308.303805 291.469968) rotate(-60)">worker-3:d1</text>
     </g>
    </g>
    <g id="xtick_8">
     <g id="line2d_8">
      <g>
       <use xlink:href="#mcf6c7660ce" x="366.940359" y="242.197079" style="fill: #808080; stroke: #808080; stroke-width: 0.8"/>
      </g>
     </g>
     <g id="text_8">
      <text style="fill: #808080; font: 8px 'PingFang SC', 'Heiti SC', 'STHeiti', 'Calibri', 'Arial', 'Helvetica Neue', 'Arial Unicode MS', 'Noto Sans CJK SC', 'DejaVu Sans', sans-serif" transform="translate(343.443422 291.469968) rotate(-60)">worker-5:d4</text>
     </g>
    </g>
    <g id="xtick_9">
     <g id="line2d_9">
      <g>
       <use xlink:href="#mcf6c7660ce" x="402.079976" y="242.197079" style="fill: #808080; stroke: #808080; stroke-width: 0.8"/>
      </g>
     </g>
     <g id="text_9">
      <text style="fill: #808080; font: 8px 'PingFang SC', 'Heiti SC', 'STHeiti', 'Calibri', 'Arial', 'Helvetica Neue', 'Arial Unicode MS', 'Noto Sans CJK SC', 'DejaVu Sans', sans-serif" transform="translate(378.583039 291.469968) rotate(-60)">worker-5:d9</text>
     </g>
    </g>
    <g id="xtick_10">
     <g id="line2d_10">
      <g>
       <use xlink:href="#mcf6c7660ce" x="437.219593" y="242.197079" style="fill: #808080; stroke: #808080; stroke-width: 0.8"/>
      </g>
     </g>
     <g id="text_10">
      <text style="fill: #808080; font: 8px 'PingFang SC', 'Heiti SC', 'STHeiti', 'Calibri', 'Arial', 'Helvetica Neue', 'Arial Unicode MS', 'Noto Sans CJK SC', 'DejaVu Sans', sans-serif" transform="translate(413.722656 291.469968) rotate(-60)">worker-0:d9</text>
     </g>
    </g>
    <g id="xtick_11">
     <g id="line2d_11">
      <g>
       <use xlink:href="#mcf6c7660ce" x="472.35921" y="242.197079" style="fill: #808080; stroke: #808080; stroke-width: 0.8"/>
      </g>
     </g>
     <g id="text_11">
      <text style="fill: #808080; font: 8px 'PingFang SC', 'Heiti SC', 'STHeiti', 'Calibri', 'Arial', 'Helvetica Neue', 'Arial Unicode MS', 'Noto Sans CJK SC', 'DejaVu Sans', sans-serif" transform="translate(448.862272 291.469968) rotate(-60)">worker-2:d8</text>
     </g>
    </g>
    <g id="xtick_12">
     <g id="line2d_12">
      <g>
       <use xlink:href="#mcf6c7660ce" x="507.498826" y="242.197079" style="fill: #808080; stroke: #808080; stroke-width: 0.8"/>
      </g>
     </g>
     <g id="text_12">
      <text style="fill: #808080; font: 8px 'PingFang SC', 'Heiti SC', 'STHeiti', 'Calibri', 'Arial', 'Helvetica Neue', 'Arial Unicode MS', 'Noto Sans CJK SC', 'DejaVu Sans', sans-serif" transform="translate(484.001889 291.469968) rotate(-60)">worker-4:d7</text>
     </g>
    </g>
    <g id="xtick_13">
     <g id="line2d_13">
      <g>
       <use xlink:href="#mcf6c7660ce" x="542.638443" y="242.197079" style="fill: #808080; stroke: #808080; stroke-width: 0.8"/>
      </g>
     </g>
     <g id="text_13">
      <text style="fill: #808080; font: 8px 'PingFang SC', 'Heiti SC', 'STHeiti', 'Calibri', 'Arial', 'Helvetica Neue', 'Arial Unicode MS', 'Noto Sans CJK SC', 'DejaVu Sans', sans-serif" transform="translate(519.141506 291.469968) rotate(-60)">worker-4:d0</text>
     </g>
    </g>
    <g id="xtick_14">
     <g id="line2d_14">
      <g>
       <use xlink:href="#mcf6c7660ce" x="577.77806" y="242.197079" style="fill: #808080; stroke: #808080; stroke-width: 0.8"/>
      </g>
     </g>
     <g id="text_14">
      <text style="fill: #808080; font: 8px 'PingFang SC', 'Heiti SC', 'STHeiti', 'Calibri', 'Arial', 'Helvetica Neue', 'Arial Unicode MS', 'Noto Sans CJK SC', 'DejaVu Sans', sans-serif" transform="translate(552.064872 295.308626) rotate(-60)">worker-0:d14</text>
     </g>
    </g>
    <g id="xtick_15">
     <g id="line2d_15">
      <g>
       <use xlink:href="#mcf6c7660ce" x="612.917676" y="242.197079" style="fill: #808080; stroke: #808080; stroke-width: 0.8"/>
      </g>
     </g>
     <g id="text_15">
      <text style="fill: #808080; font: 8px 'PingFang SC', 'Heiti SC', 'STHeiti', 'Calibri', 'Arial', 'Helvetica Neue', 'Arial Unicode MS', 'Noto Sans CJK SC', 'DejaVu Sans', sans-serif" transform="translate(589.420739 291.469968) rotate(-60)">worker-2:d4</text>
     </g>
    </g>
    <g id="xtick_16">
     <g id="line2d_16">
      <g>
       <use xlink:href="#mcf6c7660ce" x="648.057293" y="242.197079" style="fill: #808080; stroke: #808080; stroke-width: 0.8"/>
      </g>
     </g>
     <g id="text_16">
      <text style="fill: #808080; font: 8px 'PingFang SC', 'Heiti SC', 'STHeiti', 'Calibri', 'Arial', 'Helvetica Neue', 'Arial Unicode MS', 'Noto Sans CJK SC', 'DejaVu Sans', sans-serif" transform="translate(624.560356 291.469968) rotate(-60)">worker-0:d2</text>
     </g>
    </g>
   </g>
   <g id="matplotlib.axis_2">
    <g id="ytick_1">
     <g id="line2d_17">
      <path d="M 91.0175 242.197079 
L 708.75 242.197079 
" clip-path="url(#p8d3fad4424)" style="fill: none; stroke-dasharray: 1,1.65; stroke-dashoffset: 0; stroke: #808080; stroke-opacity: 0.55"/>
     </g>
     <g id="line2d_18">
      <defs>
       <path id="m8bc1ba5c8f" d="M 0 0 
L -3.5 0 
" style="stroke: #808080; stroke-width: 0.8"/>
      </defs>
      <g>
       <use xlink:href="#m8bc1ba5c8f" x="91.0175" y="242.197079" style="fill: #808080; stroke: #808080; stroke-width: 0.8"/>
      </g>
     </g>
     <g id="text_17">
      <text style="fill: #808080; font: 22px 'PingFang SC', 'Heiti SC', 'STHeiti', 'Calibri', 'Arial', 'Helvetica Neue', 'Arial Unicode MS', 'Noto Sans CJK SC', 'DejaVu Sans', sans-serif; text-anchor: end" x="84.0175" y="250.952392" transform="rotate(-0 84.0175 250.952392)">0</text>
     </g>
    </g>
    <g id="ytick_2">
     <g id="line2d_19">
      <path d="M 91.0175 164.22449 
L 708.75 164.22449 
" clip-path="url(#p8d3fad4424)" style="fill: none; stroke-dasharray: 1,1.65; stroke-dashoffset: 0; stroke: #808080; stroke-opacity: 0.55"/>
     </g>
     <g id="line2d_20">
      <g>
       <use xlink:href="#m8bc1ba5c8f" x="91.0175" y="164.22449" style="fill: #808080; stroke: #808080; stroke-width: 0.8"/>
      </g>
     </g>
     <g id="text_18">
      <text style="fill: #808080; font: 22px 'PingFang SC', 'Heiti SC', 'STHeiti', 'Calibri', 'Arial', 'Helvetica Neue', 'Arial Unicode MS', 'Noto Sans CJK SC', 'DejaVu Sans', sans-serif; text-anchor: end" x="84.0175" y="172.979803" transform="rotate(-0 84.0175 172.979803)">500</text>
     </g>
    </g>
    <g id="ytick_3">
     <g id="line2d_21">
      <path d="M 91.0175 86.251901 
L 708.75 86.251901 
" clip-path="url(#p8d3fad4424)" style="fill: none; stroke-dasharray: 1,1.65; stroke-dashoffset: 0; stroke: #808080; stroke-opacity: 0.55"/>
     </g>
     <g id="line2d_22">
      <g>
       <use xlink:href="#m8bc1ba5c8f" x="91.0175" y="86.251901" style="fill: #808080; stroke: #808080; stroke-width: 0.8"/>
      </g>
     </g>
     <g id="text_19">
      <text style="fill: #808080; font: 22px 'PingFang SC', 'Heiti SC', 'STHeiti', 'Calibri', 'Arial', 'Helvetica Neue', 'Arial Unicode MS', 'Noto Sans CJK SC', 'DejaVu Sans', sans-serif; text-anchor: end" x="84.0175" y="95.007214" transform="rotate(-0 84.0175 95.007214)">1000</text>
     </g>
    </g>
    <g id="text_20">
     <text style="font: 22px 'PingFang SC', 'Heiti SC', 'STHeiti', 'Calibri', 'Arial', 'Helvetica Neue', 'Arial Unicode MS', 'Noto Sans CJK SC', 'DejaVu Sans', sans-serif; text-anchor: middle" x="28.310625" y="138.29854" transform="rotate(-90 28.310625 138.29854)">HBM GB/s</text>
    </g>
   </g>
   <g id="patch_3">
    <path d="M 119.09625 242.197079 
L 122.829834 242.197079 
L 122.829834 84.324055 
L 119.09625 84.324055 
z
" clip-path="url(#p8d3fad4424)" style="fill: url(#h352ec25683); stroke: #2ca02c; stroke-width: 2; stroke-linejoin: miter"/>
   </g>
   <g id="patch_4">
    <path d="M 123.488702 242.197079 
L 127.222286 242.197079 
L 127.222286 77.333983 
L 123.488702 77.333983 
z
" clip-path="url(#p8d3fad4424)" style="fill: url(#h352ec25683); stroke: #2ca02c; stroke-width: 2; stroke-linejoin: miter"/>
   </g>
   <g id="patch_5">
    <path d="M 127.881154 242.197079 
L 131.614738 242.197079 
L 131.614738 76.675586 
L 127.881154 76.675586 
z
" clip-path="url(#p8d3fad4424)" style="fill: url(#h352ec25683); stroke: #2ca02c; stroke-width: 2; stroke-linejoin: miter"/>
   </g>
   <g id="patch_6">
    <path d="M 132.273606 242.197079 
L 136.007191 242.197079 
L 136.007191 75.684684 
L 132.273606 75.684684 
z
" clip-path="url(#p8d3fad4424)" style="fill: url(#h352ec25683); stroke: #2ca02c; stroke-width: 2; stroke-linejoin: miter"/>
   </g>
   <g id="patch_7">
    <path d="M 136.666058 242.197079 
L 140.399643 242.197079 
L 140.399643 73.605799 
L 136.666058 73.605799 
z
" clip-path="url(#p8d3fad4424)" style="fill: url(#h352ec25683); stroke: #2ca02c; stroke-width: 2; stroke-linejoin: miter"/>
   </g>
   <g id="patch_8">
    <path d="M 141.05851 242.197079 
L 144.792095 242.197079 
L 144.792095 71.340207 
L 141.05851 71.340207 
z
" clip-path="url(#p8d3fad4424)" style="fill: url(#h352ec25683); stroke: #2ca02c; stroke-width: 2; stroke-linejoin: miter"/>
   </g>
   <g id="patch_9">
    <path d="M 145.450963 242.197079 
L 149.184547 242.197079 
L 149.184547 68.829996 
L 145.450963 68.829996 
z
" clip-path="url(#p8d3fad4424)" style="fill: url(#h352ec25683); stroke: #2ca02c; stroke-width: 2; stroke-linejoin: miter"/>
   </g>
   <g id="patch_10">
    <path d="M 149.843415 242.197079 
L 153.576999 242.197079 
L 153.576999 67.835289 
L 149.843415 67.835289 
z
" clip-path="url(#p8d3fad4424)" style="fill: url(#h352ec25683); stroke: #2ca02c; stroke-width: 2; stroke-linejoin: miter"/>
   </g>
   <g id="patch_11">
    <path d="M 154.235867 242.197079 
L 157.969451 242.197079 
L 157.969451 67.755363 
L 154.235867 67.755363 
z
" clip-path="url(#p8d3fad4424)" style="fill: url(#h352ec25683); stroke: #2ca02c; stroke-width: 2; stroke-linejoin: miter"/>
   </g>
   <g id="patch_12">
    <path d="M 158.628319 242.197079 
L 162.361903 242.197079 
L 162.361903 67.722645 
L 158.628319 67.722645 
z
" clip-path="url(#p8d3fad4424)" style="fill: url(#h352ec25683); stroke: #2ca02c; stroke-width: 2; stroke-linejoin: miter"/>
   </g>
   <g id="patch_13">
    <path d="M 163.020771 242.197079 
L 166.754355 242.197079 
L 166.754355 66.84379 
L 163.020771 66.84379 
z
" clip-path="url(#p8d3fad4424)" style="fill: url(#h352ec25683); stroke: #2ca02c; stroke-width: 2; stroke-linejoin: miter"/>
   </g>
   <g id="patch_14">
    <path d="M 167.413223 242.197079 
L 171.146807 242.197079 
L 171.146807 66.748239 
L 167.413223 66.748239 
z
" clip-path="url(#p8d3fad4424)" style="fill: url(#h352ec25683); stroke: #2ca02c; stroke-width: 2; stroke-linejoin: miter"/>
   </g>
   <g id="patch_15">
    <path d="M 171.805675 242.197079 
L 175.539259 242.197079 
L 175.539259 65.014249 
L 171.805675 65.014249 
z
" clip-path="url(#p8d3fad4424)" style="fill: url(#h352ec25683); stroke: #2ca02c; stroke-width: 2; stroke-linejoin: miter"/>
   </g>
   <g id="patch_16">
    <path d="M 176.198127 242.197079 
L 179.931711 242.197079 
L 179.931711 64.549939 
L 176.198127 64.549939 
z
" clip-path="url(#p8d3fad4424)" style="fill: url(#h352ec25683); stroke: #2ca02c; stroke-width: 2; stroke-linejoin: miter"/>
   </g>
   <g id="patch_17">
    <path d="M 180.590579 242.197079 
L 184.324164 242.197079 
L 184.324164 64.391492 
L 180.590579 64.391492 
z
" clip-path="url(#p8d3fad4424)" style="fill: url(#h352ec25683); stroke: #2ca02c; stroke-width: 2; stroke-linejoin: miter"/>
   </g>
   <g id="patch_18">
    <path d="M 184.983031 242.197079 
L 188.716616 242.197079 
L 188.716616 63.861245 
L 184.983031 63.861245 
z
" clip-path="url(#p8d3fad4424)" style="fill: url(#h352ec25683); stroke: #2ca02c; stroke-width: 2; stroke-linejoin: miter"/>
   </g>
   <g id="patch_19">
    <path d="M 189.375483 242.197079 
L 193.109068 242.197079 
L 193.109068 63.42524 
L 189.375483 63.42524 
z
" clip-path="url(#p8d3fad4424)" style="fill: url(#h352ec25683); stroke: #2ca02c; stroke-width: 2; stroke-linejoin: miter"/>
   </g>
   <g id="patch_20">
    <path d="M 193.767936 242.197079 
L 197.50152 242.197079 
L 197.50152 63.390876 
L 193.767936 63.390876 
z
" clip-path="url(#p8d3fad4424)" style="fill: url(#h352ec25683); stroke: #2ca02c; stroke-width: 2; stroke-linejoin: miter"/>
   </g>
   <g id="patch_21">
    <path d="M 198.160388 242.197079 
L 201.893972 242.197079 
L 201.893972 62.550627 
L 198.160388 62.550627 
z
" clip-path="url(#p8d3fad4424)" style="fill: url(#h352ec25683); stroke: #2ca02c; stroke-width: 2; stroke-linejoin: miter"/>
   </g>
   <g id="patch_22">
    <path d="M 202.55284 242.197079 
L 206.286424 242.197079 
L 206.286424 62.32678 
L 202.55284 62.32678 
z
" clip-path="url(#p8d3fad4424)" style="fill: url(#h352ec25683); stroke: #2ca02c; stroke-width: 2; stroke-linejoin: miter"/>
   </g>
   <g id="patch_23">
    <path d="M 206.945292 242.197079 
L 210.678876 242.197079 
L 210.678876 61.73747 
L 206.945292 61.73747 
z
" clip-path="url(#p8d3fad4424)" style="fill: url(#h352ec25683); stroke: #2ca02c; stroke-width: 2; stroke-linejoin: miter"/>
   </g>
   <g id="patch_24">
    <path d="M 211.337744 242.197079 
L 215.071328 242.197079 
L 215.071328 61.093374 
L 211.337744 61.093374 
z
" clip-path="url(#p8d3fad4424)" style="fill: url(#h352ec25683); stroke: #2ca02c; stroke-width: 2; stroke-linejoin: miter"/>
   </g>
   <g id="patch_25">
    <path d="M 215.730196 242.197079 
L 219.46378 242.197079 
L 219.46378 60.347953 
L 215.730196 60.347953 
z
" clip-path="url(#p8d3fad4424)" style="fill: url(#h352ec25683); stroke: #2ca02c; stroke-width: 2; stroke-linejoin: miter"/>
   </g>
   <g id="patch_26">
    <path d="M 220.122648 242.197079 
L 223.856232 242.197079 
L 223.856232 59.779373 
L 220.122648 59.779373 
z
" clip-path="url(#p8d3fad4424)" style="fill: url(#h352ec25683); stroke: #2ca02c; stroke-width: 2; stroke-linejoin: miter"/>
   </g>
   <g id="patch_27">
    <path d="M 224.5151 242.197079 
L 228.248684 242.197079 
L 228.248684 59.721728 
L 224.5151 59.721728 
z
" clip-path="url(#p8d3fad4424)" style="fill: url(#h352ec25683); stroke: #2ca02c; stroke-width: 2; stroke-linejoin: miter"/>
   </g>
   <g id="patch_28">
    <path d="M 228.907552 242.197079 
L 232.641137 242.197079 
L 232.641137 59.709791 
L 228.907552 59.709791 
z
" clip-path="url(#p8d3fad4424)" style="fill: url(#h352ec25683); stroke: #2ca02c; stroke-width: 2; stroke-linejoin: miter"/>
   </g>
   <g id="patch_29">
    <path d="M 233.300004 242.197079 
L 237.033589 242.197079 
L 237.033589 59.412977 
L 233.300004 59.412977 
z
" clip-path="url(#p8d3fad4424)" style="fill: url(#h352ec25683); stroke: #2ca02c; stroke-width: 2; stroke-linejoin: miter"/>
   </g>
   <g id="patch_30">
    <path d="M 237.692456 242.197079 
L 241.426041 242.197079 
L 241.426041 58.856595 
L 237.692456 58.856595 
z
" clip-path="url(#p8d3fad4424)" style="fill: url(#h352ec25683); stroke: #2ca02c; stroke-width: 2; stroke-linejoin: miter"/>
   </g>
   <g id="patch_31">
    <path d="M 242.084909 242.197079 
L 245.818493 242.197079 
L 245.818493 58.550958 
L 242.084909 58.550958 
z
" clip-path="url(#p8d3fad4424)" style="fill: url(#h352ec25683); stroke: #2ca02c; stroke-width: 2; stroke-linejoin: miter"/>
   </g>
   <g id="patch_32">
    <path d="M 246.477361 242.197079 
L 250.210945 242.197079 
L 250.210945 58.037937 
L 246.477361 58.037937 
z
" clip-path="url(#p8d3fad4424)" style="fill: url(#h352ec25683); stroke: #2ca02c; stroke-width: 2; stroke-linejoin: miter"/>
   </g>
   <g id="patch_33">
    <path d="M 250.869813 242.197079 
L 254.603397 242.197079 
L 254.603397 57.956883 
L 250.869813 57.956883 
z
" clip-path="url(#p8d3fad4424)" style="fill: url(#h352ec25683); stroke: #2ca02c; stroke-width: 2; stroke-linejoin: miter"/>
   </g>
   <g id="patch_34">
    <path d="M 255.262265 242.197079 
L 258.995849 242.197079 
L 258.995849 57.416069 
L 255.262265 57.416069 
z
" clip-path="url(#p8d3fad4424)" style="fill: url(#h352ec25683); stroke: #2ca02c; stroke-width: 2; stroke-linejoin: miter"/>
   </g>
   <g id="patch_35">
    <path d="M 259.654717 242.197079 
L 263.388301 242.197079 
L 263.388301 56.578285 
L 259.654717 56.578285 
z
" clip-path="url(#p8d3fad4424)" style="fill: url(#h352ec25683); stroke: #2ca02c; stroke-width: 2; stroke-linejoin: miter"/>
   </g>
   <g id="patch_36">
    <path d="M 264.047169 242.197079 
L 267.780753 242.197079 
L 267.780753 55.886398 
L 264.047169 55.886398 
z
" clip-path="url(#p8d3fad4424)" style="fill: url(#h352ec25683); stroke: #2ca02c; stroke-width: 2; stroke-linejoin: miter"/>
   </g>
   <g id="patch_37">
    <path d="M 268.439621 242.197079 
L 272.173205 242.197079 
L 272.173205 55.418795 
L 268.439621 55.418795 
z
" clip-path="url(#p8d3fad4424)" style="fill: url(#h352ec25683); stroke: #2ca02c; stroke-width: 2; stroke-linejoin: miter"/>
   </g>
   <g id="patch_38">
    <path d="M 272.832073 242.197079 
L 276.565658 242.197079 
L 276.565658 54.768591 
L 272.832073 54.768591 
z
" clip-path="url(#p8d3fad4424)" style="fill: url(#h352ec25683); stroke: #2ca02c; stroke-width: 2; stroke-linejoin: miter"/>
   </g>
   <g id="patch_39">
    <path d="M 277.224525 242.197079 
L 280.95811 242.197079 
L 280.95811 54.63423 
L 277.224525 54.63423 
z
" clip-path="url(#p8d3fad4424)" style="fill: url(#h352ec25683); stroke: #2ca02c; stroke-width: 2; stroke-linejoin: miter"/>
   </g>
   <g id="patch_40">
    <path d="M 281.616977 242.197079 
L 285.350562 242.197079 
L 285.350562 54.447053 
L 281.616977 54.447053 
z
" clip-path="url(#p8d3fad4424)" style="fill: url(#h352ec25683); stroke: #2ca02c; stroke-width: 2; stroke-linejoin: miter"/>
   </g>
   <g id="patch_41">
    <path d="M 286.00943 242.197079 
L 289.743014 242.197079 
L 289.743014 53.976424 
L 286.00943 53.976424 
z
" clip-path="url(#p8d3fad4424)" style="fill: url(#h352ec25683); stroke: #2ca02c; stroke-width: 2; stroke-linejoin: miter"/>
   </g>
   <g id="patch_42">
    <path d="M 290.401882 242.197079 
L 294.135466 242.197079 
L 294.135466 53.596946 
L 290.401882 53.596946 
z
" clip-path="url(#p8d3fad4424)" style="fill: url(#h352ec25683); stroke: #2ca02c; stroke-width: 2; stroke-linejoin: miter"/>
   </g>
   <g id="patch_43">
    <path d="M 294.794334 242.197079 
L 298.527918 242.197079 
L 298.527918 53.181794 
L 294.794334 53.181794 
z
" clip-path="url(#p8d3fad4424)" style="fill: url(#h352ec25683); stroke: #2ca02c; stroke-width: 2; stroke-linejoin: miter"/>
   </g>
   <g id="patch_44">
    <path d="M 299.186786 242.197079 
L 302.92037 242.197079 
L 302.92037 53.17326 
L 299.186786 53.17326 
z
" clip-path="url(#p8d3fad4424)" style="fill: url(#h352ec25683); stroke: #2ca02c; stroke-width: 2; stroke-linejoin: miter"/>
   </g>
   <g id="patch_45">
    <path d="M 303.579238 242.197079 
L 307.312822 242.197079 
L 307.312822 52.867633 
L 303.579238 52.867633 
z
" clip-path="url(#p8d3fad4424)" style="fill: url(#h352ec25683); stroke: #2ca02c; stroke-width: 2; stroke-linejoin: miter"/>
   </g>
   <g id="patch_46">
    <path d="M 307.97169 242.197079 
L 311.705274 242.197079 
L 311.705274 52.758384 
L 307.97169 52.758384 
z
" clip-path="url(#p8d3fad4424)" style="fill: url(#h352ec25683); stroke: #2ca02c; stroke-width: 2; stroke-linejoin: miter"/>
   </g>
   <g id="patch_47">
    <path d="M 312.364142 242.197079 
L 316.097726 242.197079 
L 316.097726 52.724091 
L 312.364142 52.724091 
z
" clip-path="url(#p8d3fad4424)" style="fill: url(#h352ec25683); stroke: #2ca02c; stroke-width: 2; stroke-linejoin: miter"/>
   </g>
   <g id="patch_48">
    <path d="M 316.756594 242.197079 
L 320.490178 242.197079 
L 320.490178 52.614676 
L 316.756594 52.614676 
z
" clip-path="url(#p8d3fad4424)" style="fill: url(#h352ec25683); stroke: #2ca02c; stroke-width: 2; stroke-linejoin: miter"/>
   </g>
   <g id="patch_49">
    <path d="M 321.149046 242.197079 
L 324.882631 242.197079 
L 324.882631 51.953413 
L 321.149046 51.953413 
z
" clip-path="url(#p8d3fad4424)" style="fill: url(#h352ec25683); stroke: #2ca02c; stroke-width: 2; stroke-linejoin: miter"/>
   </g>
   <g id="patch_50">
    <path d="M 325.541498 242.197079 
L 329.275083 242.197079 
L 329.275083 51.784672 
L 325.541498 51.784672 
z
" clip-path="url(#p8d3fad4424)" style="fill: url(#h352ec25683); stroke: #2ca02c; stroke-width: 2; stroke-linejoin: miter"/>
   </g>
   <g id="patch_51">
    <path d="M 329.93395 242.197079 
L 333.667535 242.197079 
L 333.667535 51.717523 
L 329.93395 51.717523 
z
" clip-path="url(#p8d3fad4424)" style="fill: url(#h352ec25683); stroke: #2ca02c; stroke-width: 2; stroke-linejoin: miter"/>
   </g>
   <g id="patch_52">
    <path d="M 334.326403 242.197079 
L 338.059987 242.197079 
L 338.059987 51.259221 
L 334.326403 51.259221 
z
" clip-path="url(#p8d3fad4424)" style="fill: url(#h352ec25683); stroke: #2ca02c; stroke-width: 2; stroke-linejoin: miter"/>
   </g>
   <g id="patch_53">
    <path d="M 338.718855 242.197079 
L 342.452439 242.197079 
L 342.452439 50.969214 
L 338.718855 50.969214 
z
" clip-path="url(#p8d3fad4424)" style="fill: url(#h352ec25683); stroke: #2ca02c; stroke-width: 2; stroke-linejoin: miter"/>
   </g>
   <g id="patch_54">
    <path d="M 343.111307 242.197079 
L 346.844891 242.197079 
L 346.844891 50.870885 
L 343.111307 50.870885 
z
" clip-path="url(#p8d3fad4424)" style="fill: url(#h352ec25683); stroke: #2ca02c; stroke-width: 2; stroke-linejoin: miter"/>
   </g>
   <g id="patch_55">
    <path d="M 347.503759 242.197079 
L 351.237343 242.197079 
L 351.237343 50.81622 
L 347.503759 50.81622 
z
" clip-path="url(#p8d3fad4424)" style="fill: url(#h352ec25683); stroke: #2ca02c; stroke-width: 2; stroke-linejoin: miter"/>
   </g>
   <g id="patch_56">
    <path d="M 351.896211 242.197079 
L 355.629795 242.197079 
L 355.629795 50.399708 
L 351.896211 50.399708 
z
" clip-path="url(#p8d3fad4424)" style="fill: url(#h352ec25683); stroke: #2ca02c; stroke-width: 2; stroke-linejoin: miter"/>
   </g>
   <g id="patch_57">
    <path d="M 356.288663 242.197079 
L 360.022247 242.197079 
L 360.022247 50.080625 
L 356.288663 50.080625 
z
" clip-path="url(#p8d3fad4424)" style="fill: url(#h352ec25683); stroke: #2ca02c; stroke-width: 2; stroke-linejoin: miter"/>
   </g>
   <g id="patch_58">
    <path d="M 360.681115 242.197079 
L 364.414699 242.197079 
L 364.414699 49.97917 
L 360.681115 49.97917 
z
" clip-path="url(#p8d3fad4424)" style="fill: url(#h352ec25683); stroke: #2ca02c; stroke-width: 2; stroke-linejoin: miter"/>
   </g>
   <g id="patch_59">
    <path d="M 365.073567 242.197079 
L 368.807151 242.197079 
L 368.807151 49.919586 
L 365.073567 49.919586 
z
" clip-path="url(#p8d3fad4424)" style="fill: url(#h352ec25683); stroke: #2ca02c; stroke-width: 2; stroke-linejoin: miter"/>
   </g>
   <g id="patch_60">
    <path d="M 369.466019 242.197079 
L 373.199604 242.197079 
L 373.199604 49.789224 
L 369.466019 49.789224 
z
" clip-path="url(#p8d3fad4424)" style="fill: url(#h352ec25683); stroke: #2ca02c; stroke-width: 2; stroke-linejoin: miter"/>
   </g>
   <g id="patch_61">
    <path d="M 373.858471 242.197079 
L 377.592056 242.197079 
L 377.592056 49.592247 
L 373.858471 49.592247 
z
" clip-path="url(#p8d3fad4424)" style="fill: url(#h352ec25683); stroke: #2ca02c; stroke-width: 2; stroke-linejoin: miter"/>
   </g>
   <g id="patch_62">
    <path d="M 378.250923 242.197079 
L 381.984508 242.197079 
L 381.984508 49.314923 
L 378.250923 49.314923 
z
" clip-path="url(#p8d3fad4424)" style="fill: url(#h352ec25683); stroke: #2ca02c; stroke-width: 2; stroke-linejoin: miter"/>
   </g>
   <g id="patch_63">
    <path d="M 382.643376 242.197079 
L 386.37696 242.197079 
L 386.37696 49.290473 
L 382.643376 49.290473 
z
" clip-path="url(#p8d3fad4424)" style="fill: url(#h352ec25683); stroke: #2ca02c; stroke-width: 2; stroke-linejoin: miter"/>
   </g>
   <g id="patch_64">
    <path d="M 387.035828 242.197079 
L 390.769412 242.197079 
L 390.769412 49.268256 
L 387.035828 49.268256 
z
" clip-path="url(#p8d3fad4424)" style="fill: url(#h352ec25683); stroke: #2ca02c; stroke-width: 2; stroke-linejoin: miter"/>
   </g>
   <g id="patch_65">
    <path d="M 391.42828 242.197079 
L 395.161864 242.197079 
L 395.161864 48.827112 
L 391.42828 48.827112 
z
" clip-path="url(#p8d3fad4424)" style="fill: url(#h352ec25683); stroke: #2ca02c; stroke-width: 2; stroke-linejoin: miter"/>
   </g>
   <g id="patch_66">
    <path d="M 395.820732 242.197079 
L 399.554316 242.197079 
L 399.554316 48.733269 
L 395.820732 48.733269 
z
" clip-path="url(#p8d3fad4424)" style="fill: url(#h352ec25683); stroke: #2ca02c; stroke-width: 2; stroke-linejoin: miter"/>
   </g>
   <g id="patch_67">
    <path d="M 400.213184 242.197079 
L 403.946768 242.197079 
L 403.946768 48.713149 
L 400.213184 48.713149 
z
" clip-path="url(#p8d3fad4424)" style="fill: url(#h31c77fa768); stroke: #ff7f0e; stroke-width: 2; stroke-linejoin: miter"/>
   </g>
   <g id="patch_68">
    <path d="M 404.605636 242.197079 
L 408.33922 242.197079 
L 408.33922 48.323354 
L 404.605636 48.323354 
z
" clip-path="url(#p8d3fad4424)" style="fill: url(#h31c77fa768); stroke: #ff7f0e; stroke-width: 2; stroke-linejoin: miter"/>
   </g>
   <g id="patch_69">
    <path d="M 408.998088 242.197079 
L 412.731672 242.197079 
L 412.731672 48.161592 
L 408.998088 48.161592 
z
" clip-path="url(#p8d3fad4424)" style="fill: url(#h31c77fa768); stroke: #ff7f0e; stroke-width: 2; stroke-linejoin: miter"/>
   </g>
   <g id="patch_70">
    <path d="M 413.39054 242.197079 
L 417.124124 242.197079 
L 417.124124 48.12111 
L 413.39054 48.12111 
z
" clip-path="url(#p8d3fad4424)" style="fill: url(#h31c77fa768); stroke: #ff7f0e; stroke-width: 2; stroke-linejoin: miter"/>
   </g>
   <g id="patch_71">
    <path d="M 417.782992 242.197079 
L 421.516577 242.197079 
L 421.516577 48.040107 
L 417.782992 48.040107 
z
" clip-path="url(#p8d3fad4424)" style="fill: url(#h31c77fa768); stroke: #ff7f0e; stroke-width: 2; stroke-linejoin: miter"/>
   </g>
   <g id="patch_72">
    <path d="M 422.175444 242.197079 
L 425.909029 242.197079 
L 425.909029 48.013078 
L 422.175444 48.013078 
z
" clip-path="url(#p8d3fad4424)" style="fill: url(#h31c77fa768); stroke: #ff7f0e; stroke-width: 2; stroke-linejoin: miter"/>
   </g>
   <g id="patch_73">
    <path d="M 426.567896 242.197079 
L 430.301481 242.197079 
L 430.301481 47.972533 
L 426.567896 47.972533 
z
" clip-path="url(#p8d3fad4424)" style="fill: url(#h31c77fa768); stroke: #ff7f0e; stroke-width: 2; stroke-linejoin: miter"/>
   </g>
   <g id="patch_74">
    <path d="M 430.960349 242.197079 
L 434.693933 242.197079 
L 434.693933 47.959024 
L 430.960349 47.959024 
z
" clip-path="url(#p8d3fad4424)" style="fill: url(#h31c77fa768); stroke: #ff7f0e; stroke-width: 2; stroke-linejoin: miter"/>
   </g>
   <g id="patch_75">
    <path d="M 435.352801 242.197079 
L 439.086385 242.197079 
L 439.086385 47.832767 
L 435.352801 47.832767 
z
" clip-path="url(#p8d3fad4424)" style="fill: url(#h31c77fa768); stroke: #ff7f0e; stroke-width: 2; stroke-linejoin: miter"/>
   </g>
   <g id="patch_76">
    <path d="M 439.745253 242.197079 
L 443.478837 242.197079 
L 443.478837 47.801173 
L 439.745253 47.801173 
z
" clip-path="url(#p8d3fad4424)" style="fill: url(#h31c77fa768); stroke: #ff7f0e; stroke-width: 2; stroke-linejoin: miter"/>
   </g>
   <g id="patch_77">
    <path d="M 444.137705 242.197079 
L 447.871289 242.197079 
L 447.871289 47.787626 
L 444.137705 47.787626 
z
" clip-path="url(#p8d3fad4424)" style="fill: url(#h31c77fa768); stroke: #ff7f0e; stroke-width: 2; stroke-linejoin: miter"/>
   </g>
   <g id="patch_78">
    <path d="M 448.530157 242.197079 
L 452.263741 242.197079 
L 452.263741 47.652107 
L 448.530157 47.652107 
z
" clip-path="url(#p8d3fad4424)" style="fill: url(#h31c77fa768); stroke: #ff7f0e; stroke-width: 2; stroke-linejoin: miter"/>
   </g>
   <g id="patch_79">
    <path d="M 452.922609 242.197079 
L 456.656193 242.197079 
L 456.656193 47.502811 
L 452.922609 47.502811 
z
" clip-path="url(#p8d3fad4424)" style="fill: url(#h31c77fa768); stroke: #ff7f0e; stroke-width: 2; stroke-linejoin: miter"/>
   </g>
   <g id="patch_80">
    <path d="M 457.315061 242.197079 
L 461.048645 242.197079 
L 461.048645 47.4394 
L 457.315061 47.4394 
z
" clip-path="url(#p8d3fad4424)" style="fill: url(#h31c77fa768); stroke: #ff7f0e; stroke-width: 2; stroke-linejoin: miter"/>
   </g>
   <g id="patch_81">
    <path d="M 461.707513 242.197079 
L 465.441097 242.197079 
L 465.441097 47.39409 
L 461.707513 47.39409 
z
" clip-path="url(#p8d3fad4424)" style="fill: url(#h31c77fa768); stroke: #ff7f0e; stroke-width: 2; stroke-linejoin: miter"/>
   </g>
   <g id="patch_82">
    <path d="M 466.099965 242.197079 
L 469.83355 242.197079 
L 469.83355 47.37596 
L 466.099965 47.37596 
z
" clip-path="url(#p8d3fad4424)" style="fill: url(#h31c77fa768); stroke: #ff7f0e; stroke-width: 2; stroke-linejoin: miter"/>
   </g>
   <g id="patch_83">
    <path d="M 470.492417 242.197079 
L 474.226002 242.197079 
L 474.226002 47.364624 
L 470.492417 47.364624 
z
" clip-path="url(#p8d3fad4424)" style="fill: url(#h31c77fa768); stroke: #ff7f0e; stroke-width: 2; stroke-linejoin: miter"/>
   </g>
   <g id="patch_84">
    <path d="M 474.884869 242.197079 
L 478.618454 242.197079 
L 478.618454 47.346489 
L 474.884869 47.346489 
z
" clip-path="url(#p8d3fad4424)" style="fill: url(#h31c77fa768); stroke: #ff7f0e; stroke-width: 2; stroke-linejoin: miter"/>
   </g>
   <g id="patch_85">
    <path d="M 479.277322 242.197079 
L 483.010906 242.197079 
L 483.010906 47.335149 
L 479.277322 47.335149 
z
" clip-path="url(#p8d3fad4424)" style="fill: url(#h31c77fa768); stroke: #ff7f0e; stroke-width: 2; stroke-linejoin: miter"/>
   </g>
   <g id="patch_86">
    <path d="M 483.669774 242.197079 
L 487.403358 242.197079 
L 487.403358 47.319266 
L 483.669774 47.319266 
z
" clip-path="url(#p8d3fad4424)" style="fill: url(#h31c77fa768); stroke: #ff7f0e; stroke-width: 2; stroke-linejoin: miter"/>
   </g>
   <g id="patch_87">
    <path d="M 488.062226 242.197079 
L 491.79581 242.197079 
L 491.79581 47.305665 
L 488.062226 47.305665 
z
" clip-path="url(#p8d3fad4424)" style="fill: url(#h31c77fa768); stroke: #ff7f0e; stroke-width: 2; stroke-linejoin: miter"/>
   </g>
   <g id="patch_88">
    <path d="M 492.454678 242.197079 
L 496.188262 242.197079 
L 496.188262 47.264825 
L 492.454678 47.264825 
z
" clip-path="url(#p8d3fad4424)" style="fill: url(#h31c77fa768); stroke: #ff7f0e; stroke-width: 2; stroke-linejoin: miter"/>
   </g>
   <g id="patch_89">
    <path d="M 496.84713 242.197079 
L 500.580714 242.197079 
L 500.580714 47.262552 
L 496.84713 47.262552 
z
" clip-path="url(#p8d3fad4424)" style="fill: url(#h31c77fa768); stroke: #ff7f0e; stroke-width: 2; stroke-linejoin: miter"/>
   </g>
   <g id="patch_90">
    <path d="M 501.239582 242.197079 
L 504.973166 242.197079 
L 504.973166 47.235319 
L 501.239582 47.235319 
z
" clip-path="url(#p8d3fad4424)" style="fill: url(#h31c77fa768); stroke: #ff7f0e; stroke-width: 2; stroke-linejoin: miter"/>
   </g>
   <g id="patch_91">
    <path d="M 505.632034 242.197079 
L 509.365618 242.197079 
L 509.365618 47.210339 
L 505.632034 47.210339 
z
" clip-path="url(#p8d3fad4424)" style="fill: url(#h31c77fa768); stroke: #ff7f0e; stroke-width: 2; stroke-linejoin: miter"/>
   </g>
   <g id="patch_92">
    <path d="M 510.024486 242.197079 
L 513.75807 242.197079 
L 513.75807 47.205805 
L 510.024486 47.205805 
z
" clip-path="url(#p8d3fad4424)" style="fill: url(#h31c77fa768); stroke: #ff7f0e; stroke-width: 2; stroke-linejoin: miter"/>
   </g>
   <g id="patch_93">
    <path d="M 514.416938 242.197079 
L 518.150523 242.197079 
L 518.150523 47.162648 
L 514.416938 47.162648 
z
" clip-path="url(#p8d3fad4424)" style="fill: url(#h31c77fa768); stroke: #ff7f0e; stroke-width: 2; stroke-linejoin: miter"/>
   </g>
   <g id="patch_94">
    <path d="M 518.80939 242.197079 
L 522.542975 242.197079 
L 522.542975 47.158099 
L 518.80939 47.158099 
z
" clip-path="url(#p8d3fad4424)" style="fill: url(#h31c77fa768); stroke: #ff7f0e; stroke-width: 2; stroke-linejoin: miter"/>
   </g>
   <g id="patch_95">
    <path d="M 523.201842 242.197079 
L 526.935427 242.197079 
L 526.935427 47.146751 
L 523.201842 47.146751 
z
" clip-path="url(#p8d3fad4424)" style="fill: url(#h31c77fa768); stroke: #ff7f0e; stroke-width: 2; stroke-linejoin: miter"/>
   </g>
   <g id="patch_96">
    <path d="M 527.594295 242.197079 
L 531.327879 242.197079 
L 531.327879 47.126299 
L 527.594295 47.126299 
z
" clip-path="url(#p8d3fad4424)" style="fill: url(#h31c77fa768); stroke: #ff7f0e; stroke-width: 2; stroke-linejoin: miter"/>
   </g>
   <g id="patch_97">
    <path d="M 531.986747 242.197079 
L 535.720331 242.197079 
L 535.720331 47.04445 
L 531.986747 47.04445 
z
" clip-path="url(#p8d3fad4424)" style="fill: url(#h31c77fa768); stroke: #ff7f0e; stroke-width: 2; stroke-linejoin: miter"/>
   </g>
   <g id="patch_98">
    <path d="M 536.379199 242.197079 
L 540.112783 242.197079 
L 540.112783 47.042173 
L 536.379199 47.042173 
z
" clip-path="url(#p8d3fad4424)" style="fill: url(#h31c77fa768); stroke: #ff7f0e; stroke-width: 2; stroke-linejoin: miter"/>
   </g>
   <g id="patch_99">
    <path d="M 540.771651 242.197079 
L 544.505235 242.197079 
L 544.505235 46.976195 
L 540.771651 46.976195 
z
" clip-path="url(#p8d3fad4424)" style="fill: url(#h31c77fa768); stroke: #ff7f0e; stroke-width: 2; stroke-linejoin: miter"/>
   </g>
   <g id="patch_100">
    <path d="M 545.164103 242.197079 
L 548.897687 242.197079 
L 548.897687 46.962533 
L 545.164103 46.962533 
z
" clip-path="url(#p8d3fad4424)" style="fill: url(#h31c77fa768); stroke: #ff7f0e; stroke-width: 2; stroke-linejoin: miter"/>
   </g>
   <g id="patch_101">
    <path d="M 549.556555 242.197079 
L 553.290139 242.197079 
L 553.290139 46.939763 
L 549.556555 46.939763 
z
" clip-path="url(#p8d3fad4424)" style="fill: url(#h31c77fa768); stroke: #ff7f0e; stroke-width: 2; stroke-linejoin: miter"/>
   </g>
   <g id="patch_102">
    <path d="M 553.949007 242.197079 
L 557.682591 242.197079 
L 557.682591 46.898769 
L 553.949007 46.898769 
z
" clip-path="url(#p8d3fad4424)" style="fill: url(#h31c77fa768); stroke: #ff7f0e; stroke-width: 2; stroke-linejoin: miter"/>
   </g>
   <g id="patch_103">
    <path d="M 558.341459 242.197079 
L 562.075044 242.197079 
L 562.075044 46.869153 
L 558.341459 46.869153 
z
" clip-path="url(#p8d3fad4424)" style="fill: url(#h31c77fa768); stroke: #ff7f0e; stroke-width: 2; stroke-linejoin: miter"/>
   </g>
   <g id="patch_104">
    <path d="M 562.733911 242.197079 
L 566.467496 242.197079 
L 566.467496 46.828143 
L 562.733911 46.828143 
z
" clip-path="url(#p8d3fad4424)" style="fill: url(#h31c77fa768); stroke: #ff7f0e; stroke-width: 2; stroke-linejoin: miter"/>
   </g>
   <g id="patch_105">
    <path d="M 567.126363 242.197079 
L 570.859948 242.197079 
L 570.859948 46.787102 
L 567.126363 46.787102 
z
" clip-path="url(#p8d3fad4424)" style="fill: url(#h31c77fa768); stroke: #ff7f0e; stroke-width: 2; stroke-linejoin: miter"/>
   </g>
   <g id="patch_106">
    <path d="M 571.518816 242.197079 
L 575.2524 242.197079 
L 575.2524 46.709525 
L 571.518816 46.709525 
z
" clip-path="url(#p8d3fad4424)" style="fill: url(#h31c77fa768); stroke: #ff7f0e; stroke-width: 2; stroke-linejoin: miter"/>
   </g>
   <g id="patch_107">
    <path d="M 575.911268 242.197079 
L 579.644852 242.197079 
L 579.644852 46.68671 
L 575.911268 46.68671 
z
" clip-path="url(#p8d3fad4424)" style="fill: url(#h31c77fa768); stroke: #ff7f0e; stroke-width: 2; stroke-linejoin: miter"/>
   </g>
   <g id="patch_108">
    <path d="M 580.30372 242.197079 
L 584.037304 242.197079 
L 584.037304 46.663875 
L 580.30372 46.663875 
z
" clip-path="url(#p8d3fad4424)" style="fill: url(#h31c77fa768); stroke: #ff7f0e; stroke-width: 2; stroke-linejoin: miter"/>
   </g>
   <g id="patch_109">
    <path d="M 584.696172 242.197079 
L 588.429756 242.197079 
L 588.429756 46.588489 
L 584.696172 46.588489 
z
" clip-path="url(#p8d3fad4424)" style="fill: url(#h31c77fa768); stroke: #ff7f0e; stroke-width: 2; stroke-linejoin: miter"/>
   </g>
   <g id="patch_110">
    <path d="M 589.088624 242.197079 
L 592.822208 242.197079 
L 592.822208 46.535928 
L 589.088624 46.535928 
z
" clip-path="url(#p8d3fad4424)" style="fill: url(#h31c77fa768); stroke: #ff7f0e; stroke-width: 2; stroke-linejoin: miter"/>
   </g>
   <g id="patch_111">
    <path d="M 593.481076 242.197079 
L 597.21466 242.197079 
L 597.21466 46.526784 
L 593.481076 46.526784 
z
" clip-path="url(#p8d3fad4424)" style="fill: url(#h31c77fa768); stroke: #ff7f0e; stroke-width: 2; stroke-linejoin: miter"/>
   </g>
   <g id="patch_112">
    <path d="M 597.873528 242.197079 
L 601.607112 242.197079 
L 601.607112 46.503912 
L 597.873528 46.503912 
z
" clip-path="url(#p8d3fad4424)" style="fill: url(#h31c77fa768); stroke: #ff7f0e; stroke-width: 2; stroke-linejoin: miter"/>
   </g>
   <g id="patch_113">
    <path d="M 602.26598 242.197079 
L 605.999564 242.197079 
L 605.999564 46.497055 
L 602.26598 46.497055 
z
" clip-path="url(#p8d3fad4424)" style="fill: url(#h31c77fa768); stroke: #ff7f0e; stroke-width: 2; stroke-linejoin: miter"/>
   </g>
   <g id="patch_114">
    <path d="M 606.658432 242.197079 
L 610.392017 242.197079 
L 610.392017 46.485616 
L 606.658432 46.485616 
z
" clip-path="url(#p8d3fad4424)" style="fill: url(#h31c77fa768); stroke: #ff7f0e; stroke-width: 2; stroke-linejoin: miter"/>
   </g>
   <g id="patch_115">
    <path d="M 611.050884 242.197079 
L 614.784469 242.197079 
L 614.784469 46.465026 
L 611.050884 46.465026 
z
" clip-path="url(#p8d3fad4424)" style="fill: url(#h31c77fa768); stroke: #ff7f0e; stroke-width: 2; stroke-linejoin: miter"/>
   </g>
   <g id="patch_116">
    <path d="M 615.443336 242.197079 
L 619.176921 242.197079 
L 619.176921 46.428402 
L 615.443336 46.428402 
z
" clip-path="url(#p8d3fad4424)" style="fill: url(#h31c77fa768); stroke: #ff7f0e; stroke-width: 2; stroke-linejoin: miter"/>
   </g>
   <g id="patch_117">
    <path d="M 619.835789 242.197079 
L 623.569373 242.197079 
L 623.569373 46.412385 
L 619.835789 46.412385 
z
" clip-path="url(#p8d3fad4424)" style="fill: url(#h31c77fa768); stroke: #ff7f0e; stroke-width: 2; stroke-linejoin: miter"/>
   </g>
   <g id="patch_118">
    <path d="M 624.228241 242.197079 
L 627.961825 242.197079 
L 627.961825 46.4078 
L 624.228241 46.4078 
z
" clip-path="url(#p8d3fad4424)" style="fill: url(#h31c77fa768); stroke: #ff7f0e; stroke-width: 2; stroke-linejoin: miter"/>
   </g>
   <g id="patch_119">
    <path d="M 628.620693 242.197079 
L 632.354277 242.197079 
L 632.354277 46.396365 
L 628.620693 46.396365 
z
" clip-path="url(#p8d3fad4424)" style="fill: url(#h31c77fa768); stroke: #ff7f0e; stroke-width: 2; stroke-linejoin: miter"/>
   </g>
   <g id="patch_120">
    <path d="M 633.013145 242.197079 
L 636.746729 242.197079 
L 636.746729 46.389486 
L 633.013145 46.389486 
z
" clip-path="url(#p8d3fad4424)" style="fill: url(#h31c77fa768); stroke: #ff7f0e; stroke-width: 2; stroke-linejoin: miter"/>
   </g>
   <g id="patch_121">
    <path d="M 637.405597 242.197079 
L 641.139181 242.197079 
L 641.139181 46.382621 
L 637.405597 46.382621 
z
" clip-path="url(#p8d3fad4424)" style="fill: url(#h31c77fa768); stroke: #ff7f0e; stroke-width: 2; stroke-linejoin: miter"/>
   </g>
   <g id="patch_122">
    <path d="M 641.798049 242.197079 
L 645.531633 242.197079 
L 645.531633 46.272645 
L 641.798049 46.272645 
z
" clip-path="url(#p8d3fad4424)" style="fill: url(#h31c77fa768); stroke: #ff7f0e; stroke-width: 2; stroke-linejoin: miter"/>
   </g>
   <g id="patch_123">
    <path d="M 646.190501 242.197079 
L 649.924085 242.197079 
L 649.924085 46.18778 
L 646.190501 46.18778 
z
" clip-path="url(#p8d3fad4424)" style="fill: url(#h31c77fa768); stroke: #ff7f0e; stroke-width: 2; stroke-linejoin: miter"/>
   </g>
   <g id="patch_124">
    <path d="M 650.582953 242.197079 
L 654.316537 242.197079 
L 654.316537 46.132705 
L 650.582953 46.132705 
z
" clip-path="url(#p8d3fad4424)" style="fill: url(#h31c77fa768); stroke: #ff7f0e; stroke-width: 2; stroke-linejoin: miter"/>
   </g>
   <g id="patch_125">
    <path d="M 654.975405 242.197079 
L 658.70899 242.197079 
L 658.70899 46.100557 
L 654.975405 46.100557 
z
" clip-path="url(#p8d3fad4424)" style="fill: url(#h31c77fa768); stroke: #ff7f0e; stroke-width: 2; stroke-linejoin: miter"/>
   </g>
   <g id="patch_126">
    <path d="M 659.367857 242.197079 
L 663.101442 242.197079 
L 663.101442 45.932773 
L 659.367857 45.932773 
z
" clip-path="url(#p8d3fad4424)" style="fill: url(#h31c77fa768); stroke: #ff7f0e; stroke-width: 2; stroke-linejoin: miter"/>
   </g>
   <g id="patch_127">
    <path d="M 663.760309 242.197079 
L 667.493894 242.197079 
L 667.493894 45.845308 
L 663.760309 45.845308 
z
" clip-path="url(#p8d3fad4424)" style="fill: url(#h31c77fa768); stroke: #ff7f0e; stroke-width: 2; stroke-linejoin: miter"/>
   </g>
   <g id="patch_128">
    <path d="M 668.152762 242.197079 
L 671.886346 242.197079 
L 671.886346 45.707066 
L 668.152762 45.707066 
z
" clip-path="url(#p8d3fad4424)" style="fill: url(#h31c77fa768); stroke: #ff7f0e; stroke-width: 2; stroke-linejoin: miter"/>
   </g>
   <g id="patch_129">
    <path d="M 672.545214 242.197079 
L 676.278798 242.197079 
L 676.278798 45.665553 
L 672.545214 45.665553 
z
" clip-path="url(#p8d3fad4424)" style="fill: url(#h31c77fa768); stroke: #ff7f0e; stroke-width: 2; stroke-linejoin: miter"/>
   </g>
   <g id="patch_130">
    <path d="M 676.937666 242.197079 
L 680.67125 242.197079 
L 680.67125 44.295099 
L 676.937666 44.295099 
z
" clip-path="url(#p8d3fad4424)" style="fill: url(#h31c77fa768); stroke: #ff7f0e; stroke-width: 2; stroke-linejoin: miter"/>
   </g>
   <g id="line2d_23">
    <path d="M 91.0175 48.723209 
L 708.75 48.723209 
" clip-path="url(#p8d3fad4424)" style="fill: none; stroke-dasharray: 4.44,1.92; stroke-dashoffset: 0; stroke: #f58518; stroke-width: 1.2"/>
   </g>
   <g id="patch_131">
    <path d="M 91.0175 242.197079 
L 91.0175 34.4 
" style="fill: none; stroke: #808080; stroke-width: 0.8; stroke-linejoin: miter; stroke-linecap: square"/>
   </g>
   <g id="patch_132">
    <path d="M 91.0175 242.197079 
L 708.75 242.197079 
" style="fill: none; stroke: #808080; stroke-width: 0.8; stroke-linejoin: miter; stroke-linecap: square"/>
   </g>
   <g id="text_21">
    <text style="font: 22px 'PingFang SC', 'Heiti SC', 'STHeiti', 'Calibri', 'Arial', 'Helvetica Neue', 'Arial Unicode MS', 'Noto Sans CJK SC', 'DejaVu Sans', sans-serif; text-anchor: middle" x="399.88375" y="28.4" transform="rotate(-0 399.88375 28.4)">排序条形 · HBM GB/s</text>
   </g>
   <g id="legend_1">
    <g id="patch_133">
     <path d="M 99.4175 61.16 
L 216.875 61.16 
Q 219.275 61.16 219.275 58.76 
L 219.275 42.8 
Q 219.275 40.4 216.875 40.4 
L 99.4175 40.4 
Q 97.0175 40.4 97.0175 42.8 
L 97.0175 58.76 
Q 97.0175 61.16 99.4175 61.16 
z
" style="fill: #ffffff; opacity: 0.5; stroke: #cccccc; stroke-linejoin: miter"/>
    </g>
    <g id="line2d_24">
     <path d="M 101.8175 50.55125 
L 113.8175 50.55125 
L 125.8175 50.55125 
" style="fill: none; stroke-dasharray: 4.44,1.92; stroke-dashoffset: 0; stroke: #f58518; stroke-width: 1.2"/>
    </g>
    <g id="text_22">
     <text style="font: 12px 'PingFang SC', 'Heiti SC', 'STHeiti', 'Calibri', 'Arial', 'Helvetica Neue', 'Arial Unicode MS', 'Noto Sans CJK SC', 'DejaVu Sans', sans-serif; text-anchor: start" x="135.4175" y="54.75125" transform="rotate(-0 135.4175 54.75125)">median=1241</text>
    </g>
   </g>
  </g>
 </g>
 <defs>
  <clipPath id="p8d3fad4424">
   <rect x="91.0175" y="34.4" width="617.7325" height="207.797079"/>
  </clipPath>
 </defs>
 <defs>
  <pattern id="h352ec25683" patternUnits="userSpaceOnUse" x="0" y="0" width="72" height="72">
   <rect x="0" y="0" width="73" height="73" fill="none"/>
   <path d="M -36 36 
L 36 -36 
M -30 42 
L 42 -30 
M -24 48 
L 48 -24 
M -18 54 
L 54 -18 
M -12 60 
L 60 -12 
M -6 66 
L 66 -6 
M 0 72 
L 72 0 
M 6 78 
L 78 6 
M 12 84 
L 84 12 
M 18 90 
L 90 18 
M 24 96 
L 96 24 
M 30 102 
L 102 30 
M 36 108 
L 108 36 
M -36 36 
L 36 108 
M -30 30 
L 42 102 
M -24 24 
L 48 96 
M -18 18 
L 54 90 
M -12 12 
L 60 84 
M -6 6 
L 66 78 
M 0 0 
L 72 72 
M 6 -6 
L 78 66 
M 12 -12 
L 84 60 
M 18 -18 
L 90 54 
M 24 -24 
L 96 48 
M 30 -30 
L 102 42 
M 36 -36 
L 108 36 
" style="fill: #2ca02c; stroke: #2ca02c; stroke-width: 1.0; stroke-linecap: butt; stroke-linejoin: miter"/>
  </pattern>
  <pattern id="h31c77fa768" patternUnits="userSpaceOnUse" x="0" y="0" width="72" height="72">
   <rect x="0" y="0" width="73" height="73" fill="none"/>
   <path d="M -36 36 
L 36 -36 
M -30 42 
L 42 -30 
M -24 48 
L 48 -24 
M -18 54 
L 54 -18 
M -12 60 
L 60 -12 
M -6 66 
L 66 -6 
M 0 72 
L 72 0 
M 6 78 
L 78 6 
M 12 84 
L 84 12 
M 18 90 
L 90 18 
M 24 96 
L 96 24 
M 30 102 
L 102 30 
M 36 108 
L 108 36 
" style="fill: #ff7f0e; stroke: #ff7f0e; stroke-width: 1.0; stroke-linecap: butt; stroke-linejoin: miter"/>
  </pattern>
 </defs>
</svg>
