<?xml version="1.0" encoding="utf-8" standalone="no"?>
<!DOCTYPE svg PUBLIC "-//W3C//DTD SVG 1.1//EN"
  "http://www.w3.org/Graphics/SVG/1.1/DTD/svg11.dtd">
<svg xmlns:xlink="http://www.w3.org/1999/xlink" width="719.745pt" height="307.064674pt" viewBox="0 0 719.745 307.064674" xmlns="http://www.w3.org/2000/svg" version="1.1">
 <metadata>
  <rdf:RDF xmlns:dc="http://purl.org/dc/elements/1.1/" xmlns:cc="http://creativecommons.org/ns#" xmlns:rdf="http://www.w3.org/1999/02/22-rdf-syntax-ns#">
   <cc:Work>
    <dc:type rdf:resource="http://purl.org/dc/dcmitype/StillImage"/>
    <dc:date>2026-07-11T20:14:10.762534</dc:date>
    <dc:format>image/svg+xml</dc:format>
    <dc:creator>
     <cc:Agent>
      <dc:title>Matplotlib v3.9.4, https://matplotlib.org/</dc:title>
     </cc:Agent>
    </dc:creator>
   </cc:Work>
  </rdf:RDF>
 </metadata>
 <defs>
  <style type="text/css">*{stroke-linejoin: round; stroke-linecap: butt}</style>
 </defs>
 <g id="figure_1">
  <g id="patch_1">
   <path d="M 0 307.064674 
L 719.745 307.064674 
L 719.745 0 
L 0 0 
z
" style="fill: #ffffff"/>
  </g>
  <g id="axes_1">
   <g id="patch_2">
    <path d="M 67.5875 242.20768 
L 708.945 242.20768 
L 708.945 35.259375 
L 67.5875 35.259375 
z
" style="fill: #ffffff"/>
   </g>
   <g id="matplotlib.axis_1">
    <g id="xtick_1">
     <g id="line2d_1">
      <defs>
       <path id="m810d5c693e" d="M 0 0 
L 0 3.5 
" style="stroke: #808080; stroke-width: 0.8"/>
      </defs>
      <g>
       <use xlink:href="#m810d5c693e" x="98.678301" y="242.20768" style="fill: #808080; stroke: #808080; stroke-width: 0.8"/>
      </g>
     </g>
     <g id="text_1">
      <text style="fill: #808080; font: 8px 'PingFang SC', 'Heiti SC', 'STHeiti', 'Calibri', 'Arial', 'Helvetica Neue', 'Arial Unicode MS', 'Noto Sans CJK SC', 'DejaVu Sans', sans-serif" transform="translate(75.181363 291.480569) rotate(-60)">worker-2:d3</text>
     </g>
    </g>
    <g id="xtick_2">
     <g id="line2d_2">
      <g>
       <use xlink:href="#m810d5c693e" x="135.161822" y="242.20768" style="fill: #808080; stroke: #808080; stroke-width: 0.8"/>
      </g>
     </g>
     <g id="text_2">
      <text style="fill: #808080; font: 8px 'PingFang SC', 'Heiti SC', 'STHeiti', 'Calibri', 'Arial', 'Helvetica Neue', 'Arial Unicode MS', 'Noto Sans CJK SC', 'DejaVu Sans', sans-serif" transform="translate(111.428635 291.889766) rotate(-60)">master-0:d8</text>
     </g>
    </g>
    <g id="xtick_3">
     <g id="line2d_3">
      <g>
       <use xlink:href="#m810d5c693e" x="171.645343" y="242.20768" style="fill: #808080; stroke: #808080; stroke-width: 0.8"/>
      </g>
     </g>
     <g id="text_3">
      <text style="fill: #808080; font: 8px 'PingFang SC', 'Heiti SC', 'STHeiti', 'Calibri', 'Arial', 'Helvetica Neue', 'Arial Unicode MS', 'Noto Sans CJK SC', 'DejaVu Sans', sans-serif" transform="translate(145.932156 295.319227) rotate(-60)">worker-3:d10</text>
     </g>
    </g>
    <g id="xtick_4">
     <g id="line2d_4">
      <g>
       <use xlink:href="#m810d5c693e" x="208.128864" y="242.20768" style="fill: #808080; stroke: #808080; stroke-width: 0.8"/>
      </g>
     </g>
     <g id="text_4">
      <text style="fill: #808080; font: 8px 'PingFang SC', 'Heiti SC', 'STHeiti', 'Calibri', 'Arial', 'Helvetica Neue', 'Arial Unicode MS', 'Noto Sans CJK SC', 'DejaVu Sans', sans-serif" transform="translate(184.631927 291.480569) rotate(-60)">worker-4:d6</text>
     </g>
    </g>
    <g id="xtick_5">
     <g id="line2d_5">
      <g>
       <use xlink:href="#m810d5c693e" x="244.612385" y="242.20768" style="fill: #808080; stroke: #808080; stroke-width: 0.8"/>
      </g>
     </g>
     <g id="text_5">
      <text style="fill: #808080; font: 8px 'PingFang SC', 'Heiti SC', 'STHeiti', 'Calibri', 'Arial', 'Helvetica Neue', 'Arial Unicode MS', 'Noto Sans CJK SC', 'DejaVu Sans', sans-serif" transform="translate(221.115448 291.480569) rotate(-60)">worker-0:d5</text>
     </g>
    </g>
    <g id="xtick_6">
     <g id="line2d_6">
      <g>
       <use xlink:href="#m810d5c693e" x="281.095907" y="242.20768" style="fill: #808080; stroke: #808080; stroke-width: 0.8"/>
      </g>
     </g>
     <g id="text_6">
      <text style="fill: #808080; font: 8px 'PingFang SC', 'Heiti SC', 'STHeiti', 'Calibri', 'Arial', 'Helvetica Neue', 'Arial Unicode MS', 'Noto Sans CJK SC', 'DejaVu Sans', sans-serif" transform="translate(257.598969 291.480569) rotate(-60)">worker-2:d4</text>
     </g>
    </g>
    <g id="xtick_7">
     <g id="line2d_7">
      <g>
       <use xlink:href="#m810d5c693e" x="317.579428" y="242.20768" style="fill: #808080; stroke: #808080; stroke-width: 0.8"/>
      </g>
     </g>
     <g id="text_7">
      <text style="fill: #808080; font: 8px 'PingFang SC', 'Heiti SC', 'STHeiti', 'Calibri', 'Arial', 'Helvetica Neue', 'Arial Unicode MS', 'Noto Sans CJK SC', 'DejaVu Sans', sans-serif" transform="translate(294.08249 291.480569) rotate(-60)">worker-1:d0</text>
     </g>
    </g>
    <g id="xtick_8">
     <g id="line2d_8">
      <g>
       <use xlink:href="#m810d5c693e" x="354.062949" y="242.20768" style="fill: #808080; stroke: #808080; stroke-width: 0.8"/>
      </g>
     </g>
     <g id="text_8">
      <text style="fill: #808080; font: 8px 'PingFang SC', 'Heiti SC', 'STHeiti', 'Calibri', 'Arial', 'Helvetica Neue', 'Arial Unicode MS', 'Noto Sans CJK SC', 'DejaVu Sans', sans-serif" transform="translate(330.566012 291.480569) rotate(-60)">worker-1:d5</text>
     </g>
    </g>
    <g id="xtick_9">
     <g id="line2d_9">
      <g>
       <use xlink:href="#m810d5c693e" x="390.54647" y="242.20768" style="fill: #808080; stroke: #808080; stroke-width: 0.8"/>
      </g>
     </g>
     <g id="text_9">
      <text style="fill: #808080; font: 8px 'PingFang SC', 'Heiti SC', 'STHeiti', 'Calibri', 'Arial', 'Helvetica Neue', 'Arial Unicode MS', 'Noto Sans CJK SC', 'DejaVu Sans', sans-serif" transform="translate(364.597033 295.728424) rotate(-60)">master-0:d13</text>
     </g>
    </g>
    <g id="xtick_10">
     <g id="line2d_10">
      <g>
       <use xlink:href="#m810d5c693e" x="427.029991" y="242.20768" style="fill: #808080; stroke: #808080; stroke-width: 0.8"/>
      </g>
     </g>
     <g id="text_10">
      <text style="fill: #808080; font: 8px 'PingFang SC', 'Heiti SC', 'STHeiti', 'Calibri', 'Arial', 'Helvetica Neue', 'Arial Unicode MS', 'Noto Sans CJK SC', 'DejaVu Sans', sans-serif" transform="translate(401.316804 295.319227) rotate(-60)">worker-4:d10</text>
     </g>
    </g>
    <g id="xtick_11">
     <g id="line2d_11">
      <g>
       <use xlink:href="#m810d5c693e" x="463.513512" y="242.20768" style="fill: #808080; stroke: #808080; stroke-width: 0.8"/>
      </g>
     </g>
     <g id="text_11">
      <text style="fill: #808080; font: 8px 'PingFang SC', 'Heiti SC', 'STHeiti', 'Calibri', 'Arial', 'Helvetica Neue', 'Arial Unicode MS', 'Noto Sans CJK SC', 'DejaVu Sans', sans-serif" transform="translate(440.016575 291.480569) rotate(-60)">worker-4:d0</text>
     </g>
    </g>
    <g id="xtick_12">
     <g id="line2d_12">
      <g>
       <use xlink:href="#m810d5c693e" x="499.997034" y="242.20768" style="fill: #808080; stroke: #808080; stroke-width: 0.8"/>
      </g>
     </g>
     <g id="text_12">
      <text style="fill: #808080; font: 8px 'PingFang SC', 'Heiti SC', 'STHeiti', 'Calibri', 'Arial', 'Helvetica Neue', 'Arial Unicode MS', 'Noto Sans CJK SC', 'DejaVu Sans', sans-serif" transform="translate(474.283846 295.319227) rotate(-60)">worker-0:d12</text>
     </g>
    </g>
    <g id="xtick_13">
     <g id="line2d_13">
      <g>
       <use xlink:href="#m810d5c693e" x="536.480555" y="242.20768" style="fill: #808080; stroke: #808080; stroke-width: 0.8"/>
      </g>
     </g>
     <g id="text_13">
      <text style="fill: #808080; font: 8px 'PingFang SC', 'Heiti SC', 'STHeiti', 'Calibri', 'Arial', 'Helvetica Neue', 'Arial Unicode MS', 'Noto Sans CJK SC', 'DejaVu Sans', sans-serif" transform="translate(512.983618 291.480569) rotate(-60)">worker-2:d7</text>
     </g>
    </g>
    <g id="xtick_14">
     <g id="line2d_14">
      <g>
       <use xlink:href="#m810d5c693e" x="572.964076" y="242.20768" style="fill: #808080; stroke: #808080; stroke-width: 0.8"/>
      </g>
     </g>
     <g id="text_14">
      <text style="fill: #808080; font: 8px 'PingFang SC', 'Heiti SC', 'STHeiti', 'Calibri', 'Arial', 'Helvetica Neue', 'Arial Unicode MS', 'Noto Sans CJK SC', 'DejaVu Sans', sans-serif" transform="translate(549.467139 291.480569) rotate(-60)">worker-6:d4</text>
     </g>
    </g>
    <g id="xtick_15">
     <g id="line2d_15">
      <g>
       <use xlink:href="#m810d5c693e" x="609.447597" y="242.20768" style="fill: #808080; stroke: #808080; stroke-width: 0.8"/>
      </g>
     </g>
     <g id="text_15">
      <text style="fill: #808080; font: 8px 'PingFang SC', 'Heiti SC', 'STHeiti', 'Calibri', 'Arial', 'Helvetica Neue', 'Arial Unicode MS', 'Noto Sans CJK SC', 'DejaVu Sans', sans-serif" transform="translate(583.73441 295.319227) rotate(-60)">worker-2:d14</text>
     </g>
    </g>
    <g id="xtick_16">
     <g id="line2d_16">
      <g>
       <use xlink:href="#m810d5c693e" x="645.931118" y="242.20768" style="fill: #808080; stroke: #808080; stroke-width: 0.8"/>
      </g>
     </g>
     <g id="text_16">
      <text style="fill: #808080; font: 8px 'PingFang SC', 'Heiti SC', 'STHeiti', 'Calibri', 'Arial', 'Helvetica Neue', 'Arial Unicode MS', 'Noto Sans CJK SC', 'DejaVu Sans', sans-serif" transform="translate(620.217931 295.319227) rotate(-60)">worker-2:d10</text>
     </g>
    </g>
   </g>
   <g id="matplotlib.axis_2">
    <g id="ytick_1">
     <g id="line2d_17">
      <path d="M 67.5875 242.20768 
L 708.945 242.20768 
" clip-path="url(#pedb227bb7e)" style="fill: none; stroke-dasharray: 1,1.65; stroke-dashoffset: 0; stroke: #808080; stroke-opacity: 0.55"/>
     </g>
     <g id="line2d_18">
      <defs>
       <path id="m65c0015b4a" d="M 0 0 
L -3.5 0 
" style="stroke: #808080; stroke-width: 0.8"/>
      </defs>
      <g>
       <use xlink:href="#m65c0015b4a" x="67.5875" y="242.20768" style="fill: #808080; stroke: #808080; stroke-width: 0.8"/>
      </g>
     </g>
     <g id="text_17">
      <text style="fill: #808080; font: 22px 'PingFang SC', 'Heiti SC', 'STHeiti', 'Calibri', 'Arial', 'Helvetica Neue', 'Arial Unicode MS', 'Noto Sans CJK SC', 'DejaVu Sans', sans-serif; text-anchor: end" x="60.5875" y="250.962993" transform="rotate(-0 60.5875 250.962993)">0</text>
     </g>
    </g>
    <g id="ytick_2">
     <g id="line2d_19">
      <path d="M 67.5875 167.210279 
L 708.945 167.210279 
" clip-path="url(#pedb227bb7e)" style="fill: none; stroke-dasharray: 1,1.65; stroke-dashoffset: 0; stroke: #808080; stroke-opacity: 0.55"/>
     </g>
     <g id="line2d_20">
      <g>
       <use xlink:href="#m65c0015b4a" x="67.5875" y="167.210279" style="fill: #808080; stroke: #808080; stroke-width: 0.8"/>
      </g>
     </g>
     <g id="text_18">
      <text style="fill: #808080; font: 22px 'PingFang SC', 'Heiti SC', 'STHeiti', 'Calibri', 'Arial', 'Helvetica Neue', 'Arial Unicode MS', 'Noto Sans CJK SC', 'DejaVu Sans', sans-serif; text-anchor: end" x="60.5875" y="175.965591" transform="rotate(-0 60.5875 175.965591)">10</text>
     </g>
    </g>
    <g id="ytick_3">
     <g id="line2d_21">
      <path d="M 67.5875 92.212877 
L 708.945 92.212877 
" clip-path="url(#pedb227bb7e)" style="fill: none; stroke-dasharray: 1,1.65; stroke-dashoffset: 0; stroke: #808080; stroke-opacity: 0.55"/>
     </g>
     <g id="line2d_22">
      <g>
       <use xlink:href="#m65c0015b4a" x="67.5875" y="92.212877" style="fill: #808080; stroke: #808080; stroke-width: 0.8"/>
      </g>
     </g>
     <g id="text_19">
      <text style="fill: #808080; font: 22px 'PingFang SC', 'Heiti SC', 'STHeiti', 'Calibri', 'Arial', 'Helvetica Neue', 'Arial Unicode MS', 'Noto Sans CJK SC', 'DejaVu Sans', sans-serif; text-anchor: end" x="60.5875" y="100.96819" transform="rotate(-0 60.5875 100.96819)">20</text>
     </g>
    </g>
    <g id="text_20">
     <text style="font: 22px 'PingFang SC', 'Heiti SC', 'STHeiti', 'Calibri', 'Arial', 'Helvetica Neue', 'Arial Unicode MS', 'Noto Sans CJK SC', 'DejaVu Sans', sans-serif; text-anchor: middle" x="29.259375" y="138.733528" transform="rotate(-90 29.259375 138.733528)">Launch sync p99 (us)</text>
    </g>
   </g>
   <g id="patch_3">
    <path d="M 96.740114 242.20768 
L 100.616488 242.20768 
L 100.616488 198.637263 
L 96.740114 198.637263 
z
" clip-path="url(#pedb227bb7e)" style="fill: url(#h17dca0d8e9); stroke: #2ca02c; stroke-width: 2; stroke-linejoin: miter"/>
   </g>
   <g id="patch_4">
    <path d="M 101.300554 242.20768 
L 105.176928 242.20768 
L 105.176928 197.659408 
L 101.300554 197.659408 
z
" clip-path="url(#pedb227bb7e)" style="fill: url(#h17dca0d8e9); stroke: #2ca02c; stroke-width: 2; stroke-linejoin: miter"/>
   </g>
   <g id="patch_5">
    <path d="M 105.860994 242.20768 
L 109.737368 242.20768 
L 109.737368 197.589562 
L 105.860994 197.589562 
z
" clip-path="url(#pedb227bb7e)" style="fill: url(#h17dca0d8e9); stroke: #2ca02c; stroke-width: 2; stroke-linejoin: miter"/>
   </g>
   <g id="patch_6">
    <path d="M 110.421434 242.20768 
L 114.297808 242.20768 
L 114.297808 197.589562 
L 110.421434 197.589562 
z
" clip-path="url(#pedb227bb7e)" style="fill: url(#h17dca0d8e9); stroke: #2ca02c; stroke-width: 2; stroke-linejoin: miter"/>
   </g>
   <g id="patch_7">
    <path d="M 114.981874 242.20768 
L 118.858248 242.20768 
L 118.858248 197.421929 
L 114.981874 197.421929 
z
" clip-path="url(#pedb227bb7e)" style="fill: url(#h17dca0d8e9); stroke: #2ca02c; stroke-width: 2; stroke-linejoin: miter"/>
   </g>
   <g id="patch_8">
    <path d="M 119.542314 242.20768 
L 123.418688 242.20768 
L 123.418688 196.458044 
L 119.542314 196.458044 
z
" clip-path="url(#pedb227bb7e)" style="fill: url(#h17dca0d8e9); stroke: #2ca02c; stroke-width: 2; stroke-linejoin: miter"/>
   </g>
   <g id="patch_9">
    <path d="M 124.102755 242.20768 
L 127.979129 242.20768 
L 127.979129 196.388197 
L 124.102755 196.388197 
z
" clip-path="url(#pedb227bb7e)" style="fill: url(#h17dca0d8e9); stroke: #2ca02c; stroke-width: 2; stroke-linejoin: miter"/>
   </g>
   <g id="patch_10">
    <path d="M 128.663195 242.20768 
L 132.539569 242.20768 
L 132.539569 196.150718 
L 128.663195 196.150718 
z
" clip-path="url(#pedb227bb7e)" style="fill: url(#h17dca0d8e9); stroke: #2ca02c; stroke-width: 2; stroke-linejoin: miter"/>
   </g>
   <g id="patch_11">
    <path d="M 133.223635 242.20768 
L 137.100009 242.20768 
L 137.100009 196.150718 
L 133.223635 196.150718 
z
" clip-path="url(#pedb227bb7e)" style="fill: url(#h17dca0d8e9); stroke: #2ca02c; stroke-width: 2; stroke-linejoin: miter"/>
   </g>
   <g id="patch_12">
    <path d="M 137.784075 242.20768 
L 141.660449 242.20768 
L 141.660449 195.564005 
L 137.784075 195.564005 
z
" clip-path="url(#pedb227bb7e)" style="fill: url(#h17dca0d8e9); stroke: #2ca02c; stroke-width: 2; stroke-linejoin: miter"/>
   </g>
   <g id="patch_13">
    <path d="M 142.344515 242.20768 
L 146.220889 242.20768 
L 146.220889 195.200802 
L 142.344515 195.200802 
z
" clip-path="url(#pedb227bb7e)" style="fill: url(#h17dca0d8e9); stroke: #2ca02c; stroke-width: 2; stroke-linejoin: miter"/>
   </g>
   <g id="patch_14">
    <path d="M 146.904955 242.20768 
L 150.781329 242.20768 
L 150.781329 194.963323 
L 146.904955 194.963323 
z
" clip-path="url(#pedb227bb7e)" style="fill: url(#h17dca0d8e9); stroke: #2ca02c; stroke-width: 2; stroke-linejoin: miter"/>
   </g>
   <g id="patch_15">
    <path d="M 151.465395 242.20768 
L 155.34177 242.20768 
L 155.34177 194.80966 
L 151.465395 194.80966 
z
" clip-path="url(#pedb227bb7e)" style="fill: url(#h17dca0d8e9); stroke: #2ca02c; stroke-width: 2; stroke-linejoin: miter"/>
   </g>
   <g id="patch_16">
    <path d="M 156.025836 242.20768 
L 159.90221 242.20768 
L 159.90221 194.739813 
L 156.025836 194.739813 
z
" clip-path="url(#pedb227bb7e)" style="fill: url(#h17dca0d8e9); stroke: #2ca02c; stroke-width: 2; stroke-linejoin: miter"/>
   </g>
   <g id="patch_17">
    <path d="M 160.586276 242.20768 
L 164.46265 242.20768 
L 164.46265 194.558212 
L 160.586276 194.558212 
z
" clip-path="url(#pedb227bb7e)" style="fill: url(#h17dca0d8e9); stroke: #2ca02c; stroke-width: 2; stroke-linejoin: miter"/>
   </g>
   <g id="patch_18">
    <path d="M 165.146716 242.20768 
L 169.02309 242.20768 
L 169.02309 194.292794 
L 165.146716 194.292794 
z
" clip-path="url(#pedb227bb7e)" style="fill: url(#h17dca0d8e9); stroke: #2ca02c; stroke-width: 2; stroke-linejoin: miter"/>
   </g>
   <g id="patch_19">
    <path d="M 169.707156 242.20768 
L 173.58353 242.20768 
L 173.58353 194.208978 
L 169.707156 194.208978 
z
" clip-path="url(#pedb227bb7e)" style="fill: url(#h17dca0d8e9); stroke: #2ca02c; stroke-width: 2; stroke-linejoin: miter"/>
   </g>
   <g id="patch_20">
    <path d="M 174.267596 242.20768 
L 178.14397 242.20768 
L 178.14397 194.208978 
L 174.267596 194.208978 
z
" clip-path="url(#pedb227bb7e)" style="fill: url(#h17dca0d8e9); stroke: #2ca02c; stroke-width: 2; stroke-linejoin: miter"/>
   </g>
   <g id="patch_21">
    <path d="M 178.828036 242.20768 
L 182.70441 242.20768 
L 182.70441 194.181039 
L 178.828036 194.181039 
z
" clip-path="url(#pedb227bb7e)" style="fill: url(#h17dca0d8e9); stroke: #2ca02c; stroke-width: 2; stroke-linejoin: miter"/>
   </g>
   <g id="patch_22">
    <path d="M 183.388476 242.20768 
L 187.264851 242.20768 
L 187.264851 194.055315 
L 183.388476 194.055315 
z
" clip-path="url(#pedb227bb7e)" style="fill: url(#h17dca0d8e9); stroke: #2ca02c; stroke-width: 2; stroke-linejoin: miter"/>
   </g>
   <g id="patch_23">
    <path d="M 187.948917 242.20768 
L 191.825291 242.20768 
L 191.825291 193.831805 
L 187.948917 193.831805 
z
" clip-path="url(#pedb227bb7e)" style="fill: url(#h17dca0d8e9); stroke: #2ca02c; stroke-width: 2; stroke-linejoin: miter"/>
   </g>
   <g id="patch_24">
    <path d="M 192.509357 242.20768 
L 196.385731 242.20768 
L 196.385731 193.761958 
L 192.509357 193.761958 
z
" clip-path="url(#pedb227bb7e)" style="fill: url(#h17dca0d8e9); stroke: #2ca02c; stroke-width: 2; stroke-linejoin: miter"/>
   </g>
   <g id="patch_25">
    <path d="M 197.069797 242.20768 
L 200.946171 242.20768 
L 200.946171 193.678142 
L 197.069797 193.678142 
z
" clip-path="url(#pedb227bb7e)" style="fill: url(#h17dca0d8e9); stroke: #2ca02c; stroke-width: 2; stroke-linejoin: miter"/>
   </g>
   <g id="patch_26">
    <path d="M 201.630237 242.20768 
L 205.506611 242.20768 
L 205.506611 193.664173 
L 201.630237 193.664173 
z
" clip-path="url(#pedb227bb7e)" style="fill: url(#h17dca0d8e9); stroke: #2ca02c; stroke-width: 2; stroke-linejoin: miter"/>
   </g>
   <g id="patch_27">
    <path d="M 206.190677 242.20768 
L 210.067051 242.20768 
L 210.067051 193.622265 
L 206.190677 193.622265 
z
" clip-path="url(#pedb227bb7e)" style="fill: url(#h17dca0d8e9); stroke: #2ca02c; stroke-width: 2; stroke-linejoin: miter"/>
   </g>
   <g id="patch_28">
    <path d="M 210.751117 242.20768 
L 214.627491 242.20768 
L 214.627491 193.314939 
L 210.751117 193.314939 
z
" clip-path="url(#pedb227bb7e)" style="fill: url(#h17dca0d8e9); stroke: #2ca02c; stroke-width: 2; stroke-linejoin: miter"/>
   </g>
   <g id="patch_29">
    <path d="M 215.311557 242.20768 
L 219.187932 242.20768 
L 219.187932 193.287 
L 215.311557 193.287 
z
" clip-path="url(#pedb227bb7e)" style="fill: url(#h17dca0d8e9); stroke: #2ca02c; stroke-width: 2; stroke-linejoin: miter"/>
   </g>
   <g id="patch_30">
    <path d="M 219.871998 242.20768 
L 223.748372 242.20768 
L 223.748372 193.07746 
L 219.871998 193.07746 
z
" clip-path="url(#pedb227bb7e)" style="fill: url(#h17dca0d8e9); stroke: #2ca02c; stroke-width: 2; stroke-linejoin: miter"/>
   </g>
   <g id="patch_31">
    <path d="M 224.432438 242.20768 
L 228.308812 242.20768 
L 228.308812 193.07746 
L 224.432438 193.07746 
z
" clip-path="url(#pedb227bb7e)" style="fill: url(#h17dca0d8e9); stroke: #2ca02c; stroke-width: 2; stroke-linejoin: miter"/>
   </g>
   <g id="patch_32">
    <path d="M 228.992878 242.20768 
L 232.869252 242.20768 
L 232.869252 193.021583 
L 228.992878 193.021583 
z
" clip-path="url(#pedb227bb7e)" style="fill: url(#h17dca0d8e9); stroke: #2ca02c; stroke-width: 2; stroke-linejoin: miter"/>
   </g>
   <g id="patch_33">
    <path d="M 233.553318 242.20768 
L 237.429692 242.20768 
L 237.429692 193.007613 
L 233.553318 193.007613 
z
" clip-path="url(#pedb227bb7e)" style="fill: url(#h17dca0d8e9); stroke: #2ca02c; stroke-width: 2; stroke-linejoin: miter"/>
   </g>
   <g id="patch_34">
    <path d="M 238.113758 242.20768 
L 241.990132 242.20768 
L 241.990132 193.007613 
L 238.113758 193.007613 
z
" clip-path="url(#pedb227bb7e)" style="fill: url(#h17dca0d8e9); stroke: #2ca02c; stroke-width: 2; stroke-linejoin: miter"/>
   </g>
   <g id="patch_35">
    <path d="M 242.674198 242.20768 
L 246.550572 242.20768 
L 246.550572 192.951736 
L 242.674198 192.951736 
z
" clip-path="url(#pedb227bb7e)" style="fill: url(#h17dca0d8e9); stroke: #2ca02c; stroke-width: 2; stroke-linejoin: miter"/>
   </g>
   <g id="patch_36">
    <path d="M 247.234638 242.20768 
L 251.111013 242.20768 
L 251.111013 192.85395 
L 247.234638 192.85395 
z
" clip-path="url(#pedb227bb7e)" style="fill: url(#h17dca0d8e9); stroke: #2ca02c; stroke-width: 2; stroke-linejoin: miter"/>
   </g>
   <g id="patch_37">
    <path d="M 251.795079 242.20768 
L 255.671453 242.20768 
L 255.671453 192.85395 
L 251.795079 192.85395 
z
" clip-path="url(#pedb227bb7e)" style="fill: url(#h17dca0d8e9); stroke: #2ca02c; stroke-width: 2; stroke-linejoin: miter"/>
   </g>
   <g id="patch_38">
    <path d="M 256.355519 242.20768 
L 260.231893 242.20768 
L 260.231893 192.798073 
L 256.355519 192.798073 
z
" clip-path="url(#pedb227bb7e)" style="fill: url(#h17dca0d8e9); stroke: #2ca02c; stroke-width: 2; stroke-linejoin: miter"/>
   </g>
   <g id="patch_39">
    <path d="M 260.915959 242.20768 
L 264.792333 242.20768 
L 264.792333 192.784104 
L 260.915959 192.784104 
z
" clip-path="url(#pedb227bb7e)" style="fill: url(#h17dca0d8e9); stroke: #2ca02c; stroke-width: 2; stroke-linejoin: miter"/>
   </g>
   <g id="patch_40">
    <path d="M 265.476399 242.20768 
L 269.352773 242.20768 
L 269.352773 192.784104 
L 265.476399 192.784104 
z
" clip-path="url(#pedb227bb7e)" style="fill: url(#h17dca0d8e9); stroke: #2ca02c; stroke-width: 2; stroke-linejoin: miter"/>
   </g>
   <g id="patch_41">
    <path d="M 270.036839 242.20768 
L 273.913213 242.20768 
L 273.913213 192.770134 
L 270.036839 192.770134 
z
" clip-path="url(#pedb227bb7e)" style="fill: url(#h17dca0d8e9); stroke: #2ca02c; stroke-width: 2; stroke-linejoin: miter"/>
   </g>
   <g id="patch_42">
    <path d="M 274.597279 242.20768 
L 278.473653 242.20768 
L 278.473653 192.770134 
L 274.597279 192.770134 
z
" clip-path="url(#pedb227bb7e)" style="fill: url(#h17dca0d8e9); stroke: #2ca02c; stroke-width: 2; stroke-linejoin: miter"/>
   </g>
   <g id="patch_43">
    <path d="M 279.157719 242.20768 
L 283.034094 242.20768 
L 283.034094 192.714257 
L 279.157719 192.714257 
z
" clip-path="url(#pedb227bb7e)" style="fill: url(#h17dca0d8e9); stroke: #2ca02c; stroke-width: 2; stroke-linejoin: miter"/>
   </g>
   <g id="patch_44">
    <path d="M 283.71816 242.20768 
L 287.594534 242.20768 
L 287.594534 192.630441 
L 283.71816 192.630441 
z
" clip-path="url(#pedb227bb7e)" style="fill: url(#h17dca0d8e9); stroke: #2ca02c; stroke-width: 2; stroke-linejoin: miter"/>
   </g>
   <g id="patch_45">
    <path d="M 288.2786 242.20768 
L 292.154974 242.20768 
L 292.154974 192.560594 
L 288.2786 192.560594 
z
" clip-path="url(#pedb227bb7e)" style="fill: url(#h17dca0d8e9); stroke: #2ca02c; stroke-width: 2; stroke-linejoin: miter"/>
   </g>
   <g id="patch_46">
    <path d="M 292.83904 242.20768 
L 296.715414 242.20768 
L 296.715414 192.504716 
L 292.83904 192.504716 
z
" clip-path="url(#pedb227bb7e)" style="fill: url(#h17dca0d8e9); stroke: #2ca02c; stroke-width: 2; stroke-linejoin: miter"/>
   </g>
   <g id="patch_47">
    <path d="M 297.39948 242.20768 
L 301.275854 242.20768 
L 301.275854 192.504716 
L 297.39948 192.504716 
z
" clip-path="url(#pedb227bb7e)" style="fill: url(#h17dca0d8e9); stroke: #2ca02c; stroke-width: 2; stroke-linejoin: miter"/>
   </g>
   <g id="patch_48">
    <path d="M 301.95992 242.20768 
L 305.836294 242.20768 
L 305.836294 192.392962 
L 301.95992 192.392962 
z
" clip-path="url(#pedb227bb7e)" style="fill: url(#h17dca0d8e9); stroke: #2ca02c; stroke-width: 2; stroke-linejoin: miter"/>
   </g>
   <g id="patch_49">
    <path d="M 306.52036 242.20768 
L 310.396734 242.20768 
L 310.396734 192.337084 
L 306.52036 192.337084 
z
" clip-path="url(#pedb227bb7e)" style="fill: url(#h17dca0d8e9); stroke: #2ca02c; stroke-width: 2; stroke-linejoin: miter"/>
   </g>
   <g id="patch_50">
    <path d="M 311.080801 242.20768 
L 314.957175 242.20768 
L 314.957175 192.253268 
L 311.080801 192.253268 
z
" clip-path="url(#pedb227bb7e)" style="fill: url(#h17dca0d8e9); stroke: #2ca02c; stroke-width: 2; stroke-linejoin: miter"/>
   </g>
   <g id="patch_51">
    <path d="M 315.641241 242.20768 
L 319.517615 242.20768 
L 319.517615 192.197391 
L 315.641241 192.197391 
z
" clip-path="url(#pedb227bb7e)" style="fill: url(#h17dca0d8e9); stroke: #2ca02c; stroke-width: 2; stroke-linejoin: miter"/>
   </g>
   <g id="patch_52">
    <path d="M 320.201681 242.20768 
L 324.078055 242.20768 
L 324.078055 192.183421 
L 320.201681 192.183421 
z
" clip-path="url(#pedb227bb7e)" style="fill: url(#h17dca0d8e9); stroke: #2ca02c; stroke-width: 2; stroke-linejoin: miter"/>
   </g>
   <g id="patch_53">
    <path d="M 324.762121 242.20768 
L 328.638495 242.20768 
L 328.638495 192.169452 
L 324.762121 192.169452 
z
" clip-path="url(#pedb227bb7e)" style="fill: url(#h17dca0d8e9); stroke: #2ca02c; stroke-width: 2; stroke-linejoin: miter"/>
   </g>
   <g id="patch_54">
    <path d="M 329.322561 242.20768 
L 333.198935 242.20768 
L 333.198935 192.113575 
L 329.322561 192.113575 
z
" clip-path="url(#pedb227bb7e)" style="fill: url(#h17dca0d8e9); stroke: #2ca02c; stroke-width: 2; stroke-linejoin: miter"/>
   </g>
   <g id="patch_55">
    <path d="M 333.883001 242.20768 
L 337.759375 242.20768 
L 337.759375 192.099605 
L 333.883001 192.099605 
z
" clip-path="url(#pedb227bb7e)" style="fill: url(#h17dca0d8e9); stroke: #2ca02c; stroke-width: 2; stroke-linejoin: miter"/>
   </g>
   <g id="patch_56">
    <path d="M 338.443441 242.20768 
L 342.319816 242.20768 
L 342.319816 192.099605 
L 338.443441 192.099605 
z
" clip-path="url(#pedb227bb7e)" style="fill: url(#h17dca0d8e9); stroke: #2ca02c; stroke-width: 2; stroke-linejoin: miter"/>
   </g>
   <g id="patch_57">
    <path d="M 343.003882 242.20768 
L 346.880256 242.20768 
L 346.880256 192.043728 
L 343.003882 192.043728 
z
" clip-path="url(#pedb227bb7e)" style="fill: url(#h17dca0d8e9); stroke: #2ca02c; stroke-width: 2; stroke-linejoin: miter"/>
   </g>
   <g id="patch_58">
    <path d="M 347.564322 242.20768 
L 351.440696 242.20768 
L 351.440696 192.043728 
L 347.564322 192.043728 
z
" clip-path="url(#pedb227bb7e)" style="fill: url(#h17dca0d8e9); stroke: #2ca02c; stroke-width: 2; stroke-linejoin: miter"/>
   </g>
   <g id="patch_59">
    <path d="M 352.124762 242.20768 
L 356.001136 242.20768 
L 356.001136 191.904034 
L 352.124762 191.904034 
z
" clip-path="url(#pedb227bb7e)" style="fill: url(#h17dca0d8e9); stroke: #2ca02c; stroke-width: 2; stroke-linejoin: miter"/>
   </g>
   <g id="patch_60">
    <path d="M 356.685202 242.20768 
L 360.561576 242.20768 
L 360.561576 191.876096 
L 356.685202 191.876096 
z
" clip-path="url(#pedb227bb7e)" style="fill: url(#h17dca0d8e9); stroke: #2ca02c; stroke-width: 2; stroke-linejoin: miter"/>
   </g>
   <g id="patch_61">
    <path d="M 361.245642 242.20768 
L 365.122016 242.20768 
L 365.122016 191.750371 
L 361.245642 191.750371 
z
" clip-path="url(#pedb227bb7e)" style="fill: url(#h17dca0d8e9); stroke: #2ca02c; stroke-width: 2; stroke-linejoin: miter"/>
   </g>
   <g id="patch_62">
    <path d="M 365.806082 242.20768 
L 369.682456 242.20768 
L 369.682456 191.736402 
L 365.806082 191.736402 
z
" clip-path="url(#pedb227bb7e)" style="fill: url(#h17dca0d8e9); stroke: #2ca02c; stroke-width: 2; stroke-linejoin: miter"/>
   </g>
   <g id="patch_63">
    <path d="M 370.366522 242.20768 
L 374.242897 242.20768 
L 374.242897 191.708463 
L 370.366522 191.708463 
z
" clip-path="url(#pedb227bb7e)" style="fill: url(#h17dca0d8e9); stroke: #2ca02c; stroke-width: 2; stroke-linejoin: miter"/>
   </g>
   <g id="patch_64">
    <path d="M 374.926963 242.20768 
L 378.803337 242.20768 
L 378.803337 191.596708 
L 374.926963 191.596708 
z
" clip-path="url(#pedb227bb7e)" style="fill: url(#h17dca0d8e9); stroke: #2ca02c; stroke-width: 2; stroke-linejoin: miter"/>
   </g>
   <g id="patch_65">
    <path d="M 379.487403 242.20768 
L 383.363777 242.20768 
L 383.363777 191.512892 
L 379.487403 191.512892 
z
" clip-path="url(#pedb227bb7e)" style="fill: url(#h17dca0d8e9); stroke: #2ca02c; stroke-width: 2; stroke-linejoin: miter"/>
   </g>
   <g id="patch_66">
    <path d="M 384.047843 242.20768 
L 387.924217 242.20768 
L 387.924217 191.359229 
L 384.047843 191.359229 
z
" clip-path="url(#pedb227bb7e)" style="fill: url(#h99aaa37c4b); stroke: #ff7f0e; stroke-width: 2; stroke-linejoin: miter"/>
   </g>
   <g id="patch_67">
    <path d="M 388.608283 242.20768 
L 392.484657 242.20768 
L 392.484657 191.359229 
L 388.608283 191.359229 
z
" clip-path="url(#pedb227bb7e)" style="fill: url(#h99aaa37c4b); stroke: #ff7f0e; stroke-width: 2; stroke-linejoin: miter"/>
   </g>
   <g id="patch_68">
    <path d="M 393.168723 242.20768 
L 397.045097 242.20768 
L 397.045097 191.12175 
L 393.168723 191.12175 
z
" clip-path="url(#pedb227bb7e)" style="fill: url(#h99aaa37c4b); stroke: #ff7f0e; stroke-width: 2; stroke-linejoin: miter"/>
   </g>
   <g id="patch_69">
    <path d="M 397.729163 242.20768 
L 401.605537 242.20768 
L 401.605537 191.12175 
L 397.729163 191.12175 
z
" clip-path="url(#pedb227bb7e)" style="fill: url(#h99aaa37c4b); stroke: #ff7f0e; stroke-width: 2; stroke-linejoin: miter"/>
   </g>
   <g id="patch_70">
    <path d="M 402.289603 242.20768 
L 406.165978 242.20768 
L 406.165978 190.91221 
L 402.289603 190.91221 
z
" clip-path="url(#pedb227bb7e)" style="fill: url(#h99aaa37c4b); stroke: #ff7f0e; stroke-width: 2; stroke-linejoin: miter"/>
   </g>
   <g id="patch_71">
    <path d="M 406.850044 242.20768 
L 410.726418 242.20768 
L 410.726418 190.828394 
L 406.850044 190.828394 
z
" clip-path="url(#pedb227bb7e)" style="fill: url(#h99aaa37c4b); stroke: #ff7f0e; stroke-width: 2; stroke-linejoin: miter"/>
   </g>
   <g id="patch_72">
    <path d="M 411.410484 242.20768 
L 415.286858 242.20768 
L 415.286858 190.674731 
L 411.410484 190.674731 
z
" clip-path="url(#pedb227bb7e)" style="fill: url(#h99aaa37c4b); stroke: #ff7f0e; stroke-width: 2; stroke-linejoin: miter"/>
   </g>
   <g id="patch_73">
    <path d="M 415.970924 242.20768 
L 419.847298 242.20768 
L 419.847298 190.604884 
L 415.970924 190.604884 
z
" clip-path="url(#pedb227bb7e)" style="fill: url(#h99aaa37c4b); stroke: #ff7f0e; stroke-width: 2; stroke-linejoin: miter"/>
   </g>
   <g id="patch_74">
    <path d="M 420.531364 242.20768 
L 424.407738 242.20768 
L 424.407738 190.521068 
L 420.531364 190.521068 
z
" clip-path="url(#pedb227bb7e)" style="fill: url(#h99aaa37c4b); stroke: #ff7f0e; stroke-width: 2; stroke-linejoin: miter"/>
   </g>
   <g id="patch_75">
    <path d="M 425.091804 242.20768 
L 428.968178 242.20768 
L 428.968178 190.465191 
L 425.091804 190.465191 
z
" clip-path="url(#pedb227bb7e)" style="fill: url(#h99aaa37c4b); stroke: #ff7f0e; stroke-width: 2; stroke-linejoin: miter"/>
   </g>
   <g id="patch_76">
    <path d="M 429.652244 242.20768 
L 433.528618 242.20768 
L 433.528618 190.451221 
L 429.652244 190.451221 
z
" clip-path="url(#pedb227bb7e)" style="fill: url(#h99aaa37c4b); stroke: #ff7f0e; stroke-width: 2; stroke-linejoin: miter"/>
   </g>
   <g id="patch_77">
    <path d="M 434.212684 242.20768 
L 438.089059 242.20768 
L 438.089059 190.367405 
L 434.212684 190.367405 
z
" clip-path="url(#pedb227bb7e)" style="fill: url(#h99aaa37c4b); stroke: #ff7f0e; stroke-width: 2; stroke-linejoin: miter"/>
   </g>
   <g id="patch_78">
    <path d="M 438.773125 242.20768 
L 442.649499 242.20768 
L 442.649499 190.157865 
L 438.773125 190.157865 
z
" clip-path="url(#pedb227bb7e)" style="fill: url(#h99aaa37c4b); stroke: #ff7f0e; stroke-width: 2; stroke-linejoin: miter"/>
   </g>
   <g id="patch_79">
    <path d="M 443.333565 242.20768 
L 447.209939 242.20768 
L 447.209939 190.157865 
L 443.333565 190.157865 
z
" clip-path="url(#pedb227bb7e)" style="fill: url(#h99aaa37c4b); stroke: #ff7f0e; stroke-width: 2; stroke-linejoin: miter"/>
   </g>
   <g id="patch_80">
    <path d="M 447.894005 242.20768 
L 451.770379 242.20768 
L 451.770379 190.060079 
L 447.894005 190.060079 
z
" clip-path="url(#pedb227bb7e)" style="fill: url(#h99aaa37c4b); stroke: #ff7f0e; stroke-width: 2; stroke-linejoin: miter"/>
   </g>
   <g id="patch_81">
    <path d="M 452.454445 242.20768 
L 456.330819 242.20768 
L 456.330819 190.018171 
L 452.454445 190.018171 
z
" clip-path="url(#pedb227bb7e)" style="fill: url(#h99aaa37c4b); stroke: #ff7f0e; stroke-width: 2; stroke-linejoin: miter"/>
   </g>
   <g id="patch_82">
    <path d="M 457.014885 242.20768 
L 460.891259 242.20768 
L 460.891259 188.802838 
L 457.014885 188.802838 
z
" clip-path="url(#pedb227bb7e)" style="fill: url(#h99aaa37c4b); stroke: #ff7f0e; stroke-width: 2; stroke-linejoin: miter"/>
   </g>
   <g id="patch_83">
    <path d="M 461.575325 242.20768 
L 465.451699 242.20768 
L 465.451699 188.355818 
L 461.575325 188.355818 
z
" clip-path="url(#pedb227bb7e)" style="fill: url(#h99aaa37c4b); stroke: #ff7f0e; stroke-width: 2; stroke-linejoin: miter"/>
   </g>
   <g id="patch_84">
    <path d="M 466.135766 242.20768 
L 470.01214 242.20768 
L 470.01214 188.118339 
L 466.135766 188.118339 
z
" clip-path="url(#pedb227bb7e)" style="fill: url(#h99aaa37c4b); stroke: #ff7f0e; stroke-width: 2; stroke-linejoin: miter"/>
   </g>
   <g id="patch_85">
    <path d="M 470.696206 242.20768 
L 474.57258 242.20768 
L 474.57258 187.070638 
L 470.696206 187.070638 
z
" clip-path="url(#pedb227bb7e)" style="fill: url(#h99aaa37c4b); stroke: #ff7f0e; stroke-width: 2; stroke-linejoin: miter"/>
   </g>
   <g id="patch_86">
    <path d="M 475.256646 242.20768 
L 479.13302 242.20768 
L 479.13302 187.01476 
L 475.256646 187.01476 
z
" clip-path="url(#pedb227bb7e)" style="fill: url(#h99aaa37c4b); stroke: #ff7f0e; stroke-width: 2; stroke-linejoin: miter"/>
   </g>
   <g id="patch_87">
    <path d="M 479.817086 242.20768 
L 483.69346 242.20768 
L 483.69346 186.414078 
L 479.817086 186.414078 
z
" clip-path="url(#pedb227bb7e)" style="fill: url(#h99aaa37c4b); stroke: #ff7f0e; stroke-width: 2; stroke-linejoin: miter"/>
   </g>
   <g id="patch_88">
    <path d="M 484.377526 242.20768 
L 488.2539 242.20768 
L 488.2539 186.022936 
L 484.377526 186.022936 
z
" clip-path="url(#pedb227bb7e)" style="fill: url(#h99aaa37c4b); stroke: #ff7f0e; stroke-width: 2; stroke-linejoin: miter"/>
   </g>
   <g id="patch_89">
    <path d="M 488.937966 242.20768 
L 492.81434 242.20768 
L 492.81434 185.05905 
L 488.937966 185.05905 
z
" clip-path="url(#pedb227bb7e)" style="fill: url(#h99aaa37c4b); stroke: #ff7f0e; stroke-width: 2; stroke-linejoin: miter"/>
   </g>
   <g id="patch_90">
    <path d="M 493.498406 242.20768 
L 497.374781 242.20768 
L 497.374781 182.809984 
L 493.498406 182.809984 
z
" clip-path="url(#pedb227bb7e)" style="fill: url(#h99aaa37c4b); stroke: #ff7f0e; stroke-width: 2; stroke-linejoin: miter"/>
   </g>
   <g id="patch_91">
    <path d="M 498.058847 242.20768 
L 501.935221 242.20768 
L 501.935221 182.293118 
L 498.058847 182.293118 
z
" clip-path="url(#pedb227bb7e)" style="fill: url(#h99aaa37c4b); stroke: #ff7f0e; stroke-width: 2; stroke-linejoin: miter"/>
   </g>
   <g id="patch_92">
    <path d="M 502.619287 242.20768 
L 506.495661 242.20768 
L 506.495661 180.714581 
L 502.619287 180.714581 
z
" clip-path="url(#pedb227bb7e)" style="fill: url(#h99aaa37c4b); stroke: #ff7f0e; stroke-width: 2; stroke-linejoin: miter"/>
   </g>
   <g id="patch_93">
    <path d="M 507.179727 242.20768 
L 511.056101 242.20768 
L 511.056101 180.09993 
L 507.179727 180.09993 
z
" clip-path="url(#pedb227bb7e)" style="fill: url(#h99aaa37c4b); stroke: #ff7f0e; stroke-width: 2; stroke-linejoin: miter"/>
   </g>
   <g id="patch_94">
    <path d="M 511.740167 242.20768 
L 515.616541 242.20768 
L 515.616541 177.557507 
L 511.740167 177.557507 
z
" clip-path="url(#pedb227bb7e)" style="fill: url(#h99aaa37c4b); stroke: #ff7f0e; stroke-width: 2; stroke-linejoin: miter"/>
   </g>
   <g id="patch_95">
    <path d="M 516.300607 242.20768 
L 520.176981 242.20768 
L 520.176981 176.886978 
L 516.300607 176.886978 
z
" clip-path="url(#pedb227bb7e)" style="fill: url(#h99aaa37c4b); stroke: #ff7f0e; stroke-width: 2; stroke-linejoin: miter"/>
   </g>
   <g id="patch_96">
    <path d="M 520.861047 242.20768 
L 524.737421 242.20768 
L 524.737421 176.062786 
L 520.861047 176.062786 
z
" clip-path="url(#pedb227bb7e)" style="fill: url(#h99aaa37c4b); stroke: #ff7f0e; stroke-width: 2; stroke-linejoin: miter"/>
   </g>
   <g id="patch_97">
    <path d="M 525.421487 242.20768 
L 529.297862 242.20768 
L 529.297862 175.992939 
L 525.421487 175.992939 
z
" clip-path="url(#pedb227bb7e)" style="fill: url(#h99aaa37c4b); stroke: #ff7f0e; stroke-width: 2; stroke-linejoin: miter"/>
   </g>
   <g id="patch_98">
    <path d="M 529.981928 242.20768 
L 533.858302 242.20768 
L 533.858302 174.791575 
L 529.981928 174.791575 
z
" clip-path="url(#pedb227bb7e)" style="fill: url(#h99aaa37c4b); stroke: #ff7f0e; stroke-width: 2; stroke-linejoin: miter"/>
   </g>
   <g id="patch_99">
    <path d="M 534.542368 242.20768 
L 538.418742 242.20768 
L 538.418742 173.897536 
L 534.542368 173.897536 
z
" clip-path="url(#pedb227bb7e)" style="fill: url(#h99aaa37c4b); stroke: #ff7f0e; stroke-width: 2; stroke-linejoin: miter"/>
   </g>
   <g id="patch_100">
    <path d="M 539.102808 242.20768 
L 542.979182 242.20768 
L 542.979182 173.059375 
L 539.102808 173.059375 
z
" clip-path="url(#pedb227bb7e)" style="fill: url(#h99aaa37c4b); stroke: #ff7f0e; stroke-width: 2; stroke-linejoin: miter"/>
   </g>
   <g id="patch_101">
    <path d="M 543.663248 242.20768 
L 547.539622 242.20768 
L 547.539622 172.08152 
L 543.663248 172.08152 
z
" clip-path="url(#pedb227bb7e)" style="fill: url(#h99aaa37c4b); stroke: #ff7f0e; stroke-width: 2; stroke-linejoin: miter"/>
   </g>
   <g id="patch_102">
    <path d="M 548.223688 242.20768 
L 552.100062 242.20768 
L 552.100062 171.564654 
L 548.223688 171.564654 
z
" clip-path="url(#pedb227bb7e)" style="fill: url(#h99aaa37c4b); stroke: #ff7f0e; stroke-width: 2; stroke-linejoin: miter"/>
   </g>
   <g id="patch_103">
    <path d="M 552.784128 242.20768 
L 556.660502 242.20768 
L 556.660502 171.257328 
L 552.784128 171.257328 
z
" clip-path="url(#pedb227bb7e)" style="fill: url(#h99aaa37c4b); stroke: #ff7f0e; stroke-width: 2; stroke-linejoin: miter"/>
   </g>
   <g id="patch_104">
    <path d="M 557.344568 242.20768 
L 561.220943 242.20768 
L 561.220943 171.089696 
L 557.344568 171.089696 
z
" clip-path="url(#pedb227bb7e)" style="fill: url(#h99aaa37c4b); stroke: #ff7f0e; stroke-width: 2; stroke-linejoin: miter"/>
   </g>
   <g id="patch_105">
    <path d="M 561.905009 242.20768 
L 565.781383 242.20768 
L 565.781383 170.880156 
L 561.905009 170.880156 
z
" clip-path="url(#pedb227bb7e)" style="fill: url(#h99aaa37c4b); stroke: #ff7f0e; stroke-width: 2; stroke-linejoin: miter"/>
   </g>
   <g id="patch_106">
    <path d="M 566.465449 242.20768 
L 570.341823 242.20768 
L 570.341823 170.293443 
L 566.465449 170.293443 
z
" clip-path="url(#pedb227bb7e)" style="fill: url(#h99aaa37c4b); stroke: #ff7f0e; stroke-width: 2; stroke-linejoin: miter"/>
   </g>
   <g id="patch_107">
    <path d="M 571.025889 242.20768 
L 574.902263 242.20768 
L 574.902263 169.69276 
L 571.025889 169.69276 
z
" clip-path="url(#pedb227bb7e)" style="fill: url(#h99aaa37c4b); stroke: #ff7f0e; stroke-width: 2; stroke-linejoin: miter"/>
   </g>
   <g id="patch_108">
    <path d="M 575.586329 242.20768 
L 579.462703 242.20768 
L 579.462703 169.315588 
L 575.586329 169.315588 
z
" clip-path="url(#pedb227bb7e)" style="fill: url(#h99aaa37c4b); stroke: #ff7f0e; stroke-width: 2; stroke-linejoin: miter"/>
   </g>
   <g id="patch_109">
    <path d="M 580.146769 242.20768 
L 584.023143 242.20768 
L 584.023143 169.161925 
L 580.146769 169.161925 
z
" clip-path="url(#pedb227bb7e)" style="fill: url(#h99aaa37c4b); stroke: #ff7f0e; stroke-width: 2; stroke-linejoin: miter"/>
   </g>
   <g id="patch_110">
    <path d="M 584.707209 242.20768 
L 588.583583 242.20768 
L 588.583583 169.092078 
L 584.707209 169.092078 
z
" clip-path="url(#pedb227bb7e)" style="fill: url(#h99aaa37c4b); stroke: #ff7f0e; stroke-width: 2; stroke-linejoin: miter"/>
   </g>
   <g id="patch_111">
    <path d="M 589.267649 242.20768 
L 593.144024 242.20768 
L 593.144024 168.952385 
L 589.267649 168.952385 
z
" clip-path="url(#pedb227bb7e)" style="fill: url(#h99aaa37c4b); stroke: #ff7f0e; stroke-width: 2; stroke-linejoin: miter"/>
   </g>
   <g id="patch_112">
    <path d="M 593.82809 242.20768 
L 597.704464 242.20768 
L 597.704464 168.631089 
L 593.82809 168.631089 
z
" clip-path="url(#pedb227bb7e)" style="fill: url(#h99aaa37c4b); stroke: #ff7f0e; stroke-width: 2; stroke-linejoin: miter"/>
   </g>
   <g id="patch_113">
    <path d="M 598.38853 242.20768 
L 602.264904 242.20768 
L 602.264904 168.323764 
L 598.38853 168.323764 
z
" clip-path="url(#pedb227bb7e)" style="fill: url(#h99aaa37c4b); stroke: #ff7f0e; stroke-width: 2; stroke-linejoin: miter"/>
   </g>
   <g id="patch_114">
    <path d="M 602.94897 242.20768 
L 606.825344 242.20768 
L 606.825344 166.912859 
L 602.94897 166.912859 
z
" clip-path="url(#pedb227bb7e)" style="fill: url(#h99aaa37c4b); stroke: #ff7f0e; stroke-width: 2; stroke-linejoin: miter"/>
   </g>
   <g id="patch_115">
    <path d="M 607.50941 242.20768 
L 611.385784 242.20768 
L 611.385784 165.557831 
L 607.50941 165.557831 
z
" clip-path="url(#pedb227bb7e)" style="fill: url(#h99aaa37c4b); stroke: #ff7f0e; stroke-width: 2; stroke-linejoin: miter"/>
   </g>
   <g id="patch_116">
    <path d="M 612.06985 242.20768 
L 615.946224 242.20768 
L 615.946224 164.887302 
L 612.06985 164.887302 
z
" clip-path="url(#pedb227bb7e)" style="fill: url(#h99aaa37c4b); stroke: #ff7f0e; stroke-width: 2; stroke-linejoin: miter"/>
   </g>
   <g id="patch_117">
    <path d="M 616.63029 242.20768 
L 620.506664 242.20768 
L 620.506664 164.593946 
L 616.63029 164.593946 
z
" clip-path="url(#pedb227bb7e)" style="fill: url(#h99aaa37c4b); stroke: #ff7f0e; stroke-width: 2; stroke-linejoin: miter"/>
   </g>
   <g id="patch_118">
    <path d="M 621.19073 242.20768 
L 625.067105 242.20768 
L 625.067105 164.51013 
L 621.19073 164.51013 
z
" clip-path="url(#pedb227bb7e)" style="fill: url(#h99aaa37c4b); stroke: #ff7f0e; stroke-width: 2; stroke-linejoin: miter"/>
   </g>
   <g id="patch_119">
    <path d="M 625.751171 242.20768 
L 629.627545 242.20768 
L 629.627545 162.484573 
L 625.751171 162.484573 
z
" clip-path="url(#pedb227bb7e)" style="fill: url(#h99aaa37c4b); stroke: #ff7f0e; stroke-width: 2; stroke-linejoin: miter"/>
   </g>
   <g id="patch_120">
    <path d="M 630.311611 242.20768 
L 634.187985 242.20768 
L 634.187985 162.34488 
L 630.311611 162.34488 
z
" clip-path="url(#pedb227bb7e)" style="fill: url(#h99aaa37c4b); stroke: #ff7f0e; stroke-width: 2; stroke-linejoin: miter"/>
   </g>
   <g id="patch_121">
    <path d="M 634.872051 242.20768 
L 638.748425 242.20768 
L 638.748425 161.199393 
L 634.872051 161.199393 
z
" clip-path="url(#pedb227bb7e)" style="fill: url(#h99aaa37c4b); stroke: #ff7f0e; stroke-width: 2; stroke-linejoin: miter"/>
   </g>
   <g id="patch_122">
    <path d="M 639.432491 242.20768 
L 643.308865 242.20768 
L 643.308865 160.668557 
L 639.432491 160.668557 
z
" clip-path="url(#pedb227bb7e)" style="fill: url(#h99aaa37c4b); stroke: #ff7f0e; stroke-width: 2; stroke-linejoin: miter"/>
   </g>
   <g id="patch_123">
    <path d="M 643.992931 242.20768 
L 647.869305 242.20768 
L 647.869305 157.762932 
L 643.992931 157.762932 
z
" clip-path="url(#pedb227bb7e)" style="fill: url(#h99aaa37c4b); stroke: #ff7f0e; stroke-width: 2; stroke-linejoin: miter"/>
   </g>
   <g id="patch_124">
    <path d="M 648.553371 242.20768 
L 652.429745 242.20768 
L 652.429745 156.268211 
L 648.553371 156.268211 
z
" clip-path="url(#pedb227bb7e)" style="fill: url(#h99aaa37c4b); stroke: #ff7f0e; stroke-width: 2; stroke-linejoin: miter"/>
   </g>
   <g id="patch_125">
    <path d="M 653.113812 242.20768 
L 656.990186 242.20768 
L 656.990186 154.382348 
L 653.113812 154.382348 
z
" clip-path="url(#pedb227bb7e)" style="fill: url(#h99aaa37c4b); stroke: #ff7f0e; stroke-width: 2; stroke-linejoin: miter"/>
   </g>
   <g id="patch_126">
    <path d="M 657.674252 242.20768 
L 661.550626 242.20768 
L 661.550626 132.408553 
L 657.674252 132.408553 
z
" clip-path="url(#pedb227bb7e)" style="fill: url(#h99aaa37c4b); stroke: #ff7f0e; stroke-width: 2; stroke-linejoin: miter"/>
   </g>
   <g id="patch_127">
    <path d="M 662.234692 242.20768 
L 666.111066 242.20768 
L 666.111066 103.380234 
L 662.234692 103.380234 
z
" clip-path="url(#pedb227bb7e)" style="fill: url(#h99aaa37c4b); stroke: #ff7f0e; stroke-width: 2; stroke-linejoin: miter"/>
   </g>
   <g id="patch_128">
    <path d="M 666.795132 242.20768 
L 670.671506 242.20768 
L 670.671506 90.765907 
L 666.795132 90.765907 
z
" clip-path="url(#pedb227bb7e)" style="fill: url(#h99aaa37c4b); stroke: #ff7f0e; stroke-width: 2; stroke-linejoin: miter"/>
   </g>
   <g id="patch_129">
    <path d="M 671.355572 242.20768 
L 675.231946 242.20768 
L 675.231946 81.951244 
L 671.355572 81.951244 
z
" clip-path="url(#pedb227bb7e)" style="fill: url(#h99aaa37c4b); stroke: #ff7f0e; stroke-width: 2; stroke-linejoin: miter"/>
   </g>
   <g id="patch_130">
    <path d="M 675.916012 242.20768 
L 679.792386 242.20768 
L 679.792386 45.114056 
L 675.916012 45.114056 
z
" clip-path="url(#pedb227bb7e)" style="fill: url(#h99aaa37c4b); stroke: #ff7f0e; stroke-width: 2; stroke-linejoin: miter"/>
   </g>
   <g id="line2d_23">
    <path d="M 67.5875 191.359229 
L 708.945 191.359229 
" clip-path="url(#pedb227bb7e)" style="fill: none; stroke-dasharray: 4.44,1.92; stroke-dashoffset: 0; stroke: #f58518; stroke-width: 1.2"/>
   </g>
   <g id="patch_131">
    <path d="M 67.5875 242.20768 
L 67.5875 35.259375 
" style="fill: none; stroke: #808080; stroke-width: 0.8; stroke-linejoin: miter; stroke-linecap: square"/>
   </g>
   <g id="patch_132">
    <path d="M 67.5875 242.20768 
L 708.945 242.20768 
" style="fill: none; stroke: #808080; stroke-width: 0.8; stroke-linejoin: miter; stroke-linecap: square"/>
   </g>
   <g id="text_21">
    <text style="font: 22px 'PingFang SC', 'Heiti SC', 'STHeiti', 'Calibri', 'Arial', 'Helvetica Neue', 'Arial Unicode MS', 'Noto Sans CJK SC', 'DejaVu Sans', sans-serif; text-anchor: middle" x="388.26625" y="29.259375" transform="rotate(-0 388.26625 29.259375)">排序条形 · Launch sync p99 (us)</text>
   </g>
   <g id="legend_1">
    <g id="patch_133">
     <path d="M 75.9875 62.019375 
L 190.120625 62.019375 
Q 192.520625 62.019375 192.520625 59.619375 
L 192.520625 43.659375 
Q 192.520625 41.259375 190.120625 41.259375 
L 75.9875 41.259375 
Q 73.5875 41.259375 73.5875 43.659375 
L 73.5875 59.619375 
Q 73.5875 62.019375 75.9875 62.019375 
z
" style="fill: #ffffff; opacity: 0.5; stroke: #cccccc; stroke-linejoin: miter"/>
    </g>
    <g id="line2d_24">
     <path d="M 78.3875 51.410625 
L 90.3875 51.410625 
L 102.3875 51.410625 
" style="fill: none; stroke-dasharray: 4.44,1.92; stroke-dashoffset: 0; stroke: #f58518; stroke-width: 1.2"/>
    </g>
    <g id="text_22">
     <text style="font: 12px 'PingFang SC', 'Heiti SC', 'STHeiti', 'Calibri', 'Arial', 'Helvetica Neue', 'Arial Unicode MS', 'Noto Sans CJK SC', 'DejaVu Sans', sans-serif; text-anchor: start" x="111.9875" y="55.610625" transform="rotate(-0 111.9875 55.610625)">median=6.78</text>
    </g>
   </g>
  </g>
 </g>
 <defs>
  <clipPath id="pedb227bb7e">
   <rect x="67.5875" y="35.259375" width="641.3575" height="206.948305"/>
  </clipPath>
 </defs>
 <defs>
  <pattern id="h17dca0d8e9" patternUnits="userSpaceOnUse" x="0" y="0" width="72" height="72">
   <rect x="0" y="0" width="73" height="73" fill="none"/>
   <path d="M -36 36 
L 36 -36 
M -30 42 
L 42 -30 
M -24 48 
L 48 -24 
M -18 54 
L 54 -18 
M -12 60 
L 60 -12 
M -6 66 
L 66 -6 
M 0 72 
L 72 0 
M 6 78 
L 78 6 
M 12 84 
L 84 12 
M 18 90 
L 90 18 
M 24 96 
L 96 24 
M 30 102 
L 102 30 
M 36 108 
L 108 36 
M -36 36 
L 36 108 
M -30 30 
L 42 102 
M -24 24 
L 48 96 
M -18 18 
L 54 90 
M -12 12 
L 60 84 
M -6 6 
L 66 78 
M 0 0 
L 72 72 
M 6 -6 
L 78 66 
M 12 -12 
L 84 60 
M 18 -18 
L 90 54 
M 24 -24 
L 96 48 
M 30 -30 
L 102 42 
M 36 -36 
L 108 36 
" style="fill: #2ca02c; stroke: #2ca02c; stroke-width: 1.0; stroke-linecap: butt; stroke-linejoin: miter"/>
  </pattern>
  <pattern id="h99aaa37c4b" patternUnits="userSpaceOnUse" x="0" y="0" width="72" height="72">
   <rect x="0" y="0" width="73" height="73" fill="none"/>
   <path d="M -36 36 
L 36 -36 
M -30 42 
L 42 -30 
M -24 48 
L 48 -24 
M -18 54 
L 54 -18 
M -12 60 
L 60 -12 
M -6 66 
L 66 -6 
M 0 72 
L 72 0 
M 6 78 
L 78 6 
M 12 84 
L 84 12 
M 18 90 
L 90 18 
M 24 96 
L 96 24 
M 30 102 
L 102 30 
M 36 108 
L 108 36 
" style="fill: #ff7f0e; stroke: #ff7f0e; stroke-width: 1.0; stroke-linecap: butt; stroke-linejoin: miter"/>
  </pattern>
 </defs>
</svg>
