<?xml version="1.0" encoding="utf-8" standalone="no"?>
<!DOCTYPE svg PUBLIC "-//W3C//DTD SVG 1.1//EN"
  "http://www.w3.org/Graphics/SVG/1.1/DTD/svg11.dtd">
<svg xmlns:xlink="http://www.w3.org/1999/xlink" width="719.54625pt" height="307.054073pt" viewBox="0 0 719.54625 307.054073" xmlns="http://www.w3.org/2000/svg" version="1.1">
 <metadata>
  <rdf:RDF xmlns:dc="http://purl.org/dc/elements/1.1/" xmlns:cc="http://creativecommons.org/ns#" xmlns:rdf="http://www.w3.org/1999/02/22-rdf-syntax-ns#">
   <cc:Work>
    <dc:type rdf:resource="http://purl.org/dc/dcmitype/StillImage"/>
    <dc:date>2026-07-11T20:14:14.425554</dc:date>
    <dc:format>image/svg+xml</dc:format>
    <dc:creator>
     <cc:Agent>
      <dc:title>Matplotlib v3.9.4, https://matplotlib.org/</dc:title>
     </cc:Agent>
    </dc:creator>
   </cc:Work>
  </rdf:RDF>
 </metadata>
 <defs>
  <style type="text/css">*{stroke-linejoin: round; stroke-linecap: butt}</style>
 </defs>
 <g id="figure_1">
  <g id="patch_1">
   <path d="M 0 307.054073 
L 719.54625 307.054073 
L 719.54625 0 
L 0 0 
z
" style="fill: #ffffff"/>
  </g>
  <g id="axes_1">
   <g id="patch_2">
    <path d="M 66.63875 242.197079 
L 708.74625 242.197079 
L 708.74625 34.4 
L 66.63875 34.4 
z
" style="fill: #ffffff"/>
   </g>
   <g id="matplotlib.axis_1">
    <g id="xtick_1">
     <g id="line2d_1">
      <defs>
       <path id="m8cb83b6811" d="M 0 0 
L 0 3.5 
" style="stroke: #808080; stroke-width: 0.8"/>
      </defs>
      <g>
       <use xlink:href="#m8cb83b6811" x="97.765908" y="242.197079" style="fill: #808080; stroke: #808080; stroke-width: 0.8"/>
      </g>
     </g>
     <g id="text_1">
      <text style="fill: #808080; font: 8px 'PingFang SC', 'Heiti SC', 'STHeiti', 'Calibri', 'Arial', 'Helvetica Neue', 'Arial Unicode MS', 'Noto Sans CJK SC', 'DejaVu Sans', sans-serif" transform="translate(74.268971 291.469968) rotate(-60)">worker-4:d8</text>
     </g>
    </g>
    <g id="xtick_2">
     <g id="line2d_2">
      <g>
       <use xlink:href="#m8cb83b6811" x="134.292093" y="242.197079" style="fill: #808080; stroke: #808080; stroke-width: 0.8"/>
      </g>
     </g>
     <g id="text_2">
      <text style="fill: #808080; font: 8px 'PingFang SC', 'Heiti SC', 'STHeiti', 'Calibri', 'Arial', 'Helvetica Neue', 'Arial Unicode MS', 'Noto Sans CJK SC', 'DejaVu Sans', sans-serif" transform="translate(110.558906 291.879165) rotate(-60)">master-0:d7</text>
     </g>
    </g>
    <g id="xtick_3">
     <g id="line2d_3">
      <g>
       <use xlink:href="#m8cb83b6811" x="170.818278" y="242.197079" style="fill: #808080; stroke: #808080; stroke-width: 0.8"/>
      </g>
     </g>
     <g id="text_3">
      <text style="fill: #808080; font: 8px 'PingFang SC', 'Heiti SC', 'STHeiti', 'Calibri', 'Arial', 'Helvetica Neue', 'Arial Unicode MS', 'Noto Sans CJK SC', 'DejaVu Sans', sans-serif" transform="translate(147.32134 291.469968) rotate(-60)">worker-4:d5</text>
     </g>
    </g>
    <g id="xtick_4">
     <g id="line2d_4">
      <g>
       <use xlink:href="#m8cb83b6811" x="207.344463" y="242.197079" style="fill: #808080; stroke: #808080; stroke-width: 0.8"/>
      </g>
     </g>
     <g id="text_4">
      <text style="fill: #808080; font: 8px 'PingFang SC', 'Heiti SC', 'STHeiti', 'Calibri', 'Arial', 'Helvetica Neue', 'Arial Unicode MS', 'Noto Sans CJK SC', 'DejaVu Sans', sans-serif" transform="translate(183.847525 291.469968) rotate(-60)">worker-0:d7</text>
     </g>
    </g>
    <g id="xtick_5">
     <g id="line2d_5">
      <g>
       <use xlink:href="#m8cb83b6811" x="243.870647" y="242.197079" style="fill: #808080; stroke: #808080; stroke-width: 0.8"/>
      </g>
     </g>
     <g id="text_5">
      <text style="fill: #808080; font: 8px 'PingFang SC', 'Heiti SC', 'STHeiti', 'Calibri', 'Arial', 'Helvetica Neue', 'Arial Unicode MS', 'Noto Sans CJK SC', 'DejaVu Sans', sans-serif" transform="translate(217.92121 295.717823) rotate(-60)">master-0:d15</text>
     </g>
    </g>
    <g id="xtick_6">
     <g id="line2d_6">
      <g>
       <use xlink:href="#m8cb83b6811" x="280.396832" y="242.197079" style="fill: #808080; stroke: #808080; stroke-width: 0.8"/>
      </g>
     </g>
     <g id="text_6">
      <text style="fill: #808080; font: 8px 'PingFang SC', 'Heiti SC', 'STHeiti', 'Calibri', 'Arial', 'Helvetica Neue', 'Arial Unicode MS', 'Noto Sans CJK SC', 'DejaVu Sans', sans-serif" transform="translate(256.899895 291.469968) rotate(-60)">worker-3:d5</text>
     </g>
    </g>
    <g id="xtick_7">
     <g id="line2d_7">
      <g>
       <use xlink:href="#m8cb83b6811" x="316.923017" y="242.197079" style="fill: #808080; stroke: #808080; stroke-width: 0.8"/>
      </g>
     </g>
     <g id="text_7">
      <text style="fill: #808080; font: 8px 'PingFang SC', 'Heiti SC', 'STHeiti', 'Calibri', 'Arial', 'Helvetica Neue', 'Arial Unicode MS', 'Noto Sans CJK SC', 'DejaVu Sans', sans-serif" transform="translate(291.20983 295.308626) rotate(-60)">worker-2:d13</text>
     </g>
    </g>
    <g id="xtick_8">
     <g id="line2d_8">
      <g>
       <use xlink:href="#m8cb83b6811" x="353.449202" y="242.197079" style="fill: #808080; stroke: #808080; stroke-width: 0.8"/>
      </g>
     </g>
     <g id="text_8">
      <text style="fill: #808080; font: 8px 'PingFang SC', 'Heiti SC', 'STHeiti', 'Calibri', 'Arial', 'Helvetica Neue', 'Arial Unicode MS', 'Noto Sans CJK SC', 'DejaVu Sans', sans-serif" transform="translate(329.952265 291.469968) rotate(-60)">worker-0:d9</text>
     </g>
    </g>
    <g id="xtick_9">
     <g id="line2d_9">
      <g>
       <use xlink:href="#m8cb83b6811" x="389.975387" y="242.197079" style="fill: #808080; stroke: #808080; stroke-width: 0.8"/>
      </g>
     </g>
     <g id="text_9">
      <text style="fill: #808080; font: 8px 'PingFang SC', 'Heiti SC', 'STHeiti', 'Calibri', 'Arial', 'Helvetica Neue', 'Arial Unicode MS', 'Noto Sans CJK SC', 'DejaVu Sans', sans-serif" transform="translate(364.262199 295.308626) rotate(-60)">worker-6:d14</text>
     </g>
    </g>
    <g id="xtick_10">
     <g id="line2d_10">
      <g>
       <use xlink:href="#m8cb83b6811" x="426.501571" y="242.197079" style="fill: #808080; stroke: #808080; stroke-width: 0.8"/>
      </g>
     </g>
     <g id="text_10">
      <text style="fill: #808080; font: 8px 'PingFang SC', 'Heiti SC', 'STHeiti', 'Calibri', 'Arial', 'Helvetica Neue', 'Arial Unicode MS', 'Noto Sans CJK SC', 'DejaVu Sans', sans-serif" transform="translate(402.768384 291.879165) rotate(-60)">master-0:d2</text>
     </g>
    </g>
    <g id="xtick_11">
     <g id="line2d_11">
      <g>
       <use xlink:href="#m8cb83b6811" x="463.027756" y="242.197079" style="fill: #808080; stroke: #808080; stroke-width: 0.8"/>
      </g>
     </g>
     <g id="text_11">
      <text style="fill: #808080; font: 8px 'PingFang SC', 'Heiti SC', 'STHeiti', 'Calibri', 'Arial', 'Helvetica Neue', 'Arial Unicode MS', 'Noto Sans CJK SC', 'DejaVu Sans', sans-serif" transform="translate(439.530819 291.469968) rotate(-60)">worker-3:d1</text>
     </g>
    </g>
    <g id="xtick_12">
     <g id="line2d_12">
      <g>
       <use xlink:href="#m8cb83b6811" x="499.553941" y="242.197079" style="fill: #808080; stroke: #808080; stroke-width: 0.8"/>
      </g>
     </g>
     <g id="text_12">
      <text style="fill: #808080; font: 8px 'PingFang SC', 'Heiti SC', 'STHeiti', 'Calibri', 'Arial', 'Helvetica Neue', 'Arial Unicode MS', 'Noto Sans CJK SC', 'DejaVu Sans', sans-serif" transform="translate(476.057004 291.469968) rotate(-60)">worker-0:d8</text>
     </g>
    </g>
    <g id="xtick_13">
     <g id="line2d_13">
      <g>
       <use xlink:href="#m8cb83b6811" x="536.080126" y="242.197079" style="fill: #808080; stroke: #808080; stroke-width: 0.8"/>
      </g>
     </g>
     <g id="text_13">
      <text style="fill: #808080; font: 8px 'PingFang SC', 'Heiti SC', 'STHeiti', 'Calibri', 'Arial', 'Helvetica Neue', 'Arial Unicode MS', 'Noto Sans CJK SC', 'DejaVu Sans', sans-serif" transform="translate(512.583189 291.469968) rotate(-60)">worker-4:d1</text>
     </g>
    </g>
    <g id="xtick_14">
     <g id="line2d_14">
      <g>
       <use xlink:href="#m8cb83b6811" x="572.606311" y="242.197079" style="fill: #808080; stroke: #808080; stroke-width: 0.8"/>
      </g>
     </g>
     <g id="text_14">
      <text style="fill: #808080; font: 8px 'PingFang SC', 'Heiti SC', 'STHeiti', 'Calibri', 'Arial', 'Helvetica Neue', 'Arial Unicode MS', 'Noto Sans CJK SC', 'DejaVu Sans', sans-serif" transform="translate(546.893123 295.308626) rotate(-60)">worker-0:d10</text>
     </g>
    </g>
    <g id="xtick_15">
     <g id="line2d_15">
      <g>
       <use xlink:href="#m8cb83b6811" x="609.132495" y="242.197079" style="fill: #808080; stroke: #808080; stroke-width: 0.8"/>
      </g>
     </g>
     <g id="text_15">
      <text style="fill: #808080; font: 8px 'PingFang SC', 'Heiti SC', 'STHeiti', 'Calibri', 'Arial', 'Helvetica Neue', 'Arial Unicode MS', 'Noto Sans CJK SC', 'DejaVu Sans', sans-serif" transform="translate(585.635558 291.469968) rotate(-60)">worker-2:d3</text>
     </g>
    </g>
    <g id="xtick_16">
     <g id="line2d_16">
      <g>
       <use xlink:href="#m8cb83b6811" x="645.65868" y="242.197079" style="fill: #808080; stroke: #808080; stroke-width: 0.8"/>
      </g>
     </g>
     <g id="text_16">
      <text style="fill: #808080; font: 8px 'PingFang SC', 'Heiti SC', 'STHeiti', 'Calibri', 'Arial', 'Helvetica Neue', 'Arial Unicode MS', 'Noto Sans CJK SC', 'DejaVu Sans', sans-serif" transform="translate(622.161743 291.469968) rotate(-60)">worker-5:d6</text>
     </g>
    </g>
   </g>
   <g id="matplotlib.axis_2">
    <g id="ytick_1">
     <g id="line2d_17">
      <path d="M 66.63875 242.197079 
L 708.74625 242.197079 
" clip-path="url(#p2350029eb3)" style="fill: none; stroke-dasharray: 1,1.65; stroke-dashoffset: 0; stroke: #808080; stroke-opacity: 0.55"/>
     </g>
     <g id="line2d_18">
      <defs>
       <path id="m8fe3e29f57" d="M 0 0 
L -3.5 0 
" style="stroke: #808080; stroke-width: 0.8"/>
      </defs>
      <g>
       <use xlink:href="#m8fe3e29f57" x="66.63875" y="242.197079" style="fill: #808080; stroke: #808080; stroke-width: 0.8"/>
      </g>
     </g>
     <g id="text_17">
      <text style="fill: #808080; font: 22px 'PingFang SC', 'Heiti SC', 'STHeiti', 'Calibri', 'Arial', 'Helvetica Neue', 'Arial Unicode MS', 'Noto Sans CJK SC', 'DejaVu Sans', sans-serif; text-anchor: end" x="59.63875" y="250.952392" transform="rotate(-0 59.63875 250.952392)">0</text>
     </g>
    </g>
    <g id="ytick_2">
     <g id="line2d_19">
      <path d="M 66.63875 159.737921 
L 708.74625 159.737921 
" clip-path="url(#p2350029eb3)" style="fill: none; stroke-dasharray: 1,1.65; stroke-dashoffset: 0; stroke: #808080; stroke-opacity: 0.55"/>
     </g>
     <g id="line2d_20">
      <g>
       <use xlink:href="#m8fe3e29f57" x="66.63875" y="159.737921" style="fill: #808080; stroke: #808080; stroke-width: 0.8"/>
      </g>
     </g>
     <g id="text_18">
      <text style="fill: #808080; font: 22px 'PingFang SC', 'Heiti SC', 'STHeiti', 'Calibri', 'Arial', 'Helvetica Neue', 'Arial Unicode MS', 'Noto Sans CJK SC', 'DejaVu Sans', sans-serif; text-anchor: end" x="59.63875" y="168.493233" transform="rotate(-0 59.63875 168.493233)">10</text>
     </g>
    </g>
    <g id="ytick_3">
     <g id="line2d_21">
      <path d="M 66.63875 77.278762 
L 708.74625 77.278762 
" clip-path="url(#p2350029eb3)" style="fill: none; stroke-dasharray: 1,1.65; stroke-dashoffset: 0; stroke: #808080; stroke-opacity: 0.55"/>
     </g>
     <g id="line2d_22">
      <g>
       <use xlink:href="#m8fe3e29f57" x="66.63875" y="77.278762" style="fill: #808080; stroke: #808080; stroke-width: 0.8"/>
      </g>
     </g>
     <g id="text_19">
      <text style="fill: #808080; font: 22px 'PingFang SC', 'Heiti SC', 'STHeiti', 'Calibri', 'Arial', 'Helvetica Neue', 'Arial Unicode MS', 'Noto Sans CJK SC', 'DejaVu Sans', sans-serif; text-anchor: end" x="59.63875" y="86.034075" transform="rotate(-0 59.63875 86.034075)">20</text>
     </g>
    </g>
    <g id="text_20">
     <text style="font: 22px 'PingFang SC', 'Heiti SC', 'STHeiti', 'Calibri', 'Arial', 'Helvetica Neue', 'Arial Unicode MS', 'Noto Sans CJK SC', 'DejaVu Sans', sans-serif; text-anchor: middle" x="28.310625" y="138.29854" transform="rotate(-90 28.310625 138.29854)">MemBW util %</text>
    </g>
   </g>
   <g id="patch_3">
    <path d="M 95.825455 242.197079 
L 99.706362 242.197079 
L 99.706362 242.197079 
L 95.825455 242.197079 
z
" clip-path="url(#p2350029eb3)" style="fill: url(#h3c38d82a9e); stroke: #2ca02c; stroke-width: 2; stroke-linejoin: miter"/>
   </g>
   <g id="patch_4">
    <path d="M 100.391228 242.197079 
L 104.272135 242.197079 
L 104.272135 242.197079 
L 100.391228 242.197079 
z
" clip-path="url(#p2350029eb3)" style="fill: url(#h3c38d82a9e); stroke: #2ca02c; stroke-width: 2; stroke-linejoin: miter"/>
   </g>
   <g id="patch_5">
    <path d="M 104.957001 242.197079 
L 108.837908 242.197079 
L 108.837908 242.197079 
L 104.957001 242.197079 
z
" clip-path="url(#p2350029eb3)" style="fill: url(#h3c38d82a9e); stroke: #2ca02c; stroke-width: 2; stroke-linejoin: miter"/>
   </g>
   <g id="patch_6">
    <path d="M 109.522774 242.197079 
L 113.403681 242.197079 
L 113.403681 242.197079 
L 109.522774 242.197079 
z
" clip-path="url(#p2350029eb3)" style="fill: url(#h3c38d82a9e); stroke: #2ca02c; stroke-width: 2; stroke-linejoin: miter"/>
   </g>
   <g id="patch_7">
    <path d="M 114.088547 242.197079 
L 117.969454 242.197079 
L 117.969454 242.197079 
L 114.088547 242.197079 
z
" clip-path="url(#p2350029eb3)" style="fill: url(#h3c38d82a9e); stroke: #2ca02c; stroke-width: 2; stroke-linejoin: miter"/>
   </g>
   <g id="patch_8">
    <path d="M 118.65432 242.197079 
L 122.535227 242.197079 
L 122.535227 242.197079 
L 118.65432 242.197079 
z
" clip-path="url(#p2350029eb3)" style="fill: url(#h3c38d82a9e); stroke: #2ca02c; stroke-width: 2; stroke-linejoin: miter"/>
   </g>
   <g id="patch_9">
    <path d="M 123.220093 242.197079 
L 127.101 242.197079 
L 127.101 242.197079 
L 123.220093 242.197079 
z
" clip-path="url(#p2350029eb3)" style="fill: url(#h3c38d82a9e); stroke: #2ca02c; stroke-width: 2; stroke-linejoin: miter"/>
   </g>
   <g id="patch_10">
    <path d="M 127.785866 242.197079 
L 131.666773 242.197079 
L 131.666773 242.197079 
L 127.785866 242.197079 
z
" clip-path="url(#p2350029eb3)" style="fill: url(#h3c38d82a9e); stroke: #2ca02c; stroke-width: 2; stroke-linejoin: miter"/>
   </g>
   <g id="patch_11">
    <path d="M 132.351639 242.197079 
L 136.232546 242.197079 
L 136.232546 242.197079 
L 132.351639 242.197079 
z
" clip-path="url(#p2350029eb3)" style="fill: url(#h3c38d82a9e); stroke: #2ca02c; stroke-width: 2; stroke-linejoin: miter"/>
   </g>
   <g id="patch_12">
    <path d="M 136.917412 242.197079 
L 140.79832 242.197079 
L 140.79832 242.197079 
L 136.917412 242.197079 
z
" clip-path="url(#p2350029eb3)" style="fill: url(#h3c38d82a9e); stroke: #2ca02c; stroke-width: 2; stroke-linejoin: miter"/>
   </g>
   <g id="patch_13">
    <path d="M 141.483186 242.197079 
L 145.364093 242.197079 
L 145.364093 176.229752 
L 141.483186 176.229752 
z
" clip-path="url(#p2350029eb3)" style="fill: url(#h3c38d82a9e); stroke: #2ca02c; stroke-width: 2; stroke-linejoin: miter"/>
   </g>
   <g id="patch_14">
    <path d="M 146.048959 242.197079 
L 149.929866 242.197079 
L 149.929866 143.246089 
L 146.048959 143.246089 
z
" clip-path="url(#p2350029eb3)" style="fill: url(#h3c38d82a9e); stroke: #2ca02c; stroke-width: 2; stroke-linejoin: miter"/>
   </g>
   <g id="patch_15">
    <path d="M 150.614732 242.197079 
L 154.495639 242.197079 
L 154.495639 110.262426 
L 150.614732 110.262426 
z
" clip-path="url(#p2350029eb3)" style="fill: url(#h3c38d82a9e); stroke: #2ca02c; stroke-width: 2; stroke-linejoin: miter"/>
   </g>
   <g id="patch_16">
    <path d="M 155.180505 242.197079 
L 159.061412 242.197079 
L 159.061412 110.262426 
L 155.180505 110.262426 
z
" clip-path="url(#p2350029eb3)" style="fill: url(#h3c38d82a9e); stroke: #2ca02c; stroke-width: 2; stroke-linejoin: miter"/>
   </g>
   <g id="patch_17">
    <path d="M 159.746278 242.197079 
L 163.627185 242.197079 
L 163.627185 102.01651 
L 159.746278 102.01651 
z
" clip-path="url(#p2350029eb3)" style="fill: url(#h3c38d82a9e); stroke: #2ca02c; stroke-width: 2; stroke-linejoin: miter"/>
   </g>
   <g id="patch_18">
    <path d="M 164.312051 242.197079 
L 168.192958 242.197079 
L 168.192958 102.01651 
L 164.312051 102.01651 
z
" clip-path="url(#p2350029eb3)" style="fill: url(#h3c38d82a9e); stroke: #2ca02c; stroke-width: 2; stroke-linejoin: miter"/>
   </g>
   <g id="patch_19">
    <path d="M 168.877824 242.197079 
L 172.758731 242.197079 
L 172.758731 102.01651 
L 168.877824 102.01651 
z
" clip-path="url(#p2350029eb3)" style="fill: url(#h3c38d82a9e); stroke: #2ca02c; stroke-width: 2; stroke-linejoin: miter"/>
   </g>
   <g id="patch_20">
    <path d="M 173.443597 242.197079 
L 177.324504 242.197079 
L 177.324504 102.01651 
L 173.443597 102.01651 
z
" clip-path="url(#p2350029eb3)" style="fill: url(#h3c38d82a9e); stroke: #2ca02c; stroke-width: 2; stroke-linejoin: miter"/>
   </g>
   <g id="patch_21">
    <path d="M 178.00937 242.197079 
L 181.890277 242.197079 
L 181.890277 102.01651 
L 178.00937 102.01651 
z
" clip-path="url(#p2350029eb3)" style="fill: url(#h3c38d82a9e); stroke: #2ca02c; stroke-width: 2; stroke-linejoin: miter"/>
   </g>
   <g id="patch_22">
    <path d="M 182.575143 242.197079 
L 186.456051 242.197079 
L 186.456051 102.01651 
L 182.575143 102.01651 
z
" clip-path="url(#p2350029eb3)" style="fill: url(#h3c38d82a9e); stroke: #2ca02c; stroke-width: 2; stroke-linejoin: miter"/>
   </g>
   <g id="patch_23">
    <path d="M 187.140917 242.197079 
L 191.021824 242.197079 
L 191.021824 102.01651 
L 187.140917 102.01651 
z
" clip-path="url(#p2350029eb3)" style="fill: url(#h3c38d82a9e); stroke: #2ca02c; stroke-width: 2; stroke-linejoin: miter"/>
   </g>
   <g id="patch_24">
    <path d="M 191.70669 242.197079 
L 195.587597 242.197079 
L 195.587597 102.01651 
L 191.70669 102.01651 
z
" clip-path="url(#p2350029eb3)" style="fill: url(#h3c38d82a9e); stroke: #2ca02c; stroke-width: 2; stroke-linejoin: miter"/>
   </g>
   <g id="patch_25">
    <path d="M 196.272463 242.197079 
L 200.15337 242.197079 
L 200.15337 102.01651 
L 196.272463 102.01651 
z
" clip-path="url(#p2350029eb3)" style="fill: url(#h3c38d82a9e); stroke: #2ca02c; stroke-width: 2; stroke-linejoin: miter"/>
   </g>
   <g id="patch_26">
    <path d="M 200.838236 242.197079 
L 204.719143 242.197079 
L 204.719143 102.01651 
L 200.838236 102.01651 
z
" clip-path="url(#p2350029eb3)" style="fill: url(#h3c38d82a9e); stroke: #2ca02c; stroke-width: 2; stroke-linejoin: miter"/>
   </g>
   <g id="patch_27">
    <path d="M 205.404009 242.197079 
L 209.284916 242.197079 
L 209.284916 102.01651 
L 205.404009 102.01651 
z
" clip-path="url(#p2350029eb3)" style="fill: url(#h3c38d82a9e); stroke: #2ca02c; stroke-width: 2; stroke-linejoin: miter"/>
   </g>
   <g id="patch_28">
    <path d="M 209.969782 242.197079 
L 213.850689 242.197079 
L 213.850689 102.01651 
L 209.969782 102.01651 
z
" clip-path="url(#p2350029eb3)" style="fill: url(#h3c38d82a9e); stroke: #2ca02c; stroke-width: 2; stroke-linejoin: miter"/>
   </g>
   <g id="patch_29">
    <path d="M 214.535555 242.197079 
L 218.416462 242.197079 
L 218.416462 102.01651 
L 214.535555 102.01651 
z
" clip-path="url(#p2350029eb3)" style="fill: url(#h3c38d82a9e); stroke: #2ca02c; stroke-width: 2; stroke-linejoin: miter"/>
   </g>
   <g id="patch_30">
    <path d="M 219.101328 242.197079 
L 222.982235 242.197079 
L 222.982235 102.01651 
L 219.101328 102.01651 
z
" clip-path="url(#p2350029eb3)" style="fill: url(#h3c38d82a9e); stroke: #2ca02c; stroke-width: 2; stroke-linejoin: miter"/>
   </g>
   <g id="patch_31">
    <path d="M 223.667101 242.197079 
L 227.548008 242.197079 
L 227.548008 102.01651 
L 223.667101 102.01651 
z
" clip-path="url(#p2350029eb3)" style="fill: url(#h3c38d82a9e); stroke: #2ca02c; stroke-width: 2; stroke-linejoin: miter"/>
   </g>
   <g id="patch_32">
    <path d="M 228.232874 242.197079 
L 232.113782 242.197079 
L 232.113782 102.01651 
L 228.232874 102.01651 
z
" clip-path="url(#p2350029eb3)" style="fill: url(#h3c38d82a9e); stroke: #2ca02c; stroke-width: 2; stroke-linejoin: miter"/>
   </g>
   <g id="patch_33">
    <path d="M 232.798648 242.197079 
L 236.679555 242.197079 
L 236.679555 102.01651 
L 232.798648 102.01651 
z
" clip-path="url(#p2350029eb3)" style="fill: url(#h3c38d82a9e); stroke: #2ca02c; stroke-width: 2; stroke-linejoin: miter"/>
   </g>
   <g id="patch_34">
    <path d="M 237.364421 242.197079 
L 241.245328 242.197079 
L 241.245328 102.01651 
L 237.364421 102.01651 
z
" clip-path="url(#p2350029eb3)" style="fill: url(#h3c38d82a9e); stroke: #2ca02c; stroke-width: 2; stroke-linejoin: miter"/>
   </g>
   <g id="patch_35">
    <path d="M 241.930194 242.197079 
L 245.811101 242.197079 
L 245.811101 102.01651 
L 241.930194 102.01651 
z
" clip-path="url(#p2350029eb3)" style="fill: url(#h3c38d82a9e); stroke: #2ca02c; stroke-width: 2; stroke-linejoin: miter"/>
   </g>
   <g id="patch_36">
    <path d="M 246.495967 242.197079 
L 250.376874 242.197079 
L 250.376874 93.770594 
L 246.495967 93.770594 
z
" clip-path="url(#p2350029eb3)" style="fill: url(#he6cb23b7ae); stroke: #ff7f0e; stroke-width: 2; stroke-linejoin: miter"/>
   </g>
   <g id="patch_37">
    <path d="M 251.06174 242.197079 
L 254.942647 242.197079 
L 254.942647 93.770594 
L 251.06174 93.770594 
z
" clip-path="url(#p2350029eb3)" style="fill: url(#he6cb23b7ae); stroke: #ff7f0e; stroke-width: 2; stroke-linejoin: miter"/>
   </g>
   <g id="patch_38">
    <path d="M 255.627513 242.197079 
L 259.50842 242.197079 
L 259.50842 93.770594 
L 255.627513 93.770594 
z
" clip-path="url(#p2350029eb3)" style="fill: url(#he6cb23b7ae); stroke: #ff7f0e; stroke-width: 2; stroke-linejoin: miter"/>
   </g>
   <g id="patch_39">
    <path d="M 260.193286 242.197079 
L 264.074193 242.197079 
L 264.074193 93.770594 
L 260.193286 93.770594 
z
" clip-path="url(#p2350029eb3)" style="fill: url(#he6cb23b7ae); stroke: #ff7f0e; stroke-width: 2; stroke-linejoin: miter"/>
   </g>
   <g id="patch_40">
    <path d="M 264.759059 242.197079 
L 268.639966 242.197079 
L 268.639966 93.770594 
L 264.759059 93.770594 
z
" clip-path="url(#p2350029eb3)" style="fill: url(#he6cb23b7ae); stroke: #ff7f0e; stroke-width: 2; stroke-linejoin: miter"/>
   </g>
   <g id="patch_41">
    <path d="M 269.324832 242.197079 
L 273.20574 242.197079 
L 273.20574 93.770594 
L 269.324832 93.770594 
z
" clip-path="url(#p2350029eb3)" style="fill: url(#he6cb23b7ae); stroke: #ff7f0e; stroke-width: 2; stroke-linejoin: miter"/>
   </g>
   <g id="patch_42">
    <path d="M 273.890605 242.197079 
L 277.771513 242.197079 
L 277.771513 93.770594 
L 273.890605 93.770594 
z
" clip-path="url(#p2350029eb3)" style="fill: url(#he6cb23b7ae); stroke: #ff7f0e; stroke-width: 2; stroke-linejoin: miter"/>
   </g>
   <g id="patch_43">
    <path d="M 278.456379 242.197079 
L 282.337286 242.197079 
L 282.337286 93.770594 
L 278.456379 93.770594 
z
" clip-path="url(#p2350029eb3)" style="fill: url(#he6cb23b7ae); stroke: #ff7f0e; stroke-width: 2; stroke-linejoin: miter"/>
   </g>
   <g id="patch_44">
    <path d="M 283.022152 242.197079 
L 286.903059 242.197079 
L 286.903059 93.770594 
L 283.022152 93.770594 
z
" clip-path="url(#p2350029eb3)" style="fill: url(#he6cb23b7ae); stroke: #ff7f0e; stroke-width: 2; stroke-linejoin: miter"/>
   </g>
   <g id="patch_45">
    <path d="M 287.587925 242.197079 
L 291.468832 242.197079 
L 291.468832 93.770594 
L 287.587925 93.770594 
z
" clip-path="url(#p2350029eb3)" style="fill: url(#he6cb23b7ae); stroke: #ff7f0e; stroke-width: 2; stroke-linejoin: miter"/>
   </g>
   <g id="patch_46">
    <path d="M 292.153698 242.197079 
L 296.034605 242.197079 
L 296.034605 93.770594 
L 292.153698 93.770594 
z
" clip-path="url(#p2350029eb3)" style="fill: url(#he6cb23b7ae); stroke: #ff7f0e; stroke-width: 2; stroke-linejoin: miter"/>
   </g>
   <g id="patch_47">
    <path d="M 296.719471 242.197079 
L 300.600378 242.197079 
L 300.600378 93.770594 
L 296.719471 93.770594 
z
" clip-path="url(#p2350029eb3)" style="fill: url(#he6cb23b7ae); stroke: #ff7f0e; stroke-width: 2; stroke-linejoin: miter"/>
   </g>
   <g id="patch_48">
    <path d="M 301.285244 242.197079 
L 305.166151 242.197079 
L 305.166151 93.770594 
L 301.285244 93.770594 
z
" clip-path="url(#p2350029eb3)" style="fill: url(#he6cb23b7ae); stroke: #ff7f0e; stroke-width: 2; stroke-linejoin: miter"/>
   </g>
   <g id="patch_49">
    <path d="M 305.851017 242.197079 
L 309.731924 242.197079 
L 309.731924 93.770594 
L 305.851017 93.770594 
z
" clip-path="url(#p2350029eb3)" style="fill: url(#he6cb23b7ae); stroke: #ff7f0e; stroke-width: 2; stroke-linejoin: miter"/>
   </g>
   <g id="patch_50">
    <path d="M 310.41679 242.197079 
L 314.297697 242.197079 
L 314.297697 93.770594 
L 310.41679 93.770594 
z
" clip-path="url(#p2350029eb3)" style="fill: url(#he6cb23b7ae); stroke: #ff7f0e; stroke-width: 2; stroke-linejoin: miter"/>
   </g>
   <g id="patch_51">
    <path d="M 314.982563 242.197079 
L 318.863471 242.197079 
L 318.863471 93.770594 
L 314.982563 93.770594 
z
" clip-path="url(#p2350029eb3)" style="fill: url(#he6cb23b7ae); stroke: #ff7f0e; stroke-width: 2; stroke-linejoin: miter"/>
   </g>
   <g id="patch_52">
    <path d="M 319.548336 242.197079 
L 323.429244 242.197079 
L 323.429244 93.770594 
L 319.548336 93.770594 
z
" clip-path="url(#p2350029eb3)" style="fill: url(#he6cb23b7ae); stroke: #ff7f0e; stroke-width: 2; stroke-linejoin: miter"/>
   </g>
   <g id="patch_53">
    <path d="M 324.11411 242.197079 
L 327.995017 242.197079 
L 327.995017 93.770594 
L 324.11411 93.770594 
z
" clip-path="url(#p2350029eb3)" style="fill: url(#he6cb23b7ae); stroke: #ff7f0e; stroke-width: 2; stroke-linejoin: miter"/>
   </g>
   <g id="patch_54">
    <path d="M 328.679883 242.197079 
L 332.56079 242.197079 
L 332.56079 93.770594 
L 328.679883 93.770594 
z
" clip-path="url(#p2350029eb3)" style="fill: url(#he6cb23b7ae); stroke: #ff7f0e; stroke-width: 2; stroke-linejoin: miter"/>
   </g>
   <g id="patch_55">
    <path d="M 333.245656 242.197079 
L 337.126563 242.197079 
L 337.126563 93.770594 
L 333.245656 93.770594 
z
" clip-path="url(#p2350029eb3)" style="fill: url(#he6cb23b7ae); stroke: #ff7f0e; stroke-width: 2; stroke-linejoin: miter"/>
   </g>
   <g id="patch_56">
    <path d="M 337.811429 242.197079 
L 341.692336 242.197079 
L 341.692336 93.770594 
L 337.811429 93.770594 
z
" clip-path="url(#p2350029eb3)" style="fill: url(#he6cb23b7ae); stroke: #ff7f0e; stroke-width: 2; stroke-linejoin: miter"/>
   </g>
   <g id="patch_57">
    <path d="M 342.377202 242.197079 
L 346.258109 242.197079 
L 346.258109 93.770594 
L 342.377202 93.770594 
z
" clip-path="url(#p2350029eb3)" style="fill: url(#he6cb23b7ae); stroke: #ff7f0e; stroke-width: 2; stroke-linejoin: miter"/>
   </g>
   <g id="patch_58">
    <path d="M 346.942975 242.197079 
L 350.823882 242.197079 
L 350.823882 93.770594 
L 346.942975 93.770594 
z
" clip-path="url(#p2350029eb3)" style="fill: url(#he6cb23b7ae); stroke: #ff7f0e; stroke-width: 2; stroke-linejoin: miter"/>
   </g>
   <g id="patch_59">
    <path d="M 351.508748 242.197079 
L 355.389655 242.197079 
L 355.389655 93.770594 
L 351.508748 93.770594 
z
" clip-path="url(#p2350029eb3)" style="fill: url(#he6cb23b7ae); stroke: #ff7f0e; stroke-width: 2; stroke-linejoin: miter"/>
   </g>
   <g id="patch_60">
    <path d="M 356.074521 242.197079 
L 359.955428 242.197079 
L 359.955428 93.770594 
L 356.074521 93.770594 
z
" clip-path="url(#p2350029eb3)" style="fill: url(#he6cb23b7ae); stroke: #ff7f0e; stroke-width: 2; stroke-linejoin: miter"/>
   </g>
   <g id="patch_61">
    <path d="M 360.640294 242.197079 
L 364.521202 242.197079 
L 364.521202 93.770594 
L 360.640294 93.770594 
z
" clip-path="url(#p2350029eb3)" style="fill: url(#he6cb23b7ae); stroke: #ff7f0e; stroke-width: 2; stroke-linejoin: miter"/>
   </g>
   <g id="patch_62">
    <path d="M 365.206067 242.197079 
L 369.086975 242.197079 
L 369.086975 93.770594 
L 365.206067 93.770594 
z
" clip-path="url(#p2350029eb3)" style="fill: url(#he6cb23b7ae); stroke: #ff7f0e; stroke-width: 2; stroke-linejoin: miter"/>
   </g>
   <g id="patch_63">
    <path d="M 369.771841 242.197079 
L 373.652748 242.197079 
L 373.652748 93.770594 
L 369.771841 93.770594 
z
" clip-path="url(#p2350029eb3)" style="fill: url(#he6cb23b7ae); stroke: #ff7f0e; stroke-width: 2; stroke-linejoin: miter"/>
   </g>
   <g id="patch_64">
    <path d="M 374.337614 242.197079 
L 378.218521 242.197079 
L 378.218521 93.770594 
L 374.337614 93.770594 
z
" clip-path="url(#p2350029eb3)" style="fill: url(#he6cb23b7ae); stroke: #ff7f0e; stroke-width: 2; stroke-linejoin: miter"/>
   </g>
   <g id="patch_65">
    <path d="M 378.903387 242.197079 
L 382.784294 242.197079 
L 382.784294 93.770594 
L 378.903387 93.770594 
z
" clip-path="url(#p2350029eb3)" style="fill: url(#he6cb23b7ae); stroke: #ff7f0e; stroke-width: 2; stroke-linejoin: miter"/>
   </g>
   <g id="patch_66">
    <path d="M 383.46916 242.197079 
L 387.350067 242.197079 
L 387.350067 93.770594 
L 383.46916 93.770594 
z
" clip-path="url(#p2350029eb3)" style="fill: url(#he6cb23b7ae); stroke: #ff7f0e; stroke-width: 2; stroke-linejoin: miter"/>
   </g>
   <g id="patch_67">
    <path d="M 388.034933 242.197079 
L 391.91584 242.197079 
L 391.91584 93.770594 
L 388.034933 93.770594 
z
" clip-path="url(#p2350029eb3)" style="fill: url(#he6cb23b7ae); stroke: #ff7f0e; stroke-width: 2; stroke-linejoin: miter"/>
   </g>
   <g id="patch_68">
    <path d="M 392.600706 242.197079 
L 396.481613 242.197079 
L 396.481613 93.770594 
L 392.600706 93.770594 
z
" clip-path="url(#p2350029eb3)" style="fill: url(#he6cb23b7ae); stroke: #ff7f0e; stroke-width: 2; stroke-linejoin: miter"/>
   </g>
   <g id="patch_69">
    <path d="M 397.166479 242.197079 
L 401.047386 242.197079 
L 401.047386 93.770594 
L 397.166479 93.770594 
z
" clip-path="url(#p2350029eb3)" style="fill: url(#he6cb23b7ae); stroke: #ff7f0e; stroke-width: 2; stroke-linejoin: miter"/>
   </g>
   <g id="patch_70">
    <path d="M 401.732252 242.197079 
L 405.613159 242.197079 
L 405.613159 93.770594 
L 401.732252 93.770594 
z
" clip-path="url(#p2350029eb3)" style="fill: url(#he6cb23b7ae); stroke: #ff7f0e; stroke-width: 2; stroke-linejoin: miter"/>
   </g>
   <g id="patch_71">
    <path d="M 406.298025 242.197079 
L 410.178933 242.197079 
L 410.178933 93.770594 
L 406.298025 93.770594 
z
" clip-path="url(#p2350029eb3)" style="fill: url(#he6cb23b7ae); stroke: #ff7f0e; stroke-width: 2; stroke-linejoin: miter"/>
   </g>
   <g id="patch_72">
    <path d="M 410.863798 242.197079 
L 414.744706 242.197079 
L 414.744706 93.770594 
L 410.863798 93.770594 
z
" clip-path="url(#p2350029eb3)" style="fill: url(#he6cb23b7ae); stroke: #ff7f0e; stroke-width: 2; stroke-linejoin: miter"/>
   </g>
   <g id="patch_73">
    <path d="M 415.429572 242.197079 
L 419.310479 242.197079 
L 419.310479 93.770594 
L 415.429572 93.770594 
z
" clip-path="url(#p2350029eb3)" style="fill: url(#he6cb23b7ae); stroke: #ff7f0e; stroke-width: 2; stroke-linejoin: miter"/>
   </g>
   <g id="patch_74">
    <path d="M 419.995345 242.197079 
L 423.876252 242.197079 
L 423.876252 93.770594 
L 419.995345 93.770594 
z
" clip-path="url(#p2350029eb3)" style="fill: url(#he6cb23b7ae); stroke: #ff7f0e; stroke-width: 2; stroke-linejoin: miter"/>
   </g>
   <g id="patch_75">
    <path d="M 424.561118 242.197079 
L 428.442025 242.197079 
L 428.442025 93.770594 
L 424.561118 93.770594 
z
" clip-path="url(#p2350029eb3)" style="fill: url(#he6cb23b7ae); stroke: #ff7f0e; stroke-width: 2; stroke-linejoin: miter"/>
   </g>
   <g id="patch_76">
    <path d="M 429.126891 242.197079 
L 433.007798 242.197079 
L 433.007798 93.770594 
L 429.126891 93.770594 
z
" clip-path="url(#p2350029eb3)" style="fill: url(#he6cb23b7ae); stroke: #ff7f0e; stroke-width: 2; stroke-linejoin: miter"/>
   </g>
   <g id="patch_77">
    <path d="M 433.692664 242.197079 
L 437.573571 242.197079 
L 437.573571 93.770594 
L 433.692664 93.770594 
z
" clip-path="url(#p2350029eb3)" style="fill: url(#he6cb23b7ae); stroke: #ff7f0e; stroke-width: 2; stroke-linejoin: miter"/>
   </g>
   <g id="patch_78">
    <path d="M 438.258437 242.197079 
L 442.139344 242.197079 
L 442.139344 93.770594 
L 438.258437 93.770594 
z
" clip-path="url(#p2350029eb3)" style="fill: url(#he6cb23b7ae); stroke: #ff7f0e; stroke-width: 2; stroke-linejoin: miter"/>
   </g>
   <g id="patch_79">
    <path d="M 442.82421 242.197079 
L 446.705117 242.197079 
L 446.705117 93.770594 
L 442.82421 93.770594 
z
" clip-path="url(#p2350029eb3)" style="fill: url(#he6cb23b7ae); stroke: #ff7f0e; stroke-width: 2; stroke-linejoin: miter"/>
   </g>
   <g id="patch_80">
    <path d="M 447.389983 242.197079 
L 451.27089 242.197079 
L 451.27089 93.770594 
L 447.389983 93.770594 
z
" clip-path="url(#p2350029eb3)" style="fill: url(#he6cb23b7ae); stroke: #ff7f0e; stroke-width: 2; stroke-linejoin: miter"/>
   </g>
   <g id="patch_81">
    <path d="M 451.955756 242.197079 
L 455.836664 242.197079 
L 455.836664 85.524678 
L 451.955756 85.524678 
z
" clip-path="url(#p2350029eb3)" style="fill: url(#he6cb23b7ae); stroke: #ff7f0e; stroke-width: 2; stroke-linejoin: miter"/>
   </g>
   <g id="patch_82">
    <path d="M 456.521529 242.197079 
L 460.402437 242.197079 
L 460.402437 85.524678 
L 456.521529 85.524678 
z
" clip-path="url(#p2350029eb3)" style="fill: url(#he6cb23b7ae); stroke: #ff7f0e; stroke-width: 2; stroke-linejoin: miter"/>
   </g>
   <g id="patch_83">
    <path d="M 461.087303 242.197079 
L 464.96821 242.197079 
L 464.96821 85.524678 
L 461.087303 85.524678 
z
" clip-path="url(#p2350029eb3)" style="fill: url(#he6cb23b7ae); stroke: #ff7f0e; stroke-width: 2; stroke-linejoin: miter"/>
   </g>
   <g id="patch_84">
    <path d="M 465.653076 242.197079 
L 469.533983 242.197079 
L 469.533983 85.524678 
L 465.653076 85.524678 
z
" clip-path="url(#p2350029eb3)" style="fill: url(#he6cb23b7ae); stroke: #ff7f0e; stroke-width: 2; stroke-linejoin: miter"/>
   </g>
   <g id="patch_85">
    <path d="M 470.218849 242.197079 
L 474.099756 242.197079 
L 474.099756 85.524678 
L 470.218849 85.524678 
z
" clip-path="url(#p2350029eb3)" style="fill: url(#he6cb23b7ae); stroke: #ff7f0e; stroke-width: 2; stroke-linejoin: miter"/>
   </g>
   <g id="patch_86">
    <path d="M 474.784622 242.197079 
L 478.665529 242.197079 
L 478.665529 85.524678 
L 474.784622 85.524678 
z
" clip-path="url(#p2350029eb3)" style="fill: url(#he6cb23b7ae); stroke: #ff7f0e; stroke-width: 2; stroke-linejoin: miter"/>
   </g>
   <g id="patch_87">
    <path d="M 479.350395 242.197079 
L 483.231302 242.197079 
L 483.231302 85.524678 
L 479.350395 85.524678 
z
" clip-path="url(#p2350029eb3)" style="fill: url(#he6cb23b7ae); stroke: #ff7f0e; stroke-width: 2; stroke-linejoin: miter"/>
   </g>
   <g id="patch_88">
    <path d="M 483.916168 242.197079 
L 487.797075 242.197079 
L 487.797075 85.524678 
L 483.916168 85.524678 
z
" clip-path="url(#p2350029eb3)" style="fill: url(#he6cb23b7ae); stroke: #ff7f0e; stroke-width: 2; stroke-linejoin: miter"/>
   </g>
   <g id="patch_89">
    <path d="M 488.481941 242.197079 
L 492.362848 242.197079 
L 492.362848 85.524678 
L 488.481941 85.524678 
z
" clip-path="url(#p2350029eb3)" style="fill: url(#he6cb23b7ae); stroke: #ff7f0e; stroke-width: 2; stroke-linejoin: miter"/>
   </g>
   <g id="patch_90">
    <path d="M 493.047714 242.197079 
L 496.928621 242.197079 
L 496.928621 85.524678 
L 493.047714 85.524678 
z
" clip-path="url(#p2350029eb3)" style="fill: url(#he6cb23b7ae); stroke: #ff7f0e; stroke-width: 2; stroke-linejoin: miter"/>
   </g>
   <g id="patch_91">
    <path d="M 497.613487 242.197079 
L 501.494395 242.197079 
L 501.494395 85.524678 
L 497.613487 85.524678 
z
" clip-path="url(#p2350029eb3)" style="fill: url(#he6cb23b7ae); stroke: #ff7f0e; stroke-width: 2; stroke-linejoin: miter"/>
   </g>
   <g id="patch_92">
    <path d="M 502.17926 242.197079 
L 506.060168 242.197079 
L 506.060168 85.524678 
L 502.17926 85.524678 
z
" clip-path="url(#p2350029eb3)" style="fill: url(#he6cb23b7ae); stroke: #ff7f0e; stroke-width: 2; stroke-linejoin: miter"/>
   </g>
   <g id="patch_93">
    <path d="M 506.745034 242.197079 
L 510.625941 242.197079 
L 510.625941 85.524678 
L 506.745034 85.524678 
z
" clip-path="url(#p2350029eb3)" style="fill: url(#he6cb23b7ae); stroke: #ff7f0e; stroke-width: 2; stroke-linejoin: miter"/>
   </g>
   <g id="patch_94">
    <path d="M 511.310807 242.197079 
L 515.191714 242.197079 
L 515.191714 85.524678 
L 511.310807 85.524678 
z
" clip-path="url(#p2350029eb3)" style="fill: url(#he6cb23b7ae); stroke: #ff7f0e; stroke-width: 2; stroke-linejoin: miter"/>
   </g>
   <g id="patch_95">
    <path d="M 515.87658 242.197079 
L 519.757487 242.197079 
L 519.757487 85.524678 
L 515.87658 85.524678 
z
" clip-path="url(#p2350029eb3)" style="fill: url(#he6cb23b7ae); stroke: #ff7f0e; stroke-width: 2; stroke-linejoin: miter"/>
   </g>
   <g id="patch_96">
    <path d="M 520.442353 242.197079 
L 524.32326 242.197079 
L 524.32326 85.524678 
L 520.442353 85.524678 
z
" clip-path="url(#p2350029eb3)" style="fill: url(#he6cb23b7ae); stroke: #ff7f0e; stroke-width: 2; stroke-linejoin: miter"/>
   </g>
   <g id="patch_97">
    <path d="M 525.008126 242.197079 
L 528.889033 242.197079 
L 528.889033 85.524678 
L 525.008126 85.524678 
z
" clip-path="url(#p2350029eb3)" style="fill: url(#he6cb23b7ae); stroke: #ff7f0e; stroke-width: 2; stroke-linejoin: miter"/>
   </g>
   <g id="patch_98">
    <path d="M 529.573899 242.197079 
L 533.454806 242.197079 
L 533.454806 85.524678 
L 529.573899 85.524678 
z
" clip-path="url(#p2350029eb3)" style="fill: url(#he6cb23b7ae); stroke: #ff7f0e; stroke-width: 2; stroke-linejoin: miter"/>
   </g>
   <g id="patch_99">
    <path d="M 534.139672 242.197079 
L 538.020579 242.197079 
L 538.020579 77.278762 
L 534.139672 77.278762 
z
" clip-path="url(#p2350029eb3)" style="fill: url(#he6cb23b7ae); stroke: #ff7f0e; stroke-width: 2; stroke-linejoin: miter"/>
   </g>
   <g id="patch_100">
    <path d="M 538.705445 242.197079 
L 542.586352 242.197079 
L 542.586352 77.278762 
L 538.705445 77.278762 
z
" clip-path="url(#p2350029eb3)" style="fill: url(#he6cb23b7ae); stroke: #ff7f0e; stroke-width: 2; stroke-linejoin: miter"/>
   </g>
   <g id="patch_101">
    <path d="M 543.271218 242.197079 
L 547.152126 242.197079 
L 547.152126 77.278762 
L 543.271218 77.278762 
z
" clip-path="url(#p2350029eb3)" style="fill: url(#he6cb23b7ae); stroke: #ff7f0e; stroke-width: 2; stroke-linejoin: miter"/>
   </g>
   <g id="patch_102">
    <path d="M 547.836992 242.197079 
L 551.717899 242.197079 
L 551.717899 77.278762 
L 547.836992 77.278762 
z
" clip-path="url(#p2350029eb3)" style="fill: url(#he6cb23b7ae); stroke: #ff7f0e; stroke-width: 2; stroke-linejoin: miter"/>
   </g>
   <g id="patch_103">
    <path d="M 552.402765 242.197079 
L 556.283672 242.197079 
L 556.283672 77.278762 
L 552.402765 77.278762 
z
" clip-path="url(#p2350029eb3)" style="fill: url(#he6cb23b7ae); stroke: #ff7f0e; stroke-width: 2; stroke-linejoin: miter"/>
   </g>
   <g id="patch_104">
    <path d="M 556.968538 242.197079 
L 560.849445 242.197079 
L 560.849445 77.278762 
L 556.968538 77.278762 
z
" clip-path="url(#p2350029eb3)" style="fill: url(#he6cb23b7ae); stroke: #ff7f0e; stroke-width: 2; stroke-linejoin: miter"/>
   </g>
   <g id="patch_105">
    <path d="M 561.534311 242.197079 
L 565.415218 242.197079 
L 565.415218 77.278762 
L 561.534311 77.278762 
z
" clip-path="url(#p2350029eb3)" style="fill: url(#he6cb23b7ae); stroke: #ff7f0e; stroke-width: 2; stroke-linejoin: miter"/>
   </g>
   <g id="patch_106">
    <path d="M 566.100084 242.197079 
L 569.980991 242.197079 
L 569.980991 77.278762 
L 566.100084 77.278762 
z
" clip-path="url(#p2350029eb3)" style="fill: url(#he6cb23b7ae); stroke: #ff7f0e; stroke-width: 2; stroke-linejoin: miter"/>
   </g>
   <g id="patch_107">
    <path d="M 570.665857 242.197079 
L 574.546764 242.197079 
L 574.546764 77.278762 
L 570.665857 77.278762 
z
" clip-path="url(#p2350029eb3)" style="fill: url(#he6cb23b7ae); stroke: #ff7f0e; stroke-width: 2; stroke-linejoin: miter"/>
   </g>
   <g id="patch_108">
    <path d="M 575.23163 242.197079 
L 579.112537 242.197079 
L 579.112537 77.278762 
L 575.23163 77.278762 
z
" clip-path="url(#p2350029eb3)" style="fill: url(#he6cb23b7ae); stroke: #ff7f0e; stroke-width: 2; stroke-linejoin: miter"/>
   </g>
   <g id="patch_109">
    <path d="M 579.797403 242.197079 
L 583.67831 242.197079 
L 583.67831 77.278762 
L 579.797403 77.278762 
z
" clip-path="url(#p2350029eb3)" style="fill: url(#he6cb23b7ae); stroke: #ff7f0e; stroke-width: 2; stroke-linejoin: miter"/>
   </g>
   <g id="patch_110">
    <path d="M 584.363176 242.197079 
L 588.244083 242.197079 
L 588.244083 77.278762 
L 584.363176 77.278762 
z
" clip-path="url(#p2350029eb3)" style="fill: url(#he6cb23b7ae); stroke: #ff7f0e; stroke-width: 2; stroke-linejoin: miter"/>
   </g>
   <g id="patch_111">
    <path d="M 588.928949 242.197079 
L 592.809857 242.197079 
L 592.809857 77.278762 
L 588.928949 77.278762 
z
" clip-path="url(#p2350029eb3)" style="fill: url(#he6cb23b7ae); stroke: #ff7f0e; stroke-width: 2; stroke-linejoin: miter"/>
   </g>
   <g id="patch_112">
    <path d="M 593.494723 242.197079 
L 597.37563 242.197079 
L 597.37563 77.278762 
L 593.494723 77.278762 
z
" clip-path="url(#p2350029eb3)" style="fill: url(#he6cb23b7ae); stroke: #ff7f0e; stroke-width: 2; stroke-linejoin: miter"/>
   </g>
   <g id="patch_113">
    <path d="M 598.060496 242.197079 
L 601.941403 242.197079 
L 601.941403 77.278762 
L 598.060496 77.278762 
z
" clip-path="url(#p2350029eb3)" style="fill: url(#he6cb23b7ae); stroke: #ff7f0e; stroke-width: 2; stroke-linejoin: miter"/>
   </g>
   <g id="patch_114">
    <path d="M 602.626269 242.197079 
L 606.507176 242.197079 
L 606.507176 69.032847 
L 602.626269 69.032847 
z
" clip-path="url(#p2350029eb3)" style="fill: url(#he6cb23b7ae); stroke: #ff7f0e; stroke-width: 2; stroke-linejoin: miter"/>
   </g>
   <g id="patch_115">
    <path d="M 607.192042 242.197079 
L 611.072949 242.197079 
L 611.072949 69.032847 
L 607.192042 69.032847 
z
" clip-path="url(#p2350029eb3)" style="fill: url(#he6cb23b7ae); stroke: #ff7f0e; stroke-width: 2; stroke-linejoin: miter"/>
   </g>
   <g id="patch_116">
    <path d="M 611.757815 242.197079 
L 615.638722 242.197079 
L 615.638722 69.032847 
L 611.757815 69.032847 
z
" clip-path="url(#p2350029eb3)" style="fill: url(#he6cb23b7ae); stroke: #ff7f0e; stroke-width: 2; stroke-linejoin: miter"/>
   </g>
   <g id="patch_117">
    <path d="M 616.323588 242.197079 
L 620.204495 242.197079 
L 620.204495 69.032847 
L 616.323588 69.032847 
z
" clip-path="url(#p2350029eb3)" style="fill: url(#he6cb23b7ae); stroke: #ff7f0e; stroke-width: 2; stroke-linejoin: miter"/>
   </g>
   <g id="patch_118">
    <path d="M 620.889361 242.197079 
L 624.770268 242.197079 
L 624.770268 69.032847 
L 620.889361 69.032847 
z
" clip-path="url(#p2350029eb3)" style="fill: url(#he6cb23b7ae); stroke: #ff7f0e; stroke-width: 2; stroke-linejoin: miter"/>
   </g>
   <g id="patch_119">
    <path d="M 625.455134 242.197079 
L 629.336041 242.197079 
L 629.336041 69.032847 
L 625.455134 69.032847 
z
" clip-path="url(#p2350029eb3)" style="fill: url(#he6cb23b7ae); stroke: #ff7f0e; stroke-width: 2; stroke-linejoin: miter"/>
   </g>
   <g id="patch_120">
    <path d="M 630.020907 242.197079 
L 633.901814 242.197079 
L 633.901814 69.032847 
L 630.020907 69.032847 
z
" clip-path="url(#p2350029eb3)" style="fill: url(#he6cb23b7ae); stroke: #ff7f0e; stroke-width: 2; stroke-linejoin: miter"/>
   </g>
   <g id="patch_121">
    <path d="M 634.58668 242.197079 
L 638.467588 242.197079 
L 638.467588 69.032847 
L 634.58668 69.032847 
z
" clip-path="url(#p2350029eb3)" style="fill: url(#he6cb23b7ae); stroke: #ff7f0e; stroke-width: 2; stroke-linejoin: miter"/>
   </g>
   <g id="patch_122">
    <path d="M 639.152454 242.197079 
L 643.033361 242.197079 
L 643.033361 60.786931 
L 639.152454 60.786931 
z
" clip-path="url(#p2350029eb3)" style="fill: url(#he6cb23b7ae); stroke: #ff7f0e; stroke-width: 2; stroke-linejoin: miter"/>
   </g>
   <g id="patch_123">
    <path d="M 643.718227 242.197079 
L 647.599134 242.197079 
L 647.599134 60.786931 
L 643.718227 60.786931 
z
" clip-path="url(#p2350029eb3)" style="fill: url(#he6cb23b7ae); stroke: #ff7f0e; stroke-width: 2; stroke-linejoin: miter"/>
   </g>
   <g id="patch_124">
    <path d="M 648.284 242.197079 
L 652.164907 242.197079 
L 652.164907 60.786931 
L 648.284 60.786931 
z
" clip-path="url(#p2350029eb3)" style="fill: url(#he6cb23b7ae); stroke: #ff7f0e; stroke-width: 2; stroke-linejoin: miter"/>
   </g>
   <g id="patch_125">
    <path d="M 652.849773 242.197079 
L 656.73068 242.197079 
L 656.73068 60.786931 
L 652.849773 60.786931 
z
" clip-path="url(#p2350029eb3)" style="fill: url(#he6cb23b7ae); stroke: #ff7f0e; stroke-width: 2; stroke-linejoin: miter"/>
   </g>
   <g id="patch_126">
    <path d="M 657.415546 242.197079 
L 661.296453 242.197079 
L 661.296453 60.786931 
L 657.415546 60.786931 
z
" clip-path="url(#p2350029eb3)" style="fill: url(#he6cb23b7ae); stroke: #ff7f0e; stroke-width: 2; stroke-linejoin: miter"/>
   </g>
   <g id="patch_127">
    <path d="M 661.981319 242.197079 
L 665.862226 242.197079 
L 665.862226 60.786931 
L 661.981319 60.786931 
z
" clip-path="url(#p2350029eb3)" style="fill: url(#he6cb23b7ae); stroke: #ff7f0e; stroke-width: 2; stroke-linejoin: miter"/>
   </g>
   <g id="patch_128">
    <path d="M 666.547092 242.197079 
L 670.427999 242.197079 
L 670.427999 52.541015 
L 666.547092 52.541015 
z
" clip-path="url(#p2350029eb3)" style="fill: url(#he6cb23b7ae); stroke: #ff7f0e; stroke-width: 2; stroke-linejoin: miter"/>
   </g>
   <g id="patch_129">
    <path d="M 671.112865 242.197079 
L 674.993772 242.197079 
L 674.993772 52.541015 
L 671.112865 52.541015 
z
" clip-path="url(#p2350029eb3)" style="fill: url(#he6cb23b7ae); stroke: #ff7f0e; stroke-width: 2; stroke-linejoin: miter"/>
   </g>
   <g id="patch_130">
    <path d="M 675.678638 242.197079 
L 679.559545 242.197079 
L 679.559545 44.295099 
L 675.678638 44.295099 
z
" clip-path="url(#p2350029eb3)" style="fill: url(#he6cb23b7ae); stroke: #ff7f0e; stroke-width: 2; stroke-linejoin: miter"/>
   </g>
   <g id="line2d_23">
    <path d="M 66.63875 93.770594 
L 708.74625 93.770594 
" clip-path="url(#p2350029eb3)" style="fill: none; stroke-dasharray: 4.44,1.92; stroke-dashoffset: 0; stroke: #f58518; stroke-width: 1.2"/>
   </g>
   <g id="patch_131">
    <path d="M 66.63875 242.197079 
L 66.63875 34.4 
" style="fill: none; stroke: #808080; stroke-width: 0.8; stroke-linejoin: miter; stroke-linecap: square"/>
   </g>
   <g id="patch_132">
    <path d="M 66.63875 242.197079 
L 708.74625 242.197079 
" style="fill: none; stroke: #808080; stroke-width: 0.8; stroke-linejoin: miter; stroke-linecap: square"/>
   </g>
   <g id="text_21">
    <text style="font: 22px 'PingFang SC', 'Heiti SC', 'STHeiti', 'Calibri', 'Arial', 'Helvetica Neue', 'Arial Unicode MS', 'Noto Sans CJK SC', 'DejaVu Sans', sans-serif; text-anchor: middle" x="387.6925" y="28.4" transform="rotate(-0 387.6925 28.4)">排序条形 · MemBW util %</text>
   </g>
   <g id="legend_1">
    <g id="patch_133">
     <path d="M 75.03875 61.16 
L 179.19875 61.16 
Q 181.59875 61.16 181.59875 58.76 
L 181.59875 42.8 
Q 181.59875 40.4 179.19875 40.4 
L 75.03875 40.4 
Q 72.63875 40.4 72.63875 42.8 
L 72.63875 58.76 
Q 72.63875 61.16 75.03875 61.16 
z
" style="fill: #ffffff; opacity: 0.5; stroke: #cccccc; stroke-linejoin: miter"/>
    </g>
    <g id="line2d_24">
     <path d="M 77.43875 50.55125 
L 89.43875 50.55125 
L 101.43875 50.55125 
" style="fill: none; stroke-dasharray: 4.44,1.92; stroke-dashoffset: 0; stroke: #f58518; stroke-width: 1.2"/>
    </g>
    <g id="text_22">
     <text style="font: 12px 'PingFang SC', 'Heiti SC', 'STHeiti', 'Calibri', 'Arial', 'Helvetica Neue', 'Arial Unicode MS', 'Noto Sans CJK SC', 'DejaVu Sans', sans-serif; text-anchor: start" x="111.03875" y="54.75125" transform="rotate(-0 111.03875 54.75125)">median=18</text>
    </g>
   </g>
  </g>
 </g>
 <defs>
  <clipPath id="p2350029eb3">
   <rect x="66.63875" y="34.4" width="642.1075" height="207.797079"/>
  </clipPath>
 </defs>
 <defs>
  <pattern id="h3c38d82a9e" patternUnits="userSpaceOnUse" x="0" y="0" width="72" height="72">
   <rect x="0" y="0" width="73" height="73" fill="none"/>
   <path d="M -36 36 
L 36 -36 
M -30 42 
L 42 -30 
M -24 48 
L 48 -24 
M -18 54 
L 54 -18 
M -12 60 
L 60 -12 
M -6 66 
L 66 -6 
M 0 72 
L 72 0 
M 6 78 
L 78 6 
M 12 84 
L 84 12 
M 18 90 
L 90 18 
M 24 96 
L 96 24 
M 30 102 
L 102 30 
M 36 108 
L 108 36 
M -36 36 
L 36 108 
M -30 30 
L 42 102 
M -24 24 
L 48 96 
M -18 18 
L 54 90 
M -12 12 
L 60 84 
M -6 6 
L 66 78 
M 0 0 
L 72 72 
M 6 -6 
L 78 66 
M 12 -12 
L 84 60 
M 18 -18 
L 90 54 
M 24 -24 
L 96 48 
M 30 -30 
L 102 42 
M 36 -36 
L 108 36 
" style="fill: #2ca02c; stroke: #2ca02c; stroke-width: 1.0; stroke-linecap: butt; stroke-linejoin: miter"/>
  </pattern>
  <pattern id="he6cb23b7ae" patternUnits="userSpaceOnUse" x="0" y="0" width="72" height="72">
   <rect x="0" y="0" width="73" height="73" fill="none"/>
   <path d="M -36 36 
L 36 -36 
M -30 42 
L 42 -30 
M -24 48 
L 48 -24 
M -18 54 
L 54 -18 
M -12 60 
L 60 -12 
M -6 66 
L 66 -6 
M 0 72 
L 72 0 
M 6 78 
L 78 6 
M 12 84 
L 84 12 
M 18 90 
L 90 18 
M 24 96 
L 96 24 
M 30 102 
L 102 30 
M 36 108 
L 108 36 
" style="fill: #ff7f0e; stroke: #ff7f0e; stroke-width: 1.0; stroke-linecap: butt; stroke-linejoin: miter"/>
  </pattern>
 </defs>
</svg>
