<?xml version="1.0" encoding="utf-8" standalone="no"?>
<!DOCTYPE svg PUBLIC "-//W3C//DTD SVG 1.1//EN"
  "http://www.w3.org/Graphics/SVG/1.1/DTD/svg11.dtd">
<svg xmlns:xlink="http://www.w3.org/1999/xlink" width="619.728125pt" height="386.532063pt" viewBox="0 0 619.728125 386.532063" xmlns="http://www.w3.org/2000/svg" version="1.1">
 <metadata>
  <rdf:RDF xmlns:dc="http://purl.org/dc/elements/1.1/" xmlns:cc="http://creativecommons.org/ns#" xmlns:rdf="http://www.w3.org/1999/02/22-rdf-syntax-ns#">
   <cc:Work>
    <dc:type rdf:resource="http://purl.org/dc/dcmitype/StillImage"/>
    <dc:date>2026-07-11T23:44:24.472081</dc:date>
    <dc:format>image/svg+xml</dc:format>
    <dc:creator>
     <cc:Agent>
      <dc:title>Matplotlib v3.9.4, https://matplotlib.org/</dc:title>
     </cc:Agent>
    </dc:creator>
   </cc:Work>
  </rdf:RDF>
 </metadata>
 <defs>
  <style type="text/css">*{stroke-linejoin: round; stroke-linecap: butt}</style>
 </defs>
 <g id="figure_1">
  <g id="patch_1">
   <path d="M 0 386.532063 
L 619.728125 386.532063 
L 619.728125 0 
L 0 0 
z
" style="fill: #ffffff"/>
  </g>
  <g id="axes_1">
   <g id="patch_2">
    <path d="M 78.828125 323.193313 
L 608.928125 323.193313 
L 608.928125 34.905313 
L 78.828125 34.905313 
z
" style="fill: #ffffff"/>
   </g>
   <g id="matplotlib.axis_1">
    <g id="xtick_1">
     <g id="line2d_1">
      <defs>
       <path id="mb9c274c57d" d="M 0 0 
L 0 3.5 
" style="stroke: #808080; stroke-width: 0.8"/>
      </defs>
      <g>
       <use xlink:href="#mb9c274c57d" x="102.92358" y="323.193313" style="fill: #808080; stroke: #808080; stroke-width: 0.8"/>
      </g>
     </g>
     <g id="text_1">
      <text style="fill: #808080; font: 22px 'PingFang SC', 'Heiti SC', 'STHeiti', 'Calibri', 'Arial', 'Helvetica Neue', 'Arial Unicode MS', 'Noto Sans CJK SC', 'DejaVu Sans', sans-serif; text-anchor: middle" x="102.92358" y="347.703938" transform="rotate(-0 102.92358 347.703938)">16</text>
     </g>
    </g>
    <g id="xtick_2">
     <g id="line2d_2">
      <g>
       <use xlink:href="#mb9c274c57d" x="171.767735" y="323.193313" style="fill: #808080; stroke: #808080; stroke-width: 0.8"/>
      </g>
     </g>
     <g id="text_2">
      <text style="fill: #808080; font: 22px 'PingFang SC', 'Heiti SC', 'STHeiti', 'Calibri', 'Arial', 'Helvetica Neue', 'Arial Unicode MS', 'Noto Sans CJK SC', 'DejaVu Sans', sans-serif; text-anchor: middle" x="171.767735" y="347.703938" transform="rotate(-0 171.767735 347.703938)">32</text>
     </g>
    </g>
    <g id="xtick_3">
     <g id="line2d_3">
      <g>
       <use xlink:href="#mb9c274c57d" x="309.456047" y="323.193313" style="fill: #808080; stroke: #808080; stroke-width: 0.8"/>
      </g>
     </g>
     <g id="text_3">
      <text style="fill: #808080; font: 22px 'PingFang SC', 'Heiti SC', 'STHeiti', 'Calibri', 'Arial', 'Helvetica Neue', 'Arial Unicode MS', 'Noto Sans CJK SC', 'DejaVu Sans', sans-serif; text-anchor: middle" x="309.456047" y="347.703938" transform="rotate(-0 309.456047 347.703938)">64</text>
     </g>
    </g>
    <g id="xtick_4">
     <g id="line2d_4">
      <g>
       <use xlink:href="#mb9c274c57d" x="584.83267" y="323.193313" style="fill: #808080; stroke: #808080; stroke-width: 0.8"/>
      </g>
     </g>
     <g id="text_4">
      <text style="fill: #808080; font: 22px 'PingFang SC', 'Heiti SC', 'STHeiti', 'Calibri', 'Arial', 'Helvetica Neue', 'Arial Unicode MS', 'Noto Sans CJK SC', 'DejaVu Sans', sans-serif; text-anchor: middle" x="584.83267" y="347.703938" transform="rotate(-0 584.83267 347.703938)">128</text>
     </g>
    </g>
    <g id="text_5">
     <text style="font: 22px 'PingFang SC', 'Heiti SC', 'STHeiti', 'Calibri', 'Arial', 'Helvetica Neue', 'Arial Unicode MS', 'Noto Sans CJK SC', 'DejaVu Sans', sans-serif; text-anchor: middle" x="343.878125" y="372.782688" transform="rotate(-0 343.878125 372.782688)">卡数 (NPU)</text>
    </g>
   </g>
   <g id="matplotlib.axis_2">
    <g id="ytick_1">
     <g id="line2d_5">
      <path d="M 78.828125 253.88094 
L 608.928125 253.88094 
" clip-path="url(#p69655bb32e)" style="fill: none; stroke-dasharray: 1,1.65; stroke-dashoffset: 0; stroke: #808080; stroke-opacity: 0.55"/>
     </g>
     <g id="line2d_6">
      <defs>
       <path id="m17b9ecb714" d="M 0 0 
L -3.5 0 
" style="stroke: #808080; stroke-width: 0.8"/>
      </defs>
      <g>
       <use xlink:href="#m17b9ecb714" x="78.828125" y="253.88094" style="fill: #808080; stroke: #808080; stroke-width: 0.8"/>
      </g>
     </g>
     <g id="text_6">
      <text style="fill: #808080; font: 22px 'PingFang SC', 'Heiti SC', 'STHeiti', 'Calibri', 'Arial', 'Helvetica Neue', 'Arial Unicode MS', 'Noto Sans CJK SC', 'DejaVu Sans', sans-serif; text-anchor: end" x="71.828125" y="262.636253" transform="rotate(-0 71.828125 262.636253)">80</text>
     </g>
    </g>
    <g id="ytick_2">
     <g id="line2d_7">
      <path d="M 78.828125 163.586367 
L 608.928125 163.586367 
" clip-path="url(#p69655bb32e)" style="fill: none; stroke-dasharray: 1,1.65; stroke-dashoffset: 0; stroke: #808080; stroke-opacity: 0.55"/>
     </g>
     <g id="line2d_8">
      <g>
       <use xlink:href="#m17b9ecb714" x="78.828125" y="163.586367" style="fill: #808080; stroke: #808080; stroke-width: 0.8"/>
      </g>
     </g>
     <g id="text_7">
      <text style="fill: #808080; font: 22px 'PingFang SC', 'Heiti SC', 'STHeiti', 'Calibri', 'Arial', 'Helvetica Neue', 'Arial Unicode MS', 'Noto Sans CJK SC', 'DejaVu Sans', sans-serif; text-anchor: end" x="71.828125" y="172.341679" transform="rotate(-0 71.828125 172.341679)">100</text>
     </g>
    </g>
    <g id="ytick_3">
     <g id="line2d_9">
      <path d="M 78.828125 73.291793 
L 608.928125 73.291793 
" clip-path="url(#p69655bb32e)" style="fill: none; stroke-dasharray: 1,1.65; stroke-dashoffset: 0; stroke: #808080; stroke-opacity: 0.55"/>
     </g>
     <g id="line2d_10">
      <g>
       <use xlink:href="#m17b9ecb714" x="78.828125" y="73.291793" style="fill: #808080; stroke: #808080; stroke-width: 0.8"/>
      </g>
     </g>
     <g id="text_8">
      <text style="fill: #808080; font: 22px 'PingFang SC', 'Heiti SC', 'STHeiti', 'Calibri', 'Arial', 'Helvetica Neue', 'Arial Unicode MS', 'Noto Sans CJK SC', 'DejaVu Sans', sans-serif; text-anchor: end" x="71.828125" y="82.047106" transform="rotate(-0 71.828125 82.047106)">120</text>
     </g>
    </g>
    <g id="text_9">
     <text style="font: 22px 'PingFang SC', 'Heiti SC', 'STHeiti', 'Calibri', 'Arial', 'Helvetica Neue', 'Arial Unicode MS', 'Noto Sans CJK SC', 'DejaVu Sans', sans-serif; text-anchor: middle" x="28.310625" y="179.049313" transform="rotate(-90 28.310625 179.049313)">稳态 TFLOP/s/GPU</text>
    </g>
   </g>
   <g id="line2d_11">
    <path d="M 102.92358 48.460785 
L 171.767735 48.009313 
L 309.456047 131.75753 
L 584.83267 125.662646 
" clip-path="url(#p69655bb32e)" style="fill: none; stroke: #ff7f0e; stroke-width: 2.2; stroke-linecap: square"/>
    <defs>
     <path id="md5448e96d3" d="M 0 4 
C 1.060812 4 2.078319 3.578535 2.828427 2.828427 
C 3.578535 2.078319 4 1.060812 4 0 
C 4 -1.060812 3.578535 -2.078319 2.828427 -2.828427 
C 2.078319 -3.578535 1.060812 -4 0 -4 
C -1.060812 -4 -2.078319 -3.578535 -2.828427 -2.828427 
C -3.578535 -2.078319 -4 -1.060812 -4 0 
C -4 1.060812 -3.578535 2.078319 -2.828427 2.828427 
C -2.078319 3.578535 -1.060812 4 0 4 
z
" style="stroke: #ff7f0e"/>
    </defs>
    <g clip-path="url(#p69655bb32e)">
     <use xlink:href="#md5448e96d3" x="102.92358" y="48.460785" style="fill: #ff7f0e; stroke: #ff7f0e"/>
     <use xlink:href="#md5448e96d3" x="171.767735" y="48.009313" style="fill: #ff7f0e; stroke: #ff7f0e"/>
     <use xlink:href="#md5448e96d3" x="309.456047" y="131.75753" style="fill: #ff7f0e; stroke: #ff7f0e"/>
     <use xlink:href="#md5448e96d3" x="584.83267" y="125.662646" style="fill: #ff7f0e; stroke: #ff7f0e"/>
    </g>
   </g>
   <g id="line2d_12">
    <path d="M 102.92358 144.173033 
L 171.767735 141.915669 
L 309.456047 162.006212 
L 584.83267 186.837219 
" clip-path="url(#p69655bb32e)" style="fill: none; stroke: #2ca02c; stroke-width: 2.2; stroke-linecap: square"/>
    <defs>
     <path id="ma9541e187c" d="M 0 4 
C 1.060812 4 2.078319 3.578535 2.828427 2.828427 
C 3.578535 2.078319 4 1.060812 4 0 
C 4 -1.060812 3.578535 -2.078319 2.828427 -2.828427 
C 2.078319 -3.578535 1.060812 -4 0 -4 
C -1.060812 -4 -2.078319 -3.578535 -2.828427 -2.828427 
C -3.578535 -2.078319 -4 -1.060812 -4 0 
C -4 1.060812 -3.578535 2.078319 -2.828427 2.828427 
C -2.078319 3.578535 -1.060812 4 0 4 
z
" style="stroke: #2ca02c"/>
    </defs>
    <g clip-path="url(#p69655bb32e)">
     <use xlink:href="#ma9541e187c" x="102.92358" y="144.173033" style="fill: #2ca02c; stroke: #2ca02c"/>
     <use xlink:href="#ma9541e187c" x="171.767735" y="141.915669" style="fill: #2ca02c; stroke: #2ca02c"/>
     <use xlink:href="#ma9541e187c" x="309.456047" y="162.006212" style="fill: #2ca02c; stroke: #2ca02c"/>
     <use xlink:href="#ma9541e187c" x="584.83267" y="186.837219" style="fill: #2ca02c; stroke: #2ca02c"/>
    </g>
   </g>
   <g id="line2d_13">
    <path d="M 102.92358 169.004041 
L 171.767735 166.972413 
L 309.456047 226.792568 
L 584.83267 271.262646 
" clip-path="url(#p69655bb32e)" style="fill: none; stroke: #d62728; stroke-width: 2.2; stroke-linecap: square"/>
    <defs>
     <path id="mc505ab7259" d="M 0 4 
C 1.060812 4 2.078319 3.578535 2.828427 2.828427 
C 3.578535 2.078319 4 1.060812 4 0 
C 4 -1.060812 3.578535 -2.078319 2.828427 -2.828427 
C 2.078319 -3.578535 1.060812 -4 0 -4 
C -1.060812 -4 -2.078319 -3.578535 -2.828427 -2.828427 
C -3.578535 -2.078319 -4 -1.060812 -4 0 
C -4 1.060812 -3.578535 2.078319 -2.828427 2.828427 
C -2.078319 3.578535 -1.060812 4 0 4 
z
" style="stroke: #d62728"/>
    </defs>
    <g clip-path="url(#p69655bb32e)">
     <use xlink:href="#mc505ab7259" x="102.92358" y="169.004041" style="fill: #d62728; stroke: #d62728"/>
     <use xlink:href="#mc505ab7259" x="171.767735" y="166.972413" style="fill: #d62728; stroke: #d62728"/>
     <use xlink:href="#mc505ab7259" x="309.456047" y="226.792568" style="fill: #d62728; stroke: #d62728"/>
     <use xlink:href="#mc505ab7259" x="584.83267" y="271.262646" style="fill: #d62728; stroke: #d62728"/>
    </g>
   </g>
   <g id="line2d_14">
    <path d="M 102.92358 194.286522 
L 171.767735 201.058615 
L 309.456047 247.786057 
L 584.83267 282.775204 
" clip-path="url(#p69655bb32e)" style="fill: none; stroke: #9467bd; stroke-width: 2.2; stroke-linecap: square"/>
    <defs>
     <path id="mfdd3407c97" d="M 0 4 
C 1.060812 4 2.078319 3.578535 2.828427 2.828427 
C 3.578535 2.078319 4 1.060812 4 0 
C 4 -1.060812 3.578535 -2.078319 2.828427 -2.828427 
C 2.078319 -3.578535 1.060812 -4 0 -4 
C -1.060812 -4 -2.078319 -3.578535 -2.828427 -2.828427 
C -3.578535 -2.078319 -4 -1.060812 -4 0 
C -4 1.060812 -3.578535 2.078319 -2.828427 2.828427 
C -2.078319 3.578535 -1.060812 4 0 4 
z
" style="stroke: #9467bd"/>
    </defs>
    <g clip-path="url(#p69655bb32e)">
     <use xlink:href="#mfdd3407c97" x="102.92358" y="194.286522" style="fill: #9467bd; stroke: #9467bd"/>
     <use xlink:href="#mfdd3407c97" x="171.767735" y="201.058615" style="fill: #9467bd; stroke: #9467bd"/>
     <use xlink:href="#mfdd3407c97" x="309.456047" y="247.786057" style="fill: #9467bd; stroke: #9467bd"/>
     <use xlink:href="#mfdd3407c97" x="584.83267" y="282.775204" style="fill: #9467bd; stroke: #9467bd"/>
    </g>
   </g>
   <g id="line2d_15">
    <path d="M 171.767735 255.009623 
L 309.456047 310.089313 
L 584.83267 308.057685 
" clip-path="url(#p69655bb32e)" style="fill: none; stroke: #8c564b; stroke-width: 2.2; stroke-linecap: square"/>
    <defs>
     <path id="m314b2dc8f9" d="M 0 4 
C 1.060812 4 2.078319 3.578535 2.828427 2.828427 
C 3.578535 2.078319 4 1.060812 4 0 
C 4 -1.060812 3.578535 -2.078319 2.828427 -2.828427 
C 2.078319 -3.578535 1.060812 -4 0 -4 
C -1.060812 -4 -2.078319 -3.578535 -2.828427 -2.828427 
C -3.578535 -2.078319 -4 -1.060812 -4 0 
C -4 1.060812 -3.578535 2.078319 -2.828427 2.828427 
C -2.078319 3.578535 -1.060812 4 0 4 
z
" style="stroke: #8c564b"/>
    </defs>
    <g clip-path="url(#p69655bb32e)">
     <use xlink:href="#m314b2dc8f9" x="171.767735" y="255.009623" style="fill: #8c564b; stroke: #8c564b"/>
     <use xlink:href="#m314b2dc8f9" x="309.456047" y="310.089313" style="fill: #8c564b; stroke: #8c564b"/>
     <use xlink:href="#m314b2dc8f9" x="584.83267" y="308.057685" style="fill: #8c564b; stroke: #8c564b"/>
    </g>
   </g>
   <g id="patch_3">
    <path d="M 78.828125 323.193313 
L 78.828125 34.905313 
" style="fill: none; stroke: #808080; stroke-width: 0.8; stroke-linejoin: miter; stroke-linecap: square"/>
   </g>
   <g id="patch_4">
    <path d="M 78.828125 323.193313 
L 608.928125 323.193313 
" style="fill: none; stroke: #808080; stroke-width: 0.8; stroke-linejoin: miter; stroke-linecap: square"/>
   </g>
   <g id="text_10">
    <text style="font: 22px 'PingFang SC', 'Heiti SC', 'STHeiti', 'Calibri', 'Arial', 'Helvetica Neue', 'Arial Unicode MS', 'Noto Sans CJK SC', 'DejaVu Sans', sans-serif; text-anchor: middle" x="343.878125" y="28.905313" transform="rotate(-0 343.878125 28.905313)">吞吐（peak=292.79 TFLOPS/卡）</text>
   </g>
   <g id="legend_1">
    <g id="patch_5">
     <path d="M 207.795313 126.525313 
L 479.960938 126.525313 
Q 483.560938 126.525313 483.560938 122.925313 
L 483.560938 47.505313 
Q 483.560938 43.905313 479.960938 43.905313 
L 207.795313 43.905313 
Q 204.195313 43.905313 204.195313 47.505313 
L 204.195313 122.925313 
Q 204.195313 126.525313 207.795313 126.525313 
z
" style="fill: #ffffff; opacity: 0.5; stroke: #cccccc; stroke-linejoin: miter"/>
    </g>
    <g id="line2d_16">
     <path d="M 211.395313 59.132188 
L 229.395313 59.132188 
L 247.395313 59.132188 
" style="fill: none; stroke: #ff7f0e; stroke-width: 2.2; stroke-linecap: square"/>
     <g>
      <use xlink:href="#md5448e96d3" x="229.395313" y="59.132188" style="fill: #ff7f0e; stroke: #ff7f0e"/>
     </g>
    </g>
    <g id="text_11">
     <text style="font: 18px 'PingFang SC', 'Heiti SC', 'STHeiti', 'Calibri', 'Arial', 'Helvetica Neue', 'Arial Unicode MS', 'Noto Sans CJK SC', 'DejaVu Sans', sans-serif; text-anchor: start" x="261.795313" y="65.432188" transform="rotate(-0 261.795313 65.432188)">TP4 PP2</text>
    </g>
    <g id="line2d_17">
     <path d="M 211.395313 84.872188 
L 229.395313 84.872188 
L 247.395313 84.872188 
" style="fill: none; stroke: #2ca02c; stroke-width: 2.2; stroke-linecap: square"/>
     <g>
      <use xlink:href="#ma9541e187c" x="229.395313" y="84.872188" style="fill: #2ca02c; stroke: #2ca02c"/>
     </g>
    </g>
    <g id="text_12">
     <text style="font: 18px 'PingFang SC', 'Heiti SC', 'STHeiti', 'Calibri', 'Arial', 'Helvetica Neue', 'Arial Unicode MS', 'Noto Sans CJK SC', 'DejaVu Sans', sans-serif; text-anchor: start" x="261.795313" y="91.172188" transform="rotate(-0 261.795313 91.172188)">TP4 PP4</text>
    </g>
    <g id="line2d_18">
     <path d="M 211.395313 110.612188 
L 229.395313 110.612188 
L 247.395313 110.612188 
" style="fill: none; stroke: #d62728; stroke-width: 2.2; stroke-linecap: square"/>
     <g>
      <use xlink:href="#mc505ab7259" x="229.395313" y="110.612188" style="fill: #d62728; stroke: #d62728"/>
     </g>
    </g>
    <g id="text_13">
     <text style="font: 18px 'PingFang SC', 'Heiti SC', 'STHeiti', 'Calibri', 'Arial', 'Helvetica Neue', 'Arial Unicode MS', 'Noto Sans CJK SC', 'DejaVu Sans', sans-serif; text-anchor: start" x="261.795313" y="116.912188" transform="rotate(-0 261.795313 116.912188)">TP8 PP1</text>
    </g>
    <g id="line2d_19">
     <path d="M 361.878125 59.132188 
L 379.878125 59.132188 
L 397.878125 59.132188 
" style="fill: none; stroke: #9467bd; stroke-width: 2.2; stroke-linecap: square"/>
     <g>
      <use xlink:href="#mfdd3407c97" x="379.878125" y="59.132188" style="fill: #9467bd; stroke: #9467bd"/>
     </g>
    </g>
    <g id="text_14">
     <text style="font: 18px 'PingFang SC', 'Heiti SC', 'STHeiti', 'Calibri', 'Arial', 'Helvetica Neue', 'Arial Unicode MS', 'Noto Sans CJK SC', 'DejaVu Sans', sans-serif; text-anchor: start" x="412.278125" y="65.432188" transform="rotate(-0 412.278125 65.432188)">TP8 PP2</text>
    </g>
    <g id="line2d_20">
     <path d="M 361.878125 84.872188 
L 379.878125 84.872188 
L 397.878125 84.872188 
" style="fill: none; stroke: #8c564b; stroke-width: 2.2; stroke-linecap: square"/>
     <g>
      <use xlink:href="#m314b2dc8f9" x="379.878125" y="84.872188" style="fill: #8c564b; stroke: #8c564b"/>
     </g>
    </g>
    <g id="text_15">
     <text style="font: 18px 'PingFang SC', 'Heiti SC', 'STHeiti', 'Calibri', 'Arial', 'Helvetica Neue', 'Arial Unicode MS', 'Noto Sans CJK SC', 'DejaVu Sans', sans-serif; text-anchor: start" x="412.278125" y="91.172188" transform="rotate(-0 412.278125 91.172188)">TP8 PP4</text>
    </g>
   </g>
  </g>
 </g>
 <defs>
  <clipPath id="p69655bb32e">
   <rect x="78.828125" y="34.905313" width="530.1" height="288.288"/>
  </clipPath>
 </defs>
</svg>
