<?xml version="1.0" encoding="utf-8" standalone="no"?>
<!DOCTYPE svg PUBLIC "-//W3C//DTD SVG 1.1//EN"
  "http://www.w3.org/Graphics/SVG/1.1/DTD/svg11.dtd">
<svg xmlns:xlink="http://www.w3.org/1999/xlink" width="719.784375pt" height="306.880799pt" viewBox="0 0 719.784375 306.880799" xmlns="http://www.w3.org/2000/svg" version="1.1">
 <metadata>
  <rdf:RDF xmlns:dc="http://purl.org/dc/elements/1.1/" xmlns:cc="http://creativecommons.org/ns#" xmlns:rdf="http://www.w3.org/1999/02/22-rdf-syntax-ns#">
   <cc:Work>
    <dc:type rdf:resource="http://purl.org/dc/dcmitype/StillImage"/>
    <dc:date>2026-07-11T16:59:40.166234</dc:date>
    <dc:format>image/svg+xml</dc:format>
    <dc:creator>
     <cc:Agent>
      <dc:title>Matplotlib v3.9.4, https://matplotlib.org/</dc:title>
     </cc:Agent>
    </dc:creator>
   </cc:Work>
  </rdf:RDF>
 </metadata>
 <defs>
  <style type="text/css">*{stroke-linejoin: round; stroke-linecap: butt}</style>
 </defs>
 <g id="figure_1">
  <g id="patch_1">
   <path d="M 0 306.880799 
L 719.784375 306.880799 
L 719.784375 0 
L 0 0 
z
" style="fill: #ffffff"/>
  </g>
  <g id="axes_1">
   <g id="patch_2">
    <path d="M 79.776875 172.60705 
L 708.984375 172.60705 
L 708.984375 35.259375 
L 79.776875 35.259375 
z
" style="fill: #ffffff"/>
   </g>
   <g id="matplotlib.axis_1">
    <g id="xtick_1">
     <g id="line2d_1">
      <defs>
       <path id="m335875916b" d="M 0 0 
L 0 3.5 
" style="stroke: #808080; stroke-width: 0.8"/>
      </defs>
      <g>
       <use xlink:href="#m335875916b" x="110.278686" y="172.60705" style="fill: #808080; stroke: #808080; stroke-width: 0.8"/>
      </g>
     </g>
     <g id="text_1">
      <text style="fill: #808080; font: 7px 'PingFang SC', 'Heiti SC', 'STHeiti', 'Calibri', 'Arial', 'Helvetica Neue', 'Arial Unicode MS', 'Noto Sans CJK SC', 'DejaVu Sans', sans-serif" transform="translate(46.245037 291.894707) rotate(-60)">whj4stu-copy-copy-copy-worker-6:d7</text>
     </g>
    </g>
    <g id="xtick_2">
     <g id="line2d_2">
      <g>
       <use xlink:href="#m335875916b" x="146.071056" y="172.60705" style="fill: #808080; stroke: #808080; stroke-width: 0.8"/>
      </g>
     </g>
     <g id="text_2">
      <text style="fill: #808080; font: 7px 'PingFang SC', 'Heiti SC', 'STHeiti', 'Calibri', 'Arial', 'Helvetica Neue', 'Arial Unicode MS', 'Noto Sans CJK SC', 'DejaVu Sans', sans-serif" transform="translate(82.037408 291.894707) rotate(-60)">whj4stu-copy-copy-copy-worker-4:d0</text>
     </g>
    </g>
    <g id="xtick_3">
     <g id="line2d_3">
      <g>
       <use xlink:href="#m335875916b" x="181.863426" y="172.60705" style="fill: #808080; stroke: #808080; stroke-width: 0.8"/>
      </g>
     </g>
     <g id="text_3">
      <text style="fill: #808080; font: 7px 'PingFang SC', 'Heiti SC', 'STHeiti', 'Calibri', 'Arial', 'Helvetica Neue', 'Arial Unicode MS', 'Noto Sans CJK SC', 'DejaVu Sans', sans-serif" transform="translate(115.683841 295.61158) rotate(-60)">whj4stu-copy-copy-copy-master-0:d15</text>
     </g>
    </g>
    <g id="xtick_4">
     <g id="line2d_4">
      <g>
       <use xlink:href="#m335875916b" x="217.655797" y="172.60705" style="fill: #808080; stroke: #808080; stroke-width: 0.8"/>
      </g>
     </g>
     <g id="text_4">
      <text style="fill: #808080; font: 7px 'PingFang SC', 'Heiti SC', 'STHeiti', 'Calibri', 'Arial', 'Helvetica Neue', 'Arial Unicode MS', 'Noto Sans CJK SC', 'DejaVu Sans', sans-serif" transform="translate(153.622148 291.894707) rotate(-60)">whj4stu-copy-copy-copy-worker-3:d1</text>
     </g>
    </g>
    <g id="xtick_5">
     <g id="line2d_5">
      <g>
       <use xlink:href="#m335875916b" x="253.448167" y="172.60705" style="fill: #808080; stroke: #808080; stroke-width: 0.8"/>
      </g>
     </g>
     <g id="text_5">
      <text style="fill: #808080; font: 7px 'PingFang SC', 'Heiti SC', 'STHeiti', 'Calibri', 'Arial', 'Helvetica Neue', 'Arial Unicode MS', 'Noto Sans CJK SC', 'DejaVu Sans', sans-serif" transform="translate(189.414519 291.894707) rotate(-60)">whj4stu-copy-copy-copy-worker-0:d7</text>
     </g>
    </g>
    <g id="xtick_6">
     <g id="line2d_6">
      <g>
       <use xlink:href="#m335875916b" x="289.240537" y="172.60705" style="fill: #808080; stroke: #808080; stroke-width: 0.8"/>
      </g>
     </g>
     <g id="text_6">
      <text style="fill: #808080; font: 7px 'PingFang SC', 'Heiti SC', 'STHeiti', 'Calibri', 'Arial', 'Helvetica Neue', 'Arial Unicode MS', 'Noto Sans CJK SC', 'DejaVu Sans', sans-serif" transform="translate(223.26767 295.253533) rotate(-60)">whj4stu-copy-copy-copy-worker-1:d13</text>
     </g>
    </g>
    <g id="xtick_7">
     <g id="line2d_7">
      <g>
       <use xlink:href="#m335875916b" x="325.032908" y="172.60705" style="fill: #808080; stroke: #808080; stroke-width: 0.8"/>
      </g>
     </g>
     <g id="text_7">
      <text style="fill: #808080; font: 7px 'PingFang SC', 'Heiti SC', 'STHeiti', 'Calibri', 'Arial', 'Helvetica Neue', 'Arial Unicode MS', 'Noto Sans CJK SC', 'DejaVu Sans', sans-serif" transform="translate(259.060041 295.253533) rotate(-60)">whj4stu-copy-copy-copy-worker-2:d13</text>
     </g>
    </g>
    <g id="xtick_8">
     <g id="line2d_8">
      <g>
       <use xlink:href="#m335875916b" x="360.825278" y="172.60705" style="fill: #808080; stroke: #808080; stroke-width: 0.8"/>
      </g>
     </g>
     <g id="text_8">
      <text style="fill: #808080; font: 7px 'PingFang SC', 'Heiti SC', 'STHeiti', 'Calibri', 'Arial', 'Helvetica Neue', 'Arial Unicode MS', 'Noto Sans CJK SC', 'DejaVu Sans', sans-serif" transform="translate(294.852411 295.253533) rotate(-60)">whj4stu-copy-copy-copy-worker-6:d14</text>
     </g>
    </g>
    <g id="xtick_9">
     <g id="line2d_9">
      <g>
       <use xlink:href="#m335875916b" x="396.617648" y="172.60705" style="fill: #808080; stroke: #808080; stroke-width: 0.8"/>
      </g>
     </g>
     <g id="text_9">
      <text style="fill: #808080; font: 7px 'PingFang SC', 'Heiti SC', 'STHeiti', 'Calibri', 'Arial', 'Helvetica Neue', 'Arial Unicode MS', 'Noto Sans CJK SC', 'DejaVu Sans', sans-serif" transform="translate(330.644781 295.253533) rotate(-60)">whj4stu-copy-copy-copy-worker-5:d14</text>
     </g>
    </g>
    <g id="xtick_10">
     <g id="line2d_10">
      <g>
       <use xlink:href="#m335875916b" x="432.410018" y="172.60705" style="fill: #808080; stroke: #808080; stroke-width: 0.8"/>
      </g>
     </g>
     <g id="text_10">
      <text style="fill: #808080; font: 7px 'PingFang SC', 'Heiti SC', 'STHeiti', 'Calibri', 'Arial', 'Helvetica Neue', 'Arial Unicode MS', 'Noto Sans CJK SC', 'DejaVu Sans', sans-serif" transform="translate(368.169652 292.252755) rotate(-60)">whj4stu-copy-copy-copy-master-0:d5</text>
     </g>
    </g>
    <g id="xtick_11">
     <g id="line2d_11">
      <g>
       <use xlink:href="#m335875916b" x="468.202389" y="172.60705" style="fill: #808080; stroke: #808080; stroke-width: 0.8"/>
      </g>
     </g>
     <g id="text_11">
      <text style="fill: #808080; font: 7px 'PingFang SC', 'Heiti SC', 'STHeiti', 'Calibri', 'Arial', 'Helvetica Neue', 'Arial Unicode MS', 'Noto Sans CJK SC', 'DejaVu Sans', sans-serif" transform="translate(402.229522 295.253533) rotate(-60)">whj4stu-copy-copy-copy-worker-5:d13</text>
     </g>
    </g>
    <g id="xtick_12">
     <g id="line2d_12">
      <g>
       <use xlink:href="#m335875916b" x="503.994759" y="172.60705" style="fill: #808080; stroke: #808080; stroke-width: 0.8"/>
      </g>
     </g>
     <g id="text_12">
      <text style="fill: #808080; font: 7px 'PingFang SC', 'Heiti SC', 'STHeiti', 'Calibri', 'Arial', 'Helvetica Neue', 'Arial Unicode MS', 'Noto Sans CJK SC', 'DejaVu Sans', sans-serif" transform="translate(438.021892 295.253533) rotate(-60)">whj4stu-copy-copy-copy-worker-5:d10</text>
     </g>
    </g>
    <g id="xtick_13">
     <g id="line2d_13">
      <g>
       <use xlink:href="#m335875916b" x="539.787129" y="172.60705" style="fill: #808080; stroke: #808080; stroke-width: 0.8"/>
      </g>
     </g>
     <g id="text_13">
      <text style="fill: #808080; font: 7px 'PingFang SC', 'Heiti SC', 'STHeiti', 'Calibri', 'Arial', 'Helvetica Neue', 'Arial Unicode MS', 'Noto Sans CJK SC', 'DejaVu Sans', sans-serif" transform="translate(475.546762 292.252755) rotate(-60)">whj4stu-copy-copy-copy-master-0:d7</text>
     </g>
    </g>
    <g id="xtick_14">
     <g id="line2d_14">
      <g>
       <use xlink:href="#m335875916b" x="575.5795" y="172.60705" style="fill: #808080; stroke: #808080; stroke-width: 0.8"/>
      </g>
     </g>
     <g id="text_14">
      <text style="fill: #808080; font: 7px 'PingFang SC', 'Heiti SC', 'STHeiti', 'Calibri', 'Arial', 'Helvetica Neue', 'Arial Unicode MS', 'Noto Sans CJK SC', 'DejaVu Sans', sans-serif" transform="translate(511.545852 291.894707) rotate(-60)">whj4stu-copy-copy-copy-worker-5:d2</text>
     </g>
    </g>
    <g id="xtick_15">
     <g id="line2d_15">
      <g>
       <use xlink:href="#m335875916b" x="611.37187" y="172.60705" style="fill: #808080; stroke: #808080; stroke-width: 0.8"/>
      </g>
     </g>
     <g id="text_15">
      <text style="fill: #808080; font: 7px 'PingFang SC', 'Heiti SC', 'STHeiti', 'Calibri', 'Arial', 'Helvetica Neue', 'Arial Unicode MS', 'Noto Sans CJK SC', 'DejaVu Sans', sans-serif" transform="translate(547.338222 291.894707) rotate(-60)">whj4stu-copy-copy-copy-worker-5:d1</text>
     </g>
    </g>
    <g id="xtick_16">
     <g id="line2d_16">
      <g>
       <use xlink:href="#m335875916b" x="647.16424" y="172.60705" style="fill: #808080; stroke: #808080; stroke-width: 0.8"/>
      </g>
     </g>
     <g id="text_16">
      <text style="fill: #808080; font: 7px 'PingFang SC', 'Heiti SC', 'STHeiti', 'Calibri', 'Arial', 'Helvetica Neue', 'Arial Unicode MS', 'Noto Sans CJK SC', 'DejaVu Sans', sans-serif" transform="translate(583.130592 291.894707) rotate(-60)">whj4stu-copy-copy-copy-worker-1:d1</text>
     </g>
    </g>
   </g>
   <g id="matplotlib.axis_2">
    <g id="ytick_1">
     <g id="line2d_17">
      <path d="M 79.776875 172.60705 
L 708.984375 172.60705 
" clip-path="url(#p5354e6a138)" style="fill: none; stroke-dasharray: 1,1.65; stroke-dashoffset: 0; stroke: #808080; stroke-opacity: 0.55"/>
     </g>
     <g id="line2d_18">
      <defs>
       <path id="m6bbc3d51d3" d="M 0 0 
L -3.5 0 
" style="stroke: #808080; stroke-width: 0.8"/>
      </defs>
      <g>
       <use xlink:href="#m6bbc3d51d3" x="79.776875" y="172.60705" style="fill: #808080; stroke: #808080; stroke-width: 0.8"/>
      </g>
     </g>
     <g id="text_17">
      <text style="fill: #808080; font: 22px 'PingFang SC', 'Heiti SC', 'STHeiti', 'Calibri', 'Arial', 'Helvetica Neue', 'Arial Unicode MS', 'Noto Sans CJK SC', 'DejaVu Sans', sans-serif; text-anchor: end" x="72.776875" y="181.362363" transform="rotate(-0 72.776875 181.362363)">0</text>
     </g>
    </g>
    <g id="ytick_2">
     <g id="line2d_19">
      <path d="M 79.776875 100.334308 
L 708.984375 100.334308 
" clip-path="url(#p5354e6a138)" style="fill: none; stroke-dasharray: 1,1.65; stroke-dashoffset: 0; stroke: #808080; stroke-opacity: 0.55"/>
     </g>
     <g id="line2d_20">
      <g>
       <use xlink:href="#m6bbc3d51d3" x="79.776875" y="100.334308" style="fill: #808080; stroke: #808080; stroke-width: 0.8"/>
      </g>
     </g>
     <g id="text_18">
      <text style="fill: #808080; font: 22px 'PingFang SC', 'Heiti SC', 'STHeiti', 'Calibri', 'Arial', 'Helvetica Neue', 'Arial Unicode MS', 'Noto Sans CJK SC', 'DejaVu Sans', sans-serif; text-anchor: end" x="72.776875" y="109.08962" transform="rotate(-0 72.776875 109.08962)">500</text>
     </g>
    </g>
    <g id="text_19">
     <text style="font: 22px 'PingFang SC', 'Heiti SC', 'STHeiti', 'Calibri', 'Arial', 'Helvetica Neue', 'Arial Unicode MS', 'Noto Sans CJK SC', 'DejaVu Sans', sans-serif; text-anchor: middle" x="29.259375" y="103.933213" transform="rotate(-90 29.259375 103.933213)">Host overhead p99 (us)</text>
    </g>
   </g>
   <g id="patch_3">
    <path d="M 108.377216 172.60705 
L 112.180155 172.60705 
L 112.180155 91.856125 
L 108.377216 91.856125 
z
" clip-path="url(#p5354e6a138)" style="fill: url(#h79e0e97ba4); stroke: #2ca02c; stroke-width: 2; stroke-linejoin: miter"/>
   </g>
   <g id="patch_4">
    <path d="M 112.851262 172.60705 
L 116.654202 172.60705 
L 116.654202 89.559309 
L 112.851262 89.559309 
z
" clip-path="url(#p5354e6a138)" style="fill: url(#h79e0e97ba4); stroke: #2ca02c; stroke-width: 2; stroke-linejoin: miter"/>
   </g>
   <g id="patch_5">
    <path d="M 117.325308 172.60705 
L 121.128248 172.60705 
L 121.128248 89.536254 
L 117.325308 89.536254 
z
" clip-path="url(#p5354e6a138)" style="fill: url(#h79e0e97ba4); stroke: #2ca02c; stroke-width: 2; stroke-linejoin: miter"/>
   </g>
   <g id="patch_6">
    <path d="M 121.799355 172.60705 
L 125.602294 172.60705 
L 125.602294 89.070614 
L 121.799355 89.070614 
z
" clip-path="url(#p5354e6a138)" style="fill: url(#h79e0e97ba4); stroke: #2ca02c; stroke-width: 2; stroke-linejoin: miter"/>
   </g>
   <g id="patch_7">
    <path d="M 126.273401 172.60705 
L 130.07634 172.60705 
L 130.07634 88.31077 
L 126.273401 88.31077 
z
" clip-path="url(#p5354e6a138)" style="fill: url(#h79e0e97ba4); stroke: #2ca02c; stroke-width: 2; stroke-linejoin: miter"/>
   </g>
   <g id="patch_8">
    <path d="M 130.747447 172.60705 
L 134.550387 172.60705 
L 134.550387 88.030007 
L 130.747447 88.030007 
z
" clip-path="url(#p5354e6a138)" style="fill: url(#h79e0e97ba4); stroke: #2ca02c; stroke-width: 2; stroke-linejoin: miter"/>
   </g>
   <g id="patch_9">
    <path d="M 135.221494 172.60705 
L 139.024433 172.60705 
L 139.024433 87.543166 
L 135.221494 87.543166 
z
" clip-path="url(#p5354e6a138)" style="fill: url(#h79e0e97ba4); stroke: #2ca02c; stroke-width: 2; stroke-linejoin: miter"/>
   </g>
   <g id="patch_10">
    <path d="M 139.69554 172.60705 
L 143.498479 172.60705 
L 143.498479 87.393958 
L 139.69554 87.393958 
z
" clip-path="url(#p5354e6a138)" style="fill: url(#h79e0e97ba4); stroke: #2ca02c; stroke-width: 2; stroke-linejoin: miter"/>
   </g>
   <g id="patch_11">
    <path d="M 144.169586 172.60705 
L 147.972526 172.60705 
L 147.972526 87.177044 
L 144.169586 87.177044 
z
" clip-path="url(#p5354e6a138)" style="fill: url(#h79e0e97ba4); stroke: #2ca02c; stroke-width: 2; stroke-linejoin: miter"/>
   </g>
   <g id="patch_12">
    <path d="M 148.643633 172.60705 
L 152.446572 172.60705 
L 152.446572 87.102125 
L 148.643633 87.102125 
z
" clip-path="url(#p5354e6a138)" style="fill: url(#h79e0e97ba4); stroke: #2ca02c; stroke-width: 2; stroke-linejoin: miter"/>
   </g>
   <g id="patch_13">
    <path d="M 153.117679 172.60705 
L 156.920618 172.60705 
L 156.920618 86.754134 
L 153.117679 86.754134 
z
" clip-path="url(#p5354e6a138)" style="fill: url(#h79e0e97ba4); stroke: #2ca02c; stroke-width: 2; stroke-linejoin: miter"/>
   </g>
   <g id="patch_14">
    <path d="M 157.591725 172.60705 
L 161.394664 172.60705 
L 161.394664 86.704448 
L 157.591725 86.704448 
z
" clip-path="url(#p5354e6a138)" style="fill: url(#h79e0e97ba4); stroke: #2ca02c; stroke-width: 2; stroke-linejoin: miter"/>
   </g>
   <g id="patch_15">
    <path d="M 162.065771 172.60705 
L 165.868711 172.60705 
L 165.868711 86.577422 
L 162.065771 86.577422 
z
" clip-path="url(#p5354e6a138)" style="fill: url(#h79e0e97ba4); stroke: #2ca02c; stroke-width: 2; stroke-linejoin: miter"/>
   </g>
   <g id="patch_16">
    <path d="M 166.539818 172.60705 
L 170.342757 172.60705 
L 170.342757 86.560463 
L 166.539818 86.560463 
z
" clip-path="url(#p5354e6a138)" style="fill: url(#h79e0e97ba4); stroke: #2ca02c; stroke-width: 2; stroke-linejoin: miter"/>
   </g>
   <g id="patch_17">
    <path d="M 171.013864 172.60705 
L 174.816803 172.60705 
L 174.816803 86.380662 
L 171.013864 86.380662 
z
" clip-path="url(#p5354e6a138)" style="fill: url(#h79e0e97ba4); stroke: #2ca02c; stroke-width: 2; stroke-linejoin: miter"/>
   </g>
   <g id="patch_18">
    <path d="M 175.48791 172.60705 
L 179.29085 172.60705 
L 179.29085 86.02077 
L 175.48791 86.02077 
z
" clip-path="url(#p5354e6a138)" style="fill: url(#h79e0e97ba4); stroke: #2ca02c; stroke-width: 2; stroke-linejoin: miter"/>
   </g>
   <g id="patch_19">
    <path d="M 179.961957 172.60705 
L 183.764896 172.60705 
L 183.764896 85.884961 
L 179.961957 85.884961 
z
" clip-path="url(#p5354e6a138)" style="fill: url(#h79e0e97ba4); stroke: #2ca02c; stroke-width: 2; stroke-linejoin: miter"/>
   </g>
   <g id="patch_20">
    <path d="M 184.436003 172.60705 
L 188.238942 172.60705 
L 188.238942 85.882074 
L 184.436003 85.882074 
z
" clip-path="url(#p5354e6a138)" style="fill: url(#h79e0e97ba4); stroke: #2ca02c; stroke-width: 2; stroke-linejoin: miter"/>
   </g>
   <g id="patch_21">
    <path d="M 188.910049 172.60705 
L 192.712988 172.60705 
L 192.712988 85.797036 
L 188.910049 85.797036 
z
" clip-path="url(#p5354e6a138)" style="fill: url(#h79e0e97ba4); stroke: #2ca02c; stroke-width: 2; stroke-linejoin: miter"/>
   </g>
   <g id="patch_22">
    <path d="M 193.384095 172.60705 
L 197.187035 172.60705 
L 197.187035 85.513715 
L 193.384095 85.513715 
z
" clip-path="url(#p5354e6a138)" style="fill: url(#h79e0e97ba4); stroke: #2ca02c; stroke-width: 2; stroke-linejoin: miter"/>
   </g>
   <g id="patch_23">
    <path d="M 197.858142 172.60705 
L 201.661081 172.60705 
L 201.661081 85.475799 
L 197.858142 85.475799 
z
" clip-path="url(#p5354e6a138)" style="fill: url(#h79e0e97ba4); stroke: #2ca02c; stroke-width: 2; stroke-linejoin: miter"/>
   </g>
   <g id="patch_24">
    <path d="M 202.332188 172.60705 
L 206.135127 172.60705 
L 206.135127 85.340285 
L 202.332188 85.340285 
z
" clip-path="url(#p5354e6a138)" style="fill: url(#h79e0e97ba4); stroke: #2ca02c; stroke-width: 2; stroke-linejoin: miter"/>
   </g>
   <g id="patch_25">
    <path d="M 206.806234 172.60705 
L 210.609174 172.60705 
L 210.609174 85.28518 
L 206.806234 85.28518 
z
" clip-path="url(#p5354e6a138)" style="fill: url(#h79e0e97ba4); stroke: #2ca02c; stroke-width: 2; stroke-linejoin: miter"/>
   </g>
   <g id="patch_26">
    <path d="M 211.280281 172.60705 
L 215.08322 172.60705 
L 215.08322 84.970004 
L 211.280281 84.970004 
z
" clip-path="url(#p5354e6a138)" style="fill: url(#h79e0e97ba4); stroke: #2ca02c; stroke-width: 2; stroke-linejoin: miter"/>
   </g>
   <g id="patch_27">
    <path d="M 215.754327 172.60705 
L 219.557266 172.60705 
L 219.557266 84.935323 
L 215.754327 84.935323 
z
" clip-path="url(#p5354e6a138)" style="fill: url(#h79e0e97ba4); stroke: #2ca02c; stroke-width: 2; stroke-linejoin: miter"/>
   </g>
   <g id="patch_28">
    <path d="M 220.228373 172.60705 
L 224.031313 172.60705 
L 224.031313 84.91635 
L 220.228373 84.91635 
z
" clip-path="url(#p5354e6a138)" style="fill: url(#h79e0e97ba4); stroke: #2ca02c; stroke-width: 2; stroke-linejoin: miter"/>
   </g>
   <g id="patch_29">
    <path d="M 224.702419 172.60705 
L 228.505359 172.60705 
L 228.505359 84.883085 
L 224.702419 84.883085 
z
" clip-path="url(#p5354e6a138)" style="fill: url(#h79e0e97ba4); stroke: #2ca02c; stroke-width: 2; stroke-linejoin: miter"/>
   </g>
   <g id="patch_30">
    <path d="M 229.176466 172.60705 
L 232.979405 172.60705 
L 232.979405 84.848353 
L 229.176466 84.848353 
z
" clip-path="url(#p5354e6a138)" style="fill: url(#h79e0e97ba4); stroke: #2ca02c; stroke-width: 2; stroke-linejoin: miter"/>
   </g>
   <g id="patch_31">
    <path d="M 233.650512 172.60705 
L 237.453451 172.60705 
L 237.453451 84.835448 
L 233.650512 84.835448 
z
" clip-path="url(#p5354e6a138)" style="fill: url(#h79e0e97ba4); stroke: #2ca02c; stroke-width: 2; stroke-linejoin: miter"/>
   </g>
   <g id="patch_32">
    <path d="M 238.124558 172.60705 
L 241.927498 172.60705 
L 241.927498 84.826928 
L 238.124558 84.826928 
z
" clip-path="url(#p5354e6a138)" style="fill: url(#h79e0e97ba4); stroke: #2ca02c; stroke-width: 2; stroke-linejoin: miter"/>
   </g>
   <g id="patch_33">
    <path d="M 242.598605 172.60705 
L 246.401544 172.60705 
L 246.401544 84.767461 
L 242.598605 84.767461 
z
" clip-path="url(#p5354e6a138)" style="fill: url(#h79e0e97ba4); stroke: #2ca02c; stroke-width: 2; stroke-linejoin: miter"/>
   </g>
   <g id="patch_34">
    <path d="M 247.072651 172.60705 
L 250.87559 172.60705 
L 250.87559 84.53057 
L 247.072651 84.53057 
z
" clip-path="url(#p5354e6a138)" style="fill: url(#h79e0e97ba4); stroke: #2ca02c; stroke-width: 2; stroke-linejoin: miter"/>
   </g>
   <g id="patch_35">
    <path d="M 251.546697 172.60705 
L 255.349637 172.60705 
L 255.349637 84.47445 
L 251.546697 84.47445 
z
" clip-path="url(#p5354e6a138)" style="fill: url(#h79e0e97ba4); stroke: #2ca02c; stroke-width: 2; stroke-linejoin: miter"/>
   </g>
   <g id="patch_36">
    <path d="M 256.020743 172.60705 
L 259.823683 172.60705 
L 259.823683 84.299089 
L 256.020743 84.299089 
z
" clip-path="url(#p5354e6a138)" style="fill: url(#h79e0e97ba4); stroke: #2ca02c; stroke-width: 2; stroke-linejoin: miter"/>
   </g>
   <g id="patch_37">
    <path d="M 260.49479 172.60705 
L 264.297729 172.60705 
L 264.297729 84.176855 
L 260.49479 84.176855 
z
" clip-path="url(#p5354e6a138)" style="fill: url(#h79e0e97ba4); stroke: #2ca02c; stroke-width: 2; stroke-linejoin: miter"/>
   </g>
   <g id="patch_38">
    <path d="M 264.968836 172.60705 
L 268.771775 172.60705 
L 268.771775 84.10995 
L 264.968836 84.10995 
z
" clip-path="url(#p5354e6a138)" style="fill: url(#h79e0e97ba4); stroke: #2ca02c; stroke-width: 2; stroke-linejoin: miter"/>
   </g>
   <g id="patch_39">
    <path d="M 269.442882 172.60705 
L 273.245822 172.60705 
L 273.245822 84.022851 
L 269.442882 84.022851 
z
" clip-path="url(#p5354e6a138)" style="fill: url(#h79e0e97ba4); stroke: #2ca02c; stroke-width: 2; stroke-linejoin: miter"/>
   </g>
   <g id="patch_40">
    <path d="M 273.916929 172.60705 
L 277.719868 172.60705 
L 277.719868 84.006185 
L 273.916929 84.006185 
z
" clip-path="url(#p5354e6a138)" style="fill: url(#h79e0e97ba4); stroke: #2ca02c; stroke-width: 2; stroke-linejoin: miter"/>
   </g>
   <g id="patch_41">
    <path d="M 278.390975 172.60705 
L 282.193914 172.60705 
L 282.193914 83.855995 
L 278.390975 83.855995 
z
" clip-path="url(#p5354e6a138)" style="fill: url(#h79e0e97ba4); stroke: #2ca02c; stroke-width: 2; stroke-linejoin: miter"/>
   </g>
   <g id="patch_42">
    <path d="M 282.865021 172.60705 
L 286.667961 172.60705 
L 286.667961 83.744037 
L 282.865021 83.744037 
z
" clip-path="url(#p5354e6a138)" style="fill: url(#h79e0e97ba4); stroke: #2ca02c; stroke-width: 2; stroke-linejoin: miter"/>
   </g>
   <g id="patch_43">
    <path d="M 287.339068 172.60705 
L 291.142007 172.60705 
L 291.142007 83.673532 
L 287.339068 83.673532 
z
" clip-path="url(#p5354e6a138)" style="fill: url(#h79e0e97ba4); stroke: #2ca02c; stroke-width: 2; stroke-linejoin: miter"/>
   </g>
   <g id="patch_44">
    <path d="M 291.813114 172.60705 
L 295.616053 172.60705 
L 295.616053 83.621531 
L 291.813114 83.621531 
z
" clip-path="url(#p5354e6a138)" style="fill: url(#h79e0e97ba4); stroke: #2ca02c; stroke-width: 2; stroke-linejoin: miter"/>
   </g>
   <g id="patch_45">
    <path d="M 296.28716 172.60705 
L 300.090099 172.60705 
L 300.090099 83.576413 
L 296.28716 83.576413 
z
" clip-path="url(#p5354e6a138)" style="fill: url(#h79e0e97ba4); stroke: #2ca02c; stroke-width: 2; stroke-linejoin: miter"/>
   </g>
   <g id="patch_46">
    <path d="M 300.761206 172.60705 
L 304.564146 172.60705 
L 304.564146 83.342761 
L 300.761206 83.342761 
z
" clip-path="url(#p5354e6a138)" style="fill: url(#h79e0e97ba4); stroke: #2ca02c; stroke-width: 2; stroke-linejoin: miter"/>
   </g>
   <g id="patch_47">
    <path d="M 305.235253 172.60705 
L 309.038192 172.60705 
L 309.038192 83.289158 
L 305.235253 83.289158 
z
" clip-path="url(#p5354e6a138)" style="fill: url(#h79e0e97ba4); stroke: #2ca02c; stroke-width: 2; stroke-linejoin: miter"/>
   </g>
   <g id="patch_48">
    <path d="M 309.709299 172.60705 
L 313.512238 172.60705 
L 313.512238 83.263954 
L 309.709299 83.263954 
z
" clip-path="url(#p5354e6a138)" style="fill: url(#h79e0e97ba4); stroke: #2ca02c; stroke-width: 2; stroke-linejoin: miter"/>
   </g>
   <g id="patch_49">
    <path d="M 314.183345 172.60705 
L 317.986285 172.60705 
L 317.986285 82.989549 
L 314.183345 82.989549 
z
" clip-path="url(#p5354e6a138)" style="fill: url(#h79e0e97ba4); stroke: #2ca02c; stroke-width: 2; stroke-linejoin: miter"/>
   </g>
   <g id="patch_50">
    <path d="M 318.657392 172.60705 
L 322.460331 172.60705 
L 322.460331 82.927658 
L 318.657392 82.927658 
z
" clip-path="url(#p5354e6a138)" style="fill: url(#h79e0e97ba4); stroke: #2ca02c; stroke-width: 2; stroke-linejoin: miter"/>
   </g>
   <g id="patch_51">
    <path d="M 323.131438 172.60705 
L 326.934377 172.60705 
L 326.934377 82.900141 
L 323.131438 82.900141 
z
" clip-path="url(#p5354e6a138)" style="fill: url(#h79e0e97ba4); stroke: #2ca02c; stroke-width: 2; stroke-linejoin: miter"/>
   </g>
   <g id="patch_52">
    <path d="M 327.605484 172.60705 
L 331.408423 172.60705 
L 331.408423 82.872912 
L 327.605484 82.872912 
z
" clip-path="url(#p5354e6a138)" style="fill: url(#h79e0e97ba4); stroke: #2ca02c; stroke-width: 2; stroke-linejoin: miter"/>
   </g>
   <g id="patch_53">
    <path d="M 332.07953 172.60705 
L 335.88247 172.60705 
L 335.88247 82.797367 
L 332.07953 82.797367 
z
" clip-path="url(#p5354e6a138)" style="fill: url(#h79e0e97ba4); stroke: #2ca02c; stroke-width: 2; stroke-linejoin: miter"/>
   </g>
   <g id="patch_54">
    <path d="M 336.553577 172.60705 
L 340.356516 172.60705 
L 340.356516 82.645552 
L 336.553577 82.645552 
z
" clip-path="url(#p5354e6a138)" style="fill: url(#h79e0e97ba4); stroke: #2ca02c; stroke-width: 2; stroke-linejoin: miter"/>
   </g>
   <g id="patch_55">
    <path d="M 341.027623 172.60705 
L 344.830562 172.60705 
L 344.830562 82.546254 
L 341.027623 82.546254 
z
" clip-path="url(#p5354e6a138)" style="fill: url(#h79e0e97ba4); stroke: #2ca02c; stroke-width: 2; stroke-linejoin: miter"/>
   </g>
   <g id="patch_56">
    <path d="M 345.501669 172.60705 
L 349.304609 172.60705 
L 349.304609 82.534284 
L 345.501669 82.534284 
z
" clip-path="url(#p5354e6a138)" style="fill: url(#h79e0e97ba4); stroke: #2ca02c; stroke-width: 2; stroke-linejoin: miter"/>
   </g>
   <g id="patch_57">
    <path d="M 349.975716 172.60705 
L 353.778655 172.60705 
L 353.778655 82.386991 
L 349.975716 82.386991 
z
" clip-path="url(#p5354e6a138)" style="fill: url(#h79e0e97ba4); stroke: #2ca02c; stroke-width: 2; stroke-linejoin: miter"/>
   </g>
   <g id="patch_58">
    <path d="M 354.449762 172.60705 
L 358.252701 172.60705 
L 358.252701 82.382821 
L 354.449762 82.382821 
z
" clip-path="url(#p5354e6a138)" style="fill: url(#h79e0e97ba4); stroke: #2ca02c; stroke-width: 2; stroke-linejoin: miter"/>
   </g>
   <g id="patch_59">
    <path d="M 358.923808 172.60705 
L 362.726747 172.60705 
L 362.726747 82.30017 
L 358.923808 82.30017 
z
" clip-path="url(#p5354e6a138)" style="fill: url(#h79e0e97ba4); stroke: #2ca02c; stroke-width: 2; stroke-linejoin: miter"/>
   </g>
   <g id="patch_60">
    <path d="M 363.397854 172.60705 
L 367.200794 172.60705 
L 367.200794 82.231019 
L 363.397854 82.231019 
z
" clip-path="url(#p5354e6a138)" style="fill: url(#h79e0e97ba4); stroke: #2ca02c; stroke-width: 2; stroke-linejoin: miter"/>
   </g>
   <g id="patch_61">
    <path d="M 367.871901 172.60705 
L 371.67484 172.60705 
L 371.67484 82.080608 
L 367.871901 82.080608 
z
" clip-path="url(#p5354e6a138)" style="fill: url(#h79e0e97ba4); stroke: #2ca02c; stroke-width: 2; stroke-linejoin: miter"/>
   </g>
   <g id="patch_62">
    <path d="M 372.345947 172.60705 
L 376.148886 172.60705 
L 376.148886 82.054492 
L 372.345947 82.054492 
z
" clip-path="url(#p5354e6a138)" style="fill: url(#h79e0e97ba4); stroke: #2ca02c; stroke-width: 2; stroke-linejoin: miter"/>
   </g>
   <g id="patch_63">
    <path d="M 376.819993 172.60705 
L 380.622933 172.60705 
L 380.622933 81.779794 
L 376.819993 81.779794 
z
" clip-path="url(#p5354e6a138)" style="fill: url(#h79e0e97ba4); stroke: #2ca02c; stroke-width: 2; stroke-linejoin: miter"/>
   </g>
   <g id="patch_64">
    <path d="M 381.29404 172.60705 
L 385.096979 172.60705 
L 385.096979 81.678397 
L 381.29404 81.678397 
z
" clip-path="url(#p5354e6a138)" style="fill: url(#h79e0e97ba4); stroke: #2ca02c; stroke-width: 2; stroke-linejoin: miter"/>
   </g>
   <g id="patch_65">
    <path d="M 385.768086 172.60705 
L 389.571025 172.60705 
L 389.571025 81.615016 
L 385.768086 81.615016 
z
" clip-path="url(#p5354e6a138)" style="fill: url(#h79e0e97ba4); stroke: #2ca02c; stroke-width: 2; stroke-linejoin: miter"/>
   </g>
   <g id="patch_66">
    <path d="M 390.242132 172.60705 
L 394.045072 172.60705 
L 394.045072 81.540437 
L 390.242132 81.540437 
z
" clip-path="url(#p5354e6a138)" style="fill: url(#h79e0e97ba4); stroke: #2ca02c; stroke-width: 2; stroke-linejoin: miter"/>
   </g>
   <g id="patch_67">
    <path d="M 394.716178 172.60705 
L 398.519118 172.60705 
L 398.519118 81.470523 
L 394.716178 81.470523 
z
" clip-path="url(#p5354e6a138)" style="fill: url(#hf8a561abfb); stroke: #ff7f0e; stroke-width: 2; stroke-linejoin: miter"/>
   </g>
   <g id="patch_68">
    <path d="M 399.190225 172.60705 
L 402.993164 172.60705 
L 402.993164 81.382337 
L 399.190225 81.382337 
z
" clip-path="url(#p5354e6a138)" style="fill: url(#hf8a561abfb); stroke: #ff7f0e; stroke-width: 2; stroke-linejoin: miter"/>
   </g>
   <g id="patch_69">
    <path d="M 403.664271 172.60705 
L 407.46721 172.60705 
L 407.46721 81.362211 
L 403.664271 81.362211 
z
" clip-path="url(#p5354e6a138)" style="fill: url(#hf8a561abfb); stroke: #ff7f0e; stroke-width: 2; stroke-linejoin: miter"/>
   </g>
   <g id="patch_70">
    <path d="M 408.138317 172.60705 
L 411.941257 172.60705 
L 411.941257 81.132264 
L 408.138317 81.132264 
z
" clip-path="url(#p5354e6a138)" style="fill: url(#hf8a561abfb); stroke: #ff7f0e; stroke-width: 2; stroke-linejoin: miter"/>
   </g>
   <g id="patch_71">
    <path d="M 412.612364 172.60705 
L 416.415303 172.60705 
L 416.415303 81.098904 
L 412.612364 81.098904 
z
" clip-path="url(#p5354e6a138)" style="fill: url(#hf8a561abfb); stroke: #ff7f0e; stroke-width: 2; stroke-linejoin: miter"/>
   </g>
   <g id="patch_72">
    <path d="M 417.08641 172.60705 
L 420.889349 172.60705 
L 420.889349 81.096191 
L 417.08641 81.096191 
z
" clip-path="url(#p5354e6a138)" style="fill: url(#hf8a561abfb); stroke: #ff7f0e; stroke-width: 2; stroke-linejoin: miter"/>
   </g>
   <g id="patch_73">
    <path d="M 421.560456 172.60705 
L 425.363396 172.60705 
L 425.363396 81.096095 
L 421.560456 81.096095 
z
" clip-path="url(#p5354e6a138)" style="fill: url(#hf8a561abfb); stroke: #ff7f0e; stroke-width: 2; stroke-linejoin: miter"/>
   </g>
   <g id="patch_74">
    <path d="M 426.034503 172.60705 
L 429.837442 172.60705 
L 429.837442 80.416741 
L 426.034503 80.416741 
z
" clip-path="url(#p5354e6a138)" style="fill: url(#hf8a561abfb); stroke: #ff7f0e; stroke-width: 2; stroke-linejoin: miter"/>
   </g>
   <g id="patch_75">
    <path d="M 430.508549 172.60705 
L 434.311488 172.60705 
L 434.311488 80.165389 
L 430.508549 80.165389 
z
" clip-path="url(#p5354e6a138)" style="fill: url(#hf8a561abfb); stroke: #ff7f0e; stroke-width: 2; stroke-linejoin: miter"/>
   </g>
   <g id="patch_76">
    <path d="M 434.982595 172.60705 
L 438.785534 172.60705 
L 438.785534 80.155328 
L 434.982595 80.155328 
z
" clip-path="url(#p5354e6a138)" style="fill: url(#hf8a561abfb); stroke: #ff7f0e; stroke-width: 2; stroke-linejoin: miter"/>
   </g>
   <g id="patch_77">
    <path d="M 439.456641 172.60705 
L 443.259581 172.60705 
L 443.259581 80.032049 
L 439.456641 80.032049 
z
" clip-path="url(#p5354e6a138)" style="fill: url(#hf8a561abfb); stroke: #ff7f0e; stroke-width: 2; stroke-linejoin: miter"/>
   </g>
   <g id="patch_78">
    <path d="M 443.930688 172.60705 
L 447.733627 172.60705 
L 447.733627 80.01063 
L 443.930688 80.01063 
z
" clip-path="url(#p5354e6a138)" style="fill: url(#hf8a561abfb); stroke: #ff7f0e; stroke-width: 2; stroke-linejoin: miter"/>
   </g>
   <g id="patch_79">
    <path d="M 448.404734 172.60705 
L 452.207673 172.60705 
L 452.207673 79.989199 
L 448.404734 79.989199 
z
" clip-path="url(#p5354e6a138)" style="fill: url(#hf8a561abfb); stroke: #ff7f0e; stroke-width: 2; stroke-linejoin: miter"/>
   </g>
   <g id="patch_80">
    <path d="M 452.87878 172.60705 
L 456.68172 172.60705 
L 456.68172 79.802216 
L 452.87878 79.802216 
z
" clip-path="url(#p5354e6a138)" style="fill: url(#hf8a561abfb); stroke: #ff7f0e; stroke-width: 2; stroke-linejoin: miter"/>
   </g>
   <g id="patch_81">
    <path d="M 457.352827 172.60705 
L 461.155766 172.60705 
L 461.155766 79.646478 
L 457.352827 79.646478 
z
" clip-path="url(#p5354e6a138)" style="fill: url(#hf8a561abfb); stroke: #ff7f0e; stroke-width: 2; stroke-linejoin: miter"/>
   </g>
   <g id="patch_82">
    <path d="M 461.826873 172.60705 
L 465.629812 172.60705 
L 465.629812 79.566737 
L 461.826873 79.566737 
z
" clip-path="url(#p5354e6a138)" style="fill: url(#hf8a561abfb); stroke: #ff7f0e; stroke-width: 2; stroke-linejoin: miter"/>
   </g>
   <g id="patch_83">
    <path d="M 466.300919 172.60705 
L 470.103858 172.60705 
L 470.103858 79.328433 
L 466.300919 79.328433 
z
" clip-path="url(#p5354e6a138)" style="fill: url(#hf8a561abfb); stroke: #ff7f0e; stroke-width: 2; stroke-linejoin: miter"/>
   </g>
   <g id="patch_84">
    <path d="M 470.774965 172.60705 
L 474.577905 172.60705 
L 474.577905 79.286077 
L 470.774965 79.286077 
z
" clip-path="url(#p5354e6a138)" style="fill: url(#hf8a561abfb); stroke: #ff7f0e; stroke-width: 2; stroke-linejoin: miter"/>
   </g>
   <g id="patch_85">
    <path d="M 475.249012 172.60705 
L 479.051951 172.60705 
L 479.051951 79.176488 
L 475.249012 79.176488 
z
" clip-path="url(#p5354e6a138)" style="fill: url(#hf8a561abfb); stroke: #ff7f0e; stroke-width: 2; stroke-linejoin: miter"/>
   </g>
   <g id="patch_86">
    <path d="M 479.723058 172.60705 
L 483.525997 172.60705 
L 483.525997 78.994551 
L 479.723058 78.994551 
z
" clip-path="url(#p5354e6a138)" style="fill: url(#hf8a561abfb); stroke: #ff7f0e; stroke-width: 2; stroke-linejoin: miter"/>
   </g>
   <g id="patch_87">
    <path d="M 484.197104 172.60705 
L 488.000044 172.60705 
L 488.000044 78.942844 
L 484.197104 78.942844 
z
" clip-path="url(#p5354e6a138)" style="fill: url(#hf8a561abfb); stroke: #ff7f0e; stroke-width: 2; stroke-linejoin: miter"/>
   </g>
   <g id="patch_88">
    <path d="M 488.671151 172.60705 
L 492.47409 172.60705 
L 492.47409 78.772073 
L 488.671151 78.772073 
z
" clip-path="url(#p5354e6a138)" style="fill: url(#hf8a561abfb); stroke: #ff7f0e; stroke-width: 2; stroke-linejoin: miter"/>
   </g>
   <g id="patch_89">
    <path d="M 493.145197 172.60705 
L 496.948136 172.60705 
L 496.948136 78.565365 
L 493.145197 78.565365 
z
" clip-path="url(#p5354e6a138)" style="fill: url(#hf8a561abfb); stroke: #ff7f0e; stroke-width: 2; stroke-linejoin: miter"/>
   </g>
   <g id="patch_90">
    <path d="M 497.619243 172.60705 
L 501.422182 172.60705 
L 501.422182 78.3495 
L 497.619243 78.3495 
z
" clip-path="url(#p5354e6a138)" style="fill: url(#hf8a561abfb); stroke: #ff7f0e; stroke-width: 2; stroke-linejoin: miter"/>
   </g>
   <g id="patch_91">
    <path d="M 502.093289 172.60705 
L 505.896229 172.60705 
L 505.896229 78.261417 
L 502.093289 78.261417 
z
" clip-path="url(#p5354e6a138)" style="fill: url(#hf8a561abfb); stroke: #ff7f0e; stroke-width: 2; stroke-linejoin: miter"/>
   </g>
   <g id="patch_92">
    <path d="M 506.567336 172.60705 
L 510.370275 172.60705 
L 510.370275 78.200898 
L 506.567336 78.200898 
z
" clip-path="url(#p5354e6a138)" style="fill: url(#hf8a561abfb); stroke: #ff7f0e; stroke-width: 2; stroke-linejoin: miter"/>
   </g>
   <g id="patch_93">
    <path d="M 511.041382 172.60705 
L 514.844321 172.60705 
L 514.844321 78.141763 
L 511.041382 78.141763 
z
" clip-path="url(#p5354e6a138)" style="fill: url(#hf8a561abfb); stroke: #ff7f0e; stroke-width: 2; stroke-linejoin: miter"/>
   </g>
   <g id="patch_94">
    <path d="M 515.515428 172.60705 
L 519.318368 172.60705 
L 519.318368 77.761133 
L 515.515428 77.761133 
z
" clip-path="url(#p5354e6a138)" style="fill: url(#hf8a561abfb); stroke: #ff7f0e; stroke-width: 2; stroke-linejoin: miter"/>
   </g>
   <g id="patch_95">
    <path d="M 519.989475 172.60705 
L 523.792414 172.60705 
L 523.792414 77.363906 
L 519.989475 77.363906 
z
" clip-path="url(#p5354e6a138)" style="fill: url(#hf8a561abfb); stroke: #ff7f0e; stroke-width: 2; stroke-linejoin: miter"/>
   </g>
   <g id="patch_96">
    <path d="M 524.463521 172.60705 
L 528.26646 172.60705 
L 528.26646 77.340786 
L 524.463521 77.340786 
z
" clip-path="url(#p5354e6a138)" style="fill: url(#hf8a561abfb); stroke: #ff7f0e; stroke-width: 2; stroke-linejoin: miter"/>
   </g>
   <g id="patch_97">
    <path d="M 528.937567 172.60705 
L 532.740507 172.60705 
L 532.740507 76.827817 
L 528.937567 76.827817 
z
" clip-path="url(#p5354e6a138)" style="fill: url(#hf8a561abfb); stroke: #ff7f0e; stroke-width: 2; stroke-linejoin: miter"/>
   </g>
   <g id="patch_98">
    <path d="M 533.411613 172.60705 
L 537.214553 172.60705 
L 537.214553 76.58387 
L 533.411613 76.58387 
z
" clip-path="url(#p5354e6a138)" style="fill: url(#hf8a561abfb); stroke: #ff7f0e; stroke-width: 2; stroke-linejoin: miter"/>
   </g>
   <g id="patch_99">
    <path d="M 537.88566 172.60705 
L 541.688599 172.60705 
L 541.688599 76.573299 
L 537.88566 76.573299 
z
" clip-path="url(#p5354e6a138)" style="fill: url(#hf8a561abfb); stroke: #ff7f0e; stroke-width: 2; stroke-linejoin: miter"/>
   </g>
   <g id="patch_100">
    <path d="M 542.359706 172.60705 
L 546.162645 172.60705 
L 546.162645 76.552894 
L 542.359706 76.552894 
z
" clip-path="url(#p5354e6a138)" style="fill: url(#hf8a561abfb); stroke: #ff7f0e; stroke-width: 2; stroke-linejoin: miter"/>
   </g>
   <g id="patch_101">
    <path d="M 546.833752 172.60705 
L 550.636692 172.60705 
L 550.636692 76.44054 
L 546.833752 76.44054 
z
" clip-path="url(#p5354e6a138)" style="fill: url(#hf8a561abfb); stroke: #ff7f0e; stroke-width: 2; stroke-linejoin: miter"/>
   </g>
   <g id="patch_102">
    <path d="M 551.307799 172.60705 
L 555.110738 172.60705 
L 555.110738 76.109324 
L 551.307799 76.109324 
z
" clip-path="url(#p5354e6a138)" style="fill: url(#hf8a561abfb); stroke: #ff7f0e; stroke-width: 2; stroke-linejoin: miter"/>
   </g>
   <g id="patch_103">
    <path d="M 555.781845 172.60705 
L 559.584784 172.60705 
L 559.584784 75.884161 
L 555.781845 75.884161 
z
" clip-path="url(#p5354e6a138)" style="fill: url(#hf8a561abfb); stroke: #ff7f0e; stroke-width: 2; stroke-linejoin: miter"/>
   </g>
   <g id="patch_104">
    <path d="M 560.255891 172.60705 
L 564.058831 172.60705 
L 564.058831 75.88077 
L 560.255891 75.88077 
z
" clip-path="url(#p5354e6a138)" style="fill: url(#hf8a561abfb); stroke: #ff7f0e; stroke-width: 2; stroke-linejoin: miter"/>
   </g>
   <g id="patch_105">
    <path d="M 564.729937 172.60705 
L 568.532877 172.60705 
L 568.532877 75.531396 
L 564.729937 75.531396 
z
" clip-path="url(#p5354e6a138)" style="fill: url(#hf8a561abfb); stroke: #ff7f0e; stroke-width: 2; stroke-linejoin: miter"/>
   </g>
   <g id="patch_106">
    <path d="M 569.203984 172.60705 
L 573.006923 172.60705 
L 573.006923 75.344644 
L 569.203984 75.344644 
z
" clip-path="url(#p5354e6a138)" style="fill: url(#hf8a561abfb); stroke: #ff7f0e; stroke-width: 2; stroke-linejoin: miter"/>
   </g>
   <g id="patch_107">
    <path d="M 573.67803 172.60705 
L 577.480969 172.60705 
L 577.480969 75.207116 
L 573.67803 75.207116 
z
" clip-path="url(#p5354e6a138)" style="fill: url(#hf8a561abfb); stroke: #ff7f0e; stroke-width: 2; stroke-linejoin: miter"/>
   </g>
   <g id="patch_108">
    <path d="M 578.152076 172.60705 
L 581.955016 172.60705 
L 581.955016 75.040984 
L 578.152076 75.040984 
z
" clip-path="url(#p5354e6a138)" style="fill: url(#hf8a561abfb); stroke: #ff7f0e; stroke-width: 2; stroke-linejoin: miter"/>
   </g>
   <g id="patch_109">
    <path d="M 582.626123 172.60705 
L 586.429062 172.60705 
L 586.429062 74.69547 
L 582.626123 74.69547 
z
" clip-path="url(#p5354e6a138)" style="fill: url(#hf8a561abfb); stroke: #ff7f0e; stroke-width: 2; stroke-linejoin: miter"/>
   </g>
   <g id="patch_110">
    <path d="M 587.100169 172.60705 
L 590.903108 172.60705 
L 590.903108 74.652526 
L 587.100169 74.652526 
z
" clip-path="url(#p5354e6a138)" style="fill: url(#hf8a561abfb); stroke: #ff7f0e; stroke-width: 2; stroke-linejoin: miter"/>
   </g>
   <g id="patch_111">
    <path d="M 591.574215 172.60705 
L 595.377155 172.60705 
L 595.377155 74.465241 
L 591.574215 74.465241 
z
" clip-path="url(#p5354e6a138)" style="fill: url(#hf8a561abfb); stroke: #ff7f0e; stroke-width: 2; stroke-linejoin: miter"/>
   </g>
   <g id="patch_112">
    <path d="M 596.048262 172.60705 
L 599.851201 172.60705 
L 599.851201 74.421986 
L 596.048262 74.421986 
z
" clip-path="url(#p5354e6a138)" style="fill: url(#hf8a561abfb); stroke: #ff7f0e; stroke-width: 2; stroke-linejoin: miter"/>
   </g>
   <g id="patch_113">
    <path d="M 600.522308 172.60705 
L 604.325247 172.60705 
L 604.325247 74.372598 
L 600.522308 74.372598 
z
" clip-path="url(#p5354e6a138)" style="fill: url(#hf8a561abfb); stroke: #ff7f0e; stroke-width: 2; stroke-linejoin: miter"/>
   </g>
   <g id="patch_114">
    <path d="M 604.996354 172.60705 
L 608.799293 172.60705 
L 608.799293 74.318493 
L 604.996354 74.318493 
z
" clip-path="url(#p5354e6a138)" style="fill: url(#hf8a561abfb); stroke: #ff7f0e; stroke-width: 2; stroke-linejoin: miter"/>
   </g>
   <g id="patch_115">
    <path d="M 609.4704 172.60705 
L 613.27334 172.60705 
L 613.27334 74.245806 
L 609.4704 74.245806 
z
" clip-path="url(#p5354e6a138)" style="fill: url(#hf8a561abfb); stroke: #ff7f0e; stroke-width: 2; stroke-linejoin: miter"/>
   </g>
   <g id="patch_116">
    <path d="M 613.944447 172.60705 
L 617.747386 172.60705 
L 617.747386 73.814863 
L 613.944447 73.814863 
z
" clip-path="url(#p5354e6a138)" style="fill: url(#hf8a561abfb); stroke: #ff7f0e; stroke-width: 2; stroke-linejoin: miter"/>
   </g>
   <g id="patch_117">
    <path d="M 618.418493 172.60705 
L 622.221432 172.60705 
L 622.221432 73.793723 
L 618.418493 73.793723 
z
" clip-path="url(#p5354e6a138)" style="fill: url(#hf8a561abfb); stroke: #ff7f0e; stroke-width: 2; stroke-linejoin: miter"/>
   </g>
   <g id="patch_118">
    <path d="M 622.892539 172.60705 
L 626.695479 172.60705 
L 626.695479 72.868524 
L 622.892539 72.868524 
z
" clip-path="url(#p5354e6a138)" style="fill: url(#hf8a561abfb); stroke: #ff7f0e; stroke-width: 2; stroke-linejoin: miter"/>
   </g>
   <g id="patch_119">
    <path d="M 627.366586 172.60705 
L 631.169525 172.60705 
L 631.169525 72.733808 
L 627.366586 72.733808 
z
" clip-path="url(#p5354e6a138)" style="fill: url(#hf8a561abfb); stroke: #ff7f0e; stroke-width: 2; stroke-linejoin: miter"/>
   </g>
   <g id="patch_120">
    <path d="M 631.840632 172.60705 
L 635.643571 172.60705 
L 635.643571 72.027258 
L 631.840632 72.027258 
z
" clip-path="url(#p5354e6a138)" style="fill: url(#hf8a561abfb); stroke: #ff7f0e; stroke-width: 2; stroke-linejoin: miter"/>
   </g>
   <g id="patch_121">
    <path d="M 636.314678 172.60705 
L 640.117617 172.60705 
L 640.117617 71.531372 
L 636.314678 71.531372 
z
" clip-path="url(#p5354e6a138)" style="fill: url(#hf8a561abfb); stroke: #ff7f0e; stroke-width: 2; stroke-linejoin: miter"/>
   </g>
   <g id="patch_122">
    <path d="M 640.788724 172.60705 
L 644.591664 172.60705 
L 644.591664 71.431777 
L 640.788724 71.431777 
z
" clip-path="url(#p5354e6a138)" style="fill: url(#hf8a561abfb); stroke: #ff7f0e; stroke-width: 2; stroke-linejoin: miter"/>
   </g>
   <g id="patch_123">
    <path d="M 645.262771 172.60705 
L 649.06571 172.60705 
L 649.06571 69.093139 
L 645.262771 69.093139 
z
" clip-path="url(#p5354e6a138)" style="fill: url(#hf8a561abfb); stroke: #ff7f0e; stroke-width: 2; stroke-linejoin: miter"/>
   </g>
   <g id="patch_124">
    <path d="M 649.736817 172.60705 
L 653.539756 172.60705 
L 653.539756 67.291882 
L 649.736817 67.291882 
z
" clip-path="url(#p5354e6a138)" style="fill: url(#hf8a561abfb); stroke: #ff7f0e; stroke-width: 2; stroke-linejoin: miter"/>
   </g>
   <g id="patch_125">
    <path d="M 654.210863 172.60705 
L 658.013803 172.60705 
L 658.013803 65.221986 
L 654.210863 65.221986 
z
" clip-path="url(#p5354e6a138)" style="fill: url(#hf8a561abfb); stroke: #ff7f0e; stroke-width: 2; stroke-linejoin: miter"/>
   </g>
   <g id="patch_126">
    <path d="M 658.68491 172.60705 
L 662.487849 172.60705 
L 662.487849 64.904237 
L 658.68491 64.904237 
z
" clip-path="url(#p5354e6a138)" style="fill: url(#hf8a561abfb); stroke: #ff7f0e; stroke-width: 2; stroke-linejoin: miter"/>
   </g>
   <g id="patch_127">
    <path d="M 663.158956 172.60705 
L 666.961895 172.60705 
L 666.961895 64.045307 
L 663.158956 64.045307 
z
" clip-path="url(#p5354e6a138)" style="fill: url(#hf8a561abfb); stroke: #ff7f0e; stroke-width: 2; stroke-linejoin: miter"/>
   </g>
   <g id="patch_128">
    <path d="M 667.633002 172.60705 
L 671.435942 172.60705 
L 671.435942 61.836568 
L 667.633002 61.836568 
z
" clip-path="url(#p5354e6a138)" style="fill: url(#hf8a561abfb); stroke: #ff7f0e; stroke-width: 2; stroke-linejoin: miter"/>
   </g>
   <g id="patch_129">
    <path d="M 672.107048 172.60705 
L 675.909988 172.60705 
L 675.909988 59.999994 
L 672.107048 59.999994 
z
" clip-path="url(#p5354e6a138)" style="fill: url(#hf8a561abfb); stroke: #ff7f0e; stroke-width: 2; stroke-linejoin: miter"/>
   </g>
   <g id="patch_130">
    <path d="M 676.581095 172.60705 
L 680.384034 172.60705 
L 680.384034 41.79974 
L 676.581095 41.79974 
z
" clip-path="url(#p5354e6a138)" style="fill: url(#hf8a561abfb); stroke: #ff7f0e; stroke-width: 2; stroke-linejoin: miter"/>
   </g>
   <g id="line2d_21">
    <path d="M 79.776875 81.50548 
L 708.984375 81.50548 
" clip-path="url(#p5354e6a138)" style="fill: none; stroke-dasharray: 4.44,1.92; stroke-dashoffset: 0; stroke: #f58518; stroke-width: 1.2"/>
   </g>
   <g id="patch_131">
    <path d="M 79.776875 172.60705 
L 79.776875 35.259375 
" style="fill: none; stroke: #808080; stroke-width: 0.8; stroke-linejoin: miter; stroke-linecap: square"/>
   </g>
   <g id="patch_132">
    <path d="M 79.776875 172.60705 
L 708.984375 172.60705 
" style="fill: none; stroke: #808080; stroke-width: 0.8; stroke-linejoin: miter; stroke-linecap: square"/>
   </g>
   <g id="text_20">
    <text style="font: 22px 'PingFang SC', 'Heiti SC', 'STHeiti', 'Calibri', 'Arial', 'Helvetica Neue', 'Arial Unicode MS', 'Noto Sans CJK SC', 'DejaVu Sans', sans-serif; text-anchor: middle" x="394.380625" y="29.259375" transform="rotate(-0 394.380625 29.259375)">排序条形 · Host overhead p99 (us)</text>
   </g>
   <g id="legend_1">
    <g id="patch_133">
     <path d="M 85.376875 53.099375 
L 165.898125 53.099375 
Q 167.498125 53.099375 167.498125 51.499375 
L 167.498125 40.859375 
Q 167.498125 39.259375 165.898125 39.259375 
L 85.376875 39.259375 
Q 83.776875 39.259375 83.776875 40.859375 
L 83.776875 51.499375 
Q 83.776875 53.099375 85.376875 53.099375 
z
" style="fill: #ffffff; opacity: 0.5; stroke: #cccccc; stroke-linejoin: miter"/>
    </g>
    <g id="line2d_22">
     <path d="M 86.976875 46.026875 
L 94.976875 46.026875 
L 102.976875 46.026875 
" style="fill: none; stroke-dasharray: 4.44,1.92; stroke-dashoffset: 0; stroke: #f58518; stroke-width: 1.2"/>
    </g>
    <g id="text_21">
     <text style="font: 8px 'PingFang SC', 'Heiti SC', 'STHeiti', 'Calibri', 'Arial', 'Helvetica Neue', 'Arial Unicode MS', 'Noto Sans CJK SC', 'DejaVu Sans', sans-serif; text-anchor: start" x="109.376875" y="48.826875" transform="rotate(-0 109.376875 48.826875)">median=630.3</text>
    </g>
   </g>
  </g>
 </g>
 <defs>
  <clipPath id="p5354e6a138">
   <rect x="79.776875" y="35.259375" width="629.2075" height="137.347675"/>
  </clipPath>
 </defs>
 <defs>
  <pattern id="h79e0e97ba4" patternUnits="userSpaceOnUse" x="0" y="0" width="72" height="72">
   <rect x="0" y="0" width="73" height="73" fill="none"/>
   <path d="M -36 36 
L 36 -36 
M -30 42 
L 42 -30 
M -24 48 
L 48 -24 
M -18 54 
L 54 -18 
M -12 60 
L 60 -12 
M -6 66 
L 66 -6 
M 0 72 
L 72 0 
M 6 78 
L 78 6 
M 12 84 
L 84 12 
M 18 90 
L 90 18 
M 24 96 
L 96 24 
M 30 102 
L 102 30 
M 36 108 
L 108 36 
M -36 36 
L 36 108 
M -30 30 
L 42 102 
M -24 24 
L 48 96 
M -18 18 
L 54 90 
M -12 12 
L 60 84 
M -6 6 
L 66 78 
M 0 0 
L 72 72 
M 6 -6 
L 78 66 
M 12 -12 
L 84 60 
M 18 -18 
L 90 54 
M 24 -24 
L 96 48 
M 30 -30 
L 102 42 
M 36 -36 
L 108 36 
" style="fill: #2ca02c; stroke: #2ca02c; stroke-width: 1.0; stroke-linecap: butt; stroke-linejoin: miter"/>
  </pattern>
  <pattern id="hf8a561abfb" patternUnits="userSpaceOnUse" x="0" y="0" width="72" height="72">
   <rect x="0" y="0" width="73" height="73" fill="none"/>
   <path d="M -36 36 
L 36 -36 
M -30 42 
L 42 -30 
M -24 48 
L 48 -24 
M -18 54 
L 54 -18 
M -12 60 
L 60 -12 
M -6 66 
L 66 -6 
M 0 72 
L 72 0 
M 6 78 
L 78 6 
M 12 84 
L 84 12 
M 18 90 
L 90 18 
M 24 96 
L 96 24 
M 30 102 
L 102 30 
M 36 108 
L 108 36 
" style="fill: #ff7f0e; stroke: #ff7f0e; stroke-width: 1.0; stroke-linecap: butt; stroke-linejoin: miter"/>
  </pattern>
 </defs>
</svg>
