<?xml version="1.0" encoding="utf-8" standalone="no"?>
<!DOCTYPE svg PUBLIC "-//W3C//DTD SVG 1.1//EN"
  "http://www.w3.org/Graphics/SVG/1.1/DTD/svg11.dtd">
<svg xmlns:xlink="http://www.w3.org/1999/xlink" width="450.78375pt" height="270.950625pt" viewBox="0 0 450.78375 270.950625" xmlns="http://www.w3.org/2000/svg" version="1.1">
 <metadata>
  <rdf:RDF xmlns:dc="http://purl.org/dc/elements/1.1/" xmlns:cc="http://creativecommons.org/ns#" xmlns:rdf="http://www.w3.org/1999/02/22-rdf-syntax-ns#">
   <cc:Work>
    <dc:type rdf:resource="http://purl.org/dc/dcmitype/StillImage"/>
    <dc:date>2026-07-11T22:04:34.946581</dc:date>
    <dc:format>image/svg+xml</dc:format>
    <dc:creator>
     <cc:Agent>
      <dc:title>Matplotlib v3.9.4, https://matplotlib.org/</dc:title>
     </cc:Agent>
    </dc:creator>
   </cc:Work>
  </rdf:RDF>
 </metadata>
 <defs>
  <style type="text/css">*{stroke-linejoin: round; stroke-linecap: butt}</style>
 </defs>
 <g id="figure_1">
  <g id="patch_1">
   <path d="M 0 270.950625 
L 450.78375 270.950625 
L 450.78375 0 
L 0 0 
z
" style="fill: #ffffff"/>
  </g>
  <g id="axes_1">
   <g id="patch_2">
    <path d="M 66.63875 208.230625 
L 439.98375 208.230625 
L 439.98375 34.310625 
L 66.63875 34.310625 
z
" style="fill: #ffffff"/>
   </g>
   <g id="matplotlib.axis_1">
    <g id="xtick_1">
     <g id="line2d_1">
      <defs>
       <path id="md7650f1828" d="M 0 0 
L 0 3.5 
" style="stroke: #808080; stroke-width: 0.8"/>
      </defs>
      <g>
       <use xlink:href="#md7650f1828" x="98.661148" y="208.230625" style="fill: #808080; stroke: #808080; stroke-width: 0.8"/>
      </g>
     </g>
     <g id="text_1">
      <text style="fill: #808080; font: 22px 'PingFang SC', 'Heiti SC', 'STHeiti', 'Calibri', 'Arial', 'Helvetica Neue', 'Arial Unicode MS', 'Noto Sans CJK SC', 'DejaVu Sans', sans-serif; text-anchor: middle" x="98.661148" y="232.74125" transform="rotate(-0 98.661148 232.74125)">1000</text>
     </g>
    </g>
    <g id="xtick_2">
     <g id="line2d_2">
      <g>
       <use xlink:href="#md7650f1828" x="232.931212" y="208.230625" style="fill: #808080; stroke: #808080; stroke-width: 0.8"/>
      </g>
     </g>
     <g id="text_2">
      <text style="fill: #808080; font: 22px 'PingFang SC', 'Heiti SC', 'STHeiti', 'Calibri', 'Arial', 'Helvetica Neue', 'Arial Unicode MS', 'Noto Sans CJK SC', 'DejaVu Sans', sans-serif; text-anchor: middle" x="232.931212" y="232.74125" transform="rotate(-0 232.931212 232.74125)">1200</text>
     </g>
    </g>
    <g id="xtick_3">
     <g id="line2d_3">
      <g>
       <use xlink:href="#md7650f1828" x="367.201276" y="208.230625" style="fill: #808080; stroke: #808080; stroke-width: 0.8"/>
      </g>
     </g>
     <g id="text_3">
      <text style="fill: #808080; font: 22px 'PingFang SC', 'Heiti SC', 'STHeiti', 'Calibri', 'Arial', 'Helvetica Neue', 'Arial Unicode MS', 'Noto Sans CJK SC', 'DejaVu Sans', sans-serif; text-anchor: middle" x="367.201276" y="232.74125" transform="rotate(-0 367.201276 232.74125)">1400</text>
     </g>
    </g>
    <g id="text_4">
     <text style="font: 22px 'PingFang SC', 'Heiti SC', 'STHeiti', 'Calibri', 'Arial', 'Helvetica Neue', 'Arial Unicode MS', 'Noto Sans CJK SC', 'DejaVu Sans', sans-serif; text-anchor: middle" x="253.31125" y="257.20125" transform="rotate(-0 253.31125 257.20125)">hbm_gbps</text>
    </g>
   </g>
   <g id="matplotlib.axis_2">
    <g id="ytick_1">
     <g id="line2d_4">
      <path d="M 66.63875 208.230625 
L 439.98375 208.230625 
" clip-path="url(#p1d2d7b1c15)" style="fill: none; stroke-dasharray: 1,1.65; stroke-dashoffset: 0; stroke: #808080; stroke-opacity: 0.55"/>
     </g>
     <g id="line2d_5">
      <defs>
       <path id="mc08ac523a5" d="M 0 0 
L -3.5 0 
" style="stroke: #808080; stroke-width: 0.8"/>
      </defs>
      <g>
       <use xlink:href="#mc08ac523a5" x="66.63875" y="208.230625" style="fill: #808080; stroke: #808080; stroke-width: 0.8"/>
      </g>
     </g>
     <g id="text_5">
      <text style="fill: #808080; font: 22px 'PingFang SC', 'Heiti SC', 'STHeiti', 'Calibri', 'Arial', 'Helvetica Neue', 'Arial Unicode MS', 'Noto Sans CJK SC', 'DejaVu Sans', sans-serif; text-anchor: end" x="59.63875" y="216.985938" transform="rotate(-0 59.63875 216.985938)">0</text>
     </g>
    </g>
    <g id="ytick_2">
     <g id="line2d_6">
      <path d="M 66.63875 104.706815 
L 439.98375 104.706815 
" clip-path="url(#p1d2d7b1c15)" style="fill: none; stroke-dasharray: 1,1.65; stroke-dashoffset: 0; stroke: #808080; stroke-opacity: 0.55"/>
     </g>
     <g id="line2d_7">
      <g>
       <use xlink:href="#mc08ac523a5" x="66.63875" y="104.706815" style="fill: #808080; stroke: #808080; stroke-width: 0.8"/>
      </g>
     </g>
     <g id="text_6">
      <text style="fill: #808080; font: 22px 'PingFang SC', 'Heiti SC', 'STHeiti', 'Calibri', 'Arial', 'Helvetica Neue', 'Arial Unicode MS', 'Noto Sans CJK SC', 'DejaVu Sans', sans-serif; text-anchor: end" x="59.63875" y="113.462128" transform="rotate(-0 59.63875 113.462128)">50</text>
     </g>
    </g>
    <g id="text_7">
     <text style="font: 22px 'PingFang SC', 'Heiti SC', 'STHeiti', 'Calibri', 'Arial', 'Helvetica Neue', 'Arial Unicode MS', 'Noto Sans CJK SC', 'DejaVu Sans', sans-serif; text-anchor: middle" x="28.310625" y="121.270625" transform="rotate(-90 28.310625 121.270625)">count</text>
    </g>
   </g>
   <g id="patch_3">
    <path d="M 83.608977 208.230625 
L 94.922462 208.230625 
L 94.922462 206.160149 
L 83.608977 206.160149 
z
" clip-path="url(#p1d2d7b1c15)" style="fill: #4c78a8; opacity: 0.85; stroke: #ffffff; stroke-linejoin: miter"/>
   </g>
   <g id="patch_4">
    <path d="M 94.922462 208.230625 
L 106.235947 208.230625 
L 106.235947 206.160149 
L 94.922462 206.160149 
z
" clip-path="url(#p1d2d7b1c15)" style="fill: #4c78a8; opacity: 0.85; stroke: #ffffff; stroke-linejoin: miter"/>
   </g>
   <g id="patch_5">
    <path d="M 106.235947 208.230625 
L 117.549432 208.230625 
L 117.549432 206.160149 
L 106.235947 206.160149 
z
" clip-path="url(#p1d2d7b1c15)" style="fill: #4c78a8; opacity: 0.85; stroke: #ffffff; stroke-linejoin: miter"/>
   </g>
   <g id="patch_6">
    <path d="M 117.549432 208.230625 
L 128.862917 208.230625 
L 128.862917 175.103006 
L 117.549432 175.103006 
z
" clip-path="url(#p1d2d7b1c15)" style="fill: #4c78a8; opacity: 0.85; stroke: #ffffff; stroke-linejoin: miter"/>
   </g>
   <g id="patch_7">
    <path d="M 128.862917 208.230625 
L 140.176402 208.230625 
L 140.176402 208.230625 
L 128.862917 208.230625 
z
" clip-path="url(#p1d2d7b1c15)" style="fill: #4c78a8; opacity: 0.85; stroke: #ffffff; stroke-linejoin: miter"/>
   </g>
   <g id="patch_8">
    <path d="M 140.176402 208.230625 
L 151.489886 208.230625 
L 151.489886 208.230625 
L 140.176402 208.230625 
z
" clip-path="url(#p1d2d7b1c15)" style="fill: #4c78a8; opacity: 0.85; stroke: #ffffff; stroke-linejoin: miter"/>
   </g>
   <g id="patch_9">
    <path d="M 151.489886 208.230625 
L 162.803371 208.230625 
L 162.803371 208.230625 
L 151.489886 208.230625 
z
" clip-path="url(#p1d2d7b1c15)" style="fill: #4c78a8; opacity: 0.85; stroke: #ffffff; stroke-linejoin: miter"/>
   </g>
   <g id="patch_10">
    <path d="M 162.803371 208.230625 
L 174.116856 208.230625 
L 174.116856 208.230625 
L 162.803371 208.230625 
z
" clip-path="url(#p1d2d7b1c15)" style="fill: #4c78a8; opacity: 0.85; stroke: #ffffff; stroke-linejoin: miter"/>
   </g>
   <g id="patch_11">
    <path d="M 174.116856 208.230625 
L 185.430341 208.230625 
L 185.430341 208.230625 
L 174.116856 208.230625 
z
" clip-path="url(#p1d2d7b1c15)" style="fill: #4c78a8; opacity: 0.85; stroke: #ffffff; stroke-linejoin: miter"/>
   </g>
   <g id="patch_12">
    <path d="M 185.430341 208.230625 
L 196.743826 208.230625 
L 196.743826 208.230625 
L 185.430341 208.230625 
z
" clip-path="url(#p1d2d7b1c15)" style="fill: #4c78a8; opacity: 0.85; stroke: #ffffff; stroke-linejoin: miter"/>
   </g>
   <g id="patch_13">
    <path d="M 196.743826 208.230625 
L 208.057311 208.230625 
L 208.057311 208.230625 
L 196.743826 208.230625 
z
" clip-path="url(#p1d2d7b1c15)" style="fill: #4c78a8; opacity: 0.85; stroke: #ffffff; stroke-linejoin: miter"/>
   </g>
   <g id="patch_14">
    <path d="M 208.057311 208.230625 
L 219.370795 208.230625 
L 219.370795 208.230625 
L 208.057311 208.230625 
z
" clip-path="url(#p1d2d7b1c15)" style="fill: #4c78a8; opacity: 0.85; stroke: #ffffff; stroke-linejoin: miter"/>
   </g>
   <g id="patch_15">
    <path d="M 219.370795 208.230625 
L 230.68428 208.230625 
L 230.68428 206.160149 
L 219.370795 206.160149 
z
" clip-path="url(#p1d2d7b1c15)" style="fill: #4c78a8; opacity: 0.85; stroke: #ffffff; stroke-linejoin: miter"/>
   </g>
   <g id="patch_16">
    <path d="M 230.68428 208.230625 
L 241.997765 208.230625 
L 241.997765 208.230625 
L 230.68428 208.230625 
z
" clip-path="url(#p1d2d7b1c15)" style="fill: #4c78a8; opacity: 0.85; stroke: #ffffff; stroke-linejoin: miter"/>
   </g>
   <g id="patch_17">
    <path d="M 241.997765 208.230625 
L 253.31125 208.230625 
L 253.31125 208.230625 
L 241.997765 208.230625 
z
" clip-path="url(#p1d2d7b1c15)" style="fill: #4c78a8; opacity: 0.85; stroke: #ffffff; stroke-linejoin: miter"/>
   </g>
   <g id="patch_18">
    <path d="M 253.31125 208.230625 
L 264.624735 208.230625 
L 264.624735 208.230625 
L 253.31125 208.230625 
z
" clip-path="url(#p1d2d7b1c15)" style="fill: #4c78a8; opacity: 0.85; stroke: #ffffff; stroke-linejoin: miter"/>
   </g>
   <g id="patch_19">
    <path d="M 264.624735 208.230625 
L 275.93822 208.230625 
L 275.93822 208.230625 
L 264.624735 208.230625 
z
" clip-path="url(#p1d2d7b1c15)" style="fill: #4c78a8; opacity: 0.85; stroke: #ffffff; stroke-linejoin: miter"/>
   </g>
   <g id="patch_20">
    <path d="M 275.93822 208.230625 
L 287.251705 208.230625 
L 287.251705 208.230625 
L 275.93822 208.230625 
z
" clip-path="url(#p1d2d7b1c15)" style="fill: #4c78a8; opacity: 0.85; stroke: #ffffff; stroke-linejoin: miter"/>
   </g>
   <g id="patch_21">
    <path d="M 287.251705 208.230625 
L 298.565189 208.230625 
L 298.565189 208.230625 
L 287.251705 208.230625 
z
" clip-path="url(#p1d2d7b1c15)" style="fill: #4c78a8; opacity: 0.85; stroke: #ffffff; stroke-linejoin: miter"/>
   </g>
   <g id="patch_22">
    <path d="M 298.565189 208.230625 
L 309.878674 208.230625 
L 309.878674 208.230625 
L 298.565189 208.230625 
z
" clip-path="url(#p1d2d7b1c15)" style="fill: #4c78a8; opacity: 0.85; stroke: #ffffff; stroke-linejoin: miter"/>
   </g>
   <g id="patch_23">
    <path d="M 309.878674 208.230625 
L 321.192159 208.230625 
L 321.192159 208.230625 
L 309.878674 208.230625 
z
" clip-path="url(#p1d2d7b1c15)" style="fill: #4c78a8; opacity: 0.85; stroke: #ffffff; stroke-linejoin: miter"/>
   </g>
   <g id="patch_24">
    <path d="M 321.192159 208.230625 
L 332.505644 208.230625 
L 332.505644 204.089673 
L 321.192159 204.089673 
z
" clip-path="url(#p1d2d7b1c15)" style="fill: #4c78a8; opacity: 0.85; stroke: #ffffff; stroke-linejoin: miter"/>
   </g>
   <g id="patch_25">
    <path d="M 332.505644 208.230625 
L 343.819129 208.230625 
L 343.819129 177.173482 
L 332.505644 177.173482 
z
" clip-path="url(#p1d2d7b1c15)" style="fill: #4c78a8; opacity: 0.85; stroke: #ffffff; stroke-linejoin: miter"/>
   </g>
   <g id="patch_26">
    <path d="M 343.819129 208.230625 
L 355.132614 208.230625 
L 355.132614 208.230625 
L 343.819129 208.230625 
z
" clip-path="url(#p1d2d7b1c15)" style="fill: #4c78a8; opacity: 0.85; stroke: #ffffff; stroke-linejoin: miter"/>
   </g>
   <g id="patch_27">
    <path d="M 355.132614 208.230625 
L 366.446098 208.230625 
L 366.446098 208.230625 
L 355.132614 208.230625 
z
" clip-path="url(#p1d2d7b1c15)" style="fill: #4c78a8; opacity: 0.85; stroke: #ffffff; stroke-linejoin: miter"/>
   </g>
   <g id="patch_28">
    <path d="M 366.446098 208.230625 
L 377.759583 208.230625 
L 377.759583 208.230625 
L 366.446098 208.230625 
z
" clip-path="url(#p1d2d7b1c15)" style="fill: #4c78a8; opacity: 0.85; stroke: #ffffff; stroke-linejoin: miter"/>
   </g>
   <g id="patch_29">
    <path d="M 377.759583 208.230625 
L 389.073068 208.230625 
L 389.073068 206.160149 
L 377.759583 206.160149 
z
" clip-path="url(#p1d2d7b1c15)" style="fill: #4c78a8; opacity: 0.85; stroke: #ffffff; stroke-linejoin: miter"/>
   </g>
   <g id="patch_30">
    <path d="M 389.073068 208.230625 
L 400.386553 208.230625 
L 400.386553 206.160149 
L 389.073068 206.160149 
z
" clip-path="url(#p1d2d7b1c15)" style="fill: #4c78a8; opacity: 0.85; stroke: #ffffff; stroke-linejoin: miter"/>
   </g>
   <g id="patch_31">
    <path d="M 400.386553 208.230625 
L 411.700038 208.230625 
L 411.700038 191.666815 
L 400.386553 191.666815 
z
" clip-path="url(#p1d2d7b1c15)" style="fill: #4c78a8; opacity: 0.85; stroke: #ffffff; stroke-linejoin: miter"/>
   </g>
   <g id="patch_32">
    <path d="M 411.700038 208.230625 
L 423.013523 208.230625 
L 423.013523 42.59253 
L 411.700038 42.59253 
z
" clip-path="url(#p1d2d7b1c15)" style="fill: #4c78a8; opacity: 0.85; stroke: #ffffff; stroke-linejoin: miter"/>
   </g>
   <g id="line2d_8">
    <path d="M 414.288488 208.230625 
L 414.288488 34.310625 
" clip-path="url(#p1d2d7b1c15)" style="fill: none; stroke-dasharray: 5.55,2.4; stroke-dashoffset: 0; stroke: #e45756; stroke-width: 1.5"/>
   </g>
   <g id="patch_33">
    <path d="M 66.63875 208.230625 
L 66.63875 34.310625 
" style="fill: none; stroke: #808080; stroke-width: 0.8; stroke-linejoin: miter; stroke-linecap: square"/>
   </g>
   <g id="patch_34">
    <path d="M 66.63875 208.230625 
L 439.98375 208.230625 
" style="fill: none; stroke: #808080; stroke-width: 0.8; stroke-linejoin: miter; stroke-linecap: square"/>
   </g>
   <g id="text_8">
    <text style="font: 22px 'PingFang SC', 'Heiti SC', 'STHeiti', 'Calibri', 'Arial', 'Helvetica Neue', 'Arial Unicode MS', 'Noto Sans CJK SC', 'DejaVu Sans', sans-serif; text-anchor: middle" x="253.31125" y="28.310625" transform="rotate(-0 253.31125 28.310625)">HBM GB/s</text>
   </g>
   <g id="legend_1">
    <g id="patch_35">
     <path d="M 72.23875 52.150625 
L 150.54375 52.150625 
Q 152.14375 52.150625 152.14375 50.550625 
L 152.14375 39.910625 
Q 152.14375 38.310625 150.54375 38.310625 
L 72.23875 38.310625 
Q 70.63875 38.310625 70.63875 39.910625 
L 70.63875 50.550625 
Q 70.63875 52.150625 72.23875 52.150625 
z
" style="fill: #ffffff; opacity: 0.5; stroke: #cccccc; stroke-linejoin: miter"/>
    </g>
    <g id="line2d_9">
     <path d="M 73.83875 45.078125 
L 81.83875 45.078125 
L 89.83875 45.078125 
" style="fill: none; stroke-dasharray: 5.55,2.4; stroke-dashoffset: 0; stroke: #e45756; stroke-width: 1.5"/>
    </g>
    <g id="text_9">
     <text style="font: 8px 'PingFang SC', 'Heiti SC', 'STHeiti', 'Calibri', 'Arial', 'Helvetica Neue', 'Arial Unicode MS', 'Noto Sans CJK SC', 'DejaVu Sans', sans-serif; text-anchor: start" x="96.23875" y="47.878125" transform="rotate(-0 96.23875 47.878125)">median=1470</text>
    </g>
   </g>
  </g>
 </g>
 <defs>
  <clipPath id="p1d2d7b1c15">
   <rect x="66.63875" y="34.310625" width="373.345" height="173.92"/>
  </clipPath>
 </defs>
</svg>
