<?xml version="1.0" encoding="utf-8" standalone="no"?>
<!DOCTYPE svg PUBLIC "-//W3C//DTD SVG 1.1//EN"
  "http://www.w3.org/Graphics/SVG/1.1/DTD/svg11.dtd">
<svg xmlns:xlink="http://www.w3.org/1999/xlink" width="450.7125pt" height="343.149375pt" viewBox="0 0 450.7125 343.149375" xmlns="http://www.w3.org/2000/svg" version="1.1">
 <metadata>
  <rdf:RDF xmlns:dc="http://purl.org/dc/elements/1.1/" xmlns:cc="http://creativecommons.org/ns#" xmlns:rdf="http://www.w3.org/1999/02/22-rdf-syntax-ns#">
   <cc:Work>
    <dc:type rdf:resource="http://purl.org/dc/dcmitype/StillImage"/>
    <dc:date>2026-07-11T22:04:43.063504</dc:date>
    <dc:format>image/svg+xml</dc:format>
    <dc:creator>
     <cc:Agent>
      <dc:title>Matplotlib v3.9.4, https://matplotlib.org/</dc:title>
     </cc:Agent>
    </dc:creator>
   </cc:Work>
  </rdf:RDF>
 </metadata>
 <defs>
  <style type="text/css">*{stroke-linejoin: round; stroke-linecap: butt}</style>
 </defs>
 <g id="figure_1">
  <g id="patch_1">
   <path d="M 0 343.149375 
L 450.7125 343.149375 
L 450.7125 0 
L 0 0 
z
" style="fill: #ffffff"/>
  </g>
  <g id="axes_1">
   <g id="patch_2">
    <path d="M 91.0175 279.480625 
L 439.9125 279.480625 
L 439.9125 34.310625 
L 91.0175 34.310625 
z
" style="fill: #ffffff"/>
   </g>
   <g id="matplotlib.axis_1">
    <g id="xtick_1">
     <g id="line2d_1">
      <defs>
       <path id="m53a836fd50" d="M 0 0 
L 0 3.5 
" style="stroke: #808080; stroke-width: 0.8"/>
      </defs>
      <g>
       <use xlink:href="#m53a836fd50" x="158.367189" y="279.480625" style="fill: #808080; stroke: #808080; stroke-width: 0.8"/>
      </g>
     </g>
     <g id="text_1">
      <text style="fill: #808080; font: 22px 'PingFang SC', 'Heiti SC', 'STHeiti', 'Calibri', 'Arial', 'Helvetica Neue', 'Arial Unicode MS', 'Noto Sans CJK SC', 'DejaVu Sans', sans-serif; text-anchor: middle" x="158.367189" y="303.99125" transform="rotate(-0 158.367189 303.99125)">92</text>
     </g>
    </g>
    <g id="xtick_2">
     <g id="line2d_2">
      <g>
       <use xlink:href="#m53a836fd50" x="236.030576" y="279.480625" style="fill: #808080; stroke: #808080; stroke-width: 0.8"/>
      </g>
     </g>
     <g id="text_2">
      <text style="fill: #808080; font: 22px 'PingFang SC', 'Heiti SC', 'STHeiti', 'Calibri', 'Arial', 'Helvetica Neue', 'Arial Unicode MS', 'Noto Sans CJK SC', 'DejaVu Sans', sans-serif; text-anchor: middle" x="236.030576" y="303.99125" transform="rotate(-0 236.030576 303.99125)">94</text>
     </g>
    </g>
    <g id="xtick_3">
     <g id="line2d_3">
      <g>
       <use xlink:href="#m53a836fd50" x="313.693963" y="279.480625" style="fill: #808080; stroke: #808080; stroke-width: 0.8"/>
      </g>
     </g>
     <g id="text_3">
      <text style="fill: #808080; font: 22px 'PingFang SC', 'Heiti SC', 'STHeiti', 'Calibri', 'Arial', 'Helvetica Neue', 'Arial Unicode MS', 'Noto Sans CJK SC', 'DejaVu Sans', sans-serif; text-anchor: middle" x="313.693963" y="303.99125" transform="rotate(-0 313.693963 303.99125)">96</text>
     </g>
    </g>
    <g id="xtick_4">
     <g id="line2d_4">
      <g>
       <use xlink:href="#m53a836fd50" x="391.35735" y="279.480625" style="fill: #808080; stroke: #808080; stroke-width: 0.8"/>
      </g>
     </g>
     <g id="text_4">
      <text style="fill: #808080; font: 22px 'PingFang SC', 'Heiti SC', 'STHeiti', 'Calibri', 'Arial', 'Helvetica Neue', 'Arial Unicode MS', 'Noto Sans CJK SC', 'DejaVu Sans', sans-serif; text-anchor: middle" x="391.35735" y="303.99125" transform="rotate(-0 391.35735 303.99125)">98</text>
     </g>
    </g>
    <g id="text_5">
     <text style="font: 22px 'PingFang SC', 'Heiti SC', 'STHeiti', 'Calibri', 'Arial', 'Helvetica Neue', 'Arial Unicode MS', 'Noto Sans CJK SC', 'DejaVu Sans', sans-serif; text-anchor: middle" x="265.465" y="329.4" transform="rotate(-0 265.465 329.4)">Health power (W)</text>
    </g>
   </g>
   <g id="matplotlib.axis_2">
    <g id="ytick_1">
     <g id="line2d_5">
      <path d="M 91.0175 258.452002 
L 439.9125 258.452002 
" clip-path="url(#p1aeecfcfc7)" style="fill: none; stroke-dasharray: 1,1.65; stroke-dashoffset: 0; stroke: #808080; stroke-opacity: 0.55"/>
     </g>
     <g id="line2d_6">
      <defs>
       <path id="m2fa8bd0b99" d="M 0 0 
L -3.5 0 
" style="stroke: #808080; stroke-width: 0.8"/>
      </defs>
      <g>
       <use xlink:href="#m2fa8bd0b99" x="91.0175" y="258.452002" style="fill: #808080; stroke: #808080; stroke-width: 0.8"/>
      </g>
     </g>
     <g id="text_6">
      <text style="fill: #808080; font: 22px 'PingFang SC', 'Heiti SC', 'STHeiti', 'Calibri', 'Arial', 'Helvetica Neue', 'Arial Unicode MS', 'Noto Sans CJK SC', 'DejaVu Sans', sans-serif; text-anchor: end" x="84.0175" y="267.207314" transform="rotate(-0 84.0175 267.207314)">1000</text>
     </g>
    </g>
    <g id="ytick_2">
     <g id="line2d_7">
      <path d="M 91.0175 170.278887 
L 439.9125 170.278887 
" clip-path="url(#p1aeecfcfc7)" style="fill: none; stroke-dasharray: 1,1.65; stroke-dashoffset: 0; stroke: #808080; stroke-opacity: 0.55"/>
     </g>
     <g id="line2d_8">
      <g>
       <use xlink:href="#m2fa8bd0b99" x="91.0175" y="170.278887" style="fill: #808080; stroke: #808080; stroke-width: 0.8"/>
      </g>
     </g>
     <g id="text_7">
      <text style="fill: #808080; font: 22px 'PingFang SC', 'Heiti SC', 'STHeiti', 'Calibri', 'Arial', 'Helvetica Neue', 'Arial Unicode MS', 'Noto Sans CJK SC', 'DejaVu Sans', sans-serif; text-anchor: end" x="84.0175" y="179.034199" transform="rotate(-0 84.0175 179.034199)">1200</text>
     </g>
    </g>
    <g id="ytick_3">
     <g id="line2d_9">
      <path d="M 91.0175 82.105772 
L 439.9125 82.105772 
" clip-path="url(#p1aeecfcfc7)" style="fill: none; stroke-dasharray: 1,1.65; stroke-dashoffset: 0; stroke: #808080; stroke-opacity: 0.55"/>
     </g>
     <g id="line2d_10">
      <g>
       <use xlink:href="#m2fa8bd0b99" x="91.0175" y="82.105772" style="fill: #808080; stroke: #808080; stroke-width: 0.8"/>
      </g>
     </g>
     <g id="text_8">
      <text style="fill: #808080; font: 22px 'PingFang SC', 'Heiti SC', 'STHeiti', 'Calibri', 'Arial', 'Helvetica Neue', 'Arial Unicode MS', 'Noto Sans CJK SC', 'DejaVu Sans', sans-serif; text-anchor: end" x="84.0175" y="90.861084" transform="rotate(-0 84.0175 90.861084)">1400</text>
     </g>
    </g>
    <g id="text_9">
     <text style="font: 22px 'PingFang SC', 'Heiti SC', 'STHeiti', 'Calibri', 'Arial', 'Helvetica Neue', 'Arial Unicode MS', 'Noto Sans CJK SC', 'DejaVu Sans', sans-serif; text-anchor: middle" x="28.310625" y="156.895625" transform="rotate(-90 28.310625 156.895625)">HBM GB/s</text>
    </g>
   </g>
   <g id="PathCollection_1">
    <defs>
     <path id="m5bb91eb419" d="M 0 2.645751 
C 0.701661 2.645751 1.374679 2.366978 1.870829 1.870829 
C 2.366978 1.374679 2.645751 0.701661 2.645751 0 
C 2.645751 -0.701661 2.366978 -1.374679 1.870829 -1.870829 
C 1.374679 -2.366978 0.701661 -2.645751 0 -2.645751 
C -0.701661 -2.645751 -1.374679 -2.366978 -1.870829 -1.870829 
C -2.366978 -1.374679 -2.645751 -0.701661 -2.645751 0 
C -2.645751 0.701661 -2.366978 1.374679 -1.870829 1.870829 
C -1.374679 2.366978 -0.701661 2.645751 0 2.645751 
z
" style="stroke: #1f77b4; stroke-opacity: 0.75"/>
    </defs>
    <g clip-path="url(#p1aeecfcfc7)">
     <use xlink:href="#m5bb91eb419" x="121.088763" y="53.898976" style="fill: #1f77b4; fill-opacity: 0.75; stroke: #1f77b4; stroke-opacity: 0.75"/>
     <use xlink:href="#m5bb91eb419" x="301.190158" y="71.644734" style="fill: #1f77b4; fill-opacity: 0.75; stroke: #1f77b4; stroke-opacity: 0.75"/>
     <use xlink:href="#m5bb91eb419" x="356.253499" y="101.765699" style="fill: #1f77b4; fill-opacity: 0.75; stroke: #1f77b4; stroke-opacity: 0.75"/>
     <use xlink:href="#m5bb91eb419" x="300.180534" y="101.475927" style="fill: #1f77b4; fill-opacity: 0.75; stroke: #1f77b4; stroke-opacity: 0.75"/>
     <use xlink:href="#m5bb91eb419" x="323.634877" y="100.701765" style="fill: #1f77b4; fill-opacity: 0.75; stroke: #1f77b4; stroke-opacity: 0.75"/>
     <use xlink:href="#m5bb91eb419" x="213.896511" y="54.686516" style="fill: #1f77b4; fill-opacity: 0.75; stroke: #1f77b4; stroke-opacity: 0.75"/>
     <use xlink:href="#m5bb91eb419" x="196.111595" y="49.361781" style="fill: #1f77b4; fill-opacity: 0.75; stroke: #1f77b4; stroke-opacity: 0.75"/>
     <use xlink:href="#m5bb91eb419" x="251.71858" y="48.10286" style="fill: #1f77b4; fill-opacity: 0.75; stroke: #1f77b4; stroke-opacity: 0.75"/>
    </g>
   </g>
   <g id="PathCollection_2">
    <defs>
     <path id="m7d6ed67f8e" d="M 0 2.645751 
C 0.701661 2.645751 1.374679 2.366978 1.870829 1.870829 
C 2.366978 1.374679 2.645751 0.701661 2.645751 0 
C 2.645751 -0.701661 2.366978 -1.374679 1.870829 -1.870829 
C 1.374679 -2.366978 0.701661 -2.645751 0 -2.645751 
C -0.701661 -2.645751 -1.374679 -2.366978 -1.870829 -1.870829 
C -2.366978 -1.374679 -2.645751 -0.701661 -2.645751 0 
C -2.645751 0.701661 -2.366978 1.374679 -1.870829 1.870829 
C -1.374679 2.366978 -0.701661 2.645751 0 2.645751 
z
" style="stroke: #ff7f0e; stroke-opacity: 0.75"/>
    </defs>
    <g clip-path="url(#p1aeecfcfc7)">
     <use xlink:href="#m7d6ed67f8e" x="227.17695" y="240.648517" style="fill: #ff7f0e; fill-opacity: 0.75; stroke: #ff7f0e; stroke-opacity: 0.75"/>
     <use xlink:href="#m7d6ed67f8e" x="310.121448" y="50.72964" style="fill: #ff7f0e; fill-opacity: 0.75; stroke: #ff7f0e; stroke-opacity: 0.75"/>
     <use xlink:href="#m7d6ed67f8e" x="270.202467" y="51.070679" style="fill: #ff7f0e; fill-opacity: 0.75; stroke: #ff7f0e; stroke-opacity: 0.75"/>
     <use xlink:href="#m7d6ed67f8e" x="282.861599" y="242.912728" style="fill: #ff7f0e; fill-opacity: 0.75; stroke: #ff7f0e; stroke-opacity: 0.75"/>
     <use xlink:href="#m7d6ed67f8e" x="121.632407" y="48.675686" style="fill: #ff7f0e; fill-opacity: 0.75; stroke: #ff7f0e; stroke-opacity: 0.75"/>
     <use xlink:href="#m7d6ed67f8e" x="299.093247" y="50.388189" style="fill: #ff7f0e; fill-opacity: 0.75; stroke: #ff7f0e; stroke-opacity: 0.75"/>
     <use xlink:href="#m7d6ed67f8e" x="242.010657" y="268.336534" style="fill: #ff7f0e; fill-opacity: 0.75; stroke: #ff7f0e; stroke-opacity: 0.75"/>
     <use xlink:href="#m7d6ed67f8e" x="281.851975" y="48.217484" style="fill: #ff7f0e; fill-opacity: 0.75; stroke: #ff7f0e; stroke-opacity: 0.75"/>
    </g>
   </g>
   <g id="PathCollection_3">
    <defs>
     <path id="mff5cfcb80e" d="M 0 2.645751 
C 0.701661 2.645751 1.374679 2.366978 1.870829 1.870829 
C 2.366978 1.374679 2.645751 0.701661 2.645751 0 
C 2.645751 -0.701661 2.366978 -1.374679 1.870829 -1.870829 
C 1.374679 -2.366978 0.701661 -2.645751 0 -2.645751 
C -0.701661 -2.645751 -1.374679 -2.366978 -1.870829 -1.870829 
C -2.366978 -1.374679 -2.645751 -0.701661 -2.645751 0 
C -2.645751 0.701661 -2.366978 1.374679 -1.870829 1.870829 
C -1.374679 2.366978 -0.701661 2.645751 0 2.645751 
z
" style="stroke: #2ca02c; stroke-opacity: 0.75"/>
    </defs>
    <g clip-path="url(#p1aeecfcfc7)">
     <use xlink:href="#mff5cfcb80e" x="193.781694" y="101.862257" style="fill: #2ca02c; fill-opacity: 0.75; stroke: #2ca02c; stroke-opacity: 0.75"/>
     <use xlink:href="#mff5cfcb80e" x="296.452691" y="52.204978" style="fill: #2ca02c; fill-opacity: 0.75; stroke: #2ca02c; stroke-opacity: 0.75"/>
     <use xlink:href="#mff5cfcb80e" x="139.029006" y="47.52897" style="fill: #2ca02c; fill-opacity: 0.75; stroke: #2ca02c; stroke-opacity: 0.75"/>
     <use xlink:href="#mff5cfcb80e" x="232.768714" y="101.572534" style="fill: #2ca02c; fill-opacity: 0.75; stroke: #2ca02c; stroke-opacity: 0.75"/>
     <use xlink:href="#mff5cfcb80e" x="347.011556" y="50.160372" style="fill: #2ca02c; fill-opacity: 0.75; stroke: #2ca02c; stroke-opacity: 0.75"/>
     <use xlink:href="#mff5cfcb80e" x="312.684339" y="106.174295" style="fill: #2ca02c; fill-opacity: 0.75; stroke: #2ca02c; stroke-opacity: 0.75"/>
     <use xlink:href="#mff5cfcb80e" x="121.0111" y="102.537113" style="fill: #2ca02c; fill-opacity: 0.75; stroke: #2ca02c; stroke-opacity: 0.75"/>
     <use xlink:href="#mff5cfcb80e" x="249.466342" y="50.046431" style="fill: #2ca02c; fill-opacity: 0.75; stroke: #2ca02c; stroke-opacity: 0.75"/>
    </g>
   </g>
   <g id="PathCollection_4">
    <defs>
     <path id="m0ffaadf75f" d="M 0 2.645751 
C 0.701661 2.645751 1.374679 2.366978 1.870829 1.870829 
C 2.366978 1.374679 2.645751 0.701661 2.645751 0 
C 2.645751 -0.701661 2.366978 -1.374679 1.870829 -1.870829 
C 1.374679 -2.366978 0.701661 -2.645751 0 -2.645751 
C -0.701661 -2.645751 -1.374679 -2.366978 -1.870829 -1.870829 
C -2.366978 -1.374679 -2.645751 -0.701661 -2.645751 0 
C -2.645751 0.701661 -2.366978 1.374679 -1.870829 1.870829 
C -1.374679 2.366978 -0.701661 2.645751 0 2.645751 
z
" style="stroke: #d62728; stroke-opacity: 0.75"/>
    </defs>
    <g clip-path="url(#p1aeecfcfc7)">
     <use xlink:href="#m0ffaadf75f" x="269.736486" y="50.72964" style="fill: #d62728; fill-opacity: 0.75; stroke: #d62728; stroke-opacity: 0.75"/>
     <use xlink:href="#m0ffaadf75f" x="371.86384" y="47.873436" style="fill: #d62728; fill-opacity: 0.75; stroke: #d62728; stroke-opacity: 0.75"/>
     <use xlink:href="#m0ffaadf75f" x="253.660165" y="48.446666" style="fill: #d62728; fill-opacity: 0.75; stroke: #d62728; stroke-opacity: 0.75"/>
     <use xlink:href="#m0ffaadf75f" x="393.920242" y="48.332122" style="fill: #d62728; fill-opacity: 0.75; stroke: #d62728; stroke-opacity: 0.75"/>
     <use xlink:href="#m0ffaadf75f" x="336.915316" y="50.160372" style="fill: #d62728; fill-opacity: 0.75; stroke: #d62728; stroke-opacity: 0.75"/>
     <use xlink:href="#m0ffaadf75f" x="298.238949" y="50.160372" style="fill: #d62728; fill-opacity: 0.75; stroke: #d62728; stroke-opacity: 0.75"/>
     <use xlink:href="#m0ffaadf75f" x="298.083623" y="51.070679" style="fill: #d62728; fill-opacity: 0.75; stroke: #d62728; stroke-opacity: 0.75"/>
     <use xlink:href="#m0ffaadf75f" x="299.714554" y="55.135661" style="fill: #d62728; fill-opacity: 0.75; stroke: #d62728; stroke-opacity: 0.75"/>
    </g>
   </g>
   <g id="PathCollection_5">
    <defs>
     <path id="mee467bab2e" d="M 0 2.645751 
C 0.701661 2.645751 1.374679 2.366978 1.870829 1.870829 
C 2.366978 1.374679 2.645751 0.701661 2.645751 0 
C 2.645751 -0.701661 2.366978 -1.374679 1.870829 -1.870829 
C 1.374679 -2.366978 0.701661 -2.645751 0 -2.645751 
C -0.701661 -2.645751 -1.374679 -2.366978 -1.870829 -1.870829 
C -2.366978 -1.374679 -2.645751 -0.701661 -2.645751 0 
C -2.645751 0.701661 -2.366978 1.374679 -1.870829 1.870829 
C -1.374679 2.366978 -0.701661 2.645751 0 2.645751 
z
" style="stroke: #9467bd; stroke-opacity: 0.75"/>
    </defs>
    <g clip-path="url(#p1aeecfcfc7)">
     <use xlink:href="#mee467bab2e" x="318.66442" y="49.361781" style="fill: #9467bd; fill-opacity: 0.75; stroke: #9467bd; stroke-opacity: 0.75"/>
     <use xlink:href="#mee467bab2e" x="423.509993" y="47.758636" style="fill: #9467bd; fill-opacity: 0.75; stroke: #9467bd; stroke-opacity: 0.75"/>
     <use xlink:href="#mee467bab2e" x="168.152776" y="48.561223" style="fill: #9467bd; fill-opacity: 0.75; stroke: #9467bd; stroke-opacity: 0.75"/>
     <use xlink:href="#mee467bab2e" x="296.375028" y="51.751735" style="fill: #9467bd; fill-opacity: 0.75; stroke: #9467bd; stroke-opacity: 0.75"/>
     <use xlink:href="#mee467bab2e" x="401.919571" y="50.046431" style="fill: #9467bd; fill-opacity: 0.75; stroke: #9467bd; stroke-opacity: 0.75"/>
     <use xlink:href="#mee467bab2e" x="155.959624" y="51.978436" style="fill: #9467bd; fill-opacity: 0.75; stroke: #9467bd; stroke-opacity: 0.75"/>
     <use xlink:href="#mee467bab2e" x="386.464557" y="51.184314" style="fill: #9467bd; fill-opacity: 0.75; stroke: #9467bd; stroke-opacity: 0.75"/>
     <use xlink:href="#mee467bab2e" x="296.530355" y="100.895494" style="fill: #9467bd; fill-opacity: 0.75; stroke: #9467bd; stroke-opacity: 0.75"/>
    </g>
   </g>
   <g id="PathCollection_6">
    <defs>
     <path id="m1691dd299c" d="M 0 2.645751 
C 0.701661 2.645751 1.374679 2.366978 1.870829 1.870829 
C 2.366978 1.374679 2.645751 0.701661 2.645751 0 
C 2.645751 -0.701661 2.366978 -1.374679 1.870829 -1.870829 
C 1.374679 -2.366978 0.701661 -2.645751 0 -2.645751 
C -0.701661 -2.645751 -1.374679 -2.366978 -1.870829 -1.870829 
C -2.366978 -1.374679 -2.645751 -0.701661 -2.645751 0 
C -2.645751 0.701661 -2.366978 1.374679 -1.870829 1.870829 
C -1.374679 2.366978 -0.701661 2.645751 0 2.645751 
z
" style="stroke: #8c564b; stroke-opacity: 0.75"/>
    </defs>
    <g clip-path="url(#p1aeecfcfc7)">
     <use xlink:href="#m1691dd299c" x="232.846377" y="51.638351" style="fill: #8c564b; fill-opacity: 0.75; stroke: #8c564b; stroke-opacity: 0.75"/>
     <use xlink:href="#m1691dd299c" x="240.302063" y="49.018941" style="fill: #8c564b; fill-opacity: 0.75; stroke: #8c564b; stroke-opacity: 0.75"/>
     <use xlink:href="#m1691dd299c" x="154.794673" y="45.685792" style="fill: #8c564b; fill-opacity: 0.75; stroke: #8c564b; stroke-opacity: 0.75"/>
     <use xlink:href="#m1691dd299c" x="194.247674" y="50.957057" style="fill: #8c564b; fill-opacity: 0.75; stroke: #8c564b; stroke-opacity: 0.75"/>
     <use xlink:href="#m1691dd299c" x="263.601079" y="103.978136" style="fill: #8c564b; fill-opacity: 0.75; stroke: #8c564b; stroke-opacity: 0.75"/>
     <use xlink:href="#m1691dd299c" x="177.550046" y="47.299141" style="fill: #8c564b; fill-opacity: 0.75; stroke: #8c564b; stroke-opacity: 0.75"/>
     <use xlink:href="#m1691dd299c" x="338.546247" y="48.332122" style="fill: #8c564b; fill-opacity: 0.75; stroke: #8c564b; stroke-opacity: 0.75"/>
    </g>
   </g>
   <g id="PathCollection_7">
    <defs>
     <path id="m627ef8a394" d="M 0 2.645751 
C 0.701661 2.645751 1.374679 2.366978 1.870829 1.870829 
C 2.366978 1.374679 2.645751 0.701661 2.645751 0 
C 2.645751 -0.701661 2.366978 -1.374679 1.870829 -1.870829 
C 1.374679 -2.366978 0.701661 -2.645751 0 -2.645751 
C -0.701661 -2.645751 -1.374679 -2.366978 -1.870829 -1.870829 
C -2.366978 -1.374679 -2.645751 -0.701661 -2.645751 0 
C -2.645751 0.701661 -2.366978 1.374679 -1.870829 1.870829 
C -1.374679 2.366978 -0.701661 2.645751 0 2.645751 
z
" style="stroke: #e377c2; stroke-opacity: 0.75"/>
    </defs>
    <g clip-path="url(#p1aeecfcfc7)">
     <use xlink:href="#m627ef8a394" x="211.488946" y="52.770614" style="fill: #e377c2; fill-opacity: 0.75; stroke: #e377c2; stroke-opacity: 0.75"/>
     <use xlink:href="#m627ef8a394" x="225.779009" y="53.335314" style="fill: #e377c2; fill-opacity: 0.75; stroke: #e377c2; stroke-opacity: 0.75"/>
     <use xlink:href="#m627ef8a394" x="284.72552" y="48.217484" style="fill: #e377c2; fill-opacity: 0.75; stroke: #e377c2; stroke-opacity: 0.75"/>
     <use xlink:href="#m627ef8a394" x="354.001261" y="48.561223" style="fill: #e377c2; fill-opacity: 0.75; stroke: #e377c2; stroke-opacity: 0.75"/>
     <use xlink:href="#m627ef8a394" x="359.360035" y="102.633422" style="fill: #e377c2; fill-opacity: 0.75; stroke: #e377c2; stroke-opacity: 0.75"/>
     <use xlink:href="#m627ef8a394" x="256.999691" y="45.454716" style="fill: #e377c2; fill-opacity: 0.75; stroke: #e377c2; stroke-opacity: 0.75"/>
     <use xlink:href="#m627ef8a394" x="323.557214" y="52.431361" style="fill: #e377c2; fill-opacity: 0.75; stroke: #e377c2; stroke-opacity: 0.75"/>
     <use xlink:href="#m627ef8a394" x="271.445081" y="101.862257" style="fill: #e377c2; fill-opacity: 0.75; stroke: #e377c2; stroke-opacity: 0.75"/>
    </g>
   </g>
   <g id="PathCollection_8">
    <defs>
     <path id="m437e20f0cc" d="M 0 2.645751 
C 0.701661 2.645751 1.374679 2.366978 1.870829 1.870829 
C 2.366978 1.374679 2.645751 0.701661 2.645751 0 
C 2.645751 -0.701661 2.366978 -1.374679 1.870829 -1.870829 
C 1.374679 -2.366978 0.701661 -2.645751 0 -2.645751 
C -0.701661 -2.645751 -1.374679 -2.366978 -1.870829 -1.870829 
C -2.366978 -1.374679 -2.645751 -0.701661 -2.645751 0 
C -2.645751 0.701661 -2.366978 1.374679 -1.870829 1.870829 
C -1.374679 2.366978 -0.701661 2.645751 0 2.645751 
z
" style="stroke: #7f7f7f; stroke-opacity: 0.75"/>
    </defs>
    <g clip-path="url(#p1aeecfcfc7)">
     <use xlink:href="#m437e20f0cc" x="276.726191" y="242.292314" style="fill: #7f7f7f; fill-opacity: 0.75; stroke: #7f7f7f; stroke-opacity: 0.75"/>
     <use xlink:href="#m437e20f0cc" x="277.735815" y="240.249981" style="fill: #7f7f7f; fill-opacity: 0.75; stroke: #7f7f7f; stroke-opacity: 0.75"/>
     <use xlink:href="#m437e20f0cc" x="306.471268" y="242.630912" style="fill: #7f7f7f; fill-opacity: 0.75; stroke: #7f7f7f; stroke-opacity: 0.75"/>
     <use xlink:href="#m437e20f0cc" x="305.383981" y="244.260556" style="fill: #7f7f7f; fill-opacity: 0.75; stroke: #7f7f7f; stroke-opacity: 0.75"/>
     <use xlink:href="#m437e20f0cc" x="206.98447" y="243.756041" style="fill: #7f7f7f; fill-opacity: 0.75; stroke: #7f7f7f; stroke-opacity: 0.75"/>
     <use xlink:href="#m437e20f0cc" x="168.308103" y="243.92432" style="fill: #7f7f7f; fill-opacity: 0.75; stroke: #7f7f7f; stroke-opacity: 0.75"/>
     <use xlink:href="#m437e20f0cc" x="291.948215" y="242.122828" style="fill: #7f7f7f; fill-opacity: 0.75; stroke: #7f7f7f; stroke-opacity: 0.75"/>
     <use xlink:href="#m437e20f0cc" x="205.275875" y="241.840035" style="fill: #7f7f7f; fill-opacity: 0.75; stroke: #7f7f7f; stroke-opacity: 0.75"/>
    </g>
   </g>
   <g id="PathCollection_9">
    <defs>
     <path id="m5c2f610a5f" d="M 0 2.645751 
C 0.701661 2.645751 1.374679 2.366978 1.870829 1.870829 
C 2.366978 1.374679 2.645751 0.701661 2.645751 0 
C 2.645751 -0.701661 2.366978 -1.374679 1.870829 -1.870829 
C 1.374679 -2.366978 0.701661 -2.645751 0 -2.645751 
C -0.701661 -2.645751 -1.374679 -2.366978 -1.870829 -1.870829 
C -2.366978 -1.374679 -2.645751 -0.701661 -2.645751 0 
C -2.645751 0.701661 -2.366978 1.374679 -1.870829 1.870829 
C -1.374679 2.366978 -0.701661 2.645751 0 2.645751 
z
" style="stroke: #bcbd22; stroke-opacity: 0.75"/>
    </defs>
    <g clip-path="url(#p1aeecfcfc7)">
     <use xlink:href="#m5c2f610a5f" x="332.333176" y="48.10286" style="fill: #bcbd22; fill-opacity: 0.75; stroke: #bcbd22; stroke-opacity: 0.75"/>
     <use xlink:href="#m5c2f610a5f" x="299.17091" y="103.498584" style="fill: #bcbd22; fill-opacity: 0.75; stroke: #bcbd22; stroke-opacity: 0.75"/>
     <use xlink:href="#m5c2f610a5f" x="280.687024" y="51.751735" style="fill: #bcbd22; fill-opacity: 0.75; stroke: #bcbd22; stroke-opacity: 0.75"/>
     <use xlink:href="#m5c2f610a5f" x="248.146065" y="50.957057" style="fill: #bcbd22; fill-opacity: 0.75; stroke: #bcbd22; stroke-opacity: 0.75"/>
     <use xlink:href="#m5c2f610a5f" x="270.823774" y="50.615845" style="fill: #bcbd22; fill-opacity: 0.75; stroke: #bcbd22; stroke-opacity: 0.75"/>
     <use xlink:href="#m5c2f610a5f" x="247.602421" y="47.988141" style="fill: #bcbd22; fill-opacity: 0.75; stroke: #bcbd22; stroke-opacity: 0.75"/>
     <use xlink:href="#m5c2f610a5f" x="202.40233" y="51.184314" style="fill: #bcbd22; fill-opacity: 0.75; stroke: #bcbd22; stroke-opacity: 0.75"/>
     <use xlink:href="#m5c2f610a5f" x="255.13577" y="49.590158" style="fill: #bcbd22; fill-opacity: 0.75; stroke: #bcbd22; stroke-opacity: 0.75"/>
    </g>
   </g>
   <g id="PathCollection_10">
    <defs>
     <path id="md78881ea74" d="M 0 2.645751 
C 0.701661 2.645751 1.374679 2.366978 1.870829 1.870829 
C 2.366978 1.374679 2.645751 0.701661 2.645751 0 
C 2.645751 -0.701661 2.366978 -1.374679 1.870829 -1.870829 
C 1.374679 -2.366978 0.701661 -2.645751 0 -2.645751 
C -0.701661 -2.645751 -1.374679 -2.366978 -1.870829 -1.870829 
C -2.366978 -1.374679 -2.645751 -0.701661 -2.645751 0 
C -2.645751 0.701661 -2.366978 1.374679 -1.870829 1.870829 
C -1.374679 2.366978 -0.701661 2.645751 0 2.645751 
z
" style="stroke: #17becf; stroke-opacity: 0.75"/>
    </defs>
    <g clip-path="url(#p1aeecfcfc7)">
     <use xlink:href="#md78881ea74" x="355.088549" y="50.502063" style="fill: #17becf; fill-opacity: 0.75; stroke: #17becf; stroke-opacity: 0.75"/>
     <use xlink:href="#md78881ea74" x="202.16934" y="47.873436" style="fill: #17becf; fill-opacity: 0.75; stroke: #17becf; stroke-opacity: 0.75"/>
     <use xlink:href="#md78881ea74" x="307.170239" y="47.52897" style="fill: #17becf; fill-opacity: 0.75; stroke: #17becf; stroke-opacity: 0.75"/>
     <use xlink:href="#md78881ea74" x="130.486033" y="59.814123" style="fill: #17becf; fill-opacity: 0.75; stroke: #17becf; stroke-opacity: 0.75"/>
     <use xlink:href="#md78881ea74" x="121.632407" y="52.204978" style="fill: #17becf; fill-opacity: 0.75; stroke: #17becf; stroke-opacity: 0.75"/>
     <use xlink:href="#md78881ea74" x="256.145394" y="102.344446" style="fill: #17becf; fill-opacity: 0.75; stroke: #17becf; stroke-opacity: 0.75"/>
     <use xlink:href="#md78881ea74" x="370.155246" y="48.561223" style="fill: #17becf; fill-opacity: 0.75; stroke: #17becf; stroke-opacity: 0.75"/>
     <use xlink:href="#md78881ea74" x="243.330935" y="66.272622" style="fill: #17becf; fill-opacity: 0.75; stroke: #17becf; stroke-opacity: 0.75"/>
    </g>
   </g>
   <g id="PathCollection_11">
    <g clip-path="url(#p1aeecfcfc7)">
     <use xlink:href="#m5bb91eb419" x="106.876364" y="104.16975" style="fill: #1f77b4; fill-opacity: 0.75; stroke: #1f77b4; stroke-opacity: 0.75"/>
     <use xlink:href="#m5bb91eb419" x="300.025207" y="52.204978" style="fill: #1f77b4; fill-opacity: 0.75; stroke: #1f77b4; stroke-opacity: 0.75"/>
     <use xlink:href="#m5bb91eb419" x="264.843693" y="52.883654" style="fill: #1f77b4; fill-opacity: 0.75; stroke: #1f77b4; stroke-opacity: 0.75"/>
     <use xlink:href="#m5bb91eb419" x="328.76066" y="51.411412" style="fill: #1f77b4; fill-opacity: 0.75; stroke: #1f77b4; stroke-opacity: 0.75"/>
     <use xlink:href="#m5bb91eb419" x="292.802512" y="51.638351" style="fill: #1f77b4; fill-opacity: 0.75; stroke: #1f77b4; stroke-opacity: 0.75"/>
     <use xlink:href="#m5bb91eb419" x="137.165085" y="47.64385" style="fill: #1f77b4; fill-opacity: 0.75; stroke: #1f77b4; stroke-opacity: 0.75"/>
     <use xlink:href="#m5bb91eb419" x="363.709185" y="51.297857" style="fill: #1f77b4; fill-opacity: 0.75; stroke: #1f77b4; stroke-opacity: 0.75"/>
     <use xlink:href="#m5bb91eb419" x="249.078025" y="49.018941" style="fill: #1f77b4; fill-opacity: 0.75; stroke: #1f77b4; stroke-opacity: 0.75"/>
    </g>
   </g>
   <g id="PathCollection_12">
    <g clip-path="url(#p1aeecfcfc7)">
     <use xlink:href="#m7d6ed67f8e" x="199.373458" y="47.988141" style="fill: #ff7f0e; fill-opacity: 0.75; stroke: #ff7f0e; stroke-opacity: 0.75"/>
     <use xlink:href="#m7d6ed67f8e" x="316.955826" y="49.018941" style="fill: #ff7f0e; fill-opacity: 0.75; stroke: #ff7f0e; stroke-opacity: 0.75"/>
     <use xlink:href="#m7d6ed67f8e" x="376.756634" y="50.160372" style="fill: #ff7f0e; fill-opacity: 0.75; stroke: #ff7f0e; stroke-opacity: 0.75"/>
     <use xlink:href="#m7d6ed67f8e" x="277.891142" y="48.675686" style="fill: #ff7f0e; fill-opacity: 0.75; stroke: #ff7f0e; stroke-opacity: 0.75"/>
     <use xlink:href="#m7d6ed67f8e" x="220.187245" y="50.046431" style="fill: #ff7f0e; fill-opacity: 0.75; stroke: #ff7f0e; stroke-opacity: 0.75"/>
     <use xlink:href="#m7d6ed67f8e" x="203.877934" y="49.818375" style="fill: #ff7f0e; fill-opacity: 0.75; stroke: #ff7f0e; stroke-opacity: 0.75"/>
     <use xlink:href="#m7d6ed67f8e" x="183.530127" y="49.361781" style="fill: #ff7f0e; fill-opacity: 0.75; stroke: #ff7f0e; stroke-opacity: 0.75"/>
     <use xlink:href="#m7d6ed67f8e" x="311.907705" y="47.988141" style="fill: #ff7f0e; fill-opacity: 0.75; stroke: #ff7f0e; stroke-opacity: 0.75"/>
    </g>
   </g>
   <g id="PathCollection_13">
    <g clip-path="url(#p1aeecfcfc7)">
     <use xlink:href="#mff5cfcb80e" x="250.009986" y="50.502063" style="fill: #2ca02c; fill-opacity: 0.75; stroke: #2ca02c; stroke-opacity: 0.75"/>
     <use xlink:href="#mff5cfcb80e" x="188.112266" y="48.561223" style="fill: #2ca02c; fill-opacity: 0.75; stroke: #2ca02c; stroke-opacity: 0.75"/>
     <use xlink:href="#mff5cfcb80e" x="313.305646" y="47.758636" style="fill: #2ca02c; fill-opacity: 0.75; stroke: #2ca02c; stroke-opacity: 0.75"/>
     <use xlink:href="#mff5cfcb80e" x="295.676058" y="101.958739" style="fill: #2ca02c; fill-opacity: 0.75; stroke: #2ca02c; stroke-opacity: 0.75"/>
     <use xlink:href="#mff5cfcb80e" x="165.046241" y="45.685792" style="fill: #2ca02c; fill-opacity: 0.75; stroke: #2ca02c; stroke-opacity: 0.75"/>
     <use xlink:href="#mff5cfcb80e" x="251.873907" y="50.72964" style="fill: #2ca02c; fill-opacity: 0.75; stroke: #2ca02c; stroke-opacity: 0.75"/>
     <use xlink:href="#mff5cfcb80e" x="263.756405" y="54.349219" style="fill: #2ca02c; fill-opacity: 0.75; stroke: #2ca02c; stroke-opacity: 0.75"/>
     <use xlink:href="#mff5cfcb80e" x="260.88286" y="48.675686" style="fill: #2ca02c; fill-opacity: 0.75; stroke: #2ca02c; stroke-opacity: 0.75"/>
    </g>
   </g>
   <g id="PathCollection_14">
    <g clip-path="url(#p1aeecfcfc7)">
     <use xlink:href="#m0ffaadf75f" x="297.229325" y="249.135163" style="fill: #d62728; fill-opacity: 0.75; stroke: #d62728; stroke-opacity: 0.75"/>
     <use xlink:href="#m0ffaadf75f" x="268.105555" y="241.500211" style="fill: #d62728; fill-opacity: 0.75; stroke: #d62728; stroke-opacity: 0.75"/>
     <use xlink:href="#m0ffaadf75f" x="308.956497" y="253.799152" style="fill: #d62728; fill-opacity: 0.75; stroke: #d62728; stroke-opacity: 0.75"/>
     <use xlink:href="#m0ffaadf75f" x="294.045126" y="240.819151" style="fill: #d62728; fill-opacity: 0.75; stroke: #d62728; stroke-opacity: 0.75"/>
     <use xlink:href="#m0ffaadf75f" x="241.700004" y="242.235815" style="fill: #d62728; fill-opacity: 0.75; stroke: #d62728; stroke-opacity: 0.75"/>
     <use xlink:href="#m0ffaadf75f" x="200.616072" y="243.756041" style="fill: #d62728; fill-opacity: 0.75; stroke: #d62728; stroke-opacity: 0.75"/>
     <use xlink:href="#m0ffaadf75f" x="343.982684" y="240.534743" style="fill: #d62728; fill-opacity: 0.75; stroke: #d62728; stroke-opacity: 0.75"/>
     <use xlink:href="#m0ffaadf75f" x="187.72395" y="241.159934" style="fill: #d62728; fill-opacity: 0.75; stroke: #d62728; stroke-opacity: 0.75"/>
    </g>
   </g>
   <g id="PathCollection_15">
    <g clip-path="url(#p1aeecfcfc7)">
     <use xlink:href="#mee467bab2e" x="414.112723" y="56.032025" style="fill: #9467bd; fill-opacity: 0.75; stroke: #9467bd; stroke-opacity: 0.75"/>
     <use xlink:href="#mee467bab2e" x="240.612716" y="52.091753" style="fill: #9467bd; fill-opacity: 0.75; stroke: #9467bd; stroke-opacity: 0.75"/>
     <use xlink:href="#mee467bab2e" x="253.349512" y="54.236744" style="fill: #9467bd; fill-opacity: 0.75; stroke: #9467bd; stroke-opacity: 0.75"/>
     <use xlink:href="#mee467bab2e" x="303.98604" y="49.932396" style="fill: #9467bd; fill-opacity: 0.75; stroke: #9467bd; stroke-opacity: 0.75"/>
     <use xlink:href="#mee467bab2e" x="220.031919" y="48.675686" style="fill: #9467bd; fill-opacity: 0.75; stroke: #9467bd; stroke-opacity: 0.75"/>
     <use xlink:href="#mee467bab2e" x="380.329149" y="47.414103" style="fill: #9467bd; fill-opacity: 0.75; stroke: #9467bd; stroke-opacity: 0.75"/>
     <use xlink:href="#mee467bab2e" x="394.541549" y="48.790163" style="fill: #9467bd; fill-opacity: 0.75; stroke: #9467bd; stroke-opacity: 0.75"/>
     <use xlink:href="#mee467bab2e" x="271.289754" y="50.72964" style="fill: #9467bd; fill-opacity: 0.75; stroke: #9467bd; stroke-opacity: 0.75"/>
    </g>
   </g>
   <g id="PathCollection_16">
    <g clip-path="url(#p1aeecfcfc7)">
     <use xlink:href="#m1691dd299c" x="240.768043" y="109.861313" style="fill: #8c564b; fill-opacity: 0.75; stroke: #8c564b; stroke-opacity: 0.75"/>
     <use xlink:href="#m1691dd299c" x="187.801613" y="50.502063" style="fill: #8c564b; fill-opacity: 0.75; stroke: #8c564b; stroke-opacity: 0.75"/>
     <use xlink:href="#m1691dd299c" x="424.053636" y="51.184314" style="fill: #8c564b; fill-opacity: 0.75; stroke: #8c564b; stroke-opacity: 0.75"/>
     <use xlink:href="#m1691dd299c" x="191.762446" y="176.301248" style="fill: #8c564b; fill-opacity: 0.75; stroke: #8c564b; stroke-opacity: 0.75"/>
     <use xlink:href="#m1691dd299c" x="163.725963" y="45.454716" style="fill: #8c564b; fill-opacity: 0.75; stroke: #8c564b; stroke-opacity: 0.75"/>
     <use xlink:href="#m1691dd299c" x="193.315713" y="100.895494" style="fill: #8c564b; fill-opacity: 0.75; stroke: #8c564b; stroke-opacity: 0.75"/>
     <use xlink:href="#m1691dd299c" x="243.641588" y="47.758636" style="fill: #8c564b; fill-opacity: 0.75; stroke: #8c564b; stroke-opacity: 0.75"/>
     <use xlink:href="#m1691dd299c" x="189.432544" y="47.988141" style="fill: #8c564b; fill-opacity: 0.75; stroke: #8c564b; stroke-opacity: 0.75"/>
    </g>
   </g>
   <g id="patch_3">
    <path d="M 91.0175 279.480625 
L 91.0175 34.310625 
" style="fill: none; stroke: #808080; stroke-width: 0.8; stroke-linejoin: miter; stroke-linecap: square"/>
   </g>
   <g id="patch_4">
    <path d="M 91.0175 279.480625 
L 439.9125 279.480625 
" style="fill: none; stroke: #808080; stroke-width: 0.8; stroke-linejoin: miter; stroke-linecap: square"/>
   </g>
   <g id="text_10">
    <text style="font: 22px 'PingFang SC', 'Heiti SC', 'STHeiti', 'Calibri', 'Arial', 'Helvetica Neue', 'Arial Unicode MS', 'Noto Sans CJK SC', 'DejaVu Sans', sans-serif; text-anchor: middle" x="265.465" y="28.310625" transform="rotate(-0 265.465 28.310625)">Health power × HBM</text>
   </g>
  </g>
 </g>
 <defs>
  <clipPath id="p1aeecfcfc7">
   <rect x="91.0175" y="34.310625" width="348.895" height="245.17"/>
  </clipPath>
 </defs>
</svg>
