<?xml version="1.0" encoding="utf-8" standalone="no"?>
<!DOCTYPE svg PUBLIC "-//W3C//DTD SVG 1.1//EN"
  "http://www.w3.org/Graphics/SVG/1.1/DTD/svg11.dtd">
<svg xmlns:xlink="http://www.w3.org/1999/xlink" width="702.785625pt" height="342.906875pt" viewBox="0 0 702.785625 342.906875" xmlns="http://www.w3.org/2000/svg" version="1.1">
 <metadata>
  <rdf:RDF xmlns:dc="http://purl.org/dc/elements/1.1/" xmlns:cc="http://creativecommons.org/ns#" xmlns:rdf="http://www.w3.org/1999/02/22-rdf-syntax-ns#">
   <cc:Work>
    <dc:type rdf:resource="http://purl.org/dc/dcmitype/StillImage"/>
    <dc:date>2026-07-11T23:34:46.653624</dc:date>
    <dc:format>image/svg+xml</dc:format>
    <dc:creator>
     <cc:Agent>
      <dc:title>Matplotlib v3.9.4, https://matplotlib.org/</dc:title>
     </cc:Agent>
    </dc:creator>
   </cc:Work>
  </rdf:RDF>
 </metadata>
 <defs>
  <style type="text/css">*{stroke-linejoin: round; stroke-linecap: butt}</style>
 </defs>
 <g id="figure_1">
  <g id="patch_1">
   <path d="M 0 342.906875 
L 702.785625 342.906875 
L 702.785625 0 
L 0 0 
z
" style="fill: #ffffff"/>
  </g>
  <g id="axes_1">
   <g id="patch_2">
    <path d="M 78.828125 279.238125 
L 691.985625 279.238125 
L 691.985625 35.080625 
L 78.828125 35.080625 
z
" style="fill: #ffffff"/>
   </g>
   <g id="matplotlib.axis_1">
    <g id="xtick_1">
     <g id="line2d_1">
      <defs>
       <path id="mae53858a31" d="M 0 0 
L 0 3.5 
" style="stroke: #808080; stroke-width: 0.8"/>
      </defs>
      <g>
       <use xlink:href="#mae53858a31" x="102.572834" y="279.238125" style="fill: #808080; stroke: #808080; stroke-width: 0.8"/>
      </g>
     </g>
     <g id="text_1">
      <text style="fill: #808080; font: 22px 'PingFang SC', 'Heiti SC', 'STHeiti', 'Calibri', 'Arial', 'Helvetica Neue', 'Arial Unicode MS', 'Noto Sans CJK SC', 'DejaVu Sans', sans-serif; text-anchor: middle" x="102.572834" y="303.74875" transform="rotate(-0 102.572834 303.74875)">0</text>
     </g>
    </g>
    <g id="xtick_2">
     <g id="line2d_2">
      <g>
       <use xlink:href="#mae53858a31" x="197.905836" y="279.238125" style="fill: #808080; stroke: #808080; stroke-width: 0.8"/>
      </g>
     </g>
     <g id="text_2">
      <text style="fill: #808080; font: 22px 'PingFang SC', 'Heiti SC', 'STHeiti', 'Calibri', 'Arial', 'Helvetica Neue', 'Arial Unicode MS', 'Noto Sans CJK SC', 'DejaVu Sans', sans-serif; text-anchor: middle" x="197.905836" y="303.74875" transform="rotate(-0 197.905836 303.74875)">5</text>
     </g>
    </g>
    <g id="xtick_3">
     <g id="line2d_3">
      <g>
       <use xlink:href="#mae53858a31" x="293.238837" y="279.238125" style="fill: #808080; stroke: #808080; stroke-width: 0.8"/>
      </g>
     </g>
     <g id="text_3">
      <text style="fill: #808080; font: 22px 'PingFang SC', 'Heiti SC', 'STHeiti', 'Calibri', 'Arial', 'Helvetica Neue', 'Arial Unicode MS', 'Noto Sans CJK SC', 'DejaVu Sans', sans-serif; text-anchor: middle" x="293.238837" y="303.74875" transform="rotate(-0 293.238837 303.74875)">10</text>
     </g>
    </g>
    <g id="xtick_4">
     <g id="line2d_4">
      <g>
       <use xlink:href="#mae53858a31" x="388.571839" y="279.238125" style="fill: #808080; stroke: #808080; stroke-width: 0.8"/>
      </g>
     </g>
     <g id="text_4">
      <text style="fill: #808080; font: 22px 'PingFang SC', 'Heiti SC', 'STHeiti', 'Calibri', 'Arial', 'Helvetica Neue', 'Arial Unicode MS', 'Noto Sans CJK SC', 'DejaVu Sans', sans-serif; text-anchor: middle" x="388.571839" y="303.74875" transform="rotate(-0 388.571839 303.74875)">15</text>
     </g>
    </g>
    <g id="xtick_5">
     <g id="line2d_5">
      <g>
       <use xlink:href="#mae53858a31" x="483.90484" y="279.238125" style="fill: #808080; stroke: #808080; stroke-width: 0.8"/>
      </g>
     </g>
     <g id="text_5">
      <text style="fill: #808080; font: 22px 'PingFang SC', 'Heiti SC', 'STHeiti', 'Calibri', 'Arial', 'Helvetica Neue', 'Arial Unicode MS', 'Noto Sans CJK SC', 'DejaVu Sans', sans-serif; text-anchor: middle" x="483.90484" y="303.74875" transform="rotate(-0 483.90484 303.74875)">20</text>
     </g>
    </g>
    <g id="xtick_6">
     <g id="line2d_6">
      <g>
       <use xlink:href="#mae53858a31" x="579.237842" y="279.238125" style="fill: #808080; stroke: #808080; stroke-width: 0.8"/>
      </g>
     </g>
     <g id="text_6">
      <text style="fill: #808080; font: 22px 'PingFang SC', 'Heiti SC', 'STHeiti', 'Calibri', 'Arial', 'Helvetica Neue', 'Arial Unicode MS', 'Noto Sans CJK SC', 'DejaVu Sans', sans-serif; text-anchor: middle" x="579.237842" y="303.74875" transform="rotate(-0 579.237842 303.74875)">25</text>
     </g>
    </g>
    <g id="xtick_7">
     <g id="line2d_7">
      <g>
       <use xlink:href="#mae53858a31" x="674.570843" y="279.238125" style="fill: #808080; stroke: #808080; stroke-width: 0.8"/>
      </g>
     </g>
     <g id="text_7">
      <text style="fill: #808080; font: 22px 'PingFang SC', 'Heiti SC', 'STHeiti', 'Calibri', 'Arial', 'Helvetica Neue', 'Arial Unicode MS', 'Noto Sans CJK SC', 'DejaVu Sans', sans-serif; text-anchor: middle" x="674.570843" y="303.74875" transform="rotate(-0 674.570843 303.74875)">30</text>
     </g>
    </g>
    <g id="text_8">
     <text style="font: 22px 'PingFang SC', 'Heiti SC', 'STHeiti', 'Calibri', 'Arial', 'Helvetica Neue', 'Arial Unicode MS', 'Noto Sans CJK SC', 'DejaVu Sans', sans-serif; text-anchor: middle" x="385.406875" y="329.1575" transform="rotate(-0 385.406875 329.1575)">t (s)  ·  由各卡 sample.t_s 在同 iter 上取中位</text>
    </g>
   </g>
   <g id="matplotlib.axis_2">
    <g id="ytick_1">
     <g id="line2d_8">
      <path d="M 78.828125 257.398247 
L 691.985625 257.398247 
" clip-path="url(#p2aa9d86bfd)" style="fill: none; stroke-dasharray: 1,1.65; stroke-dashoffset: 0; stroke: #808080; stroke-opacity: 0.55"/>
     </g>
     <g id="line2d_9">
      <defs>
       <path id="m3034218ad8" d="M 0 0 
L -3.5 0 
" style="stroke: #808080; stroke-width: 0.8"/>
      </defs>
      <g>
       <use xlink:href="#m3034218ad8" x="78.828125" y="257.398247" style="fill: #808080; stroke: #808080; stroke-width: 0.8"/>
      </g>
     </g>
     <g id="text_9">
      <text style="fill: #808080; font: 22px 'PingFang SC', 'Heiti SC', 'STHeiti', 'Calibri', 'Arial', 'Helvetica Neue', 'Arial Unicode MS', 'Noto Sans CJK SC', 'DejaVu Sans', sans-serif; text-anchor: end" x="71.828125" y="266.153559" transform="rotate(-0 71.828125 266.153559)">260</text>
     </g>
    </g>
    <g id="ytick_2">
     <g id="line2d_10">
      <path d="M 78.828125 202.515323 
L 691.985625 202.515323 
" clip-path="url(#p2aa9d86bfd)" style="fill: none; stroke-dasharray: 1,1.65; stroke-dashoffset: 0; stroke: #808080; stroke-opacity: 0.55"/>
     </g>
     <g id="line2d_11">
      <g>
       <use xlink:href="#m3034218ad8" x="78.828125" y="202.515323" style="fill: #808080; stroke: #808080; stroke-width: 0.8"/>
      </g>
     </g>
     <g id="text_10">
      <text style="fill: #808080; font: 22px 'PingFang SC', 'Heiti SC', 'STHeiti', 'Calibri', 'Arial', 'Helvetica Neue', 'Arial Unicode MS', 'Noto Sans CJK SC', 'DejaVu Sans', sans-serif; text-anchor: end" x="71.828125" y="211.270635" transform="rotate(-0 71.828125 211.270635)">270</text>
     </g>
    </g>
    <g id="ytick_3">
     <g id="line2d_12">
      <path d="M 78.828125 147.632399 
L 691.985625 147.632399 
" clip-path="url(#p2aa9d86bfd)" style="fill: none; stroke-dasharray: 1,1.65; stroke-dashoffset: 0; stroke: #808080; stroke-opacity: 0.55"/>
     </g>
     <g id="line2d_13">
      <g>
       <use xlink:href="#m3034218ad8" x="78.828125" y="147.632399" style="fill: #808080; stroke: #808080; stroke-width: 0.8"/>
      </g>
     </g>
     <g id="text_11">
      <text style="fill: #808080; font: 22px 'PingFang SC', 'Heiti SC', 'STHeiti', 'Calibri', 'Arial', 'Helvetica Neue', 'Arial Unicode MS', 'Noto Sans CJK SC', 'DejaVu Sans', sans-serif; text-anchor: end" x="71.828125" y="156.387711" transform="rotate(-0 71.828125 156.387711)">280</text>
     </g>
    </g>
    <g id="ytick_4">
     <g id="line2d_14">
      <path d="M 78.828125 92.749475 
L 691.985625 92.749475 
" clip-path="url(#p2aa9d86bfd)" style="fill: none; stroke-dasharray: 1,1.65; stroke-dashoffset: 0; stroke: #808080; stroke-opacity: 0.55"/>
     </g>
     <g id="line2d_15">
      <g>
       <use xlink:href="#m3034218ad8" x="78.828125" y="92.749475" style="fill: #808080; stroke: #808080; stroke-width: 0.8"/>
      </g>
     </g>
     <g id="text_12">
      <text style="fill: #808080; font: 22px 'PingFang SC', 'Heiti SC', 'STHeiti', 'Calibri', 'Arial', 'Helvetica Neue', 'Arial Unicode MS', 'Noto Sans CJK SC', 'DejaVu Sans', sans-serif; text-anchor: end" x="71.828125" y="101.504787" transform="rotate(-0 71.828125 101.504787)">290</text>
     </g>
    </g>
    <g id="ytick_5">
     <g id="line2d_16">
      <path d="M 78.828125 37.866551 
L 691.985625 37.866551 
" clip-path="url(#p2aa9d86bfd)" style="fill: none; stroke-dasharray: 1,1.65; stroke-dashoffset: 0; stroke: #808080; stroke-opacity: 0.55"/>
     </g>
     <g id="line2d_17">
      <g>
       <use xlink:href="#m3034218ad8" x="78.828125" y="37.866551" style="fill: #808080; stroke: #808080; stroke-width: 0.8"/>
      </g>
     </g>
     <g id="text_13">
      <text style="fill: #808080; font: 22px 'PingFang SC', 'Heiti SC', 'STHeiti', 'Calibri', 'Arial', 'Helvetica Neue', 'Arial Unicode MS', 'Noto Sans CJK SC', 'DejaVu Sans', sans-serif; text-anchor: end" x="71.828125" y="46.621863" transform="rotate(-0 71.828125 46.621863)">300</text>
     </g>
    </g>
    <g id="text_14">
     <text style="font: 22px 'PingFang SC', 'Heiti SC', 'STHeiti', 'Calibri', 'Arial', 'Helvetica Neue', 'Arial Unicode MS', 'Noto Sans CJK SC', 'DejaVu Sans', sans-serif; text-anchor: middle" x="28.310625" y="157.159375" transform="rotate(-90 28.310625 157.159375)">TFLOPS</text>
    </g>
   </g>
   <g id="line2d_18">
    <path d="M 106.69892 110.061993 
L 110.525732 194.084993 
L 114.262892 177.366227 
L 118.111854 192.885614 
L 121.854856 176.741642 
L 125.706561 192.743967 
L 129.435086 176.880483 
L 133.270573 193.02521 
L 137.032235 177.06365 
L 140.851532 192.630765 
L 144.652762 176.753136 
L 148.459602 192.628852 
L 152.240172 177.067442 
L 156.085732 192.770408 
L 159.814731 181.509062 
L 163.657137 192.849727 
L 167.411587 176.782101 
L 171.233659 193.053554 
L 174.970021 177.722524 
L 178.762695 192.668463 
L 182.564927 192.86109 
L 186.32389 192.621312 
L 190.130229 176.475495 
L 193.908356 192.825201 
L 197.72429 176.872783 
L 201.4699 192.772321 
L 205.272023 192.171816 
L 209.039857 192.87234 
L 212.866977 193.264858 
L 216.693037 193.010138 
L 220.497739 240.67398 
L 224.365575 193.568496 
L 228.128361 219.601267 
L 231.928358 205.22054 
L 235.704194 209.210084 
L 239.502433 209.60692 
L 243.28542 217.095777 
L 247.118583 227.219686 
L 250.884005 192.896864 
L 254.727033 192.659011 
L 258.507381 181.773548 
L 262.300221 192.830826 
L 266.109967 177.219779 
L 269.873915 192.706272 
L 273.695472 193.079984 
L 277.464785 193.040282 
L 281.285699 176.585414 
L 285.051056 192.651471 
L 288.880461 176.704973 
L 292.647196 192.925212 
L 296.469212 192.768496 
L 300.23752 192.726977 
L 304.041922 176.471586 
L 307.81336 192.570331 
L 311.61172 193.008226 
L 315.388063 193.215833 
L 319.187175 176.72233 
L 322.972455 192.98753 
L 326.826287 190.749728 
L 330.573093 193.336479 
L 334.41859 203.311683 
L 338.144451 202.045114 
L 341.983349 206.872709 
L 345.716741 248.166395 
L 349.554856 193.547703 
L 353.300929 268.140057 
L 357.139607 235.158621 
L 360.8871 196.290199 
L 364.710658 207.028242 
L 368.474155 193.381786 
L 372.278278 179.000268 
L 376.065041 193.070537 
L 379.851253 185.3548 
L 383.634412 193.104502 
L 387.435225 177.402749 
L 391.210368 193.057265 
L 398.792456 192.915763 
L 402.580111 176.695317 
L 406.375097 192.691194 
L 410.161195 184.212001 
L 413.965619 192.721351 
L 417.735449 177.206224 
L 421.536409 192.794936 
L 425.311445 193.079984 
L 429.112542 192.723263 
L 432.886184 189.068971 
L 436.677982 192.944111 
L 440.466547 196.16051 
L 444.255246 192.649558 
L 448.059352 192.632566 
L 451.827387 210.897607 
L 455.641908 201.916427 
L 459.418877 224.760145 
L 463.226427 255.76508 
L 467.03562 205.662209 
L 470.806042 264.81731 
L 474.607025 209.300538 
L 478.396993 193.079984 
L 482.188202 192.891239 
L 485.970835 187.295006 
L 489.777971 192.808212 
L 493.550907 176.581505 
L 497.456082 193.285547 
L 501.243785 192.859177 
L 505.046024 192.81575 
L 508.81806 178.184666 
L 512.653643 192.749706 
L 516.398424 183.319774 
L 520.240959 192.498524 
L 523.976942 186.718667 
L 527.834332 193.340301 
L 531.543065 176.431109 
L 535.41892 192.479727 
L 539.169776 232.688318 
L 543.035531 201.69456 
L 546.739998 192.349373 
L 550.618597 192.460817 
L 554.356626 192.996866 
L 558.201279 192.887414 
L 561.937591 176.550693 
L 565.790136 193.183672 
L 569.650383 210.91781 
L 573.409109 196.656409 
L 577.212882 192.424909 
L 580.991097 267.879635 
L 584.775939 214.059092 
L 588.571699 193.183672 
L 592.339556 209.843138 
L 596.151882 207.161562 
L 599.902213 207.953588 
L 603.731874 193.029034 
L 607.465539 184.893295 
L 611.304249 193.994573 
L 615.050076 190.927623 
L 618.89178 192.743967 
L 622.619199 183.671439 
L 626.462499 192.828914 
L 630.188311 177.152231 
L 634.034703 193.078072 
L 637.773311 186.46545 
L 641.696737 193.079984 
L 645.412425 176.581505 
L 649.278149 192.76287 
L 652.918351 182.89521 
L 656.606128 192.06596 
L 660.408004 176.515969 
L 664.11483 192.18882 
L 664.11483 192.18882 
" clip-path="url(#p2aa9d86bfd)" style="fill: none; stroke: #e45756; stroke-width: 1.6; stroke-linecap: square"/>
   </g>
   <g id="line2d_19">
    <path d="M 106.69892 46.178693 
L 110.525732 176.683822 
L 114.262892 102.245002 
L 118.111854 175.888722 
L 121.854856 102.336266 
L 125.706561 175.888722 
L 129.435086 107.654706 
L 133.270573 173.804587 
L 137.032235 117.579187 
L 140.851532 173.308807 
L 144.652762 117.914553 
L 148.459602 168.522254 
L 152.240172 117.037483 
L 156.085732 165.422037 
L 159.814731 118.210082 
L 163.657137 162.74528 
L 167.411587 120.182503 
L 171.233659 157.418784 
L 174.970021 123.025512 
L 178.762695 160.171397 
L 182.564927 125.111744 
L 186.32389 155.856398 
L 190.130229 121.159746 
L 193.908356 162.806164 
L 197.72429 122.704788 
L 201.4699 149.330745 
L 205.272023 129.704378 
L 209.039857 163.171484 
L 212.866977 143.607635 
L 216.693037 162.900408 
L 220.497739 145.297696 
L 224.365575 167.572285 
L 228.128361 140.489426 
L 231.928358 166.673778 
L 235.704194 138.721974 
L 239.502433 149.200727 
L 243.28542 142.575683 
L 247.118583 153.459942 
L 250.884005 136.373246 
L 254.727033 152.823445 
L 258.507381 141.225213 
L 262.300221 154.006613 
L 266.109967 139.072504 
L 269.873915 157.4742 
L 273.695472 133.531857 
L 277.464785 160.260094 
L 281.285699 133.311434 
L 285.051056 151.337334 
L 288.880461 135.803716 
L 292.647196 147.555304 
L 296.469212 141.330337 
L 300.23752 141.968361 
L 304.041922 139.3764 
L 307.81336 150.633168 
L 311.61172 136.011186 
L 315.388063 163.954441 
L 319.187175 149.314777 
L 322.972455 165.879977 
L 326.826287 170.624921 
L 330.573093 175.927387 
L 334.41859 155.473725 
L 338.144451 175.620318 
L 341.983349 163.200857 
L 345.716741 175.629988 
L 349.554856 157.707493 
L 353.300929 175.759366 
L 357.139607 168.294114 
L 360.8871 175.154758 
L 364.710658 166.003222 
L 368.474155 168.494946 
L 372.278278 161.229214 
L 376.065041 171.26813 
L 379.851253 146.891771 
L 383.634412 147.459149 
L 387.435225 154.386114 
L 391.210368 157.553308 
L 395.006355 150.054084 
L 398.792456 160.782199 
L 402.580111 148.884826 
L 406.375097 151.94324 
L 410.161195 141.43942 
L 413.965619 153.368555 
L 417.735449 138.427972 
L 421.536409 150.982359 
L 425.311445 141.857428 
L 429.112542 147.62147 
L 432.886184 143.968072 
L 436.677982 154.113911 
L 440.466547 150.465415 
L 444.255246 152.566704 
L 448.059352 144.652354 
L 451.827387 159.153639 
L 455.641908 151.969129 
L 459.418877 155.901886 
L 463.226427 149.758423 
L 467.03562 153.318768 
L 470.806042 144.282161 
L 474.607025 150.990326 
L 478.396993 147.8899 
L 482.188202 159.177403 
L 485.970835 144.018469 
L 489.777971 147.911986 
L 493.550907 142.541421 
L 497.456082 154.743538 
L 501.243785 136.889438 
L 505.046024 156.137786 
L 508.81806 139.813744 
L 512.653643 150.393543 
L 516.398424 147.102376 
L 520.240959 154.344325 
L 523.976942 136.810233 
L 527.834332 152.895089 
L 531.543065 142.396182 
L 535.41892 162.593985 
L 539.169776 138.69769 
L 543.035531 154.842688 
L 546.739998 147.879871 
L 550.618597 168.633451 
L 554.356626 141.889674 
L 558.201279 173.328206 
L 561.937591 142.833861 
L 565.790136 175.825083 
L 569.650383 143.807018 
L 573.409109 174.406473 
L 577.212882 160.902399 
L 580.991097 157.988317 
L 584.775939 159.838251 
L 588.571699 173.748503 
L 592.339556 156.619164 
L 596.151882 170.916419 
L 599.902213 147.326902 
L 603.731874 167.390644 
L 607.465539 142.057264 
L 611.304249 164.861891 
L 615.050076 126.212505 
L 618.89178 166.380643 
L 622.619199 135.649077 
L 626.462499 154.23706 
L 630.188311 142.257049 
L 634.034703 153.599194 
L 637.773311 139.920991 
L 641.696737 151.705093 
L 645.412425 137.692509 
L 649.278149 150.177916 
L 652.918351 141.762484 
L 656.606128 146.187463 
L 660.408004 148.770439 
L 664.11483 148.741947 
L 664.11483 148.741947 
" clip-path="url(#p2aa9d86bfd)" style="fill: none; stroke: #4c78a8; stroke-width: 1.8; stroke-linecap: square"/>
   </g>
   <g id="patch_3">
    <path d="M 78.828125 279.238125 
L 78.828125 35.080625 
" style="fill: none; stroke: #808080; stroke-width: 0.8; stroke-linejoin: miter; stroke-linecap: square"/>
   </g>
   <g id="patch_4">
    <path d="M 78.828125 279.238125 
L 691.985625 279.238125 
" style="fill: none; stroke: #808080; stroke-width: 0.8; stroke-linejoin: miter; stroke-linecap: square"/>
   </g>
   <g id="text_15">
    <text style="font: 22px 'PingFang SC', 'Heiti SC', 'STHeiti', 'Calibri', 'Arial', 'Helvetica Neue', 'Arial Unicode MS', 'Noto Sans CJK SC', 'DejaVu Sans', sans-serif; text-anchor: middle" x="385.406875" y="29.080625" transform="rotate(-0 385.406875 29.080625)">Sustained GEMM 时序 · 跨卡 p05 / p50（按 iter 对齐）</text>
   </g>
   <g id="legend_1">
    <g id="patch_5">
     <path d="M 560.38125 79.000625 
L 683.585625 79.000625 
Q 685.985625 79.000625 685.985625 76.600625 
L 685.985625 43.480625 
Q 685.985625 41.080625 683.585625 41.080625 
L 560.38125 41.080625 
Q 557.98125 41.080625 557.98125 43.480625 
L 557.98125 76.600625 
Q 557.98125 79.000625 560.38125 79.000625 
z
" style="fill: #ffffff; opacity: 0.5; stroke: #cccccc; stroke-linejoin: miter"/>
    </g>
    <g id="line2d_20">
     <path d="M 562.78125 51.231875 
L 574.78125 51.231875 
L 586.78125 51.231875 
" style="fill: none; stroke: #e45756; stroke-width: 1.6; stroke-linecap: square"/>
    </g>
    <g id="text_16">
     <text style="font: 12px 'PingFang SC', 'Heiti SC', 'STHeiti', 'Calibri', 'Arial', 'Helvetica Neue', 'Arial Unicode MS', 'Noto Sans CJK SC', 'DejaVu Sans', sans-serif; text-anchor: start" x="596.38125" y="55.431875" transform="rotate(-0 596.38125 55.431875)">cross-card p05</text>
    </g>
    <g id="line2d_21">
     <path d="M 562.78125 68.391875 
L 574.78125 68.391875 
L 586.78125 68.391875 
" style="fill: none; stroke: #4c78a8; stroke-width: 1.8; stroke-linecap: square"/>
    </g>
    <g id="text_17">
     <text style="font: 12px 'PingFang SC', 'Heiti SC', 'STHeiti', 'Calibri', 'Arial', 'Helvetica Neue', 'Arial Unicode MS', 'Noto Sans CJK SC', 'DejaVu Sans', sans-serif; text-anchor: start" x="596.38125" y="72.591875" transform="rotate(-0 596.38125 72.591875)">cross-card p50</text>
    </g>
   </g>
  </g>
 </g>
 <defs>
  <clipPath id="p2aa9d86bfd">
   <rect x="78.828125" y="35.080625" width="613.1575" height="244.1575"/>
  </clipPath>
 </defs>
</svg>
