<?xml version="1.0" encoding="utf-8" standalone="no"?>
<!DOCTYPE svg PUBLIC "-//W3C//DTD SVG 1.1//EN"
  "http://www.w3.org/Graphics/SVG/1.1/DTD/svg11.dtd">
<svg xmlns:xlink="http://www.w3.org/1999/xlink" width="677.941047pt" height="557.758875pt" viewBox="0 0 677.941047 557.758875" xmlns="http://www.w3.org/2000/svg" version="1.1">
 <metadata>
  <rdf:RDF xmlns:dc="http://purl.org/dc/elements/1.1/" xmlns:cc="http://creativecommons.org/ns#" xmlns:rdf="http://www.w3.org/1999/02/22-rdf-syntax-ns#">
   <cc:Work>
    <dc:type rdf:resource="http://purl.org/dc/dcmitype/StillImage"/>
    <dc:date>2026-07-11T20:14:16.374814</dc:date>
    <dc:format>image/svg+xml</dc:format>
    <dc:creator>
     <cc:Agent>
      <dc:title>Matplotlib v3.9.4, https://matplotlib.org/</dc:title>
     </cc:Agent>
    </dc:creator>
   </cc:Work>
  </rdf:RDF>
 </metadata>
 <defs>
  <style type="text/css">*{stroke-linejoin: round; stroke-linecap: butt}</style>
 </defs>
 <g id="figure_1">
  <g id="patch_1">
   <path d="M 0 557.758875 
L 677.941047 557.758875 
L 677.941047 0 
L 0 0 
z
" style="fill: #ffffff"/>
  </g>
  <g id="axes_1">
   <g id="patch_2">
    <path d="M 505.482109 292.11825 
C 505.482109 261.040918 499.360553 230.265774 487.467773 201.554063 
C 475.574993 172.842352 458.142274 146.752445 436.167282 124.777453 
C 414.192289 102.802461 388.102382 85.369742 359.390671 73.476962 
C 330.67896 61.584182 299.903816 55.462625 268.826484 55.462625 
C 237.749152 55.462625 206.974008 61.584182 178.262298 73.476962 
C 149.550587 85.369742 123.460679 102.802461 101.485687 124.777453 
C 79.510695 146.752445 62.077976 172.842352 50.185196 201.554063 
C 38.292416 230.265774 32.170859 261.040918 32.170859 292.11825 
C 32.170859 323.195582 38.292416 353.970726 50.185196 382.682437 
C 62.077976 411.394148 79.510695 437.484055 101.485687 459.459047 
C 123.460679 481.434039 149.550587 498.866758 178.262298 510.759538 
C 206.974008 522.652318 237.749152 528.773875 268.826484 528.773875 
C 299.903816 528.773875 330.67896 522.652318 359.390671 510.759538 
C 388.102382 498.866758 414.192289 481.434039 436.167282 459.459047 
C 458.142274 437.484055 475.574993 411.394148 487.467773 382.682437 
C 499.360553 353.970726 505.482109 323.195582 505.482109 292.11825 
M 268.826484 292.11825 
C 268.826484 292.11825 268.826484 292.11825 268.826484 292.11825 
C 268.826484 292.11825 268.826484 292.11825 268.826484 292.11825 
C 268.826484 292.11825 268.826484 292.11825 268.826484 292.11825 
C 268.826484 292.11825 268.826484 292.11825 268.826484 292.11825 
C 268.826484 292.11825 268.826484 292.11825 268.826484 292.11825 
C 268.826484 292.11825 268.826484 292.11825 268.826484 292.11825 
C 268.826484 292.11825 268.826484 292.11825 268.826484 292.11825 
C 268.826484 292.11825 268.826484 292.11825 268.826484 292.11825 
C 268.826484 292.11825 268.826484 292.11825 268.826484 292.11825 
C 268.826484 292.11825 268.826484 292.11825 268.826484 292.11825 
C 268.826484 292.11825 268.826484 292.11825 268.826484 292.11825 
C 268.826484 292.11825 268.826484 292.11825 268.826484 292.11825 
C 268.826484 292.11825 268.826484 292.11825 268.826484 292.11825 
C 268.826484 292.11825 268.826484 292.11825 268.826484 292.11825 
C 268.826484 292.11825 268.826484 292.11825 268.826484 292.11825 
C 268.826484 292.11825 268.826484 292.11825 268.826484 292.11825 
z
" style="fill: #ffffff"/>
   </g>
   <g id="patch_3">
    <path d="M 379.556235 292.11825 
L 353.171552 207.773182 
L 268.826484 173.860117 
L 185.083622 208.375387 
L 150.995075 292.11825 
L 182.303037 378.641697 
L 268.826484 412.935211 
L 352.495199 375.786964 
z
" clip-path="url(#p2f09520280)" style="fill: #1f77b4; opacity: 0.08; stroke: #1f77b4; stroke-linejoin: miter"/>
   </g>
   <g id="patch_4">
    <path d="M 386.993209 292.11825 
L 352.888369 208.056366 
L 268.826484 173.558073 
L 185.063848 208.355613 
L 148.040865 292.11825 
L 181.685068 379.259666 
L 268.826484 415.984389 
L 352.514084 375.80585 
z
" clip-path="url(#p2f09520280)" style="fill: #ff7f0e; opacity: 0.08; stroke: #ff7f0e; stroke-linejoin: miter"/>
   </g>
   <g id="patch_5">
    <path d="M 380.742211 292.11825 
L 350.450872 210.493862 
L 268.826484 173.784621 
L 185.175852 208.467618 
L 151.288899 292.11825 
L 183.206001 377.738734 
L 268.826484 416.741713 
L 352.423637 375.715402 
z
" clip-path="url(#p2f09520280)" style="fill: #2ca02c; opacity: 0.08; stroke: #2ca02c; stroke-linejoin: miter"/>
   </g>
   <g id="patch_6">
    <path d="M 384.886082 292.11825 
L 349.757844 211.186891 
L 268.826484 173.255702 
L 185.044093 208.335859 
L 151.875941 292.11825 
L 193.225101 367.719634 
L 268.826484 408.754329 
L 352.499475 375.79124 
z
" clip-path="url(#p2f09520280)" style="fill: #d62728; opacity: 0.08; stroke: #d62728; stroke-linejoin: miter"/>
   </g>
   <g id="patch_7">
    <path d="M 389.537406 292.11825 
L 351.835192 209.109543 
L 268.826484 172.620979 
L 187.125016 210.416782 
L 151.03157 292.11825 
L 192.489696 368.455039 
L 268.826484 402.849497 
L 352.476399 375.768165 
z
" clip-path="url(#p2f09520280)" style="fill: #9467bd; opacity: 0.08; stroke: #9467bd; stroke-linejoin: miter"/>
   </g>
   <g id="patch_8">
    <path d="M 396.050905 292.11825 
L 355.747046 205.197689 
L 268.826484 174.799786 
L 185.011139 208.302904 
L 150.148834 292.11825 
L 182.82268 378.122054 
L 268.826484 409.86762 
L 352.483002 375.774768 
z
" clip-path="url(#p2f09520280)" style="fill: #8c564b; opacity: 0.08; stroke: #8c564b; stroke-linejoin: miter"/>
   </g>
   <g id="patch_9">
    <path d="M 384.631186 292.11825 
L 354.173408 206.771327 
L 268.826484 174.347643 
L 185.274594 208.56636 
L 148.562272 292.11825 
L 183.225599 377.719136 
L 268.826484 410.404691 
L 352.51075 375.802515 
z
" clip-path="url(#p2f09520280)" style="fill: #e377c2; opacity: 0.08; stroke: #e377c2; stroke-linejoin: miter"/>
   </g>
   <g id="patch_10">
    <path d="M 393.353772 292.11825 
L 353.351206 207.593528 
L 268.826484 173.883346 
L 185.215372 208.507138 
L 145.693013 292.11825 
L 183.626546 377.318189 
L 268.826484 420.586617 
L 352.510004 375.801769 
z
" clip-path="url(#p2f09520280)" style="fill: #7f7f7f; opacity: 0.08; stroke: #7f7f7f; stroke-linejoin: miter"/>
   </g>
   <g id="matplotlib.axis_1">
    <g id="xtick_1">
     <g id="line2d_1">
      <path d="M 268.826484 292.11825 
L 505.482109 292.11825 
" clip-path="url(#p2f09520280)" style="fill: none; stroke-dasharray: 1,1.65; stroke-dashoffset: 0; stroke: #808080"/>
     </g>
     <g id="text_1">
      <text style="fill: #808080; font: 9px 'PingFang SC', 'Heiti SC', 'STHeiti', 'Calibri', 'Arial', 'Helvetica Neue', 'Arial Unicode MS', 'Noto Sans CJK SC', 'DejaVu Sans', sans-serif; text-anchor: middle" x="519.482109" y="295.096687" transform="rotate(-0 519.482109 295.096687)">Cube</text>
     </g>
    </g>
    <g id="xtick_2">
     <g id="line2d_2">
      <path d="M 268.826484 292.11825 
L 436.167282 124.777453 
" clip-path="url(#p2f09520280)" style="fill: none; stroke-dasharray: 1,1.65; stroke-dashoffset: 0; stroke: #808080"/>
     </g>
     <g id="text_2">
      <text style="fill: #808080; font: 9px 'PingFang SC', 'Heiti SC', 'STHeiti', 'Calibri', 'Arial', 'Helvetica Neue', 'Arial Unicode MS', 'Noto Sans CJK SC', 'DejaVu Sans', sans-serif; text-anchor: middle" x="446.066777" y="117.856395" transform="rotate(-0 446.066777 117.856395)">Sustained</text>
     </g>
    </g>
    <g id="xtick_3">
     <g id="line2d_3">
      <path d="M 268.826484 292.11825 
L 268.826484 55.462625 
" clip-path="url(#p2f09520280)" style="fill: none; stroke-dasharray: 1,1.65; stroke-dashoffset: 0; stroke: #808080"/>
     </g>
     <g id="text_3">
      <text style="fill: #808080; font: 9px 'PingFang SC', 'Heiti SC', 'STHeiti', 'Calibri', 'Arial', 'Helvetica Neue', 'Arial Unicode MS', 'Noto Sans CJK SC', 'DejaVu Sans', sans-serif; text-anchor: middle" x="268.826484" y="44.441063" transform="rotate(-0 268.826484 44.441063)">Vector</text>
     </g>
    </g>
    <g id="xtick_4">
     <g id="line2d_4">
      <path d="M 268.826484 292.11825 
L 101.485687 124.777453 
" clip-path="url(#p2f09520280)" style="fill: none; stroke-dasharray: 1,1.65; stroke-dashoffset: 0; stroke: #808080"/>
     </g>
     <g id="text_4">
      <text style="fill: #808080; font: 9px 'PingFang SC', 'Heiti SC', 'STHeiti', 'Calibri', 'Arial', 'Helvetica Neue', 'Arial Unicode MS', 'Noto Sans CJK SC', 'DejaVu Sans', sans-serif; text-anchor: middle" x="91.586192" y="117.856395" transform="rotate(-0 91.586192 117.856395)">MTE</text>
     </g>
    </g>
    <g id="xtick_5">
     <g id="line2d_5">
      <path d="M 268.826484 292.11825 
L 32.170859 292.11825 
" clip-path="url(#p2f09520280)" style="fill: none; stroke-dasharray: 1,1.65; stroke-dashoffset: 0; stroke: #808080"/>
     </g>
     <g id="text_5">
      <text style="fill: #808080; font: 9px 'PingFang SC', 'Heiti SC', 'STHeiti', 'Calibri', 'Arial', 'Helvetica Neue', 'Arial Unicode MS', 'Noto Sans CJK SC', 'DejaVu Sans', sans-serif; text-anchor: middle" x="18.170859" y="295.096687" transform="rotate(-0 18.170859 295.096687)">SFU</text>
     </g>
    </g>
    <g id="xtick_6">
     <g id="line2d_6">
      <path d="M 268.826484 292.11825 
L 101.485687 459.459047 
" clip-path="url(#p2f09520280)" style="fill: none; stroke-dasharray: 1,1.65; stroke-dashoffset: 0; stroke: #808080"/>
     </g>
     <g id="text_6">
      <text style="fill: #808080; font: 9px 'PingFang SC', 'Heiti SC', 'STHeiti', 'Calibri', 'Arial', 'Helvetica Neue', 'Arial Unicode MS', 'Noto Sans CJK SC', 'DejaVu Sans', sans-serif; text-anchor: middle" x="91.586192" y="472.33698" transform="rotate(-0 91.586192 472.33698)">HBM</text>
     </g>
    </g>
    <g id="xtick_7">
     <g id="line2d_7">
      <path d="M 268.826484 292.11825 
L 268.826484 528.773875 
" clip-path="url(#p2f09520280)" style="fill: none; stroke-dasharray: 1,1.65; stroke-dashoffset: 0; stroke: #808080"/>
     </g>
     <g id="text_7">
      <text style="fill: #808080; font: 9px 'PingFang SC', 'Heiti SC', 'STHeiti', 'Calibri', 'Arial', 'Helvetica Neue', 'Arial Unicode MS', 'Noto Sans CJK SC', 'DejaVu Sans', sans-serif; text-anchor: middle" x="268.826484" y="545.752312" transform="rotate(-0 268.826484 545.752312)">Cube+Vector</text>
     </g>
    </g>
    <g id="xtick_8">
     <g id="line2d_8">
      <path d="M 268.826484 292.11825 
L 436.167282 459.459047 
" clip-path="url(#p2f09520280)" style="fill: none; stroke-dasharray: 1,1.65; stroke-dashoffset: 0; stroke: #808080"/>
     </g>
     <g id="text_8">
      <text style="fill: #808080; font: 9px 'PingFang SC', 'Heiti SC', 'STHeiti', 'Calibri', 'Arial', 'Helvetica Neue', 'Arial Unicode MS', 'Noto Sans CJK SC', 'DejaVu Sans', sans-serif; text-anchor: middle" x="446.066777" y="472.33698" transform="rotate(-0 446.066777 472.33698)">Scalar</text>
     </g>
    </g>
   </g>
   <g id="matplotlib.axis_2">
    <g id="ytick_1">
     <g id="line2d_9">
      <path d="M 268.826484 292.11825 
C 268.826484 292.11825 268.826484 292.11825 268.826484 292.11825 
C 268.826484 292.11825 268.826484 292.11825 268.826484 292.11825 
C 268.826484 292.11825 268.826484 292.11825 268.826484 292.11825 
C 268.826484 292.11825 268.826484 292.11825 268.826484 292.11825 
C 268.826484 292.11825 268.826484 292.11825 268.826484 292.11825 
C 268.826484 292.11825 268.826484 292.11825 268.826484 292.11825 
C 268.826484 292.11825 268.826484 292.11825 268.826484 292.11825 
C 268.826484 292.11825 268.826484 292.11825 268.826484 292.11825 
C 268.826484 292.11825 268.826484 292.11825 268.826484 292.11825 
C 268.826484 292.11825 268.826484 292.11825 268.826484 292.11825 
C 268.826484 292.11825 268.826484 292.11825 268.826484 292.11825 
C 268.826484 292.11825 268.826484 292.11825 268.826484 292.11825 
C 268.826484 292.11825 268.826484 292.11825 268.826484 292.11825 
C 268.826484 292.11825 268.826484 292.11825 268.826484 292.11825 
C 268.826484 292.11825 268.826484 292.11825 268.826484 292.11825 
C 268.826484 292.11825 268.826484 292.11825 268.826484 292.11825 
" clip-path="url(#p2f09520280)" style="fill: none; stroke-dasharray: 1,1.65; stroke-dashoffset: 0; stroke: #808080"/>
     </g>
     <g id="text_9">
      <text style="fill: #808080; font: 22px 'PingFang SC', 'Heiti SC', 'STHeiti', 'Calibri', 'Arial', 'Helvetica Neue', 'Arial Unicode MS', 'Noto Sans CJK SC', 'DejaVu Sans', sans-serif; text-anchor: start" x="268.826484" y="289.168875" transform="rotate(-0 268.826484 289.168875)">0.85</text>
     </g>
    </g>
    <g id="ytick_2">
     <g id="line2d_10">
      <path d="M 308.269089 292.11825 
C 308.269089 286.938695 307.248829 281.809504 305.266699 277.024219 
C 303.284569 272.238934 300.379116 267.890616 296.716617 264.228117 
C 293.054119 260.565618 288.705801 257.660165 283.920516 255.678035 
C 279.13523 253.695905 274.00604 252.675646 268.826484 252.675646 
C 263.646929 252.675646 258.517738 253.695905 253.732453 255.678035 
C 248.947168 257.660165 244.59885 260.565618 240.936352 264.228117 
C 237.273853 267.890616 234.3684 272.238934 232.38627 277.024219 
C 230.40414 281.809504 229.38388 286.938695 229.38388 292.11825 
C 229.38388 297.297805 230.40414 302.426996 232.38627 307.212281 
C 234.3684 311.997566 237.273853 316.345884 240.936352 320.008383 
C 244.59885 323.670882 248.947168 326.576335 253.732453 328.558465 
C 258.517738 330.540595 263.646929 331.560854 268.826484 331.560854 
C 274.00604 331.560854 279.13523 330.540595 283.920516 328.558465 
C 288.705801 326.576335 293.054119 323.670882 296.716617 320.008383 
C 300.379116 316.345884 303.284569 311.997566 305.266699 307.212281 
C 307.248829 302.426996 308.269089 297.297805 308.269089 292.11825 
" clip-path="url(#p2f09520280)" style="fill: none; stroke-dasharray: 1,1.65; stroke-dashoffset: 0; stroke: #808080"/>
     </g>
     <g id="text_10">
      <text style="fill: #808080; font: 22px 'PingFang SC', 'Heiti SC', 'STHeiti', 'Calibri', 'Arial', 'Helvetica Neue', 'Arial Unicode MS', 'Noto Sans CJK SC', 'DejaVu Sans', sans-serif; text-anchor: start" x="305.266699" y="274.074844" transform="rotate(-0 305.266699 274.074844)">0.90</text>
     </g>
    </g>
    <g id="ytick_3">
     <g id="line2d_11">
      <path d="M 347.711693 292.11825 
C 347.711693 281.759139 345.671174 271.500758 341.706914 261.930188 
C 337.742654 252.359617 331.931748 243.662982 324.60675 236.337984 
C 317.281753 229.012987 308.585117 223.202081 299.014547 219.237821 
C 289.443976 215.273561 279.185595 213.233042 268.826484 213.233042 
C 258.467374 213.233042 248.208992 215.273561 238.638422 219.237821 
C 229.067852 223.202081 220.371216 229.012987 213.046219 236.337984 
C 205.721221 243.662982 199.910315 252.359617 195.946055 261.930188 
C 191.981795 271.500758 189.941276 281.759139 189.941276 292.11825 
C 189.941276 302.477361 191.981795 312.735742 195.946055 322.306312 
C 199.910315 331.876883 205.721221 340.573518 213.046219 347.898516 
C 220.371216 355.223513 229.067852 361.034419 238.638422 364.998679 
C 248.208992 368.962939 258.467374 371.003458 268.826484 371.003458 
C 279.185595 371.003458 289.443976 368.962939 299.014547 364.998679 
C 308.585117 361.034419 317.281753 355.223513 324.60675 347.898516 
C 331.931748 340.573518 337.742654 331.876883 341.706914 322.306312 
C 345.671174 312.735742 347.711693 302.477361 347.711693 292.11825 
" clip-path="url(#p2f09520280)" style="fill: none; stroke-dasharray: 1,1.65; stroke-dashoffset: 0; stroke: #808080"/>
     </g>
     <g id="text_11">
      <text style="fill: #808080; font: 22px 'PingFang SC', 'Heiti SC', 'STHeiti', 'Calibri', 'Arial', 'Helvetica Neue', 'Arial Unicode MS', 'Noto Sans CJK SC', 'DejaVu Sans', sans-serif; text-anchor: start" x="341.706914" y="258.980813" transform="rotate(-0 341.706914 258.980813)">0.95</text>
     </g>
    </g>
    <g id="ytick_4">
     <g id="line2d_12">
      <path d="M 387.154297 292.11825 
C 387.154297 276.579584 384.093518 261.192012 378.147128 246.836157 
C 372.200738 232.480301 363.484379 219.435347 352.496883 208.447851 
C 341.509387 197.460355 328.464433 188.743996 314.108578 182.797606 
C 299.752722 176.851216 284.36515 173.790437 268.826484 173.790437 
C 253.287818 173.790437 237.900246 176.851216 223.544391 182.797606 
C 209.188535 188.743996 196.143582 197.460355 185.156086 208.447851 
C 174.16859 219.435347 165.45223 232.480301 159.50584 246.836157 
C 153.55945 261.192012 150.498672 276.579584 150.498672 292.11825 
C 150.498672 307.656916 153.55945 323.044488 159.50584 337.400343 
C 165.45223 351.756199 174.16859 364.801153 185.156086 375.788649 
C 196.143582 386.776145 209.188535 395.492504 223.544391 401.438894 
C 237.900246 407.385284 253.287818 410.446062 268.826484 410.446062 
C 284.36515 410.446062 299.752722 407.385284 314.108578 401.438894 
C 328.464433 395.492504 341.509387 386.776145 352.496883 375.788649 
C 363.484379 364.801153 372.200738 351.756199 378.147128 337.400343 
C 384.093518 323.044488 387.154297 307.656916 387.154297 292.11825 
" clip-path="url(#p2f09520280)" style="fill: none; stroke-dasharray: 1,1.65; stroke-dashoffset: 0; stroke: #808080"/>
     </g>
     <g id="text_12">
      <text style="fill: #808080; font: 22px 'PingFang SC', 'Heiti SC', 'STHeiti', 'Calibri', 'Arial', 'Helvetica Neue', 'Arial Unicode MS', 'Noto Sans CJK SC', 'DejaVu Sans', sans-serif; text-anchor: start" x="378.147128" y="243.886782" transform="rotate(-0 378.147128 243.886782)">1.00</text>
     </g>
    </g>
    <g id="ytick_5">
     <g id="line2d_13">
      <path d="M 426.596901 292.11825 
C 426.596901 271.400029 422.515863 250.883266 414.587343 231.742125 
C 406.658823 212.600985 395.037011 195.207713 380.387016 180.557719 
C 365.737021 165.907724 348.34375 154.285911 329.202609 146.357391 
C 310.061468 138.428871 289.544706 134.347833 268.826484 134.347833 
C 248.108263 134.347833 227.5915 138.428871 208.45036 146.357391 
C 189.309219 154.285911 171.915948 165.907724 157.265953 180.557719 
C 142.615958 195.207713 130.994146 212.600985 123.065626 231.742125 
C 115.137106 250.883266 111.056068 271.400029 111.056068 292.11825 
C 111.056068 312.836471 115.137106 333.353234 123.065626 352.494375 
C 130.994146 371.635515 142.615958 389.028787 157.265953 403.678781 
C 171.915948 418.328776 189.309219 429.950589 208.45036 437.879109 
C 227.5915 445.807629 248.108263 449.888667 268.826484 449.888667 
C 289.544706 449.888667 310.061468 445.807629 329.202609 437.879109 
C 348.34375 429.950589 365.737021 418.328776 380.387016 403.678781 
C 395.037011 389.028787 406.658823 371.635515 414.587343 352.494375 
C 422.515863 333.353234 426.596901 312.836471 426.596901 292.11825 
" clip-path="url(#p2f09520280)" style="fill: none; stroke-dasharray: 1,1.65; stroke-dashoffset: 0; stroke: #808080"/>
     </g>
     <g id="text_13">
      <text style="fill: #808080; font: 22px 'PingFang SC', 'Heiti SC', 'STHeiti', 'Calibri', 'Arial', 'Helvetica Neue', 'Arial Unicode MS', 'Noto Sans CJK SC', 'DejaVu Sans', sans-serif; text-anchor: start" x="414.587343" y="228.79275" transform="rotate(-0 414.587343 228.79275)">1.05</text>
     </g>
    </g>
    <g id="ytick_6">
     <g id="line2d_14">
      <path d="M 466.039505 292.11825 
C 466.039505 266.220473 460.938208 240.57452 451.027558 216.648094 
C 441.116908 192.721669 426.589642 170.980079 408.277149 152.667586 
C 389.964655 134.355092 368.223066 119.827827 344.29664 109.917177 
C 320.370214 100.006526 294.724261 94.905229 268.826484 94.905229 
C 242.928708 94.905229 217.282754 100.006526 193.356329 109.917177 
C 169.429903 119.827827 147.688313 134.355092 129.37582 152.667586 
C 111.063327 170.980079 96.536061 192.721669 86.625411 216.648094 
C 76.714761 240.57452 71.613464 266.220473 71.613464 292.11825 
C 71.613464 318.016027 76.714761 343.66198 86.625411 367.588406 
C 96.536061 391.514831 111.063327 413.256421 129.37582 431.568914 
C 147.688313 449.881408 169.429903 464.408673 193.356329 474.319323 
C 217.282754 484.229974 242.928708 489.331271 268.826484 489.331271 
C 294.724261 489.331271 320.370214 484.229974 344.29664 474.319323 
C 368.223066 464.408673 389.964655 449.881408 408.277149 431.568914 
C 426.589642 413.256421 441.116908 391.514831 451.027558 367.588406 
C 460.938208 343.66198 466.039505 318.016027 466.039505 292.11825 
" clip-path="url(#p2f09520280)" style="fill: none; stroke-dasharray: 1,1.65; stroke-dashoffset: 0; stroke: #808080"/>
     </g>
     <g id="text_14">
      <text style="fill: #808080; font: 22px 'PingFang SC', 'Heiti SC', 'STHeiti', 'Calibri', 'Arial', 'Helvetica Neue', 'Arial Unicode MS', 'Noto Sans CJK SC', 'DejaVu Sans', sans-serif; text-anchor: start" x="451.027558" y="213.698719" transform="rotate(-0 451.027558 213.698719)">1.10</text>
     </g>
    </g>
    <g id="ytick_7">
     <g id="line2d_15">
      <path d="M 505.482109 292.11825 
C 505.482109 261.040918 499.360553 230.265774 487.467773 201.554063 
C 475.574993 172.842352 458.142274 146.752445 436.167282 124.777453 
C 414.192289 102.802461 388.102382 85.369742 359.390671 73.476962 
C 330.67896 61.584182 299.903816 55.462625 268.826484 55.462625 
C 237.749152 55.462625 206.974008 61.584182 178.262298 73.476962 
C 149.550587 85.369742 123.460679 102.802461 101.485687 124.777453 
C 79.510695 146.752445 62.077976 172.842352 50.185196 201.554063 
C 38.292416 230.265774 32.170859 261.040918 32.170859 292.11825 
C 32.170859 323.195582 38.292416 353.970726 50.185196 382.682437 
C 62.077976 411.394148 79.510695 437.484055 101.485687 459.459047 
C 123.460679 481.434039 149.550587 498.866758 178.262298 510.759538 
C 206.974008 522.652318 237.749152 528.773875 268.826484 528.773875 
C 299.903816 528.773875 330.67896 522.652318 359.390671 510.759538 
C 388.102382 498.866758 414.192289 481.434039 436.167282 459.459047 
C 458.142274 437.484055 475.574993 411.394148 487.467773 382.682437 
C 499.360553 353.970726 505.482109 323.195582 505.482109 292.11825 
" clip-path="url(#p2f09520280)" style="fill: none; stroke-dasharray: 1,1.65; stroke-dashoffset: 0; stroke: #808080"/>
     </g>
     <g id="text_15">
      <text style="fill: #808080; font: 22px 'PingFang SC', 'Heiti SC', 'STHeiti', 'Calibri', 'Arial', 'Helvetica Neue', 'Arial Unicode MS', 'Noto Sans CJK SC', 'DejaVu Sans', sans-serif; text-anchor: start" x="487.467773" y="198.604688" transform="rotate(-0 487.467773 198.604688)">1.15</text>
     </g>
    </g>
   </g>
   <g id="line2d_16">
    <path d="M 379.556235 292.11825 
L 353.171552 207.773182 
L 268.826484 173.860117 
L 185.083622 208.375387 
L 150.995075 292.11825 
L 182.303037 378.641697 
L 268.826484 412.935211 
L 352.495199 375.786964 
L 379.556235 292.11825 
" clip-path="url(#p2f09520280)" style="fill: none; stroke: #1f77b4; stroke-width: 1.8; stroke-linecap: square"/>
   </g>
   <g id="line2d_17">
    <path d="M 386.993209 292.11825 
L 352.888369 208.056366 
L 268.826484 173.558073 
L 185.063848 208.355613 
L 148.040865 292.11825 
L 181.685068 379.259666 
L 268.826484 415.984389 
L 352.514084 375.80585 
L 386.993209 292.11825 
" clip-path="url(#p2f09520280)" style="fill: none; stroke: #ff7f0e; stroke-width: 1.8; stroke-linecap: square"/>
   </g>
   <g id="line2d_18">
    <path d="M 380.742211 292.11825 
L 350.450872 210.493862 
L 268.826484 173.784621 
L 185.175852 208.467618 
L 151.288899 292.11825 
L 183.206001 377.738734 
L 268.826484 416.741713 
L 352.423637 375.715402 
L 380.742211 292.11825 
" clip-path="url(#p2f09520280)" style="fill: none; stroke: #2ca02c; stroke-width: 1.8; stroke-linecap: square"/>
   </g>
   <g id="line2d_19">
    <path d="M 384.886082 292.11825 
L 349.757844 211.186891 
L 268.826484 173.255702 
L 185.044093 208.335859 
L 151.875941 292.11825 
L 193.225101 367.719634 
L 268.826484 408.754329 
L 352.499475 375.79124 
L 384.886082 292.11825 
" clip-path="url(#p2f09520280)" style="fill: none; stroke: #d62728; stroke-width: 1.8; stroke-linecap: square"/>
   </g>
   <g id="line2d_20">
    <path d="M 389.537406 292.11825 
L 351.835192 209.109543 
L 268.826484 172.620979 
L 187.125016 210.416782 
L 151.03157 292.11825 
L 192.489696 368.455039 
L 268.826484 402.849497 
L 352.476399 375.768165 
L 389.537406 292.11825 
" clip-path="url(#p2f09520280)" style="fill: none; stroke: #9467bd; stroke-width: 1.8; stroke-linecap: square"/>
   </g>
   <g id="line2d_21">
    <path d="M 396.050905 292.11825 
L 355.747046 205.197689 
L 268.826484 174.799786 
L 185.011139 208.302904 
L 150.148834 292.11825 
L 182.82268 378.122054 
L 268.826484 409.86762 
L 352.483002 375.774768 
L 396.050905 292.11825 
" clip-path="url(#p2f09520280)" style="fill: none; stroke: #8c564b; stroke-width: 1.8; stroke-linecap: square"/>
   </g>
   <g id="line2d_22">
    <path d="M 384.631186 292.11825 
L 354.173408 206.771327 
L 268.826484 174.347643 
L 185.274594 208.56636 
L 148.562272 292.11825 
L 183.225599 377.719136 
L 268.826484 410.404691 
L 352.51075 375.802515 
L 384.631186 292.11825 
" clip-path="url(#p2f09520280)" style="fill: none; stroke: #e377c2; stroke-width: 1.8; stroke-linecap: square"/>
   </g>
   <g id="line2d_23">
    <path d="M 393.353772 292.11825 
L 353.351206 207.593528 
L 268.826484 173.883346 
L 185.215372 208.507138 
L 145.693013 292.11825 
L 183.626546 377.318189 
L 268.826484 420.586617 
L 352.510004 375.801769 
L 393.353772 292.11825 
" clip-path="url(#p2f09520280)" style="fill: none; stroke: #7f7f7f; stroke-width: 1.8; stroke-linecap: square"/>
   </g>
   <g id="line2d_24">
    <path d="M 387.154297 292.11825 
C 387.154297 276.579584 384.093518 261.192012 378.147128 246.836157 
C 372.200738 232.480301 363.484379 219.435347 352.496883 208.447851 
C 341.509387 197.460355 328.464433 188.743996 314.108578 182.797606 
C 299.752722 176.851216 284.36515 173.790437 268.826484 173.790437 
C 253.287818 173.790437 237.900246 176.851216 223.544391 182.797606 
C 209.188535 188.743996 196.143582 197.460355 185.156086 208.447851 
C 174.16859 219.435347 165.45223 232.480301 159.50584 246.836157 
C 153.55945 261.192012 150.498672 276.579584 150.498672 292.11825 
C 150.498672 307.656916 153.55945 323.044488 159.50584 337.400343 
C 165.45223 351.756199 174.16859 364.801153 185.156086 375.788649 
C 196.143582 386.776145 209.188535 395.492504 223.544391 401.438894 
C 237.900246 407.385284 253.287818 410.446062 268.826484 410.446062 
C 284.36515 410.446062 299.752722 407.385284 314.108578 401.438894 
C 328.464433 395.492504 341.509387 386.776145 352.496883 375.788649 
C 363.484379 364.801153 372.200738 351.756199 378.147128 337.400343 
C 384.093518 323.044488 387.154297 307.656916 387.154297 292.11825 
" clip-path="url(#p2f09520280)" style="fill: none; stroke-dasharray: 2.96,1.28; stroke-dashoffset: 0; stroke: #888888; stroke-opacity: 0.6; stroke-width: 0.8"/>
   </g>
   <g id="patch_11">
    <path d="M 505.482109 292.11825 
C 505.482109 261.040918 499.360553 230.265774 487.467773 201.554063 
C 475.574993 172.842352 458.142274 146.752445 436.167282 124.777453 
C 414.192289 102.802461 388.102382 85.369742 359.390671 73.476962 
C 330.67896 61.584182 299.903816 55.462625 268.826484 55.462625 
C 237.749152 55.462625 206.974008 61.584182 178.262298 73.476962 
C 149.550587 85.369742 123.460679 102.802461 101.485687 124.777453 
C 79.510695 146.752445 62.077976 172.842352 50.185196 201.554063 
C 38.292416 230.265774 32.170859 261.040918 32.170859 292.11825 
C 32.170859 323.195582 38.292416 353.970726 50.185196 382.682437 
C 62.077976 411.394148 79.510695 437.484055 101.485687 459.459047 
C 123.460679 481.434039 149.550587 498.866758 178.262298 510.759538 
C 206.974008 522.652318 237.749152 528.773875 268.826484 528.773875 
C 299.903816 528.773875 330.67896 522.652318 359.390671 510.759538 
C 388.102382 498.866758 414.192289 481.434039 436.167282 459.459047 
C 458.142274 437.484055 475.574993 411.394148 487.467773 382.682437 
C 499.360553 353.970726 505.482109 323.195582 505.482109 292.11825 
" style="fill: none; stroke: #808080; stroke-width: 0.8; stroke-linejoin: miter; stroke-linecap: square"/>
   </g>
   <g id="text_16">
    <text style="font: 13px 'PingFang SC', 'Heiti SC', 'STHeiti', 'Calibri', 'Arial', 'Helvetica Neue', 'Arial Unicode MS', 'Noto Sans CJK SC', 'DejaVu Sans', sans-serif" transform="translate(167.653984 21.147187)">各 Host 多指标中位数归一化雷达图</text>
    <text style="font: 13px 'PingFang SC', 'Heiti SC', 'STHeiti', 'Calibri', 'Arial', 'Helvetica Neue', 'Arial Unicode MS', 'Noto Sans CJK SC', 'DejaVu Sans', sans-serif" transform="translate(213.634375 35.462625)">（1.0 = 集群中位）</text>
   </g>
   <g id="legend_1">
    <g id="patch_12">
     <path d="M 606.461047 106.0515 
L 665.541047 106.0515 
Q 667.141047 106.0515 667.141047 104.4515 
L 667.141047 13.7315 
Q 667.141047 12.1315 665.541047 12.1315 
L 606.461047 12.1315 
Q 604.861047 12.1315 604.861047 13.7315 
L 604.861047 104.4515 
Q 604.861047 106.0515 606.461047 106.0515 
z
" style="fill: #ffffff; opacity: 0.5; stroke: #cccccc; stroke-linejoin: miter"/>
    </g>
    <g id="line2d_25">
     <path d="M 608.061047 18.899 
L 616.061047 18.899 
L 624.061047 18.899 
" style="fill: none; stroke: #1f77b4; stroke-width: 1.8; stroke-linecap: square"/>
    </g>
    <g id="text_17">
     <text style="font: 8px 'PingFang SC', 'Heiti SC', 'STHeiti', 'Calibri', 'Arial', 'Helvetica Neue', 'Arial Unicode MS', 'Noto Sans CJK SC', 'DejaVu Sans', sans-serif; text-anchor: start" x="630.461047" y="21.699" transform="rotate(-0 630.461047 21.699)">master-0</text>
    </g>
    <g id="line2d_26">
     <path d="M 608.061047 30.339 
L 616.061047 30.339 
L 624.061047 30.339 
" style="fill: none; stroke: #ff7f0e; stroke-width: 1.8; stroke-linecap: square"/>
    </g>
    <g id="text_18">
     <text style="font: 8px 'PingFang SC', 'Heiti SC', 'STHeiti', 'Calibri', 'Arial', 'Helvetica Neue', 'Arial Unicode MS', 'Noto Sans CJK SC', 'DejaVu Sans', sans-serif; text-anchor: start" x="630.461047" y="33.139" transform="rotate(-0 630.461047 33.139)">worker-0</text>
    </g>
    <g id="line2d_27">
     <path d="M 608.061047 41.779 
L 616.061047 41.779 
L 624.061047 41.779 
" style="fill: none; stroke: #2ca02c; stroke-width: 1.8; stroke-linecap: square"/>
    </g>
    <g id="text_19">
     <text style="font: 8px 'PingFang SC', 'Heiti SC', 'STHeiti', 'Calibri', 'Arial', 'Helvetica Neue', 'Arial Unicode MS', 'Noto Sans CJK SC', 'DejaVu Sans', sans-serif; text-anchor: start" x="630.461047" y="44.579" transform="rotate(-0 630.461047 44.579)">worker-1</text>
    </g>
    <g id="line2d_28">
     <path d="M 608.061047 53.219 
L 616.061047 53.219 
L 624.061047 53.219 
" style="fill: none; stroke: #d62728; stroke-width: 1.8; stroke-linecap: square"/>
    </g>
    <g id="text_20">
     <text style="font: 8px 'PingFang SC', 'Heiti SC', 'STHeiti', 'Calibri', 'Arial', 'Helvetica Neue', 'Arial Unicode MS', 'Noto Sans CJK SC', 'DejaVu Sans', sans-serif; text-anchor: start" x="630.461047" y="56.019" transform="rotate(-0 630.461047 56.019)">worker-2</text>
    </g>
    <g id="line2d_29">
     <path d="M 608.061047 64.659 
L 616.061047 64.659 
L 624.061047 64.659 
" style="fill: none; stroke: #9467bd; stroke-width: 1.8; stroke-linecap: square"/>
    </g>
    <g id="text_21">
     <text style="font: 8px 'PingFang SC', 'Heiti SC', 'STHeiti', 'Calibri', 'Arial', 'Helvetica Neue', 'Arial Unicode MS', 'Noto Sans CJK SC', 'DejaVu Sans', sans-serif; text-anchor: start" x="630.461047" y="67.459" transform="rotate(-0 630.461047 67.459)">worker-3</text>
    </g>
    <g id="line2d_30">
     <path d="M 608.061047 76.099 
L 616.061047 76.099 
L 624.061047 76.099 
" style="fill: none; stroke: #8c564b; stroke-width: 1.8; stroke-linecap: square"/>
    </g>
    <g id="text_22">
     <text style="font: 8px 'PingFang SC', 'Heiti SC', 'STHeiti', 'Calibri', 'Arial', 'Helvetica Neue', 'Arial Unicode MS', 'Noto Sans CJK SC', 'DejaVu Sans', sans-serif; text-anchor: start" x="630.461047" y="78.899" transform="rotate(-0 630.461047 78.899)">worker-4</text>
    </g>
    <g id="line2d_31">
     <path d="M 608.061047 87.539 
L 616.061047 87.539 
L 624.061047 87.539 
" style="fill: none; stroke: #e377c2; stroke-width: 1.8; stroke-linecap: square"/>
    </g>
    <g id="text_23">
     <text style="font: 8px 'PingFang SC', 'Heiti SC', 'STHeiti', 'Calibri', 'Arial', 'Helvetica Neue', 'Arial Unicode MS', 'Noto Sans CJK SC', 'DejaVu Sans', sans-serif; text-anchor: start" x="630.461047" y="90.339" transform="rotate(-0 630.461047 90.339)">worker-5</text>
    </g>
    <g id="line2d_32">
     <path d="M 608.061047 98.979 
L 616.061047 98.979 
L 624.061047 98.979 
" style="fill: none; stroke: #7f7f7f; stroke-width: 1.8; stroke-linecap: square"/>
    </g>
    <g id="text_24">
     <text style="font: 8px 'PingFang SC', 'Heiti SC', 'STHeiti', 'Calibri', 'Arial', 'Helvetica Neue', 'Arial Unicode MS', 'Noto Sans CJK SC', 'DejaVu Sans', sans-serif; text-anchor: start" x="630.461047" y="101.779" transform="rotate(-0 630.461047 101.779)">worker-6</text>
    </g>
   </g>
  </g>
 </g>
 <defs>
  <clipPath id="p2f09520280">
   <path d="M 505.482109 292.11825 
C 505.482109 261.040918 499.360553 230.265774 487.467773 201.554063 
C 475.574993 172.842352 458.142274 146.752445 436.167282 124.777453 
C 414.192289 102.802461 388.102382 85.369742 359.390671 73.476962 
C 330.67896 61.584182 299.903816 55.462625 268.826484 55.462625 
C 237.749152 55.462625 206.974008 61.584182 178.262298 73.476962 
C 149.550587 85.369742 123.460679 102.802461 101.485687 124.777453 
C 79.510695 146.752445 62.077976 172.842352 50.185196 201.554063 
C 38.292416 230.265774 32.170859 261.040918 32.170859 292.11825 
C 32.170859 323.195582 38.292416 353.970726 50.185196 382.682437 
C 62.077976 411.394148 79.510695 437.484055 101.485687 459.459047 
C 123.460679 481.434039 149.550587 498.866758 178.262298 510.759538 
C 206.974008 522.652318 237.749152 528.773875 268.826484 528.773875 
C 299.903816 528.773875 330.67896 522.652318 359.390671 510.759538 
C 388.102382 498.866758 414.192289 481.434039 436.167282 459.459047 
C 458.142274 437.484055 475.574993 411.394148 487.467773 382.682437 
C 499.360553 353.970726 505.482109 323.195582 505.482109 292.11825 
M 268.826484 292.11825 
C 268.826484 292.11825 268.826484 292.11825 268.826484 292.11825 
C 268.826484 292.11825 268.826484 292.11825 268.826484 292.11825 
C 268.826484 292.11825 268.826484 292.11825 268.826484 292.11825 
C 268.826484 292.11825 268.826484 292.11825 268.826484 292.11825 
C 268.826484 292.11825 268.826484 292.11825 268.826484 292.11825 
C 268.826484 292.11825 268.826484 292.11825 268.826484 292.11825 
C 268.826484 292.11825 268.826484 292.11825 268.826484 292.11825 
C 268.826484 292.11825 268.826484 292.11825 268.826484 292.11825 
C 268.826484 292.11825 268.826484 292.11825 268.826484 292.11825 
C 268.826484 292.11825 268.826484 292.11825 268.826484 292.11825 
C 268.826484 292.11825 268.826484 292.11825 268.826484 292.11825 
C 268.826484 292.11825 268.826484 292.11825 268.826484 292.11825 
C 268.826484 292.11825 268.826484 292.11825 268.826484 292.11825 
C 268.826484 292.11825 268.826484 292.11825 268.826484 292.11825 
C 268.826484 292.11825 268.826484 292.11825 268.826484 292.11825 
C 268.826484 292.11825 268.826484 292.11825 268.826484 292.11825 
z
"/>
  </clipPath>
 </defs>
</svg>
