<?xml version="1.0" encoding="utf-8" standalone="no"?>
<!DOCTYPE svg PUBLIC "-//W3C//DTD SVG 1.1//EN"
  "http://www.w3.org/Graphics/SVG/1.1/DTD/svg11.dtd">
<svg xmlns:xlink="http://www.w3.org/1999/xlink" width="1050.29642pt" height="656.854062pt" viewBox="0 0 1050.29642 656.854062" xmlns="http://www.w3.org/2000/svg" version="1.1">
 <metadata>
  <rdf:RDF xmlns:dc="http://purl.org/dc/elements/1.1/" xmlns:cc="http://creativecommons.org/ns#" xmlns:rdf="http://www.w3.org/1999/02/22-rdf-syntax-ns#">
   <cc:Work>
    <dc:type rdf:resource="http://purl.org/dc/dcmitype/StillImage"/>
    <dc:date>2026-07-11T22:39:34.578164</dc:date>
    <dc:format>image/svg+xml</dc:format>
    <dc:creator>
     <cc:Agent>
      <dc:title>Matplotlib v3.9.4, https://matplotlib.org/</dc:title>
     </cc:Agent>
    </dc:creator>
   </cc:Work>
  </rdf:RDF>
 </metadata>
 <defs>
  <style type="text/css">*{stroke-linejoin: round; stroke-linecap: butt}</style>
 </defs>
 <g id="figure_1">
  <g id="patch_1">
   <path d="M 0 656.854062 
L 1050.29642 656.854062 
L 1050.29642 -0 
L 0 -0 
z
" style="fill: #ffffff"/>
  </g>
  <g id="axes_1">
   <g id="patch_2">
    <path d="M 72.733438 296.063594 
L 325.244706 296.063594 
L 325.244706 83.427187 
L 72.733438 83.427187 
z
" style="fill: #ffffff"/>
   </g>
   <g id="matplotlib.axis_1">
    <g id="xtick_1">
     <g id="line2d_1">
      <defs>
       <path id="m66159a1a09" d="M 0 0 
L 0 3.5 
" style="stroke: #808080; stroke-width: 0.8"/>
      </defs>
      <g>
       <use xlink:href="#m66159a1a09" x="110.162671" y="296.063594" style="fill: #808080; stroke: #808080; stroke-width: 0.8"/>
      </g>
     </g>
     <g id="text_1">
      <text style="fill: #808080; font: 22px 'PingFang SC', 'Heiti SC', 'STHeiti', 'Calibri', 'Arial', 'Helvetica Neue', 'Arial Unicode MS', 'Noto Sans CJK SC', 'DejaVu Sans', sans-serif; text-anchor: middle" x="110.162671" y="320.574219" transform="rotate(-0 110.162671 320.574219)">275</text>
     </g>
    </g>
    <g id="xtick_2">
     <g id="line2d_2">
      <g>
       <use xlink:href="#m66159a1a09" x="184.37386" y="296.063594" style="fill: #808080; stroke: #808080; stroke-width: 0.8"/>
      </g>
     </g>
     <g id="text_2">
      <text style="fill: #808080; font: 22px 'PingFang SC', 'Heiti SC', 'STHeiti', 'Calibri', 'Arial', 'Helvetica Neue', 'Arial Unicode MS', 'Noto Sans CJK SC', 'DejaVu Sans', sans-serif; text-anchor: middle" x="184.37386" y="320.574219" transform="rotate(-0 184.37386 320.574219)">280</text>
     </g>
    </g>
    <g id="xtick_3">
     <g id="line2d_3">
      <g>
       <use xlink:href="#m66159a1a09" x="258.585049" y="296.063594" style="fill: #808080; stroke: #808080; stroke-width: 0.8"/>
      </g>
     </g>
     <g id="text_3">
      <text style="fill: #808080; font: 22px 'PingFang SC', 'Heiti SC', 'STHeiti', 'Calibri', 'Arial', 'Helvetica Neue', 'Arial Unicode MS', 'Noto Sans CJK SC', 'DejaVu Sans', sans-serif; text-anchor: middle" x="258.585049" y="320.574219" transform="rotate(-0 258.585049 320.574219)">285</text>
     </g>
    </g>
    <g id="text_4">
     <text style="font: 22px 'PingFang SC', 'Heiti SC', 'STHeiti', 'Calibri', 'Arial', 'Helvetica Neue', 'Arial Unicode MS', 'Noto Sans CJK SC', 'DejaVu Sans', sans-serif; text-anchor: middle" x="198.989072" y="345.034219" transform="rotate(-0 198.989072 345.034219)">GEMM func TFLOPS</text>
    </g>
   </g>
   <g id="matplotlib.axis_2">
    <g id="ytick_1">
     <g id="line2d_4">
      <path d="M 72.733438 287.932476 
L 325.244706 287.932476 
" clip-path="url(#pbe6fdc23c3)" style="fill: none; stroke-dasharray: 1,1.65; stroke-dashoffset: 0; stroke: #808080; stroke-opacity: 0.55"/>
     </g>
     <g id="line2d_5">
      <defs>
       <path id="m831bb11fae" d="M 0 0 
L -3.5 0 
" style="stroke: #808080; stroke-width: 0.8"/>
      </defs>
      <g>
       <use xlink:href="#m831bb11fae" x="72.733438" y="287.932476" style="fill: #808080; stroke: #808080; stroke-width: 0.8"/>
      </g>
     </g>
     <g id="text_5">
      <text style="fill: #808080; font: 22px 'PingFang SC', 'Heiti SC', 'STHeiti', 'Calibri', 'Arial', 'Helvetica Neue', 'Arial Unicode MS', 'Noto Sans CJK SC', 'DejaVu Sans', sans-serif; text-anchor: end" x="65.733438" y="296.687788" transform="rotate(-0 65.733438 296.687788)">0.0</text>
     </g>
    </g>
    <g id="ytick_2">
     <g id="line2d_6">
      <path d="M 72.733438 190.512477 
L 325.244706 190.512477 
" clip-path="url(#pbe6fdc23c3)" style="fill: none; stroke-dasharray: 1,1.65; stroke-dashoffset: 0; stroke: #808080; stroke-opacity: 0.55"/>
     </g>
     <g id="line2d_7">
      <g>
       <use xlink:href="#m831bb11fae" x="72.733438" y="190.512477" style="fill: #808080; stroke: #808080; stroke-width: 0.8"/>
      </g>
     </g>
     <g id="text_6">
      <text style="fill: #808080; font: 22px 'PingFang SC', 'Heiti SC', 'STHeiti', 'Calibri', 'Arial', 'Helvetica Neue', 'Arial Unicode MS', 'Noto Sans CJK SC', 'DejaVu Sans', sans-serif; text-anchor: end" x="65.733438" y="199.26779" transform="rotate(-0 65.733438 199.26779)">0.5</text>
     </g>
    </g>
    <g id="ytick_3">
     <g id="line2d_8">
      <path d="M 72.733438 93.092479 
L 325.244706 93.092479 
" clip-path="url(#pbe6fdc23c3)" style="fill: none; stroke-dasharray: 1,1.65; stroke-dashoffset: 0; stroke: #808080; stroke-opacity: 0.55"/>
     </g>
     <g id="line2d_9">
      <g>
       <use xlink:href="#m831bb11fae" x="72.733438" y="93.092479" style="fill: #808080; stroke: #808080; stroke-width: 0.8"/>
      </g>
     </g>
     <g id="text_7">
      <text style="fill: #808080; font: 22px 'PingFang SC', 'Heiti SC', 'STHeiti', 'Calibri', 'Arial', 'Helvetica Neue', 'Arial Unicode MS', 'Noto Sans CJK SC', 'DejaVu Sans', sans-serif; text-anchor: end" x="65.733438" y="101.847791" transform="rotate(-0 65.733438 101.847791)">1.0</text>
     </g>
    </g>
    <g id="text_8">
     <text style="font: 22px 'PingFang SC', 'Heiti SC', 'STHeiti', 'Calibri', 'Arial', 'Helvetica Neue', 'Arial Unicode MS', 'Noto Sans CJK SC', 'DejaVu Sans', sans-serif; text-anchor: middle" x="28.310625" y="189.745391" transform="rotate(-90 28.310625 189.745391)">累积概率</text>
    </g>
   </g>
   <g id="line2d_10">
    <path d="M 84.211222 286.398303 
L 88.861184 284.864129 
L 95.077584 283.329956 
L 107.30661 281.795783 
L 108.350537 280.26161 
L 108.611724 278.727437 
L 113.579418 277.193263 
L 117.772183 275.65909 
L 120.922409 274.124917 
L 122.762222 272.590744 
L 126.973868 271.056571 
L 126.973868 269.522397 
L 127.764455 267.988224 
L 130.138293 266.454051 
L 134.89398 264.919878 
L 135.422961 263.385704 
L 135.687626 261.851531 
L 135.952325 260.317358 
L 136.481579 258.783185 
L 140.721512 257.249012 
L 142.844763 255.714838 
L 143.110385 254.180665 
L 143.376042 252.646492 
L 144.17297 251.112319 
L 147.896219 249.578146 
L 148.162494 248.043972 
L 150.026887 246.509799 
L 150.026887 244.975626 
L 150.826394 243.441453 
L 151.359737 241.90728 
L 151.62646 240.373106 
L 154.294843 238.838933 
L 154.294843 237.30476 
L 155.630454 235.770587 
L 155.89773 234.236414 
L 155.89773 232.70224 
L 156.432137 231.168067 
L 157.234131 229.633894 
L 157.501614 228.099721 
L 158.036436 226.565548 
L 158.036436 225.031374 
L 158.571646 223.497201 
L 160.17761 221.963028 
L 161.249029 220.428855 
L 161.785072 218.894682 
L 163.125539 217.360508 
L 163.393536 215.826335 
L 163.661819 214.292162 
L 164.198488 212.757989 
L 164.198488 211.223815 
L 165.808831 209.689642 
L 167.151909 208.155469 
L 167.420429 206.621296 
L 167.689234 205.087123 
L 167.689234 203.552949 
L 170.109552 202.018776 
L 170.378706 200.484603 
L 170.647645 198.95043 
L 171.724503 197.416257 
L 171.724503 195.882083 
L 172.80192 194.34791 
L 173.071425 192.813737 
L 173.610288 191.279564 
L 174.149543 189.745391 
L 176.577423 188.211217 
L 176.847168 186.677044 
L 178.46763 185.142871 
L 179.27821 183.608698 
L 179.548558 182.074525 
L 180.089107 180.540351 
L 180.630049 179.006178 
L 181.441474 177.472005 
L 182.253217 175.937832 
L 182.253217 174.403659 
L 183.065276 172.869485 
L 184.148601 171.335312 
L 187.944816 169.801139 
L 187.944816 168.266966 
L 188.487555 166.732793 
L 188.487555 165.198619 
L 189.030687 163.664446 
L 189.302307 162.130273 
L 190.117126 160.5961 
L 192.563498 159.061927 
L 193.107695 157.527753 
L 193.651782 155.99358 
L 193.924005 154.459407 
L 194.740635 152.925234 
L 195.830058 151.39106 
L 197.465388 149.856887 
L 198.283407 148.322714 
L 198.828847 146.788541 
L 199.920409 145.254368 
L 201.012543 143.720194 
L 203.198527 142.186021 
L 203.471999 140.651848 
L 207.029643 139.117675 
L 208.125503 137.583502 
L 210.044578 136.049328 
L 211.14202 134.515155 
L 213.613436 132.980982 
L 215.812391 131.446809 
L 219.391106 129.912636 
L 219.666705 128.378462 
L 223.804006 126.844289 
L 224.356143 125.310116 
L 224.908683 123.775943 
L 229.610124 122.24177 
L 230.717862 120.707596 
L 233.212215 119.173423 
L 233.76709 117.63925 
L 236.820747 116.105077 
L 237.654285 114.570904 
L 238.76627 113.03673 
L 238.76627 111.502557 
L 238.76627 109.968384 
L 247.124788 108.434211 
L 252.715683 106.900038 
L 255.796931 105.365864 
L 256.638265 103.831691 
L 260.286874 102.297518 
L 261.129735 100.763345 
L 262.816727 99.229172 
L 275.794001 97.694998 
L 277.492441 96.160825 
L 284.584538 94.626652 
L 313.766921 93.092479 
" clip-path="url(#pbe6fdc23c3)" style="fill: none; stroke: #4c78a8; stroke-width: 2; stroke-linecap: square"/>
   </g>
   <g id="line2d_11">
    <path d="M 174.149543 296.063594 
L 174.149543 83.427187 
" clip-path="url(#pbe6fdc23c3)" style="fill: none; stroke-dasharray: 4.44,1.92; stroke-dashoffset: 0; stroke: #e45756; stroke-width: 1.2"/>
   </g>
   <g id="patch_3">
    <path d="M 72.733438 296.063594 
L 72.733438 83.427187 
" style="fill: none; stroke: #808080; stroke-width: 0.8; stroke-linejoin: miter; stroke-linecap: square"/>
   </g>
   <g id="patch_4">
    <path d="M 72.733437 296.063594 
L 325.244706 296.063594 
" style="fill: none; stroke: #808080; stroke-width: 0.8; stroke-linejoin: miter; stroke-linecap: square"/>
   </g>
   <g id="text_9">
    <text style="font: 10px 'PingFang SC', 'Heiti SC', 'STHeiti', 'Calibri', 'Arial', 'Helvetica Neue', 'Arial Unicode MS', 'Noto Sans CJK SC', 'DejaVu Sans', sans-serif; text-anchor: middle" x="198.989072" y="77.427187" transform="rotate(-0 198.989072 77.427187)">GEMM func TFLOPS</text>
   </g>
   <g id="legend_1">
    <g id="patch_5">
     <path d="M 77.633438 109.067969 
L 135.727969 109.067969 
Q 137.127969 109.067969 137.127969 107.667969 
L 137.127969 88.327187 
Q 137.127969 86.927187 135.727969 86.927187 
L 77.633438 86.927187 
Q 76.233438 86.927187 76.233438 88.327187 
L 76.233438 107.667969 
Q 76.233438 109.067969 77.633438 109.067969 
z
" style="fill: #ffffff; opacity: 0.5; stroke: #cccccc; stroke-linejoin: miter"/>
    </g>
    <g id="line2d_12">
     <path d="M 79.033438 92.869531 
L 86.033438 92.869531 
L 93.033438 92.869531 
" style="fill: none; stroke: #4c78a8; stroke-width: 2; stroke-linecap: square"/>
    </g>
    <g id="text_10">
     <text style="font: 7px 'PingFang SC', 'Heiti SC', 'STHeiti', 'Calibri', 'Arial', 'Helvetica Neue', 'Arial Unicode MS', 'Noto Sans CJK SC', 'DejaVu Sans', sans-serif; text-anchor: start" x="98.633438" y="95.319531" transform="rotate(-0 98.633438 95.319531)">全集群</text>
    </g>
    <g id="line2d_13">
     <path d="M 79.033438 102.879531 
L 86.033438 102.879531 
L 93.033438 102.879531 
" style="fill: none; stroke-dasharray: 4.44,1.92; stroke-dashoffset: 0; stroke: #e45756; stroke-width: 1.2"/>
    </g>
    <g id="text_11">
     <text style="font: 7px 'PingFang SC', 'Heiti SC', 'STHeiti', 'Calibri', 'Arial', 'Helvetica Neue', 'Arial Unicode MS', 'Noto Sans CJK SC', 'DejaVu Sans', sans-serif; text-anchor: start" x="98.633438" y="105.329531" transform="rotate(-0 98.633438 105.329531)">中位=279.3</text>
    </g>
   </g>
  </g>
  <g id="axes_2">
   <g id="patch_6">
    <path d="M 425.553241 296.063594 
L 678.06451 296.063594 
L 678.06451 83.427187 
L 425.553241 83.427187 
z
" style="fill: #ffffff"/>
   </g>
   <g id="matplotlib.axis_3">
    <g id="xtick_4">
     <g id="line2d_14">
      <g>
       <use xlink:href="#m66159a1a09" x="447.211537" y="296.063594" style="fill: #808080; stroke: #808080; stroke-width: 0.8"/>
      </g>
     </g>
     <g id="text_12">
      <text style="fill: #808080; font: 22px 'PingFang SC', 'Heiti SC', 'STHeiti', 'Calibri', 'Arial', 'Helvetica Neue', 'Arial Unicode MS', 'Noto Sans CJK SC', 'DejaVu Sans', sans-serif; text-anchor: middle" x="447.211537" y="320.574219" transform="rotate(-0 447.211537 320.574219)">1000</text>
     </g>
    </g>
    <g id="xtick_5">
     <g id="line2d_15">
      <g>
       <use xlink:href="#m66159a1a09" x="538.024871" y="296.063594" style="fill: #808080; stroke: #808080; stroke-width: 0.8"/>
      </g>
     </g>
     <g id="text_13">
      <text style="fill: #808080; font: 22px 'PingFang SC', 'Heiti SC', 'STHeiti', 'Calibri', 'Arial', 'Helvetica Neue', 'Arial Unicode MS', 'Noto Sans CJK SC', 'DejaVu Sans', sans-serif; text-anchor: middle" x="538.024871" y="320.574219" transform="rotate(-0 538.024871 320.574219)">1200</text>
     </g>
    </g>
    <g id="xtick_6">
     <g id="line2d_16">
      <g>
       <use xlink:href="#m66159a1a09" x="628.838205" y="296.063594" style="fill: #808080; stroke: #808080; stroke-width: 0.8"/>
      </g>
     </g>
     <g id="text_14">
      <text style="fill: #808080; font: 22px 'PingFang SC', 'Heiti SC', 'STHeiti', 'Calibri', 'Arial', 'Helvetica Neue', 'Arial Unicode MS', 'Noto Sans CJK SC', 'DejaVu Sans', sans-serif; text-anchor: middle" x="628.838205" y="320.574219" transform="rotate(-0 628.838205 320.574219)">1400</text>
     </g>
    </g>
    <g id="text_15">
     <text style="font: 22px 'PingFang SC', 'Heiti SC', 'STHeiti', 'Calibri', 'Arial', 'Helvetica Neue', 'Arial Unicode MS', 'Noto Sans CJK SC', 'DejaVu Sans', sans-serif; text-anchor: middle" x="551.808876" y="345.034219" transform="rotate(-0 551.808876 345.034219)">HBM GB/s</text>
    </g>
   </g>
   <g id="matplotlib.axis_4">
    <g id="ytick_4">
     <g id="line2d_17">
      <path d="M 425.553241 287.932476 
L 678.06451 287.932476 
" clip-path="url(#p5e7df63e4b)" style="fill: none; stroke-dasharray: 1,1.65; stroke-dashoffset: 0; stroke: #808080; stroke-opacity: 0.55"/>
     </g>
     <g id="line2d_18">
      <g>
       <use xlink:href="#m831bb11fae" x="425.553241" y="287.932476" style="fill: #808080; stroke: #808080; stroke-width: 0.8"/>
      </g>
     </g>
     <g id="text_16">
      <text style="fill: #808080; font: 22px 'PingFang SC', 'Heiti SC', 'STHeiti', 'Calibri', 'Arial', 'Helvetica Neue', 'Arial Unicode MS', 'Noto Sans CJK SC', 'DejaVu Sans', sans-serif; text-anchor: end" x="418.553241" y="296.687788" transform="rotate(-0 418.553241 296.687788)">0.0</text>
     </g>
    </g>
    <g id="ytick_5">
     <g id="line2d_19">
      <path d="M 425.553241 190.512477 
L 678.06451 190.512477 
" clip-path="url(#p5e7df63e4b)" style="fill: none; stroke-dasharray: 1,1.65; stroke-dashoffset: 0; stroke: #808080; stroke-opacity: 0.55"/>
     </g>
     <g id="line2d_20">
      <g>
       <use xlink:href="#m831bb11fae" x="425.553241" y="190.512477" style="fill: #808080; stroke: #808080; stroke-width: 0.8"/>
      </g>
     </g>
     <g id="text_17">
      <text style="fill: #808080; font: 22px 'PingFang SC', 'Heiti SC', 'STHeiti', 'Calibri', 'Arial', 'Helvetica Neue', 'Arial Unicode MS', 'Noto Sans CJK SC', 'DejaVu Sans', sans-serif; text-anchor: end" x="418.553241" y="199.26779" transform="rotate(-0 418.553241 199.26779)">0.5</text>
     </g>
    </g>
    <g id="ytick_6">
     <g id="line2d_21">
      <path d="M 425.553241 93.092479 
L 678.06451 93.092479 
" clip-path="url(#p5e7df63e4b)" style="fill: none; stroke-dasharray: 1,1.65; stroke-dashoffset: 0; stroke: #808080; stroke-opacity: 0.55"/>
     </g>
     <g id="line2d_22">
      <g>
       <use xlink:href="#m831bb11fae" x="425.553241" y="93.092479" style="fill: #808080; stroke: #808080; stroke-width: 0.8"/>
      </g>
     </g>
     <g id="text_18">
      <text style="fill: #808080; font: 22px 'PingFang SC', 'Heiti SC', 'STHeiti', 'Calibri', 'Arial', 'Helvetica Neue', 'Arial Unicode MS', 'Noto Sans CJK SC', 'DejaVu Sans', sans-serif; text-anchor: end" x="418.553241" y="101.847791" transform="rotate(-0 418.553241 101.847791)">1.0</text>
     </g>
    </g>
    <g id="text_19">
     <text style="font: 22px 'PingFang SC', 'Heiti SC', 'STHeiti', 'Calibri', 'Arial', 'Helvetica Neue', 'Arial Unicode MS', 'Noto Sans CJK SC', 'DejaVu Sans', sans-serif; text-anchor: middle" x="381.130429" y="189.745391" transform="rotate(-90 381.130429 189.745391)">累积概率</text>
    </g>
   </g>
   <g id="line2d_23">
    <path d="M 437.031026 286.398303 
L 452.003709 284.864129 
L 456.807355 283.329956 
L 461.827925 281.795783 
L 462.17423 280.26161 
L 462.347547 278.727437 
L 462.347547 277.193263 
L 463.216112 275.65909 
L 463.506367 274.124917 
L 463.855103 272.590744 
L 463.913294 271.056571 
L 464.029665 269.522397 
L 464.320926 267.988224 
L 464.670926 266.454051 
L 465.021391 264.919878 
L 465.372378 263.385704 
L 465.548122 261.851531 
L 465.665303 260.317358 
L 465.958591 258.783185 
L 531.822179 257.249012 
L 600.251564 255.714838 
L 604.048985 254.180665 
L 606.113553 252.646492 
L 606.310904 251.112319 
L 606.804816 249.578146 
L 607.695884 248.043972 
L 607.795077 246.509799 
L 607.993513 244.975626 
L 608.390769 243.441453 
L 608.49014 241.90728 
L 608.49014 240.373106 
L 608.589589 238.838933 
L 608.788539 237.30476 
L 608.888038 235.770587 
L 609.485852 234.236414 
L 609.485852 232.70224 
L 609.685381 231.168067 
L 639.612484 229.633894 
L 645.145457 228.099721 
L 651.797345 226.565548 
L 655.692693 225.031374 
L 656.615897 223.497201 
L 657.078492 221.963028 
L 657.425888 220.428855 
L 657.541732 218.894682 
L 657.889613 217.360508 
L 658.470154 215.826335 
L 658.935338 214.292162 
L 659.051763 212.757989 
L 659.401174 211.223815 
L 659.634336 209.689642 
L 659.634336 208.155469 
L 659.634336 206.621296 
L 659.750952 205.087123 
L 659.867662 203.552949 
L 660.101151 202.018776 
L 660.101151 200.484603 
L 660.21793 198.95043 
L 660.21793 197.416257 
L 660.451664 195.882083 
L 660.56862 194.34791 
L 660.685562 192.813737 
L 660.685562 191.279564 
L 660.685562 189.745391 
L 660.8026 188.211217 
L 660.8026 186.677044 
L 660.919625 185.142871 
L 660.919625 183.608698 
L 661.153851 182.074525 
L 661.153851 180.540351 
L 661.153851 179.006178 
L 661.153851 177.472005 
L 661.271053 175.937832 
L 661.388242 174.403659 
L 661.388242 172.869485 
L 661.388242 171.335312 
L 661.505527 169.801139 
L 661.740164 168.266966 
L 661.740164 166.732793 
L 661.740164 165.198619 
L 661.740164 163.664446 
L 661.857518 162.130273 
L 661.857518 160.5961 
L 661.857518 159.061927 
L 661.974967 157.527753 
L 662.092403 155.99358 
L 662.327453 154.459407 
L 662.562668 152.925234 
L 662.562668 151.39106 
L 662.562668 149.856887 
L 662.915774 148.322714 
L 662.915774 146.788541 
L 662.915774 145.254368 
L 663.151403 143.720194 
L 663.269307 142.186021 
L 663.269307 140.651848 
L 663.269307 139.117675 
L 663.269307 137.583502 
L 663.387198 136.049328 
L 663.387198 134.515155 
L 663.387198 132.980982 
L 663.387198 131.446809 
L 663.505185 129.912636 
L 663.623159 128.378462 
L 663.623159 126.844289 
L 663.74123 125.310116 
L 663.74123 123.775943 
L 663.859287 122.24177 
L 663.859287 120.707596 
L 663.97744 119.173423 
L 663.97744 117.63925 
L 663.97744 116.105077 
L 663.97744 114.570904 
L 664.09558 113.03673 
L 664.09558 111.502557 
L 664.213817 109.968384 
L 664.213817 108.434211 
L 664.213817 106.900038 
L 664.33204 105.365864 
L 664.450361 103.831691 
L 664.450361 102.297518 
L 664.568667 100.763345 
L 664.687071 99.229172 
L 666.348729 97.694998 
L 666.348729 96.160825 
L 666.586725 94.626652 
L 666.586725 93.092479 
" clip-path="url(#p5e7df63e4b)" style="fill: none; stroke: #4c78a8; stroke-width: 2; stroke-linecap: square"/>
   </g>
   <g id="line2d_24">
    <path d="M 660.685562 296.063594 
L 660.685562 83.427187 
" clip-path="url(#p5e7df63e4b)" style="fill: none; stroke-dasharray: 4.44,1.92; stroke-dashoffset: 0; stroke: #e45756; stroke-width: 1.2"/>
   </g>
   <g id="patch_7">
    <path d="M 425.553241 296.063594 
L 425.553241 83.427187 
" style="fill: none; stroke: #808080; stroke-width: 0.8; stroke-linejoin: miter; stroke-linecap: square"/>
   </g>
   <g id="patch_8">
    <path d="M 425.553241 296.063594 
L 678.06451 296.063594 
" style="fill: none; stroke: #808080; stroke-width: 0.8; stroke-linejoin: miter; stroke-linecap: square"/>
   </g>
   <g id="text_20">
    <text style="font: 10px 'PingFang SC', 'Heiti SC', 'STHeiti', 'Calibri', 'Arial', 'Helvetica Neue', 'Arial Unicode MS', 'Noto Sans CJK SC', 'DejaVu Sans', sans-serif; text-anchor: middle" x="551.808876" y="77.427187" transform="rotate(-0 551.808876 77.427187)">HBM GB/s</text>
   </g>
   <g id="legend_2">
    <g id="patch_9">
     <path d="M 430.453241 109.067969 
L 486.608554 109.067969 
Q 488.008554 109.067969 488.008554 107.667969 
L 488.008554 88.327187 
Q 488.008554 86.927187 486.608554 86.927187 
L 430.453241 86.927187 
Q 429.053241 86.927187 429.053241 88.327187 
L 429.053241 107.667969 
Q 429.053241 109.067969 430.453241 109.067969 
z
" style="fill: #ffffff; opacity: 0.5; stroke: #cccccc; stroke-linejoin: miter"/>
    </g>
    <g id="line2d_25">
     <path d="M 431.853241 92.869531 
L 438.853241 92.869531 
L 445.853241 92.869531 
" style="fill: none; stroke: #4c78a8; stroke-width: 2; stroke-linecap: square"/>
    </g>
    <g id="text_21">
     <text style="font: 7px 'PingFang SC', 'Heiti SC', 'STHeiti', 'Calibri', 'Arial', 'Helvetica Neue', 'Arial Unicode MS', 'Noto Sans CJK SC', 'DejaVu Sans', sans-serif; text-anchor: start" x="451.453241" y="95.319531" transform="rotate(-0 451.453241 95.319531)">全集群</text>
    </g>
    <g id="line2d_26">
     <path d="M 431.853241 102.879531 
L 438.853241 102.879531 
L 445.853241 102.879531 
" style="fill: none; stroke-dasharray: 4.44,1.92; stroke-dashoffset: 0; stroke: #e45756; stroke-width: 1.2"/>
    </g>
    <g id="text_22">
     <text style="font: 7px 'PingFang SC', 'Heiti SC', 'STHeiti', 'Calibri', 'Arial', 'Helvetica Neue', 'Arial Unicode MS', 'Noto Sans CJK SC', 'DejaVu Sans', sans-serif; text-anchor: start" x="451.453241" y="105.329531" transform="rotate(-0 451.453241 105.329531)">中位=1470</text>
    </g>
   </g>
  </g>
  <g id="axes_3">
   <g id="patch_10">
    <path d="M 778.373045 296.063594 
L 1030.884314 296.063594 
L 1030.884314 83.427187 
L 778.373045 83.427187 
z
" style="fill: #ffffff"/>
   </g>
   <g id="matplotlib.axis_5">
    <g id="xtick_7">
     <g id="line2d_27">
      <g>
       <use xlink:href="#m66159a1a09" x="802.784503" y="296.063594" style="fill: #808080; stroke: #808080; stroke-width: 0.8"/>
      </g>
     </g>
     <g id="text_23">
      <text style="fill: #808080; font: 22px 'PingFang SC', 'Heiti SC', 'STHeiti', 'Calibri', 'Arial', 'Helvetica Neue', 'Arial Unicode MS', 'Noto Sans CJK SC', 'DejaVu Sans', sans-serif; text-anchor: middle" x="802.784503" y="320.574219" transform="rotate(-0 802.784503 320.574219)">100</text>
     </g>
    </g>
    <g id="xtick_8">
     <g id="line2d_28">
      <g>
       <use xlink:href="#m66159a1a09" x="898.101042" y="296.063594" style="fill: #808080; stroke: #808080; stroke-width: 0.8"/>
      </g>
     </g>
     <g id="text_24">
      <text style="fill: #808080; font: 22px 'PingFang SC', 'Heiti SC', 'STHeiti', 'Calibri', 'Arial', 'Helvetica Neue', 'Arial Unicode MS', 'Noto Sans CJK SC', 'DejaVu Sans', sans-serif; text-anchor: middle" x="898.101042" y="320.574219" transform="rotate(-0 898.101042 320.574219)">110</text>
     </g>
    </g>
    <g id="xtick_9">
     <g id="line2d_29">
      <g>
       <use xlink:href="#m66159a1a09" x="993.417582" y="296.063594" style="fill: #808080; stroke: #808080; stroke-width: 0.8"/>
      </g>
     </g>
     <g id="text_25">
      <text style="fill: #808080; font: 22px 'PingFang SC', 'Heiti SC', 'STHeiti', 'Calibri', 'Arial', 'Helvetica Neue', 'Arial Unicode MS', 'Noto Sans CJK SC', 'DejaVu Sans', sans-serif; text-anchor: middle" x="993.417582" y="320.574219" transform="rotate(-0 993.417582 320.574219)">120</text>
     </g>
    </g>
    <g id="text_26">
     <text style="font: 22px 'PingFang SC', 'Heiti SC', 'STHeiti', 'Calibri', 'Arial', 'Helvetica Neue', 'Arial Unicode MS', 'Noto Sans CJK SC', 'DejaVu Sans', sans-serif; text-anchor: middle" x="904.62868" y="345.034219" transform="rotate(-0 904.62868 345.034219)">Vector FMA GFLOPS</text>
    </g>
   </g>
   <g id="matplotlib.axis_6">
    <g id="ytick_7">
     <g id="line2d_30">
      <path d="M 778.373045 287.932476 
L 1030.884314 287.932476 
" clip-path="url(#pe8f2bf5b42)" style="fill: none; stroke-dasharray: 1,1.65; stroke-dashoffset: 0; stroke: #808080; stroke-opacity: 0.55"/>
     </g>
     <g id="line2d_31">
      <g>
       <use xlink:href="#m831bb11fae" x="778.373045" y="287.932476" style="fill: #808080; stroke: #808080; stroke-width: 0.8"/>
      </g>
     </g>
     <g id="text_27">
      <text style="fill: #808080; font: 22px 'PingFang SC', 'Heiti SC', 'STHeiti', 'Calibri', 'Arial', 'Helvetica Neue', 'Arial Unicode MS', 'Noto Sans CJK SC', 'DejaVu Sans', sans-serif; text-anchor: end" x="771.373045" y="296.687788" transform="rotate(-0 771.373045 296.687788)">0.0</text>
     </g>
    </g>
    <g id="ytick_8">
     <g id="line2d_32">
      <path d="M 778.373045 190.512477 
L 1030.884314 190.512477 
" clip-path="url(#pe8f2bf5b42)" style="fill: none; stroke-dasharray: 1,1.65; stroke-dashoffset: 0; stroke: #808080; stroke-opacity: 0.55"/>
     </g>
     <g id="line2d_33">
      <g>
       <use xlink:href="#m831bb11fae" x="778.373045" y="190.512477" style="fill: #808080; stroke: #808080; stroke-width: 0.8"/>
      </g>
     </g>
     <g id="text_28">
      <text style="fill: #808080; font: 22px 'PingFang SC', 'Heiti SC', 'STHeiti', 'Calibri', 'Arial', 'Helvetica Neue', 'Arial Unicode MS', 'Noto Sans CJK SC', 'DejaVu Sans', sans-serif; text-anchor: end" x="771.373045" y="199.26779" transform="rotate(-0 771.373045 199.26779)">0.5</text>
     </g>
    </g>
    <g id="ytick_9">
     <g id="line2d_34">
      <path d="M 778.373045 93.092479 
L 1030.884314 93.092479 
" clip-path="url(#pe8f2bf5b42)" style="fill: none; stroke-dasharray: 1,1.65; stroke-dashoffset: 0; stroke: #808080; stroke-opacity: 0.55"/>
     </g>
     <g id="line2d_35">
      <g>
       <use xlink:href="#m831bb11fae" x="778.373045" y="93.092479" style="fill: #808080; stroke: #808080; stroke-width: 0.8"/>
      </g>
     </g>
     <g id="text_29">
      <text style="fill: #808080; font: 22px 'PingFang SC', 'Heiti SC', 'STHeiti', 'Calibri', 'Arial', 'Helvetica Neue', 'Arial Unicode MS', 'Noto Sans CJK SC', 'DejaVu Sans', sans-serif; text-anchor: end" x="771.373045" y="101.847791" transform="rotate(-0 771.373045 101.847791)">1.0</text>
     </g>
    </g>
    <g id="text_30">
     <text style="font: 22px 'PingFang SC', 'Heiti SC', 'STHeiti', 'Calibri', 'Arial', 'Helvetica Neue', 'Arial Unicode MS', 'Noto Sans CJK SC', 'DejaVu Sans', sans-serif; text-anchor: middle" x="733.950233" y="189.745391" transform="rotate(-90 733.950233 189.745391)">累积概率</text>
    </g>
   </g>
   <g id="line2d_36">
    <path d="M 789.85083 286.398303 
L 790.558975 284.864129 
L 879.359857 283.329956 
L 879.784408 281.795783 
L 881.060164 280.26161 
L 882.339084 278.727437 
L 883.407226 277.193263 
L 884.049152 275.65909 
L 886.409953 274.124917 
L 886.409953 272.590744 
L 886.409953 271.056571 
L 887.055615 269.522397 
L 887.271081 267.988224 
L 887.486537 266.454051 
L 887.486537 264.919878 
L 887.486537 263.385704 
L 887.917817 261.851531 
L 888.133642 260.317358 
L 889.21381 258.783185 
L 890.296329 257.249012 
L 891.598169 255.714838 
L 892.032874 254.180665 
L 892.467941 252.646492 
L 892.685662 251.112319 
L 893.121275 249.578146 
L 893.993592 248.043972 
L 1001.078048 246.509799 
L 1005.873611 244.975626 
L 1006.14114 243.441453 
L 1006.408918 241.90728 
L 1006.944721 240.373106 
L 1008.555112 238.838933 
L 1009.09278 237.30476 
L 1009.361927 235.770587 
L 1009.361927 234.236414 
L 1010.439512 232.70224 
L 1010.709159 231.168067 
L 1010.709159 229.633894 
L 1010.979056 228.099721 
L 1011.248954 226.565548 
L 1011.248954 225.031374 
L 1011.519102 223.497201 
L 1011.519102 221.963028 
L 1011.519102 220.428855 
L 1011.789251 218.894682 
L 1011.789251 217.360508 
L 1011.789251 215.826335 
L 1012.059651 214.292162 
L 1012.059651 212.757989 
L 1012.330051 211.223815 
L 1012.330051 209.689642 
L 1012.330051 208.155469 
L 1012.600702 206.621296 
L 1012.600702 205.087123 
L 1012.871354 203.552949 
L 1012.871354 202.018776 
L 1012.871354 200.484603 
L 1012.871354 198.95043 
L 1013.142258 197.416257 
L 1013.142258 195.882083 
L 1013.142258 194.34791 
L 1013.413162 192.813737 
L 1013.413162 191.279564 
L 1013.684318 189.745391 
L 1013.684318 188.211217 
L 1013.684318 186.677044 
L 1013.684318 185.142871 
L 1013.684318 183.608698 
L 1013.684318 182.074525 
L 1013.955474 180.540351 
L 1013.955474 179.006178 
L 1013.955474 177.472005 
L 1014.226884 175.937832 
L 1014.226884 174.403659 
L 1014.226884 172.869485 
L 1014.226884 171.335312 
L 1014.226884 169.801139 
L 1014.226884 168.266966 
L 1014.498293 166.732793 
L 1014.498293 165.198619 
L 1014.498293 163.664446 
L 1014.498293 162.130273 
L 1014.498293 160.5961 
L 1014.498293 159.061927 
L 1014.498293 157.527753 
L 1014.498293 155.99358 
L 1014.498293 154.459407 
L 1014.769955 152.925234 
L 1014.769955 151.39106 
L 1014.769955 149.856887 
L 1014.769955 148.322714 
L 1014.769955 146.788541 
L 1014.769955 145.254368 
L 1014.769955 143.720194 
L 1014.769955 142.186021 
L 1014.769955 140.651848 
L 1014.769955 139.117675 
L 1014.769955 137.583502 
L 1015.041617 136.049328 
L 1015.041617 134.515155 
L 1015.041617 132.980982 
L 1015.313533 131.446809 
L 1015.313533 129.912636 
L 1015.313533 128.378462 
L 1015.313533 126.844289 
L 1015.585449 125.310116 
L 1015.857619 123.775943 
L 1015.857619 122.24177 
L 1015.857619 120.707596 
L 1016.129789 119.173423 
L 1016.129789 117.63925 
L 1016.402212 116.105077 
L 1016.674637 114.570904 
L 1016.674637 113.03673 
L 1016.674637 111.502557 
L 1016.674637 109.968384 
L 1017.219994 108.434211 
L 1017.219994 106.900038 
L 1017.4928 105.365864 
L 1017.4928 103.831691 
L 1017.765861 102.297518 
L 1018.038922 100.763345 
L 1018.312239 99.229172 
L 1018.312239 97.694998 
L 1018.585556 96.160825 
L 1019.132701 94.626652 
L 1019.406529 93.092479 
" clip-path="url(#pe8f2bf5b42)" style="fill: none; stroke: #4c78a8; stroke-width: 2; stroke-linecap: square"/>
   </g>
   <g id="line2d_37">
    <path d="M 1013.684318 296.063594 
L 1013.684318 83.427187 
" clip-path="url(#pe8f2bf5b42)" style="fill: none; stroke-dasharray: 4.44,1.92; stroke-dashoffset: 0; stroke: #e45756; stroke-width: 1.2"/>
   </g>
   <g id="patch_11">
    <path d="M 778.373045 296.063594 
L 778.373045 83.427187 
" style="fill: none; stroke: #808080; stroke-width: 0.8; stroke-linejoin: miter; stroke-linecap: square"/>
   </g>
   <g id="patch_12">
    <path d="M 778.373045 296.063594 
L 1030.884314 296.063594 
" style="fill: none; stroke: #808080; stroke-width: 0.8; stroke-linejoin: miter; stroke-linecap: square"/>
   </g>
   <g id="text_31">
    <text style="font: 10px 'PingFang SC', 'Heiti SC', 'STHeiti', 'Calibri', 'Arial', 'Helvetica Neue', 'Arial Unicode MS', 'Noto Sans CJK SC', 'DejaVu Sans', sans-serif; text-anchor: middle" x="904.62868" y="77.427187" transform="rotate(-0 904.62868 77.427187)">Vector FMA GFLOPS</text>
   </g>
   <g id="legend_3">
    <g id="patch_13">
     <path d="M 783.273045 109.067969 
L 841.367577 109.067969 
Q 842.767577 109.067969 842.767577 107.667969 
L 842.767577 88.327187 
Q 842.767577 86.927187 841.367577 86.927187 
L 783.273045 86.927187 
Q 781.873045 86.927187 781.873045 88.327187 
L 781.873045 107.667969 
Q 781.873045 109.067969 783.273045 109.067969 
z
" style="fill: #ffffff; opacity: 0.5; stroke: #cccccc; stroke-linejoin: miter"/>
    </g>
    <g id="line2d_38">
     <path d="M 784.673045 92.869531 
L 791.673045 92.869531 
L 798.673045 92.869531 
" style="fill: none; stroke: #4c78a8; stroke-width: 2; stroke-linecap: square"/>
    </g>
    <g id="text_32">
     <text style="font: 7px 'PingFang SC', 'Heiti SC', 'STHeiti', 'Calibri', 'Arial', 'Helvetica Neue', 'Arial Unicode MS', 'Noto Sans CJK SC', 'DejaVu Sans', sans-serif; text-anchor: start" x="804.273045" y="95.319531" transform="rotate(-0 804.273045 95.319531)">全集群</text>
    </g>
    <g id="line2d_39">
     <path d="M 784.673045 102.879531 
L 791.673045 102.879531 
L 798.673045 102.879531 
" style="fill: none; stroke-dasharray: 4.44,1.92; stroke-dashoffset: 0; stroke: #e45756; stroke-width: 1.2"/>
    </g>
    <g id="text_33">
     <text style="font: 7px 'PingFang SC', 'Heiti SC', 'STHeiti', 'Calibri', 'Arial', 'Helvetica Neue', 'Arial Unicode MS', 'Noto Sans CJK SC', 'DejaVu Sans', sans-serif; text-anchor: start" x="804.273045" y="105.329531" transform="rotate(-0 804.273045 105.329531)">中位=122.1</text>
    </g>
   </g>
  </g>
  <g id="axes_4">
   <g id="patch_14">
    <path d="M 72.733438 593.89 
L 325.244706 593.89 
L 325.244706 381.253594 
L 72.733438 381.253594 
z
" style="fill: #ffffff"/>
   </g>
   <g id="matplotlib.axis_7">
    <g id="xtick_10">
     <g id="line2d_40">
      <g>
       <use xlink:href="#m66159a1a09" x="89.693291" y="593.89" style="fill: #808080; stroke: #808080; stroke-width: 0.8"/>
      </g>
     </g>
     <g id="text_34">
      <text style="fill: #808080; font: 22px 'PingFang SC', 'Heiti SC', 'STHeiti', 'Calibri', 'Arial', 'Helvetica Neue', 'Arial Unicode MS', 'Noto Sans CJK SC', 'DejaVu Sans', sans-serif; text-anchor: middle" x="89.693291" y="618.400625" transform="rotate(-0 89.693291 618.400625)">1200</text>
     </g>
    </g>
    <g id="xtick_11">
     <g id="line2d_41">
      <g>
       <use xlink:href="#m66159a1a09" x="198.43042" y="593.89" style="fill: #808080; stroke: #808080; stroke-width: 0.8"/>
      </g>
     </g>
     <g id="text_35">
      <text style="fill: #808080; font: 22px 'PingFang SC', 'Heiti SC', 'STHeiti', 'Calibri', 'Arial', 'Helvetica Neue', 'Arial Unicode MS', 'Noto Sans CJK SC', 'DejaVu Sans', sans-serif; text-anchor: middle" x="198.43042" y="618.400625" transform="rotate(-0 198.43042 618.400625)">1300</text>
     </g>
    </g>
    <g id="xtick_12">
     <g id="line2d_42">
      <g>
       <use xlink:href="#m66159a1a09" x="307.167549" y="593.89" style="fill: #808080; stroke: #808080; stroke-width: 0.8"/>
      </g>
     </g>
     <g id="text_36">
      <text style="fill: #808080; font: 22px 'PingFang SC', 'Heiti SC', 'STHeiti', 'Calibri', 'Arial', 'Helvetica Neue', 'Arial Unicode MS', 'Noto Sans CJK SC', 'DejaVu Sans', sans-serif; text-anchor: middle" x="307.167549" y="618.400625" transform="rotate(-0 307.167549 618.400625)">1400</text>
     </g>
    </g>
    <g id="text_37">
     <text style="font: 22px 'PingFang SC', 'Heiti SC', 'STHeiti', 'Calibri', 'Arial', 'Helvetica Neue', 'Arial Unicode MS', 'Noto Sans CJK SC', 'DejaVu Sans', sans-serif; text-anchor: middle" x="198.989072" y="643.104687" transform="rotate(-0 198.989072 643.104687)">DMA copy GB/s</text>
    </g>
   </g>
   <g id="matplotlib.axis_8">
    <g id="ytick_10">
     <g id="line2d_43">
      <path d="M 72.733438 585.758882 
L 325.244706 585.758882 
" clip-path="url(#p34f9ac0347)" style="fill: none; stroke-dasharray: 1,1.65; stroke-dashoffset: 0; stroke: #808080; stroke-opacity: 0.55"/>
     </g>
     <g id="line2d_44">
      <g>
       <use xlink:href="#m831bb11fae" x="72.733438" y="585.758882" style="fill: #808080; stroke: #808080; stroke-width: 0.8"/>
      </g>
     </g>
     <g id="text_38">
      <text style="fill: #808080; font: 22px 'PingFang SC', 'Heiti SC', 'STHeiti', 'Calibri', 'Arial', 'Helvetica Neue', 'Arial Unicode MS', 'Noto Sans CJK SC', 'DejaVu Sans', sans-serif; text-anchor: end" x="65.733438" y="594.514195" transform="rotate(-0 65.733438 594.514195)">0.0</text>
     </g>
    </g>
    <g id="ytick_11">
     <g id="line2d_45">
      <path d="M 72.733438 488.338883 
L 325.244706 488.338883 
" clip-path="url(#p34f9ac0347)" style="fill: none; stroke-dasharray: 1,1.65; stroke-dashoffset: 0; stroke: #808080; stroke-opacity: 0.55"/>
     </g>
     <g id="line2d_46">
      <g>
       <use xlink:href="#m831bb11fae" x="72.733438" y="488.338883" style="fill: #808080; stroke: #808080; stroke-width: 0.8"/>
      </g>
     </g>
     <g id="text_39">
      <text style="fill: #808080; font: 22px 'PingFang SC', 'Heiti SC', 'STHeiti', 'Calibri', 'Arial', 'Helvetica Neue', 'Arial Unicode MS', 'Noto Sans CJK SC', 'DejaVu Sans', sans-serif; text-anchor: end" x="65.733438" y="497.094196" transform="rotate(-0 65.733438 497.094196)">0.5</text>
     </g>
    </g>
    <g id="ytick_12">
     <g id="line2d_47">
      <path d="M 72.733438 390.918885 
L 325.244706 390.918885 
" clip-path="url(#p34f9ac0347)" style="fill: none; stroke-dasharray: 1,1.65; stroke-dashoffset: 0; stroke: #808080; stroke-opacity: 0.55"/>
     </g>
     <g id="line2d_48">
      <g>
       <use xlink:href="#m831bb11fae" x="72.733438" y="390.918885" style="fill: #808080; stroke: #808080; stroke-width: 0.8"/>
      </g>
     </g>
     <g id="text_40">
      <text style="fill: #808080; font: 22px 'PingFang SC', 'Heiti SC', 'STHeiti', 'Calibri', 'Arial', 'Helvetica Neue', 'Arial Unicode MS', 'Noto Sans CJK SC', 'DejaVu Sans', sans-serif; text-anchor: end" x="65.733438" y="399.674197" transform="rotate(-0 65.733438 399.674197)">1.0</text>
     </g>
    </g>
    <g id="text_41">
     <text style="font: 22px 'PingFang SC', 'Heiti SC', 'STHeiti', 'Calibri', 'Arial', 'Helvetica Neue', 'Arial Unicode MS', 'Noto Sans CJK SC', 'DejaVu Sans', sans-serif; text-anchor: middle" x="28.310625" y="487.571797" transform="rotate(-90 28.310625 487.571797)">累积概率</text>
    </g>
   </g>
   <g id="line2d_49">
    <path d="M 84.211222 584.224709 
L 84.952028 582.690536 
L 87.923631 581.156362 
L 88.668677 579.622189 
L 90.908937 578.088016 
L 91.657401 576.553843 
L 92.406725 575.01967 
L 92.406725 573.485496 
L 93.532322 571.951323 
L 93.532322 570.41715 
L 94.659859 568.882977 
L 95.78934 567.348804 
L 95.78934 565.81463 
L 261.301528 564.280457 
L 263.215908 562.746284 
L 263.215908 561.212111 
L 265.135258 559.677938 
L 267.541465 558.143764 
L 269.471958 556.609591 
L 270.439147 555.075418 
L 274.320539 553.541245 
L 276.268851 552.007071 
L 278.222266 550.472898 
L 280.180805 548.938725 
L 281.162002 547.404552 
L 281.653084 545.870379 
L 282.636214 544.336205 
L 283.620638 542.802032 
L 284.606241 541.267859 
L 284.606241 539.733686 
L 285.593256 538.199513 
L 285.593256 536.665339 
L 286.581572 535.131166 
L 286.581572 533.596993 
L 287.076218 532.06282 
L 287.076218 530.528647 
L 288.066488 528.994473 
L 288.066488 527.4603 
L 288.066488 525.926127 
L 288.562113 524.391954 
L 289.058065 522.857781 
L 289.554344 521.323607 
L 289.554344 519.789434 
L 289.554344 518.255261 
L 289.554344 516.721088 
L 289.554344 515.186915 
L 289.554344 513.652741 
L 289.554344 512.118568 
L 289.554344 510.584395 
L 289.554344 509.050222 
L 290.05095 507.516049 
L 290.547885 505.981875 
L 290.547885 504.447702 
L 290.547885 502.913529 
L 290.547885 501.379356 
L 291.045147 499.845183 
L 291.045147 498.311009 
L 291.045147 496.776836 
L 291.045147 495.242663 
L 291.542739 493.70849 
L 292.040659 492.174316 
L 292.040659 490.640143 
L 292.538908 489.10597 
L 292.538908 487.571797 
L 292.538908 486.037624 
L 292.538908 484.50345 
L 292.538908 482.969277 
L 293.037487 481.435104 
L 293.037487 479.900931 
L 293.037487 478.366758 
L 293.536396 476.832584 
L 293.536396 475.298411 
L 293.536396 473.764238 
L 294.035635 472.230065 
L 294.035635 470.695892 
L 294.035635 469.161718 
L 294.035635 467.627545 
L 294.035635 466.093372 
L 294.535205 464.559199 
L 294.535205 463.025026 
L 294.535205 461.490852 
L 294.535205 459.956679 
L 295.035105 458.422506 
L 295.035105 456.888333 
L 295.035105 455.35416 
L 295.035105 453.819986 
L 295.535336 452.285813 
L 295.535336 450.75164 
L 295.535336 449.217467 
L 296.035899 447.683294 
L 296.035899 446.14912 
L 296.035899 444.614947 
L 296.536794 443.080774 
L 296.536794 441.546601 
L 296.536794 440.012428 
L 296.536794 438.478254 
L 296.536794 436.944081 
L 296.536794 435.409908 
L 297.038021 433.875735 
L 297.539581 432.341561 
L 297.539581 430.807388 
L 298.543698 429.273215 
L 298.543698 427.739042 
L 298.543698 426.204869 
L 300.05226 424.670695 
L 300.555821 423.136522 
L 301.059717 421.602349 
L 301.059717 420.068176 
L 301.059717 418.534003 
L 301.563949 416.999829 
L 301.563949 415.465656 
L 302.573418 413.931483 
L 303.078657 412.39731 
L 303.078657 410.863137 
L 303.078657 409.328963 
L 303.584232 407.79479 
L 303.584232 406.260617 
L 304.090144 404.726444 
L 304.090144 403.192271 
L 304.596393 401.658097 
L 304.596393 400.123924 
L 305.10298 398.589751 
L 309.677504 397.055578 
L 311.208469 395.521405 
L 313.254545 393.987231 
L 313.254545 392.453058 
L 313.766921 390.918885 
" clip-path="url(#p34f9ac0347)" style="fill: none; stroke: #4c78a8; stroke-width: 2; stroke-linecap: square"/>
   </g>
   <g id="line2d_50">
    <path d="M 292.538908 593.89 
L 292.538908 381.253594 
" clip-path="url(#p34f9ac0347)" style="fill: none; stroke-dasharray: 4.44,1.92; stroke-dashoffset: 0; stroke: #e45756; stroke-width: 1.2"/>
   </g>
   <g id="patch_15">
    <path d="M 72.733438 593.89 
L 72.733438 381.253594 
" style="fill: none; stroke: #808080; stroke-width: 0.8; stroke-linejoin: miter; stroke-linecap: square"/>
   </g>
   <g id="patch_16">
    <path d="M 72.733438 593.89 
L 325.244706 593.89 
" style="fill: none; stroke: #808080; stroke-width: 0.8; stroke-linejoin: miter; stroke-linecap: square"/>
   </g>
   <g id="text_42">
    <text style="font: 10px 'PingFang SC', 'Heiti SC', 'STHeiti', 'Calibri', 'Arial', 'Helvetica Neue', 'Arial Unicode MS', 'Noto Sans CJK SC', 'DejaVu Sans', sans-serif; text-anchor: middle" x="198.989072" y="375.253594" transform="rotate(-0 198.989072 375.253594)">DMA copy GB/s</text>
   </g>
   <g id="legend_4">
    <g id="patch_17">
     <path d="M 77.633438 406.894375 
L 133.78875 406.894375 
Q 135.18875 406.894375 135.18875 405.494375 
L 135.18875 386.153594 
Q 135.18875 384.753594 133.78875 384.753594 
L 77.633438 384.753594 
Q 76.233438 384.753594 76.233438 386.153594 
L 76.233438 405.494375 
Q 76.233438 406.894375 77.633438 406.894375 
z
" style="fill: #ffffff; opacity: 0.5; stroke: #cccccc; stroke-linejoin: miter"/>
    </g>
    <g id="line2d_51">
     <path d="M 79.033438 390.695937 
L 86.033438 390.695937 
L 93.033438 390.695937 
" style="fill: none; stroke: #4c78a8; stroke-width: 2; stroke-linecap: square"/>
    </g>
    <g id="text_43">
     <text style="font: 7px 'PingFang SC', 'Heiti SC', 'STHeiti', 'Calibri', 'Arial', 'Helvetica Neue', 'Arial Unicode MS', 'Noto Sans CJK SC', 'DejaVu Sans', sans-serif; text-anchor: start" x="98.633438" y="393.145937" transform="rotate(-0 98.633438 393.145937)">全集群</text>
    </g>
    <g id="line2d_52">
     <path d="M 79.033438 400.705937 
L 86.033438 400.705937 
L 93.033438 400.705937 
" style="fill: none; stroke-dasharray: 4.44,1.92; stroke-dashoffset: 0; stroke: #e45756; stroke-width: 1.2"/>
    </g>
    <g id="text_44">
     <text style="font: 7px 'PingFang SC', 'Heiti SC', 'STHeiti', 'Calibri', 'Arial', 'Helvetica Neue', 'Arial Unicode MS', 'Noto Sans CJK SC', 'DejaVu Sans', sans-serif; text-anchor: start" x="98.633438" y="403.155937" transform="rotate(-0 98.633438 403.155937)">中位=1387</text>
    </g>
   </g>
  </g>
  <g id="axes_5">
   <g id="patch_18">
    <path d="M 425.553241 593.89 
L 678.06451 593.89 
L 678.06451 381.253594 
L 425.553241 381.253594 
z
" style="fill: #ffffff"/>
   </g>
   <g id="matplotlib.axis_9">
    <g id="xtick_13">
     <g id="line2d_53">
      <g>
       <use xlink:href="#m66159a1a09" x="439.694519" y="593.89" style="fill: #808080; stroke: #808080; stroke-width: 0.8"/>
      </g>
     </g>
     <g id="text_45">
      <text style="fill: #808080; font: 22px 'PingFang SC', 'Heiti SC', 'STHeiti', 'Calibri', 'Arial', 'Helvetica Neue', 'Arial Unicode MS', 'Noto Sans CJK SC', 'DejaVu Sans', sans-serif; text-anchor: middle" x="439.694519" y="618.400625" transform="rotate(-0 439.694519 618.400625)">125</text>
     </g>
    </g>
    <g id="xtick_14">
     <g id="line2d_54">
      <g>
       <use xlink:href="#m66159a1a09" x="543.209448" y="593.89" style="fill: #808080; stroke: #808080; stroke-width: 0.8"/>
      </g>
     </g>
     <g id="text_46">
      <text style="fill: #808080; font: 22px 'PingFang SC', 'Heiti SC', 'STHeiti', 'Calibri', 'Arial', 'Helvetica Neue', 'Arial Unicode MS', 'Noto Sans CJK SC', 'DejaVu Sans', sans-serif; text-anchor: middle" x="543.209448" y="618.400625" transform="rotate(-0 543.209448 618.400625)">150</text>
     </g>
    </g>
    <g id="xtick_15">
     <g id="line2d_55">
      <g>
       <use xlink:href="#m66159a1a09" x="646.724376" y="593.89" style="fill: #808080; stroke: #808080; stroke-width: 0.8"/>
      </g>
     </g>
     <g id="text_47">
      <text style="fill: #808080; font: 22px 'PingFang SC', 'Heiti SC', 'STHeiti', 'Calibri', 'Arial', 'Helvetica Neue', 'Arial Unicode MS', 'Noto Sans CJK SC', 'DejaVu Sans', sans-serif; text-anchor: middle" x="646.724376" y="618.400625" transform="rotate(-0 646.724376 618.400625)">175</text>
     </g>
    </g>
    <g id="text_48">
     <text style="font: 22px 'PingFang SC', 'Heiti SC', 'STHeiti', 'Calibri', 'Arial', 'Helvetica Neue', 'Arial Unicode MS', 'Noto Sans CJK SC', 'DejaVu Sans', sans-serif; text-anchor: middle" x="551.808876" y="642.860625" transform="rotate(-0 551.808876 642.860625)">SFU GFLOPS</text>
    </g>
   </g>
   <g id="matplotlib.axis_10">
    <g id="ytick_13">
     <g id="line2d_56">
      <path d="M 425.553241 585.758882 
L 678.06451 585.758882 
" clip-path="url(#pa09fc98ccb)" style="fill: none; stroke-dasharray: 1,1.65; stroke-dashoffset: 0; stroke: #808080; stroke-opacity: 0.55"/>
     </g>
     <g id="line2d_57">
      <g>
       <use xlink:href="#m831bb11fae" x="425.553241" y="585.758882" style="fill: #808080; stroke: #808080; stroke-width: 0.8"/>
      </g>
     </g>
     <g id="text_49">
      <text style="fill: #808080; font: 22px 'PingFang SC', 'Heiti SC', 'STHeiti', 'Calibri', 'Arial', 'Helvetica Neue', 'Arial Unicode MS', 'Noto Sans CJK SC', 'DejaVu Sans', sans-serif; text-anchor: end" x="418.553241" y="594.514195" transform="rotate(-0 418.553241 594.514195)">0.0</text>
     </g>
    </g>
    <g id="ytick_14">
     <g id="line2d_58">
      <path d="M 425.553241 488.338883 
L 678.06451 488.338883 
" clip-path="url(#pa09fc98ccb)" style="fill: none; stroke-dasharray: 1,1.65; stroke-dashoffset: 0; stroke: #808080; stroke-opacity: 0.55"/>
     </g>
     <g id="line2d_59">
      <g>
       <use xlink:href="#m831bb11fae" x="425.553241" y="488.338883" style="fill: #808080; stroke: #808080; stroke-width: 0.8"/>
      </g>
     </g>
     <g id="text_50">
      <text style="fill: #808080; font: 22px 'PingFang SC', 'Heiti SC', 'STHeiti', 'Calibri', 'Arial', 'Helvetica Neue', 'Arial Unicode MS', 'Noto Sans CJK SC', 'DejaVu Sans', sans-serif; text-anchor: end" x="418.553241" y="497.094196" transform="rotate(-0 418.553241 497.094196)">0.5</text>
     </g>
    </g>
    <g id="ytick_15">
     <g id="line2d_60">
      <path d="M 425.553241 390.918885 
L 678.06451 390.918885 
" clip-path="url(#pa09fc98ccb)" style="fill: none; stroke-dasharray: 1,1.65; stroke-dashoffset: 0; stroke: #808080; stroke-opacity: 0.55"/>
     </g>
     <g id="line2d_61">
      <g>
       <use xlink:href="#m831bb11fae" x="425.553241" y="390.918885" style="fill: #808080; stroke: #808080; stroke-width: 0.8"/>
      </g>
     </g>
     <g id="text_51">
      <text style="fill: #808080; font: 22px 'PingFang SC', 'Heiti SC', 'STHeiti', 'Calibri', 'Arial', 'Helvetica Neue', 'Arial Unicode MS', 'Noto Sans CJK SC', 'DejaVu Sans', sans-serif; text-anchor: end" x="418.553241" y="399.674197" transform="rotate(-0 418.553241 399.674197)">1.0</text>
     </g>
    </g>
    <g id="text_52">
     <text style="font: 22px 'PingFang SC', 'Heiti SC', 'STHeiti', 'Calibri', 'Arial', 'Helvetica Neue', 'Arial Unicode MS', 'Noto Sans CJK SC', 'DejaVu Sans', sans-serif; text-anchor: middle" x="381.130429" y="487.571797" transform="rotate(-90 381.130429 487.571797)">累积概率</text>
    </g>
   </g>
   <g id="line2d_62">
    <path d="M 437.031026 584.224709 
L 439.732059 582.690536 
L 439.732059 581.156362 
L 440.969134 579.622189 
L 441.465644 578.088016 
L 441.465644 576.553843 
L 441.714256 575.01967 
L 442.711087 573.485496 
L 442.960893 571.951323 
L 444.213526 570.41715 
L 444.464776 568.882977 
L 445.219979 567.348804 
L 445.472199 565.81463 
L 446.990641 564.280457 
L 446.990641 562.746284 
L 447.244572 561.212111 
L 447.498749 559.677938 
L 448.007841 558.143764 
L 448.517861 556.609591 
L 636.220312 555.075418 
L 638.577097 553.541245 
L 639.524173 552.007071 
L 642.858747 550.472898 
L 643.817128 548.938725 
L 644.297302 547.404552 
L 645.741668 545.870379 
L 645.741668 544.336205 
L 645.741668 542.802032 
L 646.707793 541.267859 
L 647.191823 539.733686 
L 648.647802 538.199513 
L 648.647802 536.665339 
L 648.647802 535.131166 
L 649.134429 533.596993 
L 649.621707 532.06282 
L 649.621707 530.528647 
L 650.10964 528.994473 
L 650.10964 527.4603 
L 650.10964 525.926127 
L 650.598171 524.391954 
L 651.087414 522.857781 
L 651.087414 521.323607 
L 651.577315 519.789434 
L 651.577315 518.255261 
L 651.577315 516.721088 
L 652.067876 515.186915 
L 652.067876 513.652741 
L 652.559096 512.118568 
L 652.559096 510.584395 
L 652.559096 509.050222 
L 652.559096 507.516049 
L 653.050978 505.981875 
L 653.050978 504.447702 
L 653.050978 502.913529 
L 653.543523 501.379356 
L 653.543523 499.845183 
L 653.543523 498.311009 
L 653.543523 496.776836 
L 653.543523 495.242663 
L 653.543523 493.70849 
L 654.036732 492.174316 
L 654.036732 490.640143 
L 654.036732 489.10597 
L 654.036732 487.571797 
L 654.530607 486.037624 
L 654.530607 484.50345 
L 655.025149 482.969277 
L 655.025149 481.435104 
L 655.025149 479.900931 
L 655.025149 478.366758 
L 655.025149 476.832584 
L 655.520359 475.298411 
L 655.520359 473.764238 
L 655.520359 472.230065 
L 655.520359 470.695892 
L 655.520359 469.161718 
L 655.520359 467.627545 
L 656.016238 466.093372 
L 656.016238 464.559199 
L 656.016238 463.025026 
L 656.016238 461.490852 
L 656.016238 459.956679 
L 656.512789 458.422506 
L 656.512789 456.888333 
L 656.512789 455.35416 
L 656.512789 453.819986 
L 656.512789 452.285813 
L 657.010012 450.75164 
L 657.010012 449.217467 
L 657.507909 447.683294 
L 657.507909 446.14912 
L 657.507909 444.614947 
L 657.507909 443.080774 
L 658.006423 441.546601 
L 658.006423 440.012428 
L 658.006423 438.478254 
L 658.006423 436.944081 
L 658.006423 435.409908 
L 658.505671 433.875735 
L 660.007489 432.341561 
L 660.509457 430.807388 
L 660.509457 429.273215 
L 660.509457 427.739042 
L 660.509457 426.204869 
L 660.509457 424.670695 
L 660.509457 423.136522 
L 661.515445 421.602349 
L 661.515445 420.068176 
L 661.515445 418.534003 
L 661.515445 416.999829 
L 662.019468 415.465656 
L 662.019468 413.931483 
L 662.019468 412.39731 
L 662.524178 410.863137 
L 662.524178 409.328963 
L 662.524178 407.79479 
L 663.029578 406.260617 
L 663.029578 404.726444 
L 663.029578 403.192271 
L 663.535667 401.658097 
L 663.535667 400.123924 
L 663.535667 398.589751 
L 664.042449 397.055578 
L 665.058093 395.521405 
L 665.5669 393.987231 
L 665.5669 392.453058 
L 666.586725 390.918885 
" clip-path="url(#pa09fc98ccb)" style="fill: none; stroke: #4c78a8; stroke-width: 2; stroke-linecap: square"/>
   </g>
   <g id="line2d_63">
    <path d="M 654.036732 593.89 
L 654.036732 381.253594 
" clip-path="url(#pa09fc98ccb)" style="fill: none; stroke-dasharray: 4.44,1.92; stroke-dashoffset: 0; stroke: #e45756; stroke-width: 1.2"/>
   </g>
   <g id="patch_19">
    <path d="M 425.553241 593.89 
L 425.553241 381.253594 
" style="fill: none; stroke: #808080; stroke-width: 0.8; stroke-linejoin: miter; stroke-linecap: square"/>
   </g>
   <g id="patch_20">
    <path d="M 425.553241 593.89 
L 678.06451 593.89 
" style="fill: none; stroke: #808080; stroke-width: 0.8; stroke-linejoin: miter; stroke-linecap: square"/>
   </g>
   <g id="text_53">
    <text style="font: 10px 'PingFang SC', 'Heiti SC', 'STHeiti', 'Calibri', 'Arial', 'Helvetica Neue', 'Arial Unicode MS', 'Noto Sans CJK SC', 'DejaVu Sans', sans-serif; text-anchor: middle" x="551.808876" y="375.253594" transform="rotate(-0 551.808876 375.253594)">SFU GFLOPS</text>
   </g>
   <g id="legend_5">
    <g id="patch_21">
     <path d="M 430.453241 406.894375 
L 488.547773 406.894375 
Q 489.947773 406.894375 489.947773 405.494375 
L 489.947773 386.153594 
Q 489.947773 384.753594 488.547773 384.753594 
L 430.453241 384.753594 
Q 429.053241 384.753594 429.053241 386.153594 
L 429.053241 405.494375 
Q 429.053241 406.894375 430.453241 406.894375 
z
" style="fill: #ffffff; opacity: 0.5; stroke: #cccccc; stroke-linejoin: miter"/>
    </g>
    <g id="line2d_64">
     <path d="M 431.853241 390.695937 
L 438.853241 390.695937 
L 445.853241 390.695937 
" style="fill: none; stroke: #4c78a8; stroke-width: 2; stroke-linecap: square"/>
    </g>
    <g id="text_54">
     <text style="font: 7px 'PingFang SC', 'Heiti SC', 'STHeiti', 'Calibri', 'Arial', 'Helvetica Neue', 'Arial Unicode MS', 'Noto Sans CJK SC', 'DejaVu Sans', sans-serif; text-anchor: start" x="451.453241" y="393.145937" transform="rotate(-0 451.453241 393.145937)">全集群</text>
    </g>
    <g id="line2d_65">
     <path d="M 431.853241 400.705937 
L 438.853241 400.705937 
L 445.853241 400.705937 
" style="fill: none; stroke-dasharray: 4.44,1.92; stroke-dashoffset: 0; stroke: #e45756; stroke-width: 1.2"/>
    </g>
    <g id="text_55">
     <text style="font: 7px 'PingFang SC', 'Heiti SC', 'STHeiti', 'Calibri', 'Arial', 'Helvetica Neue', 'Arial Unicode MS', 'Noto Sans CJK SC', 'DejaVu Sans', sans-serif; text-anchor: start" x="451.453241" y="403.155937" transform="rotate(-0 451.453241 403.155937)">中位=176.8</text>
    </g>
   </g>
  </g>
  <g id="axes_6">
   <g id="patch_22">
    <path d="M 778.373045 593.89 
L 1030.884314 593.89 
L 1030.884314 381.253594 
L 778.373045 381.253594 
z
" style="fill: #ffffff"/>
   </g>
   <g id="matplotlib.axis_11">
    <g id="xtick_16">
     <g id="line2d_66">
      <g>
       <use xlink:href="#m66159a1a09" x="800.605885" y="593.89" style="fill: #808080; stroke: #808080; stroke-width: 0.8"/>
      </g>
     </g>
     <g id="text_56">
      <text style="fill: #808080; font: 22px 'PingFang SC', 'Heiti SC', 'STHeiti', 'Calibri', 'Arial', 'Helvetica Neue', 'Arial Unicode MS', 'Noto Sans CJK SC', 'DejaVu Sans', sans-serif; text-anchor: middle" x="800.605885" y="618.400625" transform="rotate(-0 800.605885 618.400625)">260</text>
     </g>
    </g>
    <g id="xtick_17">
     <g id="line2d_67">
      <g>
       <use xlink:href="#m66159a1a09" x="910.909121" y="593.89" style="fill: #808080; stroke: #808080; stroke-width: 0.8"/>
      </g>
     </g>
     <g id="text_57">
      <text style="fill: #808080; font: 22px 'PingFang SC', 'Heiti SC', 'STHeiti', 'Calibri', 'Arial', 'Helvetica Neue', 'Arial Unicode MS', 'Noto Sans CJK SC', 'DejaVu Sans', sans-serif; text-anchor: middle" x="910.909121" y="618.400625" transform="rotate(-0 910.909121 618.400625)">280</text>
     </g>
    </g>
    <g id="xtick_18">
     <g id="line2d_68">
      <g>
       <use xlink:href="#m66159a1a09" x="1021.212358" y="593.89" style="fill: #808080; stroke: #808080; stroke-width: 0.8"/>
      </g>
     </g>
     <g id="text_58">
      <text style="fill: #808080; font: 22px 'PingFang SC', 'Heiti SC', 'STHeiti', 'Calibri', 'Arial', 'Helvetica Neue', 'Arial Unicode MS', 'Noto Sans CJK SC', 'DejaVu Sans', sans-serif; text-anchor: middle" x="1021.212358" y="618.400625" transform="rotate(-0 1021.212358 618.400625)">300</text>
     </g>
    </g>
    <g id="text_59">
     <text style="font: 22px 'PingFang SC', 'Heiti SC', 'STHeiti', 'Calibri', 'Arial', 'Helvetica Neue', 'Arial Unicode MS', 'Noto Sans CJK SC', 'DejaVu Sans', sans-serif; text-anchor: middle" x="904.62868" y="642.860625" transform="rotate(-0 904.62868 642.860625)">Sustained TFLOPS</text>
    </g>
   </g>
   <g id="matplotlib.axis_12">
    <g id="ytick_16">
     <g id="line2d_69">
      <path d="M 778.373045 585.758882 
L 1030.884314 585.758882 
" clip-path="url(#p52f4e5f10c)" style="fill: none; stroke-dasharray: 1,1.65; stroke-dashoffset: 0; stroke: #808080; stroke-opacity: 0.55"/>
     </g>
     <g id="line2d_70">
      <g>
       <use xlink:href="#m831bb11fae" x="778.373045" y="585.758882" style="fill: #808080; stroke: #808080; stroke-width: 0.8"/>
      </g>
     </g>
     <g id="text_60">
      <text style="fill: #808080; font: 22px 'PingFang SC', 'Heiti SC', 'STHeiti', 'Calibri', 'Arial', 'Helvetica Neue', 'Arial Unicode MS', 'Noto Sans CJK SC', 'DejaVu Sans', sans-serif; text-anchor: end" x="771.373045" y="594.514195" transform="rotate(-0 771.373045 594.514195)">0.0</text>
     </g>
    </g>
    <g id="ytick_17">
     <g id="line2d_71">
      <path d="M 778.373045 488.338883 
L 1030.884314 488.338883 
" clip-path="url(#p52f4e5f10c)" style="fill: none; stroke-dasharray: 1,1.65; stroke-dashoffset: 0; stroke: #808080; stroke-opacity: 0.55"/>
     </g>
     <g id="line2d_72">
      <g>
       <use xlink:href="#m831bb11fae" x="778.373045" y="488.338883" style="fill: #808080; stroke: #808080; stroke-width: 0.8"/>
      </g>
     </g>
     <g id="text_61">
      <text style="fill: #808080; font: 22px 'PingFang SC', 'Heiti SC', 'STHeiti', 'Calibri', 'Arial', 'Helvetica Neue', 'Arial Unicode MS', 'Noto Sans CJK SC', 'DejaVu Sans', sans-serif; text-anchor: end" x="771.373045" y="497.094196" transform="rotate(-0 771.373045 497.094196)">0.5</text>
     </g>
    </g>
    <g id="ytick_18">
     <g id="line2d_73">
      <path d="M 778.373045 390.918885 
L 1030.884314 390.918885 
" clip-path="url(#p52f4e5f10c)" style="fill: none; stroke-dasharray: 1,1.65; stroke-dashoffset: 0; stroke: #808080; stroke-opacity: 0.55"/>
     </g>
     <g id="line2d_74">
      <g>
       <use xlink:href="#m831bb11fae" x="778.373045" y="390.918885" style="fill: #808080; stroke: #808080; stroke-width: 0.8"/>
      </g>
     </g>
     <g id="text_62">
      <text style="fill: #808080; font: 22px 'PingFang SC', 'Heiti SC', 'STHeiti', 'Calibri', 'Arial', 'Helvetica Neue', 'Arial Unicode MS', 'Noto Sans CJK SC', 'DejaVu Sans', sans-serif; text-anchor: end" x="771.373045" y="399.674197" transform="rotate(-0 771.373045 399.674197)">1.0</text>
     </g>
    </g>
    <g id="text_63">
     <text style="font: 22px 'PingFang SC', 'Heiti SC', 'STHeiti', 'Calibri', 'Arial', 'Helvetica Neue', 'Arial Unicode MS', 'Noto Sans CJK SC', 'DejaVu Sans', sans-serif; text-anchor: middle" x="733.950233" y="487.571797" transform="rotate(-90 733.950233 487.571797)">累积概率</text>
    </g>
   </g>
   <g id="line2d_75">
    <path d="M 789.85083 584.224709 
L 789.932891 582.690536 
L 789.941455 581.156362 
L 817.982631 579.622189 
L 846.18925 578.088016 
L 865.538707 576.553843 
L 865.916321 575.01967 
L 865.929556 573.485496 
L 866.111819 571.951323 
L 881.88992 570.41715 
L 881.88992 568.882977 
L 881.922967 567.348804 
L 881.934522 565.81463 
L 881.934522 564.280457 
L 881.975312 562.746284 
L 881.988832 561.212111 
L 882.008246 559.677938 
L 882.027661 558.143764 
L 882.05089 556.609591 
L 882.052855 555.075418 
L 882.056668 553.541245 
L 882.07412 552.007071 
L 882.083828 550.472898 
L 882.085793 548.938725 
L 882.107058 547.404552 
L 882.114918 545.870379 
L 882.120697 544.336205 
L 882.124511 542.802032 
L 882.141963 541.267859 
L 882.169126 539.733686 
L 882.173056 538.199513 
L 882.1808 536.665339 
L 882.1808 535.131166 
L 882.198254 533.596993 
L 882.202184 532.06282 
L 882.374782 530.528647 
L 882.384494 528.994473 
L 882.390275 527.4603 
L 882.405768 525.926127 
L 882.411665 524.391954 
L 882.510529 522.857781 
L 882.595875 521.323607 
L 884.367528 519.789434 
L 884.861748 518.255261 
L 885.55875 516.721088 
L 888.953657 515.186915 
L 889.206189 513.652741 
L 890.459824 512.118568 
L 892.047544 510.584395 
L 893.103211 509.050222 
L 893.65031 507.516049 
L 896.296898 505.981875 
L 897.121131 504.447702 
L 898.730684 502.913529 
L 899.129229 501.379356 
L 899.978289 499.845183 
L 902.533379 498.311009 
L 902.607103 496.776836 
L 903.023466 495.242663 
L 903.2088 493.70849 
L 903.978651 492.174316 
L 905.542719 490.640143 
L 906.939575 489.10597 
L 908.216735 487.571797 
L 910.827458 486.037624 
L 912.88374 484.50345 
L 913.756305 482.969277 
L 914.255632 481.435104 
L 914.372919 479.900931 
L 915.589389 478.366758 
L 916.266194 476.832584 
L 918.131763 475.298411 
L 919.012203 473.764238 
L 919.893764 472.230065 
L 921.88846 470.695892 
L 922.775241 469.161718 
L 924.15657 467.627545 
L 924.554041 466.093372 
L 927.051816 464.559199 
L 927.280131 463.025026 
L 927.596794 461.490852 
L 928.107181 459.956679 
L 928.432527 458.422506 
L 928.599363 456.888333 
L 929.863027 455.35416 
L 931.966284 453.819986 
L 932.812753 452.285813 
L 933.318282 450.75164 
L 933.766047 449.217467 
L 933.923642 447.683294 
L 936.233217 446.14912 
L 936.520284 444.614947 
L 936.734754 443.080774 
L 936.799267 441.546601 
L 938.14919 440.012428 
L 939.77737 438.478254 
L 940.176501 436.944081 
L 940.726446 435.409908 
L 940.768344 433.875735 
L 941.019401 432.341561 
L 941.645458 430.807388 
L 942.508804 429.273215 
L 946.888401 427.739042 
L 947.002266 426.204869 
L 949.540953 424.670695 
L 951.00838 423.136522 
L 951.903143 421.602349 
L 959.917153 420.068176 
L 959.921496 418.534003 
L 960.050024 416.999829 
L 960.378081 415.465656 
L 960.496072 413.931483 
L 960.532508 412.39731 
L 960.792083 410.863137 
L 960.892995 409.328963 
L 960.942369 407.79479 
L 961.453296 406.260617 
L 980.454125 404.726444 
L 983.346396 403.192271 
L 998.068327 401.658097 
L 1007.752387 400.123924 
L 1013.225787 398.589751 
L 1018.956993 397.055578 
L 1019.164483 395.521405 
L 1019.233612 393.987231 
L 1019.259039 392.453058 
L 1019.406529 390.918885 
" clip-path="url(#p52f4e5f10c)" style="fill: none; stroke: #4c78a8; stroke-width: 2; stroke-linecap: square"/>
   </g>
   <g id="line2d_76">
    <path d="M 908.216735 593.89 
L 908.216735 381.253594 
" clip-path="url(#p52f4e5f10c)" style="fill: none; stroke-dasharray: 4.44,1.92; stroke-dashoffset: 0; stroke: #e45756; stroke-width: 1.2"/>
   </g>
   <g id="patch_23">
    <path d="M 778.373045 593.89 
L 778.373045 381.253594 
" style="fill: none; stroke: #808080; stroke-width: 0.8; stroke-linejoin: miter; stroke-linecap: square"/>
   </g>
   <g id="patch_24">
    <path d="M 778.373045 593.89 
L 1030.884314 593.89 
" style="fill: none; stroke: #808080; stroke-width: 0.8; stroke-linejoin: miter; stroke-linecap: square"/>
   </g>
   <g id="text_64">
    <text style="font: 10px 'PingFang SC', 'Heiti SC', 'STHeiti', 'Calibri', 'Arial', 'Helvetica Neue', 'Arial Unicode MS', 'Noto Sans CJK SC', 'DejaVu Sans', sans-serif; text-anchor: middle" x="904.62868" y="375.253594" transform="rotate(-0 904.62868 375.253594)">Sustained TFLOPS</text>
   </g>
   <g id="legend_6">
    <g id="patch_25">
     <path d="M 783.273045 406.894375 
L 841.367577 406.894375 
Q 842.767577 406.894375 842.767577 405.494375 
L 842.767577 386.153594 
Q 842.767577 384.753594 841.367577 384.753594 
L 783.273045 384.753594 
Q 781.873045 384.753594 781.873045 386.153594 
L 781.873045 405.494375 
Q 781.873045 406.894375 783.273045 406.894375 
z
" style="fill: #ffffff; opacity: 0.5; stroke: #cccccc; stroke-linejoin: miter"/>
    </g>
    <g id="line2d_77">
     <path d="M 784.673045 390.695937 
L 791.673045 390.695937 
L 798.673045 390.695937 
" style="fill: none; stroke: #4c78a8; stroke-width: 2; stroke-linecap: square"/>
    </g>
    <g id="text_65">
     <text style="font: 7px 'PingFang SC', 'Heiti SC', 'STHeiti', 'Calibri', 'Arial', 'Helvetica Neue', 'Arial Unicode MS', 'Noto Sans CJK SC', 'DejaVu Sans', sans-serif; text-anchor: start" x="804.273045" y="393.145937" transform="rotate(-0 804.273045 393.145937)">全集群</text>
    </g>
    <g id="line2d_78">
     <path d="M 784.673045 400.705937 
L 791.673045 400.705937 
L 798.673045 400.705937 
" style="fill: none; stroke-dasharray: 4.44,1.92; stroke-dashoffset: 0; stroke: #e45756; stroke-width: 1.2"/>
    </g>
    <g id="text_66">
     <text style="font: 7px 'PingFang SC', 'Heiti SC', 'STHeiti', 'Calibri', 'Arial', 'Helvetica Neue', 'Arial Unicode MS', 'Noto Sans CJK SC', 'DejaVu Sans', sans-serif; text-anchor: start" x="804.273045" y="403.155937" transform="rotate(-0 804.273045 403.155937)">中位=279.5</text>
    </g>
   </g>
  </g>
  <g id="text_67">
   <text style="font: 14px 'PingFang SC', 'Heiti SC', 'STHeiti', 'Calibri', 'Arial', 'Helvetica Neue', 'Arial Unicode MS', 'Noto Sans CJK SC', 'DejaVu Sans', sans-serif; text-anchor: middle" x="519.17625" y="22.336875" transform="rotate(-0 519.17625 22.336875)">核心指标累积分布函数 (CDF)</text>
  </g>
 </g>
 <defs>
  <clipPath id="pbe6fdc23c3">
   <rect x="72.733438" y="83.427187" width="252.511269" height="212.636406"/>
  </clipPath>
  <clipPath id="p5e7df63e4b">
   <rect x="425.553241" y="83.427187" width="252.511269" height="212.636406"/>
  </clipPath>
  <clipPath id="pe8f2bf5b42">
   <rect x="778.373045" y="83.427187" width="252.511269" height="212.636406"/>
  </clipPath>
  <clipPath id="p34f9ac0347">
   <rect x="72.733438" y="381.253594" width="252.511269" height="212.636406"/>
  </clipPath>
  <clipPath id="pa09fc98ccb">
   <rect x="425.553241" y="381.253594" width="252.511269" height="212.636406"/>
  </clipPath>
  <clipPath id="p52f4e5f10c">
   <rect x="778.373045" y="381.253594" width="252.511269" height="212.636406"/>
  </clipPath>
 </defs>
</svg>
