<?xml version="1.0" encoding="utf-8" standalone="no"?>
<!DOCTYPE svg PUBLIC "-//W3C//DTD SVG 1.1//EN"
  "http://www.w3.org/Graphics/SVG/1.1/DTD/svg11.dtd">
<svg xmlns:xlink="http://www.w3.org/1999/xlink" width="656.157622pt" height="583.407625pt" viewBox="0 0 656.157622 583.407625" xmlns="http://www.w3.org/2000/svg" version="1.1">
 <metadata>
  <rdf:RDF xmlns:dc="http://purl.org/dc/elements/1.1/" xmlns:cc="http://creativecommons.org/ns#" xmlns:rdf="http://www.w3.org/1999/02/22-rdf-syntax-ns#">
   <cc:Work>
    <dc:type rdf:resource="http://purl.org/dc/dcmitype/StillImage"/>
    <dc:date>2026-07-11T22:39:33.775827</dc:date>
    <dc:format>image/svg+xml</dc:format>
    <dc:creator>
     <cc:Agent>
      <dc:title>Matplotlib v3.9.4, https://matplotlib.org/</dc:title>
     </cc:Agent>
    </dc:creator>
   </cc:Work>
  </rdf:RDF>
 </metadata>
 <defs>
  <style type="text/css">*{stroke-linejoin: round; stroke-linecap: butt}</style>
 </defs>
 <g id="figure_1">
  <g id="patch_1">
   <path d="M 0 583.407625 
L 656.157622 583.407625 
L 656.157622 0 
L 0 0 
z
" style="fill: #ffffff"/>
  </g>
  <g id="axes_1">
   <g id="patch_2">
    <path d="M 531.130859 304.942625 
C 531.130859 272.181212 524.677575 239.738362 512.140325 209.470762 
C 499.603075 179.203163 481.225677 151.699443 458.059859 128.533625 
C 434.894042 105.367808 407.390321 86.990409 377.122722 74.453159 
C 346.855123 61.915909 314.412273 55.462625 281.650859 55.462625 
C 248.889446 55.462625 216.446596 61.915909 186.178997 74.453159 
C 155.911397 86.990409 128.407677 105.367808 105.24186 128.533625 
C 82.076042 151.699443 63.698644 179.203163 51.161394 209.470762 
C 38.624143 239.738362 32.170859 272.181212 32.170859 304.942625 
C 32.170859 337.704038 38.624143 370.146888 51.161394 400.414488 
C 63.698644 430.682087 82.076042 458.185807 105.24186 481.351625 
C 128.407677 504.517442 155.911397 522.894841 186.178997 535.432091 
C 216.446596 547.969341 248.889446 554.422625 281.650859 554.422625 
C 314.412273 554.422625 346.855123 547.969341 377.122722 535.432091 
C 407.390321 522.894841 434.894042 504.517442 458.059859 481.351625 
C 481.225677 458.185807 499.603075 430.682087 512.140325 400.414488 
C 524.677575 370.146888 531.130859 337.704038 531.130859 304.942625 
M 281.650859 304.942625 
C 281.650859 304.942625 281.650859 304.942625 281.650859 304.942625 
C 281.650859 304.942625 281.650859 304.942625 281.650859 304.942625 
C 281.650859 304.942625 281.650859 304.942625 281.650859 304.942625 
C 281.650859 304.942625 281.650859 304.942625 281.650859 304.942625 
C 281.650859 304.942625 281.650859 304.942625 281.650859 304.942625 
C 281.650859 304.942625 281.650859 304.942625 281.650859 304.942625 
C 281.650859 304.942625 281.650859 304.942625 281.650859 304.942625 
C 281.650859 304.942625 281.650859 304.942625 281.650859 304.942625 
C 281.650859 304.942625 281.650859 304.942625 281.650859 304.942625 
C 281.650859 304.942625 281.650859 304.942625 281.650859 304.942625 
C 281.650859 304.942625 281.650859 304.942625 281.650859 304.942625 
C 281.650859 304.942625 281.650859 304.942625 281.650859 304.942625 
C 281.650859 304.942625 281.650859 304.942625 281.650859 304.942625 
C 281.650859 304.942625 281.650859 304.942625 281.650859 304.942625 
C 281.650859 304.942625 281.650859 304.942625 281.650859 304.942625 
C 281.650859 304.942625 281.650859 304.942625 281.650859 304.942625 
z
" style="fill: #ffffff"/>
   </g>
   <g id="patch_3">
    <path d="M 404.260133 304.942625 
L 362.014231 224.579254 
L 281.650859 181.555729 
L 192.765185 216.05695 
L 150.978551 304.942625 
L 204.316609 382.276875 
L 281.650859 427.142758 
L 351.630155 374.92192 
z
" clip-path="url(#p401318a251)" style="fill: #1f77b4; opacity: 0.08; stroke: #1f77b4; stroke-linejoin: miter"/>
   </g>
   <g id="patch_4">
    <path d="M 402.22093 304.942625 
L 373.308062 213.285423 
L 281.650859 224.391694 
L 193.83386 217.125625 
L 155.498897 304.942625 
L 193.188555 393.404929 
L 281.650859 416.024354 
L 334.478458 357.770224 
z
" clip-path="url(#p401318a251)" style="fill: #ff7f0e; opacity: 0.08; stroke: #ff7f0e; stroke-linejoin: miter"/>
   </g>
   <g id="patch_5">
    <path d="M 408.456127 304.942625 
L 377.52162 209.071864 
L 281.650859 179.427054 
L 192.862348 216.154114 
L 154.943463 304.942625 
L 216.767154 369.82633 
L 281.650859 435.615022 
L 383.698176 406.989942 
z
" clip-path="url(#p401318a251)" style="fill: #2ca02c; opacity: 0.08; stroke: #2ca02c; stroke-linejoin: miter"/>
   </g>
   <g id="patch_6">
    <path d="M 404.745507 304.942625 
L 373.129986 213.463498 
L 281.650859 179.52409 
L 192.765185 216.05695 
L 153.815106 304.942625 
L 193.085391 393.508093 
L 281.650859 431.955715 
L 374.760698 398.052463 
z
" clip-path="url(#p401318a251)" style="fill: #d62728; opacity: 0.08; stroke: #d62728; stroke-linejoin: miter"/>
   </g>
   <g id="patch_7">
    <path d="M 411.233359 304.942625 
L 388.048155 198.545329 
L 281.650859 180.201903 
L 192.861575 216.15334 
L 157.7503 304.942625 
L 193.599875 392.993609 
L 281.650859 431.955715 
L 370.956279 394.248044 
z
" clip-path="url(#p401318a251)" style="fill: #9467bd; opacity: 0.08; stroke: #9467bd; stroke-linejoin: miter"/>
   </g>
   <g id="patch_8">
    <path d="M 410.003484 304.942625 
L 363.791585 222.801899 
L 281.650859 180.395616 
L 193.542752 216.834518 
L 158.868803 304.942625 
L 193.755345 392.838139 
L 281.650859 433.938684 
L 376.487295 399.779061 
z
" clip-path="url(#p401318a251)" style="fill: #8c564b; opacity: 0.08; stroke: #8c564b; stroke-linejoin: miter"/>
   </g>
   <g id="patch_9">
    <path d="M 406.391144 304.942625 
L 376.827004 209.766481 
L 281.650859 181.072529 
L 192.566663 215.858429 
L 153.814341 304.942625 
L 191.637312 394.956173 
L 281.650859 430.28765 
L 369.855359 393.147125 
z
" clip-path="url(#p401318a251)" style="fill: #e377c2; opacity: 0.08; stroke: #e377c2; stroke-linejoin: miter"/>
   </g>
   <g id="patch_10">
    <path d="M 405.985536 304.942625 
L 368.890911 217.702573 
L 281.650859 181.652944 
L 192.862348 216.154114 
L 157.471241 304.942625 
L 191.99887 394.594614 
L 281.650859 427.573914 
L 365.563199 388.854965 
z
" clip-path="url(#p401318a251)" style="fill: #7f7f7f; opacity: 0.08; stroke: #7f7f7f; stroke-linejoin: miter"/>
   </g>
   <g id="patch_11">
    <path d="M 400.61858 304.942625 
L 365.618471 220.975013 
L 281.650859 273.04237 
L 203.665102 226.956867 
M 281.650859 406.065865 
L 281.650859 406.065865 
" clip-path="url(#p401318a251)" style="fill: #bcbd22; opacity: 0.08; stroke: #bcbd22; stroke-linejoin: miter"/>
   </g>
   <g id="patch_12">
    <path d="M 409.29432 304.942625 
L 367.055624 219.537861 
L 281.650859 180.105679 
L 193.541596 216.833362 
L 154.661374 304.942625 
L 192.672192 393.921292 
L 281.650859 426.672939 
L 382.126328 405.418094 
z
" clip-path="url(#p401318a251)" style="fill: #17becf; opacity: 0.08; stroke: #17becf; stroke-linejoin: miter"/>
   </g>
   <g id="patch_13">
    <path d="M 411.483662 304.942625 
L 359.915739 226.677745 
L 281.650859 179.620946 
L 193.057062 216.348827 
L 155.505738 304.942625 
L 193.136868 393.456617 
L 281.650859 436.075853 
L 377.57223 400.863995 
z
" clip-path="url(#p401318a251)" style="fill: #1f77b4; opacity: 0.08; stroke: #1f77b4; stroke-linejoin: miter"/>
   </g>
   <g id="patch_14">
    <path d="M 403.83033 304.942625 
L 368.008931 218.584553 
L 281.650859 179.718074 
L 193.737658 217.029424 
L 156.63029 304.942625 
L 192.517371 394.076113 
L 281.650859 435.464659 
L 370.396827 393.688593 
z
" clip-path="url(#p401318a251)" style="fill: #ff7f0e; opacity: 0.08; stroke: #ff7f0e; stroke-linejoin: miter"/>
   </g>
   <g id="patch_15">
    <path d="M 407.639347 304.942625 
L 366.780675 219.812809 
L 281.650859 179.911966 
L 192.765056 216.056821 
L 154.661755 304.942625 
L 192.930178 393.663307 
L 281.650859 433.181026 
L 368.794214 392.085979 
z
" clip-path="url(#p401318a251)" style="fill: #2ca02c; opacity: 0.08; stroke: #2ca02c; stroke-linejoin: miter"/>
   </g>
   <g id="patch_16">
    <path d="M 409.593926 304.942625 
L 365.308501 221.284983 
L 281.650859 180.202625 
L 194.028956 217.320722 
L 160.817735 304.942625 
L 191.481788 395.111696 
L 281.650859 424.578974 
L 376.413301 399.705066 
z
" clip-path="url(#p401318a251)" style="fill: #d62728; opacity: 0.08; stroke: #d62728; stroke-linejoin: miter"/>
   </g>
   <g id="patch_17">
    <path d="M 409.18701 304.942625 
L 368.830448 217.763037 
L 281.650859 179.81502 
L 193.349132 216.640897 
L 159.699214 304.942625 
L 194.731661 391.861824 
L 281.650859 433.476453 
L 379.189697 402.481462 
z
" clip-path="url(#p401318a251)" style="fill: #9467bd; opacity: 0.08; stroke: #9467bd; stroke-linejoin: miter"/>
   </g>
   <g id="patch_18">
    <path d="M 400.297684 304.942625 
L 373.637067 212.956418 
L 281.650859 270.357432 
L 197.97916 221.270926 
M 281.650859 400.115672 
L 281.650859 400.115672 
L 285.98379 309.275556 
L 400.297684 304.942625 
" clip-path="url(#p401318a251)" style="fill: #8c564b; opacity: 0.08; stroke: #8c564b; stroke-linejoin: miter"/>
   </g>
   <g id="matplotlib.axis_1">
    <g id="xtick_1">
     <g id="line2d_1">
      <path d="M 281.650859 304.942625 
L 531.130859 304.942625 
" clip-path="url(#p401318a251)" style="fill: none; stroke-dasharray: 1,1.65; stroke-dashoffset: 0; stroke: #808080"/>
     </g>
     <g id="text_1">
      <text style="fill: #808080; font: 9px 'PingFang SC', 'Heiti SC', 'STHeiti', 'Calibri', 'Arial', 'Helvetica Neue', 'Arial Unicode MS', 'Noto Sans CJK SC', 'DejaVu Sans', sans-serif; text-anchor: middle" x="545.130859" y="307.921063" transform="rotate(-0 545.130859 307.921063)">GEMM</text>
     </g>
    </g>
    <g id="xtick_2">
     <g id="line2d_2">
      <path d="M 281.650859 304.942625 
L 458.059859 128.533625 
" clip-path="url(#p401318a251)" style="fill: none; stroke-dasharray: 1,1.65; stroke-dashoffset: 0; stroke: #808080"/>
     </g>
     <g id="text_2">
      <text style="fill: #808080; font: 9px 'PingFang SC', 'Heiti SC', 'STHeiti', 'Calibri', 'Arial', 'Helvetica Neue', 'Arial Unicode MS', 'Noto Sans CJK SC', 'DejaVu Sans', sans-serif; text-anchor: middle" x="467.959354" y="121.612568" transform="rotate(-0 467.959354 121.612568)">Sustained</text>
     </g>
    </g>
    <g id="xtick_3">
     <g id="line2d_3">
      <path d="M 281.650859 304.942625 
L 281.650859 55.462625 
" clip-path="url(#p401318a251)" style="fill: none; stroke-dasharray: 1,1.65; stroke-dashoffset: 0; stroke: #808080"/>
     </g>
     <g id="text_3">
      <text style="fill: #808080; font: 9px 'PingFang SC', 'Heiti SC', 'STHeiti', 'Calibri', 'Arial', 'Helvetica Neue', 'Arial Unicode MS', 'Noto Sans CJK SC', 'DejaVu Sans', sans-serif; text-anchor: middle" x="281.650859" y="44.441063" transform="rotate(-0 281.650859 44.441063)">Vector</text>
     </g>
    </g>
    <g id="xtick_4">
     <g id="line2d_4">
      <path d="M 281.650859 304.942625 
L 105.24186 128.533625 
" clip-path="url(#p401318a251)" style="fill: none; stroke-dasharray: 1,1.65; stroke-dashoffset: 0; stroke: #808080"/>
     </g>
     <g id="text_4">
      <text style="fill: #808080; font: 9px 'PingFang SC', 'Heiti SC', 'STHeiti', 'Calibri', 'Arial', 'Helvetica Neue', 'Arial Unicode MS', 'Noto Sans CJK SC', 'DejaVu Sans', sans-serif; text-anchor: middle" x="95.342365" y="121.612568" transform="rotate(-0 95.342365 121.612568)">DMA</text>
     </g>
    </g>
    <g id="xtick_5">
     <g id="line2d_5">
      <path d="M 281.650859 304.942625 
L 32.170859 304.942625 
" clip-path="url(#p401318a251)" style="fill: none; stroke-dasharray: 1,1.65; stroke-dashoffset: 0; stroke: #808080"/>
     </g>
     <g id="text_5">
      <text style="fill: #808080; font: 9px 'PingFang SC', 'Heiti SC', 'STHeiti', 'Calibri', 'Arial', 'Helvetica Neue', 'Arial Unicode MS', 'Noto Sans CJK SC', 'DejaVu Sans', sans-serif; text-anchor: middle" x="18.170859" y="307.921062" transform="rotate(-0 18.170859 307.921062)">SFU</text>
     </g>
    </g>
    <g id="xtick_6">
     <g id="line2d_6">
      <path d="M 281.650859 304.942625 
L 105.24186 481.351625 
" clip-path="url(#p401318a251)" style="fill: none; stroke-dasharray: 1,1.65; stroke-dashoffset: 0; stroke: #808080"/>
     </g>
     <g id="text_6">
      <text style="fill: #808080; font: 9px 'PingFang SC', 'Heiti SC', 'STHeiti', 'Calibri', 'Arial', 'Helvetica Neue', 'Arial Unicode MS', 'Noto Sans CJK SC', 'DejaVu Sans', sans-serif; text-anchor: middle" x="95.342365" y="494.229557" transform="rotate(-0 95.342365 494.229557)">HBM</text>
     </g>
    </g>
    <g id="xtick_7">
     <g id="line2d_7">
      <path d="M 281.650859 304.942625 
L 281.650859 554.422625 
" clip-path="url(#p401318a251)" style="fill: none; stroke-dasharray: 1,1.65; stroke-dashoffset: 0; stroke: #808080"/>
     </g>
     <g id="text_7">
      <text style="fill: #808080; font: 9px 'PingFang SC', 'Heiti SC', 'STHeiti', 'Calibri', 'Arial', 'Helvetica Neue', 'Arial Unicode MS', 'Noto Sans CJK SC', 'DejaVu Sans', sans-serif; text-anchor: middle" x="281.650859" y="571.401063" transform="rotate(-0 281.650859 571.401063)">GEMM+epilogue</text>
     </g>
    </g>
    <g id="xtick_8">
     <g id="line2d_8">
      <path d="M 281.650859 304.942625 
L 458.059859 481.351625 
" clip-path="url(#p401318a251)" style="fill: none; stroke-dasharray: 1,1.65; stroke-dashoffset: 0; stroke: #808080"/>
     </g>
     <g id="text_8">
      <text style="fill: #808080; font: 9px 'PingFang SC', 'Heiti SC', 'STHeiti', 'Calibri', 'Arial', 'Helvetica Neue', 'Arial Unicode MS', 'Noto Sans CJK SC', 'DejaVu Sans', sans-serif; text-anchor: middle" x="467.959354" y="494.229557" transform="rotate(-0 467.959354 494.229557)">Scalar</text>
     </g>
    </g>
   </g>
   <g id="matplotlib.axis_2">
    <g id="ytick_1">
     <g id="line2d_9">
      <path d="M 281.650859 304.942625 
C 281.650859 304.942625 281.650859 304.942625 281.650859 304.942625 
C 281.650859 304.942625 281.650859 304.942625 281.650859 304.942625 
C 281.650859 304.942625 281.650859 304.942625 281.650859 304.942625 
C 281.650859 304.942625 281.650859 304.942625 281.650859 304.942625 
C 281.650859 304.942625 281.650859 304.942625 281.650859 304.942625 
C 281.650859 304.942625 281.650859 304.942625 281.650859 304.942625 
C 281.650859 304.942625 281.650859 304.942625 281.650859 304.942625 
C 281.650859 304.942625 281.650859 304.942625 281.650859 304.942625 
C 281.650859 304.942625 281.650859 304.942625 281.650859 304.942625 
C 281.650859 304.942625 281.650859 304.942625 281.650859 304.942625 
C 281.650859 304.942625 281.650859 304.942625 281.650859 304.942625 
C 281.650859 304.942625 281.650859 304.942625 281.650859 304.942625 
C 281.650859 304.942625 281.650859 304.942625 281.650859 304.942625 
C 281.650859 304.942625 281.650859 304.942625 281.650859 304.942625 
C 281.650859 304.942625 281.650859 304.942625 281.650859 304.942625 
C 281.650859 304.942625 281.650859 304.942625 281.650859 304.942625 
" clip-path="url(#p401318a251)" style="fill: none; stroke-dasharray: 1,1.65; stroke-dashoffset: 0; stroke: #808080"/>
     </g>
     <g id="text_9">
      <text style="fill: #808080; font: 22px 'PingFang SC', 'Heiti SC', 'STHeiti', 'Calibri', 'Arial', 'Helvetica Neue', 'Arial Unicode MS', 'Noto Sans CJK SC', 'DejaVu Sans', sans-serif; text-anchor: start" x="281.650859" y="301.99325" transform="rotate(-0 281.650859 301.99325)">0.85</text>
     </g>
    </g>
    <g id="ytick_2">
     <g id="line2d_10">
      <path d="M 323.230859 304.942625 
C 323.230859 299.482389 322.155312 294.075248 320.06577 289.030648 
C 317.976229 283.986048 314.913329 279.402095 311.052359 275.541125 
C 307.19139 271.680155 302.607436 268.617256 297.562836 266.527714 
C 292.518237 264.438172 287.111095 263.362625 281.650859 263.362625 
C 276.190624 263.362625 270.783482 264.438172 265.738882 266.527714 
C 260.694282 268.617256 256.110329 271.680155 252.249359 275.541125 
C 248.38839 279.402095 245.32549 283.986048 243.235948 289.030648 
C 241.146407 294.075248 240.070859 299.482389 240.070859 304.942625 
C 240.070859 310.402861 241.146407 315.810002 243.235948 320.854602 
C 245.32549 325.899202 248.38839 330.483155 252.249359 334.344125 
C 256.110329 338.205095 260.694282 341.267994 265.738882 343.357536 
C 270.783482 345.447078 276.190624 346.522625 281.650859 346.522625 
C 287.111095 346.522625 292.518237 345.447078 297.562836 343.357536 
C 302.607436 341.267994 307.19139 338.205095 311.052359 334.344125 
C 314.913329 330.483155 317.976229 325.899202 320.06577 320.854602 
C 322.155312 315.810002 323.230859 310.402861 323.230859 304.942625 
" clip-path="url(#p401318a251)" style="fill: none; stroke-dasharray: 1,1.65; stroke-dashoffset: 0; stroke: #808080"/>
     </g>
     <g id="text_10">
      <text style="fill: #808080; font: 22px 'PingFang SC', 'Heiti SC', 'STHeiti', 'Calibri', 'Arial', 'Helvetica Neue', 'Arial Unicode MS', 'Noto Sans CJK SC', 'DejaVu Sans', sans-serif; text-anchor: start" x="320.06577" y="286.081273" transform="rotate(-0 320.06577 286.081273)">0.90</text>
     </g>
    </g>
    <g id="ytick_3">
     <g id="line2d_11">
      <path d="M 364.810859 304.942625 
C 364.810859 294.022154 362.659765 283.207871 358.480681 273.118671 
C 354.301598 263.029471 348.175798 253.861564 340.453859 246.139625 
C 332.73192 238.417686 323.564013 232.291886 313.474814 228.112803 
C 303.385614 223.93372 292.571331 221.782625 281.650859 221.782625 
C 270.730388 221.782625 259.916105 223.93372 249.826905 228.112803 
C 239.737705 232.291886 230.569799 238.417686 222.847859 246.139625 
C 215.12592 253.861564 209.000121 263.029471 204.821037 273.118671 
C 200.641954 283.207871 198.490859 294.022154 198.490859 304.942625 
C 198.490859 315.863096 200.641954 326.677379 204.821037 336.766579 
C 209.000121 346.855779 215.12592 356.023686 222.847859 363.745625 
C 230.569799 371.467564 239.737705 377.593364 249.826905 381.772447 
C 259.916105 385.95153 270.730388 388.102625 281.650859 388.102625 
C 292.571331 388.102625 303.385614 385.95153 313.474814 381.772447 
C 323.564013 377.593364 332.73192 371.467564 340.453859 363.745625 
C 348.175798 356.023686 354.301598 346.855779 358.480681 336.766579 
C 362.659765 326.677379 364.810859 315.863096 364.810859 304.942625 
" clip-path="url(#p401318a251)" style="fill: none; stroke-dasharray: 1,1.65; stroke-dashoffset: 0; stroke: #808080"/>
     </g>
     <g id="text_11">
      <text style="fill: #808080; font: 22px 'PingFang SC', 'Heiti SC', 'STHeiti', 'Calibri', 'Arial', 'Helvetica Neue', 'Arial Unicode MS', 'Noto Sans CJK SC', 'DejaVu Sans', sans-serif; text-anchor: start" x="358.480681" y="270.169296" transform="rotate(-0 358.480681 270.169296)">0.95</text>
     </g>
    </g>
    <g id="ytick_4">
     <g id="line2d_12">
      <path d="M 406.390859 304.942625 
C 406.390859 288.561918 403.164217 272.340493 396.895592 257.206694 
C 390.626967 242.072894 381.438268 228.321034 369.855359 216.738125 
C 358.27245 205.155216 344.52059 195.966517 329.386791 189.697892 
C 314.252991 183.429267 298.031566 180.202625 281.650859 180.202625 
C 265.270153 180.202625 249.048728 183.429267 233.914928 189.697892 
C 218.781128 195.966517 205.029268 205.155216 193.446359 216.738125 
C 181.863451 228.321034 172.674752 242.072894 166.406126 257.206694 
C 160.137501 272.340493 156.910859 288.561918 156.910859 304.942625 
C 156.910859 321.323332 160.137501 337.544757 166.406126 352.678556 
C 172.674752 367.812356 181.863451 381.564216 193.446359 393.147125 
C 205.029268 404.730034 218.781128 413.918733 233.914928 420.187358 
C 249.048728 426.455983 265.270153 429.682625 281.650859 429.682625 
C 298.031566 429.682625 314.252991 426.455983 329.386791 420.187358 
C 344.52059 413.918733 358.27245 404.730034 369.855359 393.147125 
C 381.438268 381.564216 390.626967 367.812356 396.895592 352.678556 
C 403.164217 337.544757 406.390859 321.323332 406.390859 304.942625 
" clip-path="url(#p401318a251)" style="fill: none; stroke-dasharray: 1,1.65; stroke-dashoffset: 0; stroke: #808080"/>
     </g>
     <g id="text_12">
      <text style="fill: #808080; font: 22px 'PingFang SC', 'Heiti SC', 'STHeiti', 'Calibri', 'Arial', 'Helvetica Neue', 'Arial Unicode MS', 'Noto Sans CJK SC', 'DejaVu Sans', sans-serif; text-anchor: start" x="396.895592" y="254.257319" transform="rotate(-0 396.895592 254.257319)">1.00</text>
     </g>
    </g>
    <g id="ytick_5">
     <g id="line2d_13">
      <path d="M 447.970859 304.942625 
C 447.970859 283.101683 443.66867 261.473116 435.310503 241.294717 
C 426.952336 221.116317 414.700738 202.780504 399.256859 187.336625 
C 383.812981 171.892747 365.477167 159.641148 345.298768 151.282981 
C 325.120368 142.924814 303.491802 138.622625 281.650859 138.622625 
C 259.809917 138.622625 238.18135 142.924814 218.002951 151.282981 
C 197.824551 159.641148 179.488738 171.892747 164.04486 187.336625 
C 148.600981 202.780504 136.349382 221.116317 127.991216 241.294717 
C 119.633049 261.473116 115.330859 283.101683 115.330859 304.942625 
C 115.330859 326.783567 119.633049 348.412134 127.991216 368.590533 
C 136.349382 388.768933 148.600981 407.104746 164.04486 422.548625 
C 179.488738 437.992503 197.824551 450.244102 218.002951 458.602269 
C 238.18135 466.960436 259.809917 471.262625 281.650859 471.262625 
C 303.491802 471.262625 325.120368 466.960436 345.298768 458.602269 
C 365.477167 450.244102 383.812981 437.992503 399.256859 422.548625 
C 414.700738 407.104746 426.952336 388.768933 435.310503 368.590533 
C 443.66867 348.412134 447.970859 326.783567 447.970859 304.942625 
" clip-path="url(#p401318a251)" style="fill: none; stroke-dasharray: 1,1.65; stroke-dashoffset: 0; stroke: #808080"/>
     </g>
     <g id="text_13">
      <text style="fill: #808080; font: 22px 'PingFang SC', 'Heiti SC', 'STHeiti', 'Calibri', 'Arial', 'Helvetica Neue', 'Arial Unicode MS', 'Noto Sans CJK SC', 'DejaVu Sans', sans-serif; text-anchor: start" x="435.310503" y="238.345342" transform="rotate(-0 435.310503 238.345342)">1.05</text>
     </g>
    </g>
    <g id="ytick_6">
     <g id="line2d_14">
      <path d="M 489.550859 304.942625 
C 489.550859 277.641447 484.173123 250.605739 473.725414 225.382739 
C 463.277706 200.15974 447.963207 177.239973 428.658359 157.935125 
C 409.353511 138.630277 386.433744 123.315779 361.210745 112.86807 
C 335.987746 102.420362 308.952037 97.042625 281.650859 97.042625 
C 254.349682 97.042625 227.313973 102.420362 202.090974 112.86807 
C 176.867974 123.315779 153.948208 138.630277 134.64336 157.935125 
C 115.338512 177.239973 100.024013 200.15974 89.576305 225.382739 
C 79.128596 250.605739 73.750859 277.641447 73.750859 304.942625 
C 73.750859 332.243803 79.128596 359.279511 89.576305 384.502511 
C 100.024013 409.72551 115.338512 432.645277 134.64336 451.950125 
C 153.948208 471.254973 176.867974 486.569471 202.090974 497.01718 
C 227.313973 507.464888 254.349682 512.842625 281.650859 512.842625 
C 308.952037 512.842625 335.987746 507.464888 361.210745 497.01718 
C 386.433744 486.569471 409.353511 471.254973 428.658359 451.950125 
C 447.963207 432.645277 463.277706 409.72551 473.725414 384.502511 
C 484.173123 359.279511 489.550859 332.243803 489.550859 304.942625 
" clip-path="url(#p401318a251)" style="fill: none; stroke-dasharray: 1,1.65; stroke-dashoffset: 0; stroke: #808080"/>
     </g>
     <g id="text_14">
      <text style="fill: #808080; font: 22px 'PingFang SC', 'Heiti SC', 'STHeiti', 'Calibri', 'Arial', 'Helvetica Neue', 'Arial Unicode MS', 'Noto Sans CJK SC', 'DejaVu Sans', sans-serif; text-anchor: start" x="473.725414" y="222.433364" transform="rotate(-0 473.725414 222.433364)">1.10</text>
     </g>
    </g>
    <g id="ytick_7">
     <g id="line2d_15">
      <path d="M 531.130859 304.942625 
C 531.130859 272.181212 524.677575 239.738362 512.140325 209.470762 
C 499.603075 179.203163 481.225677 151.699443 458.059859 128.533625 
C 434.894042 105.367808 407.390321 86.990409 377.122722 74.453159 
C 346.855123 61.915909 314.412273 55.462625 281.650859 55.462625 
C 248.889446 55.462625 216.446596 61.915909 186.178997 74.453159 
C 155.911397 86.990409 128.407677 105.367808 105.24186 128.533625 
C 82.076042 151.699443 63.698644 179.203163 51.161394 209.470762 
C 38.624143 239.738362 32.170859 272.181212 32.170859 304.942625 
C 32.170859 337.704038 38.624143 370.146888 51.161394 400.414488 
C 63.698644 430.682087 82.076042 458.185807 105.24186 481.351625 
C 128.407677 504.517442 155.911397 522.894841 186.178997 535.432091 
C 216.446596 547.969341 248.889446 554.422625 281.650859 554.422625 
C 314.412273 554.422625 346.855123 547.969341 377.122722 535.432091 
C 407.390321 522.894841 434.894042 504.517442 458.059859 481.351625 
C 481.225677 458.185807 499.603075 430.682087 512.140325 400.414488 
C 524.677575 370.146888 531.130859 337.704038 531.130859 304.942625 
" clip-path="url(#p401318a251)" style="fill: none; stroke-dasharray: 1,1.65; stroke-dashoffset: 0; stroke: #808080"/>
     </g>
     <g id="text_15">
      <text style="fill: #808080; font: 22px 'PingFang SC', 'Heiti SC', 'STHeiti', 'Calibri', 'Arial', 'Helvetica Neue', 'Arial Unicode MS', 'Noto Sans CJK SC', 'DejaVu Sans', sans-serif; text-anchor: start" x="512.140325" y="206.521387" transform="rotate(-0 512.140325 206.521387)">1.15</text>
     </g>
    </g>
   </g>
   <g id="line2d_16">
    <path d="M 404.260133 304.942625 
L 362.014231 224.579254 
L 281.650859 181.555729 
L 192.765185 216.05695 
L 150.978551 304.942625 
L 204.316609 382.276875 
L 281.650859 427.142758 
L 351.630155 374.92192 
L 404.260133 304.942625 
" clip-path="url(#p401318a251)" style="fill: none; stroke: #1f77b4; stroke-width: 1.8; stroke-linecap: square"/>
   </g>
   <g id="line2d_17">
    <path d="M 402.22093 304.942625 
L 373.308062 213.285423 
L 281.650859 224.391694 
L 193.83386 217.125625 
L 155.498897 304.942625 
L 193.188555 393.404929 
L 281.650859 416.024354 
L 334.478458 357.770224 
L 402.22093 304.942625 
" clip-path="url(#p401318a251)" style="fill: none; stroke: #ff7f0e; stroke-width: 1.8; stroke-linecap: square"/>
   </g>
   <g id="line2d_18">
    <path d="M 408.456127 304.942625 
L 377.52162 209.071864 
L 281.650859 179.427054 
L 192.862348 216.154114 
L 154.943463 304.942625 
L 216.767154 369.82633 
L 281.650859 435.615022 
L 383.698176 406.989942 
L 408.456127 304.942625 
" clip-path="url(#p401318a251)" style="fill: none; stroke: #2ca02c; stroke-width: 1.8; stroke-linecap: square"/>
   </g>
   <g id="line2d_19">
    <path d="M 404.745507 304.942625 
L 373.129986 213.463498 
L 281.650859 179.52409 
L 192.765185 216.05695 
L 153.815106 304.942625 
L 193.085391 393.508093 
L 281.650859 431.955715 
L 374.760698 398.052463 
L 404.745507 304.942625 
" clip-path="url(#p401318a251)" style="fill: none; stroke: #d62728; stroke-width: 1.8; stroke-linecap: square"/>
   </g>
   <g id="line2d_20">
    <path d="M 411.233359 304.942625 
L 388.048155 198.545329 
L 281.650859 180.201903 
L 192.861575 216.15334 
L 157.7503 304.942625 
L 193.599875 392.993609 
L 281.650859 431.955715 
L 370.956279 394.248044 
L 411.233359 304.942625 
" clip-path="url(#p401318a251)" style="fill: none; stroke: #9467bd; stroke-width: 1.8; stroke-linecap: square"/>
   </g>
   <g id="line2d_21">
    <path d="M 410.003484 304.942625 
L 363.791585 222.801899 
L 281.650859 180.395616 
L 193.542752 216.834518 
L 158.868803 304.942625 
L 193.755345 392.838139 
L 281.650859 433.938684 
L 376.487295 399.779061 
L 410.003484 304.942625 
" clip-path="url(#p401318a251)" style="fill: none; stroke: #8c564b; stroke-width: 1.8; stroke-linecap: square"/>
   </g>
   <g id="line2d_22">
    <path d="M 406.391144 304.942625 
L 376.827004 209.766481 
L 281.650859 181.072529 
L 192.566663 215.858429 
L 153.814341 304.942625 
L 191.637312 394.956173 
L 281.650859 430.28765 
L 369.855359 393.147125 
L 406.391144 304.942625 
" clip-path="url(#p401318a251)" style="fill: none; stroke: #e377c2; stroke-width: 1.8; stroke-linecap: square"/>
   </g>
   <g id="line2d_23">
    <path d="M 405.985536 304.942625 
L 368.890911 217.702573 
L 281.650859 181.652944 
L 192.862348 216.154114 
L 157.471241 304.942625 
L 191.99887 394.594614 
L 281.650859 427.573914 
L 365.563199 388.854965 
L 405.985536 304.942625 
" clip-path="url(#p401318a251)" style="fill: none; stroke: #7f7f7f; stroke-width: 1.8; stroke-linecap: square"/>
   </g>
   <g id="line2d_24">
    <path d="M 400.61858 304.942625 
L 365.618471 220.975013 
L 281.650859 273.04237 
L 203.665102 226.956867 
M 281.650859 406.065865 
M 400.61858 304.942625 
" clip-path="url(#p401318a251)" style="fill: none; stroke: #bcbd22; stroke-width: 1.8; stroke-linecap: square"/>
   </g>
   <g id="line2d_25">
    <path d="M 409.29432 304.942625 
L 367.055624 219.537861 
L 281.650859 180.105679 
L 193.541596 216.833362 
L 154.661374 304.942625 
L 192.672192 393.921292 
L 281.650859 426.672939 
L 382.126328 405.418094 
L 409.29432 304.942625 
" clip-path="url(#p401318a251)" style="fill: none; stroke: #17becf; stroke-width: 1.8; stroke-linecap: square"/>
   </g>
   <g id="line2d_26">
    <path d="M 411.483662 304.942625 
L 359.915739 226.677745 
L 281.650859 179.620946 
L 193.057062 216.348827 
L 155.505738 304.942625 
L 193.136868 393.456617 
L 281.650859 436.075853 
L 377.57223 400.863995 
L 411.483662 304.942625 
" clip-path="url(#p401318a251)" style="fill: none; stroke: #1f77b4; stroke-width: 1.8; stroke-linecap: square"/>
   </g>
   <g id="line2d_27">
    <path d="M 403.83033 304.942625 
L 368.008931 218.584553 
L 281.650859 179.718074 
L 193.737658 217.029424 
L 156.63029 304.942625 
L 192.517371 394.076113 
L 281.650859 435.464659 
L 370.396827 393.688593 
L 403.83033 304.942625 
" clip-path="url(#p401318a251)" style="fill: none; stroke: #ff7f0e; stroke-width: 1.8; stroke-linecap: square"/>
   </g>
   <g id="line2d_28">
    <path d="M 407.639347 304.942625 
L 366.780675 219.812809 
L 281.650859 179.911966 
L 192.765056 216.056821 
L 154.661755 304.942625 
L 192.930178 393.663307 
L 281.650859 433.181026 
L 368.794214 392.085979 
L 407.639347 304.942625 
" clip-path="url(#p401318a251)" style="fill: none; stroke: #2ca02c; stroke-width: 1.8; stroke-linecap: square"/>
   </g>
   <g id="line2d_29">
    <path d="M 409.593926 304.942625 
L 365.308501 221.284983 
L 281.650859 180.202625 
L 194.028956 217.320722 
L 160.817735 304.942625 
L 191.481788 395.111696 
L 281.650859 424.578974 
L 376.413301 399.705066 
L 409.593926 304.942625 
" clip-path="url(#p401318a251)" style="fill: none; stroke: #d62728; stroke-width: 1.8; stroke-linecap: square"/>
   </g>
   <g id="line2d_30">
    <path d="M 409.18701 304.942625 
L 368.830448 217.763037 
L 281.650859 179.81502 
L 193.349132 216.640897 
L 159.699214 304.942625 
L 194.731661 391.861824 
L 281.650859 433.476453 
L 379.189697 402.481462 
L 409.18701 304.942625 
" clip-path="url(#p401318a251)" style="fill: none; stroke: #9467bd; stroke-width: 1.8; stroke-linecap: square"/>
   </g>
   <g id="line2d_31">
    <path d="M 400.297684 304.942625 
L 373.637067 212.956418 
L 281.650859 270.357432 
L 197.97916 221.270926 
M 281.650859 400.115672 
L 285.98379 309.275556 
L 400.297684 304.942625 
" clip-path="url(#p401318a251)" style="fill: none; stroke: #8c564b; stroke-width: 1.8; stroke-linecap: square"/>
   </g>
   <g id="line2d_32">
    <path d="M 406.390859 304.942625 
C 406.390859 288.561918 403.164217 272.340493 396.895592 257.206694 
C 390.626967 242.072894 381.438268 228.321034 369.855359 216.738125 
C 358.27245 205.155216 344.52059 195.966517 329.386791 189.697892 
C 314.252991 183.429267 298.031566 180.202625 281.650859 180.202625 
C 265.270153 180.202625 249.048728 183.429267 233.914928 189.697892 
C 218.781128 195.966517 205.029268 205.155216 193.446359 216.738125 
C 181.863451 228.321034 172.674752 242.072894 166.406126 257.206694 
C 160.137501 272.340493 156.910859 288.561918 156.910859 304.942625 
C 156.910859 321.323332 160.137501 337.544757 166.406126 352.678556 
C 172.674752 367.812356 181.863451 381.564216 193.446359 393.147125 
C 205.029268 404.730034 218.781128 413.918733 233.914928 420.187358 
C 249.048728 426.455983 265.270153 429.682625 281.650859 429.682625 
C 298.031566 429.682625 314.252991 426.455983 329.386791 420.187358 
C 344.52059 413.918733 358.27245 404.730034 369.855359 393.147125 
C 381.438268 381.564216 390.626967 367.812356 396.895592 352.678556 
C 403.164217 337.544757 406.390859 321.323332 406.390859 304.942625 
" clip-path="url(#p401318a251)" style="fill: none; stroke-dasharray: 2.96,1.28; stroke-dashoffset: 0; stroke: #888888; stroke-opacity: 0.6; stroke-width: 0.8"/>
   </g>
   <g id="patch_19">
    <path d="M 531.130859 304.942625 
C 531.130859 272.181212 524.677575 239.738362 512.140325 209.470762 
C 499.603075 179.203163 481.225677 151.699443 458.059859 128.533625 
C 434.894042 105.367808 407.390321 86.990409 377.122722 74.453159 
C 346.855123 61.915909 314.412273 55.462625 281.650859 55.462625 
C 248.889446 55.462625 216.446596 61.915909 186.178997 74.453159 
C 155.911397 86.990409 128.407677 105.367808 105.24186 128.533625 
C 82.076042 151.699443 63.698644 179.203163 51.161394 209.470762 
C 38.624143 239.738362 32.170859 272.181212 32.170859 304.942625 
C 32.170859 337.704038 38.624143 370.146888 51.161394 400.414488 
C 63.698644 430.682087 82.076042 458.185807 105.24186 481.351625 
C 128.407677 504.517442 155.911397 522.894841 186.178997 535.432091 
C 216.446596 547.969341 248.889446 554.422625 281.650859 554.422625 
C 314.412273 554.422625 346.855123 547.969341 377.122722 535.432091 
C 407.390321 522.894841 434.894042 504.517442 458.059859 481.351625 
C 481.225677 458.185807 499.603075 430.682087 512.140325 400.414488 
C 524.677575 370.146888 531.130859 337.704038 531.130859 304.942625 
" style="fill: none; stroke: #808080; stroke-width: 0.8; stroke-linejoin: miter; stroke-linecap: square"/>
   </g>
   <g id="text_16">
    <text style="font: 13px 'PingFang SC', 'Heiti SC', 'STHeiti', 'Calibri', 'Arial', 'Helvetica Neue', 'Arial Unicode MS', 'Noto Sans CJK SC', 'DejaVu Sans', sans-serif" transform="translate(180.478359 21.147187)">各 Host 多指标中位数归一化雷达图</text>
    <text style="font: 13px 'PingFang SC', 'Heiti SC', 'STHeiti', 'Calibri', 'Arial', 'Helvetica Neue', 'Arial Unicode MS', 'Noto Sans CJK SC', 'DejaVu Sans', sans-serif" transform="translate(226.45875 35.462625)">（1.0 = 集群中位）</text>
   </g>
   <g id="legend_1">
    <g id="patch_20">
     <path d="M 597.306059 243.634625 
L 643.557622 243.634625 
Q 645.357622 243.634625 645.357622 241.834625 
L 645.357622 36.814625 
Q 645.357622 35.014625 643.557622 35.014625 
L 597.306059 35.014625 
Q 595.506059 35.014625 595.506059 36.814625 
L 595.506059 241.834625 
Q 595.506059 243.634625 597.306059 243.634625 
z
" style="fill: #ffffff; opacity: 0.5; stroke: #cccccc; stroke-linejoin: miter"/>
    </g>
    <g id="line2d_33">
     <path d="M 599.106059 42.628063 
L 608.106059 42.628063 
L 617.106059 42.628063 
" style="fill: none; stroke: #1f77b4; stroke-width: 1.8; stroke-linecap: square"/>
    </g>
    <g id="text_17">
     <text style="font: 9px 'PingFang SC', 'Heiti SC', 'STHeiti', 'Calibri', 'Arial', 'Helvetica Neue', 'Arial Unicode MS', 'Noto Sans CJK SC', 'DejaVu Sans', sans-serif; text-anchor: start" x="624.306059" y="45.778063" transform="rotate(-0 624.306059 45.778063)">m0</text>
    </g>
    <g id="line2d_34">
     <path d="M 599.106059 55.498063 
L 608.106059 55.498063 
L 617.106059 55.498063 
" style="fill: none; stroke: #ff7f0e; stroke-width: 1.8; stroke-linecap: square"/>
    </g>
    <g id="text_18">
     <text style="font: 9px 'PingFang SC', 'Heiti SC', 'STHeiti', 'Calibri', 'Arial', 'Helvetica Neue', 'Arial Unicode MS', 'Noto Sans CJK SC', 'DejaVu Sans', sans-serif; text-anchor: start" x="624.306059" y="58.648063" transform="rotate(-0 624.306059 58.648063)">w0</text>
    </g>
    <g id="line2d_35">
     <path d="M 599.106059 68.368063 
L 608.106059 68.368063 
L 617.106059 68.368063 
" style="fill: none; stroke: #2ca02c; stroke-width: 1.8; stroke-linecap: square"/>
    </g>
    <g id="text_19">
     <text style="font: 9px 'PingFang SC', 'Heiti SC', 'STHeiti', 'Calibri', 'Arial', 'Helvetica Neue', 'Arial Unicode MS', 'Noto Sans CJK SC', 'DejaVu Sans', sans-serif; text-anchor: start" x="624.306059" y="71.518063" transform="rotate(-0 624.306059 71.518063)">w1</text>
    </g>
    <g id="line2d_36">
     <path d="M 599.106059 81.238063 
L 608.106059 81.238063 
L 617.106059 81.238063 
" style="fill: none; stroke: #d62728; stroke-width: 1.8; stroke-linecap: square"/>
    </g>
    <g id="text_20">
     <text style="font: 9px 'PingFang SC', 'Heiti SC', 'STHeiti', 'Calibri', 'Arial', 'Helvetica Neue', 'Arial Unicode MS', 'Noto Sans CJK SC', 'DejaVu Sans', sans-serif; text-anchor: start" x="624.306059" y="84.388063" transform="rotate(-0 624.306059 84.388063)">w2</text>
    </g>
    <g id="line2d_37">
     <path d="M 599.106059 94.108063 
L 608.106059 94.108063 
L 617.106059 94.108063 
" style="fill: none; stroke: #9467bd; stroke-width: 1.8; stroke-linecap: square"/>
    </g>
    <g id="text_21">
     <text style="font: 9px 'PingFang SC', 'Heiti SC', 'STHeiti', 'Calibri', 'Arial', 'Helvetica Neue', 'Arial Unicode MS', 'Noto Sans CJK SC', 'DejaVu Sans', sans-serif; text-anchor: start" x="624.306059" y="97.258063" transform="rotate(-0 624.306059 97.258063)">w3</text>
    </g>
    <g id="line2d_38">
     <path d="M 599.106059 106.978063 
L 608.106059 106.978063 
L 617.106059 106.978063 
" style="fill: none; stroke: #8c564b; stroke-width: 1.8; stroke-linecap: square"/>
    </g>
    <g id="text_22">
     <text style="font: 9px 'PingFang SC', 'Heiti SC', 'STHeiti', 'Calibri', 'Arial', 'Helvetica Neue', 'Arial Unicode MS', 'Noto Sans CJK SC', 'DejaVu Sans', sans-serif; text-anchor: start" x="624.306059" y="110.128063" transform="rotate(-0 624.306059 110.128063)">w4</text>
    </g>
    <g id="line2d_39">
     <path d="M 599.106059 119.848063 
L 608.106059 119.848063 
L 617.106059 119.848063 
" style="fill: none; stroke: #e377c2; stroke-width: 1.8; stroke-linecap: square"/>
    </g>
    <g id="text_23">
     <text style="font: 9px 'PingFang SC', 'Heiti SC', 'STHeiti', 'Calibri', 'Arial', 'Helvetica Neue', 'Arial Unicode MS', 'Noto Sans CJK SC', 'DejaVu Sans', sans-serif; text-anchor: start" x="624.306059" y="122.998063" transform="rotate(-0 624.306059 122.998063)">w5</text>
    </g>
    <g id="line2d_40">
     <path d="M 599.106059 132.718063 
L 608.106059 132.718063 
L 617.106059 132.718063 
" style="fill: none; stroke: #7f7f7f; stroke-width: 1.8; stroke-linecap: square"/>
    </g>
    <g id="text_24">
     <text style="font: 9px 'PingFang SC', 'Heiti SC', 'STHeiti', 'Calibri', 'Arial', 'Helvetica Neue', 'Arial Unicode MS', 'Noto Sans CJK SC', 'DejaVu Sans', sans-serif; text-anchor: start" x="624.306059" y="135.868063" transform="rotate(-0 624.306059 135.868063)">w6</text>
    </g>
    <g id="line2d_41">
     <path d="M 599.106059 145.588063 
L 608.106059 145.588063 
L 617.106059 145.588063 
" style="fill: none; stroke: #bcbd22; stroke-width: 1.8; stroke-linecap: square"/>
    </g>
    <g id="text_25">
     <text style="font: 9px 'PingFang SC', 'Heiti SC', 'STHeiti', 'Calibri', 'Arial', 'Helvetica Neue', 'Arial Unicode MS', 'Noto Sans CJK SC', 'DejaVu Sans', sans-serif; text-anchor: start" x="624.306059" y="148.738063" transform="rotate(-0 624.306059 148.738063)">w7</text>
    </g>
    <g id="line2d_42">
     <path d="M 599.106059 158.458063 
L 608.106059 158.458063 
L 617.106059 158.458063 
" style="fill: none; stroke: #17becf; stroke-width: 1.8; stroke-linecap: square"/>
    </g>
    <g id="text_26">
     <text style="font: 9px 'PingFang SC', 'Heiti SC', 'STHeiti', 'Calibri', 'Arial', 'Helvetica Neue', 'Arial Unicode MS', 'Noto Sans CJK SC', 'DejaVu Sans', sans-serif; text-anchor: start" x="624.306059" y="161.608063" transform="rotate(-0 624.306059 161.608063)">w8</text>
    </g>
    <g id="line2d_43">
     <path d="M 599.106059 171.328063 
L 608.106059 171.328063 
L 617.106059 171.328063 
" style="fill: none; stroke: #1f77b4; stroke-width: 1.8; stroke-linecap: square"/>
    </g>
    <g id="text_27">
     <text style="font: 9px 'PingFang SC', 'Heiti SC', 'STHeiti', 'Calibri', 'Arial', 'Helvetica Neue', 'Arial Unicode MS', 'Noto Sans CJK SC', 'DejaVu Sans', sans-serif; text-anchor: start" x="624.306059" y="174.478063" transform="rotate(-0 624.306059 174.478063)">w9</text>
    </g>
    <g id="line2d_44">
     <path d="M 599.106059 184.198063 
L 608.106059 184.198063 
L 617.106059 184.198063 
" style="fill: none; stroke: #ff7f0e; stroke-width: 1.8; stroke-linecap: square"/>
    </g>
    <g id="text_28">
     <text style="font: 9px 'PingFang SC', 'Heiti SC', 'STHeiti', 'Calibri', 'Arial', 'Helvetica Neue', 'Arial Unicode MS', 'Noto Sans CJK SC', 'DejaVu Sans', sans-serif; text-anchor: start" x="624.306059" y="187.348063" transform="rotate(-0 624.306059 187.348063)">w10</text>
    </g>
    <g id="line2d_45">
     <path d="M 599.106059 197.068063 
L 608.106059 197.068063 
L 617.106059 197.068063 
" style="fill: none; stroke: #2ca02c; stroke-width: 1.8; stroke-linecap: square"/>
    </g>
    <g id="text_29">
     <text style="font: 9px 'PingFang SC', 'Heiti SC', 'STHeiti', 'Calibri', 'Arial', 'Helvetica Neue', 'Arial Unicode MS', 'Noto Sans CJK SC', 'DejaVu Sans', sans-serif; text-anchor: start" x="624.306059" y="200.218063" transform="rotate(-0 624.306059 200.218063)">w11</text>
    </g>
    <g id="line2d_46">
     <path d="M 599.106059 209.938063 
L 608.106059 209.938063 
L 617.106059 209.938063 
" style="fill: none; stroke: #d62728; stroke-width: 1.8; stroke-linecap: square"/>
    </g>
    <g id="text_30">
     <text style="font: 9px 'PingFang SC', 'Heiti SC', 'STHeiti', 'Calibri', 'Arial', 'Helvetica Neue', 'Arial Unicode MS', 'Noto Sans CJK SC', 'DejaVu Sans', sans-serif; text-anchor: start" x="624.306059" y="213.088063" transform="rotate(-0 624.306059 213.088063)">w12</text>
    </g>
    <g id="line2d_47">
     <path d="M 599.106059 222.808063 
L 608.106059 222.808063 
L 617.106059 222.808063 
" style="fill: none; stroke: #9467bd; stroke-width: 1.8; stroke-linecap: square"/>
    </g>
    <g id="text_31">
     <text style="font: 9px 'PingFang SC', 'Heiti SC', 'STHeiti', 'Calibri', 'Arial', 'Helvetica Neue', 'Arial Unicode MS', 'Noto Sans CJK SC', 'DejaVu Sans', sans-serif; text-anchor: start" x="624.306059" y="225.958063" transform="rotate(-0 624.306059 225.958063)">w13</text>
    </g>
    <g id="line2d_48">
     <path d="M 599.106059 235.678063 
L 608.106059 235.678063 
L 617.106059 235.678063 
" style="fill: none; stroke: #8c564b; stroke-width: 1.8; stroke-linecap: square"/>
    </g>
    <g id="text_32">
     <text style="font: 9px 'PingFang SC', 'Heiti SC', 'STHeiti', 'Calibri', 'Arial', 'Helvetica Neue', 'Arial Unicode MS', 'Noto Sans CJK SC', 'DejaVu Sans', sans-serif; text-anchor: start" x="624.306059" y="238.828063" transform="rotate(-0 624.306059 238.828063)">w14</text>
    </g>
   </g>
  </g>
 </g>
 <defs>
  <clipPath id="p401318a251">
   <path d="M 531.130859 304.942625 
C 531.130859 272.181212 524.677575 239.738362 512.140325 209.470762 
C 499.603075 179.203163 481.225677 151.699443 458.059859 128.533625 
C 434.894042 105.367808 407.390321 86.990409 377.122722 74.453159 
C 346.855123 61.915909 314.412273 55.462625 281.650859 55.462625 
C 248.889446 55.462625 216.446596 61.915909 186.178997 74.453159 
C 155.911397 86.990409 128.407677 105.367808 105.24186 128.533625 
C 82.076042 151.699443 63.698644 179.203163 51.161394 209.470762 
C 38.624143 239.738362 32.170859 272.181212 32.170859 304.942625 
C 32.170859 337.704038 38.624143 370.146888 51.161394 400.414488 
C 63.698644 430.682087 82.076042 458.185807 105.24186 481.351625 
C 128.407677 504.517442 155.911397 522.894841 186.178997 535.432091 
C 216.446596 547.969341 248.889446 554.422625 281.650859 554.422625 
C 314.412273 554.422625 346.855123 547.969341 377.122722 535.432091 
C 407.390321 522.894841 434.894042 504.517442 458.059859 481.351625 
C 481.225677 458.185807 499.603075 430.682087 512.140325 400.414488 
C 524.677575 370.146888 531.130859 337.704038 531.130859 304.942625 
M 281.650859 304.942625 
C 281.650859 304.942625 281.650859 304.942625 281.650859 304.942625 
C 281.650859 304.942625 281.650859 304.942625 281.650859 304.942625 
C 281.650859 304.942625 281.650859 304.942625 281.650859 304.942625 
C 281.650859 304.942625 281.650859 304.942625 281.650859 304.942625 
C 281.650859 304.942625 281.650859 304.942625 281.650859 304.942625 
C 281.650859 304.942625 281.650859 304.942625 281.650859 304.942625 
C 281.650859 304.942625 281.650859 304.942625 281.650859 304.942625 
C 281.650859 304.942625 281.650859 304.942625 281.650859 304.942625 
C 281.650859 304.942625 281.650859 304.942625 281.650859 304.942625 
C 281.650859 304.942625 281.650859 304.942625 281.650859 304.942625 
C 281.650859 304.942625 281.650859 304.942625 281.650859 304.942625 
C 281.650859 304.942625 281.650859 304.942625 281.650859 304.942625 
C 281.650859 304.942625 281.650859 304.942625 281.650859 304.942625 
C 281.650859 304.942625 281.650859 304.942625 281.650859 304.942625 
C 281.650859 304.942625 281.650859 304.942625 281.650859 304.942625 
C 281.650859 304.942625 281.650859 304.942625 281.650859 304.942625 
z
"/>
  </clipPath>
 </defs>
</svg>
