<?xml version="1.0" encoding="utf-8" standalone="no"?>
<!DOCTYPE svg PUBLIC "-//W3C//DTD SVG 1.1//EN"
  "http://www.w3.org/Graphics/SVG/1.1/DTD/svg11.dtd">
<svg xmlns:xlink="http://www.w3.org/1999/xlink" width="450.785625pt" height="343.149375pt" viewBox="0 0 450.785625 343.149375" xmlns="http://www.w3.org/2000/svg" version="1.1">
 <metadata>
  <rdf:RDF xmlns:dc="http://purl.org/dc/elements/1.1/" xmlns:cc="http://creativecommons.org/ns#" xmlns:rdf="http://www.w3.org/1999/02/22-rdf-syntax-ns#">
   <cc:Work>
    <dc:type rdf:resource="http://purl.org/dc/dcmitype/StillImage"/>
    <dc:date>2026-07-11T23:31:20.065280</dc:date>
    <dc:format>image/svg+xml</dc:format>
    <dc:creator>
     <cc:Agent>
      <dc:title>Matplotlib v3.9.4, https://matplotlib.org/</dc:title>
     </cc:Agent>
    </dc:creator>
   </cc:Work>
  </rdf:RDF>
 </metadata>
 <defs>
  <style type="text/css">*{stroke-linejoin: round; stroke-linecap: butt}</style>
 </defs>
 <g id="figure_1">
  <g id="patch_1">
   <path d="M 0 343.149375 
L 450.785625 343.149375 
L 450.785625 0 
L 0 0 
z
" style="fill: #ffffff"/>
  </g>
  <g id="axes_1">
   <g id="patch_2">
    <path d="M 78.828125 279.480625 
L 439.985625 279.480625 
L 439.985625 34.310625 
L 78.828125 34.310625 
z
" style="fill: #ffffff"/>
   </g>
   <g id="matplotlib.axis_1">
    <g id="xtick_1">
     <g id="line2d_1">
      <defs>
       <path id="m13879917a4" d="M 0 0 
L 0 3.5 
" style="stroke: #808080; stroke-width: 0.8"/>
      </defs>
      <g>
       <use xlink:href="#m13879917a4" x="173.725257" y="279.480625" style="fill: #808080; stroke: #808080; stroke-width: 0.8"/>
      </g>
     </g>
     <g id="text_1">
      <text style="fill: #808080; font: 22px 'PingFang SC', 'Heiti SC', 'STHeiti', 'Calibri', 'Arial', 'Helvetica Neue', 'Arial Unicode MS', 'Noto Sans CJK SC', 'DejaVu Sans', sans-serif; text-anchor: middle" x="173.725257" y="303.99125" transform="rotate(-0 173.725257 303.99125)">200</text>
     </g>
    </g>
    <g id="xtick_2">
     <g id="line2d_2">
      <g>
       <use xlink:href="#m13879917a4" x="316.597008" y="279.480625" style="fill: #808080; stroke: #808080; stroke-width: 0.8"/>
      </g>
     </g>
     <g id="text_2">
      <text style="fill: #808080; font: 22px 'PingFang SC', 'Heiti SC', 'STHeiti', 'Calibri', 'Arial', 'Helvetica Neue', 'Arial Unicode MS', 'Noto Sans CJK SC', 'DejaVu Sans', sans-serif; text-anchor: middle" x="316.597008" y="303.99125" transform="rotate(-0 316.597008 303.99125)">400</text>
     </g>
    </g>
    <g id="text_3">
     <text style="font: 22px 'PingFang SC', 'Heiti SC', 'STHeiti', 'Calibri', 'Arial', 'Helvetica Neue', 'Arial Unicode MS', 'Noto Sans CJK SC', 'DejaVu Sans', sans-serif; text-anchor: middle" x="259.406875" y="329.4" transform="rotate(-0 259.406875 329.4)">Health power (W)</text>
    </g>
   </g>
   <g id="matplotlib.axis_2">
    <g id="ytick_1">
     <g id="line2d_3">
      <path d="M 78.828125 219.753566 
L 439.985625 219.753566 
" clip-path="url(#p5d02660ea7)" style="fill: none; stroke-dasharray: 1,1.65; stroke-dashoffset: 0; stroke: #808080; stroke-opacity: 0.55"/>
     </g>
     <g id="line2d_4">
      <defs>
       <path id="m7100439117" d="M 0 0 
L -3.5 0 
" style="stroke: #808080; stroke-width: 0.8"/>
      </defs>
      <g>
       <use xlink:href="#m7100439117" x="78.828125" y="219.753566" style="fill: #808080; stroke: #808080; stroke-width: 0.8"/>
      </g>
     </g>
     <g id="text_4">
      <text style="fill: #808080; font: 22px 'PingFang SC', 'Heiti SC', 'STHeiti', 'Calibri', 'Arial', 'Helvetica Neue', 'Arial Unicode MS', 'Noto Sans CJK SC', 'DejaVu Sans', sans-serif; text-anchor: end" x="71.828125" y="228.508878" transform="rotate(-0 71.828125 228.508878)">275</text>
     </g>
    </g>
    <g id="ytick_2">
     <g id="line2d_5">
      <path d="M 78.828125 152.523935 
L 439.985625 152.523935 
" clip-path="url(#p5d02660ea7)" style="fill: none; stroke-dasharray: 1,1.65; stroke-dashoffset: 0; stroke: #808080; stroke-opacity: 0.55"/>
     </g>
     <g id="line2d_6">
      <g>
       <use xlink:href="#m7100439117" x="78.828125" y="152.523935" style="fill: #808080; stroke: #808080; stroke-width: 0.8"/>
      </g>
     </g>
     <g id="text_5">
      <text style="fill: #808080; font: 22px 'PingFang SC', 'Heiti SC', 'STHeiti', 'Calibri', 'Arial', 'Helvetica Neue', 'Arial Unicode MS', 'Noto Sans CJK SC', 'DejaVu Sans', sans-serif; text-anchor: end" x="71.828125" y="161.279247" transform="rotate(-0 71.828125 161.279247)">280</text>
     </g>
    </g>
    <g id="ytick_3">
     <g id="line2d_7">
      <path d="M 78.828125 85.294304 
L 439.985625 85.294304 
" clip-path="url(#p5d02660ea7)" style="fill: none; stroke-dasharray: 1,1.65; stroke-dashoffset: 0; stroke: #808080; stroke-opacity: 0.55"/>
     </g>
     <g id="line2d_8">
      <g>
       <use xlink:href="#m7100439117" x="78.828125" y="85.294304" style="fill: #808080; stroke: #808080; stroke-width: 0.8"/>
      </g>
     </g>
     <g id="text_6">
      <text style="fill: #808080; font: 22px 'PingFang SC', 'Heiti SC', 'STHeiti', 'Calibri', 'Arial', 'Helvetica Neue', 'Arial Unicode MS', 'Noto Sans CJK SC', 'DejaVu Sans', sans-serif; text-anchor: end" x="71.828125" y="94.049616" transform="rotate(-0 71.828125 94.049616)">285</text>
     </g>
    </g>
    <g id="text_7">
     <text style="font: 22px 'PingFang SC', 'Heiti SC', 'STHeiti', 'Calibri', 'Arial', 'Helvetica Neue', 'Arial Unicode MS', 'Noto Sans CJK SC', 'DejaVu Sans', sans-serif; text-anchor: middle" x="28.310625" y="156.895625" transform="rotate(-90 28.310625 156.895625)">GEMM func TFLOPS</text>
    </g>
   </g>
   <g id="PathCollection_1">
    <defs>
     <path id="m5a61eb92a3" d="M 0 2.645751 
C 0.701661 2.645751 1.374679 2.366978 1.870829 1.870829 
C 2.366978 1.374679 2.645751 0.701661 2.645751 0 
C 2.645751 -0.701661 2.366978 -1.374679 1.870829 -1.870829 
C 1.374679 -2.366978 0.701661 -2.645751 0 -2.645751 
C -0.701661 -2.645751 -1.374679 -2.366978 -1.870829 -1.870829 
C -2.366978 -1.374679 -2.645751 -0.701661 -2.645751 0 
C -2.645751 0.701661 -2.366978 1.374679 -1.870829 1.870829 
C -1.374679 2.366978 -0.701661 2.645751 0 2.645751 
z
" style="stroke: #1f77b4; stroke-opacity: 0.75"/>
    </defs>
    <g clip-path="url(#p5d02660ea7)">
     <use xlink:href="#m5a61eb92a3" x="412.952575" y="236.707005" style="fill: #1f77b4; fill-opacity: 0.75; stroke: #1f77b4; stroke-opacity: 0.75"/>
     <use xlink:href="#m5a61eb92a3" x="423.569375" y="186.052003" style="fill: #1f77b4; fill-opacity: 0.75; stroke: #1f77b4; stroke-opacity: 0.75"/>
     <use xlink:href="#m5a61eb92a3" x="413.712653" y="221.39522" style="fill: #1f77b4; fill-opacity: 0.75; stroke: #1f77b4; stroke-opacity: 0.75"/>
     <use xlink:href="#m5a61eb92a3" x="409.603661" y="226.591784" style="fill: #1f77b4; fill-opacity: 0.75; stroke: #1f77b4; stroke-opacity: 0.75"/>
     <use xlink:href="#m5a61eb92a3" x="408.07922" y="253.752327" style="fill: #1f77b4; fill-opacity: 0.75; stroke: #1f77b4; stroke-opacity: 0.75"/>
     <use xlink:href="#m5a61eb92a3" x="416.215766" y="218.791447" style="fill: #1f77b4; fill-opacity: 0.75; stroke: #1f77b4; stroke-opacity: 0.75"/>
     <use xlink:href="#m5a61eb92a3" x="349.958991" y="171.77328" style="fill: #1f77b4; fill-opacity: 0.75; stroke: #1f77b4; stroke-opacity: 0.75"/>
     <use xlink:href="#m5a61eb92a3" x="397.565287" y="59.164943" style="fill: #1f77b4; fill-opacity: 0.75; stroke: #1f77b4; stroke-opacity: 0.75"/>
    </g>
   </g>
   <g id="PathCollection_2">
    <defs>
     <path id="mbcd73eaa0e" d="M 0 2.645751 
C 0.701661 2.645751 1.374679 2.366978 1.870829 1.870829 
C 2.366978 1.374679 2.645751 0.701661 2.645751 0 
C 2.645751 -0.701661 2.366978 -1.374679 1.870829 -1.870829 
C 1.374679 -2.366978 0.701661 -2.645751 0 -2.645751 
C -0.701661 -2.645751 -1.374679 -2.366978 -1.870829 -1.870829 
C -2.366978 -1.374679 -2.645751 -0.701661 -2.645751 0 
C -2.645751 0.701661 -2.366978 1.374679 -1.870829 1.870829 
C -1.374679 2.366978 -0.701661 2.645751 0 2.645751 
z
" style="stroke: #ff7f0e; stroke-opacity: 0.75"/>
    </defs>
    <g clip-path="url(#p5d02660ea7)">
     <use xlink:href="#mbcd73eaa0e" x="97.816067" y="223.759267" style="fill: #ff7f0e; fill-opacity: 0.75; stroke: #ff7f0e; stroke-opacity: 0.75"/>
     <use xlink:href="#mbcd73eaa0e" x="99.367654" y="155.425588" style="fill: #ff7f0e; fill-opacity: 0.75; stroke: #ff7f0e; stroke-opacity: 0.75"/>
     <use xlink:href="#mbcd73eaa0e" x="98.621863" y="152.482513" style="fill: #ff7f0e; fill-opacity: 0.75; stroke: #ff7f0e; stroke-opacity: 0.75"/>
     <use xlink:href="#mbcd73eaa0e" x="98.9819" y="205.478506" style="fill: #ff7f0e; fill-opacity: 0.75; stroke: #ff7f0e; stroke-opacity: 0.75"/>
     <use xlink:href="#mbcd73eaa0e" x="96.208759" y="205.240071" style="fill: #ff7f0e; fill-opacity: 0.75; stroke: #ff7f0e; stroke-opacity: 0.75"/>
     <use xlink:href="#mbcd73eaa0e" x="99.440518" y="129.765257" style="fill: #ff7f0e; fill-opacity: 0.75; stroke: #ff7f0e; stroke-opacity: 0.75"/>
     <use xlink:href="#mbcd73eaa0e" x="98.466133" y="240.690323" style="fill: #ff7f0e; fill-opacity: 0.75; stroke: #ff7f0e; stroke-opacity: 0.75"/>
     <use xlink:href="#mbcd73eaa0e" x="99.250499" y="152.728002" style="fill: #ff7f0e; fill-opacity: 0.75; stroke: #ff7f0e; stroke-opacity: 0.75"/>
    </g>
   </g>
   <g id="PathCollection_3">
    <defs>
     <path id="m911878efa3" d="M 0 2.645751 
C 0.701661 2.645751 1.374679 2.366978 1.870829 1.870829 
C 2.366978 1.374679 2.645751 0.701661 2.645751 0 
C 2.645751 -0.701661 2.366978 -1.374679 1.870829 -1.870829 
C 1.374679 -2.366978 0.701661 -2.645751 0 -2.645751 
C -0.701661 -2.645751 -1.374679 -2.366978 -1.870829 -1.870829 
C -2.366978 -1.374679 -2.645751 -0.701661 -2.645751 0 
C -2.645751 0.701661 -2.366978 1.374679 -1.870829 1.870829 
C -1.374679 2.366978 -0.701661 2.645751 0 2.645751 
z
" style="stroke: #2ca02c; stroke-opacity: 0.75"/>
    </defs>
    <g clip-path="url(#p5d02660ea7)">
     <use xlink:href="#m911878efa3" x="96.800248" y="158.853252" style="fill: #2ca02c; fill-opacity: 0.75; stroke: #2ca02c; stroke-opacity: 0.75"/>
     <use xlink:href="#m911878efa3" x="98.810454" y="115.802501" style="fill: #2ca02c; fill-opacity: 0.75; stroke: #2ca02c; stroke-opacity: 0.75"/>
     <use xlink:href="#m911878efa3" x="95.980165" y="150.272125" style="fill: #2ca02c; fill-opacity: 0.75; stroke: #2ca02c; stroke-opacity: 0.75"/>
     <use xlink:href="#m911878efa3" x="97.837497" y="155.425588" style="fill: #2ca02c; fill-opacity: 0.75; stroke: #2ca02c; stroke-opacity: 0.75"/>
     <use xlink:href="#m911878efa3" x="100.003433" y="124.541202" style="fill: #2ca02c; fill-opacity: 0.75; stroke: #2ca02c; stroke-opacity: 0.75"/>
     <use xlink:href="#m911878efa3" x="99.377655" y="148.059141" style="fill: #2ca02c; fill-opacity: 0.75; stroke: #2ca02c; stroke-opacity: 0.75"/>
     <use xlink:href="#m911878efa3" x="95.888727" y="142.638917" style="fill: #2ca02c; fill-opacity: 0.75; stroke: #2ca02c; stroke-opacity: 0.75"/>
     <use xlink:href="#m911878efa3" x="98.253254" y="167.151794" style="fill: #2ca02c; fill-opacity: 0.75; stroke: #2ca02c; stroke-opacity: 0.75"/>
    </g>
   </g>
   <g id="PathCollection_4">
    <defs>
     <path id="m847421632e" d="M 0 2.645751 
C 0.701661 2.645751 1.374679 2.366978 1.870829 1.870829 
C 2.366978 1.374679 2.645751 0.701661 2.645751 0 
C 2.645751 -0.701661 2.366978 -1.374679 1.870829 -1.870829 
C 1.374679 -2.366978 0.701661 -2.645751 0 -2.645751 
C -0.701661 -2.645751 -1.374679 -2.366978 -1.870829 -1.870829 
C -2.366978 -1.374679 -2.645751 -0.701661 -2.645751 0 
C -2.645751 0.701661 -2.366978 1.374679 -1.870829 1.870829 
C -1.374679 2.366978 -0.701661 2.645751 0 2.645751 
z
" style="stroke: #d62728; stroke-opacity: 0.75"/>
    </defs>
    <g clip-path="url(#p5d02660ea7)">
     <use xlink:href="#m847421632e" x="98.650438" y="120.551331" style="fill: #d62728; fill-opacity: 0.75; stroke: #d62728; stroke-opacity: 0.75"/>
     <use xlink:href="#m847421632e" x="100.47491" y="222.340938" style="fill: #d62728; fill-opacity: 0.75; stroke: #d62728; stroke-opacity: 0.75"/>
     <use xlink:href="#m847421632e" x="98.346121" y="178.321119" style="fill: #d62728; fill-opacity: 0.75; stroke: #d62728; stroke-opacity: 0.75"/>
     <use xlink:href="#m847421632e" x="100.916384" y="167.882439" style="fill: #d62728; fill-opacity: 0.75; stroke: #d62728; stroke-opacity: 0.75"/>
     <use xlink:href="#m847421632e" x="99.813414" y="199.504404" style="fill: #d62728; fill-opacity: 0.75; stroke: #d62728; stroke-opacity: 0.75"/>
     <use xlink:href="#m847421632e" x="99.127629" y="127.776861" style="fill: #d62728; fill-opacity: 0.75; stroke: #d62728; stroke-opacity: 0.75"/>
     <use xlink:href="#m847421632e" x="99.119057" y="166.908409" style="fill: #d62728; fill-opacity: 0.75; stroke: #d62728; stroke-opacity: 0.75"/>
     <use xlink:href="#m847421632e" x="99.210495" y="100.72795" style="fill: #d62728; fill-opacity: 0.75; stroke: #d62728; stroke-opacity: 0.75"/>
    </g>
   </g>
   <g id="PathCollection_5">
    <defs>
     <path id="mcb307abed4" d="M 0 2.645751 
C 0.701661 2.645751 1.374679 2.366978 1.870829 1.870829 
C 2.366978 1.374679 2.645751 0.701661 2.645751 0 
C 2.645751 -0.701661 2.366978 -1.374679 1.870829 -1.870829 
C 1.374679 -2.366978 0.701661 -2.645751 0 -2.645751 
C -0.701661 -2.645751 -1.374679 -2.366978 -1.870829 -1.870829 
C -2.366978 -1.374679 -2.645751 -0.701661 -2.645751 0 
C -2.645751 0.701661 -2.366978 1.374679 -1.870829 1.870829 
C -1.374679 2.366978 -0.701661 2.645751 0 2.645751 
z
" style="stroke: #9467bd; stroke-opacity: 0.75"/>
    </defs>
    <g clip-path="url(#p5d02660ea7)">
     <use xlink:href="#mcb307abed4" x="99.506239" y="163.739256" style="fill: #9467bd; fill-opacity: 0.75; stroke: #9467bd; stroke-opacity: 0.75"/>
     <use xlink:href="#mcb307abed4" x="101.329283" y="176.868123" style="fill: #9467bd; fill-opacity: 0.75; stroke: #9467bd; stroke-opacity: 0.75"/>
     <use xlink:href="#mcb307abed4" x="96.72024" y="180.015155" style="fill: #9467bd; fill-opacity: 0.75; stroke: #9467bd; stroke-opacity: 0.75"/>
     <use xlink:href="#mcb307abed4" x="99.036191" y="153.218656" style="fill: #9467bd; fill-opacity: 0.75; stroke: #9467bd; stroke-opacity: 0.75"/>
     <use xlink:href="#mcb307abed4" x="101.026395" y="144.858268" style="fill: #9467bd; fill-opacity: 0.75; stroke: #9467bd; stroke-opacity: 0.75"/>
     <use xlink:href="#mcb307abed4" x="96.547365" y="153.464049" style="fill: #9467bd; fill-opacity: 0.75; stroke: #9467bd; stroke-opacity: 0.75"/>
     <use xlink:href="#mcb307abed4" x="100.75351" y="152.973231" style="fill: #9467bd; fill-opacity: 0.75; stroke: #9467bd; stroke-opacity: 0.75"/>
     <use xlink:href="#mcb307abed4" x="99.056193" y="136.708013" style="fill: #9467bd; fill-opacity: 0.75; stroke: #9467bd; stroke-opacity: 0.75"/>
    </g>
   </g>
   <g id="PathCollection_6">
    <defs>
     <path id="mb82190d22c" d="M 0 2.645751 
C 0.701661 2.645751 1.374679 2.366978 1.870829 1.870829 
C 2.366978 1.374679 2.645751 0.701661 2.645751 0 
C 2.645751 -0.701661 2.366978 -1.374679 1.870829 -1.870829 
C 1.374679 -2.366978 0.701661 -2.645751 0 -2.645751 
C -0.701661 -2.645751 -1.374679 -2.366978 -1.870829 -1.870829 
C -2.366978 -1.374679 -2.645751 -0.701661 -2.645751 0 
C -2.645751 0.701661 -2.366978 1.374679 -1.870829 1.870829 
C -1.374679 2.366978 -0.701661 2.645751 0 2.645751 
z
" style="stroke: #8c564b; stroke-opacity: 0.75"/>
    </defs>
    <g clip-path="url(#p5d02660ea7)">
     <use xlink:href="#mb82190d22c" x="98.294687" y="223.759267" style="fill: #8c564b; fill-opacity: 0.75; stroke: #8c564b; stroke-opacity: 0.75"/>
     <use xlink:href="#mb82190d22c" x="98.393268" y="236.237657" style="fill: #8c564b; fill-opacity: 0.75; stroke: #8c564b; stroke-opacity: 0.75"/>
     <use xlink:href="#mb82190d22c" x="96.665949" y="104.759336" style="fill: #8c564b; fill-opacity: 0.75; stroke: #8c564b; stroke-opacity: 0.75"/>
     <use xlink:href="#mb82190d22c" x="97.281726" y="144.611751" style="fill: #8c564b; fill-opacity: 0.75; stroke: #8c564b; stroke-opacity: 0.75"/>
     <use xlink:href="#mb82190d22c" x="98.463276" y="159.586907" style="fill: #8c564b; fill-opacity: 0.75; stroke: #8c564b; stroke-opacity: 0.75"/>
     <use xlink:href="#mb82190d22c" x="96.885971" y="152.973231" style="fill: #8c564b; fill-opacity: 0.75; stroke: #8c564b; stroke-opacity: 0.75"/>
     <use xlink:href="#mb82190d22c" x="99.833416" y="154.199809" style="fill: #8c564b; fill-opacity: 0.75; stroke: #8c564b; stroke-opacity: 0.75"/>
    </g>
   </g>
   <g id="PathCollection_7">
    <defs>
     <path id="m59d5b86405" d="M 0 2.645751 
C 0.701661 2.645751 1.374679 2.366978 1.870829 1.870829 
C 2.366978 1.374679 2.645751 0.701661 2.645751 0 
C 2.645751 -0.701661 2.366978 -1.374679 1.870829 -1.870829 
C 1.374679 -2.366978 0.701661 -2.645751 0 -2.645751 
C -0.701661 -2.645751 -1.374679 -2.366978 -1.870829 -1.870829 
C -2.366978 -1.374679 -2.645751 -0.701661 -2.645751 0 
C -2.645751 0.701661 -2.366978 1.374679 -1.870829 1.870829 
C -1.374679 2.366978 -0.701661 2.645751 0 2.645751 
z
" style="stroke: #e377c2; stroke-opacity: 0.75"/>
    </defs>
    <g clip-path="url(#p5d02660ea7)">
     <use xlink:href="#m59d5b86405" x="97.864643" y="206.194295" style="fill: #e377c2; fill-opacity: 0.75; stroke: #e377c2; stroke-opacity: 0.75"/>
     <use xlink:href="#m59d5b86405" x="98.163245" y="69.960719" style="fill: #e377c2; fill-opacity: 0.75; stroke: #e377c2; stroke-opacity: 0.75"/>
     <use xlink:href="#m59d5b86405" x="99.231926" y="134.726901" style="fill: #e377c2; fill-opacity: 0.75; stroke: #e377c2; stroke-opacity: 0.75"/>
     <use xlink:href="#m59d5b86405" x="100.514914" y="183.156671" style="fill: #e377c2; fill-opacity: 0.75; stroke: #e377c2; stroke-opacity: 0.75"/>
     <use xlink:href="#m59d5b86405" x="100.560633" y="144.118851" style="fill: #e377c2; fill-opacity: 0.75; stroke: #e377c2; stroke-opacity: 0.75"/>
     <use xlink:href="#m59d5b86405" x="98.666153" y="141.651725" style="fill: #e377c2; fill-opacity: 0.75; stroke: #e377c2; stroke-opacity: 0.75"/>
     <use xlink:href="#m59d5b86405" x="99.896279" y="207.147807" style="fill: #e377c2; fill-opacity: 0.75; stroke: #e377c2; stroke-opacity: 0.75"/>
     <use xlink:href="#m59d5b86405" x="99.014761" y="152.482513" style="fill: #e377c2; fill-opacity: 0.75; stroke: #e377c2; stroke-opacity: 0.75"/>
    </g>
   </g>
   <g id="PathCollection_8">
    <defs>
     <path id="mef043b71da" d="M 0 2.645751 
C 0.701661 2.645751 1.374679 2.366978 1.870829 1.870829 
C 2.366978 1.374679 2.645751 0.701661 2.645751 0 
C 2.645751 -0.701661 2.366978 -1.374679 1.870829 -1.870829 
C 1.374679 -2.366978 0.701661 -2.645751 0 -2.645751 
C -0.701661 -2.645751 -1.374679 -2.366978 -1.870829 -1.870829 
C -2.366978 -1.374679 -2.645751 -0.701661 -2.645751 0 
C -2.645751 0.701661 -2.366978 1.374679 -1.870829 1.870829 
C -1.374679 2.366978 -0.701661 2.645751 0 2.645751 
z
" style="stroke: #7f7f7f; stroke-opacity: 0.75"/>
    </defs>
    <g clip-path="url(#p5d02660ea7)">
     <use xlink:href="#mef043b71da" x="98.260398" y="212.384705" style="fill: #7f7f7f; fill-opacity: 0.75; stroke: #7f7f7f; stroke-opacity: 0.75"/>
     <use xlink:href="#mef043b71da" x="98.310403" y="201.418261" style="fill: #7f7f7f; fill-opacity: 0.75; stroke: #7f7f7f; stroke-opacity: 0.75"/>
     <use xlink:href="#mef043b71da" x="98.806168" y="185.328648" style="fill: #7f7f7f; fill-opacity: 0.75; stroke: #7f7f7f; stroke-opacity: 0.75"/>
     <use xlink:href="#mef043b71da" x="98.700443" y="195.430849" style="fill: #7f7f7f; fill-opacity: 0.75; stroke: #7f7f7f; stroke-opacity: 0.75"/>
     <use xlink:href="#mef043b71da" x="96.995983" y="210.720115" style="fill: #7f7f7f; fill-opacity: 0.75; stroke: #7f7f7f; stroke-opacity: 0.75"/>
     <use xlink:href="#mef043b71da" x="96.323057" y="126.284077" style="fill: #7f7f7f; fill-opacity: 0.75; stroke: #7f7f7f; stroke-opacity: 0.75"/>
     <use xlink:href="#mef043b71da" x="98.543284" y="95.929137" style="fill: #7f7f7f; fill-opacity: 0.75; stroke: #7f7f7f; stroke-opacity: 0.75"/>
     <use xlink:href="#mef043b71da" x="96.927404" y="245.132665" style="fill: #7f7f7f; fill-opacity: 0.75; stroke: #7f7f7f; stroke-opacity: 0.75"/>
    </g>
   </g>
   <g id="PathCollection_9">
    <defs>
     <path id="mff11356bd6" d="M 0 2.645751 
C 0.701661 2.645751 1.374679 2.366978 1.870829 1.870829 
C 2.366978 1.374679 2.645751 0.701661 2.645751 0 
C 2.645751 -0.701661 2.366978 -1.374679 1.870829 -1.870829 
C 1.374679 -2.366978 0.701661 -2.645751 0 -2.645751 
C -0.701661 -2.645751 -1.374679 -2.366978 -1.870829 -1.870829 
C -2.366978 -1.374679 -2.645751 -0.701661 -2.645751 0 
C -2.645751 0.701661 -2.366978 1.374679 -1.870829 1.870829 
C -1.374679 2.366978 -0.701661 2.645751 0 2.645751 
z
" style="stroke: #bcbd22; stroke-opacity: 0.75"/>
    </defs>
    <g clip-path="url(#p5d02660ea7)">
     <use xlink:href="#mff11356bd6" x="99.18192" y="215.709406" style="fill: #bcbd22; fill-opacity: 0.75; stroke: #bcbd22; stroke-opacity: 0.75"/>
     <use xlink:href="#mff11356bd6" x="98.664725" y="102.744591" style="fill: #bcbd22; fill-opacity: 0.75; stroke: #bcbd22; stroke-opacity: 0.75"/>
     <use xlink:href="#mff11356bd6" x="98.247539" y="176.868123" style="fill: #bcbd22; fill-opacity: 0.75; stroke: #bcbd22; stroke-opacity: 0.75"/>
     <use xlink:href="#mff11356bd6" x="97.694626" y="152.482513" style="fill: #bcbd22; fill-opacity: 0.75; stroke: #bcbd22; stroke-opacity: 0.75"/>
     <use xlink:href="#mff11356bd6" x="98.094666" y="147.075012" style="fill: #bcbd22; fill-opacity: 0.75; stroke: #bcbd22; stroke-opacity: 0.75"/>
     <use xlink:href="#mff11356bd6" x="97.654621" y="139.675792" style="fill: #bcbd22; fill-opacity: 0.75; stroke: #bcbd22; stroke-opacity: 0.75"/>
     <use xlink:href="#mff11356bd6" x="96.873113" y="183.398177" style="fill: #bcbd22; fill-opacity: 0.75; stroke: #bcbd22; stroke-opacity: 0.75"/>
     <use xlink:href="#mff11356bd6" x="97.803208" y="113.799414" style="fill: #bcbd22; fill-opacity: 0.75; stroke: #bcbd22; stroke-opacity: 0.75"/>
    </g>
   </g>
   <g id="PathCollection_10">
    <defs>
     <path id="mf5828864f9" d="M 0 2.645751 
C 0.701661 2.645751 1.374679 2.366978 1.870829 1.870829 
C 2.366978 1.374679 2.645751 0.701661 2.645751 0 
C 2.645751 -0.701661 2.366978 -1.374679 1.870829 -1.870829 
C 1.374679 -2.366978 0.701661 -2.645751 0 -2.645751 
C -0.701661 -2.645751 -1.374679 -2.366978 -1.870829 -1.870829 
C -2.366978 -1.374679 -2.645751 -0.701661 -2.645751 0 
C -2.645751 0.701661 -2.366978 1.374679 -1.870829 1.870829 
C -1.374679 2.366978 -0.701661 2.645751 0 2.645751 
z
" style="stroke: #17becf; stroke-opacity: 0.75"/>
    </defs>
    <g clip-path="url(#p5d02660ea7)">
     <use xlink:href="#mf5828864f9" x="99.851989" y="141.404789" style="fill: #17becf; fill-opacity: 0.75; stroke: #17becf; stroke-opacity: 0.75"/>
     <use xlink:href="#mf5828864f9" x="97.216005" y="110.037988" style="fill: #17becf; fill-opacity: 0.75; stroke: #17becf; stroke-opacity: 0.75"/>
     <use xlink:href="#mf5828864f9" x="99.120486" y="150.763648" style="fill: #17becf; fill-opacity: 0.75; stroke: #17becf; stroke-opacity: 0.75"/>
     <use xlink:href="#mf5828864f9" x="95.953019" y="154.445074" style="fill: #17becf; fill-opacity: 0.75; stroke: #17becf; stroke-opacity: 0.75"/>
     <use xlink:href="#mf5828864f9" x="95.79586" y="136.213045" style="fill: #17becf; fill-opacity: 0.75; stroke: #17becf; stroke-opacity: 0.75"/>
     <use xlink:href="#mf5828864f9" x="98.178961" y="171.530495" style="fill: #17becf; fill-opacity: 0.75; stroke: #17becf; stroke-opacity: 0.75"/>
     <use xlink:href="#mf5828864f9" x="100.286319" y="191.348581" style="fill: #17becf; fill-opacity: 0.75; stroke: #17becf; stroke-opacity: 0.75"/>
     <use xlink:href="#mf5828864f9" x="97.993228" y="135.470234" style="fill: #17becf; fill-opacity: 0.75; stroke: #17becf; stroke-opacity: 0.75"/>
    </g>
   </g>
   <g id="PathCollection_11">
    <g clip-path="url(#p5d02660ea7)">
     <use xlink:href="#m5a61eb92a3" x="95.244375" y="202.852251" style="fill: #1f77b4; fill-opacity: 0.75; stroke: #1f77b4; stroke-opacity: 0.75"/>
     <use xlink:href="#m5a61eb92a3" x="98.821884" y="125.786376" style="fill: #1f77b4; fill-opacity: 0.75; stroke: #1f77b4; stroke-opacity: 0.75"/>
     <use xlink:href="#m5a61eb92a3" x="98.373266" y="143.378914" style="fill: #1f77b4; fill-opacity: 0.75; stroke: #1f77b4; stroke-opacity: 0.75"/>
     <use xlink:href="#m5a61eb92a3" x="99.730548" y="149.288923" style="fill: #1f77b4; fill-opacity: 0.75; stroke: #1f77b4; stroke-opacity: 0.75"/>
     <use xlink:href="#m5a61eb92a3" x="99.213352" y="138.1926" style="fill: #1f77b4; fill-opacity: 0.75; stroke: #1f77b4; stroke-opacity: 0.75"/>
     <use xlink:href="#m5a61eb92a3" x="96.521648" y="189.664805" style="fill: #1f77b4; fill-opacity: 0.75; stroke: #1f77b4; stroke-opacity: 0.75"/>
     <use xlink:href="#m5a61eb92a3" x="100.534916" y="163.251114" style="fill: #1f77b4; fill-opacity: 0.75; stroke: #1f77b4; stroke-opacity: 0.75"/>
     <use xlink:href="#m5a61eb92a3" x="98.556142" y="173.715787" style="fill: #1f77b4; fill-opacity: 0.75; stroke: #1f77b4; stroke-opacity: 0.75"/>
    </g>
   </g>
   <g id="PathCollection_12">
    <g clip-path="url(#p5d02660ea7)">
     <use xlink:href="#mbcd73eaa0e" x="97.194574" y="162.274903" style="fill: #ff7f0e; fill-opacity: 0.75; stroke: #ff7f0e; stroke-opacity: 0.75"/>
     <use xlink:href="#mbcd73eaa0e" x="99.319077" y="163.98328" style="fill: #ff7f0e; fill-opacity: 0.75; stroke: #ff7f0e; stroke-opacity: 0.75"/>
     <use xlink:href="#mbcd73eaa0e" x="100.366327" y="226.827704" style="fill: #ff7f0e; fill-opacity: 0.75; stroke: #ff7f0e; stroke-opacity: 0.75"/>
    </g>
   </g>
   <g id="PathCollection_13">
    <g clip-path="url(#p5d02660ea7)">
     <use xlink:href="#m911878efa3" x="98.498994" y="117.303317" style="fill: #2ca02c; fill-opacity: 0.75; stroke: #2ca02c; stroke-opacity: 0.75"/>
     <use xlink:href="#m911878efa3" x="97.346018" y="123.0461" style="fill: #2ca02c; fill-opacity: 0.75; stroke: #2ca02c; stroke-opacity: 0.75"/>
     <use xlink:href="#m911878efa3" x="99.609107" y="172.744785" style="fill: #2ca02c; fill-opacity: 0.75; stroke: #2ca02c; stroke-opacity: 0.75"/>
     <use xlink:href="#m911878efa3" x="99.363368" y="87.820124" style="fill: #2ca02c; fill-opacity: 0.75; stroke: #2ca02c; stroke-opacity: 0.75"/>
     <use xlink:href="#m911878efa3" x="96.988839" y="152.236991" style="fill: #2ca02c; fill-opacity: 0.75; stroke: #2ca02c; stroke-opacity: 0.75"/>
     <use xlink:href="#m911878efa3" x="98.44756" y="234.124549" style="fill: #2ca02c; fill-opacity: 0.75; stroke: #2ca02c; stroke-opacity: 0.75"/>
     <use xlink:href="#m911878efa3" x="98.700443" y="45.454716" style="fill: #2ca02c; fill-opacity: 0.75; stroke: #2ca02c; stroke-opacity: 0.75"/>
     <use xlink:href="#m911878efa3" x="98.629007" y="69.191647" style="fill: #2ca02c; fill-opacity: 0.75; stroke: #2ca02c; stroke-opacity: 0.75"/>
    </g>
   </g>
   <g id="PathCollection_14">
    <g clip-path="url(#p5d02660ea7)">
     <use xlink:href="#m847421632e" x="98.921894" y="268.336534" style="fill: #d62728; fill-opacity: 0.75; stroke: #d62728; stroke-opacity: 0.75"/>
    </g>
   </g>
   <g id="PathCollection_15">
    <g clip-path="url(#p5d02660ea7)">
     <use xlink:href="#mcb307abed4" x="100.737794" y="196.390122" style="fill: #9467bd; fill-opacity: 0.75; stroke: #9467bd; stroke-opacity: 0.75"/>
     <use xlink:href="#mcb307abed4" x="97.570327" y="131.999537" style="fill: #9467bd; fill-opacity: 0.75; stroke: #9467bd; stroke-opacity: 0.75"/>
     <use xlink:href="#mcb307abed4" x="97.887502" y="148.797244" style="fill: #9467bd; fill-opacity: 0.75; stroke: #9467bd; stroke-opacity: 0.75"/>
     <use xlink:href="#mcb307abed4" x="98.734732" y="117.553415" style="fill: #9467bd; fill-opacity: 0.75; stroke: #9467bd; stroke-opacity: 0.75"/>
     <use xlink:href="#mcb307abed4" x="97.243151" y="159.097911" style="fill: #9467bd; fill-opacity: 0.75; stroke: #9467bd; stroke-opacity: 0.75"/>
     <use xlink:href="#mcb307abed4" x="100.112016" y="134.974711" style="fill: #9467bd; fill-opacity: 0.75; stroke: #9467bd; stroke-opacity: 0.75"/>
     <use xlink:href="#mcb307abed4" x="100.30775" y="165.933873" style="fill: #9467bd; fill-opacity: 0.75; stroke: #9467bd; stroke-opacity: 0.75"/>
     <use xlink:href="#mcb307abed4" x="98.098953" y="154.199809" style="fill: #9467bd; fill-opacity: 0.75; stroke: #9467bd; stroke-opacity: 0.75"/>
    </g>
   </g>
   <g id="PathCollection_16">
    <g clip-path="url(#p5d02660ea7)">
     <use xlink:href="#mb82190d22c" x="97.951795" y="108.02882" style="fill: #8c564b; fill-opacity: 0.75; stroke: #8c564b; stroke-opacity: 0.75"/>
     <use xlink:href="#mb82190d22c" x="96.971694" y="160.320502" style="fill: #8c564b; fill-opacity: 0.75; stroke: #8c564b; stroke-opacity: 0.75"/>
     <use xlink:href="#mb82190d22c" x="101.273563" y="174.443877" style="fill: #8c564b; fill-opacity: 0.75; stroke: #8c564b; stroke-opacity: 0.75"/>
     <use xlink:href="#mb82190d22c" x="97.088849" y="141.898629" style="fill: #8c564b; fill-opacity: 0.75; stroke: #8c564b; stroke-opacity: 0.75"/>
     <use xlink:href="#mb82190d22c" x="96.561653" y="167.882439" style="fill: #8c564b; fill-opacity: 0.75; stroke: #8c564b; stroke-opacity: 0.75"/>
     <use xlink:href="#mb82190d22c" x="97.103136" y="164.227045" style="fill: #8c564b; fill-opacity: 0.75; stroke: #8c564b; stroke-opacity: 0.75"/>
     <use xlink:href="#mb82190d22c" x="98.017516" y="146.336234" style="fill: #8c564b; fill-opacity: 0.75; stroke: #8c564b; stroke-opacity: 0.75"/>
     <use xlink:href="#mb82190d22c" x="97.030272" y="129.765257" style="fill: #8c564b; fill-opacity: 0.75; stroke: #8c564b; stroke-opacity: 0.75"/>
    </g>
   </g>
   <g id="patch_3">
    <path d="M 78.828125 279.480625 
L 78.828125 34.310625 
" style="fill: none; stroke: #808080; stroke-width: 0.8; stroke-linejoin: miter; stroke-linecap: square"/>
   </g>
   <g id="patch_4">
    <path d="M 78.828125 279.480625 
L 439.985625 279.480625 
" style="fill: none; stroke: #808080; stroke-width: 0.8; stroke-linejoin: miter; stroke-linecap: square"/>
   </g>
   <g id="text_8">
    <text style="font: 22px 'PingFang SC', 'Heiti SC', 'STHeiti', 'Calibri', 'Arial', 'Helvetica Neue', 'Arial Unicode MS', 'Noto Sans CJK SC', 'DejaVu Sans', sans-serif; text-anchor: middle" x="259.406875" y="28.310625" transform="rotate(-0 259.406875 28.310625)">Health power × GEMM</text>
   </g>
  </g>
 </g>
 <defs>
  <clipPath id="p5d02660ea7">
   <rect x="78.828125" y="34.310625" width="361.1575" height="245.17"/>
  </clipPath>
 </defs>
</svg>
