<?xml version="1.0" encoding="utf-8" standalone="no"?>
<!DOCTYPE svg PUBLIC "-//W3C//DTD SVG 1.1//EN"
  "http://www.w3.org/Graphics/SVG/1.1/DTD/svg11.dtd">
<svg xmlns:xlink="http://www.w3.org/1999/xlink" width="450.710625pt" height="342.950625pt" viewBox="0 0 450.710625 342.950625" xmlns="http://www.w3.org/2000/svg" version="1.1">
 <metadata>
  <rdf:RDF xmlns:dc="http://purl.org/dc/elements/1.1/" xmlns:cc="http://creativecommons.org/ns#" xmlns:rdf="http://www.w3.org/1999/02/22-rdf-syntax-ns#">
   <cc:Work>
    <dc:type rdf:resource="http://purl.org/dc/dcmitype/StillImage"/>
    <dc:date>2026-07-11T23:31:19.895313</dc:date>
    <dc:format>image/svg+xml</dc:format>
    <dc:creator>
     <cc:Agent>
      <dc:title>Matplotlib v3.9.4, https://matplotlib.org/</dc:title>
     </cc:Agent>
    </dc:creator>
   </cc:Work>
  </rdf:RDF>
 </metadata>
 <defs>
  <style type="text/css">*{stroke-linejoin: round; stroke-linecap: butt}</style>
 </defs>
 <g id="figure_1">
  <g id="patch_1">
   <path d="M 0 342.950625 
L 450.710625 342.950625 
L 450.710625 0 
L 0 0 
z
" style="fill: #ffffff"/>
  </g>
  <g id="axes_1">
   <g id="patch_2">
    <path d="M 78.828125 280.230625 
L 439.910625 280.230625 
L 439.910625 34.310625 
L 78.828125 34.310625 
z
" style="fill: #ffffff"/>
   </g>
   <g id="matplotlib.axis_1">
    <g id="xtick_1">
     <g id="line2d_1">
      <defs>
       <path id="m2ed4d5ddae" d="M 0 0 
L 0 3.5 
" style="stroke: #808080; stroke-width: 0.8"/>
      </defs>
      <g>
       <use xlink:href="#m2ed4d5ddae" x="166.793194" y="280.230625" style="fill: #808080; stroke: #808080; stroke-width: 0.8"/>
      </g>
     </g>
     <g id="text_1">
      <text style="fill: #808080; font: 22px 'PingFang SC', 'Heiti SC', 'STHeiti', 'Calibri', 'Arial', 'Helvetica Neue', 'Arial Unicode MS', 'Noto Sans CJK SC', 'DejaVu Sans', sans-serif; text-anchor: middle" x="166.793194" y="304.74125" transform="rotate(-0 166.793194 304.74125)">275</text>
     </g>
    </g>
    <g id="xtick_2">
     <g id="line2d_2">
      <g>
       <use xlink:href="#m2ed4d5ddae" x="265.807931" y="280.230625" style="fill: #808080; stroke: #808080; stroke-width: 0.8"/>
      </g>
     </g>
     <g id="text_2">
      <text style="fill: #808080; font: 22px 'PingFang SC', 'Heiti SC', 'STHeiti', 'Calibri', 'Arial', 'Helvetica Neue', 'Arial Unicode MS', 'Noto Sans CJK SC', 'DejaVu Sans', sans-serif; text-anchor: middle" x="265.807931" y="304.74125" transform="rotate(-0 265.807931 304.74125)">280</text>
     </g>
    </g>
    <g id="xtick_3">
     <g id="line2d_3">
      <g>
       <use xlink:href="#m2ed4d5ddae" x="364.822669" y="280.230625" style="fill: #808080; stroke: #808080; stroke-width: 0.8"/>
      </g>
     </g>
     <g id="text_3">
      <text style="fill: #808080; font: 22px 'PingFang SC', 'Heiti SC', 'STHeiti', 'Calibri', 'Arial', 'Helvetica Neue', 'Arial Unicode MS', 'Noto Sans CJK SC', 'DejaVu Sans', sans-serif; text-anchor: middle" x="364.822669" y="304.74125" transform="rotate(-0 364.822669 304.74125)">285</text>
     </g>
    </g>
    <g id="text_4">
     <text style="font: 22px 'PingFang SC', 'Heiti SC', 'STHeiti', 'Calibri', 'Arial', 'Helvetica Neue', 'Arial Unicode MS', 'Noto Sans CJK SC', 'DejaVu Sans', sans-serif; text-anchor: middle" x="259.369375" y="329.20125" transform="rotate(-0 259.369375 329.20125)">GEMM func TFLOPS</text>
    </g>
   </g>
   <g id="matplotlib.axis_2">
    <g id="ytick_1">
     <g id="line2d_4">
      <path d="M 78.828125 243.343927 
L 439.910625 243.343927 
" clip-path="url(#p03325762d8)" style="fill: none; stroke-dasharray: 1,1.65; stroke-dashoffset: 0; stroke: #808080; stroke-opacity: 0.55"/>
     </g>
     <g id="line2d_5">
      <defs>
       <path id="mbee7750a05" d="M 0 0 
L -3.5 0 
" style="stroke: #808080; stroke-width: 0.8"/>
      </defs>
      <g>
       <use xlink:href="#mbee7750a05" x="78.828125" y="243.343927" style="fill: #808080; stroke: #808080; stroke-width: 0.8"/>
      </g>
     </g>
     <g id="text_5">
      <text style="fill: #808080; font: 22px 'PingFang SC', 'Heiti SC', 'STHeiti', 'Calibri', 'Arial', 'Helvetica Neue', 'Arial Unicode MS', 'Noto Sans CJK SC', 'DejaVu Sans', sans-serif; text-anchor: end" x="71.828125" y="252.099239" transform="rotate(-0 71.828125 252.099239)">110</text>
     </g>
    </g>
    <g id="ytick_2">
     <g id="line2d_6">
      <path d="M 78.828125 165.610982 
L 439.910625 165.610982 
" clip-path="url(#p03325762d8)" style="fill: none; stroke-dasharray: 1,1.65; stroke-dashoffset: 0; stroke: #808080; stroke-opacity: 0.55"/>
     </g>
     <g id="line2d_7">
      <g>
       <use xlink:href="#mbee7750a05" x="78.828125" y="165.610982" style="fill: #808080; stroke: #808080; stroke-width: 0.8"/>
      </g>
     </g>
     <g id="text_6">
      <text style="fill: #808080; font: 22px 'PingFang SC', 'Heiti SC', 'STHeiti', 'Calibri', 'Arial', 'Helvetica Neue', 'Arial Unicode MS', 'Noto Sans CJK SC', 'DejaVu Sans', sans-serif; text-anchor: end" x="71.828125" y="174.366295" transform="rotate(-0 71.828125 174.366295)">115</text>
     </g>
    </g>
    <g id="ytick_3">
     <g id="line2d_8">
      <path d="M 78.828125 87.878038 
L 439.910625 87.878038 
" clip-path="url(#p03325762d8)" style="fill: none; stroke-dasharray: 1,1.65; stroke-dashoffset: 0; stroke: #808080; stroke-opacity: 0.55"/>
     </g>
     <g id="line2d_9">
      <g>
       <use xlink:href="#mbee7750a05" x="78.828125" y="87.878038" style="fill: #808080; stroke: #808080; stroke-width: 0.8"/>
      </g>
     </g>
     <g id="text_7">
      <text style="fill: #808080; font: 22px 'PingFang SC', 'Heiti SC', 'STHeiti', 'Calibri', 'Arial', 'Helvetica Neue', 'Arial Unicode MS', 'Noto Sans CJK SC', 'DejaVu Sans', sans-serif; text-anchor: end" x="71.828125" y="96.63335" transform="rotate(-0 71.828125 96.63335)">120</text>
     </g>
    </g>
    <g id="text_8">
     <text style="font: 22px 'PingFang SC', 'Heiti SC', 'STHeiti', 'Calibri', 'Arial', 'Helvetica Neue', 'Arial Unicode MS', 'Noto Sans CJK SC', 'DejaVu Sans', sans-serif; text-anchor: middle" x="28.310625" y="157.270625" transform="rotate(-90 28.310625 157.270625)">Vector FMA GFLOPS</text>
    </g>
   </g>
   <g id="PathCollection_1">
    <defs>
     <path id="mc851894c0d" d="M 0 2.645751 
C 0.701661 2.645751 1.374679 2.366978 1.870829 1.870829 
C 2.366978 1.374679 2.645751 0.701661 2.645751 0 
C 2.645751 -0.701661 2.366978 -1.374679 1.870829 -1.870829 
C 1.374679 -2.366978 0.701661 -2.645751 0 -2.645751 
C -0.701661 -2.645751 -1.374679 -2.366978 -1.870829 -1.870829 
C -2.366978 -1.374679 -2.645751 -0.701661 -2.645751 0 
C -2.645751 0.701661 -2.366978 1.374679 -1.870829 1.870829 
C -1.374679 2.366978 -0.701661 2.645751 0 2.645751 
z
" style="stroke: #1f77b4; stroke-opacity: 0.75"/>
    </defs>
    <g clip-path="url(#p03325762d8)">
     <use xlink:href="#mc851894c0d" x="141.824437" y="65.814619" style="fill: #1f77b4; fill-opacity: 0.75; stroke: #1f77b4; stroke-opacity: 0.75"/>
     <use xlink:href="#mc851894c0d" x="216.428322" y="55.264279" style="fill: #1f77b4; fill-opacity: 0.75; stroke: #1f77b4; stroke-opacity: 0.75"/>
     <use xlink:href="#mc851894c0d" x="164.375391" y="49.944656" style="fill: #1f77b4; fill-opacity: 0.75; stroke: #1f77b4; stroke-opacity: 0.75"/>
     <use xlink:href="#mc851894c0d" x="156.721974" y="49.499904" style="fill: #1f77b4; fill-opacity: 0.75; stroke: #1f77b4; stroke-opacity: 0.75"/>
     <use xlink:href="#mc851894c0d" x="116.720355" y="53.494378" style="fill: #1f77b4; fill-opacity: 0.75; stroke: #1f77b4; stroke-opacity: 0.75"/>
     <use xlink:href="#mc851894c0d" x="168.210187" y="53.494378" style="fill: #1f77b4; fill-opacity: 0.75; stroke: #1f77b4; stroke-opacity: 0.75"/>
     <use xlink:href="#mc851894c0d" x="237.4578" y="57.471921" style="fill: #1f77b4; fill-opacity: 0.75; stroke: #1f77b4; stroke-opacity: 0.75"/>
     <use xlink:href="#mc851894c0d" x="403.305579" y="51.721173" style="fill: #1f77b4; fill-opacity: 0.75; stroke: #1f77b4; stroke-opacity: 0.75"/>
    </g>
   </g>
   <g id="PathCollection_2">
    <defs>
     <path id="mfb3fa33c75" d="M 0 2.645751 
C 0.701661 2.645751 1.374679 2.366978 1.870829 1.870829 
C 2.366978 1.374679 2.645751 0.701661 2.645751 0 
C 2.645751 -0.701661 2.366978 -1.374679 1.870829 -1.870829 
C 1.374679 -2.366978 0.701661 -2.645751 0 -2.645751 
C -0.701661 -2.645751 -1.374679 -2.366978 -1.870829 -1.870829 
C -2.366978 -1.374679 -2.645751 -0.701661 -2.645751 0 
C -2.645751 0.701661 -2.366978 1.374679 -1.870829 1.870829 
C -1.374679 2.366978 -0.701661 2.645751 0 2.645751 
z
" style="stroke: #ff7f0e; stroke-opacity: 0.75"/>
    </defs>
    <g clip-path="url(#p03325762d8)">
     <use xlink:href="#mfb3fa33c75" x="160.893659" y="257.839432" style="fill: #ff7f0e; fill-opacity: 0.75; stroke: #ff7f0e; stroke-opacity: 0.75"/>
     <use xlink:href="#mfb3fa33c75" x="261.534422" y="54.379741" style="fill: #ff7f0e; fill-opacity: 0.75; stroke: #ff7f0e; stroke-opacity: 0.75"/>
     <use xlink:href="#mfb3fa33c75" x="265.868937" y="51.721173" style="fill: #ff7f0e; fill-opacity: 0.75; stroke: #ff7f0e; stroke-opacity: 0.75"/>
     <use xlink:href="#mfb3fa33c75" x="187.817275" y="266.961283" style="fill: #ff7f0e; fill-opacity: 0.75; stroke: #ff7f0e; stroke-opacity: 0.75"/>
     <use xlink:href="#mfb3fa33c75" x="188.168439" y="54.379741" style="fill: #ff7f0e; fill-opacity: 0.75; stroke: #ff7f0e; stroke-opacity: 0.75"/>
     <use xlink:href="#mfb3fa33c75" x="299.326552" y="51.277251" style="fill: #ff7f0e; fill-opacity: 0.75; stroke: #ff7f0e; stroke-opacity: 0.75"/>
     <use xlink:href="#mfb3fa33c75" x="135.957869" y="255.366703" style="fill: #ff7f0e; fill-opacity: 0.75; stroke: #ff7f0e; stroke-opacity: 0.75"/>
     <use xlink:href="#mfb3fa33c75" x="265.507384" y="63.626374" style="fill: #ff7f0e; fill-opacity: 0.75; stroke: #ff7f0e; stroke-opacity: 0.75"/>
    </g>
   </g>
   <g id="PathCollection_3">
    <defs>
     <path id="m70a0b4409c" d="M 0 2.645751 
C 0.701661 2.645751 1.374679 2.366978 1.870829 1.870829 
C 2.366978 1.374679 2.645751 0.701661 2.645751 0 
C 2.645751 -0.701661 2.366978 -1.374679 1.870829 -1.870829 
C 1.374679 -2.366978 0.701661 -2.645751 0 -2.645751 
C -0.701661 -2.645751 -1.374679 -2.366978 -1.870829 -1.870829 
C -2.366978 -1.374679 -2.645751 -0.701661 -2.645751 0 
C -2.645751 0.701661 -2.366978 1.374679 -1.870829 1.870829 
C -1.374679 2.366978 -0.701661 2.645751 0 2.645751 
z
" style="stroke: #2ca02c; stroke-opacity: 0.75"/>
    </defs>
    <g clip-path="url(#p03325762d8)">
     <use xlink:href="#m70a0b4409c" x="256.486213" y="50.388993" style="fill: #2ca02c; fill-opacity: 0.75; stroke: #2ca02c; stroke-opacity: 0.75"/>
     <use xlink:href="#m70a0b4409c" x="319.890678" y="52.608189" style="fill: #2ca02c; fill-opacity: 0.75; stroke: #2ca02c; stroke-opacity: 0.75"/>
     <use xlink:href="#m70a0b4409c" x="269.124361" y="51.277251" style="fill: #2ca02c; fill-opacity: 0.75; stroke: #2ca02c; stroke-opacity: 0.75"/>
     <use xlink:href="#m70a0b4409c" x="261.534422" y="54.82201" style="fill: #2ca02c; fill-opacity: 0.75; stroke: #2ca02c; stroke-opacity: 0.75"/>
     <use xlink:href="#m70a0b4409c" x="307.020458" y="45.488807" style="fill: #2ca02c; fill-opacity: 0.75; stroke: #2ca02c; stroke-opacity: 0.75"/>
     <use xlink:href="#m70a0b4409c" x="272.38361" y="51.277251" style="fill: #2ca02c; fill-opacity: 0.75; stroke: #2ca02c; stroke-opacity: 0.75"/>
     <use xlink:href="#m70a0b4409c" x="280.36643" y="61.87204" style="fill: #2ca02c; fill-opacity: 0.75; stroke: #2ca02c; stroke-opacity: 0.75"/>
     <use xlink:href="#m70a0b4409c" x="244.264251" y="51.721173" style="fill: #2ca02c; fill-opacity: 0.75; stroke: #2ca02c; stroke-opacity: 0.75"/>
    </g>
   </g>
   <g id="PathCollection_4">
    <defs>
     <path id="m101d6ff2a0" d="M 0 2.645751 
C 0.701661 2.645751 1.374679 2.366978 1.870829 1.870829 
C 2.366978 1.374679 2.645751 0.701661 2.645751 0 
C 2.645751 -0.701661 2.366978 -1.374679 1.870829 -1.870829 
C 1.374679 -2.366978 0.701661 -2.645751 0 -2.645751 
C -0.701661 -2.645751 -1.374679 -2.366978 -1.870829 -1.870829 
C -2.366978 -1.374679 -2.645751 -0.701661 -2.645751 0 
C -2.645751 0.701661 -2.366978 1.374679 -1.870829 1.870829 
C -1.374679 2.366978 -0.701661 2.645751 0 2.645751 
z
" style="stroke: #d62728; stroke-opacity: 0.75"/>
    </defs>
    <g clip-path="url(#p03325762d8)">
     <use xlink:href="#m101d6ff2a0" x="312.896676" y="52.608189" style="fill: #d62728; fill-opacity: 0.75; stroke: #d62728; stroke-opacity: 0.75"/>
     <use xlink:href="#m101d6ff2a0" x="162.982553" y="58.794207" style="fill: #d62728; fill-opacity: 0.75; stroke: #d62728; stroke-opacity: 0.75"/>
     <use xlink:href="#m101d6ff2a0" x="227.814246" y="57.471921" style="fill: #d62728; fill-opacity: 0.75; stroke: #d62728; stroke-opacity: 0.75"/>
     <use xlink:href="#m101d6ff2a0" x="243.188168" y="254.304635" style="fill: #d62728; fill-opacity: 0.75; stroke: #d62728; stroke-opacity: 0.75"/>
     <use xlink:href="#m101d6ff2a0" x="196.615839" y="53.494378" style="fill: #d62728; fill-opacity: 0.75; stroke: #d62728; stroke-opacity: 0.75"/>
     <use xlink:href="#m101d6ff2a0" x="302.25503" y="55.264279" style="fill: #d62728; fill-opacity: 0.75; stroke: #d62728; stroke-opacity: 0.75"/>
     <use xlink:href="#m101d6ff2a0" x="244.622705" y="57.030885" style="fill: #d62728; fill-opacity: 0.75; stroke: #d62728; stroke-opacity: 0.75"/>
     <use xlink:href="#m101d6ff2a0" x="342.092239" y="57.471921" style="fill: #d62728; fill-opacity: 0.75; stroke: #d62728; stroke-opacity: 0.75"/>
    </g>
   </g>
   <g id="PathCollection_5">
    <defs>
     <path id="m02d75658cd" d="M 0 2.645751 
C 0.701661 2.645751 1.374679 2.366978 1.870829 1.870829 
C 2.366978 1.374679 2.645751 0.701661 2.645751 0 
C 2.645751 -0.701661 2.366978 -1.374679 1.870829 -1.870829 
C 1.374679 -2.366978 0.701661 -2.645751 0 -2.645751 
C -0.701661 -2.645751 -1.374679 -2.366978 -1.870829 -1.870829 
C -2.366978 -1.374679 -2.645751 -0.701661 -2.645751 0 
C -2.645751 0.701661 -2.366978 1.374679 -1.870829 1.870829 
C -1.374679 2.366978 -0.701661 2.645751 0 2.645751 
z
" style="stroke: #9467bd; stroke-opacity: 0.75"/>
    </defs>
    <g clip-path="url(#p03325762d8)">
     <use xlink:href="#m02d75658cd" x="249.290183" y="59.674638" style="fill: #9467bd; fill-opacity: 0.75; stroke: #9467bd; stroke-opacity: 0.75"/>
     <use xlink:href="#m02d75658cd" x="229.954196" y="57.912956" style="fill: #9467bd; fill-opacity: 0.75; stroke: #9467bd; stroke-opacity: 0.75"/>
     <use xlink:href="#m02d75658cd" x="225.319297" y="252.176673" style="fill: #9467bd; fill-opacity: 0.75; stroke: #9467bd; stroke-opacity: 0.75"/>
     <use xlink:href="#m02d75658cd" x="264.784757" y="49.944656" style="fill: #9467bd; fill-opacity: 0.75; stroke: #9467bd; stroke-opacity: 0.75"/>
     <use xlink:href="#m02d75658cd" x="277.097804" y="46.827854" style="fill: #9467bd; fill-opacity: 0.75; stroke: #9467bd; stroke-opacity: 0.75"/>
     <use xlink:href="#m02d75658cd" x="264.423345" y="53.494378" style="fill: #9467bd; fill-opacity: 0.75; stroke: #9467bd; stroke-opacity: 0.75"/>
     <use xlink:href="#m02d75658cd" x="265.146215" y="50.833329" style="fill: #9467bd; fill-opacity: 0.75; stroke: #9467bd; stroke-opacity: 0.75"/>
     <use xlink:href="#m02d75658cd" x="289.101371" y="49.944656" style="fill: #9467bd; fill-opacity: 0.75; stroke: #9467bd; stroke-opacity: 0.75"/>
    </g>
   </g>
   <g id="PathCollection_6">
    <defs>
     <path id="m3bafdfe971" d="M 0 2.645751 
C 0.701661 2.645751 1.374679 2.366978 1.870829 1.870829 
C 2.366978 1.374679 2.645751 0.701661 2.645751 0 
C 2.645751 -0.701661 2.366978 -1.374679 1.870829 -1.870829 
C 1.374679 -2.366978 0.701661 -2.645751 0 -2.645751 
C -0.701661 -2.645751 -1.374679 -2.366978 -1.870829 -1.870829 
C -2.366978 -1.374679 -2.645751 -0.701661 -2.645751 0 
C -2.645751 0.701661 -2.366978 1.374679 -1.870829 1.870829 
C -1.374679 2.366978 -0.701661 2.645751 0 2.645751 
z
" style="stroke: #8c564b; stroke-opacity: 0.75"/>
    </defs>
    <g clip-path="url(#p03325762d8)">
     <use xlink:href="#m3bafdfe971" x="160.893659" y="57.471921" style="fill: #8c564b; fill-opacity: 0.75; stroke: #8c564b; stroke-opacity: 0.75"/>
     <use xlink:href="#m3bafdfe971" x="142.515684" y="52.608189" style="fill: #8c564b; fill-opacity: 0.75; stroke: #8c564b; stroke-opacity: 0.75"/>
     <use xlink:href="#m3bafdfe971" x="336.154878" y="54.379741" style="fill: #8c564b; fill-opacity: 0.75; stroke: #8c564b; stroke-opacity: 0.75"/>
     <use xlink:href="#m3bafdfe971" x="277.46087" y="57.912956" style="fill: #8c564b; fill-opacity: 0.75; stroke: #8c564b; stroke-opacity: 0.75"/>
     <use xlink:href="#m3bafdfe971" x="255.405698" y="51.277251" style="fill: #8c564b; fill-opacity: 0.75; stroke: #8c564b; stroke-opacity: 0.75"/>
     <use xlink:href="#m3bafdfe971" x="265.146215" y="250.755069" style="fill: #8c564b; fill-opacity: 0.75; stroke: #8c564b; stroke-opacity: 0.75"/>
     <use xlink:href="#m3bafdfe971" x="263.33973" y="53.494378" style="fill: #8c564b; fill-opacity: 0.75; stroke: #8c564b; stroke-opacity: 0.75"/>
    </g>
   </g>
   <g id="PathCollection_7">
    <defs>
     <path id="m146d188aa4" d="M 0 2.645751 
C 0.701661 2.645751 1.374679 2.366978 1.870829 1.870829 
C 2.366978 1.374679 2.645751 0.701661 2.645751 0 
C 2.645751 -0.701661 2.366978 -1.374679 1.870829 -1.870829 
C 1.374679 -2.366978 0.701661 -2.645751 0 -2.645751 
C -0.701661 -2.645751 -1.374679 -2.366978 -1.870829 -1.870829 
C -2.366978 -1.374679 -2.645751 -0.701661 -2.645751 0 
C -2.645751 0.701661 -2.366978 1.374679 -1.870829 1.870829 
C -1.374679 2.366978 -0.701661 2.645751 0 2.645751 
z
" style="stroke: #e377c2; stroke-opacity: 0.75"/>
    </defs>
    <g clip-path="url(#p03325762d8)">
     <use xlink:href="#m146d188aa4" x="186.763073" y="55.264279" style="fill: #e377c2; fill-opacity: 0.75; stroke: #e377c2; stroke-opacity: 0.75"/>
     <use xlink:href="#m146d188aa4" x="387.40573" y="48.610191" style="fill: #e377c2; fill-opacity: 0.75; stroke: #e377c2; stroke-opacity: 0.75"/>
     <use xlink:href="#m146d188aa4" x="292.019121" y="50.833329" style="fill: #e377c2; fill-opacity: 0.75; stroke: #e377c2; stroke-opacity: 0.75"/>
     <use xlink:href="#m146d188aa4" x="220.692522" y="46.381645" style="fill: #e377c2; fill-opacity: 0.75; stroke: #e377c2; stroke-opacity: 0.75"/>
     <use xlink:href="#m146d188aa4" x="278.186806" y="64.939889" style="fill: #e377c2; fill-opacity: 0.75; stroke: #e377c2; stroke-opacity: 0.75"/>
     <use xlink:href="#m146d188aa4" x="281.82035" y="51.277251" style="fill: #e377c2; fill-opacity: 0.75; stroke: #e377c2; stroke-opacity: 0.75"/>
     <use xlink:href="#m146d188aa4" x="185.358755" y="51.721173" style="fill: #e377c2; fill-opacity: 0.75; stroke: #e377c2; stroke-opacity: 0.75"/>
     <use xlink:href="#m146d188aa4" x="265.868937" y="49.055152" style="fill: #e377c2; fill-opacity: 0.75; stroke: #e377c2; stroke-opacity: 0.75"/>
    </g>
   </g>
   <g id="PathCollection_8">
    <defs>
     <path id="mef6c1290da" d="M 0 2.645751 
C 0.701661 2.645751 1.374679 2.366978 1.870829 1.870829 
C 2.366978 1.374679 2.645751 0.701661 2.645751 0 
C 2.645751 -0.701661 2.366978 -1.374679 1.870829 -1.870829 
C 1.374679 -2.366978 0.701661 -2.645751 0 -2.645751 
C -0.701661 -2.645751 -1.374679 -2.366978 -1.870829 -1.870829 
C -2.366978 -1.374679 -2.645751 -0.701661 -2.645751 0 
C -2.645751 0.701661 -2.366978 1.374679 -1.870829 1.870829 
C -1.374679 2.366978 -0.701661 2.645751 0 2.645751 
z
" style="stroke: #7f7f7f; stroke-opacity: 0.75"/>
    </defs>
    <g clip-path="url(#p03325762d8)">
     <use xlink:href="#mef6c1290da" x="177.645935" y="260.30497" style="fill: #7f7f7f; fill-opacity: 0.75; stroke: #7f7f7f; stroke-opacity: 0.75"/>
     <use xlink:href="#mef6c1290da" x="193.79714" y="259.249236" style="fill: #7f7f7f; fill-opacity: 0.75; stroke: #7f7f7f; stroke-opacity: 0.75"/>
     <use xlink:href="#mef6c1290da" x="217.493669" y="257.839432" style="fill: #7f7f7f; fill-opacity: 0.75; stroke: #7f7f7f; stroke-opacity: 0.75"/>
     <use xlink:href="#mef6c1290da" x="202.615307" y="257.839432" style="fill: #7f7f7f; fill-opacity: 0.75; stroke: #7f7f7f; stroke-opacity: 0.75"/>
     <use xlink:href="#mef6c1290da" x="180.097518" y="262.412659" style="fill: #7f7f7f; fill-opacity: 0.75; stroke: #7f7f7f; stroke-opacity: 0.75"/>
     <use xlink:href="#mef6c1290da" x="304.453579" y="264.515107" style="fill: #7f7f7f; fill-opacity: 0.75; stroke: #7f7f7f; stroke-opacity: 0.75"/>
     <use xlink:href="#mef6c1290da" x="349.159855" y="252.886586" style="fill: #7f7f7f; fill-opacity: 0.75; stroke: #7f7f7f; stroke-opacity: 0.75"/>
     <use xlink:href="#mef6c1290da" x="129.415258" y="259.95326" style="fill: #7f7f7f; fill-opacity: 0.75; stroke: #7f7f7f; stroke-opacity: 0.75"/>
    </g>
   </g>
   <g id="PathCollection_9">
    <defs>
     <path id="mfaed4fbca6" d="M 0 2.645751 
C 0.701661 2.645751 1.374679 2.366978 1.870829 1.870829 
C 2.366978 1.374679 2.645751 0.701661 2.645751 0 
C 2.645751 -0.701661 2.366978 -1.374679 1.870829 -1.870829 
C 1.374679 -2.366978 0.701661 -2.645751 0 -2.645751 
C -0.701661 -2.645751 -1.374679 -2.366978 -1.870829 -1.870829 
C -2.366978 -1.374679 -2.645751 -0.701661 -2.645751 0 
C -2.645751 0.701661 -2.366978 1.374679 -1.870829 1.870829 
C -1.374679 2.366978 -0.701661 2.645751 0 2.645751 
z
" style="stroke: #bcbd22; stroke-opacity: 0.75"/>
    </defs>
    <g clip-path="url(#p03325762d8)">
     <use xlink:href="#mfaed4fbca6" x="172.749369" y="54.82201" style="fill: #bcbd22; fill-opacity: 0.75; stroke: #bcbd22; stroke-opacity: 0.75"/>
     <use xlink:href="#mfaed4fbca6" x="339.122162" y="57.912956" style="fill: #bcbd22; fill-opacity: 0.75; stroke: #bcbd22; stroke-opacity: 0.75"/>
     <use xlink:href="#mfaed4fbca6" x="229.954196" y="67.125299" style="fill: #bcbd22; fill-opacity: 0.75; stroke: #bcbd22; stroke-opacity: 0.75"/>
     <use xlink:href="#mfaed4fbca6" x="265.868937" y="49.944656" style="fill: #bcbd22; fill-opacity: 0.75; stroke: #bcbd22; stroke-opacity: 0.75"/>
     <use xlink:href="#mfaed4fbca6" x="273.833019" y="60.114445" style="fill: #bcbd22; fill-opacity: 0.75; stroke: #bcbd22; stroke-opacity: 0.75"/>
     <use xlink:href="#mfaed4fbca6" x="284.730472" y="49.944656" style="fill: #bcbd22; fill-opacity: 0.75; stroke: #bcbd22; stroke-opacity: 0.75"/>
     <use xlink:href="#mfaed4fbca6" x="220.336836" y="65.814619" style="fill: #bcbd22; fill-opacity: 0.75; stroke: #bcbd22; stroke-opacity: 0.75"/>
     <use xlink:href="#mfaed4fbca6" x="322.840793" y="63.187993" style="fill: #bcbd22; fill-opacity: 0.75; stroke: #bcbd22; stroke-opacity: 0.75"/>
    </g>
   </g>
   <g id="PathCollection_10">
    <defs>
     <path id="m583e4e13d2" d="M 0 2.645751 
C 0.701661 2.645751 1.374679 2.366978 1.870829 1.870829 
C 2.366978 1.374679 2.645751 0.701661 2.645751 0 
C 2.645751 -0.701661 2.366978 -1.374679 1.870829 -1.870829 
C 1.374679 -2.366978 0.701661 -2.645751 0 -2.645751 
C -0.701661 -2.645751 -1.374679 -2.366978 -1.870829 -1.870829 
C -2.366978 -1.374679 -2.645751 -0.701661 -2.645751 0 
C -2.645751 0.701661 -2.366978 1.374679 -1.870829 1.870829 
C -1.374679 2.366978 -0.701661 2.645751 0 2.645751 
z
" style="stroke: #17becf; stroke-opacity: 0.75"/>
    </defs>
    <g clip-path="url(#p03325762d8)">
     <use xlink:href="#m583e4e13d2" x="282.184033" y="57.030885" style="fill: #17becf; fill-opacity: 0.75; stroke: #17becf; stroke-opacity: 0.75"/>
     <use xlink:href="#m583e4e13d2" x="328.380562" y="57.912956" style="fill: #17becf; fill-opacity: 0.75; stroke: #17becf; stroke-opacity: 0.75"/>
     <use xlink:href="#m583e4e13d2" x="268.400453" y="50.833329" style="fill: #17becf; fill-opacity: 0.75; stroke: #17becf; stroke-opacity: 0.75"/>
     <use xlink:href="#m583e4e13d2" x="262.978507" y="60.114445" style="fill: #17becf; fill-opacity: 0.75; stroke: #17becf; stroke-opacity: 0.75"/>
     <use xlink:href="#m583e4e13d2" x="289.830352" y="52.608189" style="fill: #17becf; fill-opacity: 0.75; stroke: #17becf; stroke-opacity: 0.75"/>
     <use xlink:href="#m583e4e13d2" x="237.81537" y="49.944656" style="fill: #17becf; fill-opacity: 0.75; stroke: #17becf; stroke-opacity: 0.75"/>
     <use xlink:href="#m583e4e13d2" x="208.627607" y="53.051283" style="fill: #17becf; fill-opacity: 0.75; stroke: #17becf; stroke-opacity: 0.75"/>
     <use xlink:href="#m583e4e13d2" x="290.924352" y="51.721173" style="fill: #17becf; fill-opacity: 0.75; stroke: #17becf; stroke-opacity: 0.75"/>
    </g>
   </g>
   <g id="PathCollection_11">
    <g clip-path="url(#p03325762d8)">
     <use xlink:href="#mc851894c0d" x="191.685183" y="48.164816" style="fill: #1f77b4; fill-opacity: 0.75; stroke: #1f77b4; stroke-opacity: 0.75"/>
     <use xlink:href="#mc851894c0d" x="305.186586" y="52.608189" style="fill: #1f77b4; fill-opacity: 0.75; stroke: #1f77b4; stroke-opacity: 0.75"/>
     <use xlink:href="#mc851894c0d" x="279.276573" y="53.494378" style="fill: #1f77b4; fill-opacity: 0.75; stroke: #1f77b4; stroke-opacity: 0.75"/>
     <use xlink:href="#mc851894c0d" x="270.572406" y="50.388993" style="fill: #1f77b4; fill-opacity: 0.75; stroke: #1f77b4; stroke-opacity: 0.75"/>
     <use xlink:href="#mc851894c0d" x="286.914894" y="48.610191" style="fill: #1f77b4; fill-opacity: 0.75; stroke: #1f77b4; stroke-opacity: 0.75"/>
     <use xlink:href="#mc851894c0d" x="211.107444" y="50.833329" style="fill: #1f77b4; fill-opacity: 0.75; stroke: #1f77b4; stroke-opacity: 0.75"/>
     <use xlink:href="#mc851894c0d" x="250.009111" y="46.827854" style="fill: #1f77b4; fill-opacity: 0.75; stroke: #1f77b4; stroke-opacity: 0.75"/>
     <use xlink:href="#mc851894c0d" x="234.596907" y="57.030885" style="fill: #1f77b4; fill-opacity: 0.75; stroke: #1f77b4; stroke-opacity: 0.75"/>
    </g>
   </g>
   <g id="PathCollection_12">
    <g clip-path="url(#p03325762d8)">
     <use xlink:href="#mfb3fa33c75" x="251.446859" y="56.589439" style="fill: #ff7f0e; fill-opacity: 0.75; stroke: #ff7f0e; stroke-opacity: 0.75"/>
     <use xlink:href="#mfb3fa33c75" x="248.930789" y="56.589439" style="fill: #ff7f0e; fill-opacity: 0.75; stroke: #ff7f0e; stroke-opacity: 0.75"/>
     <use xlink:href="#mfb3fa33c75" x="156.374514" y="54.82201" style="fill: #ff7f0e; fill-opacity: 0.75; stroke: #ff7f0e; stroke-opacity: 0.75"/>
    </g>
   </g>
   <g id="PathCollection_13">
    <g clip-path="url(#p03325762d8)">
     <use xlink:href="#m70a0b4409c" x="317.680301" y="57.030885" style="fill: #2ca02c; fill-opacity: 0.75; stroke: #2ca02c; stroke-opacity: 0.75"/>
     <use xlink:href="#m70a0b4409c" x="309.222421" y="55.706136" style="fill: #2ca02c; fill-opacity: 0.75; stroke: #2ca02c; stroke-opacity: 0.75"/>
     <use xlink:href="#m70a0b4409c" x="236.026982" y="46.827854" style="fill: #2ca02c; fill-opacity: 0.75; stroke: #2ca02c; stroke-opacity: 0.75"/>
     <use xlink:href="#m70a0b4409c" x="361.10268" y="52.164681" style="fill: #2ca02c; fill-opacity: 0.75; stroke: #2ca02c; stroke-opacity: 0.75"/>
     <use xlink:href="#m70a0b4409c" x="266.230537" y="52.608189" style="fill: #2ca02c; fill-opacity: 0.75; stroke: #2ca02c; stroke-opacity: 0.75"/>
     <use xlink:href="#m70a0b4409c" x="145.627836" y="52.164681" style="fill: #2ca02c; fill-opacity: 0.75; stroke: #2ca02c; stroke-opacity: 0.75"/>
     <use xlink:href="#m70a0b4409c" x="423.497784" y="60.99365" style="fill: #2ca02c; fill-opacity: 0.75; stroke: #2ca02c; stroke-opacity: 0.75"/>
     <use xlink:href="#m70a0b4409c" x="388.538407" y="46.381645" style="fill: #2ca02c; fill-opacity: 0.75; stroke: #2ca02c; stroke-opacity: 0.75"/>
    </g>
   </g>
   <g id="PathCollection_14">
    <g clip-path="url(#p03325762d8)">
     <use xlink:href="#m101d6ff2a0" x="95.240966" y="269.052443" style="fill: #d62728; fill-opacity: 0.75; stroke: #d62728; stroke-opacity: 0.75"/>
    </g>
   </g>
   <g id="PathCollection_15">
    <g clip-path="url(#p03325762d8)">
     <use xlink:href="#m02d75658cd" x="201.202504" y="51.721173" style="fill: #9467bd; fill-opacity: 0.75; stroke: #9467bd; stroke-opacity: 0.75"/>
     <use xlink:href="#m02d75658cd" x="296.035939" y="52.164681" style="fill: #9467bd; fill-opacity: 0.75; stroke: #9467bd; stroke-opacity: 0.75"/>
     <use xlink:href="#m02d75658cd" x="271.296543" y="49.944656" style="fill: #9467bd; fill-opacity: 0.75; stroke: #9467bd; stroke-opacity: 0.75"/>
     <use xlink:href="#m02d75658cd" x="317.31196" y="54.379741" style="fill: #9467bd; fill-opacity: 0.75; stroke: #9467bd; stroke-opacity: 0.75"/>
     <use xlink:href="#m02d75658cd" x="256.125882" y="51.277251" style="fill: #9467bd; fill-opacity: 0.75; stroke: #9467bd; stroke-opacity: 0.75"/>
     <use xlink:href="#m02d75658cd" x="291.65415" y="52.608189" style="fill: #9467bd; fill-opacity: 0.75; stroke: #9467bd; stroke-opacity: 0.75"/>
     <use xlink:href="#m02d75658cd" x="246.057986" y="54.379741" style="fill: #9467bd; fill-opacity: 0.75; stroke: #9467bd; stroke-opacity: 0.75"/>
     <use xlink:href="#m02d75658cd" x="263.33973" y="46.381645" style="fill: #9467bd; fill-opacity: 0.75; stroke: #9467bd; stroke-opacity: 0.75"/>
    </g>
   </g>
   <g id="PathCollection_16">
    <g clip-path="url(#p03325762d8)">
     <use xlink:href="#m3bafdfe971" x="331.339633" y="52.164681" style="fill: #8c564b; fill-opacity: 0.75; stroke: #8c564b; stroke-opacity: 0.75"/>
     <use xlink:href="#m3bafdfe971" x="254.32527" y="52.608189" style="fill: #8c564b; fill-opacity: 0.75; stroke: #8c564b; stroke-opacity: 0.75"/>
     <use xlink:href="#m3bafdfe971" x="233.524587" y="48.164816" style="fill: #8c564b; fill-opacity: 0.75; stroke: #8c564b; stroke-opacity: 0.75"/>
     <use xlink:href="#m3bafdfe971" x="281.456714" y="46.827854" style="fill: #8c564b; fill-opacity: 0.75; stroke: #8c564b; stroke-opacity: 0.75"/>
     <use xlink:href="#m3bafdfe971" x="243.188168" y="55.706136" style="fill: #8c564b; fill-opacity: 0.75; stroke: #8c564b; stroke-opacity: 0.75"/>
     <use xlink:href="#m3bafdfe971" x="248.571776" y="53.494378" style="fill: #8c564b; fill-opacity: 0.75; stroke: #8c564b; stroke-opacity: 0.75"/>
     <use xlink:href="#m3bafdfe971" x="274.921079" y="55.706136" style="fill: #8c564b; fill-opacity: 0.75; stroke: #8c564b; stroke-opacity: 0.75"/>
     <use xlink:href="#m3bafdfe971" x="299.326552" y="56.589439" style="fill: #8c564b; fill-opacity: 0.75; stroke: #8c564b; stroke-opacity: 0.75"/>
    </g>
   </g>
   <g id="patch_3">
    <path d="M 78.828125 280.230625 
L 78.828125 34.310625 
" style="fill: none; stroke: #808080; stroke-width: 0.8; stroke-linejoin: miter; stroke-linecap: square"/>
   </g>
   <g id="patch_4">
    <path d="M 78.828125 280.230625 
L 439.910625 280.230625 
" style="fill: none; stroke: #808080; stroke-width: 0.8; stroke-linejoin: miter; stroke-linecap: square"/>
   </g>
   <g id="text_9">
    <text style="font: 22px 'PingFang SC', 'Heiti SC', 'STHeiti', 'Calibri', 'Arial', 'Helvetica Neue', 'Arial Unicode MS', 'Noto Sans CJK SC', 'DejaVu Sans', sans-serif; text-anchor: middle" x="259.369375" y="28.310625" transform="rotate(-0 259.369375 28.310625)">GEMM × Vector FMA</text>
   </g>
  </g>
 </g>
 <defs>
  <clipPath id="p03325762d8">
   <rect x="78.828125" y="34.310625" width="361.0825" height="245.92"/>
  </clipPath>
 </defs>
</svg>
