<?xml version="1.0" encoding="utf-8" standalone="no"?>
<!DOCTYPE svg PUBLIC "-//W3C//DTD SVG 1.1//EN"
  "http://www.w3.org/Graphics/SVG/1.1/DTD/svg11.dtd">
<svg xmlns:xlink="http://www.w3.org/1999/xlink" width="450.844063pt" height="343.044687pt" viewBox="0 0 450.844063 343.044687" xmlns="http://www.w3.org/2000/svg" version="1.1">
 <metadata>
  <rdf:RDF xmlns:dc="http://purl.org/dc/elements/1.1/" xmlns:cc="http://creativecommons.org/ns#" xmlns:rdf="http://www.w3.org/1999/02/22-rdf-syntax-ns#">
   <cc:Work>
    <dc:type rdf:resource="http://purl.org/dc/dcmitype/StillImage"/>
    <dc:date>2026-07-11T23:31:19.953778</dc:date>
    <dc:format>image/svg+xml</dc:format>
    <dc:creator>
     <cc:Agent>
      <dc:title>Matplotlib v3.9.4, https://matplotlib.org/</dc:title>
     </cc:Agent>
    </dc:creator>
   </cc:Work>
  </rdf:RDF>
 </metadata>
 <defs>
  <style type="text/css">*{stroke-linejoin: round; stroke-linecap: butt}</style>
 </defs>
 <g id="figure_1">
  <g id="patch_1">
   <path d="M 0 343.044687 
L 450.844063 343.044687 
L 450.844063 0 
L 0 0 
z
" style="fill: #ffffff"/>
  </g>
  <g id="axes_1">
   <g id="patch_2">
    <path d="M 91.261562 280.324687 
L 440.044062 280.324687 
L 440.044062 34.554687 
L 91.261562 34.554687 
z
" style="fill: #ffffff"/>
   </g>
   <g id="matplotlib.axis_1">
    <g id="xtick_1">
     <g id="line2d_1">
      <defs>
       <path id="mf4e2be5005" d="M 0 0 
L 0 3.5 
" style="stroke: #808080; stroke-width: 0.8"/>
      </defs>
      <g>
       <use xlink:href="#mf4e2be5005" x="173.507051" y="280.324687" style="fill: #808080; stroke: #808080; stroke-width: 0.8"/>
      </g>
     </g>
     <g id="text_1">
      <text style="fill: #808080; font: 22px 'PingFang SC', 'Heiti SC', 'STHeiti', 'Calibri', 'Arial', 'Helvetica Neue', 'Arial Unicode MS', 'Noto Sans CJK SC', 'DejaVu Sans', sans-serif; text-anchor: middle" x="173.507051" y="304.835312" transform="rotate(-0 173.507051 304.835312)">1000</text>
     </g>
    </g>
    <g id="xtick_2">
     <g id="line2d_2">
      <g>
       <use xlink:href="#mf4e2be5005" x="276.440525" y="280.324687" style="fill: #808080; stroke: #808080; stroke-width: 0.8"/>
      </g>
     </g>
     <g id="text_2">
      <text style="fill: #808080; font: 22px 'PingFang SC', 'Heiti SC', 'STHeiti', 'Calibri', 'Arial', 'Helvetica Neue', 'Arial Unicode MS', 'Noto Sans CJK SC', 'DejaVu Sans', sans-serif; text-anchor: middle" x="276.440525" y="304.835312" transform="rotate(-0 276.440525 304.835312)">1200</text>
     </g>
    </g>
    <g id="xtick_3">
     <g id="line2d_3">
      <g>
       <use xlink:href="#mf4e2be5005" x="379.373999" y="280.324687" style="fill: #808080; stroke: #808080; stroke-width: 0.8"/>
      </g>
     </g>
     <g id="text_3">
      <text style="fill: #808080; font: 22px 'PingFang SC', 'Heiti SC', 'STHeiti', 'Calibri', 'Arial', 'Helvetica Neue', 'Arial Unicode MS', 'Noto Sans CJK SC', 'DejaVu Sans', sans-serif; text-anchor: middle" x="379.373999" y="304.835312" transform="rotate(-0 379.373999 304.835312)">1400</text>
     </g>
    </g>
    <g id="text_4">
     <text style="font: 22px 'PingFang SC', 'Heiti SC', 'STHeiti', 'Calibri', 'Arial', 'Helvetica Neue', 'Arial Unicode MS', 'Noto Sans CJK SC', 'DejaVu Sans', sans-serif; text-anchor: middle" x="265.652812" y="329.295312" transform="rotate(-0 265.652812 329.295312)">HBM GB/s</text>
    </g>
   </g>
   <g id="matplotlib.axis_2">
    <g id="ytick_1">
     <g id="line2d_4">
      <path d="M 91.261562 255.943725 
L 440.044062 255.943725 
" clip-path="url(#p9146b05629)" style="fill: none; stroke-dasharray: 1,1.65; stroke-dashoffset: 0; stroke: #808080; stroke-opacity: 0.55"/>
     </g>
     <g id="line2d_5">
      <defs>
       <path id="m9f8748240b" d="M 0 0 
L -3.5 0 
" style="stroke: #808080; stroke-width: 0.8"/>
      </defs>
      <g>
       <use xlink:href="#m9f8748240b" x="91.261562" y="255.943725" style="fill: #808080; stroke: #808080; stroke-width: 0.8"/>
      </g>
     </g>
     <g id="text_5">
      <text style="fill: #808080; font: 22px 'PingFang SC', 'Heiti SC', 'STHeiti', 'Calibri', 'Arial', 'Helvetica Neue', 'Arial Unicode MS', 'Noto Sans CJK SC', 'DejaVu Sans', sans-serif; text-anchor: end" x="84.261562" y="264.699037" transform="rotate(-0 84.261562 264.699037)">1200</text>
     </g>
    </g>
    <g id="ytick_2">
     <g id="line2d_6">
      <path d="M 91.261562 205.742803 
L 440.044062 205.742803 
" clip-path="url(#p9146b05629)" style="fill: none; stroke-dasharray: 1,1.65; stroke-dashoffset: 0; stroke: #808080; stroke-opacity: 0.55"/>
     </g>
     <g id="line2d_7">
      <g>
       <use xlink:href="#m9f8748240b" x="91.261562" y="205.742803" style="fill: #808080; stroke: #808080; stroke-width: 0.8"/>
      </g>
     </g>
     <g id="text_6">
      <text style="fill: #808080; font: 22px 'PingFang SC', 'Heiti SC', 'STHeiti', 'Calibri', 'Arial', 'Helvetica Neue', 'Arial Unicode MS', 'Noto Sans CJK SC', 'DejaVu Sans', sans-serif; text-anchor: end" x="84.261562" y="214.498115" transform="rotate(-0 84.261562 214.498115)">1250</text>
     </g>
    </g>
    <g id="ytick_3">
     <g id="line2d_8">
      <path d="M 91.261562 155.541881 
L 440.044062 155.541881 
" clip-path="url(#p9146b05629)" style="fill: none; stroke-dasharray: 1,1.65; stroke-dashoffset: 0; stroke: #808080; stroke-opacity: 0.55"/>
     </g>
     <g id="line2d_9">
      <g>
       <use xlink:href="#m9f8748240b" x="91.261562" y="155.541881" style="fill: #808080; stroke: #808080; stroke-width: 0.8"/>
      </g>
     </g>
     <g id="text_7">
      <text style="fill: #808080; font: 22px 'PingFang SC', 'Heiti SC', 'STHeiti', 'Calibri', 'Arial', 'Helvetica Neue', 'Arial Unicode MS', 'Noto Sans CJK SC', 'DejaVu Sans', sans-serif; text-anchor: end" x="84.261562" y="164.297193" transform="rotate(-0 84.261562 164.297193)">1300</text>
     </g>
    </g>
    <g id="ytick_4">
     <g id="line2d_10">
      <path d="M 91.261562 105.340959 
L 440.044062 105.340959 
" clip-path="url(#p9146b05629)" style="fill: none; stroke-dasharray: 1,1.65; stroke-dashoffset: 0; stroke: #808080; stroke-opacity: 0.55"/>
     </g>
     <g id="line2d_11">
      <g>
       <use xlink:href="#m9f8748240b" x="91.261562" y="105.340959" style="fill: #808080; stroke: #808080; stroke-width: 0.8"/>
      </g>
     </g>
     <g id="text_8">
      <text style="fill: #808080; font: 22px 'PingFang SC', 'Heiti SC', 'STHeiti', 'Calibri', 'Arial', 'Helvetica Neue', 'Arial Unicode MS', 'Noto Sans CJK SC', 'DejaVu Sans', sans-serif; text-anchor: end" x="84.261562" y="114.096272" transform="rotate(-0 84.261562 114.096272)">1350</text>
     </g>
    </g>
    <g id="ytick_5">
     <g id="line2d_12">
      <path d="M 91.261562 55.140037 
L 440.044062 55.140037 
" clip-path="url(#p9146b05629)" style="fill: none; stroke-dasharray: 1,1.65; stroke-dashoffset: 0; stroke: #808080; stroke-opacity: 0.55"/>
     </g>
     <g id="line2d_13">
      <g>
       <use xlink:href="#m9f8748240b" x="91.261562" y="55.140037" style="fill: #808080; stroke: #808080; stroke-width: 0.8"/>
      </g>
     </g>
     <g id="text_9">
      <text style="fill: #808080; font: 22px 'PingFang SC', 'Heiti SC', 'STHeiti', 'Calibri', 'Arial', 'Helvetica Neue', 'Arial Unicode MS', 'Noto Sans CJK SC', 'DejaVu Sans', sans-serif; text-anchor: end" x="84.261562" y="63.89535" transform="rotate(-0 84.261562 63.89535)">1400</text>
     </g>
    </g>
    <g id="text_10">
     <text style="font: 22px 'PingFang SC', 'Heiti SC', 'STHeiti', 'Calibri', 'Arial', 'Helvetica Neue', 'Arial Unicode MS', 'Noto Sans CJK SC', 'DejaVu Sans', sans-serif; text-anchor: middle" x="28.554688" y="157.439687" transform="rotate(-90 28.554688 157.439687)">DMA copy GB/s</text>
    </g>
   </g>
   <g id="PathCollection_1">
    <defs>
     <path id="m7e797012e4" d="M 0 2.645751 
C 0.701661 2.645751 1.374679 2.366978 1.870829 1.870829 
C 2.366978 1.374679 2.645751 0.701661 2.645751 0 
C 2.645751 -0.701661 2.366978 -1.374679 1.870829 -1.870829 
C 1.374679 -2.366978 0.701661 -2.645751 0 -2.645751 
C -0.701661 -2.645751 -1.374679 -2.366978 -1.870829 -1.870829 
C -2.366978 -1.374679 -2.645751 -0.701661 -2.645751 0 
C -2.645751 0.701661 -2.366978 1.374679 -1.870829 1.870829 
C -1.374679 2.366978 -0.701661 2.645751 0 2.645751 
z
" style="stroke: #1f77b4; stroke-opacity: 0.75"/>
    </defs>
    <g clip-path="url(#p9146b05629)">
     <use xlink:href="#m7e797012e4" x="357.43884" y="263.052951" style="fill: #1f77b4; fill-opacity: 0.75; stroke: #1f77b4; stroke-opacity: 0.75"/>
     <use xlink:href="#m7e797012e4" x="415.869824" y="65.880578" style="fill: #1f77b4; fill-opacity: 0.75; stroke: #1f77b4; stroke-opacity: 0.75"/>
     <use xlink:href="#m7e797012e4" x="415.0742" y="71.403096" style="fill: #1f77b4; fill-opacity: 0.75; stroke: #1f77b4; stroke-opacity: 0.75"/>
     <use xlink:href="#m7e797012e4" x="411.252173" y="69.567122" style="fill: #1f77b4; fill-opacity: 0.75; stroke: #1f77b4; stroke-opacity: 0.75"/>
     <use xlink:href="#m7e797012e4" x="354.399987" y="66.804044" style="fill: #1f77b4; fill-opacity: 0.75; stroke: #1f77b4; stroke-opacity: 0.75"/>
     <use xlink:href="#m7e797012e4" x="409.681909" y="65.418386" style="fill: #1f77b4; fill-opacity: 0.75; stroke: #1f77b4; stroke-opacity: 0.75"/>
     <use xlink:href="#m7e797012e4" x="416.00256" y="61.709901" style="fill: #1f77b4; fill-opacity: 0.75; stroke: #1f77b4; stroke-opacity: 0.75"/>
     <use xlink:href="#m7e797012e4" x="418.667708" y="67.726289" style="fill: #1f77b4; fill-opacity: 0.75; stroke: #1f77b4; stroke-opacity: 0.75"/>
    </g>
   </g>
   <g id="PathCollection_2">
    <defs>
     <path id="me2e94e0834" d="M 0 2.645751 
C 0.701661 2.645751 1.374679 2.366978 1.870829 1.870829 
C 2.366978 1.374679 2.645751 0.701661 2.645751 0 
C 2.645751 -0.701661 2.366978 -1.374679 1.870829 -1.870829 
C 1.374679 -2.366978 0.701661 -2.645751 0 -2.645751 
C -0.701661 -2.645751 -1.374679 -2.366978 -1.870829 -1.870829 
C -2.366978 -1.374679 -2.645751 -0.701661 -2.645751 0 
C -2.645751 0.701661 -2.366978 1.374679 -1.870829 1.870829 
C -1.374679 2.366978 -0.701661 2.645751 0 2.645751 
z
" style="stroke: #ff7f0e; stroke-opacity: 0.75"/>
    </defs>
    <g clip-path="url(#p9146b05629)">
     <use xlink:href="#me2e94e0834" x="193.428933" y="57.981542" style="fill: #ff7f0e; fill-opacity: 0.75; stroke: #ff7f0e; stroke-opacity: 0.75"/>
     <use xlink:href="#me2e94e0834" x="413.883926" y="57.5141" style="fill: #ff7f0e; fill-opacity: 0.75; stroke: #ff7f0e; stroke-opacity: 0.75"/>
     <use xlink:href="#me2e94e0834" x="419.739028" y="67.726289" style="fill: #ff7f0e; fill-opacity: 0.75; stroke: #ff7f0e; stroke-opacity: 0.75"/>
     <use xlink:href="#me2e94e0834" x="196.692257" y="67.726289" style="fill: #ff7f0e; fill-opacity: 0.75; stroke: #ff7f0e; stroke-opacity: 0.75"/>
     <use xlink:href="#me2e94e0834" x="354.736308" y="73.23423" style="fill: #ff7f0e; fill-opacity: 0.75; stroke: #ff7f0e; stroke-opacity: 0.75"/>
     <use xlink:href="#me2e94e0834" x="414.148053" y="62.174553" style="fill: #ff7f0e; fill-opacity: 0.75; stroke: #ff7f0e; stroke-opacity: 0.75"/>
     <use xlink:href="#me2e94e0834" x="193.230436" y="68.186954" style="fill: #ff7f0e; fill-opacity: 0.75; stroke: #ff7f0e; stroke-opacity: 0.75"/>
     <use xlink:href="#me2e94e0834" x="415.206657" y="254.130173" style="fill: #ff7f0e; fill-opacity: 0.75; stroke: #ff7f0e; stroke-opacity: 0.75"/>
    </g>
   </g>
   <g id="PathCollection_3">
    <defs>
     <path id="m46c91f7452" d="M 0 2.645751 
C 0.701661 2.645751 1.374679 2.366978 1.870829 1.870829 
C 2.366978 1.374679 2.645751 0.701661 2.645751 0 
C 2.645751 -0.701661 2.366978 -1.374679 1.870829 -1.870829 
C 1.374679 -2.366978 0.701661 -2.645751 0 -2.645751 
C -0.701661 -2.645751 -1.374679 -2.366978 -1.870829 -1.870829 
C -2.366978 -1.374679 -2.645751 -0.701661 -2.645751 0 
C -2.645751 0.701661 -2.366978 1.374679 -1.870829 1.870829 
C -1.374679 2.366978 -0.701661 2.645751 0 2.645751 
z
" style="stroke: #2ca02c; stroke-opacity: 0.75"/>
    </defs>
    <g clip-path="url(#p9146b05629)">
     <use xlink:href="#m46c91f7452" x="419.069069" y="63.56655" style="fill: #2ca02c; fill-opacity: 0.75; stroke: #2ca02c; stroke-opacity: 0.75"/>
     <use xlink:href="#m46c91f7452" x="415.0742" y="62.638788" style="fill: #2ca02c; fill-opacity: 0.75; stroke: #2ca02c; stroke-opacity: 0.75"/>
     <use xlink:href="#m46c91f7452" x="351.832114" y="66.342464" style="fill: #2ca02c; fill-opacity: 0.75; stroke: #2ca02c; stroke-opacity: 0.75"/>
     <use xlink:href="#m46c91f7452" x="419.739028" y="68.647314" style="fill: #2ca02c; fill-opacity: 0.75; stroke: #2ca02c; stroke-opacity: 0.75"/>
     <use xlink:href="#m46c91f7452" x="410.597069" y="54.70289" style="fill: #2ca02c; fill-opacity: 0.75; stroke: #2ca02c; stroke-opacity: 0.75"/>
     <use xlink:href="#m46c91f7452" x="417.599401" y="74.604417" style="fill: #2ca02c; fill-opacity: 0.75; stroke: #2ca02c; stroke-opacity: 0.75"/>
     <use xlink:href="#m46c91f7452" x="419.470915" y="261.34728" style="fill: #2ca02c; fill-opacity: 0.75; stroke: #2ca02c; stroke-opacity: 0.75"/>
     <use xlink:href="#m46c91f7452" x="418.400349" y="63.102823" style="fill: #2ca02c; fill-opacity: 0.75; stroke: #2ca02c; stroke-opacity: 0.75"/>
    </g>
   </g>
   <g id="PathCollection_4">
    <defs>
     <path id="m323585de47" d="M 0 2.645751 
C 0.701661 2.645751 1.374679 2.366978 1.870829 1.870829 
C 2.366978 1.374679 2.645751 0.701661 2.645751 0 
C 2.645751 -0.701661 2.366978 -1.374679 1.870829 -1.870829 
C 1.374679 -2.366978 0.701661 -2.645751 0 -2.645751 
C -0.701661 -2.645751 -1.374679 -2.366978 -1.870829 -1.870829 
C -2.366978 -1.374679 -2.645751 -0.701661 -2.645751 0 
C -2.645751 0.701661 -2.366978 1.374679 -1.870829 1.870829 
C -1.374679 2.366978 -0.701661 2.645751 0 2.645751 
z
" style="stroke: #d62728; stroke-opacity: 0.75"/>
    </defs>
    <g clip-path="url(#p9146b05629)">
     <use xlink:href="#m323585de47" x="416.401171" y="71.403096" style="fill: #d62728; fill-opacity: 0.75; stroke: #d62728; stroke-opacity: 0.75"/>
     <use xlink:href="#m323585de47" x="413.883926" y="66.804044" style="fill: #d62728; fill-opacity: 0.75; stroke: #d62728; stroke-opacity: 0.75"/>
     <use xlink:href="#m323585de47" x="414.676985" y="69.567122" style="fill: #d62728; fill-opacity: 0.75; stroke: #d62728; stroke-opacity: 0.75"/>
     <use xlink:href="#m323585de47" x="421.351685" y="72.776899" style="fill: #d62728; fill-opacity: 0.75; stroke: #d62728; stroke-opacity: 0.75"/>
     <use xlink:href="#m323585de47" x="416.534093" y="64.493082" style="fill: #d62728; fill-opacity: 0.75; stroke: #d62728; stroke-opacity: 0.75"/>
     <use xlink:href="#m323585de47" x="418.400349" y="64.02997" style="fill: #d62728; fill-opacity: 0.75; stroke: #d62728; stroke-opacity: 0.75"/>
     <use xlink:href="#m323585de47" x="417.999633" y="253.092051" style="fill: #d62728; fill-opacity: 0.75; stroke: #d62728; stroke-opacity: 0.75"/>
     <use xlink:href="#m323585de47" x="415.339222" y="50.937041" style="fill: #d62728; fill-opacity: 0.75; stroke: #d62728; stroke-opacity: 0.75"/>
    </g>
   </g>
   <g id="PathCollection_5">
    <defs>
     <path id="m071309db4d" d="M 0 2.645751 
C 0.701661 2.645751 1.374679 2.366978 1.870829 1.870829 
C 2.366978 1.374679 2.645751 0.701661 2.645751 0 
C 2.645751 -0.701661 2.366978 -1.374679 1.870829 -1.870829 
C 1.374679 -2.366978 0.701661 -2.645751 0 -2.645751 
C -0.701661 -2.645751 -1.374679 -2.366978 -1.870829 -1.870829 
C -2.366978 -1.374679 -2.645751 -0.701661 -2.645751 0 
C -2.645751 0.701661 -2.366978 1.374679 -1.870829 1.870829 
C -1.374679 2.366978 -0.701661 2.645751 0 2.645751 
z
" style="stroke: #9467bd; stroke-opacity: 0.75"/>
    </defs>
    <g clip-path="url(#p9146b05629)">
     <use xlink:href="#m071309db4d" x="414.412426" y="64.955887" style="fill: #9467bd; fill-opacity: 0.75; stroke: #9467bd; stroke-opacity: 0.75"/>
     <use xlink:href="#m071309db4d" x="417.066373" y="67.265319" style="fill: #9467bd; fill-opacity: 0.75; stroke: #9467bd; stroke-opacity: 0.75"/>
     <use xlink:href="#m071309db4d" x="416.534093" y="70.02657" style="fill: #9467bd; fill-opacity: 0.75; stroke: #9467bd; stroke-opacity: 0.75"/>
     <use xlink:href="#m071309db4d" x="354.96072" y="65.418386" style="fill: #9467bd; fill-opacity: 0.75; stroke: #9467bd; stroke-opacity: 0.75"/>
     <use xlink:href="#m071309db4d" x="416.00256" y="69.567122" style="fill: #9467bd; fill-opacity: 0.75; stroke: #9467bd; stroke-opacity: 0.75"/>
     <use xlink:href="#m071309db4d" x="356.310238" y="70.485715" style="fill: #9467bd; fill-opacity: 0.75; stroke: #9467bd; stroke-opacity: 0.75"/>
     <use xlink:href="#m071309db4d" x="417.599401" y="63.56655" style="fill: #9467bd; fill-opacity: 0.75; stroke: #9467bd; stroke-opacity: 0.75"/>
     <use xlink:href="#m071309db4d" x="414.676985" y="68.186954" style="fill: #9467bd; fill-opacity: 0.75; stroke: #9467bd; stroke-opacity: 0.75"/>
    </g>
   </g>
   <g id="PathCollection_6">
    <defs>
     <path id="m79e9c85529" d="M 0 2.645751 
C 0.701661 2.645751 1.374679 2.366978 1.870829 1.870829 
C 2.366978 1.374679 2.645751 0.701661 2.645751 0 
C 2.645751 -0.701661 2.366978 -1.374679 1.870829 -1.870829 
C 1.374679 -2.366978 0.701661 -2.645751 0 -2.645751 
C -0.701661 -2.645751 -1.374679 -2.366978 -1.870829 -1.870829 
C -2.366978 -1.374679 -2.645751 -0.701661 -2.645751 0 
C -2.645751 0.701661 -2.366978 1.374679 -1.870829 1.870829 
C -1.374679 2.366978 -0.701661 2.645751 0 2.645751 
z
" style="stroke: #8c564b; stroke-opacity: 0.75"/>
    </defs>
    <g clip-path="url(#p9146b05629)">
     <use xlink:href="#m79e9c85529" x="417.866196" y="72.319267" style="fill: #8c564b; fill-opacity: 0.75; stroke: #8c564b; stroke-opacity: 0.75"/>
     <use xlink:href="#m79e9c85529" x="413.751871" y="52.351596" style="fill: #8c564b; fill-opacity: 0.75; stroke: #8c564b; stroke-opacity: 0.75"/>
     <use xlink:href="#m79e9c85529" x="416.135404" y="68.647314" style="fill: #8c564b; fill-opacity: 0.75; stroke: #8c564b; stroke-opacity: 0.75"/>
     <use xlink:href="#m79e9c85529" x="417.066373" y="68.647314" style="fill: #8c564b; fill-opacity: 0.75; stroke: #8c564b; stroke-opacity: 0.75"/>
     <use xlink:href="#m79e9c85529" x="107.115313" y="57.5141" style="fill: #8c564b; fill-opacity: 0.75; stroke: #8c564b; stroke-opacity: 0.75"/>
     <use xlink:href="#m79e9c85529" x="417.999633" y="61.709901" style="fill: #8c564b; fill-opacity: 0.75; stroke: #8c564b; stroke-opacity: 0.75"/>
     <use xlink:href="#m79e9c85529" x="416.268233" y="68.186954" style="fill: #8c564b; fill-opacity: 0.75; stroke: #8c564b; stroke-opacity: 0.75"/>
    </g>
   </g>
   <g id="PathCollection_7">
    <defs>
     <path id="me231fe6ce6" d="M 0 2.645751 
C 0.701661 2.645751 1.374679 2.366978 1.870829 1.870829 
C 2.366978 1.374679 2.645751 0.701661 2.645751 0 
C 2.645751 -0.701661 2.366978 -1.374679 1.870829 -1.870829 
C 1.374679 -2.366978 0.701661 -2.645751 0 -2.645751 
C -0.701661 -2.645751 -1.374679 -2.366978 -1.870829 -1.870829 
C -2.366978 -1.374679 -2.645751 -0.701661 -2.645751 0 
C -2.645751 0.701661 -2.366978 1.374679 -1.870829 1.870829 
C -1.374679 2.366978 -0.701661 2.645751 0 2.645751 
z
" style="stroke: #e377c2; stroke-opacity: 0.75"/>
    </defs>
    <g clip-path="url(#p9146b05629)">
     <use xlink:href="#me231fe6ce6" x="417.732806" y="67.265319" style="fill: #e377c2; fill-opacity: 0.75; stroke: #e377c2; stroke-opacity: 0.75"/>
     <use xlink:href="#me231fe6ce6" x="416.268233" y="56.109901" style="fill: #e377c2; fill-opacity: 0.75; stroke: #e377c2; stroke-opacity: 0.75"/>
     <use xlink:href="#me231fe6ce6" x="416.534093" y="53.293056" style="fill: #e377c2; fill-opacity: 0.75; stroke: #e377c2; stroke-opacity: 0.75"/>
     <use xlink:href="#me231fe6ce6" x="244.162745" y="65.880578" style="fill: #e377c2; fill-opacity: 0.75; stroke: #e377c2; stroke-opacity: 0.75"/>
     <use xlink:href="#me231fe6ce6" x="412.434158" y="68.647314" style="fill: #e377c2; fill-opacity: 0.75; stroke: #e377c2; stroke-opacity: 0.75"/>
     <use xlink:href="#me231fe6ce6" x="418.133179" y="70.944557" style="fill: #e377c2; fill-opacity: 0.75; stroke: #e377c2; stroke-opacity: 0.75"/>
     <use xlink:href="#me231fe6ce6" x="414.280247" y="69.10737" style="fill: #e377c2; fill-opacity: 0.75; stroke: #e377c2; stroke-opacity: 0.75"/>
     <use xlink:href="#me231fe6ce6" x="354.399987" y="65.880578" style="fill: #e377c2; fill-opacity: 0.75; stroke: #e377c2; stroke-opacity: 0.75"/>
    </g>
   </g>
   <g id="PathCollection_8">
    <defs>
     <path id="m17a3cdfe9b" d="M 0 2.645751 
C 0.701661 2.645751 1.374679 2.366978 1.870829 1.870829 
C 2.366978 1.374679 2.645751 0.701661 2.645751 0 
C 2.645751 -0.701661 2.366978 -1.374679 1.870829 -1.870829 
C 1.374679 -2.366978 0.701661 -2.645751 0 -2.645751 
C -0.701661 -2.645751 -1.374679 -2.366978 -1.870829 -1.870829 
C -2.366978 -1.374679 -2.645751 -0.701661 -2.645751 0 
C -2.645751 0.701661 -2.366978 1.374679 -1.870829 1.870829 
C -1.374679 2.366978 -0.701661 2.645751 0 2.645751 
z
" style="stroke: #7f7f7f; stroke-opacity: 0.75"/>
    </defs>
    <g clip-path="url(#p9146b05629)">
     <use xlink:href="#m17a3cdfe9b" x="193.362731" y="78.698682" style="fill: #7f7f7f; fill-opacity: 0.75; stroke: #7f7f7f; stroke-opacity: 0.75"/>
     <use xlink:href="#m17a3cdfe9b" x="194.423695" y="75.9719" style="fill: #7f7f7f; fill-opacity: 0.75; stroke: #7f7f7f; stroke-opacity: 0.75"/>
     <use xlink:href="#m17a3cdfe9b" x="192.569762" y="75.060544" style="fill: #7f7f7f; fill-opacity: 0.75; stroke: #7f7f7f; stroke-opacity: 0.75"/>
     <use xlink:href="#m17a3cdfe9b" x="190.597625" y="73.69126" style="fill: #7f7f7f; fill-opacity: 0.75; stroke: #7f7f7f; stroke-opacity: 0.75"/>
     <use xlink:href="#m17a3cdfe9b" x="191.91078" y="72.319267" style="fill: #7f7f7f; fill-opacity: 0.75; stroke: #7f7f7f; stroke-opacity: 0.75"/>
     <use xlink:href="#m17a3cdfe9b" x="193.959021" y="269.153324" style="fill: #7f7f7f; fill-opacity: 0.75; stroke: #7f7f7f; stroke-opacity: 0.75"/>
     <use xlink:href="#m17a3cdfe9b" x="160.564608" y="70.944557" style="fill: #7f7f7f; fill-opacity: 0.75; stroke: #7f7f7f; stroke-opacity: 0.75"/>
     <use xlink:href="#m17a3cdfe9b" x="192.569762" y="78.698682" style="fill: #7f7f7f; fill-opacity: 0.75; stroke: #7f7f7f; stroke-opacity: 0.75"/>
    </g>
   </g>
   <g id="PathCollection_9">
    <defs>
     <path id="m2128f203e6" d="M 0 2.645751 
C 0.701661 2.645751 1.374679 2.366978 1.870829 1.870829 
C 2.366978 1.374679 2.645751 0.701661 2.645751 0 
C 2.645751 -0.701661 2.366978 -1.374679 1.870829 -1.870829 
C 1.374679 -2.366978 0.701661 -2.645751 0 -2.645751 
C -0.701661 -2.645751 -1.374679 -2.366978 -1.870829 -1.870829 
C -2.366978 -1.374679 -2.645751 -0.701661 -2.645751 0 
C -2.645751 0.701661 -2.366978 1.374679 -1.870829 1.870829 
C -1.374679 2.366978 -0.701661 2.645751 0 2.645751 
z
" style="stroke: #bcbd22; stroke-opacity: 0.75"/>
    </defs>
    <g clip-path="url(#p9146b05629)">
     <use xlink:href="#m2128f203e6" x="377.677968" y="64.02997" style="fill: #bcbd22; fill-opacity: 0.75; stroke: #bcbd22; stroke-opacity: 0.75"/>
     <use xlink:href="#m2128f203e6" x="420.141522" y="70.02657" style="fill: #bcbd22; fill-opacity: 0.75; stroke: #bcbd22; stroke-opacity: 0.75"/>
     <use xlink:href="#m2128f203e6" x="413.224233" y="54.233259" style="fill: #bcbd22; fill-opacity: 0.75; stroke: #bcbd22; stroke-opacity: 0.75"/>
     <use xlink:href="#m2128f203e6" x="351.276357" y="66.804044" style="fill: #bcbd22; fill-opacity: 0.75; stroke: #bcbd22; stroke-opacity: 0.75"/>
     <use xlink:href="#m2128f203e6" x="417.999633" y="65.880578" style="fill: #bcbd22; fill-opacity: 0.75; stroke: #bcbd22; stroke-opacity: 0.75"/>
     <use xlink:href="#m2128f203e6" x="417.19959" y="256.201074" style="fill: #bcbd22; fill-opacity: 0.75; stroke: #bcbd22; stroke-opacity: 0.75"/>
     <use xlink:href="#m2128f203e6" x="417.19959" y="67.726289" style="fill: #bcbd22; fill-opacity: 0.75; stroke: #bcbd22; stroke-opacity: 0.75"/>
     <use xlink:href="#m2128f203e6" x="424.190313" y="66.804044" style="fill: #bcbd22; fill-opacity: 0.75; stroke: #bcbd22; stroke-opacity: 0.75"/>
    </g>
   </g>
   <g id="PathCollection_10">
    <defs>
     <path id="m4b2956ce6c" d="M 0 2.645751 
C 0.701661 2.645751 1.374679 2.366978 1.870829 1.870829 
C 2.366978 1.374679 2.645751 0.701661 2.645751 0 
C 2.645751 -0.701661 2.366978 -1.374679 1.870829 -1.870829 
C 1.374679 -2.366978 0.701661 -2.645751 0 -2.645751 
C -0.701661 -2.645751 -1.374679 -2.366978 -1.870829 -1.870829 
C -2.366978 -1.374679 -2.645751 -0.701661 -2.645751 0 
C -2.645751 0.701661 -2.366978 1.374679 -1.870829 1.870829 
C -1.374679 2.366978 -0.701661 2.645751 0 2.645751 
z
" style="stroke: #17becf; stroke-opacity: 0.75"/>
    </defs>
    <g clip-path="url(#p9146b05629)">
     <use xlink:href="#m4b2956ce6c" x="421.082435" y="64.493082" style="fill: #17becf; fill-opacity: 0.75; stroke: #17becf; stroke-opacity: 0.75"/>
     <use xlink:href="#m4b2956ce6c" x="376.841157" y="67.726289" style="fill: #17becf; fill-opacity: 0.75; stroke: #17becf; stroke-opacity: 0.75"/>
     <use xlink:href="#m4b2956ce6c" x="355.297636" y="64.493082" style="fill: #17becf; fill-opacity: 0.75; stroke: #17becf; stroke-opacity: 0.75"/>
     <use xlink:href="#m4b2956ce6c" x="352.277343" y="65.418386" style="fill: #17becf; fill-opacity: 0.75; stroke: #17becf; stroke-opacity: 0.75"/>
     <use xlink:href="#m4b2956ce6c" x="415.206657" y="66.804044" style="fill: #17becf; fill-opacity: 0.75; stroke: #17becf; stroke-opacity: 0.75"/>
     <use xlink:href="#m4b2956ce6c" x="417.332793" y="64.493082" style="fill: #17becf; fill-opacity: 0.75; stroke: #17becf; stroke-opacity: 0.75"/>
     <use xlink:href="#m4b2956ce6c" x="412.829019" y="65.880578" style="fill: #17becf; fill-opacity: 0.75; stroke: #17becf; stroke-opacity: 0.75"/>
     <use xlink:href="#m4b2956ce6c" x="416.800139" y="263.393503" style="fill: #17becf; fill-opacity: 0.75; stroke: #17becf; stroke-opacity: 0.75"/>
    </g>
   </g>
   <g id="PathCollection_11">
    <g clip-path="url(#p9146b05629)">
     <use xlink:href="#m7e797012e4" x="415.206657" y="67.265319" style="fill: #1f77b4; fill-opacity: 0.75; stroke: #1f77b4; stroke-opacity: 0.75"/>
     <use xlink:href="#m7e797012e4" x="415.60443" y="64.493082" style="fill: #1f77b4; fill-opacity: 0.75; stroke: #1f77b4; stroke-opacity: 0.75"/>
     <use xlink:href="#m7e797012e4" x="414.809364" y="75.060544" style="fill: #1f77b4; fill-opacity: 0.75; stroke: #1f77b4; stroke-opacity: 0.75"/>
     <use xlink:href="#m7e797012e4" x="401.416701" y="57.5141" style="fill: #1f77b4; fill-opacity: 0.75; stroke: #1f77b4; stroke-opacity: 0.75"/>
     <use xlink:href="#m7e797012e4" x="416.268233" y="58.448674" style="fill: #1f77b4; fill-opacity: 0.75; stroke: #1f77b4; stroke-opacity: 0.75"/>
     <use xlink:href="#m7e797012e4" x="413.619923" y="61.709901" style="fill: #1f77b4; fill-opacity: 0.75; stroke: #1f77b4; stroke-opacity: 0.75"/>
     <use xlink:href="#m7e797012e4" x="409.55138" y="67.265319" style="fill: #1f77b4; fill-opacity: 0.75; stroke: #1f77b4; stroke-opacity: 0.75"/>
     <use xlink:href="#m7e797012e4" x="419.873125" y="51.880393" style="fill: #1f77b4; fill-opacity: 0.75; stroke: #1f77b4; stroke-opacity: 0.75"/>
    </g>
   </g>
   <g id="PathCollection_12">
    <g clip-path="url(#p9146b05629)">
     <use xlink:href="#me2e94e0834" x="329.859692" y="61.24494" style="fill: #ff7f0e; fill-opacity: 0.75; stroke: #ff7f0e; stroke-opacity: 0.75"/>
     <use xlink:href="#me2e94e0834" x="420.410108" y="60.314091" style="fill: #ff7f0e; fill-opacity: 0.75; stroke: #ff7f0e; stroke-opacity: 0.75"/>
     <use xlink:href="#me2e94e0834" x="419.069069" y="62.174553" style="fill: #ff7f0e; fill-opacity: 0.75; stroke: #ff7f0e; stroke-opacity: 0.75"/>
    </g>
   </g>
   <g id="PathCollection_13">
    <g clip-path="url(#p9146b05629)">
     <use xlink:href="#m46c91f7452" x="421.621126" y="68.186954" style="fill: #2ca02c; fill-opacity: 0.75; stroke: #2ca02c; stroke-opacity: 0.75"/>
     <use xlink:href="#m46c91f7452" x="352.277343" y="64.955887" style="fill: #2ca02c; fill-opacity: 0.75; stroke: #2ca02c; stroke-opacity: 0.75"/>
     <use xlink:href="#m46c91f7452" x="413.092469" y="61.24494" style="fill: #2ca02c; fill-opacity: 0.75; stroke: #2ca02c; stroke-opacity: 0.75"/>
     <use xlink:href="#m46c91f7452" x="417.19959" y="70.485715" style="fill: #2ca02c; fill-opacity: 0.75; stroke: #2ca02c; stroke-opacity: 0.75"/>
     <use xlink:href="#m46c91f7452" x="409.812544" y="70.02657" style="fill: #2ca02c; fill-opacity: 0.75; stroke: #2ca02c; stroke-opacity: 0.75"/>
     <use xlink:href="#m46c91f7452" x="419.470915" y="248.921634" style="fill: #2ca02c; fill-opacity: 0.75; stroke: #2ca02c; stroke-opacity: 0.75"/>
     <use xlink:href="#m46c91f7452" x="414.015967" y="70.485715" style="fill: #2ca02c; fill-opacity: 0.75; stroke: #2ca02c; stroke-opacity: 0.75"/>
     <use xlink:href="#m46c91f7452" x="354.399987" y="67.265319" style="fill: #2ca02c; fill-opacity: 0.75; stroke: #2ca02c; stroke-opacity: 0.75"/>
    </g>
   </g>
   <g id="PathCollection_14">
    <g clip-path="url(#p9146b05629)">
     <use xlink:href="#m323585de47" x="158.995266" y="92.173498" style="fill: #d62728; fill-opacity: 0.75; stroke: #d62728; stroke-opacity: 0.75"/>
    </g>
   </g>
   <g id="PathCollection_15">
    <g clip-path="url(#p9146b05629)">
     <use xlink:href="#m071309db4d" x="356.874109" y="255.511564" style="fill: #9467bd; fill-opacity: 0.75; stroke: #9467bd; stroke-opacity: 0.75"/>
     <use xlink:href="#m071309db4d" x="357.212827" y="53.293056" style="fill: #9467bd; fill-opacity: 0.75; stroke: #9467bd; stroke-opacity: 0.75"/>
     <use xlink:href="#m071309db4d" x="416.534093" y="69.567122" style="fill: #9467bd; fill-opacity: 0.75; stroke: #9467bd; stroke-opacity: 0.75"/>
     <use xlink:href="#m071309db4d" x="414.809364" y="74.147989" style="fill: #9467bd; fill-opacity: 0.75; stroke: #9467bd; stroke-opacity: 0.75"/>
     <use xlink:href="#m071309db4d" x="414.941728" y="70.485715" style="fill: #9467bd; fill-opacity: 0.75; stroke: #9467bd; stroke-opacity: 0.75"/>
     <use xlink:href="#m071309db4d" x="418.133179" y="65.418386" style="fill: #9467bd; fill-opacity: 0.75; stroke: #9467bd; stroke-opacity: 0.75"/>
     <use xlink:href="#m071309db4d" x="412.697332" y="70.02657" style="fill: #9467bd; fill-opacity: 0.75; stroke: #9467bd; stroke-opacity: 0.75"/>
     <use xlink:href="#m071309db4d" x="415.737073" y="53.293056" style="fill: #9467bd; fill-opacity: 0.75; stroke: #9467bd; stroke-opacity: 0.75"/>
    </g>
   </g>
   <g id="PathCollection_16">
    <g clip-path="url(#p9146b05629)">
     <use xlink:href="#m79e9c85529" x="355.859818" y="66.342464" style="fill: #8c564b; fill-opacity: 0.75; stroke: #8c564b; stroke-opacity: 0.75"/>
     <use xlink:href="#m79e9c85529" x="419.202991" y="64.955887" style="fill: #8c564b; fill-opacity: 0.75; stroke: #8c564b; stroke-opacity: 0.75"/>
     <use xlink:href="#m79e9c85529" x="419.873125" y="70.944557" style="fill: #8c564b; fill-opacity: 0.75; stroke: #8c564b; stroke-opacity: 0.75"/>
     <use xlink:href="#m79e9c85529" x="416.135404" y="57.5141" style="fill: #8c564b; fill-opacity: 0.75; stroke: #8c564b; stroke-opacity: 0.75"/>
     <use xlink:href="#m79e9c85529" x="356.42296" y="45.726051" style="fill: #8c564b; fill-opacity: 0.75; stroke: #8c564b; stroke-opacity: 0.75"/>
     <use xlink:href="#m79e9c85529" x="416.933264" y="58.915494" style="fill: #8c564b; fill-opacity: 0.75; stroke: #8c564b; stroke-opacity: 0.75"/>
     <use xlink:href="#m79e9c85529" x="415.0742" y="57.981542" style="fill: #8c564b; fill-opacity: 0.75; stroke: #8c564b; stroke-opacity: 0.75"/>
     <use xlink:href="#m79e9c85529" x="417.599401" y="77.336581" style="fill: #8c564b; fill-opacity: 0.75; stroke: #8c564b; stroke-opacity: 0.75"/>
    </g>
   </g>
   <g id="patch_3">
    <path d="M 91.261562 280.324687 
L 91.261562 34.554688 
" style="fill: none; stroke: #808080; stroke-width: 0.8; stroke-linejoin: miter; stroke-linecap: square"/>
   </g>
   <g id="patch_4">
    <path d="M 91.261563 280.324687 
L 440.044062 280.324687 
" style="fill: none; stroke: #808080; stroke-width: 0.8; stroke-linejoin: miter; stroke-linecap: square"/>
   </g>
   <g id="text_11">
    <text style="font: 22px 'PingFang SC', 'Heiti SC', 'STHeiti', 'Calibri', 'Arial', 'Helvetica Neue', 'Arial Unicode MS', 'Noto Sans CJK SC', 'DejaVu Sans', sans-serif; text-anchor: middle" x="265.652812" y="28.554687" transform="rotate(-0 265.652812 28.554687)">HBM × DMA copy</text>
   </g>
  </g>
 </g>
 <defs>
  <clipPath id="p9146b05629">
   <rect x="91.261562" y="34.554687" width="348.7825" height="245.77"/>
  </clipPath>
 </defs>
</svg>
