<?xml version="1.0" encoding="utf-8" standalone="no"?>
<!DOCTYPE svg PUBLIC "-//W3C//DTD SVG 1.1//EN"
  "http://www.w3.org/Graphics/SVG/1.1/DTD/svg11.dtd">
<svg xmlns:xlink="http://www.w3.org/1999/xlink" width="702.945pt" height="342.846086pt" viewBox="0 0 702.945 342.846086" xmlns="http://www.w3.org/2000/svg" version="1.1">
 <metadata>
  <rdf:RDF xmlns:dc="http://purl.org/dc/elements/1.1/" xmlns:cc="http://creativecommons.org/ns#" xmlns:rdf="http://www.w3.org/1999/02/22-rdf-syntax-ns#">
   <cc:Work>
    <dc:type rdf:resource="http://purl.org/dc/dcmitype/StillImage"/>
    <dc:date>2026-07-11T23:31:17.189241</dc:date>
    <dc:format>image/svg+xml</dc:format>
    <dc:creator>
     <cc:Agent>
      <dc:title>Matplotlib v3.9.4, https://matplotlib.org/</dc:title>
     </cc:Agent>
    </dc:creator>
   </cc:Work>
  </rdf:RDF>
 </metadata>
 <defs>
  <style type="text/css">*{stroke-linejoin: round; stroke-linecap: butt}</style>
 </defs>
 <g id="figure_1">
  <g id="patch_1">
   <path d="M 0 342.846086 
L 702.945 342.846086 
L 702.945 0 
L 0 0 
z
" style="fill: #ffffff"/>
  </g>
  <g id="axes_1">
   <g id="patch_2">
    <path d="M 67.5875 301.498436 
L 692.145 301.498436 
L 692.145 35.259375 
L 67.5875 35.259375 
z
" style="fill: #ffffff"/>
   </g>
   <g id="matplotlib.axis_1">
    <g id="xtick_1">
     <g id="line2d_1">
      <defs>
       <path id="md47ce26e99" d="M 0 0 
L 0 3.5 
" style="stroke: #808080; stroke-width: 0.8"/>
      </defs>
      <g>
       <use xlink:href="#md47ce26e99" x="98.077533" y="301.498436" style="fill: #808080; stroke: #808080; stroke-width: 0.8"/>
      </g>
     </g>
     <g id="text_1">
      <text style="fill: #808080; font: 9px 'PingFang SC', 'Heiti SC', 'STHeiti', 'Calibri', 'Arial', 'Helvetica Neue', 'Arial Unicode MS', 'Noto Sans CJK SC', 'DejaVu Sans', sans-serif" transform="translate(83.121231 327.666886) rotate(-45)">w6.2</text>
     </g>
    </g>
    <g id="xtick_2">
     <g id="line2d_2">
      <g>
       <use xlink:href="#md47ce26e99" x="132.683165" y="301.498436" style="fill: #808080; stroke: #808080; stroke-width: 0.8"/>
      </g>
     </g>
     <g id="text_2">
      <text style="fill: #808080; font: 9px 'PingFang SC', 'Heiti SC', 'STHeiti', 'Calibri', 'Arial', 'Helvetica Neue', 'Arial Unicode MS', 'Noto Sans CJK SC', 'DejaVu Sans', sans-serif" transform="translate(117.726863 327.666886) rotate(-45)">w3.7</text>
     </g>
    </g>
    <g id="xtick_3">
     <g id="line2d_3">
      <g>
       <use xlink:href="#md47ce26e99" x="167.288797" y="301.498436" style="fill: #808080; stroke: #808080; stroke-width: 0.8"/>
      </g>
     </g>
     <g id="text_3">
      <text style="fill: #808080; font: 9px 'PingFang SC', 'Heiti SC', 'STHeiti', 'Calibri', 'Arial', 'Helvetica Neue', 'Arial Unicode MS', 'Noto Sans CJK SC', 'DejaVu Sans', sans-serif" transform="translate(152.332494 327.666886) rotate(-45)">w5.2</text>
     </g>
    </g>
    <g id="xtick_4">
     <g id="line2d_4">
      <g>
       <use xlink:href="#md47ce26e99" x="201.894429" y="301.498436" style="fill: #808080; stroke: #808080; stroke-width: 0.8"/>
      </g>
     </g>
     <g id="text_4">
      <text style="fill: #808080; font: 9px 'PingFang SC', 'Heiti SC', 'STHeiti', 'Calibri', 'Arial', 'Helvetica Neue', 'Arial Unicode MS', 'Noto Sans CJK SC', 'DejaVu Sans', sans-serif" transform="translate(186.938126 327.666886) rotate(-45)">w3.5</text>
     </g>
    </g>
    <g id="xtick_5">
     <g id="line2d_5">
      <g>
       <use xlink:href="#md47ce26e99" x="236.500061" y="301.498436" style="fill: #808080; stroke: #808080; stroke-width: 0.8"/>
      </g>
     </g>
     <g id="text_5">
      <text style="fill: #808080; font: 9px 'PingFang SC', 'Heiti SC', 'STHeiti', 'Calibri', 'Arial', 'Helvetica Neue', 'Arial Unicode MS', 'Noto Sans CJK SC', 'DejaVu Sans', sans-serif" transform="translate(221.543758 327.666886) rotate(-45)">w2.3</text>
     </g>
    </g>
    <g id="xtick_6">
     <g id="line2d_6">
      <g>
       <use xlink:href="#md47ce26e99" x="271.105693" y="301.498436" style="fill: #808080; stroke: #808080; stroke-width: 0.8"/>
      </g>
     </g>
     <g id="text_6">
      <text style="fill: #808080; font: 9px 'PingFang SC', 'Heiti SC', 'STHeiti', 'Calibri', 'Arial', 'Helvetica Neue', 'Arial Unicode MS', 'Noto Sans CJK SC', 'DejaVu Sans', sans-serif" transform="translate(256.14939 327.666886) rotate(-45)">w0.3</text>
     </g>
    </g>
    <g id="xtick_7">
     <g id="line2d_7">
      <g>
       <use xlink:href="#md47ce26e99" x="305.711325" y="301.498436" style="fill: #808080; stroke: #808080; stroke-width: 0.8"/>
      </g>
     </g>
     <g id="text_7">
      <text style="fill: #808080; font: 9px 'PingFang SC', 'Heiti SC', 'STHeiti', 'Calibri', 'Arial', 'Helvetica Neue', 'Arial Unicode MS', 'Noto Sans CJK SC', 'DejaVu Sans', sans-serif" transform="translate(290.073879 328.348028) rotate(-45)">m0.1</text>
     </g>
    </g>
    <g id="xtick_8">
     <g id="line2d_8">
      <g>
       <use xlink:href="#md47ce26e99" x="340.316956" y="301.498436" style="fill: #808080; stroke: #808080; stroke-width: 0.8"/>
      </g>
     </g>
     <g id="text_8">
      <text style="fill: #808080; font: 9px 'PingFang SC', 'Heiti SC', 'STHeiti', 'Calibri', 'Arial', 'Helvetica Neue', 'Arial Unicode MS', 'Noto Sans CJK SC', 'DejaVu Sans', sans-serif" transform="translate(325.360654 327.666886) rotate(-45)">w6.3</text>
     </g>
    </g>
    <g id="xtick_9">
     <g id="line2d_9">
      <g>
       <use xlink:href="#md47ce26e99" x="374.922588" y="301.498436" style="fill: #808080; stroke: #808080; stroke-width: 0.8"/>
      </g>
     </g>
     <g id="text_9">
      <text style="fill: #808080; font: 9px 'PingFang SC', 'Heiti SC', 'STHeiti', 'Calibri', 'Arial', 'Helvetica Neue', 'Arial Unicode MS', 'Noto Sans CJK SC', 'DejaVu Sans', sans-serif" transform="translate(359.966286 327.666886) rotate(-45)">w6.6</text>
     </g>
    </g>
    <g id="xtick_10">
     <g id="line2d_10">
      <g>
       <use xlink:href="#md47ce26e99" x="409.52822" y="301.498436" style="fill: #808080; stroke: #808080; stroke-width: 0.8"/>
      </g>
     </g>
     <g id="text_10">
      <text style="fill: #808080; font: 9px 'PingFang SC', 'Heiti SC', 'STHeiti', 'Calibri', 'Arial', 'Helvetica Neue', 'Arial Unicode MS', 'Noto Sans CJK SC', 'DejaVu Sans', sans-serif" transform="translate(394.571917 327.666886) rotate(-45)">w8.3</text>
     </g>
    </g>
    <g id="xtick_11">
     <g id="line2d_11">
      <g>
       <use xlink:href="#md47ce26e99" x="444.133852" y="301.498436" style="fill: #808080; stroke: #808080; stroke-width: 0.8"/>
      </g>
     </g>
     <g id="text_11">
      <text style="fill: #808080; font: 9px 'PingFang SC', 'Heiti SC', 'STHeiti', 'Calibri', 'Arial', 'Helvetica Neue', 'Arial Unicode MS', 'Noto Sans CJK SC', 'DejaVu Sans', sans-serif" transform="translate(429.177549 327.666886) rotate(-45)">w9.5</text>
     </g>
    </g>
    <g id="xtick_12">
     <g id="line2d_12">
      <g>
       <use xlink:href="#md47ce26e99" x="478.739484" y="301.498436" style="fill: #808080; stroke: #808080; stroke-width: 0.8"/>
      </g>
     </g>
     <g id="text_12">
      <text style="fill: #808080; font: 9px 'PingFang SC', 'Heiti SC', 'STHeiti', 'Calibri', 'Arial', 'Helvetica Neue', 'Arial Unicode MS', 'Noto Sans CJK SC', 'DejaVu Sans', sans-serif" transform="translate(460.257149 331.192918) rotate(-45)">w13.4</text>
     </g>
    </g>
    <g id="xtick_13">
     <g id="line2d_13">
      <g>
       <use xlink:href="#md47ce26e99" x="513.345116" y="301.498436" style="fill: #808080; stroke: #808080; stroke-width: 0.8"/>
      </g>
     </g>
     <g id="text_13">
      <text style="fill: #808080; font: 9px 'PingFang SC', 'Heiti SC', 'STHeiti', 'Calibri', 'Arial', 'Helvetica Neue', 'Arial Unicode MS', 'Noto Sans CJK SC', 'DejaVu Sans', sans-serif" transform="translate(498.388813 327.666886) rotate(-45)">w9.6</text>
     </g>
    </g>
    <g id="xtick_14">
     <g id="line2d_14">
      <g>
       <use xlink:href="#md47ce26e99" x="547.950748" y="301.498436" style="fill: #808080; stroke: #808080; stroke-width: 0.8"/>
      </g>
     </g>
     <g id="text_14">
      <text style="fill: #808080; font: 9px 'PingFang SC', 'Heiti SC', 'STHeiti', 'Calibri', 'Arial', 'Helvetica Neue', 'Arial Unicode MS', 'Noto Sans CJK SC', 'DejaVu Sans', sans-serif" transform="translate(529.468413 331.192918) rotate(-45)">w10.0</text>
     </g>
    </g>
    <g id="xtick_15">
     <g id="line2d_15">
      <g>
       <use xlink:href="#md47ce26e99" x="582.556379" y="301.498436" style="fill: #808080; stroke: #808080; stroke-width: 0.8"/>
      </g>
     </g>
     <g id="text_15">
      <text style="fill: #808080; font: 9px 'PingFang SC', 'Heiti SC', 'STHeiti', 'Calibri', 'Arial', 'Helvetica Neue', 'Arial Unicode MS', 'Noto Sans CJK SC', 'DejaVu Sans', sans-serif" transform="translate(567.600077 327.666886) rotate(-45)">w5.0</text>
     </g>
    </g>
    <g id="xtick_16">
     <g id="line2d_16">
      <g>
       <use xlink:href="#md47ce26e99" x="617.162011" y="301.498436" style="fill: #808080; stroke: #808080; stroke-width: 0.8"/>
      </g>
     </g>
     <g id="text_16">
      <text style="fill: #808080; font: 9px 'PingFang SC', 'Heiti SC', 'STHeiti', 'Calibri', 'Arial', 'Helvetica Neue', 'Arial Unicode MS', 'Noto Sans CJK SC', 'DejaVu Sans', sans-serif" transform="translate(602.205708 327.666886) rotate(-45)">w1.4</text>
     </g>
    </g>
    <g id="xtick_17">
     <g id="line2d_17">
      <g>
       <use xlink:href="#md47ce26e99" x="651.767643" y="301.498436" style="fill: #808080; stroke: #808080; stroke-width: 0.8"/>
      </g>
     </g>
     <g id="text_17">
      <text style="fill: #808080; font: 9px 'PingFang SC', 'Heiti SC', 'STHeiti', 'Calibri', 'Arial', 'Helvetica Neue', 'Arial Unicode MS', 'Noto Sans CJK SC', 'DejaVu Sans', sans-serif" transform="translate(633.285308 331.192918) rotate(-45)">w10.7</text>
     </g>
    </g>
   </g>
   <g id="matplotlib.axis_2">
    <g id="ytick_1">
     <g id="line2d_18">
      <path d="M 67.5875 301.498436 
L 692.145 301.498436 
" clip-path="url(#p3afd070fd6)" style="fill: none; stroke-dasharray: 1,1.65; stroke-dashoffset: 0; stroke: #808080; stroke-opacity: 0.55"/>
     </g>
     <g id="line2d_19">
      <defs>
       <path id="m148e2d6367" d="M 0 0 
L -3.5 0 
" style="stroke: #808080; stroke-width: 0.8"/>
      </defs>
      <g>
       <use xlink:href="#m148e2d6367" x="67.5875" y="301.498436" style="fill: #808080; stroke: #808080; stroke-width: 0.8"/>
      </g>
     </g>
     <g id="text_18">
      <text style="fill: #808080; font: 22px 'PingFang SC', 'Heiti SC', 'STHeiti', 'Calibri', 'Arial', 'Helvetica Neue', 'Arial Unicode MS', 'Noto Sans CJK SC', 'DejaVu Sans', sans-serif; text-anchor: end" x="60.5875" y="310.253749" transform="rotate(-0 60.5875 310.253749)">0</text>
     </g>
    </g>
    <g id="ytick_2">
     <g id="line2d_20">
      <path d="M 67.5875 216.919584 
L 692.145 216.919584 
" clip-path="url(#p3afd070fd6)" style="fill: none; stroke-dasharray: 1,1.65; stroke-dashoffset: 0; stroke: #808080; stroke-opacity: 0.55"/>
     </g>
     <g id="line2d_21">
      <g>
       <use xlink:href="#m148e2d6367" x="67.5875" y="216.919584" style="fill: #808080; stroke: #808080; stroke-width: 0.8"/>
      </g>
     </g>
     <g id="text_19">
      <text style="fill: #808080; font: 22px 'PingFang SC', 'Heiti SC', 'STHeiti', 'Calibri', 'Arial', 'Helvetica Neue', 'Arial Unicode MS', 'Noto Sans CJK SC', 'DejaVu Sans', sans-serif; text-anchor: end" x="60.5875" y="225.674896" transform="rotate(-0 60.5875 225.674896)">10</text>
     </g>
    </g>
    <g id="ytick_3">
     <g id="line2d_22">
      <path d="M 67.5875 132.340731 
L 692.145 132.340731 
" clip-path="url(#p3afd070fd6)" style="fill: none; stroke-dasharray: 1,1.65; stroke-dashoffset: 0; stroke: #808080; stroke-opacity: 0.55"/>
     </g>
     <g id="line2d_23">
      <g>
       <use xlink:href="#m148e2d6367" x="67.5875" y="132.340731" style="fill: #808080; stroke: #808080; stroke-width: 0.8"/>
      </g>
     </g>
     <g id="text_20">
      <text style="fill: #808080; font: 22px 'PingFang SC', 'Heiti SC', 'STHeiti', 'Calibri', 'Arial', 'Helvetica Neue', 'Arial Unicode MS', 'Noto Sans CJK SC', 'DejaVu Sans', sans-serif; text-anchor: end" x="60.5875" y="141.096044" transform="rotate(-0 60.5875 141.096044)">20</text>
     </g>
    </g>
    <g id="ytick_4">
     <g id="line2d_24">
      <path d="M 67.5875 47.761879 
L 692.145 47.761879 
" clip-path="url(#p3afd070fd6)" style="fill: none; stroke-dasharray: 1,1.65; stroke-dashoffset: 0; stroke: #808080; stroke-opacity: 0.55"/>
     </g>
     <g id="line2d_25">
      <g>
       <use xlink:href="#m148e2d6367" x="67.5875" y="47.761879" style="fill: #808080; stroke: #808080; stroke-width: 0.8"/>
      </g>
     </g>
     <g id="text_21">
      <text style="fill: #808080; font: 22px 'PingFang SC', 'Heiti SC', 'STHeiti', 'Calibri', 'Arial', 'Helvetica Neue', 'Arial Unicode MS', 'Noto Sans CJK SC', 'DejaVu Sans', sans-serif; text-anchor: end" x="60.5875" y="56.517191" transform="rotate(-0 60.5875 56.517191)">30</text>
     </g>
    </g>
    <g id="text_22">
     <text style="font: 22px 'PingFang SC', 'Heiti SC', 'STHeiti', 'Calibri', 'Arial', 'Helvetica Neue', 'Arial Unicode MS', 'Noto Sans CJK SC', 'DejaVu Sans', sans-serif; text-anchor: middle" x="29.259375" y="168.378906" transform="rotate(-90 29.259375 168.378906)">Burst/kernel p50 (us)</text>
    </g>
   </g>
   <g id="patch_3">
    <path d="M 95.976477 301.498436 
L 100.17859 301.498436 
L 100.17859 222.129342 
L 95.976477 222.129342 
z
" clip-path="url(#p3afd070fd6)" style="fill: url(#hc1de9b3263); stroke: #2ca02c; stroke-width: 2; stroke-linejoin: miter"/>
   </g>
   <g id="patch_4">
    <path d="M 100.920139 301.498436 
L 105.122251 301.498436 
L 105.122251 220.302735 
L 100.920139 220.302735 
z
" clip-path="url(#p3afd070fd6)" style="fill: url(#hc1de9b3263); stroke: #2ca02c; stroke-width: 2; stroke-linejoin: miter"/>
   </g>
   <g id="patch_5">
    <path d="M 105.863801 301.498436 
L 110.065913 301.498436 
L 110.065913 219.381862 
L 105.863801 219.381862 
z
" clip-path="url(#p3afd070fd6)" style="fill: url(#hc1de9b3263); stroke: #2ca02c; stroke-width: 2; stroke-linejoin: miter"/>
   </g>
   <g id="patch_6">
    <path d="M 110.807462 301.498436 
L 115.009575 301.498436 
L 115.009575 219.269738 
L 110.807462 219.269738 
z
" clip-path="url(#p3afd070fd6)" style="fill: url(#hc1de9b3263); stroke: #2ca02c; stroke-width: 2; stroke-linejoin: miter"/>
   </g>
   <g id="patch_7">
    <path d="M 115.751124 301.498436 
L 119.953236 301.498436 
L 119.953236 219.112566 
L 115.751124 219.112566 
z
" clip-path="url(#p3afd070fd6)" style="fill: url(#hc1de9b3263); stroke: #2ca02c; stroke-width: 2; stroke-linejoin: miter"/>
   </g>
   <g id="patch_8">
    <path d="M 120.694786 301.498436 
L 124.896898 301.498436 
L 124.896898 219.084381 
L 120.694786 219.084381 
z
" clip-path="url(#p3afd070fd6)" style="fill: url(#hc1de9b3263); stroke: #2ca02c; stroke-width: 2; stroke-linejoin: miter"/>
   </g>
   <g id="patch_9">
    <path d="M 125.638447 301.498436 
L 129.84056 301.498436 
L 129.84056 215.656278 
L 125.638447 215.656278 
z
" clip-path="url(#p3afd070fd6)" style="fill: url(#hc1de9b3263); stroke: #2ca02c; stroke-width: 2; stroke-linejoin: miter"/>
   </g>
   <g id="patch_10">
    <path d="M 130.582109 301.498436 
L 134.784222 301.498436 
L 134.784222 212.113712 
L 130.582109 212.113712 
z
" clip-path="url(#p3afd070fd6)" style="fill: url(#hc1de9b3263); stroke: #2ca02c; stroke-width: 2; stroke-linejoin: miter"/>
   </g>
   <g id="patch_11">
    <path d="M 135.525771 301.498436 
L 139.727883 301.498436 
L 139.727883 210.027532 
L 135.525771 210.027532 
z
" clip-path="url(#p3afd070fd6)" style="fill: url(#hc1de9b3263); stroke: #2ca02c; stroke-width: 2; stroke-linejoin: miter"/>
   </g>
   <g id="patch_12">
    <path d="M 140.469433 301.498436 
L 144.671545 301.498436 
L 144.671545 202.128974 
L 140.469433 202.128974 
z
" clip-path="url(#p3afd070fd6)" style="fill: url(#hc1de9b3263); stroke: #2ca02c; stroke-width: 2; stroke-linejoin: miter"/>
   </g>
   <g id="patch_13">
    <path d="M 145.413094 301.498436 
L 149.615207 301.498436 
L 149.615207 200.154673 
L 145.413094 200.154673 
z
" clip-path="url(#p3afd070fd6)" style="fill: url(#hc1de9b3263); stroke: #2ca02c; stroke-width: 2; stroke-linejoin: miter"/>
   </g>
   <g id="patch_14">
    <path d="M 150.356756 301.498436 
L 154.558868 301.498436 
L 154.558868 199.491157 
L 150.356756 199.491157 
z
" clip-path="url(#p3afd070fd6)" style="fill: url(#hc1de9b3263); stroke: #2ca02c; stroke-width: 2; stroke-linejoin: miter"/>
   </g>
   <g id="patch_15">
    <path d="M 155.300418 301.498436 
L 159.50253 301.498436 
L 159.50253 198.91515 
L 155.300418 198.91515 
z
" clip-path="url(#p3afd070fd6)" style="fill: url(#hc1de9b3263); stroke: #2ca02c; stroke-width: 2; stroke-linejoin: miter"/>
   </g>
   <g id="patch_16">
    <path d="M 160.244079 301.498436 
L 164.446192 301.498436 
L 164.446192 196.55869 
L 160.244079 196.55869 
z
" clip-path="url(#p3afd070fd6)" style="fill: url(#hc1de9b3263); stroke: #2ca02c; stroke-width: 2; stroke-linejoin: miter"/>
   </g>
   <g id="patch_17">
    <path d="M 165.187741 301.498436 
L 169.389853 301.498436 
L 169.389853 194.701068 
L 165.187741 194.701068 
z
" clip-path="url(#p3afd070fd6)" style="fill: url(#hc1de9b3263); stroke: #2ca02c; stroke-width: 2; stroke-linejoin: miter"/>
   </g>
   <g id="patch_18">
    <path d="M 170.131403 301.498436 
L 174.333515 301.498436 
L 174.333515 194.381187 
L 170.131403 194.381187 
z
" clip-path="url(#p3afd070fd6)" style="fill: url(#hc1de9b3263); stroke: #2ca02c; stroke-width: 2; stroke-linejoin: miter"/>
   </g>
   <g id="patch_19">
    <path d="M 175.075064 301.498436 
L 179.277177 301.498436 
L 179.277177 193.590777 
L 175.075064 193.590777 
z
" clip-path="url(#p3afd070fd6)" style="fill: url(#hc1de9b3263); stroke: #2ca02c; stroke-width: 2; stroke-linejoin: miter"/>
   </g>
   <g id="patch_20">
    <path d="M 180.018726 301.498436 
L 184.220838 301.498436 
L 184.220838 192.962954 
L 180.018726 192.962954 
z
" clip-path="url(#p3afd070fd6)" style="fill: url(#hc1de9b3263); stroke: #2ca02c; stroke-width: 2; stroke-linejoin: miter"/>
   </g>
   <g id="patch_21">
    <path d="M 184.962388 301.498436 
L 189.1645 301.498436 
L 189.1645 192.611442 
L 184.962388 192.611442 
z
" clip-path="url(#p3afd070fd6)" style="fill: url(#hc1de9b3263); stroke: #2ca02c; stroke-width: 2; stroke-linejoin: miter"/>
   </g>
   <g id="patch_22">
    <path d="M 189.906049 301.498436 
L 194.108162 301.498436 
L 194.108162 189.749376 
L 189.906049 189.749376 
z
" clip-path="url(#p3afd070fd6)" style="fill: url(#hc1de9b3263); stroke: #2ca02c; stroke-width: 2; stroke-linejoin: miter"/>
   </g>
   <g id="patch_23">
    <path d="M 194.849711 301.498436 
L 199.051824 301.498436 
L 199.051824 188.907397 
L 194.849711 188.907397 
z
" clip-path="url(#p3afd070fd6)" style="fill: url(#hc1de9b3263); stroke: #2ca02c; stroke-width: 2; stroke-linejoin: miter"/>
   </g>
   <g id="patch_24">
    <path d="M 199.793373 301.498436 
L 203.995485 301.498436 
L 203.995485 188.103818 
L 199.793373 188.103818 
z
" clip-path="url(#p3afd070fd6)" style="fill: url(#hc1de9b3263); stroke: #2ca02c; stroke-width: 2; stroke-linejoin: miter"/>
   </g>
   <g id="patch_25">
    <path d="M 204.737035 301.498436 
L 208.939147 301.498436 
L 208.939147 186.199671 
L 204.737035 186.199671 
z
" clip-path="url(#p3afd070fd6)" style="fill: url(#hc1de9b3263); stroke: #2ca02c; stroke-width: 2; stroke-linejoin: miter"/>
   </g>
   <g id="patch_26">
    <path d="M 209.680696 301.498436 
L 213.882809 301.498436 
L 213.882809 182.938093 
L 209.680696 182.938093 
z
" clip-path="url(#p3afd070fd6)" style="fill: url(#hc1de9b3263); stroke: #2ca02c; stroke-width: 2; stroke-linejoin: miter"/>
   </g>
   <g id="patch_27">
    <path d="M 214.624358 301.498436 
L 218.82647 301.498436 
L 218.82647 176.823926 
L 214.624358 176.823926 
z
" clip-path="url(#p3afd070fd6)" style="fill: url(#hc1de9b3263); stroke: #2ca02c; stroke-width: 2; stroke-linejoin: miter"/>
   </g>
   <g id="patch_28">
    <path d="M 219.56802 301.498436 
L 223.770132 301.498436 
L 223.770132 176.357828 
L 219.56802 176.357828 
z
" clip-path="url(#p3afd070fd6)" style="fill: url(#hc1de9b3263); stroke: #2ca02c; stroke-width: 2; stroke-linejoin: miter"/>
   </g>
   <g id="patch_29">
    <path d="M 224.511681 301.498436 
L 228.713794 301.498436 
L 228.713794 170.285261 
L 224.511681 170.285261 
z
" clip-path="url(#p3afd070fd6)" style="fill: url(#hc1de9b3263); stroke: #2ca02c; stroke-width: 2; stroke-linejoin: miter"/>
   </g>
   <g id="patch_30">
    <path d="M 229.455343 301.498436 
L 233.657455 301.498436 
L 233.657455 163.967522 
L 229.455343 163.967522 
z
" clip-path="url(#p3afd070fd6)" style="fill: url(#hc1de9b3263); stroke: #2ca02c; stroke-width: 2; stroke-linejoin: miter"/>
   </g>
   <g id="patch_31">
    <path d="M 234.399005 301.498436 
L 238.601117 301.498436 
L 238.601117 163.031511 
L 234.399005 163.031511 
z
" clip-path="url(#p3afd070fd6)" style="fill: url(#hc1de9b3263); stroke: #2ca02c; stroke-width: 2; stroke-linejoin: miter"/>
   </g>
   <g id="patch_32">
    <path d="M 239.342666 301.498436 
L 243.544779 301.498436 
L 243.544779 161.993714 
L 239.342666 161.993714 
z
" clip-path="url(#p3afd070fd6)" style="fill: url(#hc1de9b3263); stroke: #2ca02c; stroke-width: 2; stroke-linejoin: miter"/>
   </g>
   <g id="patch_33">
    <path d="M 244.286328 301.498436 
L 248.488441 301.498436 
L 248.488441 157.772 
L 244.286328 157.772 
z
" clip-path="url(#p3afd070fd6)" style="fill: url(#hc1de9b3263); stroke: #2ca02c; stroke-width: 2; stroke-linejoin: miter"/>
   </g>
   <g id="patch_34">
    <path d="M 249.22999 301.498436 
L 253.432102 301.498436 
L 253.432102 157.141839 
L 249.22999 157.141839 
z
" clip-path="url(#p3afd070fd6)" style="fill: url(#hc1de9b3263); stroke: #2ca02c; stroke-width: 2; stroke-linejoin: miter"/>
   </g>
   <g id="patch_35">
    <path d="M 254.173651 301.498436 
L 258.375764 301.498436 
L 258.375764 157.056299 
L 254.173651 157.056299 
z
" clip-path="url(#p3afd070fd6)" style="fill: url(#hc1de9b3263); stroke: #2ca02c; stroke-width: 2; stroke-linejoin: miter"/>
   </g>
   <g id="patch_36">
    <path d="M 259.117313 301.498436 
L 263.319426 301.498436 
L 263.319426 156.830081 
L 259.117313 156.830081 
z
" clip-path="url(#p3afd070fd6)" style="fill: url(#hc1de9b3263); stroke: #2ca02c; stroke-width: 2; stroke-linejoin: miter"/>
   </g>
   <g id="patch_37">
    <path d="M 264.060975 301.498436 
L 268.263087 301.498436 
L 268.263087 155.564958 
L 264.060975 155.564958 
z
" clip-path="url(#p3afd070fd6)" style="fill: url(#hc1de9b3263); stroke: #2ca02c; stroke-width: 2; stroke-linejoin: miter"/>
   </g>
   <g id="patch_38">
    <path d="M 269.004637 301.498436 
L 273.206749 301.498436 
L 273.206749 155.510065 
L 269.004637 155.510065 
z
" clip-path="url(#p3afd070fd6)" style="fill: url(#hc1de9b3263); stroke: #2ca02c; stroke-width: 2; stroke-linejoin: miter"/>
   </g>
   <g id="patch_39">
    <path d="M 273.948298 301.498436 
L 278.150411 301.498436 
L 278.150411 154.95892 
L 273.948298 154.95892 
z
" clip-path="url(#p3afd070fd6)" style="fill: url(#hc1de9b3263); stroke: #2ca02c; stroke-width: 2; stroke-linejoin: miter"/>
   </g>
   <g id="patch_40">
    <path d="M 278.89196 301.498436 
L 283.094072 301.498436 
L 283.094072 154.816764 
L 278.89196 154.816764 
z
" clip-path="url(#p3afd070fd6)" style="fill: url(#hc1de9b3263); stroke: #2ca02c; stroke-width: 2; stroke-linejoin: miter"/>
   </g>
   <g id="patch_41">
    <path d="M 283.835622 301.498436 
L 288.037734 301.498436 
L 288.037734 154.654055 
L 283.835622 154.654055 
z
" clip-path="url(#p3afd070fd6)" style="fill: url(#hc1de9b3263); stroke: #2ca02c; stroke-width: 2; stroke-linejoin: miter"/>
   </g>
   <g id="patch_42">
    <path d="M 288.779283 301.498436 
L 292.981396 301.498436 
L 292.981396 152.239994 
L 288.779283 152.239994 
z
" clip-path="url(#p3afd070fd6)" style="fill: url(#hc1de9b3263); stroke: #2ca02c; stroke-width: 2; stroke-linejoin: miter"/>
   </g>
   <g id="patch_43">
    <path d="M 293.722945 301.498436 
L 297.925057 301.498436 
L 297.925057 150.215108 
L 293.722945 150.215108 
z
" clip-path="url(#p3afd070fd6)" style="fill: url(#hc1de9b3263); stroke: #2ca02c; stroke-width: 2; stroke-linejoin: miter"/>
   </g>
   <g id="patch_44">
    <path d="M 298.666607 301.498436 
L 302.868719 301.498436 
L 302.868719 149.663717 
L 298.666607 149.663717 
z
" clip-path="url(#p3afd070fd6)" style="fill: url(#hc1de9b3263); stroke: #2ca02c; stroke-width: 2; stroke-linejoin: miter"/>
   </g>
   <g id="patch_45">
    <path d="M 303.610268 301.498436 
L 307.812381 301.498436 
L 307.812381 148.921061 
L 303.610268 148.921061 
z
" clip-path="url(#p3afd070fd6)" style="fill: url(#hc1de9b3263); stroke: #2ca02c; stroke-width: 2; stroke-linejoin: miter"/>
   </g>
   <g id="patch_46">
    <path d="M 308.55393 301.498436 
L 312.756043 301.498436 
L 312.756043 146.263429 
L 308.55393 146.263429 
z
" clip-path="url(#p3afd070fd6)" style="fill: url(#hc1de9b3263); stroke: #2ca02c; stroke-width: 2; stroke-linejoin: miter"/>
   </g>
   <g id="patch_47">
    <path d="M 313.497592 301.498436 
L 317.699704 301.498436 
L 317.699704 145.265263 
L 313.497592 145.265263 
z
" clip-path="url(#p3afd070fd6)" style="fill: url(#hc1de9b3263); stroke: #2ca02c; stroke-width: 2; stroke-linejoin: miter"/>
   </g>
   <g id="patch_48">
    <path d="M 318.441253 301.498436 
L 322.643366 301.498436 
L 322.643366 140.931056 
L 318.441253 140.931056 
z
" clip-path="url(#p3afd070fd6)" style="fill: url(#hc1de9b3263); stroke: #2ca02c; stroke-width: 2; stroke-linejoin: miter"/>
   </g>
   <g id="patch_49">
    <path d="M 323.384915 301.498436 
L 327.587028 301.498436 
L 327.587028 137.583692 
L 323.384915 137.583692 
z
" clip-path="url(#p3afd070fd6)" style="fill: url(#hc1de9b3263); stroke: #2ca02c; stroke-width: 2; stroke-linejoin: miter"/>
   </g>
   <g id="patch_50">
    <path d="M 328.328577 301.498436 
L 332.530689 301.498436 
L 332.530689 135.864902 
L 328.328577 135.864902 
z
" clip-path="url(#p3afd070fd6)" style="fill: url(#hc1de9b3263); stroke: #2ca02c; stroke-width: 2; stroke-linejoin: miter"/>
   </g>
   <g id="patch_51">
    <path d="M 333.272239 301.498436 
L 337.474351 301.498436 
L 337.474351 135.613945 
L 333.272239 135.613945 
z
" clip-path="url(#p3afd070fd6)" style="fill: url(#hc1de9b3263); stroke: #2ca02c; stroke-width: 2; stroke-linejoin: miter"/>
   </g>
   <g id="patch_52">
    <path d="M 338.2159 301.498436 
L 342.418013 301.498436 
L 342.418013 134.668948 
L 338.2159 134.668948 
z
" clip-path="url(#p3afd070fd6)" style="fill: url(#hc1de9b3263); stroke: #2ca02c; stroke-width: 2; stroke-linejoin: miter"/>
   </g>
   <g id="patch_53">
    <path d="M 343.159562 301.498436 
L 347.361674 301.498436 
L 347.361674 133.894293 
L 343.159562 133.894293 
z
" clip-path="url(#p3afd070fd6)" style="fill: url(#hc1de9b3263); stroke: #2ca02c; stroke-width: 2; stroke-linejoin: miter"/>
   </g>
   <g id="patch_54">
    <path d="M 348.103224 301.498436 
L 352.305336 301.498436 
L 352.305336 133.679029 
L 348.103224 133.679029 
z
" clip-path="url(#p3afd070fd6)" style="fill: url(#hc1de9b3263); stroke: #2ca02c; stroke-width: 2; stroke-linejoin: miter"/>
   </g>
   <g id="patch_55">
    <path d="M 353.046885 301.498436 
L 357.248998 301.498436 
L 357.248998 132.550399 
L 353.046885 132.550399 
z
" clip-path="url(#p3afd070fd6)" style="fill: url(#hc1de9b3263); stroke: #2ca02c; stroke-width: 2; stroke-linejoin: miter"/>
   </g>
   <g id="patch_56">
    <path d="M 357.990547 301.498436 
L 362.192659 301.498436 
L 362.192659 132.447752 
L 357.990547 132.447752 
z
" clip-path="url(#p3afd070fd6)" style="fill: url(#hc1de9b3263); stroke: #2ca02c; stroke-width: 2; stroke-linejoin: miter"/>
   </g>
   <g id="patch_57">
    <path d="M 362.934209 301.498436 
L 367.136321 301.498436 
L 367.136321 129.580271 
L 362.934209 129.580271 
z
" clip-path="url(#p3afd070fd6)" style="fill: url(#hc1de9b3263); stroke: #2ca02c; stroke-width: 2; stroke-linejoin: miter"/>
   </g>
   <g id="patch_58">
    <path d="M 367.87787 301.498436 
L 372.079983 301.498436 
L 372.079983 128.921186 
L 367.87787 128.921186 
z
" clip-path="url(#p3afd070fd6)" style="fill: url(#hc1de9b3263); stroke: #2ca02c; stroke-width: 2; stroke-linejoin: miter"/>
   </g>
   <g id="patch_59">
    <path d="M 372.821532 301.498436 
L 377.023645 301.498436 
L 377.023645 127.741848 
L 372.821532 127.741848 
z
" clip-path="url(#p3afd070fd6)" style="fill: url(#hc1de9b3263); stroke: #2ca02c; stroke-width: 2; stroke-linejoin: miter"/>
   </g>
   <g id="patch_60">
    <path d="M 377.765194 301.498436 
L 381.967306 301.498436 
L 381.967306 127.339259 
L 377.765194 127.339259 
z
" clip-path="url(#p3afd070fd6)" style="fill: url(#haafeb170f8); stroke: #ff7f0e; stroke-width: 2; stroke-linejoin: miter"/>
   </g>
   <g id="patch_61">
    <path d="M 382.708855 301.498436 
L 386.910968 301.498436 
L 386.910968 127.125595 
L 382.708855 127.125595 
z
" clip-path="url(#p3afd070fd6)" style="fill: url(#haafeb170f8); stroke: #ff7f0e; stroke-width: 2; stroke-linejoin: miter"/>
   </g>
   <g id="patch_62">
    <path d="M 387.652517 301.498436 
L 391.85463 301.498436 
L 391.85463 120.600838 
L 387.652517 120.600838 
z
" clip-path="url(#p3afd070fd6)" style="fill: url(#haafeb170f8); stroke: #ff7f0e; stroke-width: 2; stroke-linejoin: miter"/>
   </g>
   <g id="patch_63">
    <path d="M 392.596179 301.498436 
L 396.798291 301.498436 
L 396.798291 117.970406 
L 392.596179 117.970406 
z
" clip-path="url(#p3afd070fd6)" style="fill: url(#haafeb170f8); stroke: #ff7f0e; stroke-width: 2; stroke-linejoin: miter"/>
   </g>
   <g id="patch_64">
    <path d="M 397.539841 301.498436 
L 401.741953 301.498436 
L 401.741953 117.818773 
L 397.539841 117.818773 
z
" clip-path="url(#p3afd070fd6)" style="fill: url(#haafeb170f8); stroke: #ff7f0e; stroke-width: 2; stroke-linejoin: miter"/>
   </g>
   <g id="patch_65">
    <path d="M 402.483502 301.498436 
L 406.685615 301.498436 
L 406.685615 117.392306 
L 402.483502 117.392306 
z
" clip-path="url(#p3afd070fd6)" style="fill: url(#haafeb170f8); stroke: #ff7f0e; stroke-width: 2; stroke-linejoin: miter"/>
   </g>
   <g id="patch_66">
    <path d="M 407.427164 301.498436 
L 411.629276 301.498436 
L 411.629276 117.166334 
L 407.427164 117.166334 
z
" clip-path="url(#p3afd070fd6)" style="fill: url(#haafeb170f8); stroke: #ff7f0e; stroke-width: 2; stroke-linejoin: miter"/>
   </g>
   <g id="patch_67">
    <path d="M 412.370826 301.498436 
L 416.572938 301.498436 
L 416.572938 115.166187 
L 412.370826 115.166187 
z
" clip-path="url(#p3afd070fd6)" style="fill: url(#haafeb170f8); stroke: #ff7f0e; stroke-width: 2; stroke-linejoin: miter"/>
   </g>
   <g id="patch_68">
    <path d="M 417.314487 301.498436 
L 421.5166 301.498436 
L 421.5166 113.38795 
L 417.314487 113.38795 
z
" clip-path="url(#p3afd070fd6)" style="fill: url(#haafeb170f8); stroke: #ff7f0e; stroke-width: 2; stroke-linejoin: miter"/>
   </g>
   <g id="patch_69">
    <path d="M 422.258149 301.498436 
L 426.460261 301.498436 
L 426.460261 104.08039 
L 422.258149 104.08039 
z
" clip-path="url(#p3afd070fd6)" style="fill: url(#haafeb170f8); stroke: #ff7f0e; stroke-width: 2; stroke-linejoin: miter"/>
   </g>
   <g id="patch_70">
    <path d="M 427.201811 301.498436 
L 431.403923 301.498436 
L 431.403923 102.331076 
L 427.201811 102.331076 
z
" clip-path="url(#p3afd070fd6)" style="fill: url(#haafeb170f8); stroke: #ff7f0e; stroke-width: 2; stroke-linejoin: miter"/>
   </g>
   <g id="patch_71">
    <path d="M 432.145472 301.498436 
L 436.347585 301.498436 
L 436.347585 101.801469 
L 432.145472 101.801469 
z
" clip-path="url(#p3afd070fd6)" style="fill: url(#haafeb170f8); stroke: #ff7f0e; stroke-width: 2; stroke-linejoin: miter"/>
   </g>
   <g id="patch_72">
    <path d="M 437.089134 301.498436 
L 441.291247 301.498436 
L 441.291247 101.68356 
L 437.089134 101.68356 
z
" clip-path="url(#p3afd070fd6)" style="fill: url(#haafeb170f8); stroke: #ff7f0e; stroke-width: 2; stroke-linejoin: miter"/>
   </g>
   <g id="patch_73">
    <path d="M 442.032796 301.498436 
L 446.234908 301.498436 
L 446.234908 101.217216 
L 442.032796 101.217216 
z
" clip-path="url(#p3afd070fd6)" style="fill: url(#haafeb170f8); stroke: #ff7f0e; stroke-width: 2; stroke-linejoin: miter"/>
   </g>
   <g id="patch_74">
    <path d="M 446.976457 301.498436 
L 451.17857 301.498436 
L 451.17857 100.242927 
L 446.976457 100.242927 
z
" clip-path="url(#p3afd070fd6)" style="fill: url(#haafeb170f8); stroke: #ff7f0e; stroke-width: 2; stroke-linejoin: miter"/>
   </g>
   <g id="patch_75">
    <path d="M 451.920119 301.498436 
L 456.122232 301.498436 
L 456.122232 100.116895 
L 451.920119 100.116895 
z
" clip-path="url(#p3afd070fd6)" style="fill: url(#haafeb170f8); stroke: #ff7f0e; stroke-width: 2; stroke-linejoin: miter"/>
   </g>
   <g id="patch_76">
    <path d="M 456.863781 301.498436 
L 461.065893 301.498436 
L 461.065893 99.680213 
L 456.863781 99.680213 
z
" clip-path="url(#p3afd070fd6)" style="fill: url(#haafeb170f8); stroke: #ff7f0e; stroke-width: 2; stroke-linejoin: miter"/>
   </g>
   <g id="patch_77">
    <path d="M 461.807443 301.498436 
L 466.009555 301.498436 
L 466.009555 99.424825 
L 461.807443 99.424825 
z
" clip-path="url(#p3afd070fd6)" style="fill: url(#haafeb170f8); stroke: #ff7f0e; stroke-width: 2; stroke-linejoin: miter"/>
   </g>
   <g id="patch_78">
    <path d="M 466.751104 301.498436 
L 470.953217 301.498436 
L 470.953217 99.375101 
L 466.751104 99.375101 
z
" clip-path="url(#p3afd070fd6)" style="fill: url(#haafeb170f8); stroke: #ff7f0e; stroke-width: 2; stroke-linejoin: miter"/>
   </g>
   <g id="patch_79">
    <path d="M 471.694766 301.498436 
L 475.896878 301.498436 
L 475.896878 98.760201 
L 471.694766 98.760201 
z
" clip-path="url(#p3afd070fd6)" style="fill: url(#haafeb170f8); stroke: #ff7f0e; stroke-width: 2; stroke-linejoin: miter"/>
   </g>
   <g id="patch_80">
    <path d="M 476.638428 301.498436 
L 480.84054 301.498436 
L 480.84054 98.189364 
L 476.638428 98.189364 
z
" clip-path="url(#p3afd070fd6)" style="fill: url(#haafeb170f8); stroke: #ff7f0e; stroke-width: 2; stroke-linejoin: miter"/>
   </g>
   <g id="patch_81">
    <path d="M 481.582089 301.498436 
L 485.784202 301.498436 
L 485.784202 97.976069 
L 481.582089 97.976069 
z
" clip-path="url(#p3afd070fd6)" style="fill: url(#haafeb170f8); stroke: #ff7f0e; stroke-width: 2; stroke-linejoin: miter"/>
   </g>
   <g id="patch_82">
    <path d="M 486.525751 301.498436 
L 490.727863 301.498436 
L 490.727863 97.623695 
L 486.525751 97.623695 
z
" clip-path="url(#p3afd070fd6)" style="fill: url(#haafeb170f8); stroke: #ff7f0e; stroke-width: 2; stroke-linejoin: miter"/>
   </g>
   <g id="patch_83">
    <path d="M 491.469413 301.498436 
L 495.671525 301.498436 
L 495.671525 97.547879 
L 491.469413 97.547879 
z
" clip-path="url(#p3afd070fd6)" style="fill: url(#haafeb170f8); stroke: #ff7f0e; stroke-width: 2; stroke-linejoin: miter"/>
   </g>
   <g id="patch_84">
    <path d="M 496.413074 301.498436 
L 500.615187 301.498436 
L 500.615187 97.179874 
L 496.413074 97.179874 
z
" clip-path="url(#p3afd070fd6)" style="fill: url(#haafeb170f8); stroke: #ff7f0e; stroke-width: 2; stroke-linejoin: miter"/>
   </g>
   <g id="patch_85">
    <path d="M 501.356736 301.498436 
L 505.558849 301.498436 
L 505.558849 97.174459 
L 501.356736 97.174459 
z
" clip-path="url(#p3afd070fd6)" style="fill: url(#haafeb170f8); stroke: #ff7f0e; stroke-width: 2; stroke-linejoin: miter"/>
   </g>
   <g id="patch_86">
    <path d="M 506.300398 301.498436 
L 510.50251 301.498436 
L 510.50251 97.141474 
L 506.300398 97.141474 
z
" clip-path="url(#p3afd070fd6)" style="fill: url(#haafeb170f8); stroke: #ff7f0e; stroke-width: 2; stroke-linejoin: miter"/>
   </g>
   <g id="patch_87">
    <path d="M 511.244059 301.498436 
L 515.446172 301.498436 
L 515.446172 96.133708 
L 511.244059 96.133708 
z
" clip-path="url(#p3afd070fd6)" style="fill: url(#haafeb170f8); stroke: #ff7f0e; stroke-width: 2; stroke-linejoin: miter"/>
   </g>
   <g id="patch_88">
    <path d="M 516.187721 301.498436 
L 520.389834 301.498436 
L 520.389834 96.112292 
L 516.187721 96.112292 
z
" clip-path="url(#p3afd070fd6)" style="fill: url(#haafeb170f8); stroke: #ff7f0e; stroke-width: 2; stroke-linejoin: miter"/>
   </g>
   <g id="patch_89">
    <path d="M 521.131383 301.498436 
L 525.333495 301.498436 
L 525.333495 96.073768 
L 521.131383 96.073768 
z
" clip-path="url(#p3afd070fd6)" style="fill: url(#haafeb170f8); stroke: #ff7f0e; stroke-width: 2; stroke-linejoin: miter"/>
   </g>
   <g id="patch_90">
    <path d="M 526.075045 301.498436 
L 530.277157 301.498436 
L 530.277157 96.008537 
L 526.075045 96.008537 
z
" clip-path="url(#p3afd070fd6)" style="fill: url(#haafeb170f8); stroke: #ff7f0e; stroke-width: 2; stroke-linejoin: miter"/>
   </g>
   <g id="patch_91">
    <path d="M 531.018706 301.498436 
L 535.220819 301.498436 
L 535.220819 95.930136 
L 531.018706 95.930136 
z
" clip-path="url(#p3afd070fd6)" style="fill: url(#haafeb170f8); stroke: #ff7f0e; stroke-width: 2; stroke-linejoin: miter"/>
   </g>
   <g id="patch_92">
    <path d="M 535.962368 301.498436 
L 540.16448 301.498436 
L 540.16448 95.455669 
L 535.962368 95.455669 
z
" clip-path="url(#p3afd070fd6)" style="fill: url(#haafeb170f8); stroke: #ff7f0e; stroke-width: 2; stroke-linejoin: miter"/>
   </g>
   <g id="patch_93">
    <path d="M 540.90603 301.498436 
L 545.108142 301.498436 
L 545.108142 95.449268 
L 540.90603 95.449268 
z
" clip-path="url(#p3afd070fd6)" style="fill: url(#haafeb170f8); stroke: #ff7f0e; stroke-width: 2; stroke-linejoin: miter"/>
   </g>
   <g id="patch_94">
    <path d="M 545.849691 301.498436 
L 550.051804 301.498436 
L 550.051804 95.258497 
L 545.849691 95.258497 
z
" clip-path="url(#p3afd070fd6)" style="fill: url(#haafeb170f8); stroke: #ff7f0e; stroke-width: 2; stroke-linejoin: miter"/>
   </g>
   <g id="patch_95">
    <path d="M 550.793353 301.498436 
L 554.995465 301.498436 
L 554.995465 94.374055 
L 550.793353 94.374055 
z
" clip-path="url(#p3afd070fd6)" style="fill: url(#haafeb170f8); stroke: #ff7f0e; stroke-width: 2; stroke-linejoin: miter"/>
   </g>
   <g id="patch_96">
    <path d="M 555.737015 301.498436 
L 559.939127 301.498436 
L 559.939127 93.267826 
L 555.737015 93.267826 
z
" clip-path="url(#p3afd070fd6)" style="fill: url(#haafeb170f8); stroke: #ff7f0e; stroke-width: 2; stroke-linejoin: miter"/>
   </g>
   <g id="patch_97">
    <path d="M 560.680676 301.498436 
L 564.882789 301.498436 
L 564.882789 93.204687 
L 560.680676 93.204687 
z
" clip-path="url(#p3afd070fd6)" style="fill: url(#haafeb170f8); stroke: #ff7f0e; stroke-width: 2; stroke-linejoin: miter"/>
   </g>
   <g id="patch_98">
    <path d="M 565.624338 301.498436 
L 569.826451 301.498436 
L 569.826451 91.483066 
L 565.624338 91.483066 
z
" clip-path="url(#p3afd070fd6)" style="fill: url(#haafeb170f8); stroke: #ff7f0e; stroke-width: 2; stroke-linejoin: miter"/>
   </g>
   <g id="patch_99">
    <path d="M 570.568 301.498436 
L 574.770112 301.498436 
L 574.770112 89.668767 
L 570.568 89.668767 
z
" clip-path="url(#p3afd070fd6)" style="fill: url(#haafeb170f8); stroke: #ff7f0e; stroke-width: 2; stroke-linejoin: miter"/>
   </g>
   <g id="patch_100">
    <path d="M 575.511662 301.498436 
L 579.713774 301.498436 
L 579.713774 88.359951 
L 575.511662 88.359951 
z
" clip-path="url(#p3afd070fd6)" style="fill: url(#haafeb170f8); stroke: #ff7f0e; stroke-width: 2; stroke-linejoin: miter"/>
   </g>
   <g id="patch_101">
    <path d="M 580.455323 301.498436 
L 584.657436 301.498436 
L 584.657436 86.349342 
L 580.455323 86.349342 
z
" clip-path="url(#p3afd070fd6)" style="fill: url(#haafeb170f8); stroke: #ff7f0e; stroke-width: 2; stroke-linejoin: miter"/>
   </g>
   <g id="patch_102">
    <path d="M 585.398985 301.498436 
L 589.601097 301.498436 
L 589.601097 84.805323 
L 585.398985 84.805323 
z
" clip-path="url(#p3afd070fd6)" style="fill: url(#haafeb170f8); stroke: #ff7f0e; stroke-width: 2; stroke-linejoin: miter"/>
   </g>
   <g id="patch_103">
    <path d="M 590.342647 301.498436 
L 594.544759 301.498436 
L 594.544759 81.522575 
L 590.342647 81.522575 
z
" clip-path="url(#p3afd070fd6)" style="fill: url(#haafeb170f8); stroke: #ff7f0e; stroke-width: 2; stroke-linejoin: miter"/>
   </g>
   <g id="patch_104">
    <path d="M 595.286308 301.498436 
L 599.488421 301.498436 
L 599.488421 78.653001 
L 595.286308 78.653001 
z
" clip-path="url(#p3afd070fd6)" style="fill: url(#haafeb170f8); stroke: #ff7f0e; stroke-width: 2; stroke-linejoin: miter"/>
   </g>
   <g id="patch_105">
    <path d="M 600.22997 301.498436 
L 604.432082 301.498436 
L 604.432082 78.47183 
L 600.22997 78.47183 
z
" clip-path="url(#p3afd070fd6)" style="fill: url(#haafeb170f8); stroke: #ff7f0e; stroke-width: 2; stroke-linejoin: miter"/>
   </g>
   <g id="patch_106">
    <path d="M 605.173632 301.498436 
L 609.375744 301.498436 
L 609.375744 78.26912 
L 605.173632 78.26912 
z
" clip-path="url(#p3afd070fd6)" style="fill: url(#haafeb170f8); stroke: #ff7f0e; stroke-width: 2; stroke-linejoin: miter"/>
   </g>
   <g id="patch_107">
    <path d="M 610.117293 301.498436 
L 614.319406 301.498436 
L 614.319406 67.029105 
L 610.117293 67.029105 
z
" clip-path="url(#p3afd070fd6)" style="fill: url(#haafeb170f8); stroke: #ff7f0e; stroke-width: 2; stroke-linejoin: miter"/>
   </g>
   <g id="patch_108">
    <path d="M 615.060955 301.498436 
L 619.263067 301.498436 
L 619.263067 64.852094 
L 615.060955 64.852094 
z
" clip-path="url(#p3afd070fd6)" style="fill: url(#haafeb170f8); stroke: #ff7f0e; stroke-width: 2; stroke-linejoin: miter"/>
   </g>
   <g id="patch_109">
    <path d="M 620.004617 301.498436 
L 624.206729 301.498436 
L 624.206729 64.465012 
L 620.004617 64.465012 
z
" clip-path="url(#p3afd070fd6)" style="fill: url(#haafeb170f8); stroke: #ff7f0e; stroke-width: 2; stroke-linejoin: miter"/>
   </g>
   <g id="patch_110">
    <path d="M 624.948278 301.498436 
L 629.150391 301.498436 
L 629.150391 62.466465 
L 624.948278 62.466465 
z
" clip-path="url(#p3afd070fd6)" style="fill: url(#haafeb170f8); stroke: #ff7f0e; stroke-width: 2; stroke-linejoin: miter"/>
   </g>
   <g id="patch_111">
    <path d="M 629.89194 301.498436 
L 634.094053 301.498436 
L 634.094053 60.242438 
L 629.89194 60.242438 
z
" clip-path="url(#p3afd070fd6)" style="fill: url(#haafeb170f8); stroke: #ff7f0e; stroke-width: 2; stroke-linejoin: miter"/>
   </g>
   <g id="patch_112">
    <path d="M 634.835602 301.498436 
L 639.037714 301.498436 
L 639.037714 60.021266 
L 634.835602 60.021266 
z
" clip-path="url(#p3afd070fd6)" style="fill: url(#haafeb170f8); stroke: #ff7f0e; stroke-width: 2; stroke-linejoin: miter"/>
   </g>
   <g id="patch_113">
    <path d="M 639.779264 301.498436 
L 643.981376 301.498436 
L 643.981376 58.573617 
L 639.779264 58.573617 
z
" clip-path="url(#p3afd070fd6)" style="fill: url(#haafeb170f8); stroke: #ff7f0e; stroke-width: 2; stroke-linejoin: miter"/>
   </g>
   <g id="patch_114">
    <path d="M 644.722925 301.498436 
L 648.925038 301.498436 
L 648.925038 57.832316 
L 644.722925 57.832316 
z
" clip-path="url(#p3afd070fd6)" style="fill: url(#haafeb170f8); stroke: #ff7f0e; stroke-width: 2; stroke-linejoin: miter"/>
   </g>
   <g id="patch_115">
    <path d="M 649.666587 301.498436 
L 653.868699 301.498436 
L 653.868699 56.804857 
L 649.666587 56.804857 
z
" clip-path="url(#p3afd070fd6)" style="fill: url(#haafeb170f8); stroke: #ff7f0e; stroke-width: 2; stroke-linejoin: miter"/>
   </g>
   <g id="patch_116">
    <path d="M 654.610249 301.498436 
L 658.812361 301.498436 
L 658.812361 54.368273 
L 654.610249 54.368273 
z
" clip-path="url(#p3afd070fd6)" style="fill: url(#haafeb170f8); stroke: #ff7f0e; stroke-width: 2; stroke-linejoin: miter"/>
   </g>
   <g id="patch_117">
    <path d="M 659.55391 301.498436 
L 663.756023 301.498436 
L 663.756023 47.937426 
L 659.55391 47.937426 
z
" clip-path="url(#p3afd070fd6)" style="fill: url(#haafeb170f8); stroke: #ff7f0e; stroke-width: 2; stroke-linejoin: miter"/>
   </g>
   <g id="line2d_26">
    <path d="M 67.5875 127.339259 
L 692.145 127.339259 
" clip-path="url(#p3afd070fd6)" style="fill: none; stroke-dasharray: 4.44,1.92; stroke-dashoffset: 0; stroke: #f58518; stroke-width: 1.2"/>
   </g>
   <g id="patch_118">
    <path d="M 67.5875 301.498436 
L 67.5875 35.259375 
" style="fill: none; stroke: #808080; stroke-width: 0.8; stroke-linejoin: miter; stroke-linecap: square"/>
   </g>
   <g id="patch_119">
    <path d="M 67.5875 301.498436 
L 692.145 301.498436 
" style="fill: none; stroke: #808080; stroke-width: 0.8; stroke-linejoin: miter; stroke-linecap: square"/>
   </g>
   <g id="text_23">
    <text style="font: 22px 'PingFang SC', 'Heiti SC', 'STHeiti', 'Calibri', 'Arial', 'Helvetica Neue', 'Arial Unicode MS', 'Noto Sans CJK SC', 'DejaVu Sans', sans-serif; text-anchor: middle" x="379.86625" y="29.259375" transform="rotate(-0 379.86625 29.259375)">排序条形 · Burst/kernel p50 (us)</text>
   </g>
   <g id="legend_1">
    <g id="patch_120">
     <path d="M 75.9875 62.019375 
L 196.769375 62.019375 
Q 199.169375 62.019375 199.169375 59.619375 
L 199.169375 43.659375 
Q 199.169375 41.259375 196.769375 41.259375 
L 75.9875 41.259375 
Q 73.5875 41.259375 73.5875 43.659375 
L 73.5875 59.619375 
Q 73.5875 62.019375 75.9875 62.019375 
z
" style="fill: #ffffff; opacity: 0.5; stroke: #cccccc; stroke-linejoin: miter"/>
    </g>
    <g id="line2d_27">
     <path d="M 78.3875 51.410625 
L 90.3875 51.410625 
L 102.3875 51.410625 
" style="fill: none; stroke-dasharray: 4.44,1.92; stroke-dashoffset: 0; stroke: #f58518; stroke-width: 1.2"/>
    </g>
    <g id="text_24">
     <text style="font: 12px 'PingFang SC', 'Heiti SC', 'STHeiti', 'Calibri', 'Arial', 'Helvetica Neue', 'Arial Unicode MS', 'Noto Sans CJK SC', 'DejaVu Sans', sans-serif; text-anchor: start" x="111.9875" y="55.610625" transform="rotate(-0 111.9875 55.610625)">median=20.59</text>
    </g>
   </g>
  </g>
 </g>
 <defs>
  <clipPath id="p3afd070fd6">
   <rect x="67.5875" y="35.259375" width="624.5575" height="266.239061"/>
  </clipPath>
 </defs>
 <defs>
  <pattern id="hc1de9b3263" patternUnits="userSpaceOnUse" x="0" y="0" width="72" height="72">
   <rect x="0" y="0" width="73" height="73" fill="none"/>
   <path d="M -36 36 
L 36 -36 
M -30 42 
L 42 -30 
M -24 48 
L 48 -24 
M -18 54 
L 54 -18 
M -12 60 
L 60 -12 
M -6 66 
L 66 -6 
M 0 72 
L 72 0 
M 6 78 
L 78 6 
M 12 84 
L 84 12 
M 18 90 
L 90 18 
M 24 96 
L 96 24 
M 30 102 
L 102 30 
M 36 108 
L 108 36 
M -36 36 
L 36 108 
M -30 30 
L 42 102 
M -24 24 
L 48 96 
M -18 18 
L 54 90 
M -12 12 
L 60 84 
M -6 6 
L 66 78 
M 0 0 
L 72 72 
M 6 -6 
L 78 66 
M 12 -12 
L 84 60 
M 18 -18 
L 90 54 
M 24 -24 
L 96 48 
M 30 -30 
L 102 42 
M 36 -36 
L 108 36 
" style="fill: #2ca02c; stroke: #2ca02c; stroke-width: 1.0; stroke-linecap: butt; stroke-linejoin: miter"/>
  </pattern>
  <pattern id="haafeb170f8" patternUnits="userSpaceOnUse" x="0" y="0" width="72" height="72">
   <rect x="0" y="0" width="73" height="73" fill="none"/>
   <path d="M -36 36 
L 36 -36 
M -30 42 
L 42 -30 
M -24 48 
L 48 -24 
M -18 54 
L 54 -18 
M -12 60 
L 60 -12 
M -6 66 
L 66 -6 
M 0 72 
L 72 0 
M 6 78 
L 78 6 
M 12 84 
L 84 12 
M 18 90 
L 90 18 
M 24 96 
L 96 24 
M 30 102 
L 102 30 
M 36 108 
L 108 36 
" style="fill: #ff7f0e; stroke: #ff7f0e; stroke-width: 1.0; stroke-linecap: butt; stroke-linejoin: miter"/>
  </pattern>
 </defs>
</svg>
