<?xml version="1.0" encoding="utf-8" standalone="no"?>
<!DOCTYPE svg PUBLIC "-//W3C//DTD SVG 1.1//EN"
  "http://www.w3.org/Graphics/SVG/1.1/DTD/svg11.dtd">
<svg xmlns:xlink="http://www.w3.org/1999/xlink" width="702.9825pt" height="342.872603pt" viewBox="0 0 702.9825 342.872603" xmlns="http://www.w3.org/2000/svg" version="1.1">
 <metadata>
  <rdf:RDF xmlns:dc="http://purl.org/dc/elements/1.1/" xmlns:cc="http://creativecommons.org/ns#" xmlns:rdf="http://www.w3.org/1999/02/22-rdf-syntax-ns#">
   <cc:Work>
    <dc:type rdf:resource="http://purl.org/dc/dcmitype/StillImage"/>
    <dc:date>2026-07-11T23:31:17.499604</dc:date>
    <dc:format>image/svg+xml</dc:format>
    <dc:creator>
     <cc:Agent>
      <dc:title>Matplotlib v3.9.4, https://matplotlib.org/</dc:title>
     </cc:Agent>
    </dc:creator>
   </cc:Work>
  </rdf:RDF>
 </metadata>
 <defs>
  <style type="text/css">*{stroke-linejoin: round; stroke-linecap: butt}</style>
 </defs>
 <g id="figure_1">
  <g id="patch_1">
   <path d="M 0 342.872603 
L 702.9825 342.872603 
L 702.9825 0 
L 0 0 
z
" style="fill: #ffffff"/>
  </g>
  <g id="axes_1">
   <g id="patch_2">
    <path d="M 67.5875 301.524953 
L 692.1825 301.524953 
L 692.1825 35.259375 
L 67.5875 35.259375 
z
" style="fill: #ffffff"/>
   </g>
   <g id="matplotlib.axis_1">
    <g id="xtick_1">
     <g id="line2d_1">
      <defs>
       <path id="mab9424a53b" d="M 0 0 
L 0 3.5 
" style="stroke: #808080; stroke-width: 0.8"/>
      </defs>
      <g>
       <use xlink:href="#mab9424a53b" x="98.061227" y="301.524953" style="fill: #808080; stroke: #808080; stroke-width: 0.8"/>
      </g>
     </g>
     <g id="text_1">
      <text style="fill: #808080; font: 9px 'PingFang SC', 'Heiti SC', 'STHeiti', 'Calibri', 'Arial', 'Helvetica Neue', 'Arial Unicode MS', 'Noto Sans CJK SC', 'DejaVu Sans', sans-serif" transform="translate(79.578892 331.219434) rotate(-45)">w13.5</text>
     </g>
    </g>
    <g id="xtick_2">
     <g id="line2d_2">
      <g>
       <use xlink:href="#mab9424a53b" x="132.370208" y="301.524953" style="fill: #808080; stroke: #808080; stroke-width: 0.8"/>
      </g>
     </g>
     <g id="text_2">
      <text style="fill: #808080; font: 9px 'PingFang SC', 'Heiti SC', 'STHeiti', 'Calibri', 'Arial', 'Helvetica Neue', 'Arial Unicode MS', 'Noto Sans CJK SC', 'DejaVu Sans', sans-serif" transform="translate(113.887873 331.219434) rotate(-45)">w14.5</text>
     </g>
    </g>
    <g id="xtick_3">
     <g id="line2d_3">
      <g>
       <use xlink:href="#mab9424a53b" x="166.679189" y="301.524953" style="fill: #808080; stroke: #808080; stroke-width: 0.8"/>
      </g>
     </g>
     <g id="text_3">
      <text style="fill: #808080; font: 9px 'PingFang SC', 'Heiti SC', 'STHeiti', 'Calibri', 'Arial', 'Helvetica Neue', 'Arial Unicode MS', 'Noto Sans CJK SC', 'DejaVu Sans', sans-serif" transform="translate(148.196854 331.219434) rotate(-45)">w13.4</text>
     </g>
    </g>
    <g id="xtick_4">
     <g id="line2d_4">
      <g>
       <use xlink:href="#mab9424a53b" x="200.98817" y="301.524953" style="fill: #808080; stroke: #808080; stroke-width: 0.8"/>
      </g>
     </g>
     <g id="text_4">
      <text style="fill: #808080; font: 9px 'PingFang SC', 'Heiti SC', 'STHeiti', 'Calibri', 'Arial', 'Helvetica Neue', 'Arial Unicode MS', 'Noto Sans CJK SC', 'DejaVu Sans', sans-serif" transform="translate(182.505835 331.219434) rotate(-45)">w11.3</text>
     </g>
    </g>
    <g id="xtick_5">
     <g id="line2d_5">
      <g>
       <use xlink:href="#mab9424a53b" x="235.297151" y="301.524953" style="fill: #808080; stroke: #808080; stroke-width: 0.8"/>
      </g>
     </g>
     <g id="text_5">
      <text style="fill: #808080; font: 9px 'PingFang SC', 'Heiti SC', 'STHeiti', 'Calibri', 'Arial', 'Helvetica Neue', 'Arial Unicode MS', 'Noto Sans CJK SC', 'DejaVu Sans', sans-serif" transform="translate(220.340849 327.693402) rotate(-45)">w2.3</text>
     </g>
    </g>
    <g id="xtick_6">
     <g id="line2d_6">
      <g>
       <use xlink:href="#mab9424a53b" x="269.606132" y="301.524953" style="fill: #808080; stroke: #808080; stroke-width: 0.8"/>
      </g>
     </g>
     <g id="text_6">
      <text style="fill: #808080; font: 9px 'PingFang SC', 'Heiti SC', 'STHeiti', 'Calibri', 'Arial', 'Helvetica Neue', 'Arial Unicode MS', 'Noto Sans CJK SC', 'DejaVu Sans', sans-serif" transform="translate(254.64983 327.693402) rotate(-45)">w1.7</text>
     </g>
    </g>
    <g id="xtick_7">
     <g id="line2d_7">
      <g>
       <use xlink:href="#mab9424a53b" x="303.915113" y="301.524953" style="fill: #808080; stroke: #808080; stroke-width: 0.8"/>
      </g>
     </g>
     <g id="text_7">
      <text style="fill: #808080; font: 9px 'PingFang SC', 'Heiti SC', 'STHeiti', 'Calibri', 'Arial', 'Helvetica Neue', 'Arial Unicode MS', 'Noto Sans CJK SC', 'DejaVu Sans', sans-serif" transform="translate(288.958811 327.693402) rotate(-45)">w4.2</text>
     </g>
    </g>
    <g id="xtick_8">
     <g id="line2d_8">
      <g>
       <use xlink:href="#mab9424a53b" x="338.224094" y="301.524953" style="fill: #808080; stroke: #808080; stroke-width: 0.8"/>
      </g>
     </g>
     <g id="text_8">
      <text style="fill: #808080; font: 9px 'PingFang SC', 'Heiti SC', 'STHeiti', 'Calibri', 'Arial', 'Helvetica Neue', 'Arial Unicode MS', 'Noto Sans CJK SC', 'DejaVu Sans', sans-serif" transform="translate(319.741759 331.219434) rotate(-45)">w10.4</text>
     </g>
    </g>
    <g id="xtick_9">
     <g id="line2d_9">
      <g>
       <use xlink:href="#mab9424a53b" x="372.533075" y="301.524953" style="fill: #808080; stroke: #808080; stroke-width: 0.8"/>
      </g>
     </g>
     <g id="text_9">
      <text style="fill: #808080; font: 9px 'PingFang SC', 'Heiti SC', 'STHeiti', 'Calibri', 'Arial', 'Helvetica Neue', 'Arial Unicode MS', 'Noto Sans CJK SC', 'DejaVu Sans', sans-serif" transform="translate(357.576773 327.693402) rotate(-45)">w4.1</text>
     </g>
    </g>
    <g id="xtick_10">
     <g id="line2d_10">
      <g>
       <use xlink:href="#mab9424a53b" x="406.842057" y="301.524953" style="fill: #808080; stroke: #808080; stroke-width: 0.8"/>
      </g>
     </g>
     <g id="text_10">
      <text style="fill: #808080; font: 9px 'PingFang SC', 'Heiti SC', 'STHeiti', 'Calibri', 'Arial', 'Helvetica Neue', 'Arial Unicode MS', 'Noto Sans CJK SC', 'DejaVu Sans', sans-serif" transform="translate(391.885754 327.693402) rotate(-45)">w8.3</text>
     </g>
    </g>
    <g id="xtick_11">
     <g id="line2d_11">
      <g>
       <use xlink:href="#mab9424a53b" x="441.151038" y="301.524953" style="fill: #808080; stroke: #808080; stroke-width: 0.8"/>
      </g>
     </g>
     <g id="text_11">
      <text style="fill: #808080; font: 9px 'PingFang SC', 'Heiti SC', 'STHeiti', 'Calibri', 'Arial', 'Helvetica Neue', 'Arial Unicode MS', 'Noto Sans CJK SC', 'DejaVu Sans', sans-serif" transform="translate(422.668703 331.219434) rotate(-45)">w12.2</text>
     </g>
    </g>
    <g id="xtick_12">
     <g id="line2d_12">
      <g>
       <use xlink:href="#mab9424a53b" x="475.460019" y="301.524953" style="fill: #808080; stroke: #808080; stroke-width: 0.8"/>
      </g>
     </g>
     <g id="text_12">
      <text style="fill: #808080; font: 9px 'PingFang SC', 'Heiti SC', 'STHeiti', 'Calibri', 'Arial', 'Helvetica Neue', 'Arial Unicode MS', 'Noto Sans CJK SC', 'DejaVu Sans', sans-serif" transform="translate(460.503716 327.693402) rotate(-45)">w9.1</text>
     </g>
    </g>
    <g id="xtick_13">
     <g id="line2d_13">
      <g>
       <use xlink:href="#mab9424a53b" x="509.769" y="301.524953" style="fill: #808080; stroke: #808080; stroke-width: 0.8"/>
      </g>
     </g>
     <g id="text_13">
      <text style="fill: #808080; font: 9px 'PingFang SC', 'Heiti SC', 'STHeiti', 'Calibri', 'Arial', 'Helvetica Neue', 'Arial Unicode MS', 'Noto Sans CJK SC', 'DejaVu Sans', sans-serif" transform="translate(491.286665 331.219434) rotate(-45)">w11.1</text>
     </g>
    </g>
    <g id="xtick_14">
     <g id="line2d_14">
      <g>
       <use xlink:href="#mab9424a53b" x="544.077981" y="301.524953" style="fill: #808080; stroke: #808080; stroke-width: 0.8"/>
      </g>
     </g>
     <g id="text_14">
      <text style="fill: #808080; font: 9px 'PingFang SC', 'Heiti SC', 'STHeiti', 'Calibri', 'Arial', 'Helvetica Neue', 'Arial Unicode MS', 'Noto Sans CJK SC', 'DejaVu Sans', sans-serif" transform="translate(529.121678 327.693402) rotate(-45)">w3.4</text>
     </g>
    </g>
    <g id="xtick_15">
     <g id="line2d_15">
      <g>
       <use xlink:href="#mab9424a53b" x="578.386962" y="301.524953" style="fill: #808080; stroke: #808080; stroke-width: 0.8"/>
      </g>
     </g>
     <g id="text_15">
      <text style="fill: #808080; font: 9px 'PingFang SC', 'Heiti SC', 'STHeiti', 'Calibri', 'Arial', 'Helvetica Neue', 'Arial Unicode MS', 'Noto Sans CJK SC', 'DejaVu Sans', sans-serif" transform="translate(563.430659 327.693402) rotate(-45)">w6.0</text>
     </g>
    </g>
    <g id="xtick_16">
     <g id="line2d_16">
      <g>
       <use xlink:href="#mab9424a53b" x="612.695943" y="301.524953" style="fill: #808080; stroke: #808080; stroke-width: 0.8"/>
      </g>
     </g>
     <g id="text_16">
      <text style="fill: #808080; font: 9px 'PingFang SC', 'Heiti SC', 'STHeiti', 'Calibri', 'Arial', 'Helvetica Neue', 'Arial Unicode MS', 'Noto Sans CJK SC', 'DejaVu Sans', sans-serif" transform="translate(594.213608 331.219434) rotate(-45)">w11.4</text>
     </g>
    </g>
    <g id="xtick_17">
     <g id="line2d_17">
      <g>
       <use xlink:href="#mab9424a53b" x="647.004924" y="301.524953" style="fill: #808080; stroke: #808080; stroke-width: 0.8"/>
      </g>
     </g>
     <g id="text_17">
      <text style="fill: #808080; font: 9px 'PingFang SC', 'Heiti SC', 'STHeiti', 'Calibri', 'Arial', 'Helvetica Neue', 'Arial Unicode MS', 'Noto Sans CJK SC', 'DejaVu Sans', sans-serif" transform="translate(631.367478 328.374545) rotate(-45)">m0.2</text>
     </g>
    </g>
   </g>
   <g id="matplotlib.axis_2">
    <g id="ytick_1">
     <g id="line2d_18">
      <path d="M 67.5875 301.524953 
L 692.1825 301.524953 
" clip-path="url(#pb923301f11)" style="fill: none; stroke-dasharray: 1,1.65; stroke-dashoffset: 0; stroke: #808080; stroke-opacity: 0.55"/>
     </g>
     <g id="line2d_19">
      <defs>
       <path id="m37ebc977d4" d="M 0 0 
L -3.5 0 
" style="stroke: #808080; stroke-width: 0.8"/>
      </defs>
      <g>
       <use xlink:href="#m37ebc977d4" x="67.5875" y="301.524953" style="fill: #808080; stroke: #808080; stroke-width: 0.8"/>
      </g>
     </g>
     <g id="text_18">
      <text style="fill: #808080; font: 22px 'PingFang SC', 'Heiti SC', 'STHeiti', 'Calibri', 'Arial', 'Helvetica Neue', 'Arial Unicode MS', 'Noto Sans CJK SC', 'DejaVu Sans', sans-serif; text-anchor: end" x="60.5875" y="310.280265" transform="rotate(-0 60.5875 310.280265)">0</text>
     </g>
    </g>
    <g id="ytick_2">
     <g id="line2d_20">
      <path d="M 67.5875 225.544049 
L 692.1825 225.544049 
" clip-path="url(#pb923301f11)" style="fill: none; stroke-dasharray: 1,1.65; stroke-dashoffset: 0; stroke: #808080; stroke-opacity: 0.55"/>
     </g>
     <g id="line2d_21">
      <g>
       <use xlink:href="#m37ebc977d4" x="67.5875" y="225.544049" style="fill: #808080; stroke: #808080; stroke-width: 0.8"/>
      </g>
     </g>
     <g id="text_19">
      <text style="fill: #808080; font: 22px 'PingFang SC', 'Heiti SC', 'STHeiti', 'Calibri', 'Arial', 'Helvetica Neue', 'Arial Unicode MS', 'Noto Sans CJK SC', 'DejaVu Sans', sans-serif; text-anchor: end" x="60.5875" y="234.299362" transform="rotate(-0 60.5875 234.299362)">20</text>
     </g>
    </g>
    <g id="ytick_3">
     <g id="line2d_22">
      <path d="M 67.5875 149.563146 
L 692.1825 149.563146 
" clip-path="url(#pb923301f11)" style="fill: none; stroke-dasharray: 1,1.65; stroke-dashoffset: 0; stroke: #808080; stroke-opacity: 0.55"/>
     </g>
     <g id="line2d_23">
      <g>
       <use xlink:href="#m37ebc977d4" x="67.5875" y="149.563146" style="fill: #808080; stroke: #808080; stroke-width: 0.8"/>
      </g>
     </g>
     <g id="text_20">
      <text style="fill: #808080; font: 22px 'PingFang SC', 'Heiti SC', 'STHeiti', 'Calibri', 'Arial', 'Helvetica Neue', 'Arial Unicode MS', 'Noto Sans CJK SC', 'DejaVu Sans', sans-serif; text-anchor: end" x="60.5875" y="158.318459" transform="rotate(-0 60.5875 158.318459)">40</text>
     </g>
    </g>
    <g id="ytick_4">
     <g id="line2d_24">
      <path d="M 67.5875 73.582243 
L 692.1825 73.582243 
" clip-path="url(#pb923301f11)" style="fill: none; stroke-dasharray: 1,1.65; stroke-dashoffset: 0; stroke: #808080; stroke-opacity: 0.55"/>
     </g>
     <g id="line2d_25">
      <g>
       <use xlink:href="#m37ebc977d4" x="67.5875" y="73.582243" style="fill: #808080; stroke: #808080; stroke-width: 0.8"/>
      </g>
     </g>
     <g id="text_21">
      <text style="fill: #808080; font: 22px 'PingFang SC', 'Heiti SC', 'STHeiti', 'Calibri', 'Arial', 'Helvetica Neue', 'Arial Unicode MS', 'Noto Sans CJK SC', 'DejaVu Sans', sans-serif; text-anchor: end" x="60.5875" y="82.337556" transform="rotate(-0 60.5875 82.337556)">60</text>
     </g>
    </g>
    <g id="text_22">
     <text style="font: 22px 'PingFang SC', 'Heiti SC', 'STHeiti', 'Calibri', 'Arial', 'Helvetica Neue', 'Arial Unicode MS', 'Noto Sans CJK SC', 'DejaVu Sans', sans-serif; text-anchor: middle" x="29.259375" y="168.392164" transform="rotate(-90 29.259375 168.392164)">Health temp (C)</text>
    </g>
   </g>
   <g id="patch_3">
    <path d="M 95.978182 301.524953 
L 100.144272 301.524953 
L 100.144272 160.960282 
L 95.978182 160.960282 
z
" clip-path="url(#pb923301f11)" style="fill: url(#h29a23745d0); stroke: #2ca02c; stroke-width: 2; stroke-linejoin: miter"/>
   </g>
   <g id="patch_4">
    <path d="M 100.879465 301.524953 
L 105.045555 301.524953 
L 105.045555 160.01052 
L 100.879465 160.01052 
z
" clip-path="url(#pb923301f11)" style="fill: url(#h29a23745d0); stroke: #2ca02c; stroke-width: 2; stroke-linejoin: miter"/>
   </g>
   <g id="patch_5">
    <path d="M 105.780748 301.524953 
L 109.946838 301.524953 
L 109.946838 160.01052 
L 105.780748 160.01052 
z
" clip-path="url(#pb923301f11)" style="fill: url(#h29a23745d0); stroke: #2ca02c; stroke-width: 2; stroke-linejoin: miter"/>
   </g>
   <g id="patch_6">
    <path d="M 110.682031 301.524953 
L 114.848121 301.524953 
L 114.848121 160.01052 
L 110.682031 160.01052 
z
" clip-path="url(#pb923301f11)" style="fill: url(#h29a23745d0); stroke: #2ca02c; stroke-width: 2; stroke-linejoin: miter"/>
   </g>
   <g id="patch_7">
    <path d="M 115.583314 301.524953 
L 119.749404 301.524953 
L 119.749404 160.01052 
L 115.583314 160.01052 
z
" clip-path="url(#pb923301f11)" style="fill: url(#h29a23745d0); stroke: #2ca02c; stroke-width: 2; stroke-linejoin: miter"/>
   </g>
   <g id="patch_8">
    <path d="M 120.484597 301.524953 
L 124.650687 301.524953 
L 124.650687 159.060759 
L 120.484597 159.060759 
z
" clip-path="url(#pb923301f11)" style="fill: url(#h29a23745d0); stroke: #2ca02c; stroke-width: 2; stroke-linejoin: miter"/>
   </g>
   <g id="patch_9">
    <path d="M 125.38588 301.524953 
L 129.55197 301.524953 
L 129.55197 159.060759 
L 125.38588 159.060759 
z
" clip-path="url(#pb923301f11)" style="fill: url(#h29a23745d0); stroke: #2ca02c; stroke-width: 2; stroke-linejoin: miter"/>
   </g>
   <g id="patch_10">
    <path d="M 130.287163 301.524953 
L 134.453253 301.524953 
L 134.453253 159.060759 
L 130.287163 159.060759 
z
" clip-path="url(#pb923301f11)" style="fill: url(#h29a23745d0); stroke: #2ca02c; stroke-width: 2; stroke-linejoin: miter"/>
   </g>
   <g id="patch_11">
    <path d="M 135.188446 301.524953 
L 139.354536 301.524953 
L 139.354536 159.060759 
L 135.188446 159.060759 
z
" clip-path="url(#pb923301f11)" style="fill: url(#h29a23745d0); stroke: #2ca02c; stroke-width: 2; stroke-linejoin: miter"/>
   </g>
   <g id="patch_12">
    <path d="M 140.089729 301.524953 
L 144.255819 301.524953 
L 144.255819 159.060759 
L 140.089729 159.060759 
z
" clip-path="url(#pb923301f11)" style="fill: url(#h29a23745d0); stroke: #2ca02c; stroke-width: 2; stroke-linejoin: miter"/>
   </g>
   <g id="patch_13">
    <path d="M 144.991012 301.524953 
L 149.157102 301.524953 
L 149.157102 159.060759 
L 144.991012 159.060759 
z
" clip-path="url(#pb923301f11)" style="fill: url(#h29a23745d0); stroke: #2ca02c; stroke-width: 2; stroke-linejoin: miter"/>
   </g>
   <g id="patch_14">
    <path d="M 149.892295 301.524953 
L 154.058385 301.524953 
L 154.058385 159.060759 
L 149.892295 159.060759 
z
" clip-path="url(#pb923301f11)" style="fill: url(#h29a23745d0); stroke: #2ca02c; stroke-width: 2; stroke-linejoin: miter"/>
   </g>
   <g id="patch_15">
    <path d="M 154.793578 301.524953 
L 158.959668 301.524953 
L 158.959668 159.060759 
L 154.793578 159.060759 
z
" clip-path="url(#pb923301f11)" style="fill: url(#h29a23745d0); stroke: #2ca02c; stroke-width: 2; stroke-linejoin: miter"/>
   </g>
   <g id="patch_16">
    <path d="M 159.694861 301.524953 
L 163.860951 301.524953 
L 163.860951 158.110998 
L 159.694861 158.110998 
z
" clip-path="url(#pb923301f11)" style="fill: url(#h29a23745d0); stroke: #2ca02c; stroke-width: 2; stroke-linejoin: miter"/>
   </g>
   <g id="patch_17">
    <path d="M 164.596144 301.524953 
L 168.762234 301.524953 
L 168.762234 158.110998 
L 164.596144 158.110998 
z
" clip-path="url(#pb923301f11)" style="fill: url(#h29a23745d0); stroke: #2ca02c; stroke-width: 2; stroke-linejoin: miter"/>
   </g>
   <g id="patch_18">
    <path d="M 169.497427 301.524953 
L 173.663517 301.524953 
L 173.663517 158.110998 
L 169.497427 158.110998 
z
" clip-path="url(#pb923301f11)" style="fill: url(#h29a23745d0); stroke: #2ca02c; stroke-width: 2; stroke-linejoin: miter"/>
   </g>
   <g id="patch_19">
    <path d="M 174.39871 301.524953 
L 178.5648 301.524953 
L 178.5648 158.110998 
L 174.39871 158.110998 
z
" clip-path="url(#pb923301f11)" style="fill: url(#h29a23745d0); stroke: #2ca02c; stroke-width: 2; stroke-linejoin: miter"/>
   </g>
   <g id="patch_20">
    <path d="M 179.299993 301.524953 
L 183.466083 301.524953 
L 183.466083 158.110998 
L 179.299993 158.110998 
z
" clip-path="url(#pb923301f11)" style="fill: url(#h29a23745d0); stroke: #2ca02c; stroke-width: 2; stroke-linejoin: miter"/>
   </g>
   <g id="patch_21">
    <path d="M 184.201276 301.524953 
L 188.367367 301.524953 
L 188.367367 158.110998 
L 184.201276 158.110998 
z
" clip-path="url(#pb923301f11)" style="fill: url(#h29a23745d0); stroke: #2ca02c; stroke-width: 2; stroke-linejoin: miter"/>
   </g>
   <g id="patch_22">
    <path d="M 189.102559 301.524953 
L 193.26865 301.524953 
L 193.26865 158.110998 
L 189.102559 158.110998 
z
" clip-path="url(#pb923301f11)" style="fill: url(#h29a23745d0); stroke: #2ca02c; stroke-width: 2; stroke-linejoin: miter"/>
   </g>
   <g id="patch_23">
    <path d="M 194.003842 301.524953 
L 198.169933 301.524953 
L 198.169933 157.161237 
L 194.003842 157.161237 
z
" clip-path="url(#pb923301f11)" style="fill: url(#h29a23745d0); stroke: #2ca02c; stroke-width: 2; stroke-linejoin: miter"/>
   </g>
   <g id="patch_24">
    <path d="M 198.905125 301.524953 
L 203.071216 301.524953 
L 203.071216 157.161237 
L 198.905125 157.161237 
z
" clip-path="url(#pb923301f11)" style="fill: url(#h29a23745d0); stroke: #2ca02c; stroke-width: 2; stroke-linejoin: miter"/>
   </g>
   <g id="patch_25">
    <path d="M 203.806408 301.524953 
L 207.972499 301.524953 
L 207.972499 157.161237 
L 203.806408 157.161237 
z
" clip-path="url(#pb923301f11)" style="fill: url(#h29a23745d0); stroke: #2ca02c; stroke-width: 2; stroke-linejoin: miter"/>
   </g>
   <g id="patch_26">
    <path d="M 208.707691 301.524953 
L 212.873782 301.524953 
L 212.873782 157.161237 
L 208.707691 157.161237 
z
" clip-path="url(#pb923301f11)" style="fill: url(#h29a23745d0); stroke: #2ca02c; stroke-width: 2; stroke-linejoin: miter"/>
   </g>
   <g id="patch_27">
    <path d="M 213.608974 301.524953 
L 217.775065 301.524953 
L 217.775065 157.161237 
L 213.608974 157.161237 
z
" clip-path="url(#pb923301f11)" style="fill: url(#h29a23745d0); stroke: #2ca02c; stroke-width: 2; stroke-linejoin: miter"/>
   </g>
   <g id="patch_28">
    <path d="M 218.510257 301.524953 
L 222.676348 301.524953 
L 222.676348 157.161237 
L 218.510257 157.161237 
z
" clip-path="url(#pb923301f11)" style="fill: url(#h29a23745d0); stroke: #2ca02c; stroke-width: 2; stroke-linejoin: miter"/>
   </g>
   <g id="patch_29">
    <path d="M 223.41154 301.524953 
L 227.577631 301.524953 
L 227.577631 157.161237 
L 223.41154 157.161237 
z
" clip-path="url(#pb923301f11)" style="fill: url(#h29a23745d0); stroke: #2ca02c; stroke-width: 2; stroke-linejoin: miter"/>
   </g>
   <g id="patch_30">
    <path d="M 228.312823 301.524953 
L 232.478914 301.524953 
L 232.478914 157.161237 
L 228.312823 157.161237 
z
" clip-path="url(#pb923301f11)" style="fill: url(#h29a23745d0); stroke: #2ca02c; stroke-width: 2; stroke-linejoin: miter"/>
   </g>
   <g id="patch_31">
    <path d="M 233.214106 301.524953 
L 237.380197 301.524953 
L 237.380197 157.161237 
L 233.214106 157.161237 
z
" clip-path="url(#pb923301f11)" style="fill: url(#h29a23745d0); stroke: #2ca02c; stroke-width: 2; stroke-linejoin: miter"/>
   </g>
   <g id="patch_32">
    <path d="M 238.115389 301.524953 
L 242.28148 301.524953 
L 242.28148 157.161237 
L 238.115389 157.161237 
z
" clip-path="url(#pb923301f11)" style="fill: url(#h29a23745d0); stroke: #2ca02c; stroke-width: 2; stroke-linejoin: miter"/>
   </g>
   <g id="patch_33">
    <path d="M 243.016672 301.524953 
L 247.182763 301.524953 
L 247.182763 157.161237 
L 243.016672 157.161237 
z
" clip-path="url(#pb923301f11)" style="fill: url(#h29a23745d0); stroke: #2ca02c; stroke-width: 2; stroke-linejoin: miter"/>
   </g>
   <g id="patch_34">
    <path d="M 247.917955 301.524953 
L 252.084046 301.524953 
L 252.084046 157.161237 
L 247.917955 157.161237 
z
" clip-path="url(#pb923301f11)" style="fill: url(#h29a23745d0); stroke: #2ca02c; stroke-width: 2; stroke-linejoin: miter"/>
   </g>
   <g id="patch_35">
    <path d="M 252.819238 301.524953 
L 256.985329 301.524953 
L 256.985329 157.161237 
L 252.819238 157.161237 
z
" clip-path="url(#pb923301f11)" style="fill: url(#h29a23745d0); stroke: #2ca02c; stroke-width: 2; stroke-linejoin: miter"/>
   </g>
   <g id="patch_36">
    <path d="M 257.720521 301.524953 
L 261.886612 301.524953 
L 261.886612 157.161237 
L 257.720521 157.161237 
z
" clip-path="url(#pb923301f11)" style="fill: url(#h29a23745d0); stroke: #2ca02c; stroke-width: 2; stroke-linejoin: miter"/>
   </g>
   <g id="patch_37">
    <path d="M 262.621804 301.524953 
L 266.787895 301.524953 
L 266.787895 157.161237 
L 262.621804 157.161237 
z
" clip-path="url(#pb923301f11)" style="fill: url(#h29a23745d0); stroke: #2ca02c; stroke-width: 2; stroke-linejoin: miter"/>
   </g>
   <g id="patch_38">
    <path d="M 267.523087 301.524953 
L 271.689178 301.524953 
L 271.689178 156.211475 
L 267.523087 156.211475 
z
" clip-path="url(#pb923301f11)" style="fill: url(#h29a23745d0); stroke: #2ca02c; stroke-width: 2; stroke-linejoin: miter"/>
   </g>
   <g id="patch_39">
    <path d="M 272.42437 301.524953 
L 276.590461 301.524953 
L 276.590461 156.211475 
L 272.42437 156.211475 
z
" clip-path="url(#pb923301f11)" style="fill: url(#h29a23745d0); stroke: #2ca02c; stroke-width: 2; stroke-linejoin: miter"/>
   </g>
   <g id="patch_40">
    <path d="M 277.325653 301.524953 
L 281.491744 301.524953 
L 281.491744 156.211475 
L 277.325653 156.211475 
z
" clip-path="url(#pb923301f11)" style="fill: url(#h29a23745d0); stroke: #2ca02c; stroke-width: 2; stroke-linejoin: miter"/>
   </g>
   <g id="patch_41">
    <path d="M 282.226936 301.524953 
L 286.393027 301.524953 
L 286.393027 156.211475 
L 282.226936 156.211475 
z
" clip-path="url(#pb923301f11)" style="fill: url(#h29a23745d0); stroke: #2ca02c; stroke-width: 2; stroke-linejoin: miter"/>
   </g>
   <g id="patch_42">
    <path d="M 287.128219 301.524953 
L 291.29431 301.524953 
L 291.29431 156.211475 
L 287.128219 156.211475 
z
" clip-path="url(#pb923301f11)" style="fill: url(#h29a23745d0); stroke: #2ca02c; stroke-width: 2; stroke-linejoin: miter"/>
   </g>
   <g id="patch_43">
    <path d="M 292.029502 301.524953 
L 296.195593 301.524953 
L 296.195593 156.211475 
L 292.029502 156.211475 
z
" clip-path="url(#pb923301f11)" style="fill: url(#h29a23745d0); stroke: #2ca02c; stroke-width: 2; stroke-linejoin: miter"/>
   </g>
   <g id="patch_44">
    <path d="M 296.930785 301.524953 
L 301.096876 301.524953 
L 301.096876 156.211475 
L 296.930785 156.211475 
z
" clip-path="url(#pb923301f11)" style="fill: url(#h29a23745d0); stroke: #2ca02c; stroke-width: 2; stroke-linejoin: miter"/>
   </g>
   <g id="patch_45">
    <path d="M 301.832068 301.524953 
L 305.998159 301.524953 
L 305.998159 156.211475 
L 301.832068 156.211475 
z
" clip-path="url(#pb923301f11)" style="fill: url(#h29a23745d0); stroke: #2ca02c; stroke-width: 2; stroke-linejoin: miter"/>
   </g>
   <g id="patch_46">
    <path d="M 306.733351 301.524953 
L 310.899442 301.524953 
L 310.899442 156.211475 
L 306.733351 156.211475 
z
" clip-path="url(#pb923301f11)" style="fill: url(#h29a23745d0); stroke: #2ca02c; stroke-width: 2; stroke-linejoin: miter"/>
   </g>
   <g id="patch_47">
    <path d="M 311.634634 301.524953 
L 315.800725 301.524953 
L 315.800725 156.211475 
L 311.634634 156.211475 
z
" clip-path="url(#pb923301f11)" style="fill: url(#h29a23745d0); stroke: #2ca02c; stroke-width: 2; stroke-linejoin: miter"/>
   </g>
   <g id="patch_48">
    <path d="M 316.535917 301.524953 
L 320.702008 301.524953 
L 320.702008 156.211475 
L 316.535917 156.211475 
z
" clip-path="url(#pb923301f11)" style="fill: url(#h29a23745d0); stroke: #2ca02c; stroke-width: 2; stroke-linejoin: miter"/>
   </g>
   <g id="patch_49">
    <path d="M 321.4372 301.524953 
L 325.603291 301.524953 
L 325.603291 156.211475 
L 321.4372 156.211475 
z
" clip-path="url(#pb923301f11)" style="fill: url(#h29a23745d0); stroke: #2ca02c; stroke-width: 2; stroke-linejoin: miter"/>
   </g>
   <g id="patch_50">
    <path d="M 326.338483 301.524953 
L 330.504574 301.524953 
L 330.504574 155.261714 
L 326.338483 155.261714 
z
" clip-path="url(#pb923301f11)" style="fill: url(#he078ebc2ee); stroke: #ff7f0e; stroke-width: 2; stroke-linejoin: miter"/>
   </g>
   <g id="patch_51">
    <path d="M 331.239766 301.524953 
L 335.405857 301.524953 
L 335.405857 155.261714 
L 331.239766 155.261714 
z
" clip-path="url(#pb923301f11)" style="fill: url(#he078ebc2ee); stroke: #ff7f0e; stroke-width: 2; stroke-linejoin: miter"/>
   </g>
   <g id="patch_52">
    <path d="M 336.141049 301.524953 
L 340.30714 301.524953 
L 340.30714 155.261714 
L 336.141049 155.261714 
z
" clip-path="url(#pb923301f11)" style="fill: url(#he078ebc2ee); stroke: #ff7f0e; stroke-width: 2; stroke-linejoin: miter"/>
   </g>
   <g id="patch_53">
    <path d="M 341.042332 301.524953 
L 345.208423 301.524953 
L 345.208423 155.261714 
L 341.042332 155.261714 
z
" clip-path="url(#pb923301f11)" style="fill: url(#he078ebc2ee); stroke: #ff7f0e; stroke-width: 2; stroke-linejoin: miter"/>
   </g>
   <g id="patch_54">
    <path d="M 345.943615 301.524953 
L 350.109706 301.524953 
L 350.109706 155.261714 
L 345.943615 155.261714 
z
" clip-path="url(#pb923301f11)" style="fill: url(#he078ebc2ee); stroke: #ff7f0e; stroke-width: 2; stroke-linejoin: miter"/>
   </g>
   <g id="patch_55">
    <path d="M 350.844898 301.524953 
L 355.010989 301.524953 
L 355.010989 155.261714 
L 350.844898 155.261714 
z
" clip-path="url(#pb923301f11)" style="fill: url(#he078ebc2ee); stroke: #ff7f0e; stroke-width: 2; stroke-linejoin: miter"/>
   </g>
   <g id="patch_56">
    <path d="M 355.746181 301.524953 
L 359.912272 301.524953 
L 359.912272 155.261714 
L 355.746181 155.261714 
z
" clip-path="url(#pb923301f11)" style="fill: url(#he078ebc2ee); stroke: #ff7f0e; stroke-width: 2; stroke-linejoin: miter"/>
   </g>
   <g id="patch_57">
    <path d="M 360.647464 301.524953 
L 364.813555 301.524953 
L 364.813555 155.261714 
L 360.647464 155.261714 
z
" clip-path="url(#pb923301f11)" style="fill: url(#he078ebc2ee); stroke: #ff7f0e; stroke-width: 2; stroke-linejoin: miter"/>
   </g>
   <g id="patch_58">
    <path d="M 365.548747 301.524953 
L 369.714838 301.524953 
L 369.714838 155.261714 
L 365.548747 155.261714 
z
" clip-path="url(#pb923301f11)" style="fill: url(#he078ebc2ee); stroke: #ff7f0e; stroke-width: 2; stroke-linejoin: miter"/>
   </g>
   <g id="patch_59">
    <path d="M 370.45003 301.524953 
L 374.616121 301.524953 
L 374.616121 155.261714 
L 370.45003 155.261714 
z
" clip-path="url(#pb923301f11)" style="fill: url(#he078ebc2ee); stroke: #ff7f0e; stroke-width: 2; stroke-linejoin: miter"/>
   </g>
   <g id="patch_60">
    <path d="M 375.351313 301.524953 
L 379.517404 301.524953 
L 379.517404 155.261714 
L 375.351313 155.261714 
z
" clip-path="url(#pb923301f11)" style="fill: url(#he078ebc2ee); stroke: #ff7f0e; stroke-width: 2; stroke-linejoin: miter"/>
   </g>
   <g id="patch_61">
    <path d="M 380.252596 301.524953 
L 384.418687 301.524953 
L 384.418687 155.261714 
L 380.252596 155.261714 
z
" clip-path="url(#pb923301f11)" style="fill: url(#he078ebc2ee); stroke: #ff7f0e; stroke-width: 2; stroke-linejoin: miter"/>
   </g>
   <g id="patch_62">
    <path d="M 385.153879 301.524953 
L 389.31997 301.524953 
L 389.31997 155.261714 
L 385.153879 155.261714 
z
" clip-path="url(#pb923301f11)" style="fill: url(#he078ebc2ee); stroke: #ff7f0e; stroke-width: 2; stroke-linejoin: miter"/>
   </g>
   <g id="patch_63">
    <path d="M 390.055162 301.524953 
L 394.221253 301.524953 
L 394.221253 155.261714 
L 390.055162 155.261714 
z
" clip-path="url(#pb923301f11)" style="fill: url(#he078ebc2ee); stroke: #ff7f0e; stroke-width: 2; stroke-linejoin: miter"/>
   </g>
   <g id="patch_64">
    <path d="M 394.956445 301.524953 
L 399.122536 301.524953 
L 399.122536 155.261714 
L 394.956445 155.261714 
z
" clip-path="url(#pb923301f11)" style="fill: url(#he078ebc2ee); stroke: #ff7f0e; stroke-width: 2; stroke-linejoin: miter"/>
   </g>
   <g id="patch_65">
    <path d="M 399.857728 301.524953 
L 404.023819 301.524953 
L 404.023819 155.261714 
L 399.857728 155.261714 
z
" clip-path="url(#pb923301f11)" style="fill: url(#he078ebc2ee); stroke: #ff7f0e; stroke-width: 2; stroke-linejoin: miter"/>
   </g>
   <g id="patch_66">
    <path d="M 404.759011 301.524953 
L 408.925102 301.524953 
L 408.925102 155.261714 
L 404.759011 155.261714 
z
" clip-path="url(#pb923301f11)" style="fill: url(#he078ebc2ee); stroke: #ff7f0e; stroke-width: 2; stroke-linejoin: miter"/>
   </g>
   <g id="patch_67">
    <path d="M 409.660294 301.524953 
L 413.826385 301.524953 
L 413.826385 154.311953 
L 409.660294 154.311953 
z
" clip-path="url(#pb923301f11)" style="fill: url(#he078ebc2ee); stroke: #ff7f0e; stroke-width: 2; stroke-linejoin: miter"/>
   </g>
   <g id="patch_68">
    <path d="M 414.561577 301.524953 
L 418.727668 301.524953 
L 418.727668 154.311953 
L 414.561577 154.311953 
z
" clip-path="url(#pb923301f11)" style="fill: url(#he078ebc2ee); stroke: #ff7f0e; stroke-width: 2; stroke-linejoin: miter"/>
   </g>
   <g id="patch_69">
    <path d="M 419.46286 301.524953 
L 423.628951 301.524953 
L 423.628951 154.311953 
L 419.46286 154.311953 
z
" clip-path="url(#pb923301f11)" style="fill: url(#he078ebc2ee); stroke: #ff7f0e; stroke-width: 2; stroke-linejoin: miter"/>
   </g>
   <g id="patch_70">
    <path d="M 424.364143 301.524953 
L 428.530234 301.524953 
L 428.530234 154.311953 
L 424.364143 154.311953 
z
" clip-path="url(#pb923301f11)" style="fill: url(#he078ebc2ee); stroke: #ff7f0e; stroke-width: 2; stroke-linejoin: miter"/>
   </g>
   <g id="patch_71">
    <path d="M 429.265426 301.524953 
L 433.431517 301.524953 
L 433.431517 154.311953 
L 429.265426 154.311953 
z
" clip-path="url(#pb923301f11)" style="fill: url(#he078ebc2ee); stroke: #ff7f0e; stroke-width: 2; stroke-linejoin: miter"/>
   </g>
   <g id="patch_72">
    <path d="M 434.166709 301.524953 
L 438.3328 301.524953 
L 438.3328 154.311953 
L 434.166709 154.311953 
z
" clip-path="url(#pb923301f11)" style="fill: url(#he078ebc2ee); stroke: #ff7f0e; stroke-width: 2; stroke-linejoin: miter"/>
   </g>
   <g id="patch_73">
    <path d="M 439.067992 301.524953 
L 443.234083 301.524953 
L 443.234083 154.311953 
L 439.067992 154.311953 
z
" clip-path="url(#pb923301f11)" style="fill: url(#he078ebc2ee); stroke: #ff7f0e; stroke-width: 2; stroke-linejoin: miter"/>
   </g>
   <g id="patch_74">
    <path d="M 443.969275 301.524953 
L 448.135366 301.524953 
L 448.135366 154.311953 
L 443.969275 154.311953 
z
" clip-path="url(#pb923301f11)" style="fill: url(#he078ebc2ee); stroke: #ff7f0e; stroke-width: 2; stroke-linejoin: miter"/>
   </g>
   <g id="patch_75">
    <path d="M 448.870558 301.524953 
L 453.036649 301.524953 
L 453.036649 154.311953 
L 448.870558 154.311953 
z
" clip-path="url(#pb923301f11)" style="fill: url(#he078ebc2ee); stroke: #ff7f0e; stroke-width: 2; stroke-linejoin: miter"/>
   </g>
   <g id="patch_76">
    <path d="M 453.771841 301.524953 
L 457.937932 301.524953 
L 457.937932 154.311953 
L 453.771841 154.311953 
z
" clip-path="url(#pb923301f11)" style="fill: url(#he078ebc2ee); stroke: #ff7f0e; stroke-width: 2; stroke-linejoin: miter"/>
   </g>
   <g id="patch_77">
    <path d="M 458.673124 301.524953 
L 462.839215 301.524953 
L 462.839215 154.311953 
L 458.673124 154.311953 
z
" clip-path="url(#pb923301f11)" style="fill: url(#he078ebc2ee); stroke: #ff7f0e; stroke-width: 2; stroke-linejoin: miter"/>
   </g>
   <g id="patch_78">
    <path d="M 463.574407 301.524953 
L 467.740498 301.524953 
L 467.740498 154.311953 
L 463.574407 154.311953 
z
" clip-path="url(#pb923301f11)" style="fill: url(#he078ebc2ee); stroke: #ff7f0e; stroke-width: 2; stroke-linejoin: miter"/>
   </g>
   <g id="patch_79">
    <path d="M 468.47569 301.524953 
L 472.641781 301.524953 
L 472.641781 154.311953 
L 468.47569 154.311953 
z
" clip-path="url(#pb923301f11)" style="fill: url(#he078ebc2ee); stroke: #ff7f0e; stroke-width: 2; stroke-linejoin: miter"/>
   </g>
   <g id="patch_80">
    <path d="M 473.376973 301.524953 
L 477.543064 301.524953 
L 477.543064 154.311953 
L 473.376973 154.311953 
z
" clip-path="url(#pb923301f11)" style="fill: url(#he078ebc2ee); stroke: #ff7f0e; stroke-width: 2; stroke-linejoin: miter"/>
   </g>
   <g id="patch_81">
    <path d="M 478.278256 301.524953 
L 482.444347 301.524953 
L 482.444347 154.311953 
L 478.278256 154.311953 
z
" clip-path="url(#pb923301f11)" style="fill: url(#he078ebc2ee); stroke: #ff7f0e; stroke-width: 2; stroke-linejoin: miter"/>
   </g>
   <g id="patch_82">
    <path d="M 483.179539 301.524953 
L 487.34563 301.524953 
L 487.34563 153.362191 
L 483.179539 153.362191 
z
" clip-path="url(#pb923301f11)" style="fill: url(#he078ebc2ee); stroke: #ff7f0e; stroke-width: 2; stroke-linejoin: miter"/>
   </g>
   <g id="patch_83">
    <path d="M 488.080822 301.524953 
L 492.246913 301.524953 
L 492.246913 153.362191 
L 488.080822 153.362191 
z
" clip-path="url(#pb923301f11)" style="fill: url(#he078ebc2ee); stroke: #ff7f0e; stroke-width: 2; stroke-linejoin: miter"/>
   </g>
   <g id="patch_84">
    <path d="M 492.982105 301.524953 
L 497.148196 301.524953 
L 497.148196 153.362191 
L 492.982105 153.362191 
z
" clip-path="url(#pb923301f11)" style="fill: url(#he078ebc2ee); stroke: #ff7f0e; stroke-width: 2; stroke-linejoin: miter"/>
   </g>
   <g id="patch_85">
    <path d="M 497.883388 301.524953 
L 502.049479 301.524953 
L 502.049479 153.362191 
L 497.883388 153.362191 
z
" clip-path="url(#pb923301f11)" style="fill: url(#he078ebc2ee); stroke: #ff7f0e; stroke-width: 2; stroke-linejoin: miter"/>
   </g>
   <g id="patch_86">
    <path d="M 502.784671 301.524953 
L 506.950762 301.524953 
L 506.950762 153.362191 
L 502.784671 153.362191 
z
" clip-path="url(#pb923301f11)" style="fill: url(#he078ebc2ee); stroke: #ff7f0e; stroke-width: 2; stroke-linejoin: miter"/>
   </g>
   <g id="patch_87">
    <path d="M 507.685954 301.524953 
L 511.852045 301.524953 
L 511.852045 153.362191 
L 507.685954 153.362191 
z
" clip-path="url(#pb923301f11)" style="fill: url(#he078ebc2ee); stroke: #ff7f0e; stroke-width: 2; stroke-linejoin: miter"/>
   </g>
   <g id="patch_88">
    <path d="M 512.587237 301.524953 
L 516.753328 301.524953 
L 516.753328 153.362191 
L 512.587237 153.362191 
z
" clip-path="url(#pb923301f11)" style="fill: url(#he078ebc2ee); stroke: #ff7f0e; stroke-width: 2; stroke-linejoin: miter"/>
   </g>
   <g id="patch_89">
    <path d="M 517.48852 301.524953 
L 521.654611 301.524953 
L 521.654611 153.362191 
L 517.48852 153.362191 
z
" clip-path="url(#pb923301f11)" style="fill: url(#he078ebc2ee); stroke: #ff7f0e; stroke-width: 2; stroke-linejoin: miter"/>
   </g>
   <g id="patch_90">
    <path d="M 522.389803 301.524953 
L 526.555894 301.524953 
L 526.555894 152.41243 
L 522.389803 152.41243 
z
" clip-path="url(#pb923301f11)" style="fill: url(#he078ebc2ee); stroke: #ff7f0e; stroke-width: 2; stroke-linejoin: miter"/>
   </g>
   <g id="patch_91">
    <path d="M 527.291086 301.524953 
L 531.457177 301.524953 
L 531.457177 152.41243 
L 527.291086 152.41243 
z
" clip-path="url(#pb923301f11)" style="fill: url(#he078ebc2ee); stroke: #ff7f0e; stroke-width: 2; stroke-linejoin: miter"/>
   </g>
   <g id="patch_92">
    <path d="M 532.192369 301.524953 
L 536.35846 301.524953 
L 536.35846 152.41243 
L 532.192369 152.41243 
z
" clip-path="url(#pb923301f11)" style="fill: url(#he078ebc2ee); stroke: #ff7f0e; stroke-width: 2; stroke-linejoin: miter"/>
   </g>
   <g id="patch_93">
    <path d="M 537.093652 301.524953 
L 541.259743 301.524953 
L 541.259743 152.41243 
L 537.093652 152.41243 
z
" clip-path="url(#pb923301f11)" style="fill: url(#he078ebc2ee); stroke: #ff7f0e; stroke-width: 2; stroke-linejoin: miter"/>
   </g>
   <g id="patch_94">
    <path d="M 541.994935 301.524953 
L 546.161026 301.524953 
L 546.161026 152.41243 
L 541.994935 152.41243 
z
" clip-path="url(#pb923301f11)" style="fill: url(#he078ebc2ee); stroke: #ff7f0e; stroke-width: 2; stroke-linejoin: miter"/>
   </g>
   <g id="patch_95">
    <path d="M 546.896218 301.524953 
L 551.062309 301.524953 
L 551.062309 152.41243 
L 546.896218 152.41243 
z
" clip-path="url(#pb923301f11)" style="fill: url(#he078ebc2ee); stroke: #ff7f0e; stroke-width: 2; stroke-linejoin: miter"/>
   </g>
   <g id="patch_96">
    <path d="M 551.797501 301.524953 
L 555.963592 301.524953 
L 555.963592 152.41243 
L 551.797501 152.41243 
z
" clip-path="url(#pb923301f11)" style="fill: url(#he078ebc2ee); stroke: #ff7f0e; stroke-width: 2; stroke-linejoin: miter"/>
   </g>
   <g id="patch_97">
    <path d="M 556.698784 301.524953 
L 560.864875 301.524953 
L 560.864875 152.41243 
L 556.698784 152.41243 
z
" clip-path="url(#pb923301f11)" style="fill: url(#he078ebc2ee); stroke: #ff7f0e; stroke-width: 2; stroke-linejoin: miter"/>
   </g>
   <g id="patch_98">
    <path d="M 561.600067 301.524953 
L 565.766158 301.524953 
L 565.766158 152.41243 
L 561.600067 152.41243 
z
" clip-path="url(#pb923301f11)" style="fill: url(#he078ebc2ee); stroke: #ff7f0e; stroke-width: 2; stroke-linejoin: miter"/>
   </g>
   <g id="patch_99">
    <path d="M 566.50135 301.524953 
L 570.667441 301.524953 
L 570.667441 151.462669 
L 566.50135 151.462669 
z
" clip-path="url(#pb923301f11)" style="fill: url(#he078ebc2ee); stroke: #ff7f0e; stroke-width: 2; stroke-linejoin: miter"/>
   </g>
   <g id="patch_100">
    <path d="M 571.402633 301.524953 
L 575.568724 301.524953 
L 575.568724 151.462669 
L 571.402633 151.462669 
z
" clip-path="url(#pb923301f11)" style="fill: url(#he078ebc2ee); stroke: #ff7f0e; stroke-width: 2; stroke-linejoin: miter"/>
   </g>
   <g id="patch_101">
    <path d="M 576.303917 301.524953 
L 580.470007 301.524953 
L 580.470007 151.462669 
L 576.303917 151.462669 
z
" clip-path="url(#pb923301f11)" style="fill: url(#he078ebc2ee); stroke: #ff7f0e; stroke-width: 2; stroke-linejoin: miter"/>
   </g>
   <g id="patch_102">
    <path d="M 581.2052 301.524953 
L 585.37129 301.524953 
L 585.37129 151.462669 
L 581.2052 151.462669 
z
" clip-path="url(#pb923301f11)" style="fill: url(#he078ebc2ee); stroke: #ff7f0e; stroke-width: 2; stroke-linejoin: miter"/>
   </g>
   <g id="patch_103">
    <path d="M 586.106483 301.524953 
L 590.272573 301.524953 
L 590.272573 151.462669 
L 586.106483 151.462669 
z
" clip-path="url(#pb923301f11)" style="fill: url(#he078ebc2ee); stroke: #ff7f0e; stroke-width: 2; stroke-linejoin: miter"/>
   </g>
   <g id="patch_104">
    <path d="M 591.007766 301.524953 
L 595.173856 301.524953 
L 595.173856 150.512908 
L 591.007766 150.512908 
z
" clip-path="url(#pb923301f11)" style="fill: url(#he078ebc2ee); stroke: #ff7f0e; stroke-width: 2; stroke-linejoin: miter"/>
   </g>
   <g id="patch_105">
    <path d="M 595.909049 301.524953 
L 600.075139 301.524953 
L 600.075139 150.512908 
L 595.909049 150.512908 
z
" clip-path="url(#pb923301f11)" style="fill: url(#he078ebc2ee); stroke: #ff7f0e; stroke-width: 2; stroke-linejoin: miter"/>
   </g>
   <g id="patch_106">
    <path d="M 600.810332 301.524953 
L 604.976422 301.524953 
L 604.976422 149.563146 
L 600.810332 149.563146 
z
" clip-path="url(#pb923301f11)" style="fill: url(#he078ebc2ee); stroke: #ff7f0e; stroke-width: 2; stroke-linejoin: miter"/>
   </g>
   <g id="patch_107">
    <path d="M 605.711615 301.524953 
L 609.877705 301.524953 
L 609.877705 148.613385 
L 605.711615 148.613385 
z
" clip-path="url(#pb923301f11)" style="fill: url(#he078ebc2ee); stroke: #ff7f0e; stroke-width: 2; stroke-linejoin: miter"/>
   </g>
   <g id="patch_108">
    <path d="M 610.612898 301.524953 
L 614.778988 301.524953 
L 614.778988 148.613385 
L 610.612898 148.613385 
z
" clip-path="url(#pb923301f11)" style="fill: url(#he078ebc2ee); stroke: #ff7f0e; stroke-width: 2; stroke-linejoin: miter"/>
   </g>
   <g id="patch_109">
    <path d="M 615.514181 301.524953 
L 619.680271 301.524953 
L 619.680271 145.764101 
L 615.514181 145.764101 
z
" clip-path="url(#pb923301f11)" style="fill: url(#he078ebc2ee); stroke: #ff7f0e; stroke-width: 2; stroke-linejoin: miter"/>
   </g>
   <g id="patch_110">
    <path d="M 620.415464 301.524953 
L 624.581554 301.524953 
L 624.581554 144.81434 
L 620.415464 144.81434 
z
" clip-path="url(#pb923301f11)" style="fill: url(#he078ebc2ee); stroke: #ff7f0e; stroke-width: 2; stroke-linejoin: miter"/>
   </g>
   <g id="patch_111">
    <path d="M 625.316747 301.524953 
L 629.482837 301.524953 
L 629.482837 144.81434 
L 625.316747 144.81434 
z
" clip-path="url(#pb923301f11)" style="fill: url(#he078ebc2ee); stroke: #ff7f0e; stroke-width: 2; stroke-linejoin: miter"/>
   </g>
   <g id="patch_112">
    <path d="M 630.21803 301.524953 
L 634.38412 301.524953 
L 634.38412 120.120546 
L 630.21803 120.120546 
z
" clip-path="url(#pb923301f11)" style="fill: url(#he078ebc2ee); stroke: #ff7f0e; stroke-width: 2; stroke-linejoin: miter"/>
   </g>
   <g id="patch_113">
    <path d="M 635.119313 301.524953 
L 639.285403 301.524953 
L 639.285403 115.37174 
L 635.119313 115.37174 
z
" clip-path="url(#pb923301f11)" style="fill: url(#he078ebc2ee); stroke: #ff7f0e; stroke-width: 2; stroke-linejoin: miter"/>
   </g>
   <g id="patch_114">
    <path d="M 640.020596 301.524953 
L 644.186686 301.524953 
L 644.186686 59.335824 
L 640.020596 59.335824 
z
" clip-path="url(#pb923301f11)" style="fill: url(#he078ebc2ee); stroke: #ff7f0e; stroke-width: 2; stroke-linejoin: miter"/>
   </g>
   <g id="patch_115">
    <path d="M 644.921879 301.524953 
L 649.087969 301.524953 
L 649.087969 51.737733 
L 644.921879 51.737733 
z
" clip-path="url(#pb923301f11)" style="fill: url(#he078ebc2ee); stroke: #ff7f0e; stroke-width: 2; stroke-linejoin: miter"/>
   </g>
   <g id="patch_116">
    <path d="M 649.823162 301.524953 
L 653.989252 301.524953 
L 653.989252 51.737733 
L 649.823162 51.737733 
z
" clip-path="url(#pb923301f11)" style="fill: url(#he078ebc2ee); stroke: #ff7f0e; stroke-width: 2; stroke-linejoin: miter"/>
   </g>
   <g id="patch_117">
    <path d="M 654.724445 301.524953 
L 658.890535 301.524953 
L 658.890535 49.838211 
L 654.724445 49.838211 
z
" clip-path="url(#pb923301f11)" style="fill: url(#he078ebc2ee); stroke: #ff7f0e; stroke-width: 2; stroke-linejoin: miter"/>
   </g>
   <g id="patch_118">
    <path d="M 659.625728 301.524953 
L 663.791818 301.524953 
L 663.791818 47.938688 
L 659.625728 47.938688 
z
" clip-path="url(#pb923301f11)" style="fill: url(#he078ebc2ee); stroke: #ff7f0e; stroke-width: 2; stroke-linejoin: miter"/>
   </g>
   <g id="line2d_26">
    <path d="M 67.5875 155.261714 
L 692.1825 155.261714 
" clip-path="url(#pb923301f11)" style="fill: none; stroke-dasharray: 4.44,1.92; stroke-dashoffset: 0; stroke: #f58518; stroke-width: 1.2"/>
   </g>
   <g id="patch_119">
    <path d="M 67.5875 301.524953 
L 67.5875 35.259375 
" style="fill: none; stroke: #808080; stroke-width: 0.8; stroke-linejoin: miter; stroke-linecap: square"/>
   </g>
   <g id="patch_120">
    <path d="M 67.5875 301.524953 
L 692.1825 301.524953 
" style="fill: none; stroke: #808080; stroke-width: 0.8; stroke-linejoin: miter; stroke-linecap: square"/>
   </g>
   <g id="text_23">
    <text style="font: 22px 'PingFang SC', 'Heiti SC', 'STHeiti', 'Calibri', 'Arial', 'Helvetica Neue', 'Arial Unicode MS', 'Noto Sans CJK SC', 'DejaVu Sans', sans-serif; text-anchor: middle" x="379.885" y="29.259375" transform="rotate(-0 379.885 29.259375)">排序条形 · Health temp (C)</text>
   </g>
   <g id="legend_1">
    <g id="patch_121">
     <path d="M 75.9875 62.019375 
L 190.120625 62.019375 
Q 192.520625 62.019375 192.520625 59.619375 
L 192.520625 43.659375 
Q 192.520625 41.259375 190.120625 41.259375 
L 75.9875 41.259375 
Q 73.5875 41.259375 73.5875 43.659375 
L 73.5875 59.619375 
Q 73.5875 62.019375 75.9875 62.019375 
z
" style="fill: #ffffff; opacity: 0.5; stroke: #cccccc; stroke-linejoin: miter"/>
    </g>
    <g id="line2d_27">
     <path d="M 78.3875 51.410625 
L 90.3875 51.410625 
L 102.3875 51.410625 
" style="fill: none; stroke-dasharray: 4.44,1.92; stroke-dashoffset: 0; stroke: #f58518; stroke-width: 1.2"/>
    </g>
    <g id="text_24">
     <text style="font: 12px 'PingFang SC', 'Heiti SC', 'STHeiti', 'Calibri', 'Arial', 'Helvetica Neue', 'Arial Unicode MS', 'Noto Sans CJK SC', 'DejaVu Sans', sans-serif; text-anchor: start" x="111.9875" y="55.610625" transform="rotate(-0 111.9875 55.610625)">median=38.5</text>
    </g>
   </g>
  </g>
 </g>
 <defs>
  <clipPath id="pb923301f11">
   <rect x="67.5875" y="35.259375" width="624.595" height="266.265578"/>
  </clipPath>
 </defs>
 <defs>
  <pattern id="h29a23745d0" patternUnits="userSpaceOnUse" x="0" y="0" width="72" height="72">
   <rect x="0" y="0" width="73" height="73" fill="none"/>
   <path d="M -36 36 
L 36 -36 
M -30 42 
L 42 -30 
M -24 48 
L 48 -24 
M -18 54 
L 54 -18 
M -12 60 
L 60 -12 
M -6 66 
L 66 -6 
M 0 72 
L 72 0 
M 6 78 
L 78 6 
M 12 84 
L 84 12 
M 18 90 
L 90 18 
M 24 96 
L 96 24 
M 30 102 
L 102 30 
M 36 108 
L 108 36 
M -36 36 
L 36 108 
M -30 30 
L 42 102 
M -24 24 
L 48 96 
M -18 18 
L 54 90 
M -12 12 
L 60 84 
M -6 6 
L 66 78 
M 0 0 
L 72 72 
M 6 -6 
L 78 66 
M 12 -12 
L 84 60 
M 18 -18 
L 90 54 
M 24 -24 
L 96 48 
M 30 -30 
L 102 42 
M 36 -36 
L 108 36 
" style="fill: #2ca02c; stroke: #2ca02c; stroke-width: 1.0; stroke-linecap: butt; stroke-linejoin: miter"/>
  </pattern>
  <pattern id="he078ebc2ee" patternUnits="userSpaceOnUse" x="0" y="0" width="72" height="72">
   <rect x="0" y="0" width="73" height="73" fill="none"/>
   <path d="M -36 36 
L 36 -36 
M -30 42 
L 42 -30 
M -24 48 
L 48 -24 
M -18 54 
L 54 -18 
M -12 60 
L 60 -12 
M -6 66 
L 66 -6 
M 0 72 
L 72 0 
M 6 78 
L 78 6 
M 12 84 
L 84 12 
M 18 90 
L 90 18 
M 24 96 
L 96 24 
M 30 102 
L 102 30 
M 36 108 
L 108 36 
" style="fill: #ff7f0e; stroke: #ff7f0e; stroke-width: 1.0; stroke-linecap: butt; stroke-linejoin: miter"/>
  </pattern>
 </defs>
</svg>
