<?xml version="1.0" encoding="utf-8" standalone="no"?>
<!DOCTYPE svg PUBLIC "-//W3C//DTD SVG 1.1//EN"
  "http://www.w3.org/Graphics/SVG/1.1/DTD/svg11.dtd">
<svg xmlns:xlink="http://www.w3.org/1999/xlink" width="702.748125pt" height="342.894478pt" viewBox="0 0 702.748125 342.894478" xmlns="http://www.w3.org/2000/svg" version="1.1">
 <metadata>
  <rdf:RDF xmlns:dc="http://purl.org/dc/elements/1.1/" xmlns:cc="http://creativecommons.org/ns#" xmlns:rdf="http://www.w3.org/1999/02/22-rdf-syntax-ns#">
   <cc:Work>
    <dc:type rdf:resource="http://purl.org/dc/dcmitype/StillImage"/>
    <dc:date>2026-07-11T23:31:18.865086</dc:date>
    <dc:format>image/svg+xml</dc:format>
    <dc:creator>
     <cc:Agent>
      <dc:title>Matplotlib v3.9.4, https://matplotlib.org/</dc:title>
     </cc:Agent>
    </dc:creator>
   </cc:Work>
  </rdf:RDF>
 </metadata>
 <defs>
  <style type="text/css">*{stroke-linejoin: round; stroke-linecap: butt}</style>
 </defs>
 <g id="figure_1">
  <g id="patch_1">
   <path d="M 0 342.894478 
L 702.748125 342.894478 
L 702.748125 0 
L 0 0 
z
" style="fill: #ffffff"/>
  </g>
  <g id="axes_1">
   <g id="patch_2">
    <path d="M 78.828125 301.546828 
L 691.948125 301.546828 
L 691.948125 34.4 
L 78.828125 34.4 
z
" style="fill: #ffffff"/>
   </g>
   <g id="matplotlib.axis_1">
    <g id="xtick_1">
     <g id="line2d_1">
      <defs>
       <path id="m10224cbd75" d="M 0 0 
L 0 3.5 
" style="stroke: #808080; stroke-width: 0.8"/>
      </defs>
      <g>
       <use xlink:href="#m10224cbd75" x="108.759796" y="301.546828" style="fill: #808080; stroke: #808080; stroke-width: 0.8"/>
      </g>
     </g>
     <g id="text_1">
      <text style="fill: #808080; font: 9px 'PingFang SC', 'Heiti SC', 'STHeiti', 'Calibri', 'Arial', 'Helvetica Neue', 'Arial Unicode MS', 'Noto Sans CJK SC', 'DejaVu Sans', sans-serif" transform="translate(90.277461 331.241309) rotate(-45)">w14.5</text>
     </g>
    </g>
    <g id="xtick_2">
     <g id="line2d_2">
      <g>
       <use xlink:href="#m10224cbd75" x="142.731696" y="301.546828" style="fill: #808080; stroke: #808080; stroke-width: 0.8"/>
      </g>
     </g>
     <g id="text_2">
      <text style="fill: #808080; font: 9px 'PingFang SC', 'Heiti SC', 'STHeiti', 'Calibri', 'Arial', 'Helvetica Neue', 'Arial Unicode MS', 'Noto Sans CJK SC', 'DejaVu Sans', sans-serif" transform="translate(127.775393 327.715277) rotate(-45)">w1.4</text>
     </g>
    </g>
    <g id="xtick_3">
     <g id="line2d_3">
      <g>
       <use xlink:href="#m10224cbd75" x="176.703596" y="301.546828" style="fill: #808080; stroke: #808080; stroke-width: 0.8"/>
      </g>
     </g>
     <g id="text_3">
      <text style="fill: #808080; font: 9px 'PingFang SC', 'Heiti SC', 'STHeiti', 'Calibri', 'Arial', 'Helvetica Neue', 'Arial Unicode MS', 'Noto Sans CJK SC', 'DejaVu Sans', sans-serif" transform="translate(161.747293 327.715277) rotate(-45)">w4.3</text>
     </g>
    </g>
    <g id="xtick_4">
     <g id="line2d_4">
      <g>
       <use xlink:href="#m10224cbd75" x="210.675496" y="301.546828" style="fill: #808080; stroke: #808080; stroke-width: 0.8"/>
      </g>
     </g>
     <g id="text_4">
      <text style="fill: #808080; font: 9px 'PingFang SC', 'Heiti SC', 'STHeiti', 'Calibri', 'Arial', 'Helvetica Neue', 'Arial Unicode MS', 'Noto Sans CJK SC', 'DejaVu Sans', sans-serif" transform="translate(195.719193 327.715277) rotate(-45)">w2.5</text>
     </g>
    </g>
    <g id="xtick_5">
     <g id="line2d_5">
      <g>
       <use xlink:href="#m10224cbd75" x="244.647396" y="301.546828" style="fill: #808080; stroke: #808080; stroke-width: 0.8"/>
      </g>
     </g>
     <g id="text_5">
      <text style="fill: #808080; font: 9px 'PingFang SC', 'Heiti SC', 'STHeiti', 'Calibri', 'Arial', 'Helvetica Neue', 'Arial Unicode MS', 'Noto Sans CJK SC', 'DejaVu Sans', sans-serif" transform="translate(229.691093 327.715277) rotate(-45)">w4.1</text>
     </g>
    </g>
    <g id="xtick_6">
     <g id="line2d_6">
      <g>
       <use xlink:href="#m10224cbd75" x="278.619296" y="301.546828" style="fill: #808080; stroke: #808080; stroke-width: 0.8"/>
      </g>
     </g>
     <g id="text_6">
      <text style="fill: #808080; font: 9px 'PingFang SC', 'Heiti SC', 'STHeiti', 'Calibri', 'Arial', 'Helvetica Neue', 'Arial Unicode MS', 'Noto Sans CJK SC', 'DejaVu Sans', sans-serif" transform="translate(263.662993 327.715277) rotate(-45)">w3.2</text>
     </g>
    </g>
    <g id="xtick_7">
     <g id="line2d_7">
      <g>
       <use xlink:href="#m10224cbd75" x="312.591196" y="301.546828" style="fill: #808080; stroke: #808080; stroke-width: 0.8"/>
      </g>
     </g>
     <g id="text_7">
      <text style="fill: #808080; font: 9px 'PingFang SC', 'Heiti SC', 'STHeiti', 'Calibri', 'Arial', 'Helvetica Neue', 'Arial Unicode MS', 'Noto Sans CJK SC', 'DejaVu Sans', sans-serif" transform="translate(297.634893 327.715277) rotate(-45)">w0.1</text>
     </g>
    </g>
    <g id="xtick_8">
     <g id="line2d_8">
      <g>
       <use xlink:href="#m10224cbd75" x="346.563096" y="301.546828" style="fill: #808080; stroke: #808080; stroke-width: 0.8"/>
      </g>
     </g>
     <g id="text_8">
      <text style="fill: #808080; font: 9px 'PingFang SC', 'Heiti SC', 'STHeiti', 'Calibri', 'Arial', 'Helvetica Neue', 'Arial Unicode MS', 'Noto Sans CJK SC', 'DejaVu Sans', sans-serif" transform="translate(331.606794 327.715277) rotate(-45)">w1.1</text>
     </g>
    </g>
    <g id="xtick_9">
     <g id="line2d_9">
      <g>
       <use xlink:href="#m10224cbd75" x="380.534996" y="301.546828" style="fill: #808080; stroke: #808080; stroke-width: 0.8"/>
      </g>
     </g>
     <g id="text_9">
      <text style="fill: #808080; font: 9px 'PingFang SC', 'Heiti SC', 'STHeiti', 'Calibri', 'Arial', 'Helvetica Neue', 'Arial Unicode MS', 'Noto Sans CJK SC', 'DejaVu Sans', sans-serif" transform="translate(362.052661 331.241309) rotate(-45)">w10.3</text>
     </g>
    </g>
    <g id="xtick_10">
     <g id="line2d_10">
      <g>
       <use xlink:href="#m10224cbd75" x="414.506897" y="301.546828" style="fill: #808080; stroke: #808080; stroke-width: 0.8"/>
      </g>
     </g>
     <g id="text_10">
      <text style="fill: #808080; font: 9px 'PingFang SC', 'Heiti SC', 'STHeiti', 'Calibri', 'Arial', 'Helvetica Neue', 'Arial Unicode MS', 'Noto Sans CJK SC', 'DejaVu Sans', sans-serif" transform="translate(396.024562 331.241309) rotate(-45)">w11.7</text>
     </g>
    </g>
    <g id="xtick_11">
     <g id="line2d_11">
      <g>
       <use xlink:href="#m10224cbd75" x="448.478797" y="301.546828" style="fill: #808080; stroke: #808080; stroke-width: 0.8"/>
      </g>
     </g>
     <g id="text_11">
      <text style="fill: #808080; font: 9px 'PingFang SC', 'Heiti SC', 'STHeiti', 'Calibri', 'Arial', 'Helvetica Neue', 'Arial Unicode MS', 'Noto Sans CJK SC', 'DejaVu Sans', sans-serif" transform="translate(429.996462 331.241309) rotate(-45)">w13.4</text>
     </g>
    </g>
    <g id="xtick_12">
     <g id="line2d_12">
      <g>
       <use xlink:href="#m10224cbd75" x="482.450697" y="301.546828" style="fill: #808080; stroke: #808080; stroke-width: 0.8"/>
      </g>
     </g>
     <g id="text_12">
      <text style="fill: #808080; font: 9px 'PingFang SC', 'Heiti SC', 'STHeiti', 'Calibri', 'Arial', 'Helvetica Neue', 'Arial Unicode MS', 'Noto Sans CJK SC', 'DejaVu Sans', sans-serif" transform="translate(463.968362 331.241309) rotate(-45)">w14.7</text>
     </g>
    </g>
    <g id="xtick_13">
     <g id="line2d_13">
      <g>
       <use xlink:href="#m10224cbd75" x="516.422597" y="301.546828" style="fill: #808080; stroke: #808080; stroke-width: 0.8"/>
      </g>
     </g>
     <g id="text_13">
      <text style="fill: #808080; font: 9px 'PingFang SC', 'Heiti SC', 'STHeiti', 'Calibri', 'Arial', 'Helvetica Neue', 'Arial Unicode MS', 'Noto Sans CJK SC', 'DejaVu Sans', sans-serif" transform="translate(501.466294 327.715277) rotate(-45)">w3.3</text>
     </g>
    </g>
    <g id="xtick_14">
     <g id="line2d_14">
      <g>
       <use xlink:href="#m10224cbd75" x="550.394497" y="301.546828" style="fill: #808080; stroke: #808080; stroke-width: 0.8"/>
      </g>
     </g>
     <g id="text_14">
      <text style="fill: #808080; font: 9px 'PingFang SC', 'Heiti SC', 'STHeiti', 'Calibri', 'Arial', 'Helvetica Neue', 'Arial Unicode MS', 'Noto Sans CJK SC', 'DejaVu Sans', sans-serif" transform="translate(535.438194 327.715277) rotate(-45)">w4.4</text>
     </g>
    </g>
    <g id="xtick_15">
     <g id="line2d_15">
      <g>
       <use xlink:href="#m10224cbd75" x="584.366397" y="301.546828" style="fill: #808080; stroke: #808080; stroke-width: 0.8"/>
      </g>
     </g>
     <g id="text_15">
      <text style="fill: #808080; font: 9px 'PingFang SC', 'Heiti SC', 'STHeiti', 'Calibri', 'Arial', 'Helvetica Neue', 'Arial Unicode MS', 'Noto Sans CJK SC', 'DejaVu Sans', sans-serif" transform="translate(569.410094 327.715277) rotate(-45)">w6.3</text>
     </g>
    </g>
    <g id="xtick_16">
     <g id="line2d_16">
      <g>
       <use xlink:href="#m10224cbd75" x="618.338297" y="301.546828" style="fill: #808080; stroke: #808080; stroke-width: 0.8"/>
      </g>
     </g>
     <g id="text_16">
      <text style="fill: #808080; font: 9px 'PingFang SC', 'Heiti SC', 'STHeiti', 'Calibri', 'Arial', 'Helvetica Neue', 'Arial Unicode MS', 'Noto Sans CJK SC', 'DejaVu Sans', sans-serif" transform="translate(603.381994 327.715277) rotate(-45)">w8.3</text>
     </g>
    </g>
    <g id="xtick_17">
     <g id="line2d_17">
      <g>
       <use xlink:href="#m10224cbd75" x="652.310197" y="301.546828" style="fill: #808080; stroke: #808080; stroke-width: 0.8"/>
      </g>
     </g>
     <g id="text_17">
      <text style="fill: #808080; font: 9px 'PingFang SC', 'Heiti SC', 'STHeiti', 'Calibri', 'Arial', 'Helvetica Neue', 'Arial Unicode MS', 'Noto Sans CJK SC', 'DejaVu Sans', sans-serif" transform="translate(637.353894 327.715277) rotate(-45)">w9.5</text>
     </g>
    </g>
   </g>
   <g id="matplotlib.axis_2">
    <g id="ytick_1">
     <g id="line2d_18">
      <path d="M 78.828125 301.546828 
L 691.948125 301.546828 
" clip-path="url(#p3165a84abe)" style="fill: none; stroke-dasharray: 1,1.65; stroke-dashoffset: 0; stroke: #808080; stroke-opacity: 0.55"/>
     </g>
     <g id="line2d_19">
      <defs>
       <path id="m749ca35bc4" d="M 0 0 
L -3.5 0 
" style="stroke: #808080; stroke-width: 0.8"/>
      </defs>
      <g>
       <use xlink:href="#m749ca35bc4" x="78.828125" y="301.546828" style="fill: #808080; stroke: #808080; stroke-width: 0.8"/>
      </g>
     </g>
     <g id="text_18">
      <text style="fill: #808080; font: 22px 'PingFang SC', 'Heiti SC', 'STHeiti', 'Calibri', 'Arial', 'Helvetica Neue', 'Arial Unicode MS', 'Noto Sans CJK SC', 'DejaVu Sans', sans-serif; text-anchor: end" x="71.828125" y="310.30214" transform="rotate(-0 71.828125 310.30214)">0</text>
     </g>
    </g>
    <g id="ytick_2">
     <g id="line2d_20">
      <path d="M 78.828125 249.623246 
L 691.948125 249.623246 
" clip-path="url(#p3165a84abe)" style="fill: none; stroke-dasharray: 1,1.65; stroke-dashoffset: 0; stroke: #808080; stroke-opacity: 0.55"/>
     </g>
     <g id="line2d_21">
      <g>
       <use xlink:href="#m749ca35bc4" x="78.828125" y="249.623246" style="fill: #808080; stroke: #808080; stroke-width: 0.8"/>
      </g>
     </g>
     <g id="text_19">
      <text style="fill: #808080; font: 22px 'PingFang SC', 'Heiti SC', 'STHeiti', 'Calibri', 'Arial', 'Helvetica Neue', 'Arial Unicode MS', 'Noto Sans CJK SC', 'DejaVu Sans', sans-serif; text-anchor: end" x="71.828125" y="258.378559" transform="rotate(-0 71.828125 258.378559)">20</text>
     </g>
    </g>
    <g id="ytick_3">
     <g id="line2d_22">
      <path d="M 78.828125 197.699664 
L 691.948125 197.699664 
" clip-path="url(#p3165a84abe)" style="fill: none; stroke-dasharray: 1,1.65; stroke-dashoffset: 0; stroke: #808080; stroke-opacity: 0.55"/>
     </g>
     <g id="line2d_23">
      <g>
       <use xlink:href="#m749ca35bc4" x="78.828125" y="197.699664" style="fill: #808080; stroke: #808080; stroke-width: 0.8"/>
      </g>
     </g>
     <g id="text_20">
      <text style="fill: #808080; font: 22px 'PingFang SC', 'Heiti SC', 'STHeiti', 'Calibri', 'Arial', 'Helvetica Neue', 'Arial Unicode MS', 'Noto Sans CJK SC', 'DejaVu Sans', sans-serif; text-anchor: end" x="71.828125" y="206.454977" transform="rotate(-0 71.828125 206.454977)">40</text>
     </g>
    </g>
    <g id="ytick_4">
     <g id="line2d_24">
      <path d="M 78.828125 145.776083 
L 691.948125 145.776083 
" clip-path="url(#p3165a84abe)" style="fill: none; stroke-dasharray: 1,1.65; stroke-dashoffset: 0; stroke: #808080; stroke-opacity: 0.55"/>
     </g>
     <g id="line2d_25">
      <g>
       <use xlink:href="#m749ca35bc4" x="78.828125" y="145.776083" style="fill: #808080; stroke: #808080; stroke-width: 0.8"/>
      </g>
     </g>
     <g id="text_21">
      <text style="fill: #808080; font: 22px 'PingFang SC', 'Heiti SC', 'STHeiti', 'Calibri', 'Arial', 'Helvetica Neue', 'Arial Unicode MS', 'Noto Sans CJK SC', 'DejaVu Sans', sans-serif; text-anchor: end" x="71.828125" y="154.531395" transform="rotate(-0 71.828125 154.531395)">60</text>
     </g>
    </g>
    <g id="ytick_5">
     <g id="line2d_26">
      <path d="M 78.828125 93.852501 
L 691.948125 93.852501 
" clip-path="url(#p3165a84abe)" style="fill: none; stroke-dasharray: 1,1.65; stroke-dashoffset: 0; stroke: #808080; stroke-opacity: 0.55"/>
     </g>
     <g id="line2d_27">
      <g>
       <use xlink:href="#m749ca35bc4" x="78.828125" y="93.852501" style="fill: #808080; stroke: #808080; stroke-width: 0.8"/>
      </g>
     </g>
     <g id="text_22">
      <text style="fill: #808080; font: 22px 'PingFang SC', 'Heiti SC', 'STHeiti', 'Calibri', 'Arial', 'Helvetica Neue', 'Arial Unicode MS', 'Noto Sans CJK SC', 'DejaVu Sans', sans-serif; text-anchor: end" x="71.828125" y="102.607814" transform="rotate(-0 71.828125 102.607814)">80</text>
     </g>
    </g>
    <g id="ytick_6">
     <g id="line2d_28">
      <path d="M 78.828125 41.928919 
L 691.948125 41.928919 
" clip-path="url(#p3165a84abe)" style="fill: none; stroke-dasharray: 1,1.65; stroke-dashoffset: 0; stroke: #808080; stroke-opacity: 0.55"/>
     </g>
     <g id="line2d_29">
      <g>
       <use xlink:href="#m749ca35bc4" x="78.828125" y="41.928919" style="fill: #808080; stroke: #808080; stroke-width: 0.8"/>
      </g>
     </g>
     <g id="text_23">
      <text style="fill: #808080; font: 22px 'PingFang SC', 'Heiti SC', 'STHeiti', 'Calibri', 'Arial', 'Helvetica Neue', 'Arial Unicode MS', 'Noto Sans CJK SC', 'DejaVu Sans', sans-serif; text-anchor: end" x="71.828125" y="50.684232" transform="rotate(-0 71.828125 50.684232)">100</text>
     </g>
    </g>
    <g id="text_24">
     <text style="font: 22px 'PingFang SC', 'Heiti SC', 'STHeiti', 'Calibri', 'Arial', 'Helvetica Neue', 'Arial Unicode MS', 'Noto Sans CJK SC', 'DejaVu Sans', sans-serif; text-anchor: middle" x="28.310625" y="167.973414" transform="rotate(-90 28.310625 167.973414)">GPU util %</text>
    </g>
   </g>
   <g id="patch_3">
    <path d="M 106.697216 301.546828 
L 110.822375 301.546828 
L 110.822375 301.546828 
L 106.697216 301.546828 
z
" clip-path="url(#p3165a84abe)" style="fill: url(#h4b97fd15b5); stroke: #2ca02c; stroke-width: 2; stroke-linejoin: miter"/>
   </g>
   <g id="patch_4">
    <path d="M 111.550344 301.546828 
L 115.675504 301.546828 
L 115.675504 301.546828 
L 111.550344 301.546828 
z
" clip-path="url(#p3165a84abe)" style="fill: url(#h4b97fd15b5); stroke: #2ca02c; stroke-width: 2; stroke-linejoin: miter"/>
   </g>
   <g id="patch_5">
    <path d="M 116.403473 301.546828 
L 120.528632 301.546828 
L 120.528632 301.546828 
L 116.403473 301.546828 
z
" clip-path="url(#p3165a84abe)" style="fill: url(#h4b97fd15b5); stroke: #2ca02c; stroke-width: 2; stroke-linejoin: miter"/>
   </g>
   <g id="patch_6">
    <path d="M 121.256602 301.546828 
L 125.381761 301.546828 
L 125.381761 301.546828 
L 121.256602 301.546828 
z
" clip-path="url(#p3165a84abe)" style="fill: url(#h4b97fd15b5); stroke: #2ca02c; stroke-width: 2; stroke-linejoin: miter"/>
   </g>
   <g id="patch_7">
    <path d="M 126.10973 301.546828 
L 130.23489 301.546828 
L 130.23489 301.546828 
L 126.10973 301.546828 
z
" clip-path="url(#p3165a84abe)" style="fill: url(#h4b97fd15b5); stroke: #2ca02c; stroke-width: 2; stroke-linejoin: miter"/>
   </g>
   <g id="patch_8">
    <path d="M 130.962859 301.546828 
L 135.088018 301.546828 
L 135.088018 298.950649 
L 130.962859 298.950649 
z
" clip-path="url(#p3165a84abe)" style="fill: url(#h4b97fd15b5); stroke: #2ca02c; stroke-width: 2; stroke-linejoin: miter"/>
   </g>
   <g id="patch_9">
    <path d="M 135.815987 301.546828 
L 139.941147 301.546828 
L 139.941147 293.75829 
L 135.815987 293.75829 
z
" clip-path="url(#p3165a84abe)" style="fill: url(#h4b97fd15b5); stroke: #2ca02c; stroke-width: 2; stroke-linejoin: miter"/>
   </g>
   <g id="patch_10">
    <path d="M 140.669116 301.546828 
L 144.794275 301.546828 
L 144.794275 291.162111 
L 140.669116 291.162111 
z
" clip-path="url(#p3165a84abe)" style="fill: url(#h4b97fd15b5); stroke: #2ca02c; stroke-width: 2; stroke-linejoin: miter"/>
   </g>
   <g id="patch_11">
    <path d="M 145.522245 301.546828 
L 149.647404 301.546828 
L 149.647404 285.969753 
L 145.522245 285.969753 
z
" clip-path="url(#p3165a84abe)" style="fill: url(#h4b97fd15b5); stroke: #2ca02c; stroke-width: 2; stroke-linejoin: miter"/>
   </g>
   <g id="patch_12">
    <path d="M 150.375373 301.546828 
L 154.500532 301.546828 
L 154.500532 283.373574 
L 150.375373 283.373574 
z
" clip-path="url(#p3165a84abe)" style="fill: url(#h4b97fd15b5); stroke: #2ca02c; stroke-width: 2; stroke-linejoin: miter"/>
   </g>
   <g id="patch_13">
    <path d="M 155.228502 301.546828 
L 159.353661 301.546828 
L 159.353661 267.7965 
L 155.228502 267.7965 
z
" clip-path="url(#p3165a84abe)" style="fill: url(#h4b97fd15b5); stroke: #2ca02c; stroke-width: 2; stroke-linejoin: miter"/>
   </g>
   <g id="patch_14">
    <path d="M 160.08163 301.546828 
L 164.20679 301.546828 
L 164.20679 252.219425 
L 160.08163 252.219425 
z
" clip-path="url(#p3165a84abe)" style="fill: url(#h4b97fd15b5); stroke: #2ca02c; stroke-width: 2; stroke-linejoin: miter"/>
   </g>
   <g id="patch_15">
    <path d="M 164.934759 301.546828 
L 169.059918 301.546828 
L 169.059918 249.623246 
L 164.934759 249.623246 
z
" clip-path="url(#p3165a84abe)" style="fill: url(#h4b97fd15b5); stroke: #2ca02c; stroke-width: 2; stroke-linejoin: miter"/>
   </g>
   <g id="patch_16">
    <path d="M 169.787888 301.546828 
L 173.913047 301.546828 
L 173.913047 226.257634 
L 169.787888 226.257634 
z
" clip-path="url(#p3165a84abe)" style="fill: url(#h4b97fd15b5); stroke: #2ca02c; stroke-width: 2; stroke-linejoin: miter"/>
   </g>
   <g id="patch_17">
    <path d="M 174.641016 301.546828 
L 178.766175 301.546828 
L 178.766175 218.469097 
L 174.641016 218.469097 
z
" clip-path="url(#p3165a84abe)" style="fill: url(#h4b97fd15b5); stroke: #2ca02c; stroke-width: 2; stroke-linejoin: miter"/>
   </g>
   <g id="patch_18">
    <path d="M 179.494145 301.546828 
L 183.619304 301.546828 
L 183.619304 210.68056 
L 179.494145 210.68056 
z
" clip-path="url(#p3165a84abe)" style="fill: url(#h4b97fd15b5); stroke: #2ca02c; stroke-width: 2; stroke-linejoin: miter"/>
   </g>
   <g id="patch_19">
    <path d="M 184.347273 301.546828 
L 188.472433 301.546828 
L 188.472433 192.507306 
L 184.347273 192.507306 
z
" clip-path="url(#p3165a84abe)" style="fill: url(#h4b97fd15b5); stroke: #2ca02c; stroke-width: 2; stroke-linejoin: miter"/>
   </g>
   <g id="patch_20">
    <path d="M 189.200402 301.546828 
L 193.325561 301.546828 
L 193.325561 176.930232 
L 189.200402 176.930232 
z
" clip-path="url(#p3165a84abe)" style="fill: url(#h4b97fd15b5); stroke: #2ca02c; stroke-width: 2; stroke-linejoin: miter"/>
   </g>
   <g id="patch_21">
    <path d="M 194.05353 301.546828 
L 198.17869 301.546828 
L 198.17869 176.930232 
L 194.05353 176.930232 
z
" clip-path="url(#p3165a84abe)" style="fill: url(#h4b97fd15b5); stroke: #2ca02c; stroke-width: 2; stroke-linejoin: miter"/>
   </g>
   <g id="patch_22">
    <path d="M 198.906659 301.546828 
L 203.031818 301.546828 
L 203.031818 150.968441 
L 198.906659 150.968441 
z
" clip-path="url(#p3165a84abe)" style="fill: url(#h4b97fd15b5); stroke: #2ca02c; stroke-width: 2; stroke-linejoin: miter"/>
   </g>
   <g id="patch_23">
    <path d="M 203.759788 301.546828 
L 207.884947 301.546828 
L 207.884947 137.987545 
L 203.759788 137.987545 
z
" clip-path="url(#p3165a84abe)" style="fill: url(#h4b97fd15b5); stroke: #2ca02c; stroke-width: 2; stroke-linejoin: miter"/>
   </g>
   <g id="patch_24">
    <path d="M 208.612916 301.546828 
L 212.738076 301.546828 
L 212.738076 130.199008 
L 208.612916 130.199008 
z
" clip-path="url(#p3165a84abe)" style="fill: url(#h4b97fd15b5); stroke: #2ca02c; stroke-width: 2; stroke-linejoin: miter"/>
   </g>
   <g id="patch_25">
    <path d="M 213.466045 301.546828 
L 217.591204 301.546828 
L 217.591204 114.621934 
L 213.466045 114.621934 
z
" clip-path="url(#p3165a84abe)" style="fill: url(#h4b97fd15b5); stroke: #2ca02c; stroke-width: 2; stroke-linejoin: miter"/>
   </g>
   <g id="patch_26">
    <path d="M 218.319173 301.546828 
L 222.444333 301.546828 
L 222.444333 112.025755 
L 218.319173 112.025755 
z
" clip-path="url(#p3165a84abe)" style="fill: url(#h4b97fd15b5); stroke: #2ca02c; stroke-width: 2; stroke-linejoin: miter"/>
   </g>
   <g id="patch_27">
    <path d="M 223.172302 301.546828 
L 227.297461 301.546828 
L 227.297461 112.025755 
L 223.172302 112.025755 
z
" clip-path="url(#p3165a84abe)" style="fill: url(#h4b97fd15b5); stroke: #2ca02c; stroke-width: 2; stroke-linejoin: miter"/>
   </g>
   <g id="patch_28">
    <path d="M 228.025431 301.546828 
L 232.15059 301.546828 
L 232.15059 109.429576 
L 228.025431 109.429576 
z
" clip-path="url(#p3165a84abe)" style="fill: url(#h4b97fd15b5); stroke: #2ca02c; stroke-width: 2; stroke-linejoin: miter"/>
   </g>
   <g id="patch_29">
    <path d="M 232.878559 301.546828 
L 237.003718 301.546828 
L 237.003718 99.044859 
L 232.878559 99.044859 
z
" clip-path="url(#p3165a84abe)" style="fill: url(#h4b97fd15b5); stroke: #2ca02c; stroke-width: 2; stroke-linejoin: miter"/>
   </g>
   <g id="patch_30">
    <path d="M 237.731688 301.546828 
L 241.856847 301.546828 
L 241.856847 93.852501 
L 237.731688 93.852501 
z
" clip-path="url(#p3165a84abe)" style="fill: url(#h4b97fd15b5); stroke: #2ca02c; stroke-width: 2; stroke-linejoin: miter"/>
   </g>
   <g id="patch_31">
    <path d="M 242.584816 301.546828 
L 246.709976 301.546828 
L 246.709976 93.852501 
L 242.584816 93.852501 
z
" clip-path="url(#p3165a84abe)" style="fill: url(#h4b97fd15b5); stroke: #2ca02c; stroke-width: 2; stroke-linejoin: miter"/>
   </g>
   <g id="patch_32">
    <path d="M 247.437945 301.546828 
L 251.563104 301.546828 
L 251.563104 88.660143 
L 247.437945 88.660143 
z
" clip-path="url(#p3165a84abe)" style="fill: url(#h4b97fd15b5); stroke: #2ca02c; stroke-width: 2; stroke-linejoin: miter"/>
   </g>
   <g id="patch_33">
    <path d="M 252.291074 301.546828 
L 256.416233 301.546828 
L 256.416233 88.660143 
L 252.291074 88.660143 
z
" clip-path="url(#p3165a84abe)" style="fill: url(#h4b97fd15b5); stroke: #2ca02c; stroke-width: 2; stroke-linejoin: miter"/>
   </g>
   <g id="patch_34">
    <path d="M 257.144202 301.546828 
L 261.269361 301.546828 
L 261.269361 80.871606 
L 257.144202 80.871606 
z
" clip-path="url(#p3165a84abe)" style="fill: url(#h4b97fd15b5); stroke: #2ca02c; stroke-width: 2; stroke-linejoin: miter"/>
   </g>
   <g id="patch_35">
    <path d="M 261.997331 301.546828 
L 266.12249 301.546828 
L 266.12249 70.486889 
L 261.997331 70.486889 
z
" clip-path="url(#p3165a84abe)" style="fill: url(#h4b97fd15b5); stroke: #2ca02c; stroke-width: 2; stroke-linejoin: miter"/>
   </g>
   <g id="patch_36">
    <path d="M 266.850459 301.546828 
L 270.975619 301.546828 
L 270.975619 70.486889 
L 266.850459 70.486889 
z
" clip-path="url(#p3165a84abe)" style="fill: url(#h4b97fd15b5); stroke: #2ca02c; stroke-width: 2; stroke-linejoin: miter"/>
   </g>
   <g id="patch_37">
    <path d="M 271.703588 301.546828 
L 275.828747 301.546828 
L 275.828747 70.486889 
L 271.703588 70.486889 
z
" clip-path="url(#p3165a84abe)" style="fill: url(#h4b97fd15b5); stroke: #2ca02c; stroke-width: 2; stroke-linejoin: miter"/>
   </g>
   <g id="patch_38">
    <path d="M 276.556716 301.546828 
L 280.681876 301.546828 
L 280.681876 60.102173 
L 276.556716 60.102173 
z
" clip-path="url(#p3165a84abe)" style="fill: url(#h4b97fd15b5); stroke: #2ca02c; stroke-width: 2; stroke-linejoin: miter"/>
   </g>
   <g id="patch_39">
    <path d="M 281.409845 301.546828 
L 285.535004 301.546828 
L 285.535004 57.505994 
L 281.409845 57.505994 
z
" clip-path="url(#p3165a84abe)" style="fill: url(#h4b97fd15b5); stroke: #2ca02c; stroke-width: 2; stroke-linejoin: miter"/>
   </g>
   <g id="patch_40">
    <path d="M 286.262974 301.546828 
L 290.388133 301.546828 
L 290.388133 52.313636 
L 286.262974 52.313636 
z
" clip-path="url(#p3165a84abe)" style="fill: url(#h4b97fd15b5); stroke: #2ca02c; stroke-width: 2; stroke-linejoin: miter"/>
   </g>
   <g id="patch_41">
    <path d="M 291.116102 301.546828 
L 295.241262 301.546828 
L 295.241262 47.121278 
L 291.116102 47.121278 
z
" clip-path="url(#p3165a84abe)" style="fill: url(#hdd6c6f9afd); stroke: #ff7f0e; stroke-width: 2; stroke-linejoin: miter"/>
   </g>
   <g id="patch_42">
    <path d="M 295.969231 301.546828 
L 300.09439 301.546828 
L 300.09439 47.121278 
L 295.969231 47.121278 
z
" clip-path="url(#p3165a84abe)" style="fill: url(#hdd6c6f9afd); stroke: #ff7f0e; stroke-width: 2; stroke-linejoin: miter"/>
   </g>
   <g id="patch_43">
    <path d="M 300.822359 301.546828 
L 304.947519 301.546828 
L 304.947519 47.121278 
L 300.822359 47.121278 
z
" clip-path="url(#p3165a84abe)" style="fill: url(#hdd6c6f9afd); stroke: #ff7f0e; stroke-width: 2; stroke-linejoin: miter"/>
   </g>
   <g id="patch_44">
    <path d="M 305.675488 301.546828 
L 309.800647 301.546828 
L 309.800647 47.121278 
L 305.675488 47.121278 
z
" clip-path="url(#p3165a84abe)" style="fill: url(#hdd6c6f9afd); stroke: #ff7f0e; stroke-width: 2; stroke-linejoin: miter"/>
   </g>
   <g id="patch_45">
    <path d="M 310.528617 301.546828 
L 314.653776 301.546828 
L 314.653776 47.121278 
L 310.528617 47.121278 
z
" clip-path="url(#p3165a84abe)" style="fill: url(#hdd6c6f9afd); stroke: #ff7f0e; stroke-width: 2; stroke-linejoin: miter"/>
   </g>
   <g id="patch_46">
    <path d="M 315.381745 301.546828 
L 319.506904 301.546828 
L 319.506904 47.121278 
L 315.381745 47.121278 
z
" clip-path="url(#p3165a84abe)" style="fill: url(#hdd6c6f9afd); stroke: #ff7f0e; stroke-width: 2; stroke-linejoin: miter"/>
   </g>
   <g id="patch_47">
    <path d="M 320.234874 301.546828 
L 324.360033 301.546828 
L 324.360033 47.121278 
L 320.234874 47.121278 
z
" clip-path="url(#p3165a84abe)" style="fill: url(#hdd6c6f9afd); stroke: #ff7f0e; stroke-width: 2; stroke-linejoin: miter"/>
   </g>
   <g id="patch_48">
    <path d="M 325.088002 301.546828 
L 329.213162 301.546828 
L 329.213162 47.121278 
L 325.088002 47.121278 
z
" clip-path="url(#p3165a84abe)" style="fill: url(#hdd6c6f9afd); stroke: #ff7f0e; stroke-width: 2; stroke-linejoin: miter"/>
   </g>
   <g id="patch_49">
    <path d="M 329.941131 301.546828 
L 334.06629 301.546828 
L 334.06629 47.121278 
L 329.941131 47.121278 
z
" clip-path="url(#p3165a84abe)" style="fill: url(#hdd6c6f9afd); stroke: #ff7f0e; stroke-width: 2; stroke-linejoin: miter"/>
   </g>
   <g id="patch_50">
    <path d="M 334.794259 301.546828 
L 338.919419 301.546828 
L 338.919419 47.121278 
L 334.794259 47.121278 
z
" clip-path="url(#p3165a84abe)" style="fill: url(#hdd6c6f9afd); stroke: #ff7f0e; stroke-width: 2; stroke-linejoin: miter"/>
   </g>
   <g id="patch_51">
    <path d="M 339.647388 301.546828 
L 343.772547 301.546828 
L 343.772547 47.121278 
L 339.647388 47.121278 
z
" clip-path="url(#p3165a84abe)" style="fill: url(#hdd6c6f9afd); stroke: #ff7f0e; stroke-width: 2; stroke-linejoin: miter"/>
   </g>
   <g id="patch_52">
    <path d="M 344.500517 301.546828 
L 348.625676 301.546828 
L 348.625676 47.121278 
L 344.500517 47.121278 
z
" clip-path="url(#p3165a84abe)" style="fill: url(#hdd6c6f9afd); stroke: #ff7f0e; stroke-width: 2; stroke-linejoin: miter"/>
   </g>
   <g id="patch_53">
    <path d="M 349.353645 301.546828 
L 353.478805 301.546828 
L 353.478805 47.121278 
L 349.353645 47.121278 
z
" clip-path="url(#p3165a84abe)" style="fill: url(#hdd6c6f9afd); stroke: #ff7f0e; stroke-width: 2; stroke-linejoin: miter"/>
   </g>
   <g id="patch_54">
    <path d="M 354.206774 301.546828 
L 358.331933 301.546828 
L 358.331933 47.121278 
L 354.206774 47.121278 
z
" clip-path="url(#p3165a84abe)" style="fill: url(#hdd6c6f9afd); stroke: #ff7f0e; stroke-width: 2; stroke-linejoin: miter"/>
   </g>
   <g id="patch_55">
    <path d="M 359.059902 301.546828 
L 363.185062 301.546828 
L 363.185062 47.121278 
L 359.059902 47.121278 
z
" clip-path="url(#p3165a84abe)" style="fill: url(#hdd6c6f9afd); stroke: #ff7f0e; stroke-width: 2; stroke-linejoin: miter"/>
   </g>
   <g id="patch_56">
    <path d="M 363.913031 301.546828 
L 368.03819 301.546828 
L 368.03819 47.121278 
L 363.913031 47.121278 
z
" clip-path="url(#p3165a84abe)" style="fill: url(#hdd6c6f9afd); stroke: #ff7f0e; stroke-width: 2; stroke-linejoin: miter"/>
   </g>
   <g id="patch_57">
    <path d="M 368.76616 301.546828 
L 372.891319 301.546828 
L 372.891319 47.121278 
L 368.76616 47.121278 
z
" clip-path="url(#p3165a84abe)" style="fill: url(#hdd6c6f9afd); stroke: #ff7f0e; stroke-width: 2; stroke-linejoin: miter"/>
   </g>
   <g id="patch_58">
    <path d="M 373.619288 301.546828 
L 377.744447 301.546828 
L 377.744447 47.121278 
L 373.619288 47.121278 
z
" clip-path="url(#p3165a84abe)" style="fill: url(#hdd6c6f9afd); stroke: #ff7f0e; stroke-width: 2; stroke-linejoin: miter"/>
   </g>
   <g id="patch_59">
    <path d="M 378.472417 301.546828 
L 382.597576 301.546828 
L 382.597576 47.121278 
L 378.472417 47.121278 
z
" clip-path="url(#p3165a84abe)" style="fill: url(#hdd6c6f9afd); stroke: #ff7f0e; stroke-width: 2; stroke-linejoin: miter"/>
   </g>
   <g id="patch_60">
    <path d="M 383.325545 301.546828 
L 387.450705 301.546828 
L 387.450705 47.121278 
L 383.325545 47.121278 
z
" clip-path="url(#p3165a84abe)" style="fill: url(#hdd6c6f9afd); stroke: #ff7f0e; stroke-width: 2; stroke-linejoin: miter"/>
   </g>
   <g id="patch_61">
    <path d="M 388.178674 301.546828 
L 392.303833 301.546828 
L 392.303833 47.121278 
L 388.178674 47.121278 
z
" clip-path="url(#p3165a84abe)" style="fill: url(#hdd6c6f9afd); stroke: #ff7f0e; stroke-width: 2; stroke-linejoin: miter"/>
   </g>
   <g id="patch_62">
    <path d="M 393.031803 301.546828 
L 397.156962 301.546828 
L 397.156962 47.121278 
L 393.031803 47.121278 
z
" clip-path="url(#p3165a84abe)" style="fill: url(#hdd6c6f9afd); stroke: #ff7f0e; stroke-width: 2; stroke-linejoin: miter"/>
   </g>
   <g id="patch_63">
    <path d="M 397.884931 301.546828 
L 402.01009 301.546828 
L 402.01009 47.121278 
L 397.884931 47.121278 
z
" clip-path="url(#p3165a84abe)" style="fill: url(#hdd6c6f9afd); stroke: #ff7f0e; stroke-width: 2; stroke-linejoin: miter"/>
   </g>
   <g id="patch_64">
    <path d="M 402.73806 301.546828 
L 406.863219 301.546828 
L 406.863219 47.121278 
L 402.73806 47.121278 
z
" clip-path="url(#p3165a84abe)" style="fill: url(#hdd6c6f9afd); stroke: #ff7f0e; stroke-width: 2; stroke-linejoin: miter"/>
   </g>
   <g id="patch_65">
    <path d="M 407.591188 301.546828 
L 411.716348 301.546828 
L 411.716348 47.121278 
L 407.591188 47.121278 
z
" clip-path="url(#p3165a84abe)" style="fill: url(#hdd6c6f9afd); stroke: #ff7f0e; stroke-width: 2; stroke-linejoin: miter"/>
   </g>
   <g id="patch_66">
    <path d="M 412.444317 301.546828 
L 416.569476 301.546828 
L 416.569476 47.121278 
L 412.444317 47.121278 
z
" clip-path="url(#p3165a84abe)" style="fill: url(#hdd6c6f9afd); stroke: #ff7f0e; stroke-width: 2; stroke-linejoin: miter"/>
   </g>
   <g id="patch_67">
    <path d="M 417.297445 301.546828 
L 421.422605 301.546828 
L 421.422605 47.121278 
L 417.297445 47.121278 
z
" clip-path="url(#p3165a84abe)" style="fill: url(#hdd6c6f9afd); stroke: #ff7f0e; stroke-width: 2; stroke-linejoin: miter"/>
   </g>
   <g id="patch_68">
    <path d="M 422.150574 301.546828 
L 426.275733 301.546828 
L 426.275733 47.121278 
L 422.150574 47.121278 
z
" clip-path="url(#p3165a84abe)" style="fill: url(#hdd6c6f9afd); stroke: #ff7f0e; stroke-width: 2; stroke-linejoin: miter"/>
   </g>
   <g id="patch_69">
    <path d="M 427.003703 301.546828 
L 431.128862 301.546828 
L 431.128862 47.121278 
L 427.003703 47.121278 
z
" clip-path="url(#p3165a84abe)" style="fill: url(#hdd6c6f9afd); stroke: #ff7f0e; stroke-width: 2; stroke-linejoin: miter"/>
   </g>
   <g id="patch_70">
    <path d="M 431.856831 301.546828 
L 435.981991 301.546828 
L 435.981991 47.121278 
L 431.856831 47.121278 
z
" clip-path="url(#p3165a84abe)" style="fill: url(#hdd6c6f9afd); stroke: #ff7f0e; stroke-width: 2; stroke-linejoin: miter"/>
   </g>
   <g id="patch_71">
    <path d="M 436.70996 301.546828 
L 440.835119 301.546828 
L 440.835119 47.121278 
L 436.70996 47.121278 
z
" clip-path="url(#p3165a84abe)" style="fill: url(#hdd6c6f9afd); stroke: #ff7f0e; stroke-width: 2; stroke-linejoin: miter"/>
   </g>
   <g id="patch_72">
    <path d="M 441.563088 301.546828 
L 445.688248 301.546828 
L 445.688248 47.121278 
L 441.563088 47.121278 
z
" clip-path="url(#p3165a84abe)" style="fill: url(#hdd6c6f9afd); stroke: #ff7f0e; stroke-width: 2; stroke-linejoin: miter"/>
   </g>
   <g id="patch_73">
    <path d="M 446.416217 301.546828 
L 450.541376 301.546828 
L 450.541376 47.121278 
L 446.416217 47.121278 
z
" clip-path="url(#p3165a84abe)" style="fill: url(#hdd6c6f9afd); stroke: #ff7f0e; stroke-width: 2; stroke-linejoin: miter"/>
   </g>
   <g id="patch_74">
    <path d="M 451.269346 301.546828 
L 455.394505 301.546828 
L 455.394505 47.121278 
L 451.269346 47.121278 
z
" clip-path="url(#p3165a84abe)" style="fill: url(#hdd6c6f9afd); stroke: #ff7f0e; stroke-width: 2; stroke-linejoin: miter"/>
   </g>
   <g id="patch_75">
    <path d="M 456.122474 301.546828 
L 460.247633 301.546828 
L 460.247633 47.121278 
L 456.122474 47.121278 
z
" clip-path="url(#p3165a84abe)" style="fill: url(#hdd6c6f9afd); stroke: #ff7f0e; stroke-width: 2; stroke-linejoin: miter"/>
   </g>
   <g id="patch_76">
    <path d="M 460.975603 301.546828 
L 465.100762 301.546828 
L 465.100762 47.121278 
L 460.975603 47.121278 
z
" clip-path="url(#p3165a84abe)" style="fill: url(#hdd6c6f9afd); stroke: #ff7f0e; stroke-width: 2; stroke-linejoin: miter"/>
   </g>
   <g id="patch_77">
    <path d="M 465.828731 301.546828 
L 469.953891 301.546828 
L 469.953891 47.121278 
L 465.828731 47.121278 
z
" clip-path="url(#p3165a84abe)" style="fill: url(#hdd6c6f9afd); stroke: #ff7f0e; stroke-width: 2; stroke-linejoin: miter"/>
   </g>
   <g id="patch_78">
    <path d="M 470.68186 301.546828 
L 474.807019 301.546828 
L 474.807019 47.121278 
L 470.68186 47.121278 
z
" clip-path="url(#p3165a84abe)" style="fill: url(#hdd6c6f9afd); stroke: #ff7f0e; stroke-width: 2; stroke-linejoin: miter"/>
   </g>
   <g id="patch_79">
    <path d="M 475.534988 301.546828 
L 479.660148 301.546828 
L 479.660148 47.121278 
L 475.534988 47.121278 
z
" clip-path="url(#p3165a84abe)" style="fill: url(#hdd6c6f9afd); stroke: #ff7f0e; stroke-width: 2; stroke-linejoin: miter"/>
   </g>
   <g id="patch_80">
    <path d="M 480.388117 301.546828 
L 484.513276 301.546828 
L 484.513276 47.121278 
L 480.388117 47.121278 
z
" clip-path="url(#p3165a84abe)" style="fill: url(#hdd6c6f9afd); stroke: #ff7f0e; stroke-width: 2; stroke-linejoin: miter"/>
   </g>
   <g id="patch_81">
    <path d="M 485.241246 301.546828 
L 489.366405 301.546828 
L 489.366405 47.121278 
L 485.241246 47.121278 
z
" clip-path="url(#p3165a84abe)" style="fill: url(#hdd6c6f9afd); stroke: #ff7f0e; stroke-width: 2; stroke-linejoin: miter"/>
   </g>
   <g id="patch_82">
    <path d="M 490.094374 301.546828 
L 494.219534 301.546828 
L 494.219534 47.121278 
L 490.094374 47.121278 
z
" clip-path="url(#p3165a84abe)" style="fill: url(#hdd6c6f9afd); stroke: #ff7f0e; stroke-width: 2; stroke-linejoin: miter"/>
   </g>
   <g id="patch_83">
    <path d="M 494.947503 301.546828 
L 499.072662 301.546828 
L 499.072662 47.121278 
L 494.947503 47.121278 
z
" clip-path="url(#p3165a84abe)" style="fill: url(#hdd6c6f9afd); stroke: #ff7f0e; stroke-width: 2; stroke-linejoin: miter"/>
   </g>
   <g id="patch_84">
    <path d="M 499.800631 301.546828 
L 503.925791 301.546828 
L 503.925791 47.121278 
L 499.800631 47.121278 
z
" clip-path="url(#p3165a84abe)" style="fill: url(#hdd6c6f9afd); stroke: #ff7f0e; stroke-width: 2; stroke-linejoin: miter"/>
   </g>
   <g id="patch_85">
    <path d="M 504.65376 301.546828 
L 508.778919 301.546828 
L 508.778919 47.121278 
L 504.65376 47.121278 
z
" clip-path="url(#p3165a84abe)" style="fill: url(#hdd6c6f9afd); stroke: #ff7f0e; stroke-width: 2; stroke-linejoin: miter"/>
   </g>
   <g id="patch_86">
    <path d="M 509.506889 301.546828 
L 513.632048 301.546828 
L 513.632048 47.121278 
L 509.506889 47.121278 
z
" clip-path="url(#p3165a84abe)" style="fill: url(#hdd6c6f9afd); stroke: #ff7f0e; stroke-width: 2; stroke-linejoin: miter"/>
   </g>
   <g id="patch_87">
    <path d="M 514.360017 301.546828 
L 518.485176 301.546828 
L 518.485176 47.121278 
L 514.360017 47.121278 
z
" clip-path="url(#p3165a84abe)" style="fill: url(#hdd6c6f9afd); stroke: #ff7f0e; stroke-width: 2; stroke-linejoin: miter"/>
   </g>
   <g id="patch_88">
    <path d="M 519.213146 301.546828 
L 523.338305 301.546828 
L 523.338305 47.121278 
L 519.213146 47.121278 
z
" clip-path="url(#p3165a84abe)" style="fill: url(#hdd6c6f9afd); stroke: #ff7f0e; stroke-width: 2; stroke-linejoin: miter"/>
   </g>
   <g id="patch_89">
    <path d="M 524.066274 301.546828 
L 528.191434 301.546828 
L 528.191434 47.121278 
L 524.066274 47.121278 
z
" clip-path="url(#p3165a84abe)" style="fill: url(#hdd6c6f9afd); stroke: #ff7f0e; stroke-width: 2; stroke-linejoin: miter"/>
   </g>
   <g id="patch_90">
    <path d="M 528.919403 301.546828 
L 533.044562 301.546828 
L 533.044562 47.121278 
L 528.919403 47.121278 
z
" clip-path="url(#p3165a84abe)" style="fill: url(#hdd6c6f9afd); stroke: #ff7f0e; stroke-width: 2; stroke-linejoin: miter"/>
   </g>
   <g id="patch_91">
    <path d="M 533.772532 301.546828 
L 537.897691 301.546828 
L 537.897691 47.121278 
L 533.772532 47.121278 
z
" clip-path="url(#p3165a84abe)" style="fill: url(#hdd6c6f9afd); stroke: #ff7f0e; stroke-width: 2; stroke-linejoin: miter"/>
   </g>
   <g id="patch_92">
    <path d="M 538.62566 301.546828 
L 542.750819 301.546828 
L 542.750819 47.121278 
L 538.62566 47.121278 
z
" clip-path="url(#p3165a84abe)" style="fill: url(#hdd6c6f9afd); stroke: #ff7f0e; stroke-width: 2; stroke-linejoin: miter"/>
   </g>
   <g id="patch_93">
    <path d="M 543.478789 301.546828 
L 547.603948 301.546828 
L 547.603948 47.121278 
L 543.478789 47.121278 
z
" clip-path="url(#p3165a84abe)" style="fill: url(#hdd6c6f9afd); stroke: #ff7f0e; stroke-width: 2; stroke-linejoin: miter"/>
   </g>
   <g id="patch_94">
    <path d="M 548.331917 301.546828 
L 552.457077 301.546828 
L 552.457077 47.121278 
L 548.331917 47.121278 
z
" clip-path="url(#p3165a84abe)" style="fill: url(#hdd6c6f9afd); stroke: #ff7f0e; stroke-width: 2; stroke-linejoin: miter"/>
   </g>
   <g id="patch_95">
    <path d="M 553.185046 301.546828 
L 557.310205 301.546828 
L 557.310205 47.121278 
L 553.185046 47.121278 
z
" clip-path="url(#p3165a84abe)" style="fill: url(#hdd6c6f9afd); stroke: #ff7f0e; stroke-width: 2; stroke-linejoin: miter"/>
   </g>
   <g id="patch_96">
    <path d="M 558.038174 301.546828 
L 562.163334 301.546828 
L 562.163334 47.121278 
L 558.038174 47.121278 
z
" clip-path="url(#p3165a84abe)" style="fill: url(#hdd6c6f9afd); stroke: #ff7f0e; stroke-width: 2; stroke-linejoin: miter"/>
   </g>
   <g id="patch_97">
    <path d="M 562.891303 301.546828 
L 567.016462 301.546828 
L 567.016462 47.121278 
L 562.891303 47.121278 
z
" clip-path="url(#p3165a84abe)" style="fill: url(#hdd6c6f9afd); stroke: #ff7f0e; stroke-width: 2; stroke-linejoin: miter"/>
   </g>
   <g id="patch_98">
    <path d="M 567.744432 301.546828 
L 571.869591 301.546828 
L 571.869591 47.121278 
L 567.744432 47.121278 
z
" clip-path="url(#p3165a84abe)" style="fill: url(#hdd6c6f9afd); stroke: #ff7f0e; stroke-width: 2; stroke-linejoin: miter"/>
   </g>
   <g id="patch_99">
    <path d="M 572.59756 301.546828 
L 576.72272 301.546828 
L 576.72272 47.121278 
L 572.59756 47.121278 
z
" clip-path="url(#p3165a84abe)" style="fill: url(#hdd6c6f9afd); stroke: #ff7f0e; stroke-width: 2; stroke-linejoin: miter"/>
   </g>
   <g id="patch_100">
    <path d="M 577.450689 301.546828 
L 581.575848 301.546828 
L 581.575848 47.121278 
L 577.450689 47.121278 
z
" clip-path="url(#p3165a84abe)" style="fill: url(#hdd6c6f9afd); stroke: #ff7f0e; stroke-width: 2; stroke-linejoin: miter"/>
   </g>
   <g id="patch_101">
    <path d="M 582.303817 301.546828 
L 586.428977 301.546828 
L 586.428977 47.121278 
L 582.303817 47.121278 
z
" clip-path="url(#p3165a84abe)" style="fill: url(#hdd6c6f9afd); stroke: #ff7f0e; stroke-width: 2; stroke-linejoin: miter"/>
   </g>
   <g id="patch_102">
    <path d="M 587.156946 301.546828 
L 591.282105 301.546828 
L 591.282105 47.121278 
L 587.156946 47.121278 
z
" clip-path="url(#p3165a84abe)" style="fill: url(#hdd6c6f9afd); stroke: #ff7f0e; stroke-width: 2; stroke-linejoin: miter"/>
   </g>
   <g id="patch_103">
    <path d="M 592.010075 301.546828 
L 596.135234 301.546828 
L 596.135234 47.121278 
L 592.010075 47.121278 
z
" clip-path="url(#p3165a84abe)" style="fill: url(#hdd6c6f9afd); stroke: #ff7f0e; stroke-width: 2; stroke-linejoin: miter"/>
   </g>
   <g id="patch_104">
    <path d="M 596.863203 301.546828 
L 600.988362 301.546828 
L 600.988362 47.121278 
L 596.863203 47.121278 
z
" clip-path="url(#p3165a84abe)" style="fill: url(#hdd6c6f9afd); stroke: #ff7f0e; stroke-width: 2; stroke-linejoin: miter"/>
   </g>
   <g id="patch_105">
    <path d="M 601.716332 301.546828 
L 605.841491 301.546828 
L 605.841491 47.121278 
L 601.716332 47.121278 
z
" clip-path="url(#p3165a84abe)" style="fill: url(#hdd6c6f9afd); stroke: #ff7f0e; stroke-width: 2; stroke-linejoin: miter"/>
   </g>
   <g id="patch_106">
    <path d="M 606.56946 301.546828 
L 610.69462 301.546828 
L 610.69462 47.121278 
L 606.56946 47.121278 
z
" clip-path="url(#p3165a84abe)" style="fill: url(#hdd6c6f9afd); stroke: #ff7f0e; stroke-width: 2; stroke-linejoin: miter"/>
   </g>
   <g id="patch_107">
    <path d="M 611.422589 301.546828 
L 615.547748 301.546828 
L 615.547748 47.121278 
L 611.422589 47.121278 
z
" clip-path="url(#p3165a84abe)" style="fill: url(#hdd6c6f9afd); stroke: #ff7f0e; stroke-width: 2; stroke-linejoin: miter"/>
   </g>
   <g id="patch_108">
    <path d="M 616.275718 301.546828 
L 620.400877 301.546828 
L 620.400877 47.121278 
L 616.275718 47.121278 
z
" clip-path="url(#p3165a84abe)" style="fill: url(#hdd6c6f9afd); stroke: #ff7f0e; stroke-width: 2; stroke-linejoin: miter"/>
   </g>
   <g id="patch_109">
    <path d="M 621.128846 301.546828 
L 625.254005 301.546828 
L 625.254005 47.121278 
L 621.128846 47.121278 
z
" clip-path="url(#p3165a84abe)" style="fill: url(#hdd6c6f9afd); stroke: #ff7f0e; stroke-width: 2; stroke-linejoin: miter"/>
   </g>
   <g id="patch_110">
    <path d="M 625.981975 301.546828 
L 630.107134 301.546828 
L 630.107134 47.121278 
L 625.981975 47.121278 
z
" clip-path="url(#p3165a84abe)" style="fill: url(#hdd6c6f9afd); stroke: #ff7f0e; stroke-width: 2; stroke-linejoin: miter"/>
   </g>
   <g id="patch_111">
    <path d="M 630.835103 301.546828 
L 634.960263 301.546828 
L 634.960263 47.121278 
L 630.835103 47.121278 
z
" clip-path="url(#p3165a84abe)" style="fill: url(#hdd6c6f9afd); stroke: #ff7f0e; stroke-width: 2; stroke-linejoin: miter"/>
   </g>
   <g id="patch_112">
    <path d="M 635.688232 301.546828 
L 639.813391 301.546828 
L 639.813391 47.121278 
L 635.688232 47.121278 
z
" clip-path="url(#p3165a84abe)" style="fill: url(#hdd6c6f9afd); stroke: #ff7f0e; stroke-width: 2; stroke-linejoin: miter"/>
   </g>
   <g id="patch_113">
    <path d="M 640.54136 301.546828 
L 644.66652 301.546828 
L 644.66652 47.121278 
L 640.54136 47.121278 
z
" clip-path="url(#p3165a84abe)" style="fill: url(#hdd6c6f9afd); stroke: #ff7f0e; stroke-width: 2; stroke-linejoin: miter"/>
   </g>
   <g id="patch_114">
    <path d="M 645.394489 301.546828 
L 649.519648 301.546828 
L 649.519648 47.121278 
L 645.394489 47.121278 
z
" clip-path="url(#p3165a84abe)" style="fill: url(#hdd6c6f9afd); stroke: #ff7f0e; stroke-width: 2; stroke-linejoin: miter"/>
   </g>
   <g id="patch_115">
    <path d="M 650.247618 301.546828 
L 654.372777 301.546828 
L 654.372777 47.121278 
L 650.247618 47.121278 
z
" clip-path="url(#p3165a84abe)" style="fill: url(#hdd6c6f9afd); stroke: #ff7f0e; stroke-width: 2; stroke-linejoin: miter"/>
   </g>
   <g id="patch_116">
    <path d="M 655.100746 301.546828 
L 659.225906 301.546828 
L 659.225906 47.121278 
L 655.100746 47.121278 
z
" clip-path="url(#p3165a84abe)" style="fill: url(#hdd6c6f9afd); stroke: #ff7f0e; stroke-width: 2; stroke-linejoin: miter"/>
   </g>
   <g id="patch_117">
    <path d="M 659.953875 301.546828 
L 664.079034 301.546828 
L 664.079034 47.121278 
L 659.953875 47.121278 
z
" clip-path="url(#p3165a84abe)" style="fill: url(#hdd6c6f9afd); stroke: #ff7f0e; stroke-width: 2; stroke-linejoin: miter"/>
   </g>
   <g id="line2d_30">
    <path d="M 78.828125 47.121278 
L 691.948125 47.121278 
" clip-path="url(#p3165a84abe)" style="fill: none; stroke-dasharray: 4.44,1.92; stroke-dashoffset: 0; stroke: #f58518; stroke-width: 1.2"/>
   </g>
   <g id="patch_118">
    <path d="M 78.828125 301.546828 
L 78.828125 34.4 
" style="fill: none; stroke: #808080; stroke-width: 0.8; stroke-linejoin: miter; stroke-linecap: square"/>
   </g>
   <g id="patch_119">
    <path d="M 78.828125 301.546828 
L 691.948125 301.546828 
" style="fill: none; stroke: #808080; stroke-width: 0.8; stroke-linejoin: miter; stroke-linecap: square"/>
   </g>
   <g id="text_25">
    <text style="font: 22px 'PingFang SC', 'Heiti SC', 'STHeiti', 'Calibri', 'Arial', 'Helvetica Neue', 'Arial Unicode MS', 'Noto Sans CJK SC', 'DejaVu Sans', sans-serif; text-anchor: middle" x="385.388125" y="28.4" transform="rotate(-0 385.388125 28.4)">排序条形 · GPU util %</text>
   </g>
   <g id="legend_1">
    <g id="patch_120">
     <path d="M 87.228125 61.16 
L 191.388125 61.16 
Q 193.788125 61.16 193.788125 58.76 
L 193.788125 42.8 
Q 193.788125 40.4 191.388125 40.4 
L 87.228125 40.4 
Q 84.828125 40.4 84.828125 42.8 
L 84.828125 58.76 
Q 84.828125 61.16 87.228125 61.16 
z
" style="fill: #ffffff; opacity: 0.5; stroke: #cccccc; stroke-linejoin: miter"/>
    </g>
    <g id="line2d_31">
     <path d="M 89.628125 50.55125 
L 101.628125 50.55125 
L 113.628125 50.55125 
" style="fill: none; stroke-dasharray: 4.44,1.92; stroke-dashoffset: 0; stroke: #f58518; stroke-width: 1.2"/>
    </g>
    <g id="text_26">
     <text style="font: 12px 'PingFang SC', 'Heiti SC', 'STHeiti', 'Calibri', 'Arial', 'Helvetica Neue', 'Arial Unicode MS', 'Noto Sans CJK SC', 'DejaVu Sans', sans-serif; text-anchor: start" x="123.228125" y="54.75125" transform="rotate(-0 123.228125 54.75125)">median=98</text>
    </g>
   </g>
  </g>
 </g>
 <defs>
  <clipPath id="p3165a84abe">
   <rect x="78.828125" y="34.4" width="613.12" height="267.146828"/>
  </clipPath>
 </defs>
 <defs>
  <pattern id="h4b97fd15b5" patternUnits="userSpaceOnUse" x="0" y="0" width="72" height="72">
   <rect x="0" y="0" width="73" height="73" fill="none"/>
   <path d="M -36 36 
L 36 -36 
M -30 42 
L 42 -30 
M -24 48 
L 48 -24 
M -18 54 
L 54 -18 
M -12 60 
L 60 -12 
M -6 66 
L 66 -6 
M 0 72 
L 72 0 
M 6 78 
L 78 6 
M 12 84 
L 84 12 
M 18 90 
L 90 18 
M 24 96 
L 96 24 
M 30 102 
L 102 30 
M 36 108 
L 108 36 
M -36 36 
L 36 108 
M -30 30 
L 42 102 
M -24 24 
L 48 96 
M -18 18 
L 54 90 
M -12 12 
L 60 84 
M -6 6 
L 66 78 
M 0 0 
L 72 72 
M 6 -6 
L 78 66 
M 12 -12 
L 84 60 
M 18 -18 
L 90 54 
M 24 -24 
L 96 48 
M 30 -30 
L 102 42 
M 36 -36 
L 108 36 
" style="fill: #2ca02c; stroke: #2ca02c; stroke-width: 1.0; stroke-linecap: butt; stroke-linejoin: miter"/>
  </pattern>
  <pattern id="hdd6c6f9afd" patternUnits="userSpaceOnUse" x="0" y="0" width="72" height="72">
   <rect x="0" y="0" width="73" height="73" fill="none"/>
   <path d="M -36 36 
L 36 -36 
M -30 42 
L 42 -30 
M -24 48 
L 48 -24 
M -18 54 
L 54 -18 
M -12 60 
L 60 -12 
M -6 66 
L 66 -6 
M 0 72 
L 72 0 
M 6 78 
L 78 6 
M 12 84 
L 84 12 
M 18 90 
L 90 18 
M 24 96 
L 96 24 
M 30 102 
L 102 30 
M 36 108 
L 108 36 
" style="fill: #ff7f0e; stroke: #ff7f0e; stroke-width: 1.0; stroke-linecap: butt; stroke-linejoin: miter"/>
  </pattern>
 </defs>
</svg>
