<?xml version="1.0" encoding="utf-8" standalone="no"?>
<!DOCTYPE svg PUBLIC "-//W3C//DTD SVG 1.1//EN"
  "http://www.w3.org/Graphics/SVG/1.1/DTD/svg11.dtd">
<svg xmlns:xlink="http://www.w3.org/1999/xlink" width="702.946875pt" height="342.872603pt" viewBox="0 0 702.946875 342.872603" xmlns="http://www.w3.org/2000/svg" version="1.1">
 <metadata>
  <rdf:RDF xmlns:dc="http://purl.org/dc/elements/1.1/" xmlns:cc="http://creativecommons.org/ns#" xmlns:rdf="http://www.w3.org/1999/02/22-rdf-syntax-ns#">
   <cc:Work>
    <dc:type rdf:resource="http://purl.org/dc/dcmitype/StillImage"/>
    <dc:date>2026-07-11T23:31:16.218296</dc:date>
    <dc:format>image/svg+xml</dc:format>
    <dc:creator>
     <cc:Agent>
      <dc:title>Matplotlib v3.9.4, https://matplotlib.org/</dc:title>
     </cc:Agent>
    </dc:creator>
   </cc:Work>
  </rdf:RDF>
 </metadata>
 <defs>
  <style type="text/css">*{stroke-linejoin: round; stroke-linecap: butt}</style>
 </defs>
 <g id="figure_1">
  <g id="patch_1">
   <path d="M 0 342.872603 
L 702.946875 342.872603 
L 702.946875 0 
L 0 0 
z
" style="fill: #ffffff"/>
  </g>
  <g id="axes_1">
   <g id="patch_2">
    <path d="M 79.776875 301.524953 
L 692.146875 301.524953 
L 692.146875 35.259375 
L 79.776875 35.259375 
z
" style="fill: #ffffff"/>
   </g>
   <g id="matplotlib.axis_1">
    <g id="xtick_1">
     <g id="line2d_1">
      <defs>
       <path id="mb6460cf519" d="M 0 0 
L 0 3.5 
" style="stroke: #808080; stroke-width: 0.8"/>
      </defs>
      <g>
       <use xlink:href="#mb6460cf519" x="109.671932" y="301.524953" style="fill: #808080; stroke: #808080; stroke-width: 0.8"/>
      </g>
     </g>
     <g id="text_1">
      <text style="fill: #808080; font: 9px 'PingFang SC', 'Heiti SC', 'STHeiti', 'Calibri', 'Arial', 'Helvetica Neue', 'Arial Unicode MS', 'Noto Sans CJK SC', 'DejaVu Sans', sans-serif" transform="translate(94.715629 327.693402) rotate(-45)">w4.6</text>
     </g>
    </g>
    <g id="xtick_2">
     <g id="line2d_2">
      <g>
       <use xlink:href="#mb6460cf519" x="143.602276" y="301.524953" style="fill: #808080; stroke: #808080; stroke-width: 0.8"/>
      </g>
     </g>
     <g id="text_2">
      <text style="fill: #808080; font: 9px 'PingFang SC', 'Heiti SC', 'STHeiti', 'Calibri', 'Arial', 'Helvetica Neue', 'Arial Unicode MS', 'Noto Sans CJK SC', 'DejaVu Sans', sans-serif" transform="translate(128.645973 327.693402) rotate(-45)">w8.1</text>
     </g>
    </g>
    <g id="xtick_3">
     <g id="line2d_3">
      <g>
       <use xlink:href="#mb6460cf519" x="177.532619" y="301.524953" style="fill: #808080; stroke: #808080; stroke-width: 0.8"/>
      </g>
     </g>
     <g id="text_3">
      <text style="fill: #808080; font: 9px 'PingFang SC', 'Heiti SC', 'STHeiti', 'Calibri', 'Arial', 'Helvetica Neue', 'Arial Unicode MS', 'Noto Sans CJK SC', 'DejaVu Sans', sans-serif" transform="translate(159.050284 331.219434) rotate(-45)">w12.1</text>
     </g>
    </g>
    <g id="xtick_4">
     <g id="line2d_4">
      <g>
       <use xlink:href="#mb6460cf519" x="211.462963" y="301.524953" style="fill: #808080; stroke: #808080; stroke-width: 0.8"/>
      </g>
     </g>
     <g id="text_4">
      <text style="fill: #808080; font: 9px 'PingFang SC', 'Heiti SC', 'STHeiti', 'Calibri', 'Arial', 'Helvetica Neue', 'Arial Unicode MS', 'Noto Sans CJK SC', 'DejaVu Sans', sans-serif" transform="translate(196.506661 327.693402) rotate(-45)">w4.1</text>
     </g>
    </g>
    <g id="xtick_5">
     <g id="line2d_5">
      <g>
       <use xlink:href="#mb6460cf519" x="245.393307" y="301.524953" style="fill: #808080; stroke: #808080; stroke-width: 0.8"/>
      </g>
     </g>
     <g id="text_5">
      <text style="fill: #808080; font: 9px 'PingFang SC', 'Heiti SC', 'STHeiti', 'Calibri', 'Arial', 'Helvetica Neue', 'Arial Unicode MS', 'Noto Sans CJK SC', 'DejaVu Sans', sans-serif" transform="translate(230.437005 327.693402) rotate(-45)">w3.1</text>
     </g>
    </g>
    <g id="xtick_6">
     <g id="line2d_6">
      <g>
       <use xlink:href="#mb6460cf519" x="279.323651" y="301.524953" style="fill: #808080; stroke: #808080; stroke-width: 0.8"/>
      </g>
     </g>
     <g id="text_6">
      <text style="fill: #808080; font: 9px 'PingFang SC', 'Heiti SC', 'STHeiti', 'Calibri', 'Arial', 'Helvetica Neue', 'Arial Unicode MS', 'Noto Sans CJK SC', 'DejaVu Sans', sans-serif" transform="translate(264.367348 327.693402) rotate(-45)">w4.4</text>
     </g>
    </g>
    <g id="xtick_7">
     <g id="line2d_7">
      <g>
       <use xlink:href="#mb6460cf519" x="313.253995" y="301.524953" style="fill: #808080; stroke: #808080; stroke-width: 0.8"/>
      </g>
     </g>
     <g id="text_7">
      <text style="fill: #808080; font: 9px 'PingFang SC', 'Heiti SC', 'STHeiti', 'Calibri', 'Arial', 'Helvetica Neue', 'Arial Unicode MS', 'Noto Sans CJK SC', 'DejaVu Sans', sans-serif" transform="translate(298.297692 327.693402) rotate(-45)">w6.3</text>
     </g>
    </g>
    <g id="xtick_8">
     <g id="line2d_8">
      <g>
       <use xlink:href="#mb6460cf519" x="347.184339" y="301.524953" style="fill: #808080; stroke: #808080; stroke-width: 0.8"/>
      </g>
     </g>
     <g id="text_8">
      <text style="fill: #808080; font: 9px 'PingFang SC', 'Heiti SC', 'STHeiti', 'Calibri', 'Arial', 'Helvetica Neue', 'Arial Unicode MS', 'Noto Sans CJK SC', 'DejaVu Sans', sans-serif" transform="translate(332.228036 327.693402) rotate(-45)">w9.5</text>
     </g>
    </g>
    <g id="xtick_9">
     <g id="line2d_9">
      <g>
       <use xlink:href="#mb6460cf519" x="381.114683" y="301.524953" style="fill: #808080; stroke: #808080; stroke-width: 0.8"/>
      </g>
     </g>
     <g id="text_9">
      <text style="fill: #808080; font: 9px 'PingFang SC', 'Heiti SC', 'STHeiti', 'Calibri', 'Arial', 'Helvetica Neue', 'Arial Unicode MS', 'Noto Sans CJK SC', 'DejaVu Sans', sans-serif" transform="translate(366.15838 327.693402) rotate(-45)">w4.5</text>
     </g>
    </g>
    <g id="xtick_10">
     <g id="line2d_10">
      <g>
       <use xlink:href="#mb6460cf519" x="415.045027" y="301.524953" style="fill: #808080; stroke: #808080; stroke-width: 0.8"/>
      </g>
     </g>
     <g id="text_10">
      <text style="fill: #808080; font: 9px 'PingFang SC', 'Heiti SC', 'STHeiti', 'Calibri', 'Arial', 'Helvetica Neue', 'Arial Unicode MS', 'Noto Sans CJK SC', 'DejaVu Sans', sans-serif" transform="translate(396.562692 331.219434) rotate(-45)">w14.7</text>
     </g>
    </g>
    <g id="xtick_11">
     <g id="line2d_11">
      <g>
       <use xlink:href="#mb6460cf519" x="448.975371" y="301.524953" style="fill: #808080; stroke: #808080; stroke-width: 0.8"/>
      </g>
     </g>
     <g id="text_11">
      <text style="fill: #808080; font: 9px 'PingFang SC', 'Heiti SC', 'STHeiti', 'Calibri', 'Arial', 'Helvetica Neue', 'Arial Unicode MS', 'Noto Sans CJK SC', 'DejaVu Sans', sans-serif" transform="translate(434.019068 327.693402) rotate(-45)">w4.3</text>
     </g>
    </g>
    <g id="xtick_12">
     <g id="line2d_12">
      <g>
       <use xlink:href="#mb6460cf519" x="482.905715" y="301.524953" style="fill: #808080; stroke: #808080; stroke-width: 0.8"/>
      </g>
     </g>
     <g id="text_12">
      <text style="fill: #808080; font: 9px 'PingFang SC', 'Heiti SC', 'STHeiti', 'Calibri', 'Arial', 'Helvetica Neue', 'Arial Unicode MS', 'Noto Sans CJK SC', 'DejaVu Sans', sans-serif" transform="translate(467.949412 327.693402) rotate(-45)">w0.6</text>
     </g>
    </g>
    <g id="xtick_13">
     <g id="line2d_13">
      <g>
       <use xlink:href="#mb6460cf519" x="516.836059" y="301.524953" style="fill: #808080; stroke: #808080; stroke-width: 0.8"/>
      </g>
     </g>
     <g id="text_13">
      <text style="fill: #808080; font: 9px 'PingFang SC', 'Heiti SC', 'STHeiti', 'Calibri', 'Arial', 'Helvetica Neue', 'Arial Unicode MS', 'Noto Sans CJK SC', 'DejaVu Sans', sans-serif" transform="translate(498.353724 331.219434) rotate(-45)">w12.2</text>
     </g>
    </g>
    <g id="xtick_14">
     <g id="line2d_14">
      <g>
       <use xlink:href="#mb6460cf519" x="550.766403" y="301.524953" style="fill: #808080; stroke: #808080; stroke-width: 0.8"/>
      </g>
     </g>
     <g id="text_14">
      <text style="fill: #808080; font: 9px 'PingFang SC', 'Heiti SC', 'STHeiti', 'Calibri', 'Arial', 'Helvetica Neue', 'Arial Unicode MS', 'Noto Sans CJK SC', 'DejaVu Sans', sans-serif" transform="translate(535.8101 327.693402) rotate(-45)">w2.7</text>
     </g>
    </g>
    <g id="xtick_15">
     <g id="line2d_15">
      <g>
       <use xlink:href="#mb6460cf519" x="584.696747" y="301.524953" style="fill: #808080; stroke: #808080; stroke-width: 0.8"/>
      </g>
     </g>
     <g id="text_15">
      <text style="fill: #808080; font: 9px 'PingFang SC', 'Heiti SC', 'STHeiti', 'Calibri', 'Arial', 'Helvetica Neue', 'Arial Unicode MS', 'Noto Sans CJK SC', 'DejaVu Sans', sans-serif" transform="translate(566.214412 331.219434) rotate(-45)">w10.7</text>
     </g>
    </g>
    <g id="xtick_16">
     <g id="line2d_16">
      <g>
       <use xlink:href="#mb6460cf519" x="618.62709" y="301.524953" style="fill: #808080; stroke: #808080; stroke-width: 0.8"/>
      </g>
     </g>
     <g id="text_16">
      <text style="fill: #808080; font: 9px 'PingFang SC', 'Heiti SC', 'STHeiti', 'Calibri', 'Arial', 'Helvetica Neue', 'Arial Unicode MS', 'Noto Sans CJK SC', 'DejaVu Sans', sans-serif" transform="translate(603.670788 327.693402) rotate(-45)">w2.0</text>
     </g>
    </g>
    <g id="xtick_17">
     <g id="line2d_17">
      <g>
       <use xlink:href="#mb6460cf519" x="652.557434" y="301.524953" style="fill: #808080; stroke: #808080; stroke-width: 0.8"/>
      </g>
     </g>
     <g id="text_17">
      <text style="fill: #808080; font: 9px 'PingFang SC', 'Heiti SC', 'STHeiti', 'Calibri', 'Arial', 'Helvetica Neue', 'Arial Unicode MS', 'Noto Sans CJK SC', 'DejaVu Sans', sans-serif" transform="translate(634.075099 331.219434) rotate(-45)">w12.6</text>
     </g>
    </g>
   </g>
   <g id="matplotlib.axis_2">
    <g id="ytick_1">
     <g id="line2d_18">
      <path d="M 79.776875 301.524953 
L 692.146875 301.524953 
" clip-path="url(#p9f5c3d6ad6)" style="fill: none; stroke-dasharray: 1,1.65; stroke-dashoffset: 0; stroke: #808080; stroke-opacity: 0.55"/>
     </g>
     <g id="line2d_19">
      <defs>
       <path id="m6a1eb5c3e9" d="M 0 0 
L -3.5 0 
" style="stroke: #808080; stroke-width: 0.8"/>
      </defs>
      <g>
       <use xlink:href="#m6a1eb5c3e9" x="79.776875" y="301.524953" style="fill: #808080; stroke: #808080; stroke-width: 0.8"/>
      </g>
     </g>
     <g id="text_18">
      <text style="fill: #808080; font: 22px 'PingFang SC', 'Heiti SC', 'STHeiti', 'Calibri', 'Arial', 'Helvetica Neue', 'Arial Unicode MS', 'Noto Sans CJK SC', 'DejaVu Sans', sans-serif; text-anchor: end" x="72.776875" y="310.280265" transform="rotate(-0 72.776875 310.280265)">0</text>
     </g>
    </g>
    <g id="ytick_2">
     <g id="line2d_20">
      <path d="M 79.776875 228.137044 
L 692.146875 228.137044 
" clip-path="url(#p9f5c3d6ad6)" style="fill: none; stroke-dasharray: 1,1.65; stroke-dashoffset: 0; stroke: #808080; stroke-opacity: 0.55"/>
     </g>
     <g id="line2d_21">
      <g>
       <use xlink:href="#m6a1eb5c3e9" x="79.776875" y="228.137044" style="fill: #808080; stroke: #808080; stroke-width: 0.8"/>
      </g>
     </g>
     <g id="text_19">
      <text style="fill: #808080; font: 22px 'PingFang SC', 'Heiti SC', 'STHeiti', 'Calibri', 'Arial', 'Helvetica Neue', 'Arial Unicode MS', 'Noto Sans CJK SC', 'DejaVu Sans', sans-serif; text-anchor: end" x="72.776875" y="236.892357" transform="rotate(-0 72.776875 236.892357)">100</text>
     </g>
    </g>
    <g id="ytick_3">
     <g id="line2d_22">
      <path d="M 79.776875 154.749136 
L 692.146875 154.749136 
" clip-path="url(#p9f5c3d6ad6)" style="fill: none; stroke-dasharray: 1,1.65; stroke-dashoffset: 0; stroke: #808080; stroke-opacity: 0.55"/>
     </g>
     <g id="line2d_23">
      <g>
       <use xlink:href="#m6a1eb5c3e9" x="79.776875" y="154.749136" style="fill: #808080; stroke: #808080; stroke-width: 0.8"/>
      </g>
     </g>
     <g id="text_20">
      <text style="fill: #808080; font: 22px 'PingFang SC', 'Heiti SC', 'STHeiti', 'Calibri', 'Arial', 'Helvetica Neue', 'Arial Unicode MS', 'Noto Sans CJK SC', 'DejaVu Sans', sans-serif; text-anchor: end" x="72.776875" y="163.504448" transform="rotate(-0 72.776875 163.504448)">200</text>
     </g>
    </g>
    <g id="ytick_4">
     <g id="line2d_24">
      <path d="M 79.776875 81.361227 
L 692.146875 81.361227 
" clip-path="url(#p9f5c3d6ad6)" style="fill: none; stroke-dasharray: 1,1.65; stroke-dashoffset: 0; stroke: #808080; stroke-opacity: 0.55"/>
     </g>
     <g id="line2d_25">
      <g>
       <use xlink:href="#m6a1eb5c3e9" x="79.776875" y="81.361227" style="fill: #808080; stroke: #808080; stroke-width: 0.8"/>
      </g>
     </g>
     <g id="text_21">
      <text style="fill: #808080; font: 22px 'PingFang SC', 'Heiti SC', 'STHeiti', 'Calibri', 'Arial', 'Helvetica Neue', 'Arial Unicode MS', 'Noto Sans CJK SC', 'DejaVu Sans', sans-serif; text-anchor: end" x="72.776875" y="90.11654" transform="rotate(-0 72.776875 90.11654)">300</text>
     </g>
    </g>
    <g id="text_22">
     <text style="font: 22px 'PingFang SC', 'Heiti SC', 'STHeiti', 'Calibri', 'Arial', 'Helvetica Neue', 'Arial Unicode MS', 'Noto Sans CJK SC', 'DejaVu Sans', sans-serif; text-anchor: middle" x="29.259375" y="168.392164" transform="rotate(-90 29.259375 168.392164)">Host overhead p50 (us)</text>
    </g>
   </g>
   <g id="patch_3">
    <path d="M 107.611875 301.524953 
L 111.731988 301.524953 
L 111.731988 188.2886 
L 107.611875 188.2886 
z
" clip-path="url(#p9f5c3d6ad6)" style="fill: url(#h4618f4c465); stroke: #2ca02c; stroke-width: 2; stroke-linejoin: miter"/>
   </g>
   <g id="patch_4">
    <path d="M 112.459067 301.524953 
L 116.57918 301.524953 
L 116.57918 186.225096 
L 112.459067 186.225096 
z
" clip-path="url(#p9f5c3d6ad6)" style="fill: url(#h4618f4c465); stroke: #2ca02c; stroke-width: 2; stroke-linejoin: miter"/>
   </g>
   <g id="patch_5">
    <path d="M 117.306259 301.524953 
L 121.426372 301.524953 
L 121.426372 182.436958 
L 117.306259 182.436958 
z
" clip-path="url(#p9f5c3d6ad6)" style="fill: url(#h4618f4c465); stroke: #2ca02c; stroke-width: 2; stroke-linejoin: miter"/>
   </g>
   <g id="patch_6">
    <path d="M 122.153451 301.524953 
L 126.273564 301.524953 
L 126.273564 182.204544 
L 122.153451 182.204544 
z
" clip-path="url(#p9f5c3d6ad6)" style="fill: url(#h4618f4c465); stroke: #2ca02c; stroke-width: 2; stroke-linejoin: miter"/>
   </g>
   <g id="patch_7">
    <path d="M 127.000643 301.524953 
L 131.120756 301.524953 
L 131.120756 182.018022 
L 127.000643 182.018022 
z
" clip-path="url(#p9f5c3d6ad6)" style="fill: url(#h4618f4c465); stroke: #2ca02c; stroke-width: 2; stroke-linejoin: miter"/>
   </g>
   <g id="patch_8">
    <path d="M 131.847835 301.524953 
L 135.967948 301.524953 
L 135.967948 180.80958 
L 131.847835 180.80958 
z
" clip-path="url(#p9f5c3d6ad6)" style="fill: url(#h4618f4c465); stroke: #2ca02c; stroke-width: 2; stroke-linejoin: miter"/>
   </g>
   <g id="patch_9">
    <path d="M 136.695027 301.524953 
L 140.81514 301.524953 
L 140.81514 179.909675 
L 136.695027 179.909675 
z
" clip-path="url(#p9f5c3d6ad6)" style="fill: url(#h4618f4c465); stroke: #2ca02c; stroke-width: 2; stroke-linejoin: miter"/>
   </g>
   <g id="patch_10">
    <path d="M 141.542219 301.524953 
L 145.662332 301.524953 
L 145.662332 179.137491 
L 141.542219 179.137491 
z
" clip-path="url(#p9f5c3d6ad6)" style="fill: url(#h4618f4c465); stroke: #2ca02c; stroke-width: 2; stroke-linejoin: miter"/>
   </g>
   <g id="patch_11">
    <path d="M 146.389411 301.524953 
L 150.509524 301.524953 
L 150.509524 178.637453 
L 146.389411 178.637453 
z
" clip-path="url(#p9f5c3d6ad6)" style="fill: url(#h4618f4c465); stroke: #2ca02c; stroke-width: 2; stroke-linejoin: miter"/>
   </g>
   <g id="patch_12">
    <path d="M 151.236603 301.524953 
L 155.356716 301.524953 
L 155.356716 178.507157 
L 151.236603 178.507157 
z
" clip-path="url(#p9f5c3d6ad6)" style="fill: url(#h4618f4c465); stroke: #2ca02c; stroke-width: 2; stroke-linejoin: miter"/>
   </g>
   <g id="patch_13">
    <path d="M 156.083795 301.524953 
L 160.203908 301.524953 
L 160.203908 178.502191 
L 156.083795 178.502191 
z
" clip-path="url(#p9f5c3d6ad6)" style="fill: url(#h4618f4c465); stroke: #2ca02c; stroke-width: 2; stroke-linejoin: miter"/>
   </g>
   <g id="patch_14">
    <path d="M 160.930987 301.524953 
L 165.0511 301.524953 
L 165.0511 178.429309 
L 160.930987 178.429309 
z
" clip-path="url(#p9f5c3d6ad6)" style="fill: url(#h4618f4c465); stroke: #2ca02c; stroke-width: 2; stroke-linejoin: miter"/>
   </g>
   <g id="patch_15">
    <path d="M 165.778179 301.524953 
L 169.898292 301.524953 
L 169.898292 178.121075 
L 165.778179 178.121075 
z
" clip-path="url(#p9f5c3d6ad6)" style="fill: url(#h4618f4c465); stroke: #2ca02c; stroke-width: 2; stroke-linejoin: miter"/>
   </g>
   <g id="patch_16">
    <path d="M 170.625371 301.524953 
L 174.745484 301.524953 
L 174.745484 178.069298 
L 170.625371 178.069298 
z
" clip-path="url(#p9f5c3d6ad6)" style="fill: url(#h4618f4c465); stroke: #2ca02c; stroke-width: 2; stroke-linejoin: miter"/>
   </g>
   <g id="patch_17">
    <path d="M 175.472563 301.524953 
L 179.592676 301.524953 
L 179.592676 177.317489 
L 175.472563 177.317489 
z
" clip-path="url(#p9f5c3d6ad6)" style="fill: url(#h4618f4c465); stroke: #2ca02c; stroke-width: 2; stroke-linejoin: miter"/>
   </g>
   <g id="patch_18">
    <path d="M 180.319755 301.524953 
L 184.439868 301.524953 
L 184.439868 177.074372 
L 180.319755 177.074372 
z
" clip-path="url(#p9f5c3d6ad6)" style="fill: url(#h4618f4c465); stroke: #2ca02c; stroke-width: 2; stroke-linejoin: miter"/>
   </g>
   <g id="patch_19">
    <path d="M 185.166947 301.524953 
L 189.28706 301.524953 
L 189.28706 176.931406 
L 185.166947 176.931406 
z
" clip-path="url(#p9f5c3d6ad6)" style="fill: url(#h4618f4c465); stroke: #2ca02c; stroke-width: 2; stroke-linejoin: miter"/>
   </g>
   <g id="patch_20">
    <path d="M 190.014139 301.524953 
L 194.134252 301.524953 
L 194.134252 176.848107 
L 190.014139 176.848107 
z
" clip-path="url(#p9f5c3d6ad6)" style="fill: url(#h4618f4c465); stroke: #2ca02c; stroke-width: 2; stroke-linejoin: miter"/>
   </g>
   <g id="patch_21">
    <path d="M 194.861331 301.524953 
L 198.981444 301.524953 
L 198.981444 176.782877 
L 194.861331 176.782877 
z
" clip-path="url(#p9f5c3d6ad6)" style="fill: url(#h4618f4c465); stroke: #2ca02c; stroke-width: 2; stroke-linejoin: miter"/>
   </g>
   <g id="patch_22">
    <path d="M 199.708523 301.524953 
L 203.828636 301.524953 
L 203.828636 176.605872 
L 199.708523 176.605872 
z
" clip-path="url(#p9f5c3d6ad6)" style="fill: url(#h4618f4c465); stroke: #2ca02c; stroke-width: 2; stroke-linejoin: miter"/>
   </g>
   <g id="patch_23">
    <path d="M 204.555715 301.524953 
L 208.675828 301.524953 
L 208.675828 176.393863 
L 204.555715 176.393863 
z
" clip-path="url(#p9f5c3d6ad6)" style="fill: url(#h4618f4c465); stroke: #2ca02c; stroke-width: 2; stroke-linejoin: miter"/>
   </g>
   <g id="patch_24">
    <path d="M 209.402907 301.524953 
L 213.52302 301.524953 
L 213.52302 176.077127 
L 209.402907 176.077127 
z
" clip-path="url(#p9f5c3d6ad6)" style="fill: url(#h4618f4c465); stroke: #2ca02c; stroke-width: 2; stroke-linejoin: miter"/>
   </g>
   <g id="patch_25">
    <path d="M 214.250099 301.524953 
L 218.370212 301.524953 
L 218.370212 176.005345 
L 214.250099 176.005345 
z
" clip-path="url(#p9f5c3d6ad6)" style="fill: url(#h4618f4c465); stroke: #2ca02c; stroke-width: 2; stroke-linejoin: miter"/>
   </g>
   <g id="patch_26">
    <path d="M 219.097291 301.524953 
L 223.217404 301.524953 
L 223.217404 175.242584 
L 219.097291 175.242584 
z
" clip-path="url(#p9f5c3d6ad6)" style="fill: url(#h4618f4c465); stroke: #2ca02c; stroke-width: 2; stroke-linejoin: miter"/>
   </g>
   <g id="patch_27">
    <path d="M 223.944483 301.524953 
L 228.064596 301.524953 
L 228.064596 175.183236 
L 223.944483 175.183236 
z
" clip-path="url(#p9f5c3d6ad6)" style="fill: url(#h4618f4c465); stroke: #2ca02c; stroke-width: 2; stroke-linejoin: miter"/>
   </g>
   <g id="patch_28">
    <path d="M 228.791675 301.524953 
L 232.911788 301.524953 
L 232.911788 174.753615 
L 228.791675 174.753615 
z
" clip-path="url(#p9f5c3d6ad6)" style="fill: url(#h4618f4c465); stroke: #2ca02c; stroke-width: 2; stroke-linejoin: miter"/>
   </g>
   <g id="patch_29">
    <path d="M 233.638867 301.524953 
L 237.75898 301.524953 
L 237.75898 174.634022 
L 233.638867 174.634022 
z
" clip-path="url(#p9f5c3d6ad6)" style="fill: url(#h4618f4c465); stroke: #2ca02c; stroke-width: 2; stroke-linejoin: miter"/>
   </g>
   <g id="patch_30">
    <path d="M 238.486059 301.524953 
L 242.606172 301.524953 
L 242.606172 173.899929 
L 238.486059 173.899929 
z
" clip-path="url(#p9f5c3d6ad6)" style="fill: url(#h4618f4c465); stroke: #2ca02c; stroke-width: 2; stroke-linejoin: miter"/>
   </g>
   <g id="patch_31">
    <path d="M 243.333251 301.524953 
L 247.453364 301.524953 
L 247.453364 173.881429 
L 243.333251 173.881429 
z
" clip-path="url(#p9f5c3d6ad6)" style="fill: url(#h4618f4c465); stroke: #2ca02c; stroke-width: 2; stroke-linejoin: miter"/>
   </g>
   <g id="patch_32">
    <path d="M 248.180443 301.524953 
L 252.300556 301.524953 
L 252.300556 173.406761 
L 248.180443 173.406761 
z
" clip-path="url(#p9f5c3d6ad6)" style="fill: url(#h4618f4c465); stroke: #2ca02c; stroke-width: 2; stroke-linejoin: miter"/>
   </g>
   <g id="patch_33">
    <path d="M 253.027635 301.524953 
L 257.147748 301.524953 
L 257.147748 173.393472 
L 253.027635 173.393472 
z
" clip-path="url(#p9f5c3d6ad6)" style="fill: url(#h4618f4c465); stroke: #2ca02c; stroke-width: 2; stroke-linejoin: miter"/>
   </g>
   <g id="patch_34">
    <path d="M 257.874827 301.524953 
L 261.99494 301.524953 
L 261.99494 173.230058 
L 257.874827 173.230058 
z
" clip-path="url(#p9f5c3d6ad6)" style="fill: url(#h4618f4c465); stroke: #2ca02c; stroke-width: 2; stroke-linejoin: miter"/>
   </g>
   <g id="patch_35">
    <path d="M 262.722019 301.524953 
L 266.842132 301.524953 
L 266.842132 172.898702 
L 262.722019 172.898702 
z
" clip-path="url(#p9f5c3d6ad6)" style="fill: url(#h4618f4c465); stroke: #2ca02c; stroke-width: 2; stroke-linejoin: miter"/>
   </g>
   <g id="patch_36">
    <path d="M 267.569211 301.524953 
L 271.689324 301.524953 
L 271.689324 172.131506 
L 267.569211 172.131506 
z
" clip-path="url(#p9f5c3d6ad6)" style="fill: url(#h4618f4c465); stroke: #2ca02c; stroke-width: 2; stroke-linejoin: miter"/>
   </g>
   <g id="patch_37">
    <path d="M 272.416403 301.524953 
L 276.536516 301.524953 
L 276.536516 171.717083 
L 272.416403 171.717083 
z
" clip-path="url(#p9f5c3d6ad6)" style="fill: url(#h4618f4c465); stroke: #2ca02c; stroke-width: 2; stroke-linejoin: miter"/>
   </g>
   <g id="patch_38">
    <path d="M 277.263595 301.524953 
L 281.383708 301.524953 
L 281.383708 171.497003 
L 277.263595 171.497003 
z
" clip-path="url(#p9f5c3d6ad6)" style="fill: url(#h4618f4c465); stroke: #2ca02c; stroke-width: 2; stroke-linejoin: miter"/>
   </g>
   <g id="patch_39">
    <path d="M 282.110787 301.524953 
L 286.2309 301.524953 
L 286.2309 171.349042 
L 282.110787 171.349042 
z
" clip-path="url(#p9f5c3d6ad6)" style="fill: url(#h4618f4c465); stroke: #2ca02c; stroke-width: 2; stroke-linejoin: miter"/>
   </g>
   <g id="patch_40">
    <path d="M 286.957979 301.524953 
L 291.078092 301.524953 
L 291.078092 171.270088 
L 286.957979 171.270088 
z
" clip-path="url(#p9f5c3d6ad6)" style="fill: url(#h4618f4c465); stroke: #2ca02c; stroke-width: 2; stroke-linejoin: miter"/>
   </g>
   <g id="patch_41">
    <path d="M 291.805171 301.524953 
L 295.925284 301.524953 
L 295.925284 171.061581 
L 291.805171 171.061581 
z
" clip-path="url(#p9f5c3d6ad6)" style="fill: url(#h4618f4c465); stroke: #2ca02c; stroke-width: 2; stroke-linejoin: miter"/>
   </g>
   <g id="patch_42">
    <path d="M 296.652363 301.524953 
L 300.772476 301.524953 
L 300.772476 170.209967 
L 296.652363 170.209967 
z
" clip-path="url(#p9f5c3d6ad6)" style="fill: url(#h4618f4c465); stroke: #2ca02c; stroke-width: 2; stroke-linejoin: miter"/>
   </g>
   <g id="patch_43">
    <path d="M 301.499555 301.524953 
L 305.619668 301.524953 
L 305.619668 169.171395 
L 301.499555 169.171395 
z
" clip-path="url(#p9f5c3d6ad6)" style="fill: url(#h4618f4c465); stroke: #2ca02c; stroke-width: 2; stroke-linejoin: miter"/>
   </g>
   <g id="patch_44">
    <path d="M 306.346747 301.524953 
L 310.46686 301.524953 
L 310.46686 168.980704 
L 306.346747 168.980704 
z
" clip-path="url(#p9f5c3d6ad6)" style="fill: url(#h4618f4c465); stroke: #2ca02c; stroke-width: 2; stroke-linejoin: miter"/>
   </g>
   <g id="patch_45">
    <path d="M 311.193939 301.524953 
L 315.314052 301.524953 
L 315.314052 168.858881 
L 311.193939 168.858881 
z
" clip-path="url(#p9f5c3d6ad6)" style="fill: url(#h4618f4c465); stroke: #2ca02c; stroke-width: 2; stroke-linejoin: miter"/>
   </g>
   <g id="patch_46">
    <path d="M 316.041131 301.524953 
L 320.161244 301.524953 
L 320.161244 168.802749 
L 316.041131 168.802749 
z
" clip-path="url(#p9f5c3d6ad6)" style="fill: url(#h4618f4c465); stroke: #2ca02c; stroke-width: 2; stroke-linejoin: miter"/>
   </g>
   <g id="patch_47">
    <path d="M 320.888323 301.524953 
L 325.008436 301.524953 
L 325.008436 168.791061 
L 320.888323 168.791061 
z
" clip-path="url(#p9f5c3d6ad6)" style="fill: url(#h4618f4c465); stroke: #2ca02c; stroke-width: 2; stroke-linejoin: miter"/>
   </g>
   <g id="patch_48">
    <path d="M 325.735515 301.524953 
L 329.855628 301.524953 
L 329.855628 168.456429 
L 325.735515 168.456429 
z
" clip-path="url(#p9f5c3d6ad6)" style="fill: url(#h4618f4c465); stroke: #2ca02c; stroke-width: 2; stroke-linejoin: miter"/>
   </g>
   <g id="patch_49">
    <path d="M 330.582707 301.524953 
L 334.70282 301.524953 
L 334.70282 168.173134 
L 330.582707 168.173134 
z
" clip-path="url(#p9f5c3d6ad6)" style="fill: url(#h4618f4c465); stroke: #2ca02c; stroke-width: 2; stroke-linejoin: miter"/>
   </g>
   <g id="patch_50">
    <path d="M 335.429899 301.524953 
L 339.550012 301.524953 
L 339.550012 167.958653 
L 335.429899 167.958653 
z
" clip-path="url(#p9f5c3d6ad6)" style="fill: url(#h4618f4c465); stroke: #2ca02c; stroke-width: 2; stroke-linejoin: miter"/>
   </g>
   <g id="patch_51">
    <path d="M 340.27709 301.524953 
L 344.397204 301.524953 
L 344.397204 167.92618 
L 340.27709 167.92618 
z
" clip-path="url(#p9f5c3d6ad6)" style="fill: url(#h4618f4c465); stroke: #2ca02c; stroke-width: 2; stroke-linejoin: miter"/>
   </g>
   <g id="patch_52">
    <path d="M 345.124282 301.524953 
L 349.244396 301.524953 
L 349.244396 167.839895 
L 345.124282 167.839895 
z
" clip-path="url(#p9f5c3d6ad6)" style="fill: url(#h4618f4c465); stroke: #2ca02c; stroke-width: 2; stroke-linejoin: miter"/>
   </g>
   <g id="patch_53">
    <path d="M 349.971474 301.524953 
L 354.091588 301.524953 
L 354.091588 167.83858 
L 349.971474 167.83858 
z
" clip-path="url(#p9f5c3d6ad6)" style="fill: url(#h4618f4c465); stroke: #2ca02c; stroke-width: 2; stroke-linejoin: miter"/>
   </g>
   <g id="patch_54">
    <path d="M 354.818666 301.524953 
L 358.93878 301.524953 
L 358.93878 167.530596 
L 354.818666 167.530596 
z
" clip-path="url(#p9f5c3d6ad6)" style="fill: url(#h4618f4c465); stroke: #2ca02c; stroke-width: 2; stroke-linejoin: miter"/>
   </g>
   <g id="patch_55">
    <path d="M 359.665858 301.524953 
L 363.785972 301.524953 
L 363.785972 167.246772 
L 359.665858 167.246772 
z
" clip-path="url(#p9f5c3d6ad6)" style="fill: url(#h4618f4c465); stroke: #2ca02c; stroke-width: 2; stroke-linejoin: miter"/>
   </g>
   <g id="patch_56">
    <path d="M 364.51305 301.524953 
L 368.633164 301.524953 
L 368.633164 167.197409 
L 364.51305 167.197409 
z
" clip-path="url(#p9f5c3d6ad6)" style="fill: url(#h4618f4c465); stroke: #2ca02c; stroke-width: 2; stroke-linejoin: miter"/>
   </g>
   <g id="patch_57">
    <path d="M 369.360242 301.524953 
L 373.480356 301.524953 
L 373.480356 167.132812 
L 369.360242 167.132812 
z
" clip-path="url(#p9f5c3d6ad6)" style="fill: url(#h4618f4c465); stroke: #2ca02c; stroke-width: 2; stroke-linejoin: miter"/>
   </g>
   <g id="patch_58">
    <path d="M 374.207434 301.524953 
L 378.327548 301.524953 
L 378.327548 167.079339 
L 374.207434 167.079339 
z
" clip-path="url(#p9f5c3d6ad6)" style="fill: url(#h4618f4c465); stroke: #2ca02c; stroke-width: 2; stroke-linejoin: miter"/>
   </g>
   <g id="patch_59">
    <path d="M 379.054626 301.524953 
L 383.17474 301.524953 
L 383.17474 166.951108 
L 379.054626 166.951108 
z
" clip-path="url(#p9f5c3d6ad6)" style="fill: url(#h4618f4c465); stroke: #2ca02c; stroke-width: 2; stroke-linejoin: miter"/>
   </g>
   <g id="patch_60">
    <path d="M 383.901818 301.524953 
L 388.021932 301.524953 
L 388.021932 166.595683 
L 383.901818 166.595683 
z
" clip-path="url(#p9f5c3d6ad6)" style="fill: url(#h99fc3d9c30); stroke: #ff7f0e; stroke-width: 2; stroke-linejoin: miter"/>
   </g>
   <g id="patch_61">
    <path d="M 388.74901 301.524953 
L 392.869124 301.524953 
L 392.869124 166.557523 
L 388.74901 166.557523 
z
" clip-path="url(#p9f5c3d6ad6)" style="fill: url(#h99fc3d9c30); stroke: #ff7f0e; stroke-width: 2; stroke-linejoin: miter"/>
   </g>
   <g id="patch_62">
    <path d="M 393.596202 301.524953 
L 397.716316 301.524953 
L 397.716316 166.46507 
L 393.596202 166.46507 
z
" clip-path="url(#p9f5c3d6ad6)" style="fill: url(#h99fc3d9c30); stroke: #ff7f0e; stroke-width: 2; stroke-linejoin: miter"/>
   </g>
   <g id="patch_63">
    <path d="M 398.443394 301.524953 
L 402.563508 301.524953 
L 402.563508 166.412079 
L 398.443394 166.412079 
z
" clip-path="url(#p9f5c3d6ad6)" style="fill: url(#h99fc3d9c30); stroke: #ff7f0e; stroke-width: 2; stroke-linejoin: miter"/>
   </g>
   <g id="patch_64">
    <path d="M 403.290586 301.524953 
L 407.4107 301.524953 
L 407.4107 166.326878 
L 403.290586 166.326878 
z
" clip-path="url(#p9f5c3d6ad6)" style="fill: url(#h99fc3d9c30); stroke: #ff7f0e; stroke-width: 2; stroke-linejoin: miter"/>
   </g>
   <g id="patch_65">
    <path d="M 408.137778 301.524953 
L 412.257892 301.524953 
L 412.257892 166.056017 
L 408.137778 166.056017 
z
" clip-path="url(#p9f5c3d6ad6)" style="fill: url(#h99fc3d9c30); stroke: #ff7f0e; stroke-width: 2; stroke-linejoin: miter"/>
   </g>
   <g id="patch_66">
    <path d="M 412.98497 301.524953 
L 417.105084 301.524953 
L 417.105084 165.809781 
L 412.98497 165.809781 
z
" clip-path="url(#p9f5c3d6ad6)" style="fill: url(#h99fc3d9c30); stroke: #ff7f0e; stroke-width: 2; stroke-linejoin: miter"/>
   </g>
   <g id="patch_67">
    <path d="M 417.832162 301.524953 
L 421.952276 301.524953 
L 421.952276 165.761071 
L 417.832162 165.761071 
z
" clip-path="url(#p9f5c3d6ad6)" style="fill: url(#h99fc3d9c30); stroke: #ff7f0e; stroke-width: 2; stroke-linejoin: miter"/>
   </g>
   <g id="patch_68">
    <path d="M 422.679354 301.524953 
L 426.799468 301.524953 
L 426.799468 165.734082 
L 422.679354 165.734082 
z
" clip-path="url(#p9f5c3d6ad6)" style="fill: url(#h99fc3d9c30); stroke: #ff7f0e; stroke-width: 2; stroke-linejoin: miter"/>
   </g>
   <g id="patch_69">
    <path d="M 427.526546 301.524953 
L 431.64666 301.524953 
L 431.64666 165.699591 
L 427.526546 165.699591 
z
" clip-path="url(#p9f5c3d6ad6)" style="fill: url(#h99fc3d9c30); stroke: #ff7f0e; stroke-width: 2; stroke-linejoin: miter"/>
   </g>
   <g id="patch_70">
    <path d="M 432.373738 301.524953 
L 436.493851 301.524953 
L 436.493851 165.630743 
L 432.373738 165.630743 
z
" clip-path="url(#p9f5c3d6ad6)" style="fill: url(#h99fc3d9c30); stroke: #ff7f0e; stroke-width: 2; stroke-linejoin: miter"/>
   </g>
   <g id="patch_71">
    <path d="M 437.22093 301.524953 
L 441.341043 301.524953 
L 441.341043 165.366122 
L 437.22093 165.366122 
z
" clip-path="url(#p9f5c3d6ad6)" style="fill: url(#h99fc3d9c30); stroke: #ff7f0e; stroke-width: 2; stroke-linejoin: miter"/>
   </g>
   <g id="patch_72">
    <path d="M 442.068122 301.524953 
L 446.188235 301.524953 
L 446.188235 165.288039 
L 442.068122 165.288039 
z
" clip-path="url(#p9f5c3d6ad6)" style="fill: url(#h99fc3d9c30); stroke: #ff7f0e; stroke-width: 2; stroke-linejoin: miter"/>
   </g>
   <g id="patch_73">
    <path d="M 446.915314 301.524953 
L 451.035427 301.524953 
L 451.035427 164.61463 
L 446.915314 164.61463 
z
" clip-path="url(#p9f5c3d6ad6)" style="fill: url(#h99fc3d9c30); stroke: #ff7f0e; stroke-width: 2; stroke-linejoin: miter"/>
   </g>
   <g id="patch_74">
    <path d="M 451.762506 301.524953 
L 455.882619 301.524953 
L 455.882619 164.595057 
L 451.762506 164.595057 
z
" clip-path="url(#p9f5c3d6ad6)" style="fill: url(#h99fc3d9c30); stroke: #ff7f0e; stroke-width: 2; stroke-linejoin: miter"/>
   </g>
   <g id="patch_75">
    <path d="M 456.609698 301.524953 
L 460.729811 301.524953 
L 460.729811 164.558418 
L 456.609698 164.558418 
z
" clip-path="url(#p9f5c3d6ad6)" style="fill: url(#h99fc3d9c30); stroke: #ff7f0e; stroke-width: 2; stroke-linejoin: miter"/>
   </g>
   <g id="patch_76">
    <path d="M 461.45689 301.524953 
L 465.577003 301.524953 
L 465.577003 164.492101 
L 461.45689 164.492101 
z
" clip-path="url(#p9f5c3d6ad6)" style="fill: url(#h99fc3d9c30); stroke: #ff7f0e; stroke-width: 2; stroke-linejoin: miter"/>
   </g>
   <g id="patch_77">
    <path d="M 466.304082 301.524953 
L 470.424195 301.524953 
L 470.424195 164.434957 
L 466.304082 164.434957 
z
" clip-path="url(#p9f5c3d6ad6)" style="fill: url(#h99fc3d9c30); stroke: #ff7f0e; stroke-width: 2; stroke-linejoin: miter"/>
   </g>
   <g id="patch_78">
    <path d="M 471.151274 301.524953 
L 475.271387 301.524953 
L 475.271387 163.64591 
L 471.151274 163.64591 
z
" clip-path="url(#p9f5c3d6ad6)" style="fill: url(#h99fc3d9c30); stroke: #ff7f0e; stroke-width: 2; stroke-linejoin: miter"/>
   </g>
   <g id="patch_79">
    <path d="M 475.998466 301.524953 
L 480.118579 301.524953 
L 480.118579 162.471694 
L 475.998466 162.471694 
z
" clip-path="url(#p9f5c3d6ad6)" style="fill: url(#h99fc3d9c30); stroke: #ff7f0e; stroke-width: 2; stroke-linejoin: miter"/>
   </g>
   <g id="patch_80">
    <path d="M 480.845658 301.524953 
L 484.965771 301.524953 
L 484.965771 160.599549 
L 480.845658 160.599549 
z
" clip-path="url(#p9f5c3d6ad6)" style="fill: url(#h99fc3d9c30); stroke: #ff7f0e; stroke-width: 2; stroke-linejoin: miter"/>
   </g>
   <g id="patch_81">
    <path d="M 485.69285 301.524953 
L 489.812963 301.524953 
L 489.812963 157.11469 
L 485.69285 157.11469 
z
" clip-path="url(#p9f5c3d6ad6)" style="fill: url(#h99fc3d9c30); stroke: #ff7f0e; stroke-width: 2; stroke-linejoin: miter"/>
   </g>
   <g id="patch_82">
    <path d="M 490.540042 301.524953 
L 494.660155 301.524953 
L 494.660155 152.958661 
L 490.540042 152.958661 
z
" clip-path="url(#p9f5c3d6ad6)" style="fill: url(#h99fc3d9c30); stroke: #ff7f0e; stroke-width: 2; stroke-linejoin: miter"/>
   </g>
   <g id="patch_83">
    <path d="M 495.387234 301.524953 
L 499.507347 301.524953 
L 499.507347 151.244979 
L 495.387234 151.244979 
z
" clip-path="url(#p9f5c3d6ad6)" style="fill: url(#h99fc3d9c30); stroke: #ff7f0e; stroke-width: 2; stroke-linejoin: miter"/>
   </g>
   <g id="patch_84">
    <path d="M 500.234426 301.524953 
L 504.354539 301.524953 
L 504.354539 149.126033 
L 500.234426 149.126033 
z
" clip-path="url(#p9f5c3d6ad6)" style="fill: url(#h99fc3d9c30); stroke: #ff7f0e; stroke-width: 2; stroke-linejoin: miter"/>
   </g>
   <g id="patch_85">
    <path d="M 505.081618 301.524953 
L 509.201731 301.524953 
L 509.201731 147.336838 
L 505.081618 147.336838 
z
" clip-path="url(#p9f5c3d6ad6)" style="fill: url(#h99fc3d9c30); stroke: #ff7f0e; stroke-width: 2; stroke-linejoin: miter"/>
   </g>
   <g id="patch_86">
    <path d="M 509.92881 301.524953 
L 514.048923 301.524953 
L 514.048923 147.084234 
L 509.92881 147.084234 
z
" clip-path="url(#p9f5c3d6ad6)" style="fill: url(#h99fc3d9c30); stroke: #ff7f0e; stroke-width: 2; stroke-linejoin: miter"/>
   </g>
   <g id="patch_87">
    <path d="M 514.776002 301.524953 
L 518.896115 301.524953 
L 518.896115 146.640473 
L 514.776002 146.640473 
z
" clip-path="url(#p9f5c3d6ad6)" style="fill: url(#h99fc3d9c30); stroke: #ff7f0e; stroke-width: 2; stroke-linejoin: miter"/>
   </g>
   <g id="patch_88">
    <path d="M 519.623194 301.524953 
L 523.743307 301.524953 
L 523.743307 145.175596 
L 519.623194 145.175596 
z
" clip-path="url(#p9f5c3d6ad6)" style="fill: url(#h99fc3d9c30); stroke: #ff7f0e; stroke-width: 2; stroke-linejoin: miter"/>
   </g>
   <g id="patch_89">
    <path d="M 524.470386 301.524953 
L 528.590499 301.524953 
L 528.590499 144.457777 
L 524.470386 144.457777 
z
" clip-path="url(#p9f5c3d6ad6)" style="fill: url(#h99fc3d9c30); stroke: #ff7f0e; stroke-width: 2; stroke-linejoin: miter"/>
   </g>
   <g id="patch_90">
    <path d="M 529.317578 301.524953 
L 533.437691 301.524953 
L 533.437691 144.355256 
L 529.317578 144.355256 
z
" clip-path="url(#p9f5c3d6ad6)" style="fill: url(#h99fc3d9c30); stroke: #ff7f0e; stroke-width: 2; stroke-linejoin: miter"/>
   </g>
   <g id="patch_91">
    <path d="M 534.16477 301.524953 
L 538.284883 301.524953 
L 538.284883 143.496807 
L 534.16477 143.496807 
z
" clip-path="url(#p9f5c3d6ad6)" style="fill: url(#h99fc3d9c30); stroke: #ff7f0e; stroke-width: 2; stroke-linejoin: miter"/>
   </g>
   <g id="patch_92">
    <path d="M 539.011962 301.524953 
L 543.132075 301.524953 
L 543.132075 141.908587 
L 539.011962 141.908587 
z
" clip-path="url(#p9f5c3d6ad6)" style="fill: url(#h99fc3d9c30); stroke: #ff7f0e; stroke-width: 2; stroke-linejoin: miter"/>
   </g>
   <g id="patch_93">
    <path d="M 543.859154 301.524953 
L 547.979267 301.524953 
L 547.979267 132.430727 
L 543.859154 132.430727 
z
" clip-path="url(#p9f5c3d6ad6)" style="fill: url(#h99fc3d9c30); stroke: #ff7f0e; stroke-width: 2; stroke-linejoin: miter"/>
   </g>
   <g id="patch_94">
    <path d="M 548.706346 301.524953 
L 552.826459 301.524953 
L 552.826459 132.34519 
L 548.706346 132.34519 
z
" clip-path="url(#p9f5c3d6ad6)" style="fill: url(#h99fc3d9c30); stroke: #ff7f0e; stroke-width: 2; stroke-linejoin: miter"/>
   </g>
   <g id="patch_95">
    <path d="M 553.553538 301.524953 
L 557.673651 301.524953 
L 557.673651 130.843974 
L 553.553538 130.843974 
z
" clip-path="url(#p9f5c3d6ad6)" style="fill: url(#h99fc3d9c30); stroke: #ff7f0e; stroke-width: 2; stroke-linejoin: miter"/>
   </g>
   <g id="patch_96">
    <path d="M 558.40073 301.524953 
L 562.520843 301.524953 
L 562.520843 130.384378 
L 558.40073 130.384378 
z
" clip-path="url(#p9f5c3d6ad6)" style="fill: url(#h99fc3d9c30); stroke: #ff7f0e; stroke-width: 2; stroke-linejoin: miter"/>
   </g>
   <g id="patch_97">
    <path d="M 563.247922 301.524953 
L 567.368035 301.524953 
L 567.368035 129.599106 
L 563.247922 129.599106 
z
" clip-path="url(#p9f5c3d6ad6)" style="fill: url(#h99fc3d9c30); stroke: #ff7f0e; stroke-width: 2; stroke-linejoin: miter"/>
   </g>
   <g id="patch_98">
    <path d="M 568.095114 301.524953 
L 572.215227 301.524953 
L 572.215227 126.966457 
L 568.095114 126.966457 
z
" clip-path="url(#p9f5c3d6ad6)" style="fill: url(#h99fc3d9c30); stroke: #ff7f0e; stroke-width: 2; stroke-linejoin: miter"/>
   </g>
   <g id="patch_99">
    <path d="M 572.942306 301.524953 
L 577.062419 301.524953 
L 577.062419 126.019632 
L 572.942306 126.019632 
z
" clip-path="url(#p9f5c3d6ad6)" style="fill: url(#h99fc3d9c30); stroke: #ff7f0e; stroke-width: 2; stroke-linejoin: miter"/>
   </g>
   <g id="patch_100">
    <path d="M 577.789498 301.524953 
L 581.909611 301.524953 
L 581.909611 125.782197 
L 577.789498 125.782197 
z
" clip-path="url(#p9f5c3d6ad6)" style="fill: url(#h99fc3d9c30); stroke: #ff7f0e; stroke-width: 2; stroke-linejoin: miter"/>
   </g>
   <g id="patch_101">
    <path d="M 582.63669 301.524953 
L 586.756803 301.524953 
L 586.756803 125.189039 
L 582.63669 125.189039 
z
" clip-path="url(#p9f5c3d6ad6)" style="fill: url(#h99fc3d9c30); stroke: #ff7f0e; stroke-width: 2; stroke-linejoin: miter"/>
   </g>
   <g id="patch_102">
    <path d="M 587.483882 301.524953 
L 591.603995 301.524953 
L 591.603995 124.616167 
L 587.483882 124.616167 
z
" clip-path="url(#p9f5c3d6ad6)" style="fill: url(#h99fc3d9c30); stroke: #ff7f0e; stroke-width: 2; stroke-linejoin: miter"/>
   </g>
   <g id="patch_103">
    <path d="M 592.331074 301.524953 
L 596.451187 301.524953 
L 596.451187 124.144067 
L 592.331074 124.144067 
z
" clip-path="url(#p9f5c3d6ad6)" style="fill: url(#h99fc3d9c30); stroke: #ff7f0e; stroke-width: 2; stroke-linejoin: miter"/>
   </g>
   <g id="patch_104">
    <path d="M 597.178266 301.524953 
L 601.298379 301.524953 
L 601.298379 123.304291 
L 597.178266 123.304291 
z
" clip-path="url(#p9f5c3d6ad6)" style="fill: url(#h99fc3d9c30); stroke: #ff7f0e; stroke-width: 2; stroke-linejoin: miter"/>
   </g>
   <g id="patch_105">
    <path d="M 602.025458 301.524953 
L 606.145571 301.524953 
L 606.145571 123.036149 
L 602.025458 123.036149 
z
" clip-path="url(#p9f5c3d6ad6)" style="fill: url(#h99fc3d9c30); stroke: #ff7f0e; stroke-width: 2; stroke-linejoin: miter"/>
   </g>
   <g id="patch_106">
    <path d="M 606.87265 301.524953 
L 610.992763 301.524953 
L 610.992763 121.452701 
L 606.87265 121.452701 
z
" clip-path="url(#p9f5c3d6ad6)" style="fill: url(#h99fc3d9c30); stroke: #ff7f0e; stroke-width: 2; stroke-linejoin: miter"/>
   </g>
   <g id="patch_107">
    <path d="M 611.719842 301.524953 
L 615.839955 301.524953 
L 615.839955 120.884994 
L 611.719842 120.884994 
z
" clip-path="url(#p9f5c3d6ad6)" style="fill: url(#h99fc3d9c30); stroke: #ff7f0e; stroke-width: 2; stroke-linejoin: miter"/>
   </g>
   <g id="patch_108">
    <path d="M 616.567034 301.524953 
L 620.687147 301.524953 
L 620.687147 120.302723 
L 616.567034 120.302723 
z
" clip-path="url(#p9f5c3d6ad6)" style="fill: url(#h99fc3d9c30); stroke: #ff7f0e; stroke-width: 2; stroke-linejoin: miter"/>
   </g>
   <g id="patch_109">
    <path d="M 621.414226 301.524953 
L 625.534339 301.524953 
L 625.534339 119.993504 
L 621.414226 119.993504 
z
" clip-path="url(#p9f5c3d6ad6)" style="fill: url(#h99fc3d9c30); stroke: #ff7f0e; stroke-width: 2; stroke-linejoin: miter"/>
   </g>
   <g id="patch_110">
    <path d="M 626.261418 301.524953 
L 630.381531 301.524953 
L 630.381531 119.838174 
L 626.261418 119.838174 
z
" clip-path="url(#p9f5c3d6ad6)" style="fill: url(#h99fc3d9c30); stroke: #ff7f0e; stroke-width: 2; stroke-linejoin: miter"/>
   </g>
   <g id="patch_111">
    <path d="M 631.10861 301.524953 
L 635.228723 301.524953 
L 635.228723 119.114154 
L 631.10861 119.114154 
z
" clip-path="url(#p9f5c3d6ad6)" style="fill: url(#h99fc3d9c30); stroke: #ff7f0e; stroke-width: 2; stroke-linejoin: miter"/>
   </g>
   <g id="patch_112">
    <path d="M 635.955802 301.524953 
L 640.075915 301.524953 
L 640.075915 118.025571 
L 635.955802 118.025571 
z
" clip-path="url(#p9f5c3d6ad6)" style="fill: url(#h99fc3d9c30); stroke: #ff7f0e; stroke-width: 2; stroke-linejoin: miter"/>
   </g>
   <g id="patch_113">
    <path d="M 640.802994 301.524953 
L 644.923107 301.524953 
L 644.923107 113.141596 
L 640.802994 113.141596 
z
" clip-path="url(#p9f5c3d6ad6)" style="fill: url(#h99fc3d9c30); stroke: #ff7f0e; stroke-width: 2; stroke-linejoin: miter"/>
   </g>
   <g id="patch_114">
    <path d="M 645.650186 301.524953 
L 649.770299 301.524953 
L 649.770299 82.153542 
L 645.650186 82.153542 
z
" clip-path="url(#p9f5c3d6ad6)" style="fill: url(#h99fc3d9c30); stroke: #ff7f0e; stroke-width: 2; stroke-linejoin: miter"/>
   </g>
   <g id="patch_115">
    <path d="M 650.497378 301.524953 
L 654.617491 301.524953 
L 654.617491 55.34839 
L 650.497378 55.34839 
z
" clip-path="url(#p9f5c3d6ad6)" style="fill: url(#h99fc3d9c30); stroke: #ff7f0e; stroke-width: 2; stroke-linejoin: miter"/>
   </g>
   <g id="patch_116">
    <path d="M 655.34457 301.524953 
L 659.464683 301.524953 
L 659.464683 48.668413 
L 655.34457 48.668413 
z
" clip-path="url(#p9f5c3d6ad6)" style="fill: url(#h99fc3d9c30); stroke: #ff7f0e; stroke-width: 2; stroke-linejoin: miter"/>
   </g>
   <g id="patch_117">
    <path d="M 660.191762 301.524953 
L 664.311875 301.524953 
L 664.311875 47.938688 
L 660.191762 47.938688 
z
" clip-path="url(#p9f5c3d6ad6)" style="fill: url(#h99fc3d9c30); stroke: #ff7f0e; stroke-width: 2; stroke-linejoin: miter"/>
   </g>
   <g id="line2d_26">
    <path d="M 79.776875 166.595683 
L 692.146875 166.595683 
" clip-path="url(#p9f5c3d6ad6)" style="fill: none; stroke-dasharray: 4.44,1.92; stroke-dashoffset: 0; stroke: #f58518; stroke-width: 1.2"/>
   </g>
   <g id="patch_118">
    <path d="M 79.776875 301.524953 
L 79.776875 35.259375 
" style="fill: none; stroke: #808080; stroke-width: 0.8; stroke-linejoin: miter; stroke-linecap: square"/>
   </g>
   <g id="patch_119">
    <path d="M 79.776875 301.524953 
L 692.146875 301.524953 
" style="fill: none; stroke: #808080; stroke-width: 0.8; stroke-linejoin: miter; stroke-linecap: square"/>
   </g>
   <g id="text_23">
    <text style="font: 22px 'PingFang SC', 'Heiti SC', 'STHeiti', 'Calibri', 'Arial', 'Helvetica Neue', 'Arial Unicode MS', 'Noto Sans CJK SC', 'DejaVu Sans', sans-serif; text-anchor: middle" x="385.961875" y="29.259375" transform="rotate(-0 385.961875 29.259375)">排序条形 · Host overhead p50 (us)</text>
   </g>
   <g id="legend_1">
    <g id="patch_120">
     <path d="M 88.176875 62.019375 
L 208.95875 62.019375 
Q 211.35875 62.019375 211.35875 59.619375 
L 211.35875 43.659375 
Q 211.35875 41.259375 208.95875 41.259375 
L 88.176875 41.259375 
Q 85.776875 41.259375 85.776875 43.659375 
L 85.776875 59.619375 
Q 85.776875 62.019375 88.176875 62.019375 
z
" style="fill: #ffffff; opacity: 0.5; stroke: #cccccc; stroke-linejoin: miter"/>
    </g>
    <g id="line2d_27">
     <path d="M 90.576875 51.410625 
L 102.576875 51.410625 
L 114.576875 51.410625 
" style="fill: none; stroke-dasharray: 4.44,1.92; stroke-dashoffset: 0; stroke: #f58518; stroke-width: 1.2"/>
    </g>
    <g id="text_24">
     <text style="font: 12px 'PingFang SC', 'Heiti SC', 'STHeiti', 'Calibri', 'Arial', 'Helvetica Neue', 'Arial Unicode MS', 'Noto Sans CJK SC', 'DejaVu Sans', sans-serif; text-anchor: start" x="124.176875" y="55.610625" transform="rotate(-0 124.176875 55.610625)">median=183.9</text>
    </g>
   </g>
  </g>
 </g>
 <defs>
  <clipPath id="p9f5c3d6ad6">
   <rect x="79.776875" y="35.259375" width="612.37" height="266.265578"/>
  </clipPath>
 </defs>
 <defs>
  <pattern id="h4618f4c465" patternUnits="userSpaceOnUse" x="0" y="0" width="72" height="72">
   <rect x="0" y="0" width="73" height="73" fill="none"/>
   <path d="M -36 36 
L 36 -36 
M -30 42 
L 42 -30 
M -24 48 
L 48 -24 
M -18 54 
L 54 -18 
M -12 60 
L 60 -12 
M -6 66 
L 66 -6 
M 0 72 
L 72 0 
M 6 78 
L 78 6 
M 12 84 
L 84 12 
M 18 90 
L 90 18 
M 24 96 
L 96 24 
M 30 102 
L 102 30 
M 36 108 
L 108 36 
M -36 36 
L 36 108 
M -30 30 
L 42 102 
M -24 24 
L 48 96 
M -18 18 
L 54 90 
M -12 12 
L 60 84 
M -6 6 
L 66 78 
M 0 0 
L 72 72 
M 6 -6 
L 78 66 
M 12 -12 
L 84 60 
M 18 -18 
L 90 54 
M 24 -24 
L 96 48 
M 30 -30 
L 102 42 
M 36 -36 
L 108 36 
" style="fill: #2ca02c; stroke: #2ca02c; stroke-width: 1.0; stroke-linecap: butt; stroke-linejoin: miter"/>
  </pattern>
  <pattern id="h99fc3d9c30" patternUnits="userSpaceOnUse" x="0" y="0" width="72" height="72">
   <rect x="0" y="0" width="73" height="73" fill="none"/>
   <path d="M -36 36 
L 36 -36 
M -30 42 
L 42 -30 
M -24 48 
L 48 -24 
M -18 54 
L 54 -18 
M -12 60 
L 60 -12 
M -6 66 
L 66 -6 
M 0 72 
L 72 0 
M 6 78 
L 78 6 
M 12 84 
L 84 12 
M 18 90 
L 90 18 
M 24 96 
L 96 24 
M 30 102 
L 102 30 
M 36 108 
L 108 36 
" style="fill: #ff7f0e; stroke: #ff7f0e; stroke-width: 1.0; stroke-linecap: butt; stroke-linejoin: miter"/>
  </pattern>
 </defs>
</svg>
