<?xml version="1.0" encoding="utf-8" standalone="no"?>
<!DOCTYPE svg PUBLIC "-//W3C//DTD SVG 1.1//EN"
  "http://www.w3.org/Graphics/SVG/1.1/DTD/svg11.dtd">
<svg xmlns:xlink="http://www.w3.org/1999/xlink" width="702.94875pt" height="342.872603pt" viewBox="0 0 702.94875 342.872603" xmlns="http://www.w3.org/2000/svg" version="1.1">
 <metadata>
  <rdf:RDF xmlns:dc="http://purl.org/dc/elements/1.1/" xmlns:cc="http://creativecommons.org/ns#" xmlns:rdf="http://www.w3.org/1999/02/22-rdf-syntax-ns#">
   <cc:Work>
    <dc:type rdf:resource="http://purl.org/dc/dcmitype/StillImage"/>
    <dc:date>2026-07-11T23:31:16.540756</dc:date>
    <dc:format>image/svg+xml</dc:format>
    <dc:creator>
     <cc:Agent>
      <dc:title>Matplotlib v3.9.4, https://matplotlib.org/</dc:title>
     </cc:Agent>
    </dc:creator>
   </cc:Work>
  </rdf:RDF>
 </metadata>
 <defs>
  <style type="text/css">*{stroke-linejoin: round; stroke-linecap: butt}</style>
 </defs>
 <g id="figure_1">
  <g id="patch_1">
   <path d="M 0 342.872603 
L 702.94875 342.872603 
L 702.94875 0 
L 0 0 
z
" style="fill: #ffffff"/>
  </g>
  <g id="axes_1">
   <g id="patch_2">
    <path d="M 91.96625 301.524953 
L 692.14875 301.524953 
L 692.14875 35.259375 
L 91.96625 35.259375 
z
" style="fill: #ffffff"/>
   </g>
   <g id="matplotlib.axis_1">
    <g id="xtick_1">
     <g id="line2d_1">
      <defs>
       <path id="m71df05271c" d="M 0 0 
L 0 3.5 
" style="stroke: #808080; stroke-width: 0.8"/>
      </defs>
      <g>
       <use xlink:href="#m71df05271c" x="121.26633" y="301.524953" style="fill: #808080; stroke: #808080; stroke-width: 0.8"/>
      </g>
     </g>
     <g id="text_1">
      <text style="fill: #808080; font: 9px 'PingFang SC', 'Heiti SC', 'STHeiti', 'Calibri', 'Arial', 'Helvetica Neue', 'Arial Unicode MS', 'Noto Sans CJK SC', 'DejaVu Sans', sans-serif" transform="translate(102.783995 331.219434) rotate(-45)">w13.2</text>
     </g>
    </g>
    <g id="xtick_2">
     <g id="line2d_2">
      <g>
       <use xlink:href="#m71df05271c" x="154.521386" y="301.524953" style="fill: #808080; stroke: #808080; stroke-width: 0.8"/>
      </g>
     </g>
     <g id="text_2">
      <text style="fill: #808080; font: 9px 'PingFang SC', 'Heiti SC', 'STHeiti', 'Calibri', 'Arial', 'Helvetica Neue', 'Arial Unicode MS', 'Noto Sans CJK SC', 'DejaVu Sans', sans-serif" transform="translate(139.565083 327.693402) rotate(-45)">w8.0</text>
     </g>
    </g>
    <g id="xtick_3">
     <g id="line2d_3">
      <g>
       <use xlink:href="#m71df05271c" x="187.776442" y="301.524953" style="fill: #808080; stroke: #808080; stroke-width: 0.8"/>
      </g>
     </g>
     <g id="text_3">
      <text style="fill: #808080; font: 9px 'PingFang SC', 'Heiti SC', 'STHeiti', 'Calibri', 'Arial', 'Helvetica Neue', 'Arial Unicode MS', 'Noto Sans CJK SC', 'DejaVu Sans', sans-serif" transform="translate(172.820139 327.693402) rotate(-45)">w2.3</text>
     </g>
    </g>
    <g id="xtick_4">
     <g id="line2d_4">
      <g>
       <use xlink:href="#m71df05271c" x="221.031498" y="301.524953" style="fill: #808080; stroke: #808080; stroke-width: 0.8"/>
      </g>
     </g>
     <g id="text_4">
      <text style="fill: #808080; font: 9px 'PingFang SC', 'Heiti SC', 'STHeiti', 'Calibri', 'Arial', 'Helvetica Neue', 'Arial Unicode MS', 'Noto Sans CJK SC', 'DejaVu Sans', sans-serif" transform="translate(206.075195 327.693402) rotate(-45)">w0.4</text>
     </g>
    </g>
    <g id="xtick_5">
     <g id="line2d_5">
      <g>
       <use xlink:href="#m71df05271c" x="254.286554" y="301.524953" style="fill: #808080; stroke: #808080; stroke-width: 0.8"/>
      </g>
     </g>
     <g id="text_5">
      <text style="fill: #808080; font: 9px 'PingFang SC', 'Heiti SC', 'STHeiti', 'Calibri', 'Arial', 'Helvetica Neue', 'Arial Unicode MS', 'Noto Sans CJK SC', 'DejaVu Sans', sans-serif" transform="translate(238.649108 328.374545) rotate(-45)">m0.5</text>
     </g>
    </g>
    <g id="xtick_6">
     <g id="line2d_6">
      <g>
       <use xlink:href="#m71df05271c" x="287.54161" y="301.524953" style="fill: #808080; stroke: #808080; stroke-width: 0.8"/>
      </g>
     </g>
     <g id="text_6">
      <text style="fill: #808080; font: 9px 'PingFang SC', 'Heiti SC', 'STHeiti', 'Calibri', 'Arial', 'Helvetica Neue', 'Arial Unicode MS', 'Noto Sans CJK SC', 'DejaVu Sans', sans-serif" transform="translate(272.585307 327.693402) rotate(-45)">w6.6</text>
     </g>
    </g>
    <g id="xtick_7">
     <g id="line2d_7">
      <g>
       <use xlink:href="#m71df05271c" x="320.796666" y="301.524953" style="fill: #808080; stroke: #808080; stroke-width: 0.8"/>
      </g>
     </g>
     <g id="text_7">
      <text style="fill: #808080; font: 9px 'PingFang SC', 'Heiti SC', 'STHeiti', 'Calibri', 'Arial', 'Helvetica Neue', 'Arial Unicode MS', 'Noto Sans CJK SC', 'DejaVu Sans', sans-serif" transform="translate(305.840363 327.693402) rotate(-45)">w4.7</text>
     </g>
    </g>
    <g id="xtick_8">
     <g id="line2d_8">
      <g>
       <use xlink:href="#m71df05271c" x="354.051722" y="301.524953" style="fill: #808080; stroke: #808080; stroke-width: 0.8"/>
      </g>
     </g>
     <g id="text_8">
      <text style="fill: #808080; font: 9px 'PingFang SC', 'Heiti SC', 'STHeiti', 'Calibri', 'Arial', 'Helvetica Neue', 'Arial Unicode MS', 'Noto Sans CJK SC', 'DejaVu Sans', sans-serif" transform="translate(339.095419 327.693402) rotate(-45)">w9.6</text>
     </g>
    </g>
    <g id="xtick_9">
     <g id="line2d_9">
      <g>
       <use xlink:href="#m71df05271c" x="387.306778" y="301.524953" style="fill: #808080; stroke: #808080; stroke-width: 0.8"/>
      </g>
     </g>
     <g id="text_9">
      <text style="fill: #808080; font: 9px 'PingFang SC', 'Heiti SC', 'STHeiti', 'Calibri', 'Arial', 'Helvetica Neue', 'Arial Unicode MS', 'Noto Sans CJK SC', 'DejaVu Sans', sans-serif" transform="translate(368.824443 331.219434) rotate(-45)">w14.3</text>
     </g>
    </g>
    <g id="xtick_10">
     <g id="line2d_10">
      <g>
       <use xlink:href="#m71df05271c" x="420.561834" y="301.524953" style="fill: #808080; stroke: #808080; stroke-width: 0.8"/>
      </g>
     </g>
     <g id="text_10">
      <text style="fill: #808080; font: 9px 'PingFang SC', 'Heiti SC', 'STHeiti', 'Calibri', 'Arial', 'Helvetica Neue', 'Arial Unicode MS', 'Noto Sans CJK SC', 'DejaVu Sans', sans-serif" transform="translate(405.605531 327.693402) rotate(-45)">w1.1</text>
     </g>
    </g>
    <g id="xtick_11">
     <g id="line2d_11">
      <g>
       <use xlink:href="#m71df05271c" x="453.81689" y="301.524953" style="fill: #808080; stroke: #808080; stroke-width: 0.8"/>
      </g>
     </g>
     <g id="text_11">
      <text style="fill: #808080; font: 9px 'PingFang SC', 'Heiti SC', 'STHeiti', 'Calibri', 'Arial', 'Helvetica Neue', 'Arial Unicode MS', 'Noto Sans CJK SC', 'DejaVu Sans', sans-serif" transform="translate(438.860587 327.693402) rotate(-45)">w0.6</text>
     </g>
    </g>
    <g id="xtick_12">
     <g id="line2d_12">
      <g>
       <use xlink:href="#m71df05271c" x="487.071946" y="301.524953" style="fill: #808080; stroke: #808080; stroke-width: 0.8"/>
      </g>
     </g>
     <g id="text_12">
      <text style="fill: #808080; font: 9px 'PingFang SC', 'Heiti SC', 'STHeiti', 'Calibri', 'Arial', 'Helvetica Neue', 'Arial Unicode MS', 'Noto Sans CJK SC', 'DejaVu Sans', sans-serif" transform="translate(468.589611 331.219434) rotate(-45)">w10.7</text>
     </g>
    </g>
    <g id="xtick_13">
     <g id="line2d_13">
      <g>
       <use xlink:href="#m71df05271c" x="520.327002" y="301.524953" style="fill: #808080; stroke: #808080; stroke-width: 0.8"/>
      </g>
     </g>
     <g id="text_13">
      <text style="fill: #808080; font: 9px 'PingFang SC', 'Heiti SC', 'STHeiti', 'Calibri', 'Arial', 'Helvetica Neue', 'Arial Unicode MS', 'Noto Sans CJK SC', 'DejaVu Sans', sans-serif" transform="translate(501.844667 331.219434) rotate(-45)">w14.5</text>
     </g>
    </g>
    <g id="xtick_14">
     <g id="line2d_14">
      <g>
       <use xlink:href="#m71df05271c" x="553.582058" y="301.524953" style="fill: #808080; stroke: #808080; stroke-width: 0.8"/>
      </g>
     </g>
     <g id="text_14">
      <text style="fill: #808080; font: 9px 'PingFang SC', 'Heiti SC', 'STHeiti', 'Calibri', 'Arial', 'Helvetica Neue', 'Arial Unicode MS', 'Noto Sans CJK SC', 'DejaVu Sans', sans-serif" transform="translate(538.625755 327.693402) rotate(-45)">w6.2</text>
     </g>
    </g>
    <g id="xtick_15">
     <g id="line2d_15">
      <g>
       <use xlink:href="#m71df05271c" x="586.837114" y="301.524953" style="fill: #808080; stroke: #808080; stroke-width: 0.8"/>
      </g>
     </g>
     <g id="text_15">
      <text style="fill: #808080; font: 9px 'PingFang SC', 'Heiti SC', 'STHeiti', 'Calibri', 'Arial', 'Helvetica Neue', 'Arial Unicode MS', 'Noto Sans CJK SC', 'DejaVu Sans', sans-serif" transform="translate(571.880811 327.693402) rotate(-45)">w9.5</text>
     </g>
    </g>
    <g id="xtick_16">
     <g id="line2d_16">
      <g>
       <use xlink:href="#m71df05271c" x="620.09217" y="301.524953" style="fill: #808080; stroke: #808080; stroke-width: 0.8"/>
      </g>
     </g>
     <g id="text_16">
      <text style="fill: #808080; font: 9px 'PingFang SC', 'Heiti SC', 'STHeiti', 'Calibri', 'Arial', 'Helvetica Neue', 'Arial Unicode MS', 'Noto Sans CJK SC', 'DejaVu Sans', sans-serif" transform="translate(605.135867 327.693402) rotate(-45)">w2.4</text>
     </g>
    </g>
    <g id="xtick_17">
     <g id="line2d_17">
      <g>
       <use xlink:href="#m71df05271c" x="653.347226" y="301.524953" style="fill: #808080; stroke: #808080; stroke-width: 0.8"/>
      </g>
     </g>
     <g id="text_17">
      <text style="fill: #808080; font: 9px 'PingFang SC', 'Heiti SC', 'STHeiti', 'Calibri', 'Arial', 'Helvetica Neue', 'Arial Unicode MS', 'Noto Sans CJK SC', 'DejaVu Sans', sans-serif" transform="translate(638.390923 327.693402) rotate(-45)">w2.2</text>
     </g>
    </g>
   </g>
   <g id="matplotlib.axis_2">
    <g id="ytick_1">
     <g id="line2d_18">
      <path d="M 91.96625 301.524953 
L 692.14875 301.524953 
" clip-path="url(#p23596bcdec)" style="fill: none; stroke-dasharray: 1,1.65; stroke-dashoffset: 0; stroke: #808080; stroke-opacity: 0.55"/>
     </g>
     <g id="line2d_19">
      <defs>
       <path id="mc6e768b318" d="M 0 0 
L -3.5 0 
" style="stroke: #808080; stroke-width: 0.8"/>
      </defs>
      <g>
       <use xlink:href="#mc6e768b318" x="91.96625" y="301.524953" style="fill: #808080; stroke: #808080; stroke-width: 0.8"/>
      </g>
     </g>
     <g id="text_18">
      <text style="fill: #808080; font: 22px 'PingFang SC', 'Heiti SC', 'STHeiti', 'Calibri', 'Arial', 'Helvetica Neue', 'Arial Unicode MS', 'Noto Sans CJK SC', 'DejaVu Sans', sans-serif; text-anchor: end" x="84.96625" y="310.280265" transform="rotate(-0 84.96625 310.280265)">0</text>
     </g>
    </g>
    <g id="ytick_2">
     <g id="line2d_20">
      <path d="M 91.96625 227.592462 
L 692.14875 227.592462 
" clip-path="url(#p23596bcdec)" style="fill: none; stroke-dasharray: 1,1.65; stroke-dashoffset: 0; stroke: #808080; stroke-opacity: 0.55"/>
     </g>
     <g id="line2d_21">
      <g>
       <use xlink:href="#mc6e768b318" x="91.96625" y="227.592462" style="fill: #808080; stroke: #808080; stroke-width: 0.8"/>
      </g>
     </g>
     <g id="text_19">
      <text style="fill: #808080; font: 22px 'PingFang SC', 'Heiti SC', 'STHeiti', 'Calibri', 'Arial', 'Helvetica Neue', 'Arial Unicode MS', 'Noto Sans CJK SC', 'DejaVu Sans', sans-serif; text-anchor: end" x="84.96625" y="236.347774" transform="rotate(-0 84.96625 236.347774)">1000</text>
     </g>
    </g>
    <g id="ytick_3">
     <g id="line2d_22">
      <path d="M 91.96625 153.659971 
L 692.14875 153.659971 
" clip-path="url(#p23596bcdec)" style="fill: none; stroke-dasharray: 1,1.65; stroke-dashoffset: 0; stroke: #808080; stroke-opacity: 0.55"/>
     </g>
     <g id="line2d_23">
      <g>
       <use xlink:href="#mc6e768b318" x="91.96625" y="153.659971" style="fill: #808080; stroke: #808080; stroke-width: 0.8"/>
      </g>
     </g>
     <g id="text_20">
      <text style="fill: #808080; font: 22px 'PingFang SC', 'Heiti SC', 'STHeiti', 'Calibri', 'Arial', 'Helvetica Neue', 'Arial Unicode MS', 'Noto Sans CJK SC', 'DejaVu Sans', sans-serif; text-anchor: end" x="84.96625" y="162.415283" transform="rotate(-0 84.96625 162.415283)">2000</text>
     </g>
    </g>
    <g id="ytick_4">
     <g id="line2d_24">
      <path d="M 91.96625 79.72748 
L 692.14875 79.72748 
" clip-path="url(#p23596bcdec)" style="fill: none; stroke-dasharray: 1,1.65; stroke-dashoffset: 0; stroke: #808080; stroke-opacity: 0.55"/>
     </g>
     <g id="line2d_25">
      <g>
       <use xlink:href="#mc6e768b318" x="91.96625" y="79.72748" style="fill: #808080; stroke: #808080; stroke-width: 0.8"/>
      </g>
     </g>
     <g id="text_21">
      <text style="fill: #808080; font: 22px 'PingFang SC', 'Heiti SC', 'STHeiti', 'Calibri', 'Arial', 'Helvetica Neue', 'Arial Unicode MS', 'Noto Sans CJK SC', 'DejaVu Sans', sans-serif; text-anchor: end" x="84.96625" y="88.482792" transform="rotate(-0 84.96625 88.482792)">3000</text>
     </g>
    </g>
    <g id="text_22">
     <text style="font: 22px 'PingFang SC', 'Heiti SC', 'STHeiti', 'Calibri', 'Arial', 'Helvetica Neue', 'Arial Unicode MS', 'Noto Sans CJK SC', 'DejaVu Sans', sans-serif; text-anchor: middle" x="29.259375" y="168.392164" transform="rotate(-90 29.259375 168.392164)">Host overhead p99 (us)</text>
    </g>
   </g>
   <g id="patch_3">
    <path d="M 119.247273 301.524953 
L 123.285387 301.524953 
L 123.285387 267.106007 
L 119.247273 267.106007 
z
" clip-path="url(#p23596bcdec)" style="fill: url(#hde3578347f); stroke: #2ca02c; stroke-width: 2; stroke-linejoin: miter"/>
   </g>
   <g id="patch_4">
    <path d="M 123.997995 301.524953 
L 128.036109 301.524953 
L 128.036109 266.645797 
L 123.997995 266.645797 
z
" clip-path="url(#p23596bcdec)" style="fill: url(#hde3578347f); stroke: #2ca02c; stroke-width: 2; stroke-linejoin: miter"/>
   </g>
   <g id="patch_5">
    <path d="M 128.748717 301.524953 
L 132.786831 301.524953 
L 132.786831 266.369453 
L 128.748717 266.369453 
z
" clip-path="url(#p23596bcdec)" style="fill: url(#hde3578347f); stroke: #2ca02c; stroke-width: 2; stroke-linejoin: miter"/>
   </g>
   <g id="patch_6">
    <path d="M 133.49944 301.524953 
L 137.537554 301.524953 
L 137.537554 266.329602 
L 133.49944 266.329602 
z
" clip-path="url(#p23596bcdec)" style="fill: url(#hde3578347f); stroke: #2ca02c; stroke-width: 2; stroke-linejoin: miter"/>
   </g>
   <g id="patch_7">
    <path d="M 138.250162 301.524953 
L 142.288276 301.524953 
L 142.288276 266.240006 
L 138.250162 266.240006 
z
" clip-path="url(#p23596bcdec)" style="fill: url(#hde3578347f); stroke: #2ca02c; stroke-width: 2; stroke-linejoin: miter"/>
   </g>
   <g id="patch_8">
    <path d="M 143.000884 301.524953 
L 147.038998 301.524953 
L 147.038998 265.892164 
L 143.000884 265.892164 
z
" clip-path="url(#p23596bcdec)" style="fill: url(#hde3578347f); stroke: #2ca02c; stroke-width: 2; stroke-linejoin: miter"/>
   </g>
   <g id="patch_9">
    <path d="M 147.751606 301.524953 
L 151.78972 301.524953 
L 151.78972 265.791371 
L 147.751606 265.791371 
z
" clip-path="url(#p23596bcdec)" style="fill: url(#hde3578347f); stroke: #2ca02c; stroke-width: 2; stroke-linejoin: miter"/>
   </g>
   <g id="patch_10">
    <path d="M 152.502329 301.524953 
L 156.540443 301.524953 
L 156.540443 265.626638 
L 152.502329 265.626638 
z
" clip-path="url(#p23596bcdec)" style="fill: url(#hde3578347f); stroke: #2ca02c; stroke-width: 2; stroke-linejoin: miter"/>
   </g>
   <g id="patch_11">
    <path d="M 157.253051 301.524953 
L 161.291165 301.524953 
L 161.291165 265.571297 
L 157.253051 265.571297 
z
" clip-path="url(#p23596bcdec)" style="fill: url(#hde3578347f); stroke: #2ca02c; stroke-width: 2; stroke-linejoin: miter"/>
   </g>
   <g id="patch_12">
    <path d="M 162.003773 301.524953 
L 166.041887 301.524953 
L 166.041887 265.56229 
L 162.003773 265.56229 
z
" clip-path="url(#p23596bcdec)" style="fill: url(#hde3578347f); stroke: #2ca02c; stroke-width: 2; stroke-linejoin: miter"/>
   </g>
   <g id="patch_13">
    <path d="M 166.754496 301.524953 
L 170.79261 301.524953 
L 170.79261 265.504786 
L 166.754496 265.504786 
z
" clip-path="url(#p23596bcdec)" style="fill: url(#hde3578347f); stroke: #2ca02c; stroke-width: 2; stroke-linejoin: miter"/>
   </g>
   <g id="patch_14">
    <path d="M 171.505218 301.524953 
L 175.543332 301.524953 
L 175.543332 265.376363 
L 171.505218 265.376363 
z
" clip-path="url(#p23596bcdec)" style="fill: url(#hde3578347f); stroke: #2ca02c; stroke-width: 2; stroke-linejoin: miter"/>
   </g>
   <g id="patch_15">
    <path d="M 176.25594 301.524953 
L 180.294054 301.524953 
L 180.294054 265.35987 
L 176.25594 265.35987 
z
" clip-path="url(#p23596bcdec)" style="fill: url(#hde3578347f); stroke: #2ca02c; stroke-width: 2; stroke-linejoin: miter"/>
   </g>
   <g id="patch_16">
    <path d="M 181.006662 301.524953 
L 185.044776 301.524953 
L 185.044776 265.350526 
L 181.006662 265.350526 
z
" clip-path="url(#p23596bcdec)" style="fill: url(#hde3578347f); stroke: #2ca02c; stroke-width: 2; stroke-linejoin: miter"/>
   </g>
   <g id="patch_17">
    <path d="M 185.757385 301.524953 
L 189.795499 301.524953 
L 189.795499 265.34626 
L 185.757385 265.34626 
z
" clip-path="url(#p23596bcdec)" style="fill: url(#hde3578347f); stroke: #2ca02c; stroke-width: 2; stroke-linejoin: miter"/>
   </g>
   <g id="patch_18">
    <path d="M 190.508107 301.524953 
L 194.546221 301.524953 
L 194.546221 265.309651 
L 190.508107 265.309651 
z
" clip-path="url(#p23596bcdec)" style="fill: url(#hde3578347f); stroke: #2ca02c; stroke-width: 2; stroke-linejoin: miter"/>
   </g>
   <g id="patch_19">
    <path d="M 195.258829 301.524953 
L 199.296943 301.524953 
L 199.296943 265.257476 
L 195.258829 265.257476 
z
" clip-path="url(#p23596bcdec)" style="fill: url(#hde3578347f); stroke: #2ca02c; stroke-width: 2; stroke-linejoin: miter"/>
   </g>
   <g id="patch_20">
    <path d="M 200.009552 301.524953 
L 204.047666 301.524953 
L 204.047666 265.256133 
L 200.009552 265.256133 
z
" clip-path="url(#p23596bcdec)" style="fill: url(#hde3578347f); stroke: #2ca02c; stroke-width: 2; stroke-linejoin: miter"/>
   </g>
   <g id="patch_21">
    <path d="M 204.760274 301.524953 
L 208.798388 301.524953 
L 208.798388 265.213582 
L 204.760274 265.213582 
z
" clip-path="url(#p23596bcdec)" style="fill: url(#hde3578347f); stroke: #2ca02c; stroke-width: 2; stroke-linejoin: miter"/>
   </g>
   <g id="patch_22">
    <path d="M 209.510996 301.524953 
L 213.54911 301.524953 
L 213.54911 265.182452 
L 209.510996 265.182452 
z
" clip-path="url(#p23596bcdec)" style="fill: url(#hde3578347f); stroke: #2ca02c; stroke-width: 2; stroke-linejoin: miter"/>
   </g>
   <g id="patch_23">
    <path d="M 214.261718 301.524953 
L 218.299832 301.524953 
L 218.299832 265.128813 
L 214.261718 265.128813 
z
" clip-path="url(#p23596bcdec)" style="fill: url(#hde3578347f); stroke: #2ca02c; stroke-width: 2; stroke-linejoin: miter"/>
   </g>
   <g id="patch_24">
    <path d="M 219.012441 301.524953 
L 223.050555 301.524953 
L 223.050555 265.089971 
L 219.012441 265.089971 
z
" clip-path="url(#p23596bcdec)" style="fill: url(#hde3578347f); stroke: #2ca02c; stroke-width: 2; stroke-linejoin: miter"/>
   </g>
   <g id="patch_25">
    <path d="M 223.763163 301.524953 
L 227.801277 301.524953 
L 227.801277 265.051186 
L 223.763163 265.051186 
z
" clip-path="url(#p23596bcdec)" style="fill: url(#hde3578347f); stroke: #2ca02c; stroke-width: 2; stroke-linejoin: miter"/>
   </g>
   <g id="patch_26">
    <path d="M 228.513885 301.524953 
L 232.551999 301.524953 
L 232.551999 265.017654 
L 228.513885 265.017654 
z
" clip-path="url(#p23596bcdec)" style="fill: url(#hde3578347f); stroke: #2ca02c; stroke-width: 2; stroke-linejoin: miter"/>
   </g>
   <g id="patch_27">
    <path d="M 233.264608 301.524953 
L 237.302722 301.524953 
L 237.302722 264.972261 
L 233.264608 264.972261 
z
" clip-path="url(#p23596bcdec)" style="fill: url(#hde3578347f); stroke: #2ca02c; stroke-width: 2; stroke-linejoin: miter"/>
   </g>
   <g id="patch_28">
    <path d="M 238.01533 301.524953 
L 242.053444 301.524953 
L 242.053444 264.891333 
L 238.01533 264.891333 
z
" clip-path="url(#p23596bcdec)" style="fill: url(#hde3578347f); stroke: #2ca02c; stroke-width: 2; stroke-linejoin: miter"/>
   </g>
   <g id="patch_29">
    <path d="M 242.766052 301.524953 
L 246.804166 301.524953 
L 246.804166 264.866146 
L 242.766052 264.866146 
z
" clip-path="url(#p23596bcdec)" style="fill: url(#hde3578347f); stroke: #2ca02c; stroke-width: 2; stroke-linejoin: miter"/>
   </g>
   <g id="patch_30">
    <path d="M 247.516774 301.524953 
L 251.554888 301.524953 
L 251.554888 264.820962 
L 247.516774 264.820962 
z
" clip-path="url(#p23596bcdec)" style="fill: url(#hde3578347f); stroke: #2ca02c; stroke-width: 2; stroke-linejoin: miter"/>
   </g>
   <g id="patch_31">
    <path d="M 252.267497 301.524953 
L 256.305611 301.524953 
L 256.305611 264.757562 
L 252.267497 264.757562 
z
" clip-path="url(#p23596bcdec)" style="fill: url(#hde3578347f); stroke: #2ca02c; stroke-width: 2; stroke-linejoin: miter"/>
   </g>
   <g id="patch_32">
    <path d="M 257.018219 301.524953 
L 261.056333 301.524953 
L 261.056333 264.718345 
L 257.018219 264.718345 
z
" clip-path="url(#p23596bcdec)" style="fill: url(#hde3578347f); stroke: #2ca02c; stroke-width: 2; stroke-linejoin: miter"/>
   </g>
   <g id="patch_33">
    <path d="M 261.768941 301.524953 
L 265.807055 301.524953 
L 265.807055 264.680783 
L 261.768941 264.680783 
z
" clip-path="url(#p23596bcdec)" style="fill: url(#hde3578347f); stroke: #2ca02c; stroke-width: 2; stroke-linejoin: miter"/>
   </g>
   <g id="patch_34">
    <path d="M 266.519664 301.524953 
L 270.557778 301.524953 
L 270.557778 264.661301 
L 266.519664 264.661301 
z
" clip-path="url(#p23596bcdec)" style="fill: url(#hde3578347f); stroke: #2ca02c; stroke-width: 2; stroke-linejoin: miter"/>
   </g>
   <g id="patch_35">
    <path d="M 271.270386 301.524953 
L 275.3085 301.524953 
L 275.3085 264.626576 
L 271.270386 264.626576 
z
" clip-path="url(#p23596bcdec)" style="fill: url(#hde3578347f); stroke: #2ca02c; stroke-width: 2; stroke-linejoin: miter"/>
   </g>
   <g id="patch_36">
    <path d="M 276.021108 301.524953 
L 280.059222 301.524953 
L 280.059222 264.56397 
L 276.021108 264.56397 
z
" clip-path="url(#p23596bcdec)" style="fill: url(#hde3578347f); stroke: #2ca02c; stroke-width: 2; stroke-linejoin: miter"/>
   </g>
   <g id="patch_37">
    <path d="M 280.77183 301.524953 
L 284.809944 301.524953 
L 284.809944 264.486687 
L 280.77183 264.486687 
z
" clip-path="url(#p23596bcdec)" style="fill: url(#hde3578347f); stroke: #2ca02c; stroke-width: 2; stroke-linejoin: miter"/>
   </g>
   <g id="patch_38">
    <path d="M 285.522553 301.524953 
L 289.560667 301.524953 
L 289.560667 264.39145 
L 285.522553 264.39145 
z
" clip-path="url(#p23596bcdec)" style="fill: url(#hde3578347f); stroke: #2ca02c; stroke-width: 2; stroke-linejoin: miter"/>
   </g>
   <g id="patch_39">
    <path d="M 290.273275 301.524953 
L 294.311389 301.524953 
L 294.311389 264.363895 
L 290.273275 264.363895 
z
" clip-path="url(#p23596bcdec)" style="fill: url(#hde3578347f); stroke: #2ca02c; stroke-width: 2; stroke-linejoin: miter"/>
   </g>
   <g id="patch_40">
    <path d="M 295.023997 301.524953 
L 299.062111 301.524953 
L 299.062111 264.310117 
L 295.023997 264.310117 
z
" clip-path="url(#p23596bcdec)" style="fill: url(#hde3578347f); stroke: #2ca02c; stroke-width: 2; stroke-linejoin: miter"/>
   </g>
   <g id="patch_41">
    <path d="M 299.77472 301.524953 
L 303.812834 301.524953 
L 303.812834 264.271561 
L 299.77472 264.271561 
z
" clip-path="url(#p23596bcdec)" style="fill: url(#hde3578347f); stroke: #2ca02c; stroke-width: 2; stroke-linejoin: miter"/>
   </g>
   <g id="patch_42">
    <path d="M 304.525442 301.524953 
L 308.563556 301.524953 
L 308.563556 264.254284 
L 304.525442 264.254284 
z
" clip-path="url(#p23596bcdec)" style="fill: url(#hde3578347f); stroke: #2ca02c; stroke-width: 2; stroke-linejoin: miter"/>
   </g>
   <g id="patch_43">
    <path d="M 309.276164 301.524953 
L 313.314278 301.524953 
L 313.314278 264.232564 
L 309.276164 264.232564 
z
" clip-path="url(#p23596bcdec)" style="fill: url(#hde3578347f); stroke: #2ca02c; stroke-width: 2; stroke-linejoin: miter"/>
   </g>
   <g id="patch_44">
    <path d="M 314.026886 301.524953 
L 318.065 301.524953 
L 318.065 264.109102 
L 314.026886 264.109102 
z
" clip-path="url(#p23596bcdec)" style="fill: url(#hde3578347f); stroke: #2ca02c; stroke-width: 2; stroke-linejoin: miter"/>
   </g>
   <g id="patch_45">
    <path d="M 318.777609 301.524953 
L 322.815723 301.524953 
L 322.815723 264.084916 
L 318.777609 264.084916 
z
" clip-path="url(#p23596bcdec)" style="fill: url(#hde3578347f); stroke: #2ca02c; stroke-width: 2; stroke-linejoin: miter"/>
   </g>
   <g id="patch_46">
    <path d="M 323.528331 301.524953 
L 327.566445 301.524953 
L 327.566445 263.934905 
L 323.528331 263.934905 
z
" clip-path="url(#p23596bcdec)" style="fill: url(#hde3578347f); stroke: #2ca02c; stroke-width: 2; stroke-linejoin: miter"/>
   </g>
   <g id="patch_47">
    <path d="M 328.279053 301.524953 
L 332.317167 301.524953 
L 332.317167 263.769879 
L 328.279053 263.769879 
z
" clip-path="url(#p23596bcdec)" style="fill: url(#hde3578347f); stroke: #2ca02c; stroke-width: 2; stroke-linejoin: miter"/>
   </g>
   <g id="patch_48">
    <path d="M 333.029776 301.524953 
L 337.06789 301.524953 
L 337.06789 263.736457 
L 333.029776 263.736457 
z
" clip-path="url(#p23596bcdec)" style="fill: url(#hde3578347f); stroke: #2ca02c; stroke-width: 2; stroke-linejoin: miter"/>
   </g>
   <g id="patch_49">
    <path d="M 337.780498 301.524953 
L 341.818612 301.524953 
L 341.818612 263.603164 
L 337.780498 263.603164 
z
" clip-path="url(#p23596bcdec)" style="fill: url(#hde3578347f); stroke: #2ca02c; stroke-width: 2; stroke-linejoin: miter"/>
   </g>
   <g id="patch_50">
    <path d="M 342.53122 301.524953 
L 346.569334 301.524953 
L 346.569334 263.503148 
L 342.53122 263.503148 
z
" clip-path="url(#p23596bcdec)" style="fill: url(#hde3578347f); stroke: #2ca02c; stroke-width: 2; stroke-linejoin: miter"/>
   </g>
   <g id="patch_51">
    <path d="M 347.281942 301.524953 
L 351.320056 301.524953 
L 351.320056 262.988123 
L 347.281942 262.988123 
z
" clip-path="url(#p23596bcdec)" style="fill: url(#hde3578347f); stroke: #2ca02c; stroke-width: 2; stroke-linejoin: miter"/>
   </g>
   <g id="patch_52">
    <path d="M 352.032665 301.524953 
L 356.070779 301.524953 
L 356.070779 262.824101 
L 352.032665 262.824101 
z
" clip-path="url(#p23596bcdec)" style="fill: url(#hde3578347f); stroke: #2ca02c; stroke-width: 2; stroke-linejoin: miter"/>
   </g>
   <g id="patch_53">
    <path d="M 356.783387 301.524953 
L 360.821501 301.524953 
L 360.821501 262.725868 
L 356.783387 262.725868 
z
" clip-path="url(#p23596bcdec)" style="fill: url(#hde3578347f); stroke: #2ca02c; stroke-width: 2; stroke-linejoin: miter"/>
   </g>
   <g id="patch_54">
    <path d="M 361.534109 301.524953 
L 365.572223 301.524953 
L 365.572223 262.722718 
L 361.534109 262.722718 
z
" clip-path="url(#p23596bcdec)" style="fill: url(#hde3578347f); stroke: #2ca02c; stroke-width: 2; stroke-linejoin: miter"/>
   </g>
   <g id="patch_55">
    <path d="M 366.284832 301.524953 
L 370.322946 301.524953 
L 370.322946 262.629351 
L 366.284832 262.629351 
z
" clip-path="url(#p23596bcdec)" style="fill: url(#hde3578347f); stroke: #2ca02c; stroke-width: 2; stroke-linejoin: miter"/>
   </g>
   <g id="patch_56">
    <path d="M 371.035554 301.524953 
L 375.073668 301.524953 
L 375.073668 262.090701 
L 371.035554 262.090701 
z
" clip-path="url(#p23596bcdec)" style="fill: url(#hde3578347f); stroke: #2ca02c; stroke-width: 2; stroke-linejoin: miter"/>
   </g>
   <g id="patch_57">
    <path d="M 375.786276 301.524953 
L 379.82439 301.524953 
L 379.82439 261.882056 
L 375.786276 261.882056 
z
" clip-path="url(#p23596bcdec)" style="fill: url(#hde3578347f); stroke: #2ca02c; stroke-width: 2; stroke-linejoin: miter"/>
   </g>
   <g id="patch_58">
    <path d="M 380.536998 301.524953 
L 384.575112 301.524953 
L 384.575112 261.545757 
L 380.536998 261.545757 
z
" clip-path="url(#p23596bcdec)" style="fill: url(#hde3578347f); stroke: #2ca02c; stroke-width: 2; stroke-linejoin: miter"/>
   </g>
   <g id="patch_59">
    <path d="M 385.287721 301.524953 
L 389.325835 301.524953 
L 389.325835 261.248432 
L 385.287721 261.248432 
z
" clip-path="url(#p23596bcdec)" style="fill: url(#hde3578347f); stroke: #2ca02c; stroke-width: 2; stroke-linejoin: miter"/>
   </g>
   <g id="patch_60">
    <path d="M 390.038443 301.524953 
L 394.076557 301.524953 
L 394.076557 260.800186 
L 390.038443 260.800186 
z
" clip-path="url(#p23596bcdec)" style="fill: url(#h2cc19eeb0d); stroke: #ff7f0e; stroke-width: 2; stroke-linejoin: miter"/>
   </g>
   <g id="patch_61">
    <path d="M 394.789165 301.524953 
L 398.827279 301.524953 
L 398.827279 260.064537 
L 394.789165 260.064537 
z
" clip-path="url(#p23596bcdec)" style="fill: url(#h2cc19eeb0d); stroke: #ff7f0e; stroke-width: 2; stroke-linejoin: miter"/>
   </g>
   <g id="patch_62">
    <path d="M 399.539888 301.524953 
L 403.578002 301.524953 
L 403.578002 259.501146 
L 399.539888 259.501146 
z
" clip-path="url(#p23596bcdec)" style="fill: url(#h2cc19eeb0d); stroke: #ff7f0e; stroke-width: 2; stroke-linejoin: miter"/>
   </g>
   <g id="patch_63">
    <path d="M 404.29061 301.524953 
L 408.328724 301.524953 
L 408.328724 259.286353 
L 404.29061 259.286353 
z
" clip-path="url(#p23596bcdec)" style="fill: url(#h2cc19eeb0d); stroke: #ff7f0e; stroke-width: 2; stroke-linejoin: miter"/>
   </g>
   <g id="patch_64">
    <path d="M 409.041332 301.524953 
L 413.079446 301.524953 
L 413.079446 258.860877 
L 409.041332 258.860877 
z
" clip-path="url(#p23596bcdec)" style="fill: url(#h2cc19eeb0d); stroke: #ff7f0e; stroke-width: 2; stroke-linejoin: miter"/>
   </g>
   <g id="patch_65">
    <path d="M 413.792054 301.524953 
L 417.830168 301.524953 
L 417.830168 258.669895 
L 413.792054 258.669895 
z
" clip-path="url(#p23596bcdec)" style="fill: url(#h2cc19eeb0d); stroke: #ff7f0e; stroke-width: 2; stroke-linejoin: miter"/>
   </g>
   <g id="patch_66">
    <path d="M 418.542777 301.524953 
L 422.580891 301.524953 
L 422.580891 258.082712 
L 418.542777 258.082712 
z
" clip-path="url(#p23596bcdec)" style="fill: url(#h2cc19eeb0d); stroke: #ff7f0e; stroke-width: 2; stroke-linejoin: miter"/>
   </g>
   <g id="patch_67">
    <path d="M 423.293499 301.524953 
L 427.331613 301.524953 
L 427.331613 257.891148 
L 423.293499 257.891148 
z
" clip-path="url(#p23596bcdec)" style="fill: url(#h2cc19eeb0d); stroke: #ff7f0e; stroke-width: 2; stroke-linejoin: miter"/>
   </g>
   <g id="patch_68">
    <path d="M 428.044221 301.524953 
L 432.082335 301.524953 
L 432.082335 257.569354 
L 428.044221 257.569354 
z
" clip-path="url(#p23596bcdec)" style="fill: url(#h2cc19eeb0d); stroke: #ff7f0e; stroke-width: 2; stroke-linejoin: miter"/>
   </g>
   <g id="patch_69">
    <path d="M 432.794944 301.524953 
L 436.833058 301.524953 
L 436.833058 256.336938 
L 432.794944 256.336938 
z
" clip-path="url(#p23596bcdec)" style="fill: url(#h2cc19eeb0d); stroke: #ff7f0e; stroke-width: 2; stroke-linejoin: miter"/>
   </g>
   <g id="patch_70">
    <path d="M 437.545666 301.524953 
L 441.58378 301.524953 
L 441.58378 256.251884 
L 437.545666 256.251884 
z
" clip-path="url(#p23596bcdec)" style="fill: url(#h2cc19eeb0d); stroke: #ff7f0e; stroke-width: 2; stroke-linejoin: miter"/>
   </g>
   <g id="patch_71">
    <path d="M 442.296388 301.524953 
L 446.334502 301.524953 
L 446.334502 256.155866 
L 442.296388 256.155866 
z
" clip-path="url(#p23596bcdec)" style="fill: url(#h2cc19eeb0d); stroke: #ff7f0e; stroke-width: 2; stroke-linejoin: miter"/>
   </g>
   <g id="patch_72">
    <path d="M 447.04711 301.524953 
L 451.085224 301.524953 
L 451.085224 255.83414 
L 447.04711 255.83414 
z
" clip-path="url(#p23596bcdec)" style="fill: url(#h2cc19eeb0d); stroke: #ff7f0e; stroke-width: 2; stroke-linejoin: miter"/>
   </g>
   <g id="patch_73">
    <path d="M 451.797833 301.524953 
L 455.835947 301.524953 
L 455.835947 255.485166 
L 451.797833 255.485166 
z
" clip-path="url(#p23596bcdec)" style="fill: url(#h2cc19eeb0d); stroke: #ff7f0e; stroke-width: 2; stroke-linejoin: miter"/>
   </g>
   <g id="patch_74">
    <path d="M 456.548555 301.524953 
L 460.586669 301.524953 
L 460.586669 254.998429 
L 456.548555 254.998429 
z
" clip-path="url(#p23596bcdec)" style="fill: url(#h2cc19eeb0d); stroke: #ff7f0e; stroke-width: 2; stroke-linejoin: miter"/>
   </g>
   <g id="patch_75">
    <path d="M 461.299277 301.524953 
L 465.337391 301.524953 
L 465.337391 254.873772 
L 461.299277 254.873772 
z
" clip-path="url(#p23596bcdec)" style="fill: url(#h2cc19eeb0d); stroke: #ff7f0e; stroke-width: 2; stroke-linejoin: miter"/>
   </g>
   <g id="patch_76">
    <path d="M 466.05 301.524953 
L 470.088114 301.524953 
L 470.088114 254.402213 
L 466.05 254.402213 
z
" clip-path="url(#p23596bcdec)" style="fill: url(#h2cc19eeb0d); stroke: #ff7f0e; stroke-width: 2; stroke-linejoin: miter"/>
   </g>
   <g id="patch_77">
    <path d="M 470.800722 301.524953 
L 474.838836 301.524953 
L 474.838836 254.33877 
L 470.800722 254.33877 
z
" clip-path="url(#p23596bcdec)" style="fill: url(#h2cc19eeb0d); stroke: #ff7f0e; stroke-width: 2; stroke-linejoin: miter"/>
   </g>
   <g id="patch_78">
    <path d="M 475.551444 301.524953 
L 479.589558 301.524953 
L 479.589558 253.524288 
L 475.551444 253.524288 
z
" clip-path="url(#p23596bcdec)" style="fill: url(#h2cc19eeb0d); stroke: #ff7f0e; stroke-width: 2; stroke-linejoin: miter"/>
   </g>
   <g id="patch_79">
    <path d="M 480.302166 301.524953 
L 484.34028 301.524953 
L 484.34028 253.439578 
L 480.302166 253.439578 
z
" clip-path="url(#p23596bcdec)" style="fill: url(#h2cc19eeb0d); stroke: #ff7f0e; stroke-width: 2; stroke-linejoin: miter"/>
   </g>
   <g id="patch_80">
    <path d="M 485.052889 301.524953 
L 489.091003 301.524953 
L 489.091003 253.362493 
L 485.052889 253.362493 
z
" clip-path="url(#p23596bcdec)" style="fill: url(#h2cc19eeb0d); stroke: #ff7f0e; stroke-width: 2; stroke-linejoin: miter"/>
   </g>
   <g id="patch_81">
    <path d="M 489.803611 301.524953 
L 493.841725 301.524953 
L 493.841725 252.632564 
L 489.803611 252.632564 
z
" clip-path="url(#p23596bcdec)" style="fill: url(#h2cc19eeb0d); stroke: #ff7f0e; stroke-width: 2; stroke-linejoin: miter"/>
   </g>
   <g id="patch_82">
    <path d="M 494.554333 301.524953 
L 498.592447 301.524953 
L 498.592447 252.587652 
L 494.554333 252.587652 
z
" clip-path="url(#p23596bcdec)" style="fill: url(#h2cc19eeb0d); stroke: #ff7f0e; stroke-width: 2; stroke-linejoin: miter"/>
   </g>
   <g id="patch_83">
    <path d="M 499.305056 301.524953 
L 503.34317 301.524953 
L 503.34317 252.195186 
L 499.305056 252.195186 
z
" clip-path="url(#p23596bcdec)" style="fill: url(#h2cc19eeb0d); stroke: #ff7f0e; stroke-width: 2; stroke-linejoin: miter"/>
   </g>
   <g id="patch_84">
    <path d="M 504.055778 301.524953 
L 508.093892 301.524953 
L 508.093892 252.124078 
L 504.055778 252.124078 
z
" clip-path="url(#p23596bcdec)" style="fill: url(#h2cc19eeb0d); stroke: #ff7f0e; stroke-width: 2; stroke-linejoin: miter"/>
   </g>
   <g id="patch_85">
    <path d="M 508.8065 301.524953 
L 512.844614 301.524953 
L 512.844614 251.950287 
L 508.8065 251.950287 
z
" clip-path="url(#p23596bcdec)" style="fill: url(#h2cc19eeb0d); stroke: #ff7f0e; stroke-width: 2; stroke-linejoin: miter"/>
   </g>
   <g id="patch_86">
    <path d="M 513.557222 301.524953 
L 517.595336 301.524953 
L 517.595336 251.735933 
L 513.557222 251.735933 
z
" clip-path="url(#p23596bcdec)" style="fill: url(#h2cc19eeb0d); stroke: #ff7f0e; stroke-width: 2; stroke-linejoin: miter"/>
   </g>
   <g id="patch_87">
    <path d="M 518.307945 301.524953 
L 522.346059 301.524953 
L 522.346059 251.343311 
L 518.307945 251.343311 
z
" clip-path="url(#p23596bcdec)" style="fill: url(#h2cc19eeb0d); stroke: #ff7f0e; stroke-width: 2; stroke-linejoin: miter"/>
   </g>
   <g id="patch_88">
    <path d="M 523.058667 301.524953 
L 527.096781 301.524953 
L 527.096781 251.271365 
L 523.058667 251.271365 
z
" clip-path="url(#p23596bcdec)" style="fill: url(#h2cc19eeb0d); stroke: #ff7f0e; stroke-width: 2; stroke-linejoin: miter"/>
   </g>
   <g id="patch_89">
    <path d="M 527.809389 301.524953 
L 531.847503 301.524953 
L 531.847503 251.07212 
L 527.809389 251.07212 
z
" clip-path="url(#p23596bcdec)" style="fill: url(#h2cc19eeb0d); stroke: #ff7f0e; stroke-width: 2; stroke-linejoin: miter"/>
   </g>
   <g id="patch_90">
    <path d="M 532.560112 301.524953 
L 536.598226 301.524953 
L 536.598226 250.796245 
L 532.560112 250.796245 
z
" clip-path="url(#p23596bcdec)" style="fill: url(#h2cc19eeb0d); stroke: #ff7f0e; stroke-width: 2; stroke-linejoin: miter"/>
   </g>
   <g id="patch_91">
    <path d="M 537.310834 301.524953 
L 541.348948 301.524953 
L 541.348948 250.301156 
L 537.310834 250.301156 
z
" clip-path="url(#p23596bcdec)" style="fill: url(#h2cc19eeb0d); stroke: #ff7f0e; stroke-width: 2; stroke-linejoin: miter"/>
   </g>
   <g id="patch_92">
    <path d="M 542.061556 301.524953 
L 546.09967 301.524953 
L 546.09967 250.078059 
L 542.061556 250.078059 
z
" clip-path="url(#p23596bcdec)" style="fill: url(#h2cc19eeb0d); stroke: #ff7f0e; stroke-width: 2; stroke-linejoin: miter"/>
   </g>
   <g id="patch_93">
    <path d="M 546.812278 301.524953 
L 550.850392 301.524953 
L 550.850392 249.326401 
L 546.812278 249.326401 
z
" clip-path="url(#p23596bcdec)" style="fill: url(#h2cc19eeb0d); stroke: #ff7f0e; stroke-width: 2; stroke-linejoin: miter"/>
   </g>
   <g id="patch_94">
    <path d="M 551.563001 301.524953 
L 555.601115 301.524953 
L 555.601115 248.183298 
L 551.563001 248.183298 
z
" clip-path="url(#p23596bcdec)" style="fill: url(#h2cc19eeb0d); stroke: #ff7f0e; stroke-width: 2; stroke-linejoin: miter"/>
   </g>
   <g id="patch_95">
    <path d="M 556.313723 301.524953 
L 560.351837 301.524953 
L 560.351837 247.539568 
L 556.313723 247.539568 
z
" clip-path="url(#p23596bcdec)" style="fill: url(#h2cc19eeb0d); stroke: #ff7f0e; stroke-width: 2; stroke-linejoin: miter"/>
   </g>
   <g id="patch_96">
    <path d="M 561.064445 301.524953 
L 565.102559 301.524953 
L 565.102559 247.517887 
L 561.064445 247.517887 
z
" clip-path="url(#p23596bcdec)" style="fill: url(#h2cc19eeb0d); stroke: #ff7f0e; stroke-width: 2; stroke-linejoin: miter"/>
   </g>
   <g id="patch_97">
    <path d="M 565.815168 301.524953 
L 569.853282 301.524953 
L 569.853282 246.954108 
L 565.815168 246.954108 
z
" clip-path="url(#p23596bcdec)" style="fill: url(#h2cc19eeb0d); stroke: #ff7f0e; stroke-width: 2; stroke-linejoin: miter"/>
   </g>
   <g id="patch_98">
    <path d="M 570.56589 301.524953 
L 574.604004 301.524953 
L 574.604004 246.546515 
L 570.56589 246.546515 
z
" clip-path="url(#p23596bcdec)" style="fill: url(#h2cc19eeb0d); stroke: #ff7f0e; stroke-width: 2; stroke-linejoin: miter"/>
   </g>
   <g id="patch_99">
    <path d="M 575.316612 301.524953 
L 579.354726 301.524953 
L 579.354726 244.425938 
L 575.316612 244.425938 
z
" clip-path="url(#p23596bcdec)" style="fill: url(#h2cc19eeb0d); stroke: #ff7f0e; stroke-width: 2; stroke-linejoin: miter"/>
   </g>
   <g id="patch_100">
    <path d="M 580.067334 301.524953 
L 584.105448 301.524953 
L 584.105448 243.753252 
L 580.067334 243.753252 
z
" clip-path="url(#p23596bcdec)" style="fill: url(#h2cc19eeb0d); stroke: #ff7f0e; stroke-width: 2; stroke-linejoin: miter"/>
   </g>
   <g id="patch_101">
    <path d="M 584.818057 301.524953 
L 588.856171 301.524953 
L 588.856171 243.735568 
L 584.818057 243.735568 
z
" clip-path="url(#p23596bcdec)" style="fill: url(#h2cc19eeb0d); stroke: #ff7f0e; stroke-width: 2; stroke-linejoin: miter"/>
   </g>
   <g id="patch_102">
    <path d="M 589.568779 301.524953 
L 593.606893 301.524953 
L 593.606893 241.769837 
L 589.568779 241.769837 
z
" clip-path="url(#p23596bcdec)" style="fill: url(#h2cc19eeb0d); stroke: #ff7f0e; stroke-width: 2; stroke-linejoin: miter"/>
   </g>
   <g id="patch_103">
    <path d="M 594.319501 301.524953 
L 598.357615 301.524953 
L 598.357615 241.70895 
L 594.319501 241.70895 
z
" clip-path="url(#p23596bcdec)" style="fill: url(#h2cc19eeb0d); stroke: #ff7f0e; stroke-width: 2; stroke-linejoin: miter"/>
   </g>
   <g id="patch_104">
    <path d="M 599.070224 301.524953 
L 603.108338 301.524953 
L 603.108338 239.657654 
L 599.070224 239.657654 
z
" clip-path="url(#p23596bcdec)" style="fill: url(#h2cc19eeb0d); stroke: #ff7f0e; stroke-width: 2; stroke-linejoin: miter"/>
   </g>
   <g id="patch_105">
    <path d="M 603.820946 301.524953 
L 607.85906 301.524953 
L 607.85906 239.025 
L 603.820946 239.025 
z
" clip-path="url(#p23596bcdec)" style="fill: url(#h2cc19eeb0d); stroke: #ff7f0e; stroke-width: 2; stroke-linejoin: miter"/>
   </g>
   <g id="patch_106">
    <path d="M 608.571668 301.524953 
L 612.609782 301.524953 
L 612.609782 236.00868 
L 608.571668 236.00868 
z
" clip-path="url(#p23596bcdec)" style="fill: url(#h2cc19eeb0d); stroke: #ff7f0e; stroke-width: 2; stroke-linejoin: miter"/>
   </g>
   <g id="patch_107">
    <path d="M 613.32239 301.524953 
L 617.360504 301.524953 
L 617.360504 235.576222 
L 613.32239 235.576222 
z
" clip-path="url(#p23596bcdec)" style="fill: url(#h2cc19eeb0d); stroke: #ff7f0e; stroke-width: 2; stroke-linejoin: miter"/>
   </g>
   <g id="patch_108">
    <path d="M 618.073113 301.524953 
L 622.111227 301.524953 
L 622.111227 232.768362 
L 618.073113 232.768362 
z
" clip-path="url(#p23596bcdec)" style="fill: url(#h2cc19eeb0d); stroke: #ff7f0e; stroke-width: 2; stroke-linejoin: miter"/>
   </g>
   <g id="patch_109">
    <path d="M 622.823835 301.524953 
L 626.861949 301.524953 
L 626.861949 231.919141 
L 622.823835 231.919141 
z
" clip-path="url(#p23596bcdec)" style="fill: url(#h2cc19eeb0d); stroke: #ff7f0e; stroke-width: 2; stroke-linejoin: miter"/>
   </g>
   <g id="patch_110">
    <path d="M 627.574557 301.524953 
L 631.612671 301.524953 
L 631.612671 231.59975 
L 627.574557 231.59975 
z
" clip-path="url(#p23596bcdec)" style="fill: url(#h2cc19eeb0d); stroke: #ff7f0e; stroke-width: 2; stroke-linejoin: miter"/>
   </g>
   <g id="patch_111">
    <path d="M 632.32528 301.524953 
L 636.363394 301.524953 
L 636.363394 231.447233 
L 632.32528 231.447233 
z
" clip-path="url(#p23596bcdec)" style="fill: url(#h2cc19eeb0d); stroke: #ff7f0e; stroke-width: 2; stroke-linejoin: miter"/>
   </g>
   <g id="patch_112">
    <path d="M 637.076002 301.524953 
L 641.114116 301.524953 
L 641.114116 227.153003 
L 637.076002 227.153003 
z
" clip-path="url(#p23596bcdec)" style="fill: url(#h2cc19eeb0d); stroke: #ff7f0e; stroke-width: 2; stroke-linejoin: miter"/>
   </g>
   <g id="patch_113">
    <path d="M 641.826724 301.524953 
L 645.864838 301.524953 
L 645.864838 226.685549 
L 641.826724 226.685549 
z
" clip-path="url(#p23596bcdec)" style="fill: url(#h2cc19eeb0d); stroke: #ff7f0e; stroke-width: 2; stroke-linejoin: miter"/>
   </g>
   <g id="patch_114">
    <path d="M 646.577446 301.524953 
L 650.61556 301.524953 
L 650.61556 215.144239 
L 646.577446 215.144239 
z
" clip-path="url(#p23596bcdec)" style="fill: url(#h2cc19eeb0d); stroke: #ff7f0e; stroke-width: 2; stroke-linejoin: miter"/>
   </g>
   <g id="patch_115">
    <path d="M 651.328169 301.524953 
L 655.366283 301.524953 
L 655.366283 177.625162 
L 651.328169 177.625162 
z
" clip-path="url(#p23596bcdec)" style="fill: url(#h2cc19eeb0d); stroke: #ff7f0e; stroke-width: 2; stroke-linejoin: miter"/>
   </g>
   <g id="patch_116">
    <path d="M 656.078891 301.524953 
L 660.117005 301.524953 
L 660.117005 175.611889 
L 656.078891 175.611889 
z
" clip-path="url(#p23596bcdec)" style="fill: url(#h2cc19eeb0d); stroke: #ff7f0e; stroke-width: 2; stroke-linejoin: miter"/>
   </g>
   <g id="patch_117">
    <path d="M 660.829613 301.524953 
L 664.867727 301.524953 
L 664.867727 47.938688 
L 660.829613 47.938688 
z
" clip-path="url(#p23596bcdec)" style="fill: url(#h2cc19eeb0d); stroke: #ff7f0e; stroke-width: 2; stroke-linejoin: miter"/>
   </g>
   <g id="line2d_26">
    <path d="M 91.96625 260.800186 
L 692.14875 260.800186 
" clip-path="url(#p23596bcdec)" style="fill: none; stroke-dasharray: 4.44,1.92; stroke-dashoffset: 0; stroke: #f58518; stroke-width: 1.2"/>
   </g>
   <g id="patch_118">
    <path d="M 91.96625 301.524953 
L 91.96625 35.259375 
" style="fill: none; stroke: #808080; stroke-width: 0.8; stroke-linejoin: miter; stroke-linecap: square"/>
   </g>
   <g id="patch_119">
    <path d="M 91.96625 301.524953 
L 692.14875 301.524953 
" style="fill: none; stroke: #808080; stroke-width: 0.8; stroke-linejoin: miter; stroke-linecap: square"/>
   </g>
   <g id="text_23">
    <text style="font: 22px 'PingFang SC', 'Heiti SC', 'STHeiti', 'Calibri', 'Arial', 'Helvetica Neue', 'Arial Unicode MS', 'Noto Sans CJK SC', 'DejaVu Sans', sans-serif; text-anchor: middle" x="392.0575" y="29.259375" transform="rotate(-0 392.0575 29.259375)">排序条形 · Host overhead p99 (us)</text>
   </g>
   <g id="legend_1">
    <g id="patch_120">
     <path d="M 100.36625 62.019375 
L 221.148125 62.019375 
Q 223.548125 62.019375 223.548125 59.619375 
L 223.548125 43.659375 
Q 223.548125 41.259375 221.148125 41.259375 
L 100.36625 41.259375 
Q 97.96625 41.259375 97.96625 43.659375 
L 97.96625 59.619375 
Q 97.96625 62.019375 100.36625 62.019375 
z
" style="fill: #ffffff; opacity: 0.5; stroke: #cccccc; stroke-linejoin: miter"/>
    </g>
    <g id="line2d_27">
     <path d="M 102.76625 51.410625 
L 114.76625 51.410625 
L 126.76625 51.410625 
" style="fill: none; stroke-dasharray: 4.44,1.92; stroke-dashoffset: 0; stroke: #f58518; stroke-width: 1.2"/>
    </g>
    <g id="text_24">
     <text style="font: 12px 'PingFang SC', 'Heiti SC', 'STHeiti', 'Calibri', 'Arial', 'Helvetica Neue', 'Arial Unicode MS', 'Noto Sans CJK SC', 'DejaVu Sans', sans-serif; text-anchor: start" x="136.36625" y="55.610625" transform="rotate(-0 136.36625 55.610625)">median=550.8</text>
    </g>
   </g>
  </g>
 </g>
 <defs>
  <clipPath id="p23596bcdec">
   <rect x="91.96625" y="35.259375" width="600.1825" height="266.265578"/>
  </clipPath>
 </defs>
 <defs>
  <pattern id="hde3578347f" patternUnits="userSpaceOnUse" x="0" y="0" width="72" height="72">
   <rect x="0" y="0" width="73" height="73" fill="none"/>
   <path d="M -36 36 
L 36 -36 
M -30 42 
L 42 -30 
M -24 48 
L 48 -24 
M -18 54 
L 54 -18 
M -12 60 
L 60 -12 
M -6 66 
L 66 -6 
M 0 72 
L 72 0 
M 6 78 
L 78 6 
M 12 84 
L 84 12 
M 18 90 
L 90 18 
M 24 96 
L 96 24 
M 30 102 
L 102 30 
M 36 108 
L 108 36 
M -36 36 
L 36 108 
M -30 30 
L 42 102 
M -24 24 
L 48 96 
M -18 18 
L 54 90 
M -12 12 
L 60 84 
M -6 6 
L 66 78 
M 0 0 
L 72 72 
M 6 -6 
L 78 66 
M 12 -12 
L 84 60 
M 18 -18 
L 90 54 
M 24 -24 
L 96 48 
M 30 -30 
L 102 42 
M 36 -36 
L 108 36 
" style="fill: #2ca02c; stroke: #2ca02c; stroke-width: 1.0; stroke-linecap: butt; stroke-linejoin: miter"/>
  </pattern>
  <pattern id="h2cc19eeb0d" patternUnits="userSpaceOnUse" x="0" y="0" width="72" height="72">
   <rect x="0" y="0" width="73" height="73" fill="none"/>
   <path d="M -36 36 
L 36 -36 
M -30 42 
L 42 -30 
M -24 48 
L 48 -24 
M -18 54 
L 54 -18 
M -12 60 
L 60 -12 
M -6 66 
L 66 -6 
M 0 72 
L 72 0 
M 6 78 
L 78 6 
M 12 84 
L 84 12 
M 18 90 
L 90 18 
M 24 96 
L 96 24 
M 30 102 
L 102 30 
M 36 108 
L 108 36 
" style="fill: #ff7f0e; stroke: #ff7f0e; stroke-width: 1.0; stroke-linecap: butt; stroke-linejoin: miter"/>
  </pattern>
 </defs>
</svg>
