<?xml version="1.0" encoding="utf-8" standalone="no"?>
<!DOCTYPE svg PUBLIC "-//W3C//DTD SVG 1.1//EN"
  "http://www.w3.org/Graphics/SVG/1.1/DTD/svg11.dtd">
<svg xmlns:xlink="http://www.w3.org/1999/xlink" width="702.946875pt" height="342.872603pt" viewBox="0 0 702.946875 342.872603" xmlns="http://www.w3.org/2000/svg" version="1.1">
 <metadata>
  <rdf:RDF xmlns:dc="http://purl.org/dc/elements/1.1/" xmlns:cc="http://creativecommons.org/ns#" xmlns:rdf="http://www.w3.org/1999/02/22-rdf-syntax-ns#">
   <cc:Work>
    <dc:type rdf:resource="http://purl.org/dc/dcmitype/StillImage"/>
    <dc:date>2026-07-11T23:31:17.855195</dc:date>
    <dc:format>image/svg+xml</dc:format>
    <dc:creator>
     <cc:Agent>
      <dc:title>Matplotlib v3.9.4, https://matplotlib.org/</dc:title>
     </cc:Agent>
    </dc:creator>
   </cc:Work>
  </rdf:RDF>
 </metadata>
 <defs>
  <style type="text/css">*{stroke-linejoin: round; stroke-linecap: butt}</style>
 </defs>
 <g id="figure_1">
  <g id="patch_1">
   <path d="M 0 342.872603 
L 702.946875 342.872603 
L 702.946875 0 
L 0 0 
z
" style="fill: #ffffff"/>
  </g>
  <g id="axes_1">
   <g id="patch_2">
    <path d="M 79.776875 301.524953 
L 692.146875 301.524953 
L 692.146875 35.259375 
L 79.776875 35.259375 
z
" style="fill: #ffffff"/>
   </g>
   <g id="matplotlib.axis_1">
    <g id="xtick_1">
     <g id="line2d_1">
      <defs>
       <path id="me01c96c23d" d="M 0 0 
L 0 3.5 
" style="stroke: #808080; stroke-width: 0.8"/>
      </defs>
      <g>
       <use xlink:href="#me01c96c23d" x="109.654149" y="301.524953" style="fill: #808080; stroke: #808080; stroke-width: 0.8"/>
      </g>
     </g>
     <g id="text_1">
      <text style="fill: #808080; font: 9px 'PingFang SC', 'Heiti SC', 'STHeiti', 'Calibri', 'Arial', 'Helvetica Neue', 'Arial Unicode MS', 'Noto Sans CJK SC', 'DejaVu Sans', sans-serif" transform="translate(94.697847 327.693402) rotate(-45)">w4.0</text>
     </g>
    </g>
    <g id="xtick_2">
     <g id="line2d_2">
      <g>
       <use xlink:href="#me01c96c23d" x="143.291612" y="301.524953" style="fill: #808080; stroke: #808080; stroke-width: 0.8"/>
      </g>
     </g>
     <g id="text_2">
      <text style="fill: #808080; font: 9px 'PingFang SC', 'Heiti SC', 'STHeiti', 'Calibri', 'Arial', 'Helvetica Neue', 'Arial Unicode MS', 'Noto Sans CJK SC', 'DejaVu Sans', sans-serif" transform="translate(128.335309 327.693402) rotate(-45)">w4.5</text>
     </g>
    </g>
    <g id="xtick_3">
     <g id="line2d_3">
      <g>
       <use xlink:href="#me01c96c23d" x="176.929074" y="301.524953" style="fill: #808080; stroke: #808080; stroke-width: 0.8"/>
      </g>
     </g>
     <g id="text_3">
      <text style="fill: #808080; font: 9px 'PingFang SC', 'Heiti SC', 'STHeiti', 'Calibri', 'Arial', 'Helvetica Neue', 'Arial Unicode MS', 'Noto Sans CJK SC', 'DejaVu Sans', sans-serif" transform="translate(158.446739 331.219434) rotate(-45)">w12.6</text>
     </g>
    </g>
    <g id="xtick_4">
     <g id="line2d_4">
      <g>
       <use xlink:href="#me01c96c23d" x="210.566536" y="301.524953" style="fill: #808080; stroke: #808080; stroke-width: 0.8"/>
      </g>
     </g>
     <g id="text_4">
      <text style="fill: #808080; font: 9px 'PingFang SC', 'Heiti SC', 'STHeiti', 'Calibri', 'Arial', 'Helvetica Neue', 'Arial Unicode MS', 'Noto Sans CJK SC', 'DejaVu Sans', sans-serif" transform="translate(195.610233 327.693402) rotate(-45)">w9.5</text>
     </g>
    </g>
    <g id="xtick_5">
     <g id="line2d_5">
      <g>
       <use xlink:href="#me01c96c23d" x="244.203998" y="301.524953" style="fill: #808080; stroke: #808080; stroke-width: 0.8"/>
      </g>
     </g>
     <g id="text_5">
      <text style="fill: #808080; font: 9px 'PingFang SC', 'Heiti SC', 'STHeiti', 'Calibri', 'Arial', 'Helvetica Neue', 'Arial Unicode MS', 'Noto Sans CJK SC', 'DejaVu Sans', sans-serif" transform="translate(229.247696 327.693402) rotate(-45)">w2.5</text>
     </g>
    </g>
    <g id="xtick_6">
     <g id="line2d_6">
      <g>
       <use xlink:href="#me01c96c23d" x="277.841461" y="301.524953" style="fill: #808080; stroke: #808080; stroke-width: 0.8"/>
      </g>
     </g>
     <g id="text_6">
      <text style="fill: #808080; font: 9px 'PingFang SC', 'Heiti SC', 'STHeiti', 'Calibri', 'Arial', 'Helvetica Neue', 'Arial Unicode MS', 'Noto Sans CJK SC', 'DejaVu Sans', sans-serif" transform="translate(262.885158 327.693402) rotate(-45)">w9.0</text>
     </g>
    </g>
    <g id="xtick_7">
     <g id="line2d_7">
      <g>
       <use xlink:href="#me01c96c23d" x="311.478923" y="301.524953" style="fill: #808080; stroke: #808080; stroke-width: 0.8"/>
      </g>
     </g>
     <g id="text_7">
      <text style="fill: #808080; font: 9px 'PingFang SC', 'Heiti SC', 'STHeiti', 'Calibri', 'Arial', 'Helvetica Neue', 'Arial Unicode MS', 'Noto Sans CJK SC', 'DejaVu Sans', sans-serif" transform="translate(296.52262 327.693402) rotate(-45)">w2.2</text>
     </g>
    </g>
    <g id="xtick_8">
     <g id="line2d_8">
      <g>
       <use xlink:href="#me01c96c23d" x="345.116385" y="301.524953" style="fill: #808080; stroke: #808080; stroke-width: 0.8"/>
      </g>
     </g>
     <g id="text_8">
      <text style="fill: #808080; font: 9px 'PingFang SC', 'Heiti SC', 'STHeiti', 'Calibri', 'Arial', 'Helvetica Neue', 'Arial Unicode MS', 'Noto Sans CJK SC', 'DejaVu Sans', sans-serif" transform="translate(326.63405 331.219434) rotate(-45)">w12.2</text>
     </g>
    </g>
    <g id="xtick_9">
     <g id="line2d_9">
      <g>
       <use xlink:href="#me01c96c23d" x="378.753847" y="301.524953" style="fill: #808080; stroke: #808080; stroke-width: 0.8"/>
      </g>
     </g>
     <g id="text_9">
      <text style="fill: #808080; font: 9px 'PingFang SC', 'Heiti SC', 'STHeiti', 'Calibri', 'Arial', 'Helvetica Neue', 'Arial Unicode MS', 'Noto Sans CJK SC', 'DejaVu Sans', sans-serif" transform="translate(363.797545 327.693402) rotate(-45)">w0.2</text>
     </g>
    </g>
    <g id="xtick_10">
     <g id="line2d_10">
      <g>
       <use xlink:href="#me01c96c23d" x="412.39131" y="301.524953" style="fill: #808080; stroke: #808080; stroke-width: 0.8"/>
      </g>
     </g>
     <g id="text_10">
      <text style="fill: #808080; font: 9px 'PingFang SC', 'Heiti SC', 'STHeiti', 'Calibri', 'Arial', 'Helvetica Neue', 'Arial Unicode MS', 'Noto Sans CJK SC', 'DejaVu Sans', sans-serif" transform="translate(397.435007 327.693402) rotate(-45)">w8.3</text>
     </g>
    </g>
    <g id="xtick_11">
     <g id="line2d_11">
      <g>
       <use xlink:href="#me01c96c23d" x="446.028772" y="301.524953" style="fill: #808080; stroke: #808080; stroke-width: 0.8"/>
      </g>
     </g>
     <g id="text_11">
      <text style="fill: #808080; font: 9px 'PingFang SC', 'Heiti SC', 'STHeiti', 'Calibri', 'Arial', 'Helvetica Neue', 'Arial Unicode MS', 'Noto Sans CJK SC', 'DejaVu Sans', sans-serif" transform="translate(427.546437 331.219434) rotate(-45)">w13.7</text>
     </g>
    </g>
    <g id="xtick_12">
     <g id="line2d_12">
      <g>
       <use xlink:href="#me01c96c23d" x="479.666234" y="301.524953" style="fill: #808080; stroke: #808080; stroke-width: 0.8"/>
      </g>
     </g>
     <g id="text_12">
      <text style="fill: #808080; font: 9px 'PingFang SC', 'Heiti SC', 'STHeiti', 'Calibri', 'Arial', 'Helvetica Neue', 'Arial Unicode MS', 'Noto Sans CJK SC', 'DejaVu Sans', sans-serif" transform="translate(461.183899 331.219434) rotate(-45)">w10.7</text>
     </g>
    </g>
    <g id="xtick_13">
     <g id="line2d_13">
      <g>
       <use xlink:href="#me01c96c23d" x="513.303696" y="301.524953" style="fill: #808080; stroke: #808080; stroke-width: 0.8"/>
      </g>
     </g>
     <g id="text_13">
      <text style="fill: #808080; font: 9px 'PingFang SC', 'Heiti SC', 'STHeiti', 'Calibri', 'Arial', 'Helvetica Neue', 'Arial Unicode MS', 'Noto Sans CJK SC', 'DejaVu Sans', sans-serif" transform="translate(498.347394 327.693402) rotate(-45)">w1.5</text>
     </g>
    </g>
    <g id="xtick_14">
     <g id="line2d_14">
      <g>
       <use xlink:href="#me01c96c23d" x="546.941159" y="301.524953" style="fill: #808080; stroke: #808080; stroke-width: 0.8"/>
      </g>
     </g>
     <g id="text_14">
      <text style="fill: #808080; font: 9px 'PingFang SC', 'Heiti SC', 'STHeiti', 'Calibri', 'Arial', 'Helvetica Neue', 'Arial Unicode MS', 'Noto Sans CJK SC', 'DejaVu Sans', sans-serif" transform="translate(531.984856 327.693402) rotate(-45)">w3.0</text>
     </g>
    </g>
    <g id="xtick_15">
     <g id="line2d_15">
      <g>
       <use xlink:href="#me01c96c23d" x="580.578621" y="301.524953" style="fill: #808080; stroke: #808080; stroke-width: 0.8"/>
      </g>
     </g>
     <g id="text_15">
      <text style="fill: #808080; font: 9px 'PingFang SC', 'Heiti SC', 'STHeiti', 'Calibri', 'Arial', 'Helvetica Neue', 'Arial Unicode MS', 'Noto Sans CJK SC', 'DejaVu Sans', sans-serif" transform="translate(562.096286 331.219434) rotate(-45)">w10.1</text>
     </g>
    </g>
    <g id="xtick_16">
     <g id="line2d_16">
      <g>
       <use xlink:href="#me01c96c23d" x="614.216083" y="301.524953" style="fill: #808080; stroke: #808080; stroke-width: 0.8"/>
      </g>
     </g>
     <g id="text_16">
      <text style="fill: #808080; font: 9px 'PingFang SC', 'Heiti SC', 'STHeiti', 'Calibri', 'Arial', 'Helvetica Neue', 'Arial Unicode MS', 'Noto Sans CJK SC', 'DejaVu Sans', sans-serif" transform="translate(595.733748 331.219434) rotate(-45)">w11.4</text>
     </g>
    </g>
    <g id="xtick_17">
     <g id="line2d_17">
      <g>
       <use xlink:href="#me01c96c23d" x="647.853545" y="301.524953" style="fill: #808080; stroke: #808080; stroke-width: 0.8"/>
      </g>
     </g>
     <g id="text_17">
      <text style="fill: #808080; font: 9px 'PingFang SC', 'Heiti SC', 'STHeiti', 'Calibri', 'Arial', 'Helvetica Neue', 'Arial Unicode MS', 'Noto Sans CJK SC', 'DejaVu Sans', sans-serif" transform="translate(632.2161 328.374545) rotate(-45)">m0.0</text>
     </g>
    </g>
   </g>
   <g id="matplotlib.axis_2">
    <g id="ytick_1">
     <g id="line2d_18">
      <path d="M 79.776875 301.524953 
L 692.146875 301.524953 
" clip-path="url(#pa34e49f42b)" style="fill: none; stroke-dasharray: 1,1.65; stroke-dashoffset: 0; stroke: #808080; stroke-opacity: 0.55"/>
     </g>
     <g id="line2d_19">
      <defs>
       <path id="m6a63274ec6" d="M 0 0 
L -3.5 0 
" style="stroke: #808080; stroke-width: 0.8"/>
      </defs>
      <g>
       <use xlink:href="#m6a63274ec6" x="79.776875" y="301.524953" style="fill: #808080; stroke: #808080; stroke-width: 0.8"/>
      </g>
     </g>
     <g id="text_18">
      <text style="fill: #808080; font: 22px 'PingFang SC', 'Heiti SC', 'STHeiti', 'Calibri', 'Arial', 'Helvetica Neue', 'Arial Unicode MS', 'Noto Sans CJK SC', 'DejaVu Sans', sans-serif; text-anchor: end" x="72.776875" y="310.280265" transform="rotate(-0 72.776875 310.280265)">0</text>
     </g>
    </g>
    <g id="ytick_2">
     <g id="line2d_20">
      <path d="M 79.776875 255.397056 
L 692.146875 255.397056 
" clip-path="url(#pa34e49f42b)" style="fill: none; stroke-dasharray: 1,1.65; stroke-dashoffset: 0; stroke: #808080; stroke-opacity: 0.55"/>
     </g>
     <g id="line2d_21">
      <g>
       <use xlink:href="#m6a63274ec6" x="79.776875" y="255.397056" style="fill: #808080; stroke: #808080; stroke-width: 0.8"/>
      </g>
     </g>
     <g id="text_19">
      <text style="fill: #808080; font: 22px 'PingFang SC', 'Heiti SC', 'STHeiti', 'Calibri', 'Arial', 'Helvetica Neue', 'Arial Unicode MS', 'Noto Sans CJK SC', 'DejaVu Sans', sans-serif; text-anchor: end" x="72.776875" y="264.152369" transform="rotate(-0 72.776875 264.152369)">100</text>
     </g>
    </g>
    <g id="ytick_3">
     <g id="line2d_22">
      <path d="M 79.776875 209.26916 
L 692.146875 209.26916 
" clip-path="url(#pa34e49f42b)" style="fill: none; stroke-dasharray: 1,1.65; stroke-dashoffset: 0; stroke: #808080; stroke-opacity: 0.55"/>
     </g>
     <g id="line2d_23">
      <g>
       <use xlink:href="#m6a63274ec6" x="79.776875" y="209.26916" style="fill: #808080; stroke: #808080; stroke-width: 0.8"/>
      </g>
     </g>
     <g id="text_20">
      <text style="fill: #808080; font: 22px 'PingFang SC', 'Heiti SC', 'STHeiti', 'Calibri', 'Arial', 'Helvetica Neue', 'Arial Unicode MS', 'Noto Sans CJK SC', 'DejaVu Sans', sans-serif; text-anchor: end" x="72.776875" y="218.024473" transform="rotate(-0 72.776875 218.024473)">200</text>
     </g>
    </g>
    <g id="ytick_4">
     <g id="line2d_24">
      <path d="M 79.776875 163.141264 
L 692.146875 163.141264 
" clip-path="url(#pa34e49f42b)" style="fill: none; stroke-dasharray: 1,1.65; stroke-dashoffset: 0; stroke: #808080; stroke-opacity: 0.55"/>
     </g>
     <g id="line2d_25">
      <g>
       <use xlink:href="#m6a63274ec6" x="79.776875" y="163.141264" style="fill: #808080; stroke: #808080; stroke-width: 0.8"/>
      </g>
     </g>
     <g id="text_21">
      <text style="fill: #808080; font: 22px 'PingFang SC', 'Heiti SC', 'STHeiti', 'Calibri', 'Arial', 'Helvetica Neue', 'Arial Unicode MS', 'Noto Sans CJK SC', 'DejaVu Sans', sans-serif; text-anchor: end" x="72.776875" y="171.896576" transform="rotate(-0 72.776875 171.896576)">300</text>
     </g>
    </g>
    <g id="ytick_5">
     <g id="line2d_26">
      <path d="M 79.776875 117.013368 
L 692.146875 117.013368 
" clip-path="url(#pa34e49f42b)" style="fill: none; stroke-dasharray: 1,1.65; stroke-dashoffset: 0; stroke: #808080; stroke-opacity: 0.55"/>
     </g>
     <g id="line2d_27">
      <g>
       <use xlink:href="#m6a63274ec6" x="79.776875" y="117.013368" style="fill: #808080; stroke: #808080; stroke-width: 0.8"/>
      </g>
     </g>
     <g id="text_22">
      <text style="fill: #808080; font: 22px 'PingFang SC', 'Heiti SC', 'STHeiti', 'Calibri', 'Arial', 'Helvetica Neue', 'Arial Unicode MS', 'Noto Sans CJK SC', 'DejaVu Sans', sans-serif; text-anchor: end" x="72.776875" y="125.76868" transform="rotate(-0 72.776875 125.76868)">400</text>
     </g>
    </g>
    <g id="ytick_6">
     <g id="line2d_28">
      <path d="M 79.776875 70.885471 
L 692.146875 70.885471 
" clip-path="url(#pa34e49f42b)" style="fill: none; stroke-dasharray: 1,1.65; stroke-dashoffset: 0; stroke: #808080; stroke-opacity: 0.55"/>
     </g>
     <g id="line2d_29">
      <g>
       <use xlink:href="#m6a63274ec6" x="79.776875" y="70.885471" style="fill: #808080; stroke: #808080; stroke-width: 0.8"/>
      </g>
     </g>
     <g id="text_23">
      <text style="fill: #808080; font: 22px 'PingFang SC', 'Heiti SC', 'STHeiti', 'Calibri', 'Arial', 'Helvetica Neue', 'Arial Unicode MS', 'Noto Sans CJK SC', 'DejaVu Sans', sans-serif; text-anchor: end" x="72.776875" y="79.640784" transform="rotate(-0 72.776875 79.640784)">500</text>
     </g>
    </g>
    <g id="text_24">
     <text style="font: 22px 'PingFang SC', 'Heiti SC', 'STHeiti', 'Calibri', 'Arial', 'Helvetica Neue', 'Arial Unicode MS', 'Noto Sans CJK SC', 'DejaVu Sans', sans-serif; text-anchor: middle" x="29.259375" y="168.392164" transform="rotate(-90 29.259375 168.392164)">Health power (W)</text>
    </g>
   </g>
   <g id="patch_3">
    <path d="M 107.611875 301.524953 
L 111.696424 301.524953 
L 111.696424 259.94619 
L 107.611875 259.94619 
z
" clip-path="url(#pa34e49f42b)" style="fill: url(#h215d671685); stroke: #2ca02c; stroke-width: 2; stroke-linejoin: miter"/>
   </g>
   <g id="patch_4">
    <path d="M 112.417227 301.524953 
L 116.501776 301.524953 
L 116.501776 259.590082 
L 112.417227 259.590082 
z
" clip-path="url(#pa34e49f42b)" style="fill: url(#h215d671685); stroke: #2ca02c; stroke-width: 2; stroke-linejoin: miter"/>
   </g>
   <g id="patch_5">
    <path d="M 117.222578 301.524953 
L 121.307127 301.524953 
L 121.307127 259.530116 
L 117.222578 259.530116 
z
" clip-path="url(#pa34e49f42b)" style="fill: url(#h215d671685); stroke: #2ca02c; stroke-width: 2; stroke-linejoin: miter"/>
   </g>
   <g id="patch_6">
    <path d="M 122.02793 301.524953 
L 126.112479 301.524953 
L 126.112479 259.488601 
L 122.02793 259.488601 
z
" clip-path="url(#pa34e49f42b)" style="fill: url(#h215d671685); stroke: #2ca02c; stroke-width: 2; stroke-linejoin: miter"/>
   </g>
   <g id="patch_7">
    <path d="M 126.833282 301.524953 
L 130.917831 301.524953 
L 130.917831 259.471072 
L 126.833282 259.471072 
z
" clip-path="url(#pa34e49f42b)" style="fill: url(#h215d671685); stroke: #2ca02c; stroke-width: 2; stroke-linejoin: miter"/>
   </g>
   <g id="patch_8">
    <path d="M 131.638634 301.524953 
L 135.723183 301.524953 
L 135.723183 259.323463 
L 131.638634 259.323463 
z
" clip-path="url(#pa34e49f42b)" style="fill: url(#h215d671685); stroke: #2ca02c; stroke-width: 2; stroke-linejoin: miter"/>
   </g>
   <g id="patch_9">
    <path d="M 136.443985 301.524953 
L 140.528534 301.524953 
L 140.528534 259.249658 
L 136.443985 259.249658 
z
" clip-path="url(#pa34e49f42b)" style="fill: url(#h215d671685); stroke: #2ca02c; stroke-width: 2; stroke-linejoin: miter"/>
   </g>
   <g id="patch_10">
    <path d="M 141.249337 301.524953 
L 145.333886 301.524953 
L 145.333886 259.121423 
L 141.249337 259.121423 
z
" clip-path="url(#pa34e49f42b)" style="fill: url(#h215d671685); stroke: #2ca02c; stroke-width: 2; stroke-linejoin: miter"/>
   </g>
   <g id="patch_11">
    <path d="M 146.054689 301.524953 
L 150.139238 301.524953 
L 150.139238 259.104817 
L 146.054689 259.104817 
z
" clip-path="url(#pa34e49f42b)" style="fill: url(#h215d671685); stroke: #2ca02c; stroke-width: 2; stroke-linejoin: miter"/>
   </g>
   <g id="patch_12">
    <path d="M 150.860041 301.524953 
L 154.94459 301.524953 
L 154.94459 259.095591 
L 150.860041 259.095591 
z
" clip-path="url(#pa34e49f42b)" style="fill: url(#h215d671685); stroke: #2ca02c; stroke-width: 2; stroke-linejoin: miter"/>
   </g>
   <g id="patch_13">
    <path d="M 155.665392 301.524953 
L 159.749941 301.524953 
L 159.749941 259.028244 
L 155.665392 259.028244 
z
" clip-path="url(#pa34e49f42b)" style="fill: url(#h215d671685); stroke: #2ca02c; stroke-width: 2; stroke-linejoin: miter"/>
   </g>
   <g id="patch_14">
    <path d="M 160.470744 301.524953 
L 164.555293 301.524953 
L 164.555293 258.993187 
L 160.470744 258.993187 
z
" clip-path="url(#pa34e49f42b)" style="fill: url(#h215d671685); stroke: #2ca02c; stroke-width: 2; stroke-linejoin: miter"/>
   </g>
   <g id="patch_15">
    <path d="M 165.276096 301.524953 
L 169.360645 301.524953 
L 169.360645 258.941524 
L 165.276096 258.941524 
z
" clip-path="url(#pa34e49f42b)" style="fill: url(#h215d671685); stroke: #2ca02c; stroke-width: 2; stroke-linejoin: miter"/>
   </g>
   <g id="patch_16">
    <path d="M 170.081448 301.524953 
L 174.165997 301.524953 
L 174.165997 258.894474 
L 170.081448 258.894474 
z
" clip-path="url(#pa34e49f42b)" style="fill: url(#h215d671685); stroke: #2ca02c; stroke-width: 2; stroke-linejoin: miter"/>
   </g>
   <g id="patch_17">
    <path d="M 174.886799 301.524953 
L 178.971348 301.524953 
L 178.971348 258.886171 
L 174.886799 258.886171 
z
" clip-path="url(#pa34e49f42b)" style="fill: url(#h215d671685); stroke: #2ca02c; stroke-width: 2; stroke-linejoin: miter"/>
   </g>
   <g id="patch_18">
    <path d="M 179.692151 301.524953 
L 183.7767 301.524953 
L 183.7767 258.859416 
L 179.692151 258.859416 
z
" clip-path="url(#pa34e49f42b)" style="fill: url(#h215d671685); stroke: #2ca02c; stroke-width: 2; stroke-linejoin: miter"/>
   </g>
   <g id="patch_19">
    <path d="M 184.497503 301.524953 
L 188.582052 301.524953 
L 188.582052 258.830817 
L 184.497503 258.830817 
z
" clip-path="url(#pa34e49f42b)" style="fill: url(#h215d671685); stroke: #2ca02c; stroke-width: 2; stroke-linejoin: miter"/>
   </g>
   <g id="patch_20">
    <path d="M 189.302855 301.524953 
L 193.387404 301.524953 
L 193.387404 258.819746 
L 189.302855 258.819746 
z
" clip-path="url(#pa34e49f42b)" style="fill: url(#h215d671685); stroke: #2ca02c; stroke-width: 2; stroke-linejoin: miter"/>
   </g>
   <g id="patch_21">
    <path d="M 194.108206 301.524953 
L 198.192755 301.524953 
L 198.192755 258.815134 
L 194.108206 258.815134 
z
" clip-path="url(#pa34e49f42b)" style="fill: url(#h215d671685); stroke: #2ca02c; stroke-width: 2; stroke-linejoin: miter"/>
   </g>
   <g id="patch_22">
    <path d="M 198.913558 301.524953 
L 202.998107 301.524953 
L 202.998107 258.792992 
L 198.913558 258.792992 
z
" clip-path="url(#pa34e49f42b)" style="fill: url(#h215d671685); stroke: #2ca02c; stroke-width: 2; stroke-linejoin: miter"/>
   </g>
   <g id="patch_23">
    <path d="M 203.71891 301.524953 
L 207.803459 301.524953 
L 207.803459 258.755167 
L 203.71891 258.755167 
z
" clip-path="url(#pa34e49f42b)" style="fill: url(#h215d671685); stroke: #2ca02c; stroke-width: 2; stroke-linejoin: miter"/>
   </g>
   <g id="patch_24">
    <path d="M 208.524262 301.524953 
L 212.608811 301.524953 
L 212.608811 258.745942 
L 208.524262 258.745942 
z
" clip-path="url(#pa34e49f42b)" style="fill: url(#h215d671685); stroke: #2ca02c; stroke-width: 2; stroke-linejoin: miter"/>
   </g>
   <g id="patch_25">
    <path d="M 213.329613 301.524953 
L 217.414162 301.524953 
L 217.414162 258.686898 
L 213.329613 258.686898 
z
" clip-path="url(#pa34e49f42b)" style="fill: url(#h215d671685); stroke: #2ca02c; stroke-width: 2; stroke-linejoin: miter"/>
   </g>
   <g id="patch_26">
    <path d="M 218.134965 301.524953 
L 222.219514 301.524953 
L 222.219514 258.67306 
L 218.134965 258.67306 
z
" clip-path="url(#pa34e49f42b)" style="fill: url(#h215d671685); stroke: #2ca02c; stroke-width: 2; stroke-linejoin: miter"/>
   </g>
   <g id="patch_27">
    <path d="M 222.940317 301.524953 
L 227.024866 301.524953 
L 227.024866 258.655531 
L 222.940317 258.655531 
z
" clip-path="url(#pa34e49f42b)" style="fill: url(#h215d671685); stroke: #2ca02c; stroke-width: 2; stroke-linejoin: miter"/>
   </g>
   <g id="patch_28">
    <path d="M 227.745669 301.524953 
L 231.830218 301.524953 
L 231.830218 258.630622 
L 227.745669 258.630622 
z
" clip-path="url(#pa34e49f42b)" style="fill: url(#h215d671685); stroke: #2ca02c; stroke-width: 2; stroke-linejoin: miter"/>
   </g>
   <g id="patch_29">
    <path d="M 232.55102 301.524953 
L 236.635569 301.524953 
L 236.635569 258.589107 
L 232.55102 258.589107 
z
" clip-path="url(#pa34e49f42b)" style="fill: url(#h215d671685); stroke: #2ca02c; stroke-width: 2; stroke-linejoin: miter"/>
   </g>
   <g id="patch_30">
    <path d="M 237.356372 301.524953 
L 241.440921 301.524953 
L 241.440921 258.444265 
L 237.356372 258.444265 
z
" clip-path="url(#pa34e49f42b)" style="fill: url(#h215d671685); stroke: #2ca02c; stroke-width: 2; stroke-linejoin: miter"/>
   </g>
   <g id="patch_31">
    <path d="M 242.161724 301.524953 
L 246.246273 301.524953 
L 246.246273 258.389834 
L 242.161724 258.389834 
z
" clip-path="url(#pa34e49f42b)" style="fill: url(#h215d671685); stroke: #2ca02c; stroke-width: 2; stroke-linejoin: miter"/>
   </g>
   <g id="patch_32">
    <path d="M 246.967076 301.524953 
L 251.051625 301.524953 
L 251.051625 258.364003 
L 246.967076 258.364003 
z
" clip-path="url(#pa34e49f42b)" style="fill: url(#h215d671685); stroke: #2ca02c; stroke-width: 2; stroke-linejoin: miter"/>
   </g>
   <g id="patch_33">
    <path d="M 251.772427 301.524953 
L 255.856976 301.524953 
L 255.856976 258.293888 
L 251.772427 258.293888 
z
" clip-path="url(#pa34e49f42b)" style="fill: url(#h215d671685); stroke: #2ca02c; stroke-width: 2; stroke-linejoin: miter"/>
   </g>
   <g id="patch_34">
    <path d="M 256.577779 301.524953 
L 260.662328 301.524953 
L 260.662328 258.285585 
L 256.577779 258.285585 
z
" clip-path="url(#pa34e49f42b)" style="fill: url(#h215d671685); stroke: #2ca02c; stroke-width: 2; stroke-linejoin: miter"/>
   </g>
   <g id="patch_35">
    <path d="M 261.383131 301.524953 
L 265.46768 301.524953 
L 265.46768 258.271747 
L 261.383131 258.271747 
z
" clip-path="url(#pa34e49f42b)" style="fill: url(#h215d671685); stroke: #2ca02c; stroke-width: 2; stroke-linejoin: miter"/>
   </g>
   <g id="patch_36">
    <path d="M 266.188483 301.524953 
L 270.273032 301.524953 
L 270.273032 258.254218 
L 266.188483 258.254218 
z
" clip-path="url(#pa34e49f42b)" style="fill: url(#h215d671685); stroke: #2ca02c; stroke-width: 2; stroke-linejoin: miter"/>
   </g>
   <g id="patch_37">
    <path d="M 270.993834 301.524953 
L 275.078383 301.524953 
L 275.078383 258.239457 
L 270.993834 258.239457 
z
" clip-path="url(#pa34e49f42b)" style="fill: url(#h215d671685); stroke: #2ca02c; stroke-width: 2; stroke-linejoin: miter"/>
   </g>
   <g id="patch_38">
    <path d="M 275.799186 301.524953 
L 279.883735 301.524953 
L 279.883735 258.197942 
L 275.799186 258.197942 
z
" clip-path="url(#pa34e49f42b)" style="fill: url(#h215d671685); stroke: #2ca02c; stroke-width: 2; stroke-linejoin: miter"/>
   </g>
   <g id="patch_39">
    <path d="M 280.604538 301.524953 
L 284.689087 301.524953 
L 284.689087 258.171188 
L 280.604538 258.171188 
z
" clip-path="url(#pa34e49f42b)" style="fill: url(#h215d671685); stroke: #2ca02c; stroke-width: 2; stroke-linejoin: miter"/>
   </g>
   <g id="patch_40">
    <path d="M 285.40989 301.524953 
L 289.494439 301.524953 
L 289.494439 258.155505 
L 285.40989 258.155505 
z
" clip-path="url(#pa34e49f42b)" style="fill: url(#h215d671685); stroke: #2ca02c; stroke-width: 2; stroke-linejoin: miter"/>
   </g>
   <g id="patch_41">
    <path d="M 290.215241 301.524953 
L 294.29979 301.524953 
L 294.29979 258.105687 
L 290.215241 258.105687 
z
" clip-path="url(#pa34e49f42b)" style="fill: url(#h215d671685); stroke: #2ca02c; stroke-width: 2; stroke-linejoin: miter"/>
   </g>
   <g id="patch_42">
    <path d="M 295.020593 301.524953 
L 299.105142 301.524953 
L 299.105142 258.102919 
L 295.020593 258.102919 
z
" clip-path="url(#pa34e49f42b)" style="fill: url(#h215d671685); stroke: #2ca02c; stroke-width: 2; stroke-linejoin: miter"/>
   </g>
   <g id="patch_43">
    <path d="M 299.825945 301.524953 
L 303.910494 301.524953 
L 303.910494 258.061404 
L 299.825945 258.061404 
z
" clip-path="url(#pa34e49f42b)" style="fill: url(#h215d671685); stroke: #2ca02c; stroke-width: 2; stroke-linejoin: miter"/>
   </g>
   <g id="patch_44">
    <path d="M 304.631297 301.524953 
L 308.715846 301.524953 
L 308.715846 258.051256 
L 304.631297 258.051256 
z
" clip-path="url(#pa34e49f42b)" style="fill: url(#h215d671685); stroke: #2ca02c; stroke-width: 2; stroke-linejoin: miter"/>
   </g>
   <g id="patch_45">
    <path d="M 309.436648 301.524953 
L 313.521197 301.524953 
L 313.521197 258.006973 
L 309.436648 258.006973 
z
" clip-path="url(#pa34e49f42b)" style="fill: url(#h215d671685); stroke: #2ca02c; stroke-width: 2; stroke-linejoin: miter"/>
   </g>
   <g id="patch_46">
    <path d="M 314.242 301.524953 
L 318.326549 301.524953 
L 318.326549 258.003283 
L 314.242 258.003283 
z
" clip-path="url(#pa34e49f42b)" style="fill: url(#h215d671685); stroke: #2ca02c; stroke-width: 2; stroke-linejoin: miter"/>
   </g>
   <g id="patch_47">
    <path d="M 319.047352 301.524953 
L 323.131901 301.524953 
L 323.131901 257.99867 
L 319.047352 257.99867 
z
" clip-path="url(#pa34e49f42b)" style="fill: url(#h215d671685); stroke: #2ca02c; stroke-width: 2; stroke-linejoin: miter"/>
   </g>
   <g id="patch_48">
    <path d="M 323.852704 301.524953 
L 327.937253 301.524953 
L 327.937253 257.976528 
L 323.852704 257.976528 
z
" clip-path="url(#pa34e49f42b)" style="fill: url(#h215d671685); stroke: #2ca02c; stroke-width: 2; stroke-linejoin: miter"/>
   </g>
   <g id="patch_49">
    <path d="M 328.658055 301.524953 
L 332.742604 301.524953 
L 332.742604 257.96638 
L 328.658055 257.96638 
z
" clip-path="url(#pa34e49f42b)" style="fill: url(#h215d671685); stroke: #2ca02c; stroke-width: 2; stroke-linejoin: miter"/>
   </g>
   <g id="patch_50">
    <path d="M 333.463407 301.524953 
L 337.547956 301.524953 
L 337.547956 257.943316 
L 333.463407 257.943316 
z
" clip-path="url(#pa34e49f42b)" style="fill: url(#h215d671685); stroke: #2ca02c; stroke-width: 2; stroke-linejoin: miter"/>
   </g>
   <g id="patch_51">
    <path d="M 338.268759 301.524953 
L 342.353308 301.524953 
L 342.353308 257.925788 
L 338.268759 257.925788 
z
" clip-path="url(#pa34e49f42b)" style="fill: url(#h215d671685); stroke: #2ca02c; stroke-width: 2; stroke-linejoin: miter"/>
   </g>
   <g id="patch_52">
    <path d="M 343.074111 301.524953 
L 347.15866 301.524953 
L 347.15866 257.912872 
L 343.074111 257.912872 
z
" clip-path="url(#pa34e49f42b)" style="fill: url(#h215d671685); stroke: #2ca02c; stroke-width: 2; stroke-linejoin: miter"/>
   </g>
   <g id="patch_53">
    <path d="M 347.879462 301.524953 
L 351.964011 301.524953 
L 351.964011 257.877815 
L 347.879462 257.877815 
z
" clip-path="url(#pa34e49f42b)" style="fill: url(#h215d671685); stroke: #2ca02c; stroke-width: 2; stroke-linejoin: miter"/>
   </g>
   <g id="patch_54">
    <path d="M 352.684814 301.524953 
L 356.769363 301.524953 
L 356.769363 257.867667 
L 352.684814 257.867667 
z
" clip-path="url(#pa34e49f42b)" style="fill: url(#h215d671685); stroke: #2ca02c; stroke-width: 2; stroke-linejoin: miter"/>
   </g>
   <g id="patch_55">
    <path d="M 357.490166 301.524953 
L 361.574715 301.524953 
L 361.574715 257.865821 
L 357.490166 257.865821 
z
" clip-path="url(#pa34e49f42b)" style="fill: url(#h215d671685); stroke: #2ca02c; stroke-width: 2; stroke-linejoin: miter"/>
   </g>
   <g id="patch_56">
    <path d="M 362.295518 301.524953 
L 366.380067 301.524953 
L 366.380067 257.844603 
L 362.295518 257.844603 
z
" clip-path="url(#pa34e49f42b)" style="fill: url(#h215d671685); stroke: #2ca02c; stroke-width: 2; stroke-linejoin: miter"/>
   </g>
   <g id="patch_57">
    <path d="M 367.100869 301.524953 
L 371.185418 301.524953 
L 371.185418 257.816003 
L 367.100869 257.816003 
z
" clip-path="url(#pa34e49f42b)" style="fill: url(#h215d671685); stroke: #2ca02c; stroke-width: 2; stroke-linejoin: miter"/>
   </g>
   <g id="patch_58">
    <path d="M 371.906221 301.524953 
L 375.99077 301.524953 
L 375.99077 257.8077 
L 371.906221 257.8077 
z
" clip-path="url(#pa34e49f42b)" style="fill: url(#h215d671685); stroke: #2ca02c; stroke-width: 2; stroke-linejoin: miter"/>
   </g>
   <g id="patch_59">
    <path d="M 376.711573 301.524953 
L 380.796122 301.524953 
L 380.796122 257.765263 
L 376.711573 257.765263 
z
" clip-path="url(#pa34e49f42b)" style="fill: url(#h215d671685); stroke: #2ca02c; stroke-width: 2; stroke-linejoin: miter"/>
   </g>
   <g id="patch_60">
    <path d="M 381.516925 301.524953 
L 385.601474 301.524953 
L 385.601474 257.76065 
L 381.516925 257.76065 
z
" clip-path="url(#pa34e49f42b)" style="fill: url(#h215d671685); stroke: #2ca02c; stroke-width: 2; stroke-linejoin: miter"/>
   </g>
   <g id="patch_61">
    <path d="M 386.322276 301.524953 
L 390.406825 301.524953 
L 390.406825 257.746811 
L 386.322276 257.746811 
z
" clip-path="url(#pa34e49f42b)" style="fill: url(#h84e85a8d75); stroke: #ff7f0e; stroke-width: 2; stroke-linejoin: miter"/>
   </g>
   <g id="patch_62">
    <path d="M 391.127628 301.524953 
L 395.212177 301.524953 
L 395.212177 257.737586 
L 391.127628 257.737586 
z
" clip-path="url(#pa34e49f42b)" style="fill: url(#h84e85a8d75); stroke: #ff7f0e; stroke-width: 2; stroke-linejoin: miter"/>
   </g>
   <g id="patch_63">
    <path d="M 395.93298 301.524953 
L 400.017529 301.524953 
L 400.017529 257.736663 
L 395.93298 257.736663 
z
" clip-path="url(#pa34e49f42b)" style="fill: url(#h84e85a8d75); stroke: #ff7f0e; stroke-width: 2; stroke-linejoin: miter"/>
   </g>
   <g id="patch_64">
    <path d="M 400.738332 301.524953 
L 404.822881 301.524953 
L 404.822881 257.714522 
L 400.738332 257.714522 
z
" clip-path="url(#pa34e49f42b)" style="fill: url(#h84e85a8d75); stroke: #ff7f0e; stroke-width: 2; stroke-linejoin: miter"/>
   </g>
   <g id="patch_65">
    <path d="M 405.543683 301.524953 
L 409.628232 301.524953 
L 409.628232 257.714522 
L 405.543683 257.714522 
z
" clip-path="url(#pa34e49f42b)" style="fill: url(#h84e85a8d75); stroke: #ff7f0e; stroke-width: 2; stroke-linejoin: miter"/>
   </g>
   <g id="patch_66">
    <path d="M 410.349035 301.524953 
L 414.433584 301.524953 
L 414.433584 257.692381 
L 410.349035 257.692381 
z
" clip-path="url(#pa34e49f42b)" style="fill: url(#h84e85a8d75); stroke: #ff7f0e; stroke-width: 2; stroke-linejoin: miter"/>
   </g>
   <g id="patch_67">
    <path d="M 415.154387 301.524953 
L 419.238936 301.524953 
L 419.238936 257.646253 
L 415.154387 257.646253 
z
" clip-path="url(#pa34e49f42b)" style="fill: url(#h84e85a8d75); stroke: #ff7f0e; stroke-width: 2; stroke-linejoin: miter"/>
   </g>
   <g id="patch_68">
    <path d="M 419.959739 301.524953 
L 424.044288 301.524953 
L 424.044288 257.643485 
L 419.959739 257.643485 
z
" clip-path="url(#pa34e49f42b)" style="fill: url(#h84e85a8d75); stroke: #ff7f0e; stroke-width: 2; stroke-linejoin: miter"/>
   </g>
   <g id="patch_69">
    <path d="M 424.76509 301.524953 
L 428.849639 301.524953 
L 428.849639 257.636105 
L 424.76509 257.636105 
z
" clip-path="url(#pa34e49f42b)" style="fill: url(#h84e85a8d75); stroke: #ff7f0e; stroke-width: 2; stroke-linejoin: miter"/>
   </g>
   <g id="patch_70">
    <path d="M 429.570442 301.524953 
L 433.654991 301.524953 
L 433.654991 257.571525 
L 429.570442 257.571525 
z
" clip-path="url(#pa34e49f42b)" style="fill: url(#h84e85a8d75); stroke: #ff7f0e; stroke-width: 2; stroke-linejoin: miter"/>
   </g>
   <g id="patch_71">
    <path d="M 434.375794 301.524953 
L 438.460343 301.524953 
L 438.460343 257.565068 
L 434.375794 257.565068 
z
" clip-path="url(#pa34e49f42b)" style="fill: url(#h84e85a8d75); stroke: #ff7f0e; stroke-width: 2; stroke-linejoin: miter"/>
   </g>
   <g id="patch_72">
    <path d="M 439.181146 301.524953 
L 443.265695 301.524953 
L 443.265695 257.532778 
L 439.181146 257.532778 
z
" clip-path="url(#pa34e49f42b)" style="fill: url(#h84e85a8d75); stroke: #ff7f0e; stroke-width: 2; stroke-linejoin: miter"/>
   </g>
   <g id="patch_73">
    <path d="M 443.986497 301.524953 
L 448.071046 301.524953 
L 448.071046 257.511559 
L 443.986497 257.511559 
z
" clip-path="url(#pa34e49f42b)" style="fill: url(#h84e85a8d75); stroke: #ff7f0e; stroke-width: 2; stroke-linejoin: miter"/>
   </g>
   <g id="patch_74">
    <path d="M 448.791849 301.524953 
L 452.876398 301.524953 
L 452.876398 257.497721 
L 448.791849 257.497721 
z
" clip-path="url(#pa34e49f42b)" style="fill: url(#h84e85a8d75); stroke: #ff7f0e; stroke-width: 2; stroke-linejoin: miter"/>
   </g>
   <g id="patch_75">
    <path d="M 453.597201 301.524953 
L 457.68175 301.524953 
L 457.68175 257.484805 
L 453.597201 257.484805 
z
" clip-path="url(#pa34e49f42b)" style="fill: url(#h84e85a8d75); stroke: #ff7f0e; stroke-width: 2; stroke-linejoin: miter"/>
   </g>
   <g id="patch_76">
    <path d="M 458.402553 301.524953 
L 462.487102 301.524953 
L 462.487102 257.444212 
L 458.402553 257.444212 
z
" clip-path="url(#pa34e49f42b)" style="fill: url(#h84e85a8d75); stroke: #ff7f0e; stroke-width: 2; stroke-linejoin: miter"/>
   </g>
   <g id="patch_77">
    <path d="M 463.207904 301.524953 
L 467.292453 301.524953 
L 467.292453 257.44329 
L 463.207904 257.44329 
z
" clip-path="url(#pa34e49f42b)" style="fill: url(#h84e85a8d75); stroke: #ff7f0e; stroke-width: 2; stroke-linejoin: miter"/>
   </g>
   <g id="patch_78">
    <path d="M 468.013256 301.524953 
L 472.097805 301.524953 
L 472.097805 257.438677 
L 468.013256 257.438677 
z
" clip-path="url(#pa34e49f42b)" style="fill: url(#h84e85a8d75); stroke: #ff7f0e; stroke-width: 2; stroke-linejoin: miter"/>
   </g>
   <g id="patch_79">
    <path d="M 472.818608 301.524953 
L 476.903157 301.524953 
L 476.903157 257.40362 
L 472.818608 257.40362 
z
" clip-path="url(#pa34e49f42b)" style="fill: url(#h84e85a8d75); stroke: #ff7f0e; stroke-width: 2; stroke-linejoin: miter"/>
   </g>
   <g id="patch_80">
    <path d="M 477.62396 301.524953 
L 481.708509 301.524953 
L 481.708509 257.385169 
L 477.62396 257.385169 
z
" clip-path="url(#pa34e49f42b)" style="fill: url(#h84e85a8d75); stroke: #ff7f0e; stroke-width: 2; stroke-linejoin: miter"/>
   </g>
   <g id="patch_81">
    <path d="M 482.429311 301.524953 
L 486.51386 301.524953 
L 486.51386 257.383324 
L 482.429311 257.383324 
z
" clip-path="url(#pa34e49f42b)" style="fill: url(#h84e85a8d75); stroke: #ff7f0e; stroke-width: 2; stroke-linejoin: miter"/>
   </g>
   <g id="patch_82">
    <path d="M 487.234663 301.524953 
L 491.319212 301.524953 
L 491.319212 257.37133 
L 487.234663 257.37133 
z
" clip-path="url(#pa34e49f42b)" style="fill: url(#h84e85a8d75); stroke: #ff7f0e; stroke-width: 2; stroke-linejoin: miter"/>
   </g>
   <g id="patch_83">
    <path d="M 492.040015 301.524953 
L 496.124564 301.524953 
L 496.124564 257.359337 
L 492.040015 257.359337 
z
" clip-path="url(#pa34e49f42b)" style="fill: url(#h84e85a8d75); stroke: #ff7f0e; stroke-width: 2; stroke-linejoin: miter"/>
   </g>
   <g id="patch_84">
    <path d="M 496.845367 301.524953 
L 500.929916 301.524953 
L 500.929916 257.315054 
L 496.845367 257.315054 
z
" clip-path="url(#pa34e49f42b)" style="fill: url(#h84e85a8d75); stroke: #ff7f0e; stroke-width: 2; stroke-linejoin: miter"/>
   </g>
   <g id="patch_85">
    <path d="M 501.650718 301.524953 
L 505.735267 301.524953 
L 505.735267 257.286455 
L 501.650718 257.286455 
z
" clip-path="url(#pa34e49f42b)" style="fill: url(#h84e85a8d75); stroke: #ff7f0e; stroke-width: 2; stroke-linejoin: miter"/>
   </g>
   <g id="patch_86">
    <path d="M 506.45607 301.524953 
L 510.540619 301.524953 
L 510.540619 257.283687 
L 506.45607 257.283687 
z
" clip-path="url(#pa34e49f42b)" style="fill: url(#h84e85a8d75); stroke: #ff7f0e; stroke-width: 2; stroke-linejoin: miter"/>
   </g>
   <g id="patch_87">
    <path d="M 511.261422 301.524953 
L 515.345971 301.524953 
L 515.345971 257.277229 
L 511.261422 257.277229 
z
" clip-path="url(#pa34e49f42b)" style="fill: url(#h84e85a8d75); stroke: #ff7f0e; stroke-width: 2; stroke-linejoin: miter"/>
   </g>
   <g id="patch_88">
    <path d="M 516.066774 301.524953 
L 520.151323 301.524953 
L 520.151323 257.236637 
L 516.066774 257.236637 
z
" clip-path="url(#pa34e49f42b)" style="fill: url(#h84e85a8d75); stroke: #ff7f0e; stroke-width: 2; stroke-linejoin: miter"/>
   </g>
   <g id="patch_89">
    <path d="M 520.872125 301.524953 
L 524.956674 301.524953 
L 524.956674 257.194199 
L 520.872125 257.194199 
z
" clip-path="url(#pa34e49f42b)" style="fill: url(#h84e85a8d75); stroke: #ff7f0e; stroke-width: 2; stroke-linejoin: miter"/>
   </g>
   <g id="patch_90">
    <path d="M 525.677477 301.524953 
L 529.762026 301.524953 
L 529.762026 257.127775 
L 525.677477 257.127775 
z
" clip-path="url(#pa34e49f42b)" style="fill: url(#h84e85a8d75); stroke: #ff7f0e; stroke-width: 2; stroke-linejoin: miter"/>
   </g>
   <g id="patch_91">
    <path d="M 530.482829 301.524953 
L 534.567378 301.524953 
L 534.567378 257.049358 
L 530.482829 257.049358 
z
" clip-path="url(#pa34e49f42b)" style="fill: url(#h84e85a8d75); stroke: #ff7f0e; stroke-width: 2; stroke-linejoin: miter"/>
   </g>
   <g id="patch_92">
    <path d="M 535.288181 301.524953 
L 539.37273 301.524953 
L 539.37273 256.995849 
L 535.288181 256.995849 
z
" clip-path="url(#pa34e49f42b)" style="fill: url(#h84e85a8d75); stroke: #ff7f0e; stroke-width: 2; stroke-linejoin: miter"/>
   </g>
   <g id="patch_93">
    <path d="M 540.093532 301.524953 
L 544.178081 301.524953 
L 544.178081 256.982934 
L 540.093532 256.982934 
z
" clip-path="url(#pa34e49f42b)" style="fill: url(#h84e85a8d75); stroke: #ff7f0e; stroke-width: 2; stroke-linejoin: miter"/>
   </g>
   <g id="patch_94">
    <path d="M 544.898884 301.524953 
L 548.983433 301.524953 
L 548.983433 256.97094 
L 544.898884 256.97094 
z
" clip-path="url(#pa34e49f42b)" style="fill: url(#h84e85a8d75); stroke: #ff7f0e; stroke-width: 2; stroke-linejoin: miter"/>
   </g>
   <g id="patch_95">
    <path d="M 549.704236 301.524953 
L 553.788785 301.524953 
L 553.788785 256.942341 
L 549.704236 256.942341 
z
" clip-path="url(#pa34e49f42b)" style="fill: url(#h84e85a8d75); stroke: #ff7f0e; stroke-width: 2; stroke-linejoin: miter"/>
   </g>
   <g id="patch_96">
    <path d="M 554.509588 301.524953 
L 558.594137 301.524953 
L 558.594137 256.873149 
L 554.509588 256.873149 
z
" clip-path="url(#pa34e49f42b)" style="fill: url(#h84e85a8d75); stroke: #ff7f0e; stroke-width: 2; stroke-linejoin: miter"/>
   </g>
   <g id="patch_97">
    <path d="M 559.314939 301.524953 
L 563.399488 301.524953 
L 563.399488 256.803035 
L 559.314939 256.803035 
z
" clip-path="url(#pa34e49f42b)" style="fill: url(#h84e85a8d75); stroke: #ff7f0e; stroke-width: 2; stroke-linejoin: miter"/>
   </g>
   <g id="patch_98">
    <path d="M 564.120291 301.524953 
L 568.20484 301.524953 
L 568.20484 256.690483 
L 564.120291 256.690483 
z
" clip-path="url(#pa34e49f42b)" style="fill: url(#h84e85a8d75); stroke: #ff7f0e; stroke-width: 2; stroke-linejoin: miter"/>
   </g>
   <g id="patch_99">
    <path d="M 568.925643 301.524953 
L 573.010192 301.524953 
L 573.010192 256.676644 
L 568.925643 256.676644 
z
" clip-path="url(#pa34e49f42b)" style="fill: url(#h84e85a8d75); stroke: #ff7f0e; stroke-width: 2; stroke-linejoin: miter"/>
   </g>
   <g id="patch_100">
    <path d="M 573.730995 301.524953 
L 577.815544 301.524953 
L 577.815544 256.638819 
L 573.730995 256.638819 
z
" clip-path="url(#pa34e49f42b)" style="fill: url(#h84e85a8d75); stroke: #ff7f0e; stroke-width: 2; stroke-linejoin: miter"/>
   </g>
   <g id="patch_101">
    <path d="M 578.536346 301.524953 
L 582.620895 301.524953 
L 582.620895 256.568705 
L 578.536346 256.568705 
z
" clip-path="url(#pa34e49f42b)" style="fill: url(#h84e85a8d75); stroke: #ff7f0e; stroke-width: 2; stroke-linejoin: miter"/>
   </g>
   <g id="patch_102">
    <path d="M 583.341698 301.524953 
L 587.426247 301.524953 
L 587.426247 256.542873 
L 583.341698 256.542873 
z
" clip-path="url(#pa34e49f42b)" style="fill: url(#h84e85a8d75); stroke: #ff7f0e; stroke-width: 2; stroke-linejoin: miter"/>
   </g>
   <g id="patch_103">
    <path d="M 588.14705 301.524953 
L 592.231599 301.524953 
L 592.231599 256.529958 
L 588.14705 256.529958 
z
" clip-path="url(#pa34e49f42b)" style="fill: url(#h84e85a8d75); stroke: #ff7f0e; stroke-width: 2; stroke-linejoin: miter"/>
   </g>
   <g id="patch_104">
    <path d="M 592.952402 301.524953 
L 597.036951 301.524953 
L 597.036951 256.513352 
L 592.952402 256.513352 
z
" clip-path="url(#pa34e49f42b)" style="fill: url(#h84e85a8d75); stroke: #ff7f0e; stroke-width: 2; stroke-linejoin: miter"/>
   </g>
   <g id="patch_105">
    <path d="M 597.757753 301.524953 
L 601.842302 301.524953 
L 601.842302 256.398954 
L 597.757753 256.398954 
z
" clip-path="url(#pa34e49f42b)" style="fill: url(#h84e85a8d75); stroke: #ff7f0e; stroke-width: 2; stroke-linejoin: miter"/>
   </g>
   <g id="patch_106">
    <path d="M 602.563105 301.524953 
L 606.647654 301.524953 
L 606.647654 256.388806 
L 602.563105 256.388806 
z
" clip-path="url(#pa34e49f42b)" style="fill: url(#h84e85a8d75); stroke: #ff7f0e; stroke-width: 2; stroke-linejoin: miter"/>
   </g>
   <g id="patch_107">
    <path d="M 607.368457 301.524953 
L 611.453006 301.524953 
L 611.453006 256.283635 
L 607.368457 256.283635 
z
" clip-path="url(#pa34e49f42b)" style="fill: url(#h84e85a8d75); stroke: #ff7f0e; stroke-width: 2; stroke-linejoin: miter"/>
   </g>
   <g id="patch_108">
    <path d="M 612.173809 301.524953 
L 616.258358 301.524953 
L 616.258358 256.212598 
L 612.173809 256.212598 
z
" clip-path="url(#pa34e49f42b)" style="fill: url(#h84e85a8d75); stroke: #ff7f0e; stroke-width: 2; stroke-linejoin: miter"/>
   </g>
   <g id="patch_109">
    <path d="M 616.97916 301.524953 
L 621.063709 301.524953 
L 621.063709 256.052995 
L 616.97916 256.052995 
z
" clip-path="url(#pa34e49f42b)" style="fill: url(#h84e85a8d75); stroke: #ff7f0e; stroke-width: 2; stroke-linejoin: miter"/>
   </g>
   <g id="patch_110">
    <path d="M 621.784512 301.524953 
L 625.869061 301.524953 
L 625.869061 256.017015 
L 621.784512 256.017015 
z
" clip-path="url(#pa34e49f42b)" style="fill: url(#h84e85a8d75); stroke: #ff7f0e; stroke-width: 2; stroke-linejoin: miter"/>
   </g>
   <g id="patch_111">
    <path d="M 626.589864 301.524953 
L 630.674413 301.524953 
L 630.674413 95.470718 
L 626.589864 95.470718 
z
" clip-path="url(#pa34e49f42b)" style="fill: url(#h84e85a8d75); stroke: #ff7f0e; stroke-width: 2; stroke-linejoin: miter"/>
   </g>
   <g id="patch_112">
    <path d="M 631.395216 301.524953 
L 635.479765 301.524953 
L 635.479765 64.730165 
L 631.395216 64.730165 
z
" clip-path="url(#pa34e49f42b)" style="fill: url(#h84e85a8d75); stroke: #ff7f0e; stroke-width: 2; stroke-linejoin: miter"/>
   </g>
   <g id="patch_113">
    <path d="M 636.200567 301.524953 
L 640.285116 301.524953 
L 640.285116 57.941061 
L 636.200567 57.941061 
z
" clip-path="url(#pa34e49f42b)" style="fill: url(#h84e85a8d75); stroke: #ff7f0e; stroke-width: 2; stroke-linejoin: miter"/>
   </g>
   <g id="patch_114">
    <path d="M 641.005919 301.524953 
L 645.090468 301.524953 
L 645.090468 56.956692 
L 641.005919 56.956692 
z
" clip-path="url(#pa34e49f42b)" style="fill: url(#h84e85a8d75); stroke: #ff7f0e; stroke-width: 2; stroke-linejoin: miter"/>
   </g>
   <g id="patch_115">
    <path d="M 645.811271 301.524953 
L 649.89582 301.524953 
L 649.89582 54.794216 
L 645.811271 54.794216 
z
" clip-path="url(#pa34e49f42b)" style="fill: url(#h84e85a8d75); stroke: #ff7f0e; stroke-width: 2; stroke-linejoin: miter"/>
   </g>
   <g id="patch_116">
    <path d="M 650.616623 301.524953 
L 654.701172 301.524953 
L 654.701172 54.303415 
L 650.616623 54.303415 
z
" clip-path="url(#pa34e49f42b)" style="fill: url(#h84e85a8d75); stroke: #ff7f0e; stroke-width: 2; stroke-linejoin: miter"/>
   </g>
   <g id="patch_117">
    <path d="M 655.421974 301.524953 
L 659.506523 301.524953 
L 659.506523 52.687094 
L 655.421974 52.687094 
z
" clip-path="url(#pa34e49f42b)" style="fill: url(#h84e85a8d75); stroke: #ff7f0e; stroke-width: 2; stroke-linejoin: miter"/>
   </g>
   <g id="patch_118">
    <path d="M 660.227326 301.524953 
L 664.311875 301.524953 
L 664.311875 47.938688 
L 660.227326 47.938688 
z
" clip-path="url(#pa34e49f42b)" style="fill: url(#h84e85a8d75); stroke: #ff7f0e; stroke-width: 2; stroke-linejoin: miter"/>
   </g>
   <g id="line2d_30">
    <path d="M 79.776875 257.753731 
L 692.146875 257.753731 
" clip-path="url(#pa34e49f42b)" style="fill: none; stroke-dasharray: 4.44,1.92; stroke-dashoffset: 0; stroke: #f58518; stroke-width: 1.2"/>
   </g>
   <g id="patch_119">
    <path d="M 79.776875 301.524953 
L 79.776875 35.259375 
" style="fill: none; stroke: #808080; stroke-width: 0.8; stroke-linejoin: miter; stroke-linecap: square"/>
   </g>
   <g id="patch_120">
    <path d="M 79.776875 301.524953 
L 692.146875 301.524953 
" style="fill: none; stroke: #808080; stroke-width: 0.8; stroke-linejoin: miter; stroke-linecap: square"/>
   </g>
   <g id="text_25">
    <text style="font: 22px 'PingFang SC', 'Heiti SC', 'STHeiti', 'Calibri', 'Arial', 'Helvetica Neue', 'Arial Unicode MS', 'Noto Sans CJK SC', 'DejaVu Sans', sans-serif; text-anchor: middle" x="385.961875" y="29.259375" transform="rotate(-0 385.961875 29.259375)">排序条形 · Health power (W)</text>
   </g>
   <g id="legend_1">
    <g id="patch_121">
     <path d="M 88.176875 62.019375 
L 208.95875 62.019375 
Q 211.35875 62.019375 211.35875 59.619375 
L 211.35875 43.659375 
Q 211.35875 41.259375 208.95875 41.259375 
L 88.176875 41.259375 
Q 85.776875 41.259375 85.776875 43.659375 
L 85.776875 59.619375 
Q 85.776875 62.019375 88.176875 62.019375 
z
" style="fill: #ffffff; opacity: 0.5; stroke: #cccccc; stroke-linejoin: miter"/>
    </g>
    <g id="line2d_31">
     <path d="M 90.576875 51.410625 
L 102.576875 51.410625 
L 114.576875 51.410625 
" style="fill: none; stroke-dasharray: 4.44,1.92; stroke-dashoffset: 0; stroke: #f58518; stroke-width: 1.2"/>
    </g>
    <g id="text_26">
     <text style="font: 12px 'PingFang SC', 'Heiti SC', 'STHeiti', 'Calibri', 'Arial', 'Helvetica Neue', 'Arial Unicode MS', 'Noto Sans CJK SC', 'DejaVu Sans', sans-serif; text-anchor: start" x="124.176875" y="55.610625" transform="rotate(-0 124.176875 55.610625)">median=94.89</text>
    </g>
   </g>
  </g>
 </g>
 <defs>
  <clipPath id="pa34e49f42b">
   <rect x="79.776875" y="35.259375" width="612.37" height="266.265578"/>
  </clipPath>
 </defs>
 <defs>
  <pattern id="h215d671685" patternUnits="userSpaceOnUse" x="0" y="0" width="72" height="72">
   <rect x="0" y="0" width="73" height="73" fill="none"/>
   <path d="M -36 36 
L 36 -36 
M -30 42 
L 42 -30 
M -24 48 
L 48 -24 
M -18 54 
L 54 -18 
M -12 60 
L 60 -12 
M -6 66 
L 66 -6 
M 0 72 
L 72 0 
M 6 78 
L 78 6 
M 12 84 
L 84 12 
M 18 90 
L 90 18 
M 24 96 
L 96 24 
M 30 102 
L 102 30 
M 36 108 
L 108 36 
M -36 36 
L 36 108 
M -30 30 
L 42 102 
M -24 24 
L 48 96 
M -18 18 
L 54 90 
M -12 12 
L 60 84 
M -6 6 
L 66 78 
M 0 0 
L 72 72 
M 6 -6 
L 78 66 
M 12 -12 
L 84 60 
M 18 -18 
L 90 54 
M 24 -24 
L 96 48 
M 30 -30 
L 102 42 
M 36 -36 
L 108 36 
" style="fill: #2ca02c; stroke: #2ca02c; stroke-width: 1.0; stroke-linecap: butt; stroke-linejoin: miter"/>
  </pattern>
  <pattern id="h84e85a8d75" patternUnits="userSpaceOnUse" x="0" y="0" width="72" height="72">
   <rect x="0" y="0" width="73" height="73" fill="none"/>
   <path d="M -36 36 
L 36 -36 
M -30 42 
L 42 -30 
M -24 48 
L 48 -24 
M -18 54 
L 54 -18 
M -12 60 
L 60 -12 
M -6 66 
L 66 -6 
M 0 72 
L 72 0 
M 6 78 
L 78 6 
M 12 84 
L 84 12 
M 18 90 
L 90 18 
M 24 96 
L 96 24 
M 30 102 
L 102 30 
M 36 108 
L 108 36 
" style="fill: #ff7f0e; stroke: #ff7f0e; stroke-width: 1.0; stroke-linecap: butt; stroke-linejoin: miter"/>
  </pattern>
 </defs>
</svg>
