<?xml version="1.0" encoding="utf-8" standalone="no"?>
<!DOCTYPE svg PUBLIC "-//W3C//DTD SVG 1.1//EN"
  "http://www.w3.org/Graphics/SVG/1.1/DTD/svg11.dtd">
<svg xmlns:xlink="http://www.w3.org/1999/xlink" width="702.75pt" height="342.867961pt" viewBox="0 0 702.75 342.867961" xmlns="http://www.w3.org/2000/svg" version="1.1">
 <metadata>
  <rdf:RDF xmlns:dc="http://purl.org/dc/elements/1.1/" xmlns:cc="http://creativecommons.org/ns#" xmlns:rdf="http://www.w3.org/1999/02/22-rdf-syntax-ns#">
   <cc:Work>
    <dc:type rdf:resource="http://purl.org/dc/dcmitype/StillImage"/>
    <dc:date>2026-07-11T23:31:13.120608</dc:date>
    <dc:format>image/svg+xml</dc:format>
    <dc:creator>
     <cc:Agent>
      <dc:title>Matplotlib v3.9.4, https://matplotlib.org/</dc:title>
     </cc:Agent>
    </dc:creator>
   </cc:Work>
  </rdf:RDF>
 </metadata>
 <defs>
  <style type="text/css">*{stroke-linejoin: round; stroke-linecap: butt}</style>
 </defs>
 <g id="figure_1">
  <g id="patch_1">
   <path d="M 0 342.867961 
L 702.75 342.867961 
L 702.75 0 
L 0 0 
z
" style="fill: #ffffff"/>
  </g>
  <g id="axes_1">
   <g id="patch_2">
    <path d="M 91.0175 301.520311 
L 691.95 301.520311 
L 691.95 34.4 
L 91.0175 34.4 
z
" style="fill: #ffffff"/>
   </g>
   <g id="matplotlib.axis_1">
    <g id="xtick_1">
     <g id="line2d_1">
      <defs>
       <path id="ma5143d9f86" d="M 0 0 
L 0 3.5 
" style="stroke: #808080; stroke-width: 0.8"/>
      </defs>
      <g>
       <use xlink:href="#ma5143d9f86" x="120.354194" y="301.520311" style="fill: #808080; stroke: #808080; stroke-width: 0.8"/>
      </g>
     </g>
     <g id="text_1">
      <text style="fill: #808080; font: 9px 'PingFang SC', 'Heiti SC', 'STHeiti', 'Calibri', 'Arial', 'Helvetica Neue', 'Arial Unicode MS', 'Noto Sans CJK SC', 'DejaVu Sans', sans-serif" transform="translate(101.871859 331.214793) rotate(-45)">w12.5</text>
     </g>
    </g>
    <g id="xtick_2">
     <g id="line2d_2">
      <g>
       <use xlink:href="#ma5143d9f86" x="153.650806" y="301.520311" style="fill: #808080; stroke: #808080; stroke-width: 0.8"/>
      </g>
     </g>
     <g id="text_2">
      <text style="fill: #808080; font: 9px 'PingFang SC', 'Heiti SC', 'STHeiti', 'Calibri', 'Arial', 'Helvetica Neue', 'Arial Unicode MS', 'Noto Sans CJK SC', 'DejaVu Sans', sans-serif" transform="translate(138.694503 327.688761) rotate(-45)">w0.6</text>
     </g>
    </g>
    <g id="xtick_3">
     <g id="line2d_3">
      <g>
       <use xlink:href="#ma5143d9f86" x="186.947418" y="301.520311" style="fill: #808080; stroke: #808080; stroke-width: 0.8"/>
      </g>
     </g>
     <g id="text_3">
      <text style="fill: #808080; font: 9px 'PingFang SC', 'Heiti SC', 'STHeiti', 'Calibri', 'Arial', 'Helvetica Neue', 'Arial Unicode MS', 'Noto Sans CJK SC', 'DejaVu Sans', sans-serif" transform="translate(171.991115 327.688761) rotate(-45)">w5.0</text>
     </g>
    </g>
    <g id="xtick_4">
     <g id="line2d_4">
      <g>
       <use xlink:href="#ma5143d9f86" x="220.24403" y="301.520311" style="fill: #808080; stroke: #808080; stroke-width: 0.8"/>
      </g>
     </g>
     <g id="text_4">
      <text style="fill: #808080; font: 9px 'PingFang SC', 'Heiti SC', 'STHeiti', 'Calibri', 'Arial', 'Helvetica Neue', 'Arial Unicode MS', 'Noto Sans CJK SC', 'DejaVu Sans', sans-serif" transform="translate(205.287727 327.688761) rotate(-45)">w6.7</text>
     </g>
    </g>
    <g id="xtick_5">
     <g id="line2d_5">
      <g>
       <use xlink:href="#ma5143d9f86" x="253.540642" y="301.520311" style="fill: #808080; stroke: #808080; stroke-width: 0.8"/>
      </g>
     </g>
     <g id="text_5">
      <text style="fill: #808080; font: 9px 'PingFang SC', 'Heiti SC', 'STHeiti', 'Calibri', 'Arial', 'Helvetica Neue', 'Arial Unicode MS', 'Noto Sans CJK SC', 'DejaVu Sans', sans-serif" transform="translate(238.58434 327.688761) rotate(-45)">w8.0</text>
     </g>
    </g>
    <g id="xtick_6">
     <g id="line2d_6">
      <g>
       <use xlink:href="#ma5143d9f86" x="286.837255" y="301.520311" style="fill: #808080; stroke: #808080; stroke-width: 0.8"/>
      </g>
     </g>
     <g id="text_6">
      <text style="fill: #808080; font: 9px 'PingFang SC', 'Heiti SC', 'STHeiti', 'Calibri', 'Arial', 'Helvetica Neue', 'Arial Unicode MS', 'Noto Sans CJK SC', 'DejaVu Sans', sans-serif" transform="translate(271.199809 328.369903) rotate(-45)">m0.5</text>
     </g>
    </g>
    <g id="xtick_7">
     <g id="line2d_7">
      <g>
       <use xlink:href="#ma5143d9f86" x="320.133867" y="301.520311" style="fill: #808080; stroke: #808080; stroke-width: 0.8"/>
      </g>
     </g>
     <g id="text_7">
      <text style="fill: #808080; font: 9px 'PingFang SC', 'Heiti SC', 'STHeiti', 'Calibri', 'Arial', 'Helvetica Neue', 'Arial Unicode MS', 'Noto Sans CJK SC', 'DejaVu Sans', sans-serif" transform="translate(305.177564 327.688761) rotate(-45)">w6.2</text>
     </g>
    </g>
    <g id="xtick_8">
     <g id="line2d_8">
      <g>
       <use xlink:href="#ma5143d9f86" x="353.430479" y="301.520311" style="fill: #808080; stroke: #808080; stroke-width: 0.8"/>
      </g>
     </g>
     <g id="text_8">
      <text style="fill: #808080; font: 9px 'PingFang SC', 'Heiti SC', 'STHeiti', 'Calibri', 'Arial', 'Helvetica Neue', 'Arial Unicode MS', 'Noto Sans CJK SC', 'DejaVu Sans', sans-serif" transform="translate(338.474176 327.688761) rotate(-45)">w0.5</text>
     </g>
    </g>
    <g id="xtick_9">
     <g id="line2d_9">
      <g>
       <use xlink:href="#ma5143d9f86" x="386.727091" y="301.520311" style="fill: #808080; stroke: #808080; stroke-width: 0.8"/>
      </g>
     </g>
     <g id="text_9">
      <text style="fill: #808080; font: 9px 'PingFang SC', 'Heiti SC', 'STHeiti', 'Calibri', 'Arial', 'Helvetica Neue', 'Arial Unicode MS', 'Noto Sans CJK SC', 'DejaVu Sans', sans-serif" transform="translate(371.770788 327.688761) rotate(-45)">w8.4</text>
     </g>
    </g>
    <g id="xtick_10">
     <g id="line2d_10">
      <g>
       <use xlink:href="#ma5143d9f86" x="420.023703" y="301.520311" style="fill: #808080; stroke: #808080; stroke-width: 0.8"/>
      </g>
     </g>
     <g id="text_10">
      <text style="fill: #808080; font: 9px 'PingFang SC', 'Heiti SC', 'STHeiti', 'Calibri', 'Arial', 'Helvetica Neue', 'Arial Unicode MS', 'Noto Sans CJK SC', 'DejaVu Sans', sans-serif" transform="translate(401.541368 331.214793) rotate(-45)">w10.7</text>
     </g>
    </g>
    <g id="xtick_11">
     <g id="line2d_11">
      <g>
       <use xlink:href="#ma5143d9f86" x="453.320315" y="301.520311" style="fill: #808080; stroke: #808080; stroke-width: 0.8"/>
      </g>
     </g>
     <g id="text_11">
      <text style="fill: #808080; font: 9px 'PingFang SC', 'Heiti SC', 'STHeiti', 'Calibri', 'Arial', 'Helvetica Neue', 'Arial Unicode MS', 'Noto Sans CJK SC', 'DejaVu Sans', sans-serif" transform="translate(438.364013 327.688761) rotate(-45)">w9.3</text>
     </g>
    </g>
    <g id="xtick_12">
     <g id="line2d_12">
      <g>
       <use xlink:href="#ma5143d9f86" x="486.616928" y="301.520311" style="fill: #808080; stroke: #808080; stroke-width: 0.8"/>
      </g>
     </g>
     <g id="text_12">
      <text style="fill: #808080; font: 9px 'PingFang SC', 'Heiti SC', 'STHeiti', 'Calibri', 'Arial', 'Helvetica Neue', 'Arial Unicode MS', 'Noto Sans CJK SC', 'DejaVu Sans', sans-serif" transform="translate(468.134593 331.214793) rotate(-45)">w13.2</text>
     </g>
    </g>
    <g id="xtick_13">
     <g id="line2d_13">
      <g>
       <use xlink:href="#ma5143d9f86" x="519.91354" y="301.520311" style="fill: #808080; stroke: #808080; stroke-width: 0.8"/>
      </g>
     </g>
     <g id="text_13">
      <text style="fill: #808080; font: 9px 'PingFang SC', 'Heiti SC', 'STHeiti', 'Calibri', 'Arial', 'Helvetica Neue', 'Arial Unicode MS', 'Noto Sans CJK SC', 'DejaVu Sans', sans-serif" transform="translate(504.957237 327.688761) rotate(-45)">w2.6</text>
     </g>
    </g>
    <g id="xtick_14">
     <g id="line2d_14">
      <g>
       <use xlink:href="#ma5143d9f86" x="553.210152" y="301.520311" style="fill: #808080; stroke: #808080; stroke-width: 0.8"/>
      </g>
     </g>
     <g id="text_14">
      <text style="fill: #808080; font: 9px 'PingFang SC', 'Heiti SC', 'STHeiti', 'Calibri', 'Arial', 'Helvetica Neue', 'Arial Unicode MS', 'Noto Sans CJK SC', 'DejaVu Sans', sans-serif" transform="translate(534.727817 331.214793) rotate(-45)">w12.1</text>
     </g>
    </g>
    <g id="xtick_15">
     <g id="line2d_15">
      <g>
       <use xlink:href="#ma5143d9f86" x="586.506764" y="301.520311" style="fill: #808080; stroke: #808080; stroke-width: 0.8"/>
      </g>
     </g>
     <g id="text_15">
      <text style="fill: #808080; font: 9px 'PingFang SC', 'Heiti SC', 'STHeiti', 'Calibri', 'Arial', 'Helvetica Neue', 'Arial Unicode MS', 'Noto Sans CJK SC', 'DejaVu Sans', sans-serif" transform="translate(568.024429 331.214793) rotate(-45)">w10.5</text>
     </g>
    </g>
    <g id="xtick_16">
     <g id="line2d_16">
      <g>
       <use xlink:href="#ma5143d9f86" x="619.803376" y="301.520311" style="fill: #808080; stroke: #808080; stroke-width: 0.8"/>
      </g>
     </g>
     <g id="text_16">
      <text style="fill: #808080; font: 9px 'PingFang SC', 'Heiti SC', 'STHeiti', 'Calibri', 'Arial', 'Helvetica Neue', 'Arial Unicode MS', 'Noto Sans CJK SC', 'DejaVu Sans', sans-serif" transform="translate(604.847074 327.688761) rotate(-45)">w0.2</text>
     </g>
    </g>
    <g id="xtick_17">
     <g id="line2d_17">
      <g>
       <use xlink:href="#ma5143d9f86" x="653.099989" y="301.520311" style="fill: #808080; stroke: #808080; stroke-width: 0.8"/>
      </g>
     </g>
     <g id="text_17">
      <text style="fill: #808080; font: 9px 'PingFang SC', 'Heiti SC', 'STHeiti', 'Calibri', 'Arial', 'Helvetica Neue', 'Arial Unicode MS', 'Noto Sans CJK SC', 'DejaVu Sans', sans-serif" transform="translate(634.617654 331.214793) rotate(-45)">w10.3</text>
     </g>
    </g>
   </g>
   <g id="matplotlib.axis_2">
    <g id="ytick_1">
     <g id="line2d_18">
      <path d="M 91.0175 301.520311 
L 691.95 301.520311 
" clip-path="url(#p01d9457f38)" style="fill: none; stroke-dasharray: 1,1.65; stroke-dashoffset: 0; stroke: #808080; stroke-opacity: 0.55"/>
     </g>
     <g id="line2d_19">
      <defs>
       <path id="m8889e189cc" d="M 0 0 
L -3.5 0 
" style="stroke: #808080; stroke-width: 0.8"/>
      </defs>
      <g>
       <use xlink:href="#m8889e189cc" x="91.0175" y="301.520311" style="fill: #808080; stroke: #808080; stroke-width: 0.8"/>
      </g>
     </g>
     <g id="text_18">
      <text style="fill: #808080; font: 22px 'PingFang SC', 'Heiti SC', 'STHeiti', 'Calibri', 'Arial', 'Helvetica Neue', 'Arial Unicode MS', 'Noto Sans CJK SC', 'DejaVu Sans', sans-serif; text-anchor: end" x="84.0175" y="310.275624" transform="rotate(-0 84.0175 310.275624)">0</text>
     </g>
    </g>
    <g id="ytick_2">
     <g id="line2d_20">
      <path d="M 91.0175 215.983352 
L 691.95 215.983352 
" clip-path="url(#p01d9457f38)" style="fill: none; stroke-dasharray: 1,1.65; stroke-dashoffset: 0; stroke: #808080; stroke-opacity: 0.55"/>
     </g>
     <g id="line2d_21">
      <g>
       <use xlink:href="#m8889e189cc" x="91.0175" y="215.983352" style="fill: #808080; stroke: #808080; stroke-width: 0.8"/>
      </g>
     </g>
     <g id="text_19">
      <text style="fill: #808080; font: 22px 'PingFang SC', 'Heiti SC', 'STHeiti', 'Calibri', 'Arial', 'Helvetica Neue', 'Arial Unicode MS', 'Noto Sans CJK SC', 'DejaVu Sans', sans-serif; text-anchor: end" x="84.0175" y="224.738664" transform="rotate(-0 84.0175 224.738664)">500</text>
     </g>
    </g>
    <g id="ytick_3">
     <g id="line2d_22">
      <path d="M 91.0175 130.446393 
L 691.95 130.446393 
" clip-path="url(#p01d9457f38)" style="fill: none; stroke-dasharray: 1,1.65; stroke-dashoffset: 0; stroke: #808080; stroke-opacity: 0.55"/>
     </g>
     <g id="line2d_23">
      <g>
       <use xlink:href="#m8889e189cc" x="91.0175" y="130.446393" style="fill: #808080; stroke: #808080; stroke-width: 0.8"/>
      </g>
     </g>
     <g id="text_20">
      <text style="fill: #808080; font: 22px 'PingFang SC', 'Heiti SC', 'STHeiti', 'Calibri', 'Arial', 'Helvetica Neue', 'Arial Unicode MS', 'Noto Sans CJK SC', 'DejaVu Sans', sans-serif; text-anchor: end" x="84.0175" y="139.201705" transform="rotate(-0 84.0175 139.201705)">1000</text>
     </g>
    </g>
    <g id="ytick_4">
     <g id="line2d_24">
      <path d="M 91.0175 44.909433 
L 691.95 44.909433 
" clip-path="url(#p01d9457f38)" style="fill: none; stroke-dasharray: 1,1.65; stroke-dashoffset: 0; stroke: #808080; stroke-opacity: 0.55"/>
     </g>
     <g id="line2d_25">
      <g>
       <use xlink:href="#m8889e189cc" x="91.0175" y="44.909433" style="fill: #808080; stroke: #808080; stroke-width: 0.8"/>
      </g>
     </g>
     <g id="text_21">
      <text style="fill: #808080; font: 22px 'PingFang SC', 'Heiti SC', 'STHeiti', 'Calibri', 'Arial', 'Helvetica Neue', 'Arial Unicode MS', 'Noto Sans CJK SC', 'DejaVu Sans', sans-serif; text-anchor: end" x="84.0175" y="53.664746" transform="rotate(-0 84.0175 53.664746)">1500</text>
     </g>
    </g>
    <g id="text_22">
     <text style="font: 22px 'PingFang SC', 'Heiti SC', 'STHeiti', 'Calibri', 'Arial', 'Helvetica Neue', 'Arial Unicode MS', 'Noto Sans CJK SC', 'DejaVu Sans', sans-serif; text-anchor: middle" x="28.310625" y="167.960156" transform="rotate(-90 28.310625 167.960156)">HBM GB/s</text>
    </g>
   </g>
   <g id="patch_3">
    <path d="M 118.332614 301.520311 
L 122.375774 301.520311 
L 122.375774 152.514811 
L 118.332614 152.514811 
z
" clip-path="url(#p01d9457f38)" style="fill: url(#hf44a5f1dd8); stroke: #2ca02c; stroke-width: 2; stroke-linejoin: miter"/>
   </g>
   <g id="patch_4">
    <path d="M 123.089273 301.520311 
L 127.132433 301.520311 
L 127.132433 135.270067 
L 123.089273 135.270067 
z
" clip-path="url(#p01d9457f38)" style="fill: url(#hf44a5f1dd8); stroke: #2ca02c; stroke-width: 2; stroke-linejoin: miter"/>
   </g>
   <g id="patch_5">
    <path d="M 127.845931 301.520311 
L 131.889091 301.520311 
L 131.889091 134.748422 
L 127.845931 134.748422 
z
" clip-path="url(#p01d9457f38)" style="fill: url(#hf44a5f1dd8); stroke: #2ca02c; stroke-width: 2; stroke-linejoin: miter"/>
   </g>
   <g id="patch_6">
    <path d="M 132.60259 301.520311 
L 136.64575 301.520311 
L 136.64575 124.765536 
L 132.60259 124.765536 
z
" clip-path="url(#p01d9457f38)" style="fill: url(#hf44a5f1dd8); stroke: #2ca02c; stroke-width: 2; stroke-linejoin: miter"/>
   </g>
   <g id="patch_7">
    <path d="M 137.359249 301.520311 
L 141.402409 301.520311 
L 141.402409 124.329047 
L 137.359249 124.329047 
z
" clip-path="url(#p01d9457f38)" style="fill: url(#hf44a5f1dd8); stroke: #2ca02c; stroke-width: 2; stroke-linejoin: miter"/>
   </g>
   <g id="patch_8">
    <path d="M 142.115908 301.520311 
L 146.159068 301.520311 
L 146.159068 124.110004 
L 142.115908 124.110004 
z
" clip-path="url(#p01d9457f38)" style="fill: url(#hf44a5f1dd8); stroke: #2ca02c; stroke-width: 2; stroke-linejoin: miter"/>
   </g>
   <g id="patch_9">
    <path d="M 146.872567 301.520311 
L 150.915727 301.520311 
L 150.915727 124.110004 
L 146.872567 124.110004 
z
" clip-path="url(#p01d9457f38)" style="fill: url(#hf44a5f1dd8); stroke: #2ca02c; stroke-width: 2; stroke-linejoin: miter"/>
   </g>
   <g id="patch_10">
    <path d="M 151.629226 301.520311 
L 155.672386 301.520311 
L 155.672386 123.890397 
L 151.629226 123.890397 
z
" clip-path="url(#p01d9457f38)" style="fill: url(#hf44a5f1dd8); stroke: #2ca02c; stroke-width: 2; stroke-linejoin: miter"/>
   </g>
   <g id="patch_11">
    <path d="M 156.385885 301.520311 
L 160.429045 301.520311 
L 160.429045 123.846423 
L 156.385885 123.846423 
z
" clip-path="url(#p01d9457f38)" style="fill: url(#hf44a5f1dd8); stroke: #2ca02c; stroke-width: 2; stroke-linejoin: miter"/>
   </g>
   <g id="patch_12">
    <path d="M 161.142544 301.520311 
L 165.185704 301.520311 
L 165.185704 123.824418 
L 161.142544 123.824418 
z
" clip-path="url(#p01d9457f38)" style="fill: url(#hf44a5f1dd8); stroke: #2ca02c; stroke-width: 2; stroke-linejoin: miter"/>
   </g>
   <g id="patch_13">
    <path d="M 165.899202 301.520311 
L 169.942363 301.520311 
L 169.942363 123.648218 
L 165.899202 123.648218 
z
" clip-path="url(#p01d9457f38)" style="fill: url(#hf44a5f1dd8); stroke: #2ca02c; stroke-width: 2; stroke-linejoin: miter"/>
   </g>
   <g id="patch_14">
    <path d="M 170.655861 301.520311 
L 174.699021 301.520311 
L 174.699021 123.493762 
L 170.655861 123.493762 
z
" clip-path="url(#p01d9457f38)" style="fill: url(#hf44a5f1dd8); stroke: #2ca02c; stroke-width: 2; stroke-linejoin: miter"/>
   </g>
   <g id="patch_15">
    <path d="M 175.41252 301.520311 
L 179.45568 301.520311 
L 179.45568 122.739698 
L 175.41252 122.739698 
z
" clip-path="url(#p01d9457f38)" style="fill: url(#hf44a5f1dd8); stroke: #2ca02c; stroke-width: 2; stroke-linejoin: miter"/>
   </g>
   <g id="patch_16">
    <path d="M 180.169179 301.520311 
L 184.212339 301.520311 
L 184.212339 106.960648 
L 180.169179 106.960648 
z
" clip-path="url(#p01d9457f38)" style="fill: url(#hf44a5f1dd8); stroke: #2ca02c; stroke-width: 2; stroke-linejoin: miter"/>
   </g>
   <g id="patch_17">
    <path d="M 184.925838 301.520311 
L 188.968998 301.520311 
L 188.968998 78.475235 
L 184.925838 78.475235 
z
" clip-path="url(#p01d9457f38)" style="fill: url(#hf44a5f1dd8); stroke: #2ca02c; stroke-width: 2; stroke-linejoin: miter"/>
   </g>
   <g id="patch_18">
    <path d="M 189.682497 301.520311 
L 193.725657 301.520311 
L 193.725657 71.356399 
L 189.682497 71.356399 
z
" clip-path="url(#p01d9457f38)" style="fill: url(#hf44a5f1dd8); stroke: #2ca02c; stroke-width: 2; stroke-linejoin: miter"/>
   </g>
   <g id="patch_19">
    <path d="M 194.439156 301.520311 
L 198.482316 301.520311 
L 198.482316 71.171667 
L 194.439156 71.171667 
z
" clip-path="url(#p01d9457f38)" style="fill: url(#hf44a5f1dd8); stroke: #2ca02c; stroke-width: 2; stroke-linejoin: miter"/>
   </g>
   <g id="patch_20">
    <path d="M 199.195815 301.520311 
L 203.238975 301.520311 
L 203.238975 71.023674 
L 199.195815 71.023674 
z
" clip-path="url(#p01d9457f38)" style="fill: url(#hf44a5f1dd8); stroke: #2ca02c; stroke-width: 2; stroke-linejoin: miter"/>
   </g>
   <g id="patch_21">
    <path d="M 203.952474 301.520311 
L 207.995634 301.520311 
L 207.995634 71.023674 
L 203.952474 71.023674 
z
" clip-path="url(#p01d9457f38)" style="fill: url(#hf44a5f1dd8); stroke: #2ca02c; stroke-width: 2; stroke-linejoin: miter"/>
   </g>
   <g id="patch_22">
    <path d="M 208.709132 301.520311 
L 212.752292 301.520311 
L 212.752292 70.318113 
L 208.709132 70.318113 
z
" clip-path="url(#p01d9457f38)" style="fill: url(#hf44a5f1dd8); stroke: #2ca02c; stroke-width: 2; stroke-linejoin: miter"/>
   </g>
   <g id="patch_23">
    <path d="M 213.465791 301.520311 
L 217.508951 301.520311 
L 217.508951 70.318113 
L 213.465791 70.318113 
z
" clip-path="url(#p01d9457f38)" style="fill: url(#hf44a5f1dd8); stroke: #2ca02c; stroke-width: 2; stroke-linejoin: miter"/>
   </g>
   <g id="patch_24">
    <path d="M 218.22245 301.520311 
L 222.26561 301.520311 
L 222.26561 70.318113 
L 218.22245 70.318113 
z
" clip-path="url(#p01d9457f38)" style="fill: url(#hf44a5f1dd8); stroke: #2ca02c; stroke-width: 2; stroke-linejoin: miter"/>
   </g>
   <g id="patch_25">
    <path d="M 222.979109 301.520311 
L 227.022269 301.520311 
L 227.022269 70.206321 
L 222.979109 70.206321 
z
" clip-path="url(#p01d9457f38)" style="fill: url(#hf44a5f1dd8); stroke: #2ca02c; stroke-width: 2; stroke-linejoin: miter"/>
   </g>
   <g id="patch_26">
    <path d="M 227.735768 301.520311 
L 231.778928 301.520311 
L 231.778928 70.131727 
L 227.735768 70.131727 
z
" clip-path="url(#p01d9457f38)" style="fill: url(#hf44a5f1dd8); stroke: #2ca02c; stroke-width: 2; stroke-linejoin: miter"/>
   </g>
   <g id="patch_27">
    <path d="M 232.492427 301.520311 
L 236.535587 301.520311 
L 236.535587 70.019738 
L 232.492427 70.019738 
z
" clip-path="url(#p01d9457f38)" style="fill: url(#hf44a5f1dd8); stroke: #2ca02c; stroke-width: 2; stroke-linejoin: miter"/>
   </g>
   <g id="patch_28">
    <path d="M 237.249086 301.520311 
L 241.292246 301.520311 
L 241.292246 69.83287 
L 237.249086 69.83287 
z
" clip-path="url(#p01d9457f38)" style="fill: url(#hf44a5f1dd8); stroke: #2ca02c; stroke-width: 2; stroke-linejoin: miter"/>
   </g>
   <g id="patch_29">
    <path d="M 242.005745 301.520311 
L 246.048905 301.520311 
L 246.048905 69.683152 
L 242.005745 69.683152 
z
" clip-path="url(#p01d9457f38)" style="fill: url(#hf44a5f1dd8); stroke: #2ca02c; stroke-width: 2; stroke-linejoin: miter"/>
   </g>
   <g id="patch_30">
    <path d="M 246.762403 301.520311 
L 250.805564 301.520311 
L 250.805564 69.645683 
L 246.762403 69.645683 
z
" clip-path="url(#p01d9457f38)" style="fill: url(#hf44a5f1dd8); stroke: #2ca02c; stroke-width: 2; stroke-linejoin: miter"/>
   </g>
   <g id="patch_31">
    <path d="M 251.519062 301.520311 
L 255.562222 301.520311 
L 255.562222 69.495723 
L 251.519062 69.495723 
z
" clip-path="url(#p01d9457f38)" style="fill: url(#hf44a5f1dd8); stroke: #2ca02c; stroke-width: 2; stroke-linejoin: miter"/>
   </g>
   <g id="patch_32">
    <path d="M 256.275721 301.520311 
L 260.318881 301.520311 
L 260.318881 69.383134 
L 256.275721 69.383134 
z
" clip-path="url(#p01d9457f38)" style="fill: url(#hf44a5f1dd8); stroke: #2ca02c; stroke-width: 2; stroke-linejoin: miter"/>
   </g>
   <g id="patch_33">
    <path d="M 261.03238 301.520311 
L 265.07554 301.520311 
L 265.07554 69.308008 
L 261.03238 69.308008 
z
" clip-path="url(#p01d9457f38)" style="fill: url(#hf44a5f1dd8); stroke: #2ca02c; stroke-width: 2; stroke-linejoin: miter"/>
   </g>
   <g id="patch_34">
    <path d="M 265.789039 301.520311 
L 269.832199 301.520311 
L 269.832199 62.858734 
L 265.789039 62.858734 
z
" clip-path="url(#p01d9457f38)" style="fill: url(#hf44a5f1dd8); stroke: #2ca02c; stroke-width: 2; stroke-linejoin: miter"/>
   </g>
   <g id="patch_35">
    <path d="M 270.545698 301.520311 
L 274.588858 301.520311 
L 274.588858 62.580581 
L 270.545698 62.580581 
z
" clip-path="url(#p01d9457f38)" style="fill: url(#hf44a5f1dd8); stroke: #2ca02c; stroke-width: 2; stroke-linejoin: miter"/>
   </g>
   <g id="patch_36">
    <path d="M 275.302357 301.520311 
L 279.345517 301.520311 
L 279.345517 54.689896 
L 275.302357 54.689896 
z
" clip-path="url(#p01d9457f38)" style="fill: url(#hf44a5f1dd8); stroke: #2ca02c; stroke-width: 2; stroke-linejoin: miter"/>
   </g>
   <g id="patch_37">
    <path d="M 280.059016 301.520311 
L 284.102176 301.520311 
L 284.102176 51.985953 
L 280.059016 51.985953 
z
" clip-path="url(#p01d9457f38)" style="fill: url(#hf44a5f1dd8); stroke: #2ca02c; stroke-width: 2; stroke-linejoin: miter"/>
   </g>
   <g id="patch_38">
    <path d="M 284.815675 301.520311 
L 288.858835 301.520311 
L 288.858835 51.942565 
L 284.815675 51.942565 
z
" clip-path="url(#p01d9457f38)" style="fill: url(#hf44a5f1dd8); stroke: #2ca02c; stroke-width: 2; stroke-linejoin: miter"/>
   </g>
   <g id="patch_39">
    <path d="M 289.572333 301.520311 
L 293.615493 301.520311 
L 293.615493 51.899143 
L 289.572333 51.899143 
z
" clip-path="url(#p01d9457f38)" style="fill: url(#hf44a5f1dd8); stroke: #2ca02c; stroke-width: 2; stroke-linejoin: miter"/>
   </g>
   <g id="patch_40">
    <path d="M 294.328992 301.520311 
L 298.372152 301.520311 
L 298.372152 51.638369 
L 294.328992 51.638369 
z
" clip-path="url(#p01d9457f38)" style="fill: url(#hf44a5f1dd8); stroke: #2ca02c; stroke-width: 2; stroke-linejoin: miter"/>
   </g>
   <g id="patch_41">
    <path d="M 299.085651 301.520311 
L 303.128811 301.520311 
L 303.128811 51.420614 
L 299.085651 51.420614 
z
" clip-path="url(#p01d9457f38)" style="fill: url(#hf44a5f1dd8); stroke: #2ca02c; stroke-width: 2; stroke-linejoin: miter"/>
   </g>
   <g id="patch_42">
    <path d="M 303.84231 301.520311 
L 307.88547 301.520311 
L 307.88547 51.027726 
L 303.84231 51.027726 
z
" clip-path="url(#p01d9457f38)" style="fill: url(#hf44a5f1dd8); stroke: #2ca02c; stroke-width: 2; stroke-linejoin: miter"/>
   </g>
   <g id="patch_43">
    <path d="M 308.598969 301.520311 
L 312.642129 301.520311 
L 312.642129 50.940248 
L 308.598969 50.940248 
z
" clip-path="url(#p01d9457f38)" style="fill: url(#hf44a5f1dd8); stroke: #2ca02c; stroke-width: 2; stroke-linejoin: miter"/>
   </g>
   <g id="patch_44">
    <path d="M 313.355628 301.520311 
L 317.398788 301.520311 
L 317.398788 50.896475 
L 313.355628 50.896475 
z
" clip-path="url(#p01d9457f38)" style="fill: url(#hf44a5f1dd8); stroke: #2ca02c; stroke-width: 2; stroke-linejoin: miter"/>
   </g>
   <g id="patch_45">
    <path d="M 318.112287 301.520311 
L 322.155447 301.520311 
L 322.155447 50.808905 
L 318.112287 50.808905 
z
" clip-path="url(#p01d9457f38)" style="fill: url(#hf44a5f1dd8); stroke: #2ca02c; stroke-width: 2; stroke-linejoin: miter"/>
   </g>
   <g id="patch_46">
    <path d="M 322.868946 301.520311 
L 326.912106 301.520311 
L 326.912106 50.765107 
L 322.868946 50.765107 
z
" clip-path="url(#p01d9457f38)" style="fill: url(#hf44a5f1dd8); stroke: #2ca02c; stroke-width: 2; stroke-linejoin: miter"/>
   </g>
   <g id="patch_47">
    <path d="M 327.625604 301.520311 
L 331.668765 301.520311 
L 331.668765 50.633581 
L 327.625604 50.633581 
z
" clip-path="url(#p01d9457f38)" style="fill: url(#hf44a5f1dd8); stroke: #2ca02c; stroke-width: 2; stroke-linejoin: miter"/>
   </g>
   <g id="patch_48">
    <path d="M 332.382263 301.520311 
L 336.425423 301.520311 
L 336.425423 50.589722 
L 332.382263 50.589722 
z
" clip-path="url(#p01d9457f38)" style="fill: url(#hf44a5f1dd8); stroke: #2ca02c; stroke-width: 2; stroke-linejoin: miter"/>
   </g>
   <g id="patch_49">
    <path d="M 337.138922 301.520311 
L 341.182082 301.520311 
L 341.182082 50.545827 
L 337.138922 50.545827 
z
" clip-path="url(#p01d9457f38)" style="fill: url(#hf44a5f1dd8); stroke: #2ca02c; stroke-width: 2; stroke-linejoin: miter"/>
   </g>
   <g id="patch_50">
    <path d="M 341.895581 301.520311 
L 345.938741 301.520311 
L 345.938741 50.545827 
L 341.895581 50.545827 
z
" clip-path="url(#p01d9457f38)" style="fill: url(#hf44a5f1dd8); stroke: #2ca02c; stroke-width: 2; stroke-linejoin: miter"/>
   </g>
   <g id="patch_51">
    <path d="M 346.65224 301.520311 
L 350.6954 301.520311 
L 350.6954 50.501937 
L 346.65224 50.501937 
z
" clip-path="url(#p01d9457f38)" style="fill: url(#hf44a5f1dd8); stroke: #2ca02c; stroke-width: 2; stroke-linejoin: miter"/>
   </g>
   <g id="patch_52">
    <path d="M 351.408899 301.520311 
L 355.452059 301.520311 
L 355.452059 50.458032 
L 351.408899 50.458032 
z
" clip-path="url(#p01d9457f38)" style="fill: url(#hf44a5f1dd8); stroke: #2ca02c; stroke-width: 2; stroke-linejoin: miter"/>
   </g>
   <g id="patch_53">
    <path d="M 356.165558 301.520311 
L 360.208718 301.520311 
L 360.208718 50.414091 
L 356.165558 50.414091 
z
" clip-path="url(#p01d9457f38)" style="fill: url(#hf44a5f1dd8); stroke: #2ca02c; stroke-width: 2; stroke-linejoin: miter"/>
   </g>
   <g id="patch_54">
    <path d="M 360.922217 301.520311 
L 364.965377 301.520311 
L 364.965377 50.370155 
L 360.922217 50.370155 
z
" clip-path="url(#p01d9457f38)" style="fill: url(#hf44a5f1dd8); stroke: #2ca02c; stroke-width: 2; stroke-linejoin: miter"/>
   </g>
   <g id="patch_55">
    <path d="M 365.678876 301.520311 
L 369.722036 301.520311 
L 369.722036 50.282217 
L 365.678876 50.282217 
z
" clip-path="url(#p01d9457f38)" style="fill: url(#hf44a5f1dd8); stroke: #2ca02c; stroke-width: 2; stroke-linejoin: miter"/>
   </g>
   <g id="patch_56">
    <path d="M 370.435534 301.520311 
L 374.478694 301.520311 
L 374.478694 50.282217 
L 370.435534 50.282217 
z
" clip-path="url(#p01d9457f38)" style="fill: url(#hf44a5f1dd8); stroke: #2ca02c; stroke-width: 2; stroke-linejoin: miter"/>
   </g>
   <g id="patch_57">
    <path d="M 375.192193 301.520311 
L 379.235353 301.520311 
L 379.235353 50.238214 
L 375.192193 50.238214 
z
" clip-path="url(#p01d9457f38)" style="fill: url(#hf44a5f1dd8); stroke: #2ca02c; stroke-width: 2; stroke-linejoin: miter"/>
   </g>
   <g id="patch_58">
    <path d="M 379.948852 301.520311 
L 383.992012 301.520311 
L 383.992012 50.238214 
L 379.948852 50.238214 
z
" clip-path="url(#p01d9457f38)" style="fill: url(#hf44a5f1dd8); stroke: #2ca02c; stroke-width: 2; stroke-linejoin: miter"/>
   </g>
   <g id="patch_59">
    <path d="M 384.705511 301.520311 
L 388.748671 301.520311 
L 388.748671 50.194217 
L 384.705511 50.194217 
z
" clip-path="url(#p01d9457f38)" style="fill: url(#hf44a5f1dd8); stroke: #2ca02c; stroke-width: 2; stroke-linejoin: miter"/>
   </g>
   <g id="patch_60">
    <path d="M 389.46217 301.520311 
L 393.50533 301.520311 
L 393.50533 50.150184 
L 389.46217 50.150184 
z
" clip-path="url(#p01d9457f38)" style="fill: url(#hbec27569c9); stroke: #ff7f0e; stroke-width: 2; stroke-linejoin: miter"/>
   </g>
   <g id="patch_61">
    <path d="M 394.218829 301.520311 
L 398.261989 301.520311 
L 398.261989 50.150184 
L 394.218829 50.150184 
z
" clip-path="url(#p01d9457f38)" style="fill: url(#hbec27569c9); stroke: #ff7f0e; stroke-width: 2; stroke-linejoin: miter"/>
   </g>
   <g id="patch_62">
    <path d="M 398.975488 301.520311 
L 403.018648 301.520311 
L 403.018648 50.150184 
L 398.975488 50.150184 
z
" clip-path="url(#p01d9457f38)" style="fill: url(#hbec27569c9); stroke: #ff7f0e; stroke-width: 2; stroke-linejoin: miter"/>
   </g>
   <g id="patch_63">
    <path d="M 403.732147 301.520311 
L 407.775307 301.520311 
L 407.775307 50.106155 
L 403.732147 50.106155 
z
" clip-path="url(#p01d9457f38)" style="fill: url(#hbec27569c9); stroke: #ff7f0e; stroke-width: 2; stroke-linejoin: miter"/>
   </g>
   <g id="patch_64">
    <path d="M 408.488806 301.520311 
L 412.531966 301.520311 
L 412.531966 50.106155 
L 408.488806 50.106155 
z
" clip-path="url(#p01d9457f38)" style="fill: url(#hbec27569c9); stroke: #ff7f0e; stroke-width: 2; stroke-linejoin: miter"/>
   </g>
   <g id="patch_65">
    <path d="M 413.245464 301.520311 
L 417.288624 301.520311 
L 417.288624 50.106155 
L 413.245464 50.106155 
z
" clip-path="url(#p01d9457f38)" style="fill: url(#hbec27569c9); stroke: #ff7f0e; stroke-width: 2; stroke-linejoin: miter"/>
   </g>
   <g id="patch_66">
    <path d="M 418.002123 301.520311 
L 422.045283 301.520311 
L 422.045283 50.062091 
L 418.002123 50.062091 
z
" clip-path="url(#p01d9457f38)" style="fill: url(#hbec27569c9); stroke: #ff7f0e; stroke-width: 2; stroke-linejoin: miter"/>
   </g>
   <g id="patch_67">
    <path d="M 422.758782 301.520311 
L 426.801942 301.520311 
L 426.801942 49.973937 
L 422.758782 49.973937 
z
" clip-path="url(#p01d9457f38)" style="fill: url(#hbec27569c9); stroke: #ff7f0e; stroke-width: 2; stroke-linejoin: miter"/>
   </g>
   <g id="patch_68">
    <path d="M 427.515441 301.520311 
L 431.558601 301.520311 
L 431.558601 49.929847 
L 427.515441 49.929847 
z
" clip-path="url(#p01d9457f38)" style="fill: url(#hbec27569c9); stroke: #ff7f0e; stroke-width: 2; stroke-linejoin: miter"/>
   </g>
   <g id="patch_69">
    <path d="M 432.2721 301.520311 
L 436.31526 301.520311 
L 436.31526 49.885721 
L 432.2721 49.885721 
z
" clip-path="url(#p01d9457f38)" style="fill: url(#hbec27569c9); stroke: #ff7f0e; stroke-width: 2; stroke-linejoin: miter"/>
   </g>
   <g id="patch_70">
    <path d="M 437.028759 301.520311 
L 441.071919 301.520311 
L 441.071919 49.8416 
L 437.028759 49.8416 
z
" clip-path="url(#p01d9457f38)" style="fill: url(#hbec27569c9); stroke: #ff7f0e; stroke-width: 2; stroke-linejoin: miter"/>
   </g>
   <g id="patch_71">
    <path d="M 441.785418 301.520311 
L 445.828578 301.520311 
L 445.828578 49.8416 
L 441.785418 49.8416 
z
" clip-path="url(#p01d9457f38)" style="fill: url(#hbec27569c9); stroke: #ff7f0e; stroke-width: 2; stroke-linejoin: miter"/>
   </g>
   <g id="patch_72">
    <path d="M 446.542077 301.520311 
L 450.585237 301.520311 
L 450.585237 49.797443 
L 446.542077 49.797443 
z
" clip-path="url(#p01d9457f38)" style="fill: url(#hbec27569c9); stroke: #ff7f0e; stroke-width: 2; stroke-linejoin: miter"/>
   </g>
   <g id="patch_73">
    <path d="M 451.298735 301.520311 
L 455.341896 301.520311 
L 455.341896 49.797443 
L 451.298735 49.797443 
z
" clip-path="url(#p01d9457f38)" style="fill: url(#hbec27569c9); stroke: #ff7f0e; stroke-width: 2; stroke-linejoin: miter"/>
   </g>
   <g id="patch_74">
    <path d="M 456.055394 301.520311 
L 460.098554 301.520311 
L 460.098554 49.753291 
L 456.055394 49.753291 
z
" clip-path="url(#p01d9457f38)" style="fill: url(#hbec27569c9); stroke: #ff7f0e; stroke-width: 2; stroke-linejoin: miter"/>
   </g>
   <g id="patch_75">
    <path d="M 460.812053 301.520311 
L 464.855213 301.520311 
L 464.855213 49.753291 
L 460.812053 49.753291 
z
" clip-path="url(#p01d9457f38)" style="fill: url(#hbec27569c9); stroke: #ff7f0e; stroke-width: 2; stroke-linejoin: miter"/>
   </g>
   <g id="patch_76">
    <path d="M 465.568712 301.520311 
L 469.611872 301.520311 
L 469.611872 49.753291 
L 465.568712 49.753291 
z
" clip-path="url(#p01d9457f38)" style="fill: url(#hbec27569c9); stroke: #ff7f0e; stroke-width: 2; stroke-linejoin: miter"/>
   </g>
   <g id="patch_77">
    <path d="M 470.325371 301.520311 
L 474.368531 301.520311 
L 474.368531 49.709103 
L 470.325371 49.709103 
z
" clip-path="url(#p01d9457f38)" style="fill: url(#hbec27569c9); stroke: #ff7f0e; stroke-width: 2; stroke-linejoin: miter"/>
   </g>
   <g id="patch_78">
    <path d="M 475.08203 301.520311 
L 479.12519 301.520311 
L 479.12519 49.66492 
L 475.08203 49.66492 
z
" clip-path="url(#p01d9457f38)" style="fill: url(#hbec27569c9); stroke: #ff7f0e; stroke-width: 2; stroke-linejoin: miter"/>
   </g>
   <g id="patch_79">
    <path d="M 479.838689 301.520311 
L 483.881849 301.520311 
L 483.881849 49.66492 
L 479.838689 49.66492 
z
" clip-path="url(#p01d9457f38)" style="fill: url(#hbec27569c9); stroke: #ff7f0e; stroke-width: 2; stroke-linejoin: miter"/>
   </g>
   <g id="patch_80">
    <path d="M 484.595348 301.520311 
L 488.638508 301.520311 
L 488.638508 49.66492 
L 484.595348 49.66492 
z
" clip-path="url(#p01d9457f38)" style="fill: url(#hbec27569c9); stroke: #ff7f0e; stroke-width: 2; stroke-linejoin: miter"/>
   </g>
   <g id="patch_81">
    <path d="M 489.352007 301.520311 
L 493.395167 301.520311 
L 493.395167 49.66492 
L 489.352007 49.66492 
z
" clip-path="url(#p01d9457f38)" style="fill: url(#hbec27569c9); stroke: #ff7f0e; stroke-width: 2; stroke-linejoin: miter"/>
   </g>
   <g id="patch_82">
    <path d="M 494.108665 301.520311 
L 498.151825 301.520311 
L 498.151825 49.576487 
L 494.108665 49.576487 
z
" clip-path="url(#p01d9457f38)" style="fill: url(#hbec27569c9); stroke: #ff7f0e; stroke-width: 2; stroke-linejoin: miter"/>
   </g>
   <g id="patch_83">
    <path d="M 498.865324 301.520311 
L 502.908484 301.520311 
L 502.908484 49.532237 
L 498.865324 49.532237 
z
" clip-path="url(#p01d9457f38)" style="fill: url(#hbec27569c9); stroke: #ff7f0e; stroke-width: 2; stroke-linejoin: miter"/>
   </g>
   <g id="patch_84">
    <path d="M 503.621983 301.520311 
L 507.665143 301.520311 
L 507.665143 49.487991 
L 503.621983 49.487991 
z
" clip-path="url(#p01d9457f38)" style="fill: url(#hbec27569c9); stroke: #ff7f0e; stroke-width: 2; stroke-linejoin: miter"/>
   </g>
   <g id="patch_85">
    <path d="M 508.378642 301.520311 
L 512.421802 301.520311 
L 512.421802 49.487991 
L 508.378642 49.487991 
z
" clip-path="url(#p01d9457f38)" style="fill: url(#hbec27569c9); stroke: #ff7f0e; stroke-width: 2; stroke-linejoin: miter"/>
   </g>
   <g id="patch_86">
    <path d="M 513.135301 301.520311 
L 517.178461 301.520311 
L 517.178461 49.44371 
L 513.135301 49.44371 
z
" clip-path="url(#p01d9457f38)" style="fill: url(#hbec27569c9); stroke: #ff7f0e; stroke-width: 2; stroke-linejoin: miter"/>
   </g>
   <g id="patch_87">
    <path d="M 517.89196 301.520311 
L 521.93512 301.520311 
L 521.93512 49.44371 
L 517.89196 49.44371 
z
" clip-path="url(#p01d9457f38)" style="fill: url(#hbec27569c9); stroke: #ff7f0e; stroke-width: 2; stroke-linejoin: miter"/>
   </g>
   <g id="patch_88">
    <path d="M 522.648619 301.520311 
L 526.691779 301.520311 
L 526.691779 49.44371 
L 522.648619 49.44371 
z
" clip-path="url(#p01d9457f38)" style="fill: url(#hbec27569c9); stroke: #ff7f0e; stroke-width: 2; stroke-linejoin: miter"/>
   </g>
   <g id="patch_89">
    <path d="M 527.405278 301.520311 
L 531.448438 301.520311 
L 531.448438 49.399434 
L 527.405278 49.399434 
z
" clip-path="url(#p01d9457f38)" style="fill: url(#hbec27569c9); stroke: #ff7f0e; stroke-width: 2; stroke-linejoin: miter"/>
   </g>
   <g id="patch_90">
    <path d="M 532.161936 301.520311 
L 536.205097 301.520311 
L 536.205097 49.310814 
L 532.161936 49.310814 
z
" clip-path="url(#p01d9457f38)" style="fill: url(#hbec27569c9); stroke: #ff7f0e; stroke-width: 2; stroke-linejoin: miter"/>
   </g>
   <g id="patch_91">
    <path d="M 536.918595 301.520311 
L 540.961755 301.520311 
L 540.961755 49.310814 
L 536.918595 49.310814 
z
" clip-path="url(#p01d9457f38)" style="fill: url(#hbec27569c9); stroke: #ff7f0e; stroke-width: 2; stroke-linejoin: miter"/>
   </g>
   <g id="patch_92">
    <path d="M 541.675254 301.520311 
L 545.718414 301.520311 
L 545.718414 49.310814 
L 541.675254 49.310814 
z
" clip-path="url(#p01d9457f38)" style="fill: url(#hbec27569c9); stroke: #ff7f0e; stroke-width: 2; stroke-linejoin: miter"/>
   </g>
   <g id="patch_93">
    <path d="M 546.431913 301.520311 
L 550.475073 301.520311 
L 550.475073 49.266471 
L 546.431913 49.266471 
z
" clip-path="url(#p01d9457f38)" style="fill: url(#hbec27569c9); stroke: #ff7f0e; stroke-width: 2; stroke-linejoin: miter"/>
   </g>
   <g id="patch_94">
    <path d="M 551.188572 301.520311 
L 555.231732 301.520311 
L 555.231732 49.222133 
L 551.188572 49.222133 
z
" clip-path="url(#p01d9457f38)" style="fill: url(#hbec27569c9); stroke: #ff7f0e; stroke-width: 2; stroke-linejoin: miter"/>
   </g>
   <g id="patch_95">
    <path d="M 555.945231 301.520311 
L 559.988391 301.520311 
L 559.988391 49.177779 
L 555.945231 49.177779 
z
" clip-path="url(#p01d9457f38)" style="fill: url(#hbec27569c9); stroke: #ff7f0e; stroke-width: 2; stroke-linejoin: miter"/>
   </g>
   <g id="patch_96">
    <path d="M 560.70189 301.520311 
L 564.74505 301.520311 
L 564.74505 49.177779 
L 560.70189 49.177779 
z
" clip-path="url(#p01d9457f38)" style="fill: url(#hbec27569c9); stroke: #ff7f0e; stroke-width: 2; stroke-linejoin: miter"/>
   </g>
   <g id="patch_97">
    <path d="M 565.458549 301.520311 
L 569.501709 301.520311 
L 569.501709 49.177779 
L 565.458549 49.177779 
z
" clip-path="url(#p01d9457f38)" style="fill: url(#hbec27569c9); stroke: #ff7f0e; stroke-width: 2; stroke-linejoin: miter"/>
   </g>
   <g id="patch_98">
    <path d="M 570.215208 301.520311 
L 574.258368 301.520311 
L 574.258368 49.133388 
L 570.215208 49.133388 
z
" clip-path="url(#p01d9457f38)" style="fill: url(#hbec27569c9); stroke: #ff7f0e; stroke-width: 2; stroke-linejoin: miter"/>
   </g>
   <g id="patch_99">
    <path d="M 574.971866 301.520311 
L 579.015026 301.520311 
L 579.015026 49.133388 
L 574.971866 49.133388 
z
" clip-path="url(#p01d9457f38)" style="fill: url(#hbec27569c9); stroke: #ff7f0e; stroke-width: 2; stroke-linejoin: miter"/>
   </g>
   <g id="patch_100">
    <path d="M 579.728525 301.520311 
L 583.771685 301.520311 
L 583.771685 49.044581 
L 579.728525 49.044581 
z
" clip-path="url(#p01d9457f38)" style="fill: url(#hbec27569c9); stroke: #ff7f0e; stroke-width: 2; stroke-linejoin: miter"/>
   </g>
   <g id="patch_101">
    <path d="M 584.485184 301.520311 
L 588.528344 301.520311 
L 588.528344 49.044581 
L 584.485184 49.044581 
z
" clip-path="url(#p01d9457f38)" style="fill: url(#hbec27569c9); stroke: #ff7f0e; stroke-width: 2; stroke-linejoin: miter"/>
   </g>
   <g id="patch_102">
    <path d="M 589.241843 301.520311 
L 593.285003 301.520311 
L 593.285003 48.955712 
L 589.241843 48.955712 
z
" clip-path="url(#p01d9457f38)" style="fill: url(#hbec27569c9); stroke: #ff7f0e; stroke-width: 2; stroke-linejoin: miter"/>
   </g>
   <g id="patch_103">
    <path d="M 593.998502 301.520311 
L 598.041662 301.520311 
L 598.041662 48.822301 
L 593.998502 48.822301 
z
" clip-path="url(#p01d9457f38)" style="fill: url(#hbec27569c9); stroke: #ff7f0e; stroke-width: 2; stroke-linejoin: miter"/>
   </g>
   <g id="patch_104">
    <path d="M 598.755161 301.520311 
L 602.798321 301.520311 
L 602.798321 48.822301 
L 598.755161 48.822301 
z
" clip-path="url(#p01d9457f38)" style="fill: url(#hbec27569c9); stroke: #ff7f0e; stroke-width: 2; stroke-linejoin: miter"/>
   </g>
   <g id="patch_105">
    <path d="M 603.51182 301.520311 
L 607.55498 301.520311 
L 607.55498 48.777786 
L 603.51182 48.777786 
z
" clip-path="url(#p01d9457f38)" style="fill: url(#hbec27569c9); stroke: #ff7f0e; stroke-width: 2; stroke-linejoin: miter"/>
   </g>
   <g id="patch_106">
    <path d="M 608.268479 301.520311 
L 612.311639 301.520311 
L 612.311639 48.688729 
L 608.268479 48.688729 
z
" clip-path="url(#p01d9457f38)" style="fill: url(#hbec27569c9); stroke: #ff7f0e; stroke-width: 2; stroke-linejoin: miter"/>
   </g>
   <g id="patch_107">
    <path d="M 613.025137 301.520311 
L 617.068298 301.520311 
L 617.068298 48.688729 
L 613.025137 48.688729 
z
" clip-path="url(#p01d9457f38)" style="fill: url(#hbec27569c9); stroke: #ff7f0e; stroke-width: 2; stroke-linejoin: miter"/>
   </g>
   <g id="patch_108">
    <path d="M 617.781796 301.520311 
L 621.824956 301.520311 
L 621.824956 48.599609 
L 617.781796 48.599609 
z
" clip-path="url(#p01d9457f38)" style="fill: url(#hbec27569c9); stroke: #ff7f0e; stroke-width: 2; stroke-linejoin: miter"/>
   </g>
   <g id="patch_109">
    <path d="M 622.538455 301.520311 
L 626.581615 301.520311 
L 626.581615 48.599609 
L 622.538455 48.599609 
z
" clip-path="url(#p01d9457f38)" style="fill: url(#hbec27569c9); stroke: #ff7f0e; stroke-width: 2; stroke-linejoin: miter"/>
   </g>
   <g id="patch_110">
    <path d="M 627.295114 301.520311 
L 631.338274 301.520311 
L 631.338274 48.555035 
L 627.295114 48.555035 
z
" clip-path="url(#p01d9457f38)" style="fill: url(#hbec27569c9); stroke: #ff7f0e; stroke-width: 2; stroke-linejoin: miter"/>
   </g>
   <g id="patch_111">
    <path d="M 632.051773 301.520311 
L 636.094933 301.520311 
L 636.094933 48.555035 
L 632.051773 48.555035 
z
" clip-path="url(#p01d9457f38)" style="fill: url(#hbec27569c9); stroke: #ff7f0e; stroke-width: 2; stroke-linejoin: miter"/>
   </g>
   <g id="patch_112">
    <path d="M 636.808432 301.520311 
L 640.851592 301.520311 
L 640.851592 48.465821 
L 636.808432 48.465821 
z
" clip-path="url(#p01d9457f38)" style="fill: url(#hbec27569c9); stroke: #ff7f0e; stroke-width: 2; stroke-linejoin: miter"/>
   </g>
   <g id="patch_113">
    <path d="M 641.565091 301.520311 
L 645.608251 301.520311 
L 645.608251 48.376544 
L 641.565091 48.376544 
z
" clip-path="url(#p01d9457f38)" style="fill: url(#hbec27569c9); stroke: #ff7f0e; stroke-width: 2; stroke-linejoin: miter"/>
   </g>
   <g id="patch_114">
    <path d="M 646.32175 301.520311 
L 650.36491 301.520311 
L 650.36491 48.153064 
L 646.32175 48.153064 
z
" clip-path="url(#p01d9457f38)" style="fill: url(#hbec27569c9); stroke: #ff7f0e; stroke-width: 2; stroke-linejoin: miter"/>
   </g>
   <g id="patch_115">
    <path d="M 651.078409 301.520311 
L 655.121569 301.520311 
L 655.121569 48.063566 
L 651.078409 48.063566 
z
" clip-path="url(#p01d9457f38)" style="fill: url(#hbec27569c9); stroke: #ff7f0e; stroke-width: 2; stroke-linejoin: miter"/>
   </g>
   <g id="patch_116">
    <path d="M 655.835067 301.520311 
L 659.878227 301.520311 
L 659.878227 47.974005 
L 655.835067 47.974005 
z
" clip-path="url(#p01d9457f38)" style="fill: url(#hbec27569c9); stroke: #ff7f0e; stroke-width: 2; stroke-linejoin: miter"/>
   </g>
   <g id="patch_117">
    <path d="M 660.591726 301.520311 
L 664.634886 301.520311 
L 664.634886 47.120015 
L 660.591726 47.120015 
z
" clip-path="url(#p01d9457f38)" style="fill: url(#hbec27569c9); stroke: #ff7f0e; stroke-width: 2; stroke-linejoin: miter"/>
   </g>
   <g id="line2d_26">
    <path d="M 91.0175 50.150184 
L 691.95 50.150184 
" clip-path="url(#p01d9457f38)" style="fill: none; stroke-dasharray: 4.44,1.92; stroke-dashoffset: 0; stroke: #f58518; stroke-width: 1.2"/>
   </g>
   <g id="patch_118">
    <path d="M 91.0175 301.520311 
L 91.0175 34.4 
" style="fill: none; stroke: #808080; stroke-width: 0.8; stroke-linejoin: miter; stroke-linecap: square"/>
   </g>
   <g id="patch_119">
    <path d="M 91.0175 301.520311 
L 691.95 301.520311 
" style="fill: none; stroke: #808080; stroke-width: 0.8; stroke-linejoin: miter; stroke-linecap: square"/>
   </g>
   <g id="text_23">
    <text style="font: 22px 'PingFang SC', 'Heiti SC', 'STHeiti', 'Calibri', 'Arial', 'Helvetica Neue', 'Arial Unicode MS', 'Noto Sans CJK SC', 'DejaVu Sans', sans-serif; text-anchor: middle" x="391.48375" y="28.4" transform="rotate(-0 391.48375 28.4)">排序条形 · HBM GB/s</text>
   </g>
   <g id="legend_1">
    <g id="patch_120">
     <path d="M 99.4175 61.16 
L 216.875 61.16 
Q 219.275 61.16 219.275 58.76 
L 219.275 42.8 
Q 219.275 40.4 216.875 40.4 
L 99.4175 40.4 
Q 97.0175 40.4 97.0175 42.8 
L 97.0175 58.76 
Q 97.0175 61.16 99.4175 61.16 
z
" style="fill: #ffffff; opacity: 0.5; stroke: #cccccc; stroke-linejoin: miter"/>
    </g>
    <g id="line2d_27">
     <path d="M 101.8175 50.55125 
L 113.8175 50.55125 
L 125.8175 50.55125 
" style="fill: none; stroke-dasharray: 4.44,1.92; stroke-dashoffset: 0; stroke: #f58518; stroke-width: 1.2"/>
    </g>
    <g id="text_24">
     <text style="font: 12px 'PingFang SC', 'Heiti SC', 'STHeiti', 'Calibri', 'Arial', 'Helvetica Neue', 'Arial Unicode MS', 'Noto Sans CJK SC', 'DejaVu Sans', sans-serif; text-anchor: start" x="135.4175" y="54.75125" transform="rotate(-0 135.4175 54.75125)">median=1469</text>
    </g>
   </g>
  </g>
 </g>
 <defs>
  <clipPath id="p01d9457f38">
   <rect x="91.0175" y="34.4" width="600.9325" height="267.120311"/>
  </clipPath>
 </defs>
 <defs>
  <pattern id="hf44a5f1dd8" patternUnits="userSpaceOnUse" x="0" y="0" width="72" height="72">
   <rect x="0" y="0" width="73" height="73" fill="none"/>
   <path d="M -36 36 
L 36 -36 
M -30 42 
L 42 -30 
M -24 48 
L 48 -24 
M -18 54 
L 54 -18 
M -12 60 
L 60 -12 
M -6 66 
L 66 -6 
M 0 72 
L 72 0 
M 6 78 
L 78 6 
M 12 84 
L 84 12 
M 18 90 
L 90 18 
M 24 96 
L 96 24 
M 30 102 
L 102 30 
M 36 108 
L 108 36 
M -36 36 
L 36 108 
M -30 30 
L 42 102 
M -24 24 
L 48 96 
M -18 18 
L 54 90 
M -12 12 
L 60 84 
M -6 6 
L 66 78 
M 0 0 
L 72 72 
M 6 -6 
L 78 66 
M 12 -12 
L 84 60 
M 18 -18 
L 90 54 
M 24 -24 
L 96 48 
M 30 -30 
L 102 42 
M 36 -36 
L 108 36 
" style="fill: #2ca02c; stroke: #2ca02c; stroke-width: 1.0; stroke-linecap: butt; stroke-linejoin: miter"/>
  </pattern>
  <pattern id="hbec27569c9" patternUnits="userSpaceOnUse" x="0" y="0" width="72" height="72">
   <rect x="0" y="0" width="73" height="73" fill="none"/>
   <path d="M -36 36 
L 36 -36 
M -30 42 
L 42 -30 
M -24 48 
L 48 -24 
M -18 54 
L 54 -18 
M -12 60 
L 60 -12 
M -6 66 
L 66 -6 
M 0 72 
L 72 0 
M 6 78 
L 78 6 
M 12 84 
L 84 12 
M 18 90 
L 90 18 
M 24 96 
L 96 24 
M 30 102 
L 102 30 
M 36 108 
L 108 36 
" style="fill: #ff7f0e; stroke: #ff7f0e; stroke-width: 1.0; stroke-linecap: butt; stroke-linejoin: miter"/>
  </pattern>
 </defs>
</svg>
