<?xml version="1.0" encoding="utf-8" standalone="no"?>
<!DOCTYPE svg PUBLIC "-//W3C//DTD SVG 1.1//EN"
  "http://www.w3.org/Graphics/SVG/1.1/DTD/svg11.dtd">
<svg xmlns:xlink="http://www.w3.org/1999/xlink" width="702.945pt" height="342.872603pt" viewBox="0 0 702.945 342.872603" xmlns="http://www.w3.org/2000/svg" version="1.1">
 <metadata>
  <rdf:RDF xmlns:dc="http://purl.org/dc/elements/1.1/" xmlns:cc="http://creativecommons.org/ns#" xmlns:rdf="http://www.w3.org/1999/02/22-rdf-syntax-ns#">
   <cc:Work>
    <dc:type rdf:resource="http://purl.org/dc/dcmitype/StillImage"/>
    <dc:date>2026-07-11T23:31:15.888025</dc:date>
    <dc:format>image/svg+xml</dc:format>
    <dc:creator>
     <cc:Agent>
      <dc:title>Matplotlib v3.9.4, https://matplotlib.org/</dc:title>
     </cc:Agent>
    </dc:creator>
   </cc:Work>
  </rdf:RDF>
 </metadata>
 <defs>
  <style type="text/css">*{stroke-linejoin: round; stroke-linecap: butt}</style>
 </defs>
 <g id="figure_1">
  <g id="patch_1">
   <path d="M 0 342.872603 
L 702.945 342.872603 
L 702.945 0 
L 0 0 
z
" style="fill: #ffffff"/>
  </g>
  <g id="axes_1">
   <g id="patch_2">
    <path d="M 67.5875 301.524953 
L 692.145 301.524953 
L 692.145 35.259375 
L 67.5875 35.259375 
z
" style="fill: #ffffff"/>
   </g>
   <g id="matplotlib.axis_1">
    <g id="xtick_1">
     <g id="line2d_1">
      <defs>
       <path id="mb6013b546e" d="M 0 0 
L 0 3.5 
" style="stroke: #808080; stroke-width: 0.8"/>
      </defs>
      <g>
       <use xlink:href="#mb6013b546e" x="98.077533" y="301.524953" style="fill: #808080; stroke: #808080; stroke-width: 0.8"/>
      </g>
     </g>
     <g id="text_1">
      <text style="fill: #808080; font: 9px 'PingFang SC', 'Heiti SC', 'STHeiti', 'Calibri', 'Arial', 'Helvetica Neue', 'Arial Unicode MS', 'Noto Sans CJK SC', 'DejaVu Sans', sans-serif" transform="translate(83.121231 327.693402) rotate(-45)">w4.3</text>
     </g>
    </g>
    <g id="xtick_2">
     <g id="line2d_2">
      <g>
       <use xlink:href="#mb6013b546e" x="132.683165" y="301.524953" style="fill: #808080; stroke: #808080; stroke-width: 0.8"/>
      </g>
     </g>
     <g id="text_2">
      <text style="fill: #808080; font: 9px 'PingFang SC', 'Heiti SC', 'STHeiti', 'Calibri', 'Arial', 'Helvetica Neue', 'Arial Unicode MS', 'Noto Sans CJK SC', 'DejaVu Sans', sans-serif" transform="translate(114.20083 331.219434) rotate(-45)">w14.0</text>
     </g>
    </g>
    <g id="xtick_3">
     <g id="line2d_3">
      <g>
       <use xlink:href="#mb6013b546e" x="167.288797" y="301.524953" style="fill: #808080; stroke: #808080; stroke-width: 0.8"/>
      </g>
     </g>
     <g id="text_3">
      <text style="fill: #808080; font: 9px 'PingFang SC', 'Heiti SC', 'STHeiti', 'Calibri', 'Arial', 'Helvetica Neue', 'Arial Unicode MS', 'Noto Sans CJK SC', 'DejaVu Sans', sans-serif" transform="translate(152.332494 327.693402) rotate(-45)">w1.7</text>
     </g>
    </g>
    <g id="xtick_4">
     <g id="line2d_4">
      <g>
       <use xlink:href="#mb6013b546e" x="201.894429" y="301.524953" style="fill: #808080; stroke: #808080; stroke-width: 0.8"/>
      </g>
     </g>
     <g id="text_4">
      <text style="fill: #808080; font: 9px 'PingFang SC', 'Heiti SC', 'STHeiti', 'Calibri', 'Arial', 'Helvetica Neue', 'Arial Unicode MS', 'Noto Sans CJK SC', 'DejaVu Sans', sans-serif" transform="translate(183.412094 331.219434) rotate(-45)">w10.1</text>
     </g>
    </g>
    <g id="xtick_5">
     <g id="line2d_5">
      <g>
       <use xlink:href="#mb6013b546e" x="236.500061" y="301.524953" style="fill: #808080; stroke: #808080; stroke-width: 0.8"/>
      </g>
     </g>
     <g id="text_5">
      <text style="fill: #808080; font: 9px 'PingFang SC', 'Heiti SC', 'STHeiti', 'Calibri', 'Arial', 'Helvetica Neue', 'Arial Unicode MS', 'Noto Sans CJK SC', 'DejaVu Sans', sans-serif" transform="translate(221.543758 327.693402) rotate(-45)">w3.1</text>
     </g>
    </g>
    <g id="xtick_6">
     <g id="line2d_6">
      <g>
       <use xlink:href="#mb6013b546e" x="271.105693" y="301.524953" style="fill: #808080; stroke: #808080; stroke-width: 0.8"/>
      </g>
     </g>
     <g id="text_6">
      <text style="fill: #808080; font: 9px 'PingFang SC', 'Heiti SC', 'STHeiti', 'Calibri', 'Arial', 'Helvetica Neue', 'Arial Unicode MS', 'Noto Sans CJK SC', 'DejaVu Sans', sans-serif" transform="translate(256.14939 327.693402) rotate(-45)">w1.1</text>
     </g>
    </g>
    <g id="xtick_7">
     <g id="line2d_7">
      <g>
       <use xlink:href="#mb6013b546e" x="305.711325" y="301.524953" style="fill: #808080; stroke: #808080; stroke-width: 0.8"/>
      </g>
     </g>
     <g id="text_7">
      <text style="fill: #808080; font: 9px 'PingFang SC', 'Heiti SC', 'STHeiti', 'Calibri', 'Arial', 'Helvetica Neue', 'Arial Unicode MS', 'Noto Sans CJK SC', 'DejaVu Sans', sans-serif" transform="translate(287.22899 331.219434) rotate(-45)">w13.6</text>
     </g>
    </g>
    <g id="xtick_8">
     <g id="line2d_8">
      <g>
       <use xlink:href="#mb6013b546e" x="340.316956" y="301.524953" style="fill: #808080; stroke: #808080; stroke-width: 0.8"/>
      </g>
     </g>
     <g id="text_8">
      <text style="fill: #808080; font: 9px 'PingFang SC', 'Heiti SC', 'STHeiti', 'Calibri', 'Arial', 'Helvetica Neue', 'Arial Unicode MS', 'Noto Sans CJK SC', 'DejaVu Sans', sans-serif" transform="translate(325.360654 327.693402) rotate(-45)">w5.1</text>
     </g>
    </g>
    <g id="xtick_9">
     <g id="line2d_9">
      <g>
       <use xlink:href="#mb6013b546e" x="374.922588" y="301.524953" style="fill: #808080; stroke: #808080; stroke-width: 0.8"/>
      </g>
     </g>
     <g id="text_9">
      <text style="fill: #808080; font: 9px 'PingFang SC', 'Heiti SC', 'STHeiti', 'Calibri', 'Arial', 'Helvetica Neue', 'Arial Unicode MS', 'Noto Sans CJK SC', 'DejaVu Sans', sans-serif" transform="translate(359.966286 327.693402) rotate(-45)">w2.1</text>
     </g>
    </g>
    <g id="xtick_10">
     <g id="line2d_10">
      <g>
       <use xlink:href="#mb6013b546e" x="409.52822" y="301.524953" style="fill: #808080; stroke: #808080; stroke-width: 0.8"/>
      </g>
     </g>
     <g id="text_10">
      <text style="fill: #808080; font: 9px 'PingFang SC', 'Heiti SC', 'STHeiti', 'Calibri', 'Arial', 'Helvetica Neue', 'Arial Unicode MS', 'Noto Sans CJK SC', 'DejaVu Sans', sans-serif" transform="translate(394.571917 327.693402) rotate(-45)">w0.5</text>
     </g>
    </g>
    <g id="xtick_11">
     <g id="line2d_11">
      <g>
       <use xlink:href="#mb6013b546e" x="444.133852" y="301.524953" style="fill: #808080; stroke: #808080; stroke-width: 0.8"/>
      </g>
     </g>
     <g id="text_11">
      <text style="fill: #808080; font: 9px 'PingFang SC', 'Heiti SC', 'STHeiti', 'Calibri', 'Arial', 'Helvetica Neue', 'Arial Unicode MS', 'Noto Sans CJK SC', 'DejaVu Sans', sans-serif" transform="translate(425.651517 331.219434) rotate(-45)">w12.5</text>
     </g>
    </g>
    <g id="xtick_12">
     <g id="line2d_12">
      <g>
       <use xlink:href="#mb6013b546e" x="478.739484" y="301.524953" style="fill: #808080; stroke: #808080; stroke-width: 0.8"/>
      </g>
     </g>
     <g id="text_12">
      <text style="fill: #808080; font: 9px 'PingFang SC', 'Heiti SC', 'STHeiti', 'Calibri', 'Arial', 'Helvetica Neue', 'Arial Unicode MS', 'Noto Sans CJK SC', 'DejaVu Sans', sans-serif" transform="translate(463.783181 327.693402) rotate(-45)">w1.6</text>
     </g>
    </g>
    <g id="xtick_13">
     <g id="line2d_13">
      <g>
       <use xlink:href="#mb6013b546e" x="513.345116" y="301.524953" style="fill: #808080; stroke: #808080; stroke-width: 0.8"/>
      </g>
     </g>
     <g id="text_13">
      <text style="fill: #808080; font: 9px 'PingFang SC', 'Heiti SC', 'STHeiti', 'Calibri', 'Arial', 'Helvetica Neue', 'Arial Unicode MS', 'Noto Sans CJK SC', 'DejaVu Sans', sans-serif" transform="translate(498.388813 327.693402) rotate(-45)">w3.5</text>
     </g>
    </g>
    <g id="xtick_14">
     <g id="line2d_14">
      <g>
       <use xlink:href="#mb6013b546e" x="547.950748" y="301.524953" style="fill: #808080; stroke: #808080; stroke-width: 0.8"/>
      </g>
     </g>
     <g id="text_14">
      <text style="fill: #808080; font: 9px 'PingFang SC', 'Heiti SC', 'STHeiti', 'Calibri', 'Arial', 'Helvetica Neue', 'Arial Unicode MS', 'Noto Sans CJK SC', 'DejaVu Sans', sans-serif" transform="translate(532.994445 327.693402) rotate(-45)">w4.4</text>
     </g>
    </g>
    <g id="xtick_15">
     <g id="line2d_15">
      <g>
       <use xlink:href="#mb6013b546e" x="582.556379" y="301.524953" style="fill: #808080; stroke: #808080; stroke-width: 0.8"/>
      </g>
     </g>
     <g id="text_15">
      <text style="fill: #808080; font: 9px 'PingFang SC', 'Heiti SC', 'STHeiti', 'Calibri', 'Arial', 'Helvetica Neue', 'Arial Unicode MS', 'Noto Sans CJK SC', 'DejaVu Sans', sans-serif" transform="translate(564.074044 331.219434) rotate(-45)">w13.0</text>
     </g>
    </g>
    <g id="xtick_16">
     <g id="line2d_16">
      <g>
       <use xlink:href="#mb6013b546e" x="617.162011" y="301.524953" style="fill: #808080; stroke: #808080; stroke-width: 0.8"/>
      </g>
     </g>
     <g id="text_16">
      <text style="fill: #808080; font: 9px 'PingFang SC', 'Heiti SC', 'STHeiti', 'Calibri', 'Arial', 'Helvetica Neue', 'Arial Unicode MS', 'Noto Sans CJK SC', 'DejaVu Sans', sans-serif" transform="translate(598.679676 331.219434) rotate(-45)">w12.1</text>
     </g>
    </g>
    <g id="xtick_17">
     <g id="line2d_17">
      <g>
       <use xlink:href="#mb6013b546e" x="651.767643" y="301.524953" style="fill: #808080; stroke: #808080; stroke-width: 0.8"/>
      </g>
     </g>
     <g id="text_17">
      <text style="fill: #808080; font: 9px 'PingFang SC', 'Heiti SC', 'STHeiti', 'Calibri', 'Arial', 'Helvetica Neue', 'Arial Unicode MS', 'Noto Sans CJK SC', 'DejaVu Sans', sans-serif" transform="translate(636.81134 327.693402) rotate(-45)">w7.0</text>
     </g>
    </g>
   </g>
   <g id="matplotlib.axis_2">
    <g id="ytick_1">
     <g id="line2d_18">
      <path d="M 67.5875 301.524953 
L 692.145 301.524953 
" clip-path="url(#p797934e073)" style="fill: none; stroke-dasharray: 1,1.65; stroke-dashoffset: 0; stroke: #808080; stroke-opacity: 0.55"/>
     </g>
     <g id="line2d_19">
      <defs>
       <path id="m8025366395" d="M 0 0 
L -3.5 0 
" style="stroke: #808080; stroke-width: 0.8"/>
      </defs>
      <g>
       <use xlink:href="#m8025366395" x="67.5875" y="301.524953" style="fill: #808080; stroke: #808080; stroke-width: 0.8"/>
      </g>
     </g>
     <g id="text_18">
      <text style="fill: #808080; font: 22px 'PingFang SC', 'Heiti SC', 'STHeiti', 'Calibri', 'Arial', 'Helvetica Neue', 'Arial Unicode MS', 'Noto Sans CJK SC', 'DejaVu Sans', sans-serif; text-anchor: end" x="60.5875" y="310.280265" transform="rotate(-0 60.5875 310.280265)">0</text>
     </g>
    </g>
    <g id="ytick_2">
     <g id="line2d_20">
      <path d="M 67.5875 224.651385 
L 692.145 224.651385 
" clip-path="url(#p797934e073)" style="fill: none; stroke-dasharray: 1,1.65; stroke-dashoffset: 0; stroke: #808080; stroke-opacity: 0.55"/>
     </g>
     <g id="line2d_21">
      <g>
       <use xlink:href="#m8025366395" x="67.5875" y="224.651385" style="fill: #808080; stroke: #808080; stroke-width: 0.8"/>
      </g>
     </g>
     <g id="text_19">
      <text style="fill: #808080; font: 22px 'PingFang SC', 'Heiti SC', 'STHeiti', 'Calibri', 'Arial', 'Helvetica Neue', 'Arial Unicode MS', 'Noto Sans CJK SC', 'DejaVu Sans', sans-serif; text-anchor: end" x="60.5875" y="233.406697" transform="rotate(-0 60.5875 233.406697)">10</text>
     </g>
    </g>
    <g id="ytick_3">
     <g id="line2d_22">
      <path d="M 67.5875 147.777817 
L 692.145 147.777817 
" clip-path="url(#p797934e073)" style="fill: none; stroke-dasharray: 1,1.65; stroke-dashoffset: 0; stroke: #808080; stroke-opacity: 0.55"/>
     </g>
     <g id="line2d_23">
      <g>
       <use xlink:href="#m8025366395" x="67.5875" y="147.777817" style="fill: #808080; stroke: #808080; stroke-width: 0.8"/>
      </g>
     </g>
     <g id="text_20">
      <text style="fill: #808080; font: 22px 'PingFang SC', 'Heiti SC', 'STHeiti', 'Calibri', 'Arial', 'Helvetica Neue', 'Arial Unicode MS', 'Noto Sans CJK SC', 'DejaVu Sans', sans-serif; text-anchor: end" x="60.5875" y="156.533129" transform="rotate(-0 60.5875 156.533129)">20</text>
     </g>
    </g>
    <g id="ytick_4">
     <g id="line2d_24">
      <path d="M 67.5875 70.904248 
L 692.145 70.904248 
" clip-path="url(#p797934e073)" style="fill: none; stroke-dasharray: 1,1.65; stroke-dashoffset: 0; stroke: #808080; stroke-opacity: 0.55"/>
     </g>
     <g id="line2d_25">
      <g>
       <use xlink:href="#m8025366395" x="67.5875" y="70.904248" style="fill: #808080; stroke: #808080; stroke-width: 0.8"/>
      </g>
     </g>
     <g id="text_21">
      <text style="fill: #808080; font: 22px 'PingFang SC', 'Heiti SC', 'STHeiti', 'Calibri', 'Arial', 'Helvetica Neue', 'Arial Unicode MS', 'Noto Sans CJK SC', 'DejaVu Sans', sans-serif; text-anchor: end" x="60.5875" y="79.659561" transform="rotate(-0 60.5875 79.659561)">30</text>
     </g>
    </g>
    <g id="text_22">
     <text style="font: 22px 'PingFang SC', 'Heiti SC', 'STHeiti', 'Calibri', 'Arial', 'Helvetica Neue', 'Arial Unicode MS', 'Noto Sans CJK SC', 'DejaVu Sans', sans-serif; text-anchor: middle" x="29.259375" y="168.392164" transform="rotate(-90 29.259375 168.392164)">Launch sync p99 (us)</text>
    </g>
   </g>
   <g id="patch_3">
    <path d="M 95.976477 301.524953 
L 100.17859 301.524953 
L 100.17859 278.929858 
L 95.976477 278.929858 
z
" clip-path="url(#p797934e073)" style="fill: url(#h08ec006583); stroke: #2ca02c; stroke-width: 2; stroke-linejoin: miter"/>
   </g>
   <g id="patch_4">
    <path d="M 100.920139 301.524953 
L 105.122251 301.524953 
L 105.122251 278.922699 
L 100.920139 278.922699 
z
" clip-path="url(#p797934e073)" style="fill: url(#h08ec006583); stroke: #2ca02c; stroke-width: 2; stroke-linejoin: miter"/>
   </g>
   <g id="patch_5">
    <path d="M 105.863801 301.524953 
L 110.065913 301.524953 
L 110.065913 278.772351 
L 105.863801 278.772351 
z
" clip-path="url(#p797934e073)" style="fill: url(#h08ec006583); stroke: #2ca02c; stroke-width: 2; stroke-linejoin: miter"/>
   </g>
   <g id="patch_6">
    <path d="M 110.807462 301.524953 
L 115.009575 301.524953 
L 115.009575 278.471656 
L 110.807462 278.471656 
z
" clip-path="url(#p797934e073)" style="fill: url(#h08ec006583); stroke: #2ca02c; stroke-width: 2; stroke-linejoin: miter"/>
   </g>
   <g id="patch_7">
    <path d="M 115.751124 301.524953 
L 119.953236 301.524953 
L 119.953236 278.464497 
L 115.751124 278.464497 
z
" clip-path="url(#p797934e073)" style="fill: url(#h08ec006583); stroke: #2ca02c; stroke-width: 2; stroke-linejoin: miter"/>
   </g>
   <g id="patch_8">
    <path d="M 120.694786 301.524953 
L 124.896898 301.524953 
L 124.896898 278.457337 
L 120.694786 278.457337 
z
" clip-path="url(#p797934e073)" style="fill: url(#h08ec006583); stroke: #2ca02c; stroke-width: 2; stroke-linejoin: miter"/>
   </g>
   <g id="patch_9">
    <path d="M 125.638447 301.524953 
L 129.84056 301.524953 
L 129.84056 278.156642 
L 125.638447 278.156642 
z
" clip-path="url(#p797934e073)" style="fill: url(#h08ec006583); stroke: #2ca02c; stroke-width: 2; stroke-linejoin: miter"/>
   </g>
   <g id="patch_10">
    <path d="M 130.582109 301.524953 
L 134.784222 301.524953 
L 134.784222 278.156642 
L 130.582109 278.156642 
z
" clip-path="url(#p797934e073)" style="fill: url(#h08ec006583); stroke: #2ca02c; stroke-width: 2; stroke-linejoin: miter"/>
   </g>
   <g id="patch_11">
    <path d="M 135.525771 301.524953 
L 139.727883 301.524953 
L 139.727883 278.085048 
L 135.525771 278.085048 
z
" clip-path="url(#p797934e073)" style="fill: url(#h08ec006583); stroke: #2ca02c; stroke-width: 2; stroke-linejoin: miter"/>
   </g>
   <g id="patch_12">
    <path d="M 140.469433 301.524953 
L 144.671545 301.524953 
L 144.671545 278.077888 
L 140.469433 278.077888 
z
" clip-path="url(#p797934e073)" style="fill: url(#h08ec006583); stroke: #2ca02c; stroke-width: 2; stroke-linejoin: miter"/>
   </g>
   <g id="patch_13">
    <path d="M 145.413094 301.524953 
L 149.615207 301.524953 
L 149.615207 278.077888 
L 145.413094 278.077888 
z
" clip-path="url(#p797934e073)" style="fill: url(#h08ec006583); stroke: #2ca02c; stroke-width: 2; stroke-linejoin: miter"/>
   </g>
   <g id="patch_14">
    <path d="M 150.356756 301.524953 
L 154.558868 301.524953 
L 154.558868 277.920381 
L 150.356756 277.920381 
z
" clip-path="url(#p797934e073)" style="fill: url(#h08ec006583); stroke: #2ca02c; stroke-width: 2; stroke-linejoin: miter"/>
   </g>
   <g id="patch_15">
    <path d="M 155.300418 301.524953 
L 159.50253 301.524953 
L 159.50253 277.770034 
L 155.300418 277.770034 
z
" clip-path="url(#p797934e073)" style="fill: url(#h08ec006583); stroke: #2ca02c; stroke-width: 2; stroke-linejoin: miter"/>
   </g>
   <g id="patch_16">
    <path d="M 160.244079 301.524953 
L 164.446192 301.524953 
L 164.446192 277.69128 
L 160.244079 277.69128 
z
" clip-path="url(#p797934e073)" style="fill: url(#h08ec006583); stroke: #2ca02c; stroke-width: 2; stroke-linejoin: miter"/>
   </g>
   <g id="patch_17">
    <path d="M 165.187741 301.524953 
L 169.389853 301.524953 
L 169.389853 277.383426 
L 165.187741 277.383426 
z
" clip-path="url(#p797934e073)" style="fill: url(#h08ec006583); stroke: #2ca02c; stroke-width: 2; stroke-linejoin: miter"/>
   </g>
   <g id="patch_18">
    <path d="M 170.131403 301.524953 
L 174.333515 301.524953 
L 174.333515 277.304672 
L 170.131403 277.304672 
z
" clip-path="url(#p797934e073)" style="fill: url(#h08ec006583); stroke: #2ca02c; stroke-width: 2; stroke-linejoin: miter"/>
   </g>
   <g id="patch_19">
    <path d="M 175.075064 301.524953 
L 179.277177 301.524953 
L 179.277177 277.233078 
L 175.075064 277.233078 
z
" clip-path="url(#p797934e073)" style="fill: url(#h08ec006583); stroke: #2ca02c; stroke-width: 2; stroke-linejoin: miter"/>
   </g>
   <g id="patch_20">
    <path d="M 180.018726 301.524953 
L 184.220838 301.524953 
L 184.220838 277.233078 
L 180.018726 277.233078 
z
" clip-path="url(#p797934e073)" style="fill: url(#h08ec006583); stroke: #2ca02c; stroke-width: 2; stroke-linejoin: miter"/>
   </g>
   <g id="patch_21">
    <path d="M 184.962388 301.524953 
L 189.1645 301.524953 
L 189.1645 277.233078 
L 184.962388 277.233078 
z
" clip-path="url(#p797934e073)" style="fill: url(#h08ec006583); stroke: #2ca02c; stroke-width: 2; stroke-linejoin: miter"/>
   </g>
   <g id="patch_22">
    <path d="M 189.906049 301.524953 
L 194.108162 301.524953 
L 194.108162 277.154325 
L 189.906049 277.154325 
z
" clip-path="url(#p797934e073)" style="fill: url(#h08ec006583); stroke: #2ca02c; stroke-width: 2; stroke-linejoin: miter"/>
   </g>
   <g id="patch_23">
    <path d="M 194.849711 301.524953 
L 199.051824 301.524953 
L 199.051824 277.082731 
L 194.849711 277.082731 
z
" clip-path="url(#p797934e073)" style="fill: url(#h08ec006583); stroke: #2ca02c; stroke-width: 2; stroke-linejoin: miter"/>
   </g>
   <g id="patch_24">
    <path d="M 199.793373 301.524953 
L 203.995485 301.524953 
L 203.995485 276.925224 
L 199.793373 276.925224 
z
" clip-path="url(#p797934e073)" style="fill: url(#h08ec006583); stroke: #2ca02c; stroke-width: 2; stroke-linejoin: miter"/>
   </g>
   <g id="patch_25">
    <path d="M 204.737035 301.524953 
L 208.939147 301.524953 
L 208.939147 276.84647 
L 204.737035 276.84647 
z
" clip-path="url(#p797934e073)" style="fill: url(#h08ec006583); stroke: #2ca02c; stroke-width: 2; stroke-linejoin: miter"/>
   </g>
   <g id="patch_26">
    <path d="M 209.680696 301.524953 
L 213.882809 301.524953 
L 213.882809 276.782035 
L 209.680696 276.782035 
z
" clip-path="url(#p797934e073)" style="fill: url(#h08ec006583); stroke: #2ca02c; stroke-width: 2; stroke-linejoin: miter"/>
   </g>
   <g id="patch_27">
    <path d="M 214.624358 301.524953 
L 218.82647 301.524953 
L 218.82647 276.545775 
L 214.624358 276.545775 
z
" clip-path="url(#p797934e073)" style="fill: url(#h08ec006583); stroke: #2ca02c; stroke-width: 2; stroke-linejoin: miter"/>
   </g>
   <g id="patch_28">
    <path d="M 219.56802 301.524953 
L 223.770132 301.524953 
L 223.770132 276.538616 
L 219.56802 276.538616 
z
" clip-path="url(#p797934e073)" style="fill: url(#h08ec006583); stroke: #2ca02c; stroke-width: 2; stroke-linejoin: miter"/>
   </g>
   <g id="patch_29">
    <path d="M 224.511681 301.524953 
L 228.713794 301.524953 
L 228.713794 276.459862 
L 224.511681 276.459862 
z
" clip-path="url(#p797934e073)" style="fill: url(#h08ec006583); stroke: #2ca02c; stroke-width: 2; stroke-linejoin: miter"/>
   </g>
   <g id="patch_30">
    <path d="M 229.455343 301.524953 
L 233.657455 301.524953 
L 233.657455 276.395427 
L 229.455343 276.395427 
z
" clip-path="url(#p797934e073)" style="fill: url(#h08ec006583); stroke: #2ca02c; stroke-width: 2; stroke-linejoin: miter"/>
   </g>
   <g id="patch_31">
    <path d="M 234.399005 301.524953 
L 238.601117 301.524953 
L 238.601117 276.080413 
L 234.399005 276.080413 
z
" clip-path="url(#p797934e073)" style="fill: url(#h08ec006583); stroke: #2ca02c; stroke-width: 2; stroke-linejoin: miter"/>
   </g>
   <g id="patch_32">
    <path d="M 239.342666 301.524953 
L 243.544779 301.524953 
L 243.544779 275.772559 
L 239.342666 275.772559 
z
" clip-path="url(#p797934e073)" style="fill: url(#h08ec006583); stroke: #2ca02c; stroke-width: 2; stroke-linejoin: miter"/>
   </g>
   <g id="patch_33">
    <path d="M 244.286328 301.524953 
L 248.488441 301.524953 
L 248.488441 275.693805 
L 244.286328 275.693805 
z
" clip-path="url(#p797934e073)" style="fill: url(#h08ec006583); stroke: #2ca02c; stroke-width: 2; stroke-linejoin: miter"/>
   </g>
   <g id="patch_34">
    <path d="M 249.22999 301.524953 
L 253.432102 301.524953 
L 253.432102 275.693805 
L 249.22999 275.693805 
z
" clip-path="url(#p797934e073)" style="fill: url(#h08ec006583); stroke: #2ca02c; stroke-width: 2; stroke-linejoin: miter"/>
   </g>
   <g id="patch_35">
    <path d="M 254.173651 301.524953 
L 258.375764 301.524953 
L 258.375764 275.615052 
L 254.173651 275.615052 
z
" clip-path="url(#p797934e073)" style="fill: url(#h08ec006583); stroke: #2ca02c; stroke-width: 2; stroke-linejoin: miter"/>
   </g>
   <g id="patch_36">
    <path d="M 259.117313 301.524953 
L 263.319426 301.524953 
L 263.319426 275.543458 
L 259.117313 275.543458 
z
" clip-path="url(#p797934e073)" style="fill: url(#h08ec006583); stroke: #2ca02c; stroke-width: 2; stroke-linejoin: miter"/>
   </g>
   <g id="patch_37">
    <path d="M 264.060975 301.524953 
L 268.263087 301.524953 
L 268.263087 275.543458 
L 264.060975 275.543458 
z
" clip-path="url(#p797934e073)" style="fill: url(#h08ec006583); stroke: #2ca02c; stroke-width: 2; stroke-linejoin: miter"/>
   </g>
   <g id="patch_38">
    <path d="M 269.004637 301.524953 
L 273.206749 301.524953 
L 273.206749 275.307197 
L 269.004637 275.307197 
z
" clip-path="url(#p797934e073)" style="fill: url(#h08ec006583); stroke: #2ca02c; stroke-width: 2; stroke-linejoin: miter"/>
   </g>
   <g id="patch_39">
    <path d="M 273.948298 301.524953 
L 278.150411 301.524953 
L 278.150411 274.5483 
L 273.948298 274.5483 
z
" clip-path="url(#p797934e073)" style="fill: url(#h08ec006583); stroke: #2ca02c; stroke-width: 2; stroke-linejoin: miter"/>
   </g>
   <g id="patch_40">
    <path d="M 278.89196 301.524953 
L 283.094072 301.524953 
L 283.094072 274.54114 
L 278.89196 274.54114 
z
" clip-path="url(#p797934e073)" style="fill: url(#h08ec006583); stroke: #2ca02c; stroke-width: 2; stroke-linejoin: miter"/>
   </g>
   <g id="patch_41">
    <path d="M 283.835622 301.524953 
L 288.037734 301.524953 
L 288.037734 274.161692 
L 283.835622 274.161692 
z
" clip-path="url(#p797934e073)" style="fill: url(#h08ec006583); stroke: #2ca02c; stroke-width: 2; stroke-linejoin: miter"/>
   </g>
   <g id="patch_42">
    <path d="M 288.779283 301.524953 
L 292.981396 301.524953 
L 292.981396 274.161692 
L 288.779283 274.161692 
z
" clip-path="url(#p797934e073)" style="fill: url(#h08ec006583); stroke: #2ca02c; stroke-width: 2; stroke-linejoin: miter"/>
   </g>
   <g id="patch_43">
    <path d="M 293.722945 301.524953 
L 297.925057 301.524953 
L 297.925057 273.932591 
L 293.722945 273.932591 
z
" clip-path="url(#p797934e073)" style="fill: url(#h08ec006583); stroke: #2ca02c; stroke-width: 2; stroke-linejoin: miter"/>
   </g>
   <g id="patch_44">
    <path d="M 298.666607 301.524953 
L 302.868719 301.524953 
L 302.868719 273.69633 
L 298.666607 273.69633 
z
" clip-path="url(#p797934e073)" style="fill: url(#h08ec006583); stroke: #2ca02c; stroke-width: 2; stroke-linejoin: miter"/>
   </g>
   <g id="patch_45">
    <path d="M 303.610268 301.524953 
L 307.812381 301.524953 
L 307.812381 273.617577 
L 303.610268 273.617577 
z
" clip-path="url(#p797934e073)" style="fill: url(#h08ec006583); stroke: #2ca02c; stroke-width: 2; stroke-linejoin: miter"/>
   </g>
   <g id="patch_46">
    <path d="M 308.55393 301.524953 
L 312.756043 301.524953 
L 312.756043 273.309722 
L 308.55393 273.309722 
z
" clip-path="url(#p797934e073)" style="fill: url(#h08ec006583); stroke: #2ca02c; stroke-width: 2; stroke-linejoin: miter"/>
   </g>
   <g id="patch_47">
    <path d="M 313.497592 301.524953 
L 317.699704 301.524953 
L 317.699704 273.159374 
L 313.497592 273.159374 
z
" clip-path="url(#p797934e073)" style="fill: url(#h08ec006583); stroke: #2ca02c; stroke-width: 2; stroke-linejoin: miter"/>
   </g>
   <g id="patch_48">
    <path d="M 318.441253 301.524953 
L 322.643366 301.524953 
L 322.643366 273.009027 
L 318.441253 273.009027 
z
" clip-path="url(#p797934e073)" style="fill: url(#h08ec006583); stroke: #2ca02c; stroke-width: 2; stroke-linejoin: miter"/>
   </g>
   <g id="patch_49">
    <path d="M 323.384915 301.524953 
L 327.587028 301.524953 
L 327.587028 272.772766 
L 323.384915 272.772766 
z
" clip-path="url(#p797934e073)" style="fill: url(#h08ec006583); stroke: #2ca02c; stroke-width: 2; stroke-linejoin: miter"/>
   </g>
   <g id="patch_50">
    <path d="M 328.328577 301.524953 
L 332.530689 301.524953 
L 332.530689 272.157057 
L 328.328577 272.157057 
z
" clip-path="url(#p797934e073)" style="fill: url(#h08ec006583); stroke: #2ca02c; stroke-width: 2; stroke-linejoin: miter"/>
   </g>
   <g id="patch_51">
    <path d="M 333.272239 301.524953 
L 337.474351 301.524953 
L 337.474351 272.00671 
L 333.272239 272.00671 
z
" clip-path="url(#p797934e073)" style="fill: url(#h08ec006583); stroke: #2ca02c; stroke-width: 2; stroke-linejoin: miter"/>
   </g>
   <g id="patch_52">
    <path d="M 338.2159 301.524953 
L 342.418013 301.524953 
L 342.418013 271.39816 
L 338.2159 271.39816 
z
" clip-path="url(#p797934e073)" style="fill: url(#h08ec006583); stroke: #2ca02c; stroke-width: 2; stroke-linejoin: miter"/>
   </g>
   <g id="patch_53">
    <path d="M 343.159562 301.524953 
L 347.361674 301.524953 
L 347.361674 271.391 
L 343.159562 271.391 
z
" clip-path="url(#p797934e073)" style="fill: url(#h08ec006583); stroke: #2ca02c; stroke-width: 2; stroke-linejoin: miter"/>
   </g>
   <g id="patch_54">
    <path d="M 348.103224 301.524953 
L 352.305336 301.524953 
L 352.305336 271.161899 
L 348.103224 271.161899 
z
" clip-path="url(#p797934e073)" style="fill: url(#h08ec006583); stroke: #2ca02c; stroke-width: 2; stroke-linejoin: miter"/>
   </g>
   <g id="patch_55">
    <path d="M 353.046885 301.524953 
L 357.248998 301.524953 
L 357.248998 271.083146 
L 353.046885 271.083146 
z
" clip-path="url(#p797934e073)" style="fill: url(#h08ec006583); stroke: #2ca02c; stroke-width: 2; stroke-linejoin: miter"/>
   </g>
   <g id="patch_56">
    <path d="M 357.990547 301.524953 
L 362.192659 301.524953 
L 362.192659 269.393525 
L 357.990547 269.393525 
z
" clip-path="url(#p797934e073)" style="fill: url(#h08ec006583); stroke: #2ca02c; stroke-width: 2; stroke-linejoin: miter"/>
   </g>
   <g id="patch_57">
    <path d="M 362.934209 301.524953 
L 367.136321 301.524953 
L 367.136321 269.085671 
L 362.934209 269.085671 
z
" clip-path="url(#p797934e073)" style="fill: url(#h08ec006583); stroke: #2ca02c; stroke-width: 2; stroke-linejoin: miter"/>
   </g>
   <g id="patch_58">
    <path d="M 367.87787 301.524953 
L 372.079983 301.524953 
L 372.079983 268.85657 
L 367.87787 268.85657 
z
" clip-path="url(#p797934e073)" style="fill: url(#h08ec006583); stroke: #2ca02c; stroke-width: 2; stroke-linejoin: miter"/>
   </g>
   <g id="patch_59">
    <path d="M 372.821532 301.524953 
L 377.023645 301.524953 
L 377.023645 268.620309 
L 372.821532 268.620309 
z
" clip-path="url(#p797934e073)" style="fill: url(#h08ec006583); stroke: #2ca02c; stroke-width: 2; stroke-linejoin: miter"/>
   </g>
   <g id="patch_60">
    <path d="M 377.765194 301.524953 
L 381.967306 301.524953 
L 381.967306 268.555875 
L 377.765194 268.555875 
z
" clip-path="url(#p797934e073)" style="fill: url(#h6052db3c8f); stroke: #ff7f0e; stroke-width: 2; stroke-linejoin: miter"/>
   </g>
   <g id="patch_61">
    <path d="M 382.708855 301.524953 
L 386.910968 301.524953 
L 386.910968 268.548715 
L 382.708855 268.548715 
z
" clip-path="url(#p797934e073)" style="fill: url(#h6052db3c8f); stroke: #ff7f0e; stroke-width: 2; stroke-linejoin: miter"/>
   </g>
   <g id="patch_62">
    <path d="M 387.652517 301.524953 
L 391.85463 301.524953 
L 391.85463 268.405527 
L 387.652517 268.405527 
z
" clip-path="url(#p797934e073)" style="fill: url(#h6052db3c8f); stroke: #ff7f0e; stroke-width: 2; stroke-linejoin: miter"/>
   </g>
   <g id="patch_63">
    <path d="M 392.596179 301.524953 
L 396.798291 301.524953 
L 396.798291 268.391208 
L 392.596179 268.391208 
z
" clip-path="url(#p797934e073)" style="fill: url(#h6052db3c8f); stroke: #ff7f0e; stroke-width: 2; stroke-linejoin: miter"/>
   </g>
   <g id="patch_64">
    <path d="M 397.539841 301.524953 
L 401.741953 301.524953 
L 401.741953 268.319614 
L 397.539841 268.319614 
z
" clip-path="url(#p797934e073)" style="fill: url(#h6052db3c8f); stroke: #ff7f0e; stroke-width: 2; stroke-linejoin: miter"/>
   </g>
   <g id="patch_65">
    <path d="M 402.483502 301.524953 
L 406.685615 301.524953 
L 406.685615 268.162107 
L 402.483502 268.162107 
z
" clip-path="url(#p797934e073)" style="fill: url(#h6052db3c8f); stroke: #ff7f0e; stroke-width: 2; stroke-linejoin: miter"/>
   </g>
   <g id="patch_66">
    <path d="M 407.427164 301.524953 
L 411.629276 301.524953 
L 411.629276 267.782658 
L 407.427164 267.782658 
z
" clip-path="url(#p797934e073)" style="fill: url(#h6052db3c8f); stroke: #ff7f0e; stroke-width: 2; stroke-linejoin: miter"/>
   </g>
   <g id="patch_67">
    <path d="M 412.370826 301.524953 
L 416.572938 301.524953 
L 416.572938 267.560717 
L 412.370826 267.560717 
z
" clip-path="url(#p797934e073)" style="fill: url(#h6052db3c8f); stroke: #ff7f0e; stroke-width: 2; stroke-linejoin: miter"/>
   </g>
   <g id="patch_68">
    <path d="M 417.314487 301.524953 
L 421.5166 301.524953 
L 421.5166 267.245703 
L 417.314487 267.245703 
z
" clip-path="url(#p797934e073)" style="fill: url(#h6052db3c8f); stroke: #ff7f0e; stroke-width: 2; stroke-linejoin: miter"/>
   </g>
   <g id="patch_69">
    <path d="M 422.258149 301.524953 
L 426.460261 301.524953 
L 426.460261 267.238543 
L 422.258149 267.238543 
z
" clip-path="url(#p797934e073)" style="fill: url(#h6052db3c8f); stroke: #ff7f0e; stroke-width: 2; stroke-linejoin: miter"/>
   </g>
   <g id="patch_70">
    <path d="M 427.201811 301.524953 
L 431.403923 301.524953 
L 431.403923 266.787501 
L 427.201811 266.787501 
z
" clip-path="url(#p797934e073)" style="fill: url(#h6052db3c8f); stroke: #ff7f0e; stroke-width: 2; stroke-linejoin: miter"/>
   </g>
   <g id="patch_71">
    <path d="M 432.145472 301.524953 
L 436.347585 301.524953 
L 436.347585 266.773182 
L 432.145472 266.773182 
z
" clip-path="url(#p797934e073)" style="fill: url(#h6052db3c8f); stroke: #ff7f0e; stroke-width: 2; stroke-linejoin: miter"/>
   </g>
   <g id="patch_72">
    <path d="M 437.089134 301.524953 
L 441.291247 301.524953 
L 441.291247 266.400892 
L 437.089134 266.400892 
z
" clip-path="url(#p797934e073)" style="fill: url(#h6052db3c8f); stroke: #ff7f0e; stroke-width: 2; stroke-linejoin: miter"/>
   </g>
   <g id="patch_73">
    <path d="M 442.032796 301.524953 
L 446.234908 301.524953 
L 446.234908 266.329298 
L 442.032796 266.329298 
z
" clip-path="url(#p797934e073)" style="fill: url(#h6052db3c8f); stroke: #ff7f0e; stroke-width: 2; stroke-linejoin: miter"/>
   </g>
   <g id="patch_74">
    <path d="M 446.976457 301.524953 
L 451.17857 301.524953 
L 451.17857 265.935531 
L 446.976457 265.935531 
z
" clip-path="url(#p797934e073)" style="fill: url(#h6052db3c8f); stroke: #ff7f0e; stroke-width: 2; stroke-linejoin: miter"/>
   </g>
   <g id="patch_75">
    <path d="M 451.920119 301.524953 
L 456.122232 301.524953 
L 456.122232 265.928371 
L 451.920119 265.928371 
z
" clip-path="url(#p797934e073)" style="fill: url(#h6052db3c8f); stroke: #ff7f0e; stroke-width: 2; stroke-linejoin: miter"/>
   </g>
   <g id="patch_76">
    <path d="M 456.863781 301.524953 
L 461.065893 301.524953 
L 461.065893 265.620517 
L 456.863781 265.620517 
z
" clip-path="url(#p797934e073)" style="fill: url(#h6052db3c8f); stroke: #ff7f0e; stroke-width: 2; stroke-linejoin: miter"/>
   </g>
   <g id="patch_77">
    <path d="M 461.807443 301.524953 
L 466.009555 301.524953 
L 466.009555 265.556082 
L 461.807443 265.556082 
z
" clip-path="url(#p797934e073)" style="fill: url(#h6052db3c8f); stroke: #ff7f0e; stroke-width: 2; stroke-linejoin: miter"/>
   </g>
   <g id="patch_78">
    <path d="M 466.751104 301.524953 
L 470.953217 301.524953 
L 470.953217 265.470169 
L 466.751104 265.470169 
z
" clip-path="url(#p797934e073)" style="fill: url(#h6052db3c8f); stroke: #ff7f0e; stroke-width: 2; stroke-linejoin: miter"/>
   </g>
   <g id="patch_79">
    <path d="M 471.694766 301.524953 
L 475.896878 301.524953 
L 475.896878 265.169474 
L 471.694766 265.169474 
z
" clip-path="url(#p797934e073)" style="fill: url(#h6052db3c8f); stroke: #ff7f0e; stroke-width: 2; stroke-linejoin: miter"/>
   </g>
   <g id="patch_80">
    <path d="M 476.638428 301.524953 
L 480.84054 301.524953 
L 480.84054 264.940373 
L 476.638428 264.940373 
z
" clip-path="url(#p797934e073)" style="fill: url(#h6052db3c8f); stroke: #ff7f0e; stroke-width: 2; stroke-linejoin: miter"/>
   </g>
   <g id="patch_81">
    <path d="M 481.582089 301.524953 
L 485.784202 301.524953 
L 485.784202 264.632518 
L 481.582089 264.632518 
z
" clip-path="url(#p797934e073)" style="fill: url(#h6052db3c8f); stroke: #ff7f0e; stroke-width: 2; stroke-linejoin: miter"/>
   </g>
   <g id="patch_82">
    <path d="M 486.525751 301.524953 
L 490.727863 301.524953 
L 490.727863 264.467852 
L 486.525751 264.467852 
z
" clip-path="url(#p797934e073)" style="fill: url(#h6052db3c8f); stroke: #ff7f0e; stroke-width: 2; stroke-linejoin: miter"/>
   </g>
   <g id="patch_83">
    <path d="M 491.469413 301.524953 
L 495.671525 301.524953 
L 495.671525 264.317504 
L 491.469413 264.317504 
z
" clip-path="url(#p797934e073)" style="fill: url(#h6052db3c8f); stroke: #ff7f0e; stroke-width: 2; stroke-linejoin: miter"/>
   </g>
   <g id="patch_84">
    <path d="M 496.413074 301.524953 
L 500.615187 301.524953 
L 500.615187 264.00965 
L 496.413074 264.00965 
z
" clip-path="url(#p797934e073)" style="fill: url(#h6052db3c8f); stroke: #ff7f0e; stroke-width: 2; stroke-linejoin: miter"/>
   </g>
   <g id="patch_85">
    <path d="M 501.356736 301.524953 
L 505.558849 301.524953 
L 505.558849 263.938056 
L 501.356736 263.938056 
z
" clip-path="url(#p797934e073)" style="fill: url(#h6052db3c8f); stroke: #ff7f0e; stroke-width: 2; stroke-linejoin: miter"/>
   </g>
   <g id="patch_86">
    <path d="M 506.300398 301.524953 
L 510.50251 301.524953 
L 510.50251 263.551448 
L 506.300398 263.551448 
z
" clip-path="url(#p797934e073)" style="fill: url(#h6052db3c8f); stroke: #ff7f0e; stroke-width: 2; stroke-linejoin: miter"/>
   </g>
   <g id="patch_87">
    <path d="M 511.244059 301.524953 
L 515.446172 301.524953 
L 515.446172 263.021651 
L 511.244059 263.021651 
z
" clip-path="url(#p797934e073)" style="fill: url(#h6052db3c8f); stroke: #ff7f0e; stroke-width: 2; stroke-linejoin: miter"/>
   </g>
   <g id="patch_88">
    <path d="M 516.187721 301.524953 
L 520.389834 301.524953 
L 520.389834 263.007333 
L 516.187721 263.007333 
z
" clip-path="url(#p797934e073)" style="fill: url(#h6052db3c8f); stroke: #ff7f0e; stroke-width: 2; stroke-linejoin: miter"/>
   </g>
   <g id="patch_89">
    <path d="M 521.131383 301.524953 
L 525.333495 301.524953 
L 525.333495 262.864144 
L 521.131383 262.864144 
z
" clip-path="url(#p797934e073)" style="fill: url(#h6052db3c8f); stroke: #ff7f0e; stroke-width: 2; stroke-linejoin: miter"/>
   </g>
   <g id="patch_90">
    <path d="M 526.075045 301.524953 
L 530.277157 301.524953 
L 530.277157 262.856985 
L 526.075045 262.856985 
z
" clip-path="url(#p797934e073)" style="fill: url(#h6052db3c8f); stroke: #ff7f0e; stroke-width: 2; stroke-linejoin: miter"/>
   </g>
   <g id="patch_91">
    <path d="M 531.018706 301.524953 
L 535.220819 301.524953 
L 535.220819 262.241276 
L 531.018706 262.241276 
z
" clip-path="url(#p797934e073)" style="fill: url(#h6052db3c8f); stroke: #ff7f0e; stroke-width: 2; stroke-linejoin: miter"/>
   </g>
   <g id="patch_92">
    <path d="M 535.962368 301.524953 
L 540.16448 301.524953 
L 540.16448 261.396466 
L 535.962368 261.396466 
z
" clip-path="url(#p797934e073)" style="fill: url(#h6052db3c8f); stroke: #ff7f0e; stroke-width: 2; stroke-linejoin: miter"/>
   </g>
   <g id="patch_93">
    <path d="M 540.90603 301.524953 
L 545.108142 301.524953 
L 545.108142 260.780756 
L 540.90603 260.780756 
z
" clip-path="url(#p797934e073)" style="fill: url(#h6052db3c8f); stroke: #ff7f0e; stroke-width: 2; stroke-linejoin: miter"/>
   </g>
   <g id="patch_94">
    <path d="M 545.849691 301.524953 
L 550.051804 301.524953 
L 550.051804 259.320237 
L 545.849691 259.320237 
z
" clip-path="url(#p797934e073)" style="fill: url(#h6052db3c8f); stroke: #ff7f0e; stroke-width: 2; stroke-linejoin: miter"/>
   </g>
   <g id="patch_95">
    <path d="M 550.793353 301.524953 
L 554.995465 301.524953 
L 554.995465 259.255802 
L 550.793353 259.255802 
z
" clip-path="url(#p797934e073)" style="fill: url(#h6052db3c8f); stroke: #ff7f0e; stroke-width: 2; stroke-linejoin: miter"/>
   </g>
   <g id="patch_96">
    <path d="M 555.737015 301.524953 
L 559.939127 301.524953 
L 559.939127 258.940788 
L 555.737015 258.940788 
z
" clip-path="url(#p797934e073)" style="fill: url(#h6052db3c8f); stroke: #ff7f0e; stroke-width: 2; stroke-linejoin: miter"/>
   </g>
   <g id="patch_97">
    <path d="M 560.680676 301.524953 
L 564.882789 301.524953 
L 564.882789 258.718847 
L 560.680676 258.718847 
z
" clip-path="url(#p797934e073)" style="fill: url(#h6052db3c8f); stroke: #ff7f0e; stroke-width: 2; stroke-linejoin: miter"/>
   </g>
   <g id="patch_98">
    <path d="M 565.624338 301.524953 
L 569.826451 301.524953 
L 569.826451 254.251375 
L 565.624338 254.251375 
z
" clip-path="url(#p797934e073)" style="fill: url(#h6052db3c8f); stroke: #ff7f0e; stroke-width: 2; stroke-linejoin: miter"/>
   </g>
   <g id="patch_99">
    <path d="M 570.568 301.524953 
L 574.770112 301.524953 
L 574.770112 251.788539 
L 570.568 251.788539 
z
" clip-path="url(#p797934e073)" style="fill: url(#h6052db3c8f); stroke: #ff7f0e; stroke-width: 2; stroke-linejoin: miter"/>
   </g>
   <g id="patch_100">
    <path d="M 575.511662 301.524953 
L 579.713774 301.524953 
L 579.713774 251.337496 
L 575.511662 251.337496 
z
" clip-path="url(#p797934e073)" style="fill: url(#h6052db3c8f); stroke: #ff7f0e; stroke-width: 2; stroke-linejoin: miter"/>
   </g>
   <g id="patch_101">
    <path d="M 580.455323 301.524953 
L 584.657436 301.524953 
L 584.657436 249.175355 
L 580.455323 249.175355 
z
" clip-path="url(#p797934e073)" style="fill: url(#h6052db3c8f); stroke: #ff7f0e; stroke-width: 2; stroke-linejoin: miter"/>
   </g>
   <g id="patch_102">
    <path d="M 585.398985 301.524953 
L 589.601097 301.524953 
L 589.601097 248.330544 
L 585.398985 248.330544 
z
" clip-path="url(#p797934e073)" style="fill: url(#h6052db3c8f); stroke: #ff7f0e; stroke-width: 2; stroke-linejoin: miter"/>
   </g>
   <g id="patch_103">
    <path d="M 590.342647 301.524953 
L 594.544759 301.524953 
L 594.544759 239.345486 
L 590.342647 239.345486 
z
" clip-path="url(#p797934e073)" style="fill: url(#h6052db3c8f); stroke: #ff7f0e; stroke-width: 2; stroke-linejoin: miter"/>
   </g>
   <g id="patch_104">
    <path d="M 595.286308 301.524953 
L 599.488421 301.524953 
L 599.488421 237.949401 
L 595.286308 237.949401 
z
" clip-path="url(#p797934e073)" style="fill: url(#h6052db3c8f); stroke: #ff7f0e; stroke-width: 2; stroke-linejoin: miter"/>
   </g>
   <g id="patch_105">
    <path d="M 600.22997 301.524953 
L 604.432082 301.524953 
L 604.432082 234.269465 
L 600.22997 234.269465 
z
" clip-path="url(#p797934e073)" style="fill: url(#h6052db3c8f); stroke: #ff7f0e; stroke-width: 2; stroke-linejoin: miter"/>
   </g>
   <g id="patch_106">
    <path d="M 605.173632 301.524953 
L 609.375744 301.524953 
L 609.375744 233.646597 
L 605.173632 233.646597 
z
" clip-path="url(#p797934e073)" style="fill: url(#h6052db3c8f); stroke: #ff7f0e; stroke-width: 2; stroke-linejoin: miter"/>
   </g>
   <g id="patch_107">
    <path d="M 610.117293 301.524953 
L 614.319406 301.524953 
L 614.319406 183.530734 
L 610.117293 183.530734 
z
" clip-path="url(#p797934e073)" style="fill: url(#h6052db3c8f); stroke: #ff7f0e; stroke-width: 2; stroke-linejoin: miter"/>
   </g>
   <g id="patch_108">
    <path d="M 615.060955 301.524953 
L 619.263067 301.524953 
L 619.263067 180.538101 
L 615.060955 180.538101 
z
" clip-path="url(#p797934e073)" style="fill: url(#h6052db3c8f); stroke: #ff7f0e; stroke-width: 2; stroke-linejoin: miter"/>
   </g>
   <g id="patch_109">
    <path d="M 620.004617 301.524953 
L 624.206729 301.524953 
L 624.206729 164.31488 
L 620.004617 164.31488 
z
" clip-path="url(#p797934e073)" style="fill: url(#h6052db3c8f); stroke: #ff7f0e; stroke-width: 2; stroke-linejoin: miter"/>
   </g>
   <g id="patch_110">
    <path d="M 624.948278 301.524953 
L 629.150391 301.524953 
L 629.150391 163.47007 
L 624.948278 163.47007 
z
" clip-path="url(#p797934e073)" style="fill: url(#h6052db3c8f); stroke: #ff7f0e; stroke-width: 2; stroke-linejoin: miter"/>
   </g>
   <g id="patch_111">
    <path d="M 629.89194 301.524953 
L 634.094053 301.524953 
L 634.094053 151.012699 
L 629.89194 151.012699 
z
" clip-path="url(#p797934e073)" style="fill: url(#h6052db3c8f); stroke: #ff7f0e; stroke-width: 2; stroke-linejoin: miter"/>
   </g>
   <g id="patch_112">
    <path d="M 634.835602 301.524953 
L 639.037714 301.524953 
L 639.037714 134.560377 
L 634.835602 134.560377 
z
" clip-path="url(#p797934e073)" style="fill: url(#h6052db3c8f); stroke: #ff7f0e; stroke-width: 2; stroke-linejoin: miter"/>
   </g>
   <g id="patch_113">
    <path d="M 639.779264 301.524953 
L 643.981376 301.524953 
L 643.981376 134.180928 
L 639.779264 134.180928 
z
" clip-path="url(#p797934e073)" style="fill: url(#h6052db3c8f); stroke: #ff7f0e; stroke-width: 2; stroke-linejoin: miter"/>
   </g>
   <g id="patch_114">
    <path d="M 644.722925 301.524953 
L 648.925038 301.524953 
L 648.925038 131.718092 
L 644.722925 131.718092 
z
" clip-path="url(#p797934e073)" style="fill: url(#h6052db3c8f); stroke: #ff7f0e; stroke-width: 2; stroke-linejoin: miter"/>
   </g>
   <g id="patch_115">
    <path d="M 649.666587 301.524953 
L 653.868699 301.524953 
L 653.868699 68.521989 
L 649.666587 68.521989 
z
" clip-path="url(#p797934e073)" style="fill: url(#h6052db3c8f); stroke: #ff7f0e; stroke-width: 2; stroke-linejoin: miter"/>
   </g>
   <g id="patch_116">
    <path d="M 654.610249 301.524953 
L 658.812361 301.524953 
L 658.812361 55.778241 
L 654.610249 55.778241 
z
" clip-path="url(#p797934e073)" style="fill: url(#h6052db3c8f); stroke: #ff7f0e; stroke-width: 2; stroke-linejoin: miter"/>
   </g>
   <g id="patch_117">
    <path d="M 659.55391 301.524953 
L 663.756023 301.524953 
L 663.756023 47.938688 
L 659.55391 47.938688 
z
" clip-path="url(#p797934e073)" style="fill: url(#h6052db3c8f); stroke: #ff7f0e; stroke-width: 2; stroke-linejoin: miter"/>
   </g>
   <g id="line2d_26">
    <path d="M 67.5875 268.555875 
L 692.145 268.555875 
" clip-path="url(#p797934e073)" style="fill: none; stroke-dasharray: 4.44,1.92; stroke-dashoffset: 0; stroke: #f58518; stroke-width: 1.2"/>
   </g>
   <g id="patch_118">
    <path d="M 67.5875 301.524953 
L 67.5875 35.259375 
" style="fill: none; stroke: #808080; stroke-width: 0.8; stroke-linejoin: miter; stroke-linecap: square"/>
   </g>
   <g id="patch_119">
    <path d="M 67.5875 301.524953 
L 692.145 301.524953 
" style="fill: none; stroke: #808080; stroke-width: 0.8; stroke-linejoin: miter; stroke-linecap: square"/>
   </g>
   <g id="text_23">
    <text style="font: 22px 'PingFang SC', 'Heiti SC', 'STHeiti', 'Calibri', 'Arial', 'Helvetica Neue', 'Arial Unicode MS', 'Noto Sans CJK SC', 'DejaVu Sans', sans-serif; text-anchor: middle" x="379.86625" y="29.259375" transform="rotate(-0 379.86625 29.259375)">排序条形 · Launch sync p99 (us)</text>
   </g>
   <g id="legend_1">
    <g id="patch_120">
     <path d="M 75.9875 62.019375 
L 196.769375 62.019375 
Q 199.169375 62.019375 199.169375 59.619375 
L 199.169375 43.659375 
Q 199.169375 41.259375 196.769375 41.259375 
L 75.9875 41.259375 
Q 73.5875 41.259375 73.5875 43.659375 
L 73.5875 59.619375 
Q 73.5875 62.019375 75.9875 62.019375 
z
" style="fill: #ffffff; opacity: 0.5; stroke: #cccccc; stroke-linejoin: miter"/>
    </g>
    <g id="line2d_27">
     <path d="M 78.3875 51.410625 
L 90.3875 51.410625 
L 102.3875 51.410625 
" style="fill: none; stroke-dasharray: 4.44,1.92; stroke-dashoffset: 0; stroke: #f58518; stroke-width: 1.2"/>
    </g>
    <g id="text_24">
     <text style="font: 12px 'PingFang SC', 'Heiti SC', 'STHeiti', 'Calibri', 'Arial', 'Helvetica Neue', 'Arial Unicode MS', 'Noto Sans CJK SC', 'DejaVu Sans', sans-serif; text-anchor: start" x="111.9875" y="55.610625" transform="rotate(-0 111.9875 55.610625)">median=4.289</text>
    </g>
   </g>
  </g>
 </g>
 <defs>
  <clipPath id="p797934e073">
   <rect x="67.5875" y="35.259375" width="624.5575" height="266.265578"/>
  </clipPath>
 </defs>
 <defs>
  <pattern id="h08ec006583" patternUnits="userSpaceOnUse" x="0" y="0" width="72" height="72">
   <rect x="0" y="0" width="73" height="73" fill="none"/>
   <path d="M -36 36 
L 36 -36 
M -30 42 
L 42 -30 
M -24 48 
L 48 -24 
M -18 54 
L 54 -18 
M -12 60 
L 60 -12 
M -6 66 
L 66 -6 
M 0 72 
L 72 0 
M 6 78 
L 78 6 
M 12 84 
L 84 12 
M 18 90 
L 90 18 
M 24 96 
L 96 24 
M 30 102 
L 102 30 
M 36 108 
L 108 36 
M -36 36 
L 36 108 
M -30 30 
L 42 102 
M -24 24 
L 48 96 
M -18 18 
L 54 90 
M -12 12 
L 60 84 
M -6 6 
L 66 78 
M 0 0 
L 72 72 
M 6 -6 
L 78 66 
M 12 -12 
L 84 60 
M 18 -18 
L 90 54 
M 24 -24 
L 96 48 
M 30 -30 
L 102 42 
M 36 -36 
L 108 36 
" style="fill: #2ca02c; stroke: #2ca02c; stroke-width: 1.0; stroke-linecap: butt; stroke-linejoin: miter"/>
  </pattern>
  <pattern id="h6052db3c8f" patternUnits="userSpaceOnUse" x="0" y="0" width="72" height="72">
   <rect x="0" y="0" width="73" height="73" fill="none"/>
   <path d="M -36 36 
L 36 -36 
M -30 42 
L 42 -30 
M -24 48 
L 48 -24 
M -18 54 
L 54 -18 
M -12 60 
L 60 -12 
M -6 66 
L 66 -6 
M 0 72 
L 72 0 
M 6 78 
L 78 6 
M 12 84 
L 84 12 
M 18 90 
L 90 18 
M 24 96 
L 96 24 
M 30 102 
L 102 30 
M 36 108 
L 108 36 
" style="fill: #ff7f0e; stroke: #ff7f0e; stroke-width: 1.0; stroke-linecap: butt; stroke-linejoin: miter"/>
  </pattern>
 </defs>
</svg>
