<?xml version="1.0" encoding="utf-8" standalone="no"?>
<!DOCTYPE svg PUBLIC "-//W3C//DTD SVG 1.1//EN"
  "http://www.w3.org/Graphics/SVG/1.1/DTD/svg11.dtd">
<svg xmlns:xlink="http://www.w3.org/1999/xlink" width="702.94875pt" height="342.846086pt" viewBox="0 0 702.94875 342.846086" xmlns="http://www.w3.org/2000/svg" version="1.1">
 <metadata>
  <rdf:RDF xmlns:dc="http://purl.org/dc/elements/1.1/" xmlns:cc="http://creativecommons.org/ns#" xmlns:rdf="http://www.w3.org/1999/02/22-rdf-syntax-ns#">
   <cc:Work>
    <dc:type rdf:resource="http://purl.org/dc/dcmitype/StillImage"/>
    <dc:date>2026-07-11T23:31:16.875516</dc:date>
    <dc:format>image/svg+xml</dc:format>
    <dc:creator>
     <cc:Agent>
      <dc:title>Matplotlib v3.9.4, https://matplotlib.org/</dc:title>
     </cc:Agent>
    </dc:creator>
   </cc:Work>
  </rdf:RDF>
 </metadata>
 <defs>
  <style type="text/css">*{stroke-linejoin: round; stroke-linecap: butt}</style>
 </defs>
 <g id="figure_1">
  <g id="patch_1">
   <path d="M 0 342.846086 
L 702.94875 342.846086 
L 702.94875 0 
L 0 0 
z
" style="fill: #ffffff"/>
  </g>
  <g id="axes_1">
   <g id="patch_2">
    <path d="M 91.96625 301.498436 
L 692.14875 301.498436 
L 692.14875 35.259375 
L 91.96625 35.259375 
z
" style="fill: #ffffff"/>
   </g>
   <g id="matplotlib.axis_1">
    <g id="xtick_1">
     <g id="line2d_1">
      <defs>
       <path id="m4bdaaca877" d="M 0 0 
L 0 3.5 
" style="stroke: #808080; stroke-width: 0.8"/>
      </defs>
      <g>
       <use xlink:href="#m4bdaaca877" x="121.26633" y="301.498436" style="fill: #808080; stroke: #808080; stroke-width: 0.8"/>
      </g>
     </g>
     <g id="text_1">
      <text style="fill: #808080; font: 9px 'PingFang SC', 'Heiti SC', 'STHeiti', 'Calibri', 'Arial', 'Helvetica Neue', 'Arial Unicode MS', 'Noto Sans CJK SC', 'DejaVu Sans', sans-serif" transform="translate(106.310027 327.666886) rotate(-45)">w6.2</text>
     </g>
    </g>
    <g id="xtick_2">
     <g id="line2d_2">
      <g>
       <use xlink:href="#m4bdaaca877" x="154.521386" y="301.498436" style="fill: #808080; stroke: #808080; stroke-width: 0.8"/>
      </g>
     </g>
     <g id="text_2">
      <text style="fill: #808080; font: 9px 'PingFang SC', 'Heiti SC', 'STHeiti', 'Calibri', 'Arial', 'Helvetica Neue', 'Arial Unicode MS', 'Noto Sans CJK SC', 'DejaVu Sans', sans-serif" transform="translate(139.565083 327.666886) rotate(-45)">w3.7</text>
     </g>
    </g>
    <g id="xtick_3">
     <g id="line2d_3">
      <g>
       <use xlink:href="#m4bdaaca877" x="187.776442" y="301.498436" style="fill: #808080; stroke: #808080; stroke-width: 0.8"/>
      </g>
     </g>
     <g id="text_3">
      <text style="fill: #808080; font: 9px 'PingFang SC', 'Heiti SC', 'STHeiti', 'Calibri', 'Arial', 'Helvetica Neue', 'Arial Unicode MS', 'Noto Sans CJK SC', 'DejaVu Sans', sans-serif" transform="translate(172.820139 327.666886) rotate(-45)">w5.2</text>
     </g>
    </g>
    <g id="xtick_4">
     <g id="line2d_4">
      <g>
       <use xlink:href="#m4bdaaca877" x="221.031498" y="301.498436" style="fill: #808080; stroke: #808080; stroke-width: 0.8"/>
      </g>
     </g>
     <g id="text_4">
      <text style="fill: #808080; font: 9px 'PingFang SC', 'Heiti SC', 'STHeiti', 'Calibri', 'Arial', 'Helvetica Neue', 'Arial Unicode MS', 'Noto Sans CJK SC', 'DejaVu Sans', sans-serif" transform="translate(206.075195 327.666886) rotate(-45)">w3.5</text>
     </g>
    </g>
    <g id="xtick_5">
     <g id="line2d_5">
      <g>
       <use xlink:href="#m4bdaaca877" x="254.286554" y="301.498436" style="fill: #808080; stroke: #808080; stroke-width: 0.8"/>
      </g>
     </g>
     <g id="text_5">
      <text style="fill: #808080; font: 9px 'PingFang SC', 'Heiti SC', 'STHeiti', 'Calibri', 'Arial', 'Helvetica Neue', 'Arial Unicode MS', 'Noto Sans CJK SC', 'DejaVu Sans', sans-serif" transform="translate(239.330251 327.666886) rotate(-45)">w2.3</text>
     </g>
    </g>
    <g id="xtick_6">
     <g id="line2d_6">
      <g>
       <use xlink:href="#m4bdaaca877" x="287.54161" y="301.498436" style="fill: #808080; stroke: #808080; stroke-width: 0.8"/>
      </g>
     </g>
     <g id="text_6">
      <text style="fill: #808080; font: 9px 'PingFang SC', 'Heiti SC', 'STHeiti', 'Calibri', 'Arial', 'Helvetica Neue', 'Arial Unicode MS', 'Noto Sans CJK SC', 'DejaVu Sans', sans-serif" transform="translate(272.585307 327.666886) rotate(-45)">w0.3</text>
     </g>
    </g>
    <g id="xtick_7">
     <g id="line2d_7">
      <g>
       <use xlink:href="#m4bdaaca877" x="320.796666" y="301.498436" style="fill: #808080; stroke: #808080; stroke-width: 0.8"/>
      </g>
     </g>
     <g id="text_7">
      <text style="fill: #808080; font: 9px 'PingFang SC', 'Heiti SC', 'STHeiti', 'Calibri', 'Arial', 'Helvetica Neue', 'Arial Unicode MS', 'Noto Sans CJK SC', 'DejaVu Sans', sans-serif" transform="translate(305.15922 328.348028) rotate(-45)">m0.1</text>
     </g>
    </g>
    <g id="xtick_8">
     <g id="line2d_8">
      <g>
       <use xlink:href="#m4bdaaca877" x="354.051722" y="301.498436" style="fill: #808080; stroke: #808080; stroke-width: 0.8"/>
      </g>
     </g>
     <g id="text_8">
      <text style="fill: #808080; font: 9px 'PingFang SC', 'Heiti SC', 'STHeiti', 'Calibri', 'Arial', 'Helvetica Neue', 'Arial Unicode MS', 'Noto Sans CJK SC', 'DejaVu Sans', sans-serif" transform="translate(339.095419 327.666886) rotate(-45)">w6.3</text>
     </g>
    </g>
    <g id="xtick_9">
     <g id="line2d_9">
      <g>
       <use xlink:href="#m4bdaaca877" x="387.306778" y="301.498436" style="fill: #808080; stroke: #808080; stroke-width: 0.8"/>
      </g>
     </g>
     <g id="text_9">
      <text style="fill: #808080; font: 9px 'PingFang SC', 'Heiti SC', 'STHeiti', 'Calibri', 'Arial', 'Helvetica Neue', 'Arial Unicode MS', 'Noto Sans CJK SC', 'DejaVu Sans', sans-serif" transform="translate(372.350475 327.666886) rotate(-45)">w6.6</text>
     </g>
    </g>
    <g id="xtick_10">
     <g id="line2d_10">
      <g>
       <use xlink:href="#m4bdaaca877" x="420.561834" y="301.498436" style="fill: #808080; stroke: #808080; stroke-width: 0.8"/>
      </g>
     </g>
     <g id="text_10">
      <text style="fill: #808080; font: 9px 'PingFang SC', 'Heiti SC', 'STHeiti', 'Calibri', 'Arial', 'Helvetica Neue', 'Arial Unicode MS', 'Noto Sans CJK SC', 'DejaVu Sans', sans-serif" transform="translate(405.605531 327.666886) rotate(-45)">w8.3</text>
     </g>
    </g>
    <g id="xtick_11">
     <g id="line2d_11">
      <g>
       <use xlink:href="#m4bdaaca877" x="453.81689" y="301.498436" style="fill: #808080; stroke: #808080; stroke-width: 0.8"/>
      </g>
     </g>
     <g id="text_11">
      <text style="fill: #808080; font: 9px 'PingFang SC', 'Heiti SC', 'STHeiti', 'Calibri', 'Arial', 'Helvetica Neue', 'Arial Unicode MS', 'Noto Sans CJK SC', 'DejaVu Sans', sans-serif" transform="translate(438.860587 327.666886) rotate(-45)">w9.5</text>
     </g>
    </g>
    <g id="xtick_12">
     <g id="line2d_12">
      <g>
       <use xlink:href="#m4bdaaca877" x="487.071946" y="301.498436" style="fill: #808080; stroke: #808080; stroke-width: 0.8"/>
      </g>
     </g>
     <g id="text_12">
      <text style="fill: #808080; font: 9px 'PingFang SC', 'Heiti SC', 'STHeiti', 'Calibri', 'Arial', 'Helvetica Neue', 'Arial Unicode MS', 'Noto Sans CJK SC', 'DejaVu Sans', sans-serif" transform="translate(468.589611 331.192918) rotate(-45)">w13.4</text>
     </g>
    </g>
    <g id="xtick_13">
     <g id="line2d_13">
      <g>
       <use xlink:href="#m4bdaaca877" x="520.327002" y="301.498436" style="fill: #808080; stroke: #808080; stroke-width: 0.8"/>
      </g>
     </g>
     <g id="text_13">
      <text style="fill: #808080; font: 9px 'PingFang SC', 'Heiti SC', 'STHeiti', 'Calibri', 'Arial', 'Helvetica Neue', 'Arial Unicode MS', 'Noto Sans CJK SC', 'DejaVu Sans', sans-serif" transform="translate(505.370699 327.666886) rotate(-45)">w9.6</text>
     </g>
    </g>
    <g id="xtick_14">
     <g id="line2d_14">
      <g>
       <use xlink:href="#m4bdaaca877" x="553.582058" y="301.498436" style="fill: #808080; stroke: #808080; stroke-width: 0.8"/>
      </g>
     </g>
     <g id="text_14">
      <text style="fill: #808080; font: 9px 'PingFang SC', 'Heiti SC', 'STHeiti', 'Calibri', 'Arial', 'Helvetica Neue', 'Arial Unicode MS', 'Noto Sans CJK SC', 'DejaVu Sans', sans-serif" transform="translate(535.099723 331.192918) rotate(-45)">w10.0</text>
     </g>
    </g>
    <g id="xtick_15">
     <g id="line2d_15">
      <g>
       <use xlink:href="#m4bdaaca877" x="586.837114" y="301.498436" style="fill: #808080; stroke: #808080; stroke-width: 0.8"/>
      </g>
     </g>
     <g id="text_15">
      <text style="fill: #808080; font: 9px 'PingFang SC', 'Heiti SC', 'STHeiti', 'Calibri', 'Arial', 'Helvetica Neue', 'Arial Unicode MS', 'Noto Sans CJK SC', 'DejaVu Sans', sans-serif" transform="translate(571.880811 327.666886) rotate(-45)">w5.0</text>
     </g>
    </g>
    <g id="xtick_16">
     <g id="line2d_16">
      <g>
       <use xlink:href="#m4bdaaca877" x="620.09217" y="301.498436" style="fill: #808080; stroke: #808080; stroke-width: 0.8"/>
      </g>
     </g>
     <g id="text_16">
      <text style="fill: #808080; font: 9px 'PingFang SC', 'Heiti SC', 'STHeiti', 'Calibri', 'Arial', 'Helvetica Neue', 'Arial Unicode MS', 'Noto Sans CJK SC', 'DejaVu Sans', sans-serif" transform="translate(605.135867 327.666886) rotate(-45)">w1.4</text>
     </g>
    </g>
    <g id="xtick_17">
     <g id="line2d_17">
      <g>
       <use xlink:href="#m4bdaaca877" x="653.347226" y="301.498436" style="fill: #808080; stroke: #808080; stroke-width: 0.8"/>
      </g>
     </g>
     <g id="text_17">
      <text style="fill: #808080; font: 9px 'PingFang SC', 'Heiti SC', 'STHeiti', 'Calibri', 'Arial', 'Helvetica Neue', 'Arial Unicode MS', 'Noto Sans CJK SC', 'DejaVu Sans', sans-serif" transform="translate(634.864891 331.192918) rotate(-45)">w10.7</text>
     </g>
    </g>
   </g>
   <g id="matplotlib.axis_2">
    <g id="ytick_1">
     <g id="line2d_18">
      <path d="M 91.96625 301.498436 
L 692.14875 301.498436 
" clip-path="url(#p8d8ecad550)" style="fill: none; stroke-dasharray: 1,1.65; stroke-dashoffset: 0; stroke: #808080; stroke-opacity: 0.55"/>
     </g>
     <g id="line2d_19">
      <defs>
       <path id="m35149ff4b0" d="M 0 0 
L -3.5 0 
" style="stroke: #808080; stroke-width: 0.8"/>
      </defs>
      <g>
       <use xlink:href="#m35149ff4b0" x="91.96625" y="301.498436" style="fill: #808080; stroke: #808080; stroke-width: 0.8"/>
      </g>
     </g>
     <g id="text_18">
      <text style="fill: #808080; font: 22px 'PingFang SC', 'Heiti SC', 'STHeiti', 'Calibri', 'Arial', 'Helvetica Neue', 'Arial Unicode MS', 'Noto Sans CJK SC', 'DejaVu Sans', sans-serif; text-anchor: end" x="84.96625" y="310.253749" transform="rotate(-0 84.96625 310.253749)">0</text>
     </g>
    </g>
    <g id="ytick_2">
     <g id="line2d_20">
      <path d="M 91.96625 235.421208 
L 692.14875 235.421208 
" clip-path="url(#p8d8ecad550)" style="fill: none; stroke-dasharray: 1,1.65; stroke-dashoffset: 0; stroke: #808080; stroke-opacity: 0.55"/>
     </g>
     <g id="line2d_21">
      <g>
       <use xlink:href="#m35149ff4b0" x="91.96625" y="235.421208" style="fill: #808080; stroke: #808080; stroke-width: 0.8"/>
      </g>
     </g>
     <g id="text_19">
      <text style="fill: #808080; font: 22px 'PingFang SC', 'Heiti SC', 'STHeiti', 'Calibri', 'Arial', 'Helvetica Neue', 'Arial Unicode MS', 'Noto Sans CJK SC', 'DejaVu Sans', sans-serif; text-anchor: end" x="84.96625" y="244.17652" transform="rotate(-0 84.96625 244.17652)">500</text>
     </g>
    </g>
    <g id="ytick_3">
     <g id="line2d_22">
      <path d="M 91.96625 169.343979 
L 692.14875 169.343979 
" clip-path="url(#p8d8ecad550)" style="fill: none; stroke-dasharray: 1,1.65; stroke-dashoffset: 0; stroke: #808080; stroke-opacity: 0.55"/>
     </g>
     <g id="line2d_23">
      <g>
       <use xlink:href="#m35149ff4b0" x="91.96625" y="169.343979" style="fill: #808080; stroke: #808080; stroke-width: 0.8"/>
      </g>
     </g>
     <g id="text_20">
      <text style="fill: #808080; font: 22px 'PingFang SC', 'Heiti SC', 'STHeiti', 'Calibri', 'Arial', 'Helvetica Neue', 'Arial Unicode MS', 'Noto Sans CJK SC', 'DejaVu Sans', sans-serif; text-anchor: end" x="84.96625" y="178.099292" transform="rotate(-0 84.96625 178.099292)">1000</text>
     </g>
    </g>
    <g id="ytick_4">
     <g id="line2d_24">
      <path d="M 91.96625 103.266751 
L 692.14875 103.266751 
" clip-path="url(#p8d8ecad550)" style="fill: none; stroke-dasharray: 1,1.65; stroke-dashoffset: 0; stroke: #808080; stroke-opacity: 0.55"/>
     </g>
     <g id="line2d_25">
      <g>
       <use xlink:href="#m35149ff4b0" x="91.96625" y="103.266751" style="fill: #808080; stroke: #808080; stroke-width: 0.8"/>
      </g>
     </g>
     <g id="text_21">
      <text style="fill: #808080; font: 22px 'PingFang SC', 'Heiti SC', 'STHeiti', 'Calibri', 'Arial', 'Helvetica Neue', 'Arial Unicode MS', 'Noto Sans CJK SC', 'DejaVu Sans', sans-serif; text-anchor: end" x="84.96625" y="112.022063" transform="rotate(-0 84.96625 112.022063)">1500</text>
     </g>
    </g>
    <g id="ytick_5">
     <g id="line2d_26">
      <path d="M 91.96625 37.189522 
L 692.14875 37.189522 
" clip-path="url(#p8d8ecad550)" style="fill: none; stroke-dasharray: 1,1.65; stroke-dashoffset: 0; stroke: #808080; stroke-opacity: 0.55"/>
     </g>
     <g id="line2d_27">
      <g>
       <use xlink:href="#m35149ff4b0" x="91.96625" y="37.189522" style="fill: #808080; stroke: #808080; stroke-width: 0.8"/>
      </g>
     </g>
     <g id="text_22">
      <text style="fill: #808080; font: 22px 'PingFang SC', 'Heiti SC', 'STHeiti', 'Calibri', 'Arial', 'Helvetica Neue', 'Arial Unicode MS', 'Noto Sans CJK SC', 'DejaVu Sans', sans-serif; text-anchor: end" x="84.96625" y="45.944834" transform="rotate(-0 84.96625 45.944834)">2000</text>
     </g>
    </g>
    <g id="text_23">
     <text style="font: 22px 'PingFang SC', 'Heiti SC', 'STHeiti', 'Calibri', 'Arial', 'Helvetica Neue', 'Arial Unicode MS', 'Noto Sans CJK SC', 'DejaVu Sans', sans-serif; text-anchor: middle" x="29.259375" y="168.378906" transform="rotate(-90 29.259375 168.378906)">Burst total p50 (us)</text>
    </g>
   </g>
   <g id="patch_3">
    <path d="M 119.247273 301.498436 
L 123.285387 301.498436 
L 123.285387 222.129342 
L 119.247273 222.129342 
z
" clip-path="url(#p8d8ecad550)" style="fill: url(#hfc748d9489); stroke: #2ca02c; stroke-width: 2; stroke-linejoin: miter"/>
   </g>
   <g id="patch_4">
    <path d="M 123.997995 301.498436 
L 128.036109 301.498436 
L 128.036109 220.302735 
L 123.997995 220.302735 
z
" clip-path="url(#p8d8ecad550)" style="fill: url(#hfc748d9489); stroke: #2ca02c; stroke-width: 2; stroke-linejoin: miter"/>
   </g>
   <g id="patch_5">
    <path d="M 128.748717 301.498436 
L 132.786831 301.498436 
L 132.786831 219.381862 
L 128.748717 219.381862 
z
" clip-path="url(#p8d8ecad550)" style="fill: url(#hfc748d9489); stroke: #2ca02c; stroke-width: 2; stroke-linejoin: miter"/>
   </g>
   <g id="patch_6">
    <path d="M 133.49944 301.498436 
L 137.537554 301.498436 
L 137.537554 219.269738 
L 133.49944 219.269738 
z
" clip-path="url(#p8d8ecad550)" style="fill: url(#hfc748d9489); stroke: #2ca02c; stroke-width: 2; stroke-linejoin: miter"/>
   </g>
   <g id="patch_7">
    <path d="M 138.250162 301.498436 
L 142.288276 301.498436 
L 142.288276 219.112566 
L 138.250162 219.112566 
z
" clip-path="url(#p8d8ecad550)" style="fill: url(#hfc748d9489); stroke: #2ca02c; stroke-width: 2; stroke-linejoin: miter"/>
   </g>
   <g id="patch_8">
    <path d="M 143.000884 301.498436 
L 147.038998 301.498436 
L 147.038998 219.084381 
L 143.000884 219.084381 
z
" clip-path="url(#p8d8ecad550)" style="fill: url(#hfc748d9489); stroke: #2ca02c; stroke-width: 2; stroke-linejoin: miter"/>
   </g>
   <g id="patch_9">
    <path d="M 147.751606 301.498436 
L 151.78972 301.498436 
L 151.78972 215.656278 
L 147.751606 215.656278 
z
" clip-path="url(#p8d8ecad550)" style="fill: url(#hfc748d9489); stroke: #2ca02c; stroke-width: 2; stroke-linejoin: miter"/>
   </g>
   <g id="patch_10">
    <path d="M 152.502329 301.498436 
L 156.540443 301.498436 
L 156.540443 212.113712 
L 152.502329 212.113712 
z
" clip-path="url(#p8d8ecad550)" style="fill: url(#hfc748d9489); stroke: #2ca02c; stroke-width: 2; stroke-linejoin: miter"/>
   </g>
   <g id="patch_11">
    <path d="M 157.253051 301.498436 
L 161.291165 301.498436 
L 161.291165 210.027532 
L 157.253051 210.027532 
z
" clip-path="url(#p8d8ecad550)" style="fill: url(#hfc748d9489); stroke: #2ca02c; stroke-width: 2; stroke-linejoin: miter"/>
   </g>
   <g id="patch_12">
    <path d="M 162.003773 301.498436 
L 166.041887 301.498436 
L 166.041887 202.128974 
L 162.003773 202.128974 
z
" clip-path="url(#p8d8ecad550)" style="fill: url(#hfc748d9489); stroke: #2ca02c; stroke-width: 2; stroke-linejoin: miter"/>
   </g>
   <g id="patch_13">
    <path d="M 166.754496 301.498436 
L 170.79261 301.498436 
L 170.79261 200.154673 
L 166.754496 200.154673 
z
" clip-path="url(#p8d8ecad550)" style="fill: url(#hfc748d9489); stroke: #2ca02c; stroke-width: 2; stroke-linejoin: miter"/>
   </g>
   <g id="patch_14">
    <path d="M 171.505218 301.498436 
L 175.543332 301.498436 
L 175.543332 199.491157 
L 171.505218 199.491157 
z
" clip-path="url(#p8d8ecad550)" style="fill: url(#hfc748d9489); stroke: #2ca02c; stroke-width: 2; stroke-linejoin: miter"/>
   </g>
   <g id="patch_15">
    <path d="M 176.25594 301.498436 
L 180.294054 301.498436 
L 180.294054 198.91515 
L 176.25594 198.91515 
z
" clip-path="url(#p8d8ecad550)" style="fill: url(#hfc748d9489); stroke: #2ca02c; stroke-width: 2; stroke-linejoin: miter"/>
   </g>
   <g id="patch_16">
    <path d="M 181.006662 301.498436 
L 185.044776 301.498436 
L 185.044776 196.55869 
L 181.006662 196.55869 
z
" clip-path="url(#p8d8ecad550)" style="fill: url(#hfc748d9489); stroke: #2ca02c; stroke-width: 2; stroke-linejoin: miter"/>
   </g>
   <g id="patch_17">
    <path d="M 185.757385 301.498436 
L 189.795499 301.498436 
L 189.795499 194.701068 
L 185.757385 194.701068 
z
" clip-path="url(#p8d8ecad550)" style="fill: url(#hfc748d9489); stroke: #2ca02c; stroke-width: 2; stroke-linejoin: miter"/>
   </g>
   <g id="patch_18">
    <path d="M 190.508107 301.498436 
L 194.546221 301.498436 
L 194.546221 194.381187 
L 190.508107 194.381187 
z
" clip-path="url(#p8d8ecad550)" style="fill: url(#hfc748d9489); stroke: #2ca02c; stroke-width: 2; stroke-linejoin: miter"/>
   </g>
   <g id="patch_19">
    <path d="M 195.258829 301.498436 
L 199.296943 301.498436 
L 199.296943 193.590777 
L 195.258829 193.590777 
z
" clip-path="url(#p8d8ecad550)" style="fill: url(#hfc748d9489); stroke: #2ca02c; stroke-width: 2; stroke-linejoin: miter"/>
   </g>
   <g id="patch_20">
    <path d="M 200.009552 301.498436 
L 204.047666 301.498436 
L 204.047666 192.962954 
L 200.009552 192.962954 
z
" clip-path="url(#p8d8ecad550)" style="fill: url(#hfc748d9489); stroke: #2ca02c; stroke-width: 2; stroke-linejoin: miter"/>
   </g>
   <g id="patch_21">
    <path d="M 204.760274 301.498436 
L 208.798388 301.498436 
L 208.798388 192.611442 
L 204.760274 192.611442 
z
" clip-path="url(#p8d8ecad550)" style="fill: url(#hfc748d9489); stroke: #2ca02c; stroke-width: 2; stroke-linejoin: miter"/>
   </g>
   <g id="patch_22">
    <path d="M 209.510996 301.498436 
L 213.54911 301.498436 
L 213.54911 189.749376 
L 209.510996 189.749376 
z
" clip-path="url(#p8d8ecad550)" style="fill: url(#hfc748d9489); stroke: #2ca02c; stroke-width: 2; stroke-linejoin: miter"/>
   </g>
   <g id="patch_23">
    <path d="M 214.261718 301.498436 
L 218.299832 301.498436 
L 218.299832 188.907397 
L 214.261718 188.907397 
z
" clip-path="url(#p8d8ecad550)" style="fill: url(#hfc748d9489); stroke: #2ca02c; stroke-width: 2; stroke-linejoin: miter"/>
   </g>
   <g id="patch_24">
    <path d="M 219.012441 301.498436 
L 223.050555 301.498436 
L 223.050555 188.103818 
L 219.012441 188.103818 
z
" clip-path="url(#p8d8ecad550)" style="fill: url(#hfc748d9489); stroke: #2ca02c; stroke-width: 2; stroke-linejoin: miter"/>
   </g>
   <g id="patch_25">
    <path d="M 223.763163 301.498436 
L 227.801277 301.498436 
L 227.801277 186.199671 
L 223.763163 186.199671 
z
" clip-path="url(#p8d8ecad550)" style="fill: url(#hfc748d9489); stroke: #2ca02c; stroke-width: 2; stroke-linejoin: miter"/>
   </g>
   <g id="patch_26">
    <path d="M 228.513885 301.498436 
L 232.551999 301.498436 
L 232.551999 182.938093 
L 228.513885 182.938093 
z
" clip-path="url(#p8d8ecad550)" style="fill: url(#hfc748d9489); stroke: #2ca02c; stroke-width: 2; stroke-linejoin: miter"/>
   </g>
   <g id="patch_27">
    <path d="M 233.264608 301.498436 
L 237.302722 301.498436 
L 237.302722 176.823926 
L 233.264608 176.823926 
z
" clip-path="url(#p8d8ecad550)" style="fill: url(#hfc748d9489); stroke: #2ca02c; stroke-width: 2; stroke-linejoin: miter"/>
   </g>
   <g id="patch_28">
    <path d="M 238.01533 301.498436 
L 242.053444 301.498436 
L 242.053444 176.357828 
L 238.01533 176.357828 
z
" clip-path="url(#p8d8ecad550)" style="fill: url(#hfc748d9489); stroke: #2ca02c; stroke-width: 2; stroke-linejoin: miter"/>
   </g>
   <g id="patch_29">
    <path d="M 242.766052 301.498436 
L 246.804166 301.498436 
L 246.804166 170.285261 
L 242.766052 170.285261 
z
" clip-path="url(#p8d8ecad550)" style="fill: url(#hfc748d9489); stroke: #2ca02c; stroke-width: 2; stroke-linejoin: miter"/>
   </g>
   <g id="patch_30">
    <path d="M 247.516774 301.498436 
L 251.554888 301.498436 
L 251.554888 163.967522 
L 247.516774 163.967522 
z
" clip-path="url(#p8d8ecad550)" style="fill: url(#hfc748d9489); stroke: #2ca02c; stroke-width: 2; stroke-linejoin: miter"/>
   </g>
   <g id="patch_31">
    <path d="M 252.267497 301.498436 
L 256.305611 301.498436 
L 256.305611 163.031511 
L 252.267497 163.031511 
z
" clip-path="url(#p8d8ecad550)" style="fill: url(#hfc748d9489); stroke: #2ca02c; stroke-width: 2; stroke-linejoin: miter"/>
   </g>
   <g id="patch_32">
    <path d="M 257.018219 301.498436 
L 261.056333 301.498436 
L 261.056333 161.993714 
L 257.018219 161.993714 
z
" clip-path="url(#p8d8ecad550)" style="fill: url(#hfc748d9489); stroke: #2ca02c; stroke-width: 2; stroke-linejoin: miter"/>
   </g>
   <g id="patch_33">
    <path d="M 261.768941 301.498436 
L 265.807055 301.498436 
L 265.807055 157.772 
L 261.768941 157.772 
z
" clip-path="url(#p8d8ecad550)" style="fill: url(#hfc748d9489); stroke: #2ca02c; stroke-width: 2; stroke-linejoin: miter"/>
   </g>
   <g id="patch_34">
    <path d="M 266.519664 301.498436 
L 270.557778 301.498436 
L 270.557778 157.141839 
L 266.519664 157.141839 
z
" clip-path="url(#p8d8ecad550)" style="fill: url(#hfc748d9489); stroke: #2ca02c; stroke-width: 2; stroke-linejoin: miter"/>
   </g>
   <g id="patch_35">
    <path d="M 271.270386 301.498436 
L 275.3085 301.498436 
L 275.3085 157.056299 
L 271.270386 157.056299 
z
" clip-path="url(#p8d8ecad550)" style="fill: url(#hfc748d9489); stroke: #2ca02c; stroke-width: 2; stroke-linejoin: miter"/>
   </g>
   <g id="patch_36">
    <path d="M 276.021108 301.498436 
L 280.059222 301.498436 
L 280.059222 156.830081 
L 276.021108 156.830081 
z
" clip-path="url(#p8d8ecad550)" style="fill: url(#hfc748d9489); stroke: #2ca02c; stroke-width: 2; stroke-linejoin: miter"/>
   </g>
   <g id="patch_37">
    <path d="M 280.77183 301.498436 
L 284.809944 301.498436 
L 284.809944 155.564958 
L 280.77183 155.564958 
z
" clip-path="url(#p8d8ecad550)" style="fill: url(#hfc748d9489); stroke: #2ca02c; stroke-width: 2; stroke-linejoin: miter"/>
   </g>
   <g id="patch_38">
    <path d="M 285.522553 301.498436 
L 289.560667 301.498436 
L 289.560667 155.510065 
L 285.522553 155.510065 
z
" clip-path="url(#p8d8ecad550)" style="fill: url(#hfc748d9489); stroke: #2ca02c; stroke-width: 2; stroke-linejoin: miter"/>
   </g>
   <g id="patch_39">
    <path d="M 290.273275 301.498436 
L 294.311389 301.498436 
L 294.311389 154.95892 
L 290.273275 154.95892 
z
" clip-path="url(#p8d8ecad550)" style="fill: url(#hfc748d9489); stroke: #2ca02c; stroke-width: 2; stroke-linejoin: miter"/>
   </g>
   <g id="patch_40">
    <path d="M 295.023997 301.498436 
L 299.062111 301.498436 
L 299.062111 154.816764 
L 295.023997 154.816764 
z
" clip-path="url(#p8d8ecad550)" style="fill: url(#hfc748d9489); stroke: #2ca02c; stroke-width: 2; stroke-linejoin: miter"/>
   </g>
   <g id="patch_41">
    <path d="M 299.77472 301.498436 
L 303.812834 301.498436 
L 303.812834 154.654055 
L 299.77472 154.654055 
z
" clip-path="url(#p8d8ecad550)" style="fill: url(#hfc748d9489); stroke: #2ca02c; stroke-width: 2; stroke-linejoin: miter"/>
   </g>
   <g id="patch_42">
    <path d="M 304.525442 301.498436 
L 308.563556 301.498436 
L 308.563556 152.239994 
L 304.525442 152.239994 
z
" clip-path="url(#p8d8ecad550)" style="fill: url(#hfc748d9489); stroke: #2ca02c; stroke-width: 2; stroke-linejoin: miter"/>
   </g>
   <g id="patch_43">
    <path d="M 309.276164 301.498436 
L 313.314278 301.498436 
L 313.314278 150.215108 
L 309.276164 150.215108 
z
" clip-path="url(#p8d8ecad550)" style="fill: url(#hfc748d9489); stroke: #2ca02c; stroke-width: 2; stroke-linejoin: miter"/>
   </g>
   <g id="patch_44">
    <path d="M 314.026886 301.498436 
L 318.065 301.498436 
L 318.065 149.663717 
L 314.026886 149.663717 
z
" clip-path="url(#p8d8ecad550)" style="fill: url(#hfc748d9489); stroke: #2ca02c; stroke-width: 2; stroke-linejoin: miter"/>
   </g>
   <g id="patch_45">
    <path d="M 318.777609 301.498436 
L 322.815723 301.498436 
L 322.815723 148.921061 
L 318.777609 148.921061 
z
" clip-path="url(#p8d8ecad550)" style="fill: url(#hfc748d9489); stroke: #2ca02c; stroke-width: 2; stroke-linejoin: miter"/>
   </g>
   <g id="patch_46">
    <path d="M 323.528331 301.498436 
L 327.566445 301.498436 
L 327.566445 146.263429 
L 323.528331 146.263429 
z
" clip-path="url(#p8d8ecad550)" style="fill: url(#hfc748d9489); stroke: #2ca02c; stroke-width: 2; stroke-linejoin: miter"/>
   </g>
   <g id="patch_47">
    <path d="M 328.279053 301.498436 
L 332.317167 301.498436 
L 332.317167 145.265263 
L 328.279053 145.265263 
z
" clip-path="url(#p8d8ecad550)" style="fill: url(#hfc748d9489); stroke: #2ca02c; stroke-width: 2; stroke-linejoin: miter"/>
   </g>
   <g id="patch_48">
    <path d="M 333.029776 301.498436 
L 337.06789 301.498436 
L 337.06789 140.931056 
L 333.029776 140.931056 
z
" clip-path="url(#p8d8ecad550)" style="fill: url(#hfc748d9489); stroke: #2ca02c; stroke-width: 2; stroke-linejoin: miter"/>
   </g>
   <g id="patch_49">
    <path d="M 337.780498 301.498436 
L 341.818612 301.498436 
L 341.818612 137.583692 
L 337.780498 137.583692 
z
" clip-path="url(#p8d8ecad550)" style="fill: url(#hfc748d9489); stroke: #2ca02c; stroke-width: 2; stroke-linejoin: miter"/>
   </g>
   <g id="patch_50">
    <path d="M 342.53122 301.498436 
L 346.569334 301.498436 
L 346.569334 135.864902 
L 342.53122 135.864902 
z
" clip-path="url(#p8d8ecad550)" style="fill: url(#hfc748d9489); stroke: #2ca02c; stroke-width: 2; stroke-linejoin: miter"/>
   </g>
   <g id="patch_51">
    <path d="M 347.281942 301.498436 
L 351.320056 301.498436 
L 351.320056 135.613945 
L 347.281942 135.613945 
z
" clip-path="url(#p8d8ecad550)" style="fill: url(#hfc748d9489); stroke: #2ca02c; stroke-width: 2; stroke-linejoin: miter"/>
   </g>
   <g id="patch_52">
    <path d="M 352.032665 301.498436 
L 356.070779 301.498436 
L 356.070779 134.668948 
L 352.032665 134.668948 
z
" clip-path="url(#p8d8ecad550)" style="fill: url(#hfc748d9489); stroke: #2ca02c; stroke-width: 2; stroke-linejoin: miter"/>
   </g>
   <g id="patch_53">
    <path d="M 356.783387 301.498436 
L 360.821501 301.498436 
L 360.821501 133.894293 
L 356.783387 133.894293 
z
" clip-path="url(#p8d8ecad550)" style="fill: url(#hfc748d9489); stroke: #2ca02c; stroke-width: 2; stroke-linejoin: miter"/>
   </g>
   <g id="patch_54">
    <path d="M 361.534109 301.498436 
L 365.572223 301.498436 
L 365.572223 133.679029 
L 361.534109 133.679029 
z
" clip-path="url(#p8d8ecad550)" style="fill: url(#hfc748d9489); stroke: #2ca02c; stroke-width: 2; stroke-linejoin: miter"/>
   </g>
   <g id="patch_55">
    <path d="M 366.284832 301.498436 
L 370.322946 301.498436 
L 370.322946 132.550399 
L 366.284832 132.550399 
z
" clip-path="url(#p8d8ecad550)" style="fill: url(#hfc748d9489); stroke: #2ca02c; stroke-width: 2; stroke-linejoin: miter"/>
   </g>
   <g id="patch_56">
    <path d="M 371.035554 301.498436 
L 375.073668 301.498436 
L 375.073668 132.447752 
L 371.035554 132.447752 
z
" clip-path="url(#p8d8ecad550)" style="fill: url(#hfc748d9489); stroke: #2ca02c; stroke-width: 2; stroke-linejoin: miter"/>
   </g>
   <g id="patch_57">
    <path d="M 375.786276 301.498436 
L 379.82439 301.498436 
L 379.82439 129.580271 
L 375.786276 129.580271 
z
" clip-path="url(#p8d8ecad550)" style="fill: url(#hfc748d9489); stroke: #2ca02c; stroke-width: 2; stroke-linejoin: miter"/>
   </g>
   <g id="patch_58">
    <path d="M 380.536998 301.498436 
L 384.575112 301.498436 
L 384.575112 128.921186 
L 380.536998 128.921186 
z
" clip-path="url(#p8d8ecad550)" style="fill: url(#hfc748d9489); stroke: #2ca02c; stroke-width: 2; stroke-linejoin: miter"/>
   </g>
   <g id="patch_59">
    <path d="M 385.287721 301.498436 
L 389.325835 301.498436 
L 389.325835 127.741848 
L 385.287721 127.741848 
z
" clip-path="url(#p8d8ecad550)" style="fill: url(#hfc748d9489); stroke: #2ca02c; stroke-width: 2; stroke-linejoin: miter"/>
   </g>
   <g id="patch_60">
    <path d="M 390.038443 301.498436 
L 394.076557 301.498436 
L 394.076557 127.339259 
L 390.038443 127.339259 
z
" clip-path="url(#p8d8ecad550)" style="fill: url(#h9b61f31dd0); stroke: #ff7f0e; stroke-width: 2; stroke-linejoin: miter"/>
   </g>
   <g id="patch_61">
    <path d="M 394.789165 301.498436 
L 398.827279 301.498436 
L 398.827279 127.125595 
L 394.789165 127.125595 
z
" clip-path="url(#p8d8ecad550)" style="fill: url(#h9b61f31dd0); stroke: #ff7f0e; stroke-width: 2; stroke-linejoin: miter"/>
   </g>
   <g id="patch_62">
    <path d="M 399.539888 301.498436 
L 403.578002 301.498436 
L 403.578002 120.600838 
L 399.539888 120.600838 
z
" clip-path="url(#p8d8ecad550)" style="fill: url(#h9b61f31dd0); stroke: #ff7f0e; stroke-width: 2; stroke-linejoin: miter"/>
   </g>
   <g id="patch_63">
    <path d="M 404.29061 301.498436 
L 408.328724 301.498436 
L 408.328724 117.970406 
L 404.29061 117.970406 
z
" clip-path="url(#p8d8ecad550)" style="fill: url(#h9b61f31dd0); stroke: #ff7f0e; stroke-width: 2; stroke-linejoin: miter"/>
   </g>
   <g id="patch_64">
    <path d="M 409.041332 301.498436 
L 413.079446 301.498436 
L 413.079446 117.818773 
L 409.041332 117.818773 
z
" clip-path="url(#p8d8ecad550)" style="fill: url(#h9b61f31dd0); stroke: #ff7f0e; stroke-width: 2; stroke-linejoin: miter"/>
   </g>
   <g id="patch_65">
    <path d="M 413.792054 301.498436 
L 417.830168 301.498436 
L 417.830168 117.392306 
L 413.792054 117.392306 
z
" clip-path="url(#p8d8ecad550)" style="fill: url(#h9b61f31dd0); stroke: #ff7f0e; stroke-width: 2; stroke-linejoin: miter"/>
   </g>
   <g id="patch_66">
    <path d="M 418.542777 301.498436 
L 422.580891 301.498436 
L 422.580891 117.166334 
L 418.542777 117.166334 
z
" clip-path="url(#p8d8ecad550)" style="fill: url(#h9b61f31dd0); stroke: #ff7f0e; stroke-width: 2; stroke-linejoin: miter"/>
   </g>
   <g id="patch_67">
    <path d="M 423.293499 301.498436 
L 427.331613 301.498436 
L 427.331613 115.166187 
L 423.293499 115.166187 
z
" clip-path="url(#p8d8ecad550)" style="fill: url(#h9b61f31dd0); stroke: #ff7f0e; stroke-width: 2; stroke-linejoin: miter"/>
   </g>
   <g id="patch_68">
    <path d="M 428.044221 301.498436 
L 432.082335 301.498436 
L 432.082335 113.38795 
L 428.044221 113.38795 
z
" clip-path="url(#p8d8ecad550)" style="fill: url(#h9b61f31dd0); stroke: #ff7f0e; stroke-width: 2; stroke-linejoin: miter"/>
   </g>
   <g id="patch_69">
    <path d="M 432.794944 301.498436 
L 436.833058 301.498436 
L 436.833058 104.08039 
L 432.794944 104.08039 
z
" clip-path="url(#p8d8ecad550)" style="fill: url(#h9b61f31dd0); stroke: #ff7f0e; stroke-width: 2; stroke-linejoin: miter"/>
   </g>
   <g id="patch_70">
    <path d="M 437.545666 301.498436 
L 441.58378 301.498436 
L 441.58378 102.331076 
L 437.545666 102.331076 
z
" clip-path="url(#p8d8ecad550)" style="fill: url(#h9b61f31dd0); stroke: #ff7f0e; stroke-width: 2; stroke-linejoin: miter"/>
   </g>
   <g id="patch_71">
    <path d="M 442.296388 301.498436 
L 446.334502 301.498436 
L 446.334502 101.801469 
L 442.296388 101.801469 
z
" clip-path="url(#p8d8ecad550)" style="fill: url(#h9b61f31dd0); stroke: #ff7f0e; stroke-width: 2; stroke-linejoin: miter"/>
   </g>
   <g id="patch_72">
    <path d="M 447.04711 301.498436 
L 451.085224 301.498436 
L 451.085224 101.68356 
L 447.04711 101.68356 
z
" clip-path="url(#p8d8ecad550)" style="fill: url(#h9b61f31dd0); stroke: #ff7f0e; stroke-width: 2; stroke-linejoin: miter"/>
   </g>
   <g id="patch_73">
    <path d="M 451.797833 301.498436 
L 455.835947 301.498436 
L 455.835947 101.217216 
L 451.797833 101.217216 
z
" clip-path="url(#p8d8ecad550)" style="fill: url(#h9b61f31dd0); stroke: #ff7f0e; stroke-width: 2; stroke-linejoin: miter"/>
   </g>
   <g id="patch_74">
    <path d="M 456.548555 301.498436 
L 460.586669 301.498436 
L 460.586669 100.242927 
L 456.548555 100.242927 
z
" clip-path="url(#p8d8ecad550)" style="fill: url(#h9b61f31dd0); stroke: #ff7f0e; stroke-width: 2; stroke-linejoin: miter"/>
   </g>
   <g id="patch_75">
    <path d="M 461.299277 301.498436 
L 465.337391 301.498436 
L 465.337391 100.116895 
L 461.299277 100.116895 
z
" clip-path="url(#p8d8ecad550)" style="fill: url(#h9b61f31dd0); stroke: #ff7f0e; stroke-width: 2; stroke-linejoin: miter"/>
   </g>
   <g id="patch_76">
    <path d="M 466.05 301.498436 
L 470.088114 301.498436 
L 470.088114 99.680213 
L 466.05 99.680213 
z
" clip-path="url(#p8d8ecad550)" style="fill: url(#h9b61f31dd0); stroke: #ff7f0e; stroke-width: 2; stroke-linejoin: miter"/>
   </g>
   <g id="patch_77">
    <path d="M 470.800722 301.498436 
L 474.838836 301.498436 
L 474.838836 99.424825 
L 470.800722 99.424825 
z
" clip-path="url(#p8d8ecad550)" style="fill: url(#h9b61f31dd0); stroke: #ff7f0e; stroke-width: 2; stroke-linejoin: miter"/>
   </g>
   <g id="patch_78">
    <path d="M 475.551444 301.498436 
L 479.589558 301.498436 
L 479.589558 99.375101 
L 475.551444 99.375101 
z
" clip-path="url(#p8d8ecad550)" style="fill: url(#h9b61f31dd0); stroke: #ff7f0e; stroke-width: 2; stroke-linejoin: miter"/>
   </g>
   <g id="patch_79">
    <path d="M 480.302166 301.498436 
L 484.34028 301.498436 
L 484.34028 98.760201 
L 480.302166 98.760201 
z
" clip-path="url(#p8d8ecad550)" style="fill: url(#h9b61f31dd0); stroke: #ff7f0e; stroke-width: 2; stroke-linejoin: miter"/>
   </g>
   <g id="patch_80">
    <path d="M 485.052889 301.498436 
L 489.091003 301.498436 
L 489.091003 98.189364 
L 485.052889 98.189364 
z
" clip-path="url(#p8d8ecad550)" style="fill: url(#h9b61f31dd0); stroke: #ff7f0e; stroke-width: 2; stroke-linejoin: miter"/>
   </g>
   <g id="patch_81">
    <path d="M 489.803611 301.498436 
L 493.841725 301.498436 
L 493.841725 97.976069 
L 489.803611 97.976069 
z
" clip-path="url(#p8d8ecad550)" style="fill: url(#h9b61f31dd0); stroke: #ff7f0e; stroke-width: 2; stroke-linejoin: miter"/>
   </g>
   <g id="patch_82">
    <path d="M 494.554333 301.498436 
L 498.592447 301.498436 
L 498.592447 97.623695 
L 494.554333 97.623695 
z
" clip-path="url(#p8d8ecad550)" style="fill: url(#h9b61f31dd0); stroke: #ff7f0e; stroke-width: 2; stroke-linejoin: miter"/>
   </g>
   <g id="patch_83">
    <path d="M 499.305056 301.498436 
L 503.34317 301.498436 
L 503.34317 97.547879 
L 499.305056 97.547879 
z
" clip-path="url(#p8d8ecad550)" style="fill: url(#h9b61f31dd0); stroke: #ff7f0e; stroke-width: 2; stroke-linejoin: miter"/>
   </g>
   <g id="patch_84">
    <path d="M 504.055778 301.498436 
L 508.093892 301.498436 
L 508.093892 97.179874 
L 504.055778 97.179874 
z
" clip-path="url(#p8d8ecad550)" style="fill: url(#h9b61f31dd0); stroke: #ff7f0e; stroke-width: 2; stroke-linejoin: miter"/>
   </g>
   <g id="patch_85">
    <path d="M 508.8065 301.498436 
L 512.844614 301.498436 
L 512.844614 97.174459 
L 508.8065 97.174459 
z
" clip-path="url(#p8d8ecad550)" style="fill: url(#h9b61f31dd0); stroke: #ff7f0e; stroke-width: 2; stroke-linejoin: miter"/>
   </g>
   <g id="patch_86">
    <path d="M 513.557222 301.498436 
L 517.595336 301.498436 
L 517.595336 97.141474 
L 513.557222 97.141474 
z
" clip-path="url(#p8d8ecad550)" style="fill: url(#h9b61f31dd0); stroke: #ff7f0e; stroke-width: 2; stroke-linejoin: miter"/>
   </g>
   <g id="patch_87">
    <path d="M 518.307945 301.498436 
L 522.346059 301.498436 
L 522.346059 96.133708 
L 518.307945 96.133708 
z
" clip-path="url(#p8d8ecad550)" style="fill: url(#h9b61f31dd0); stroke: #ff7f0e; stroke-width: 2; stroke-linejoin: miter"/>
   </g>
   <g id="patch_88">
    <path d="M 523.058667 301.498436 
L 527.096781 301.498436 
L 527.096781 96.112292 
L 523.058667 96.112292 
z
" clip-path="url(#p8d8ecad550)" style="fill: url(#h9b61f31dd0); stroke: #ff7f0e; stroke-width: 2; stroke-linejoin: miter"/>
   </g>
   <g id="patch_89">
    <path d="M 527.809389 301.498436 
L 531.847503 301.498436 
L 531.847503 96.073768 
L 527.809389 96.073768 
z
" clip-path="url(#p8d8ecad550)" style="fill: url(#h9b61f31dd0); stroke: #ff7f0e; stroke-width: 2; stroke-linejoin: miter"/>
   </g>
   <g id="patch_90">
    <path d="M 532.560112 301.498436 
L 536.598226 301.498436 
L 536.598226 96.008537 
L 532.560112 96.008537 
z
" clip-path="url(#p8d8ecad550)" style="fill: url(#h9b61f31dd0); stroke: #ff7f0e; stroke-width: 2; stroke-linejoin: miter"/>
   </g>
   <g id="patch_91">
    <path d="M 537.310834 301.498436 
L 541.348948 301.498436 
L 541.348948 95.930136 
L 537.310834 95.930136 
z
" clip-path="url(#p8d8ecad550)" style="fill: url(#h9b61f31dd0); stroke: #ff7f0e; stroke-width: 2; stroke-linejoin: miter"/>
   </g>
   <g id="patch_92">
    <path d="M 542.061556 301.498436 
L 546.09967 301.498436 
L 546.09967 95.455669 
L 542.061556 95.455669 
z
" clip-path="url(#p8d8ecad550)" style="fill: url(#h9b61f31dd0); stroke: #ff7f0e; stroke-width: 2; stroke-linejoin: miter"/>
   </g>
   <g id="patch_93">
    <path d="M 546.812278 301.498436 
L 550.850392 301.498436 
L 550.850392 95.449268 
L 546.812278 95.449268 
z
" clip-path="url(#p8d8ecad550)" style="fill: url(#h9b61f31dd0); stroke: #ff7f0e; stroke-width: 2; stroke-linejoin: miter"/>
   </g>
   <g id="patch_94">
    <path d="M 551.563001 301.498436 
L 555.601115 301.498436 
L 555.601115 95.258497 
L 551.563001 95.258497 
z
" clip-path="url(#p8d8ecad550)" style="fill: url(#h9b61f31dd0); stroke: #ff7f0e; stroke-width: 2; stroke-linejoin: miter"/>
   </g>
   <g id="patch_95">
    <path d="M 556.313723 301.498436 
L 560.351837 301.498436 
L 560.351837 94.374055 
L 556.313723 94.374055 
z
" clip-path="url(#p8d8ecad550)" style="fill: url(#h9b61f31dd0); stroke: #ff7f0e; stroke-width: 2; stroke-linejoin: miter"/>
   </g>
   <g id="patch_96">
    <path d="M 561.064445 301.498436 
L 565.102559 301.498436 
L 565.102559 93.267826 
L 561.064445 93.267826 
z
" clip-path="url(#p8d8ecad550)" style="fill: url(#h9b61f31dd0); stroke: #ff7f0e; stroke-width: 2; stroke-linejoin: miter"/>
   </g>
   <g id="patch_97">
    <path d="M 565.815168 301.498436 
L 569.853282 301.498436 
L 569.853282 93.204687 
L 565.815168 93.204687 
z
" clip-path="url(#p8d8ecad550)" style="fill: url(#h9b61f31dd0); stroke: #ff7f0e; stroke-width: 2; stroke-linejoin: miter"/>
   </g>
   <g id="patch_98">
    <path d="M 570.56589 301.498436 
L 574.604004 301.498436 
L 574.604004 91.483066 
L 570.56589 91.483066 
z
" clip-path="url(#p8d8ecad550)" style="fill: url(#h9b61f31dd0); stroke: #ff7f0e; stroke-width: 2; stroke-linejoin: miter"/>
   </g>
   <g id="patch_99">
    <path d="M 575.316612 301.498436 
L 579.354726 301.498436 
L 579.354726 89.668767 
L 575.316612 89.668767 
z
" clip-path="url(#p8d8ecad550)" style="fill: url(#h9b61f31dd0); stroke: #ff7f0e; stroke-width: 2; stroke-linejoin: miter"/>
   </g>
   <g id="patch_100">
    <path d="M 580.067334 301.498436 
L 584.105448 301.498436 
L 584.105448 88.359951 
L 580.067334 88.359951 
z
" clip-path="url(#p8d8ecad550)" style="fill: url(#h9b61f31dd0); stroke: #ff7f0e; stroke-width: 2; stroke-linejoin: miter"/>
   </g>
   <g id="patch_101">
    <path d="M 584.818057 301.498436 
L 588.856171 301.498436 
L 588.856171 86.349342 
L 584.818057 86.349342 
z
" clip-path="url(#p8d8ecad550)" style="fill: url(#h9b61f31dd0); stroke: #ff7f0e; stroke-width: 2; stroke-linejoin: miter"/>
   </g>
   <g id="patch_102">
    <path d="M 589.568779 301.498436 
L 593.606893 301.498436 
L 593.606893 84.805323 
L 589.568779 84.805323 
z
" clip-path="url(#p8d8ecad550)" style="fill: url(#h9b61f31dd0); stroke: #ff7f0e; stroke-width: 2; stroke-linejoin: miter"/>
   </g>
   <g id="patch_103">
    <path d="M 594.319501 301.498436 
L 598.357615 301.498436 
L 598.357615 81.522575 
L 594.319501 81.522575 
z
" clip-path="url(#p8d8ecad550)" style="fill: url(#h9b61f31dd0); stroke: #ff7f0e; stroke-width: 2; stroke-linejoin: miter"/>
   </g>
   <g id="patch_104">
    <path d="M 599.070224 301.498436 
L 603.108338 301.498436 
L 603.108338 78.653001 
L 599.070224 78.653001 
z
" clip-path="url(#p8d8ecad550)" style="fill: url(#h9b61f31dd0); stroke: #ff7f0e; stroke-width: 2; stroke-linejoin: miter"/>
   </g>
   <g id="patch_105">
    <path d="M 603.820946 301.498436 
L 607.85906 301.498436 
L 607.85906 78.47183 
L 603.820946 78.47183 
z
" clip-path="url(#p8d8ecad550)" style="fill: url(#h9b61f31dd0); stroke: #ff7f0e; stroke-width: 2; stroke-linejoin: miter"/>
   </g>
   <g id="patch_106">
    <path d="M 608.571668 301.498436 
L 612.609782 301.498436 
L 612.609782 78.26912 
L 608.571668 78.26912 
z
" clip-path="url(#p8d8ecad550)" style="fill: url(#h9b61f31dd0); stroke: #ff7f0e; stroke-width: 2; stroke-linejoin: miter"/>
   </g>
   <g id="patch_107">
    <path d="M 613.32239 301.498436 
L 617.360504 301.498436 
L 617.360504 67.029105 
L 613.32239 67.029105 
z
" clip-path="url(#p8d8ecad550)" style="fill: url(#h9b61f31dd0); stroke: #ff7f0e; stroke-width: 2; stroke-linejoin: miter"/>
   </g>
   <g id="patch_108">
    <path d="M 618.073113 301.498436 
L 622.111227 301.498436 
L 622.111227 64.852094 
L 618.073113 64.852094 
z
" clip-path="url(#p8d8ecad550)" style="fill: url(#h9b61f31dd0); stroke: #ff7f0e; stroke-width: 2; stroke-linejoin: miter"/>
   </g>
   <g id="patch_109">
    <path d="M 622.823835 301.498436 
L 626.861949 301.498436 
L 626.861949 64.465012 
L 622.823835 64.465012 
z
" clip-path="url(#p8d8ecad550)" style="fill: url(#h9b61f31dd0); stroke: #ff7f0e; stroke-width: 2; stroke-linejoin: miter"/>
   </g>
   <g id="patch_110">
    <path d="M 627.574557 301.498436 
L 631.612671 301.498436 
L 631.612671 62.466465 
L 627.574557 62.466465 
z
" clip-path="url(#p8d8ecad550)" style="fill: url(#h9b61f31dd0); stroke: #ff7f0e; stroke-width: 2; stroke-linejoin: miter"/>
   </g>
   <g id="patch_111">
    <path d="M 632.32528 301.498436 
L 636.363394 301.498436 
L 636.363394 60.242438 
L 632.32528 60.242438 
z
" clip-path="url(#p8d8ecad550)" style="fill: url(#h9b61f31dd0); stroke: #ff7f0e; stroke-width: 2; stroke-linejoin: miter"/>
   </g>
   <g id="patch_112">
    <path d="M 637.076002 301.498436 
L 641.114116 301.498436 
L 641.114116 60.021266 
L 637.076002 60.021266 
z
" clip-path="url(#p8d8ecad550)" style="fill: url(#h9b61f31dd0); stroke: #ff7f0e; stroke-width: 2; stroke-linejoin: miter"/>
   </g>
   <g id="patch_113">
    <path d="M 641.826724 301.498436 
L 645.864838 301.498436 
L 645.864838 58.573617 
L 641.826724 58.573617 
z
" clip-path="url(#p8d8ecad550)" style="fill: url(#h9b61f31dd0); stroke: #ff7f0e; stroke-width: 2; stroke-linejoin: miter"/>
   </g>
   <g id="patch_114">
    <path d="M 646.577446 301.498436 
L 650.61556 301.498436 
L 650.61556 57.832316 
L 646.577446 57.832316 
z
" clip-path="url(#p8d8ecad550)" style="fill: url(#h9b61f31dd0); stroke: #ff7f0e; stroke-width: 2; stroke-linejoin: miter"/>
   </g>
   <g id="patch_115">
    <path d="M 651.328169 301.498436 
L 655.366283 301.498436 
L 655.366283 56.804857 
L 651.328169 56.804857 
z
" clip-path="url(#p8d8ecad550)" style="fill: url(#h9b61f31dd0); stroke: #ff7f0e; stroke-width: 2; stroke-linejoin: miter"/>
   </g>
   <g id="patch_116">
    <path d="M 656.078891 301.498436 
L 660.117005 301.498436 
L 660.117005 54.368273 
L 656.078891 54.368273 
z
" clip-path="url(#p8d8ecad550)" style="fill: url(#h9b61f31dd0); stroke: #ff7f0e; stroke-width: 2; stroke-linejoin: miter"/>
   </g>
   <g id="patch_117">
    <path d="M 660.829613 301.498436 
L 664.867727 301.498436 
L 664.867727 47.937426 
L 660.829613 47.937426 
z
" clip-path="url(#p8d8ecad550)" style="fill: url(#h9b61f31dd0); stroke: #ff7f0e; stroke-width: 2; stroke-linejoin: miter"/>
   </g>
   <g id="line2d_28">
    <path d="M 91.96625 127.339259 
L 692.14875 127.339259 
" clip-path="url(#p8d8ecad550)" style="fill: none; stroke-dasharray: 4.44,1.92; stroke-dashoffset: 0; stroke: #f58518; stroke-width: 1.2"/>
   </g>
   <g id="patch_118">
    <path d="M 91.96625 301.498436 
L 91.96625 35.259375 
" style="fill: none; stroke: #808080; stroke-width: 0.8; stroke-linejoin: miter; stroke-linecap: square"/>
   </g>
   <g id="patch_119">
    <path d="M 91.96625 301.498436 
L 692.14875 301.498436 
" style="fill: none; stroke: #808080; stroke-width: 0.8; stroke-linejoin: miter; stroke-linecap: square"/>
   </g>
   <g id="text_24">
    <text style="font: 22px 'PingFang SC', 'Heiti SC', 'STHeiti', 'Calibri', 'Arial', 'Helvetica Neue', 'Arial Unicode MS', 'Noto Sans CJK SC', 'DejaVu Sans', sans-serif; text-anchor: middle" x="392.0575" y="29.259375" transform="rotate(-0 392.0575 29.259375)">排序条形 · Burst total p50 (us)</text>
   </g>
   <g id="legend_1">
    <g id="patch_120">
     <path d="M 100.36625 62.019375 
L 217.82375 62.019375 
Q 220.22375 62.019375 220.22375 59.619375 
L 220.22375 43.659375 
Q 220.22375 41.259375 217.82375 41.259375 
L 100.36625 41.259375 
Q 97.96625 41.259375 97.96625 43.659375 
L 97.96625 59.619375 
Q 97.96625 62.019375 100.36625 62.019375 
z
" style="fill: #ffffff; opacity: 0.5; stroke: #cccccc; stroke-linejoin: miter"/>
    </g>
    <g id="line2d_29">
     <path d="M 102.76625 51.410625 
L 114.76625 51.410625 
L 126.76625 51.410625 
" style="fill: none; stroke-dasharray: 4.44,1.92; stroke-dashoffset: 0; stroke: #f58518; stroke-width: 1.2"/>
    </g>
    <g id="text_25">
     <text style="font: 12px 'PingFang SC', 'Heiti SC', 'STHeiti', 'Calibri', 'Arial', 'Helvetica Neue', 'Arial Unicode MS', 'Noto Sans CJK SC', 'DejaVu Sans', sans-serif; text-anchor: start" x="136.36625" y="55.610625" transform="rotate(-0 136.36625 55.610625)">median=1318</text>
    </g>
   </g>
  </g>
 </g>
 <defs>
  <clipPath id="p8d8ecad550">
   <rect x="91.96625" y="35.259375" width="600.1825" height="266.239061"/>
  </clipPath>
 </defs>
 <defs>
  <pattern id="hfc748d9489" patternUnits="userSpaceOnUse" x="0" y="0" width="72" height="72">
   <rect x="0" y="0" width="73" height="73" fill="none"/>
   <path d="M -36 36 
L 36 -36 
M -30 42 
L 42 -30 
M -24 48 
L 48 -24 
M -18 54 
L 54 -18 
M -12 60 
L 60 -12 
M -6 66 
L 66 -6 
M 0 72 
L 72 0 
M 6 78 
L 78 6 
M 12 84 
L 84 12 
M 18 90 
L 90 18 
M 24 96 
L 96 24 
M 30 102 
L 102 30 
M 36 108 
L 108 36 
M -36 36 
L 36 108 
M -30 30 
L 42 102 
M -24 24 
L 48 96 
M -18 18 
L 54 90 
M -12 12 
L 60 84 
M -6 6 
L 66 78 
M 0 0 
L 72 72 
M 6 -6 
L 78 66 
M 12 -12 
L 84 60 
M 18 -18 
L 90 54 
M 24 -24 
L 96 48 
M 30 -30 
L 102 42 
M 36 -36 
L 108 36 
" style="fill: #2ca02c; stroke: #2ca02c; stroke-width: 1.0; stroke-linecap: butt; stroke-linejoin: miter"/>
  </pattern>
  <pattern id="h9b61f31dd0" patternUnits="userSpaceOnUse" x="0" y="0" width="72" height="72">
   <rect x="0" y="0" width="73" height="73" fill="none"/>
   <path d="M -36 36 
L 36 -36 
M -30 42 
L 42 -30 
M -24 48 
L 48 -24 
M -18 54 
L 54 -18 
M -12 60 
L 60 -12 
M -6 66 
L 66 -6 
M 0 72 
L 72 0 
M 6 78 
L 78 6 
M 12 84 
L 84 12 
M 18 90 
L 90 18 
M 24 96 
L 96 24 
M 30 102 
L 102 30 
M 36 108 
L 108 36 
" style="fill: #ff7f0e; stroke: #ff7f0e; stroke-width: 1.0; stroke-linecap: butt; stroke-linejoin: miter"/>
  </pattern>
 </defs>
</svg>
