<?xml version="1.0" encoding="utf-8" standalone="no"?>
<!DOCTYPE svg PUBLIC "-//W3C//DTD SVG 1.1//EN"
  "http://www.w3.org/Graphics/SVG/1.1/DTD/svg11.dtd">
<svg xmlns:xlink="http://www.w3.org/1999/xlink" width="702.748125pt" height="342.717915pt" viewBox="0 0 702.748125 342.717915" xmlns="http://www.w3.org/2000/svg" version="1.1">
 <metadata>
  <rdf:RDF xmlns:dc="http://purl.org/dc/elements/1.1/" xmlns:cc="http://creativecommons.org/ns#" xmlns:rdf="http://www.w3.org/1999/02/22-rdf-syntax-ns#">
   <cc:Work>
    <dc:type rdf:resource="http://purl.org/dc/dcmitype/StillImage"/>
    <dc:date>2026-07-11T23:31:19.816744</dc:date>
    <dc:format>image/svg+xml</dc:format>
    <dc:creator>
     <cc:Agent>
      <dc:title>Matplotlib v3.9.4, https://matplotlib.org/</dc:title>
     </cc:Agent>
    </dc:creator>
   </cc:Work>
  </rdf:RDF>
 </metadata>
 <defs>
  <style type="text/css">*{stroke-linejoin: round; stroke-linecap: butt}</style>
 </defs>
 <g id="figure_1">
  <g id="patch_1">
   <path d="M 0 342.717915 
L 702.748125 342.717915 
L 702.748125 0 
L 0 0 
z
" style="fill: #ffffff"/>
  </g>
  <g id="axes_1">
   <g id="patch_2">
    <path d="M 78.828125 301.370265 
L 691.948125 301.370265 
L 691.948125 35.104688 
L 78.828125 35.104688 
z
" style="fill: #ffffff"/>
   </g>
   <g id="matplotlib.axis_1">
    <g id="xtick_1">
     <g id="line2d_1">
      <defs>
       <path id="mec28905912" d="M 0 0 
L 0 3.5 
" style="stroke: #808080; stroke-width: 0.8"/>
      </defs>
      <g>
       <use xlink:href="#mec28905912" x="108.759796" y="301.370265" style="fill: #808080; stroke: #808080; stroke-width: 0.8"/>
      </g>
     </g>
     <g id="text_1">
      <text style="fill: #808080; font: 9px 'PingFang SC', 'Heiti SC', 'STHeiti', 'Calibri', 'Arial', 'Helvetica Neue', 'Arial Unicode MS', 'Noto Sans CJK SC', 'DejaVu Sans', sans-serif" transform="translate(93.803493 327.538715) rotate(-45)">w7.0</text>
     </g>
    </g>
    <g id="xtick_2">
     <g id="line2d_2">
      <g>
       <use xlink:href="#mec28905912" x="142.731696" y="301.370265" style="fill: #808080; stroke: #808080; stroke-width: 0.8"/>
      </g>
     </g>
     <g id="text_2">
      <text style="fill: #808080; font: 9px 'PingFang SC', 'Heiti SC', 'STHeiti', 'Calibri', 'Arial', 'Helvetica Neue', 'Arial Unicode MS', 'Noto Sans CJK SC', 'DejaVu Sans', sans-serif" transform="translate(127.775393 327.538715) rotate(-45)">w9.4</text>
     </g>
    </g>
    <g id="xtick_3">
     <g id="line2d_3">
      <g>
       <use xlink:href="#mec28905912" x="176.703596" y="301.370265" style="fill: #808080; stroke: #808080; stroke-width: 0.8"/>
      </g>
     </g>
     <g id="text_3">
      <text style="fill: #808080; font: 9px 'PingFang SC', 'Heiti SC', 'STHeiti', 'Calibri', 'Arial', 'Helvetica Neue', 'Arial Unicode MS', 'Noto Sans CJK SC', 'DejaVu Sans', sans-serif" transform="translate(161.747293 327.538715) rotate(-45)">w0.0</text>
     </g>
    </g>
    <g id="xtick_4">
     <g id="line2d_4">
      <g>
       <use xlink:href="#mec28905912" x="210.675496" y="301.370265" style="fill: #808080; stroke: #808080; stroke-width: 0.8"/>
      </g>
     </g>
     <g id="text_4">
      <text style="fill: #808080; font: 9px 'PingFang SC', 'Heiti SC', 'STHeiti', 'Calibri', 'Arial', 'Helvetica Neue', 'Arial Unicode MS', 'Noto Sans CJK SC', 'DejaVu Sans', sans-serif" transform="translate(195.719193 327.538715) rotate(-45)">w1.0</text>
     </g>
    </g>
    <g id="xtick_5">
     <g id="line2d_5">
      <g>
       <use xlink:href="#mec28905912" x="244.647396" y="301.370265" style="fill: #808080; stroke: #808080; stroke-width: 0.8"/>
      </g>
     </g>
     <g id="text_5">
      <text style="fill: #808080; font: 9px 'PingFang SC', 'Heiti SC', 'STHeiti', 'Calibri', 'Arial', 'Helvetica Neue', 'Arial Unicode MS', 'Noto Sans CJK SC', 'DejaVu Sans', sans-serif" transform="translate(226.165061 331.064747) rotate(-45)">w13.6</text>
     </g>
    </g>
    <g id="xtick_6">
     <g id="line2d_6">
      <g>
       <use xlink:href="#mec28905912" x="278.619296" y="301.370265" style="fill: #808080; stroke: #808080; stroke-width: 0.8"/>
      </g>
     </g>
     <g id="text_6">
      <text style="fill: #808080; font: 9px 'PingFang SC', 'Heiti SC', 'STHeiti', 'Calibri', 'Arial', 'Helvetica Neue', 'Arial Unicode MS', 'Noto Sans CJK SC', 'DejaVu Sans', sans-serif" transform="translate(263.662993 327.538715) rotate(-45)">w8.7</text>
     </g>
    </g>
    <g id="xtick_7">
     <g id="line2d_7">
      <g>
       <use xlink:href="#mec28905912" x="312.591196" y="301.370265" style="fill: #808080; stroke: #808080; stroke-width: 0.8"/>
      </g>
     </g>
     <g id="text_7">
      <text style="fill: #808080; font: 9px 'PingFang SC', 'Heiti SC', 'STHeiti', 'Calibri', 'Arial', 'Helvetica Neue', 'Arial Unicode MS', 'Noto Sans CJK SC', 'DejaVu Sans', sans-serif" transform="translate(297.634893 327.538715) rotate(-45)">w3.3</text>
     </g>
    </g>
    <g id="xtick_8">
     <g id="line2d_8">
      <g>
       <use xlink:href="#mec28905912" x="346.563096" y="301.370265" style="fill: #808080; stroke: #808080; stroke-width: 0.8"/>
      </g>
     </g>
     <g id="text_8">
      <text style="fill: #808080; font: 9px 'PingFang SC', 'Heiti SC', 'STHeiti', 'Calibri', 'Arial', 'Helvetica Neue', 'Arial Unicode MS', 'Noto Sans CJK SC', 'DejaVu Sans', sans-serif" transform="translate(331.606794 327.538715) rotate(-45)">w1.2</text>
     </g>
    </g>
    <g id="xtick_9">
     <g id="line2d_9">
      <g>
       <use xlink:href="#mec28905912" x="380.534996" y="301.370265" style="fill: #808080; stroke: #808080; stroke-width: 0.8"/>
      </g>
     </g>
     <g id="text_9">
      <text style="fill: #808080; font: 9px 'PingFang SC', 'Heiti SC', 'STHeiti', 'Calibri', 'Arial', 'Helvetica Neue', 'Arial Unicode MS', 'Noto Sans CJK SC', 'DejaVu Sans', sans-serif" transform="translate(362.052661 331.064747) rotate(-45)">w13.2</text>
     </g>
    </g>
    <g id="xtick_10">
     <g id="line2d_10">
      <g>
       <use xlink:href="#mec28905912" x="414.506897" y="301.370265" style="fill: #808080; stroke: #808080; stroke-width: 0.8"/>
      </g>
     </g>
     <g id="text_10">
      <text style="fill: #808080; font: 9px 'PingFang SC', 'Heiti SC', 'STHeiti', 'Calibri', 'Arial', 'Helvetica Neue', 'Arial Unicode MS', 'Noto Sans CJK SC', 'DejaVu Sans', sans-serif" transform="translate(396.024562 331.064747) rotate(-45)">w12.6</text>
     </g>
    </g>
    <g id="xtick_11">
     <g id="line2d_11">
      <g>
       <use xlink:href="#mec28905912" x="448.478797" y="301.370265" style="fill: #808080; stroke: #808080; stroke-width: 0.8"/>
      </g>
     </g>
     <g id="text_11">
      <text style="fill: #808080; font: 9px 'PingFang SC', 'Heiti SC', 'STHeiti', 'Calibri', 'Arial', 'Helvetica Neue', 'Arial Unicode MS', 'Noto Sans CJK SC', 'DejaVu Sans', sans-serif" transform="translate(433.522494 327.538715) rotate(-45)">w9.5</text>
     </g>
    </g>
    <g id="xtick_12">
     <g id="line2d_12">
      <g>
       <use xlink:href="#mec28905912" x="482.450697" y="301.370265" style="fill: #808080; stroke: #808080; stroke-width: 0.8"/>
      </g>
     </g>
     <g id="text_12">
      <text style="fill: #808080; font: 9px 'PingFang SC', 'Heiti SC', 'STHeiti', 'Calibri', 'Arial', 'Helvetica Neue', 'Arial Unicode MS', 'Noto Sans CJK SC', 'DejaVu Sans', sans-serif" transform="translate(467.494394 327.538715) rotate(-45)">w4.5</text>
     </g>
    </g>
    <g id="xtick_13">
     <g id="line2d_13">
      <g>
       <use xlink:href="#mec28905912" x="516.422597" y="301.370265" style="fill: #808080; stroke: #808080; stroke-width: 0.8"/>
      </g>
     </g>
     <g id="text_13">
      <text style="fill: #808080; font: 9px 'PingFang SC', 'Heiti SC', 'STHeiti', 'Calibri', 'Arial', 'Helvetica Neue', 'Arial Unicode MS', 'Noto Sans CJK SC', 'DejaVu Sans', sans-serif" transform="translate(497.940262 331.064747) rotate(-45)">w14.0</text>
     </g>
    </g>
    <g id="xtick_14">
     <g id="line2d_14">
      <g>
       <use xlink:href="#mec28905912" x="550.394497" y="301.370265" style="fill: #808080; stroke: #808080; stroke-width: 0.8"/>
      </g>
     </g>
     <g id="text_14">
      <text style="fill: #808080; font: 9px 'PingFang SC', 'Heiti SC', 'STHeiti', 'Calibri', 'Arial', 'Helvetica Neue', 'Arial Unicode MS', 'Noto Sans CJK SC', 'DejaVu Sans', sans-serif" transform="translate(535.438194 327.538715) rotate(-45)">w5.0</text>
     </g>
    </g>
    <g id="xtick_15">
     <g id="line2d_15">
      <g>
       <use xlink:href="#mec28905912" x="584.366397" y="301.370265" style="fill: #808080; stroke: #808080; stroke-width: 0.8"/>
      </g>
     </g>
     <g id="text_15">
      <text style="fill: #808080; font: 9px 'PingFang SC', 'Heiti SC', 'STHeiti', 'Calibri', 'Arial', 'Helvetica Neue', 'Arial Unicode MS', 'Noto Sans CJK SC', 'DejaVu Sans', sans-serif" transform="translate(569.410094 327.538715) rotate(-45)">w9.7</text>
     </g>
    </g>
    <g id="xtick_16">
     <g id="line2d_16">
      <g>
       <use xlink:href="#mec28905912" x="618.338297" y="301.370265" style="fill: #808080; stroke: #808080; stroke-width: 0.8"/>
      </g>
     </g>
     <g id="text_16">
      <text style="fill: #808080; font: 9px 'PingFang SC', 'Heiti SC', 'STHeiti', 'Calibri', 'Arial', 'Helvetica Neue', 'Arial Unicode MS', 'Noto Sans CJK SC', 'DejaVu Sans', sans-serif" transform="translate(599.855962 331.064747) rotate(-45)">w12.3</text>
     </g>
    </g>
    <g id="xtick_17">
     <g id="line2d_17">
      <g>
       <use xlink:href="#mec28905912" x="652.310197" y="301.370265" style="fill: #808080; stroke: #808080; stroke-width: 0.8"/>
      </g>
     </g>
     <g id="text_17">
      <text style="fill: #808080; font: 9px 'PingFang SC', 'Heiti SC', 'STHeiti', 'Calibri', 'Arial', 'Helvetica Neue', 'Arial Unicode MS', 'Noto Sans CJK SC', 'DejaVu Sans', sans-serif" transform="translate(633.827862 331.064747) rotate(-45)">w11.3</text>
     </g>
    </g>
   </g>
   <g id="matplotlib.axis_2">
    <g id="ytick_1">
     <g id="line2d_18">
      <path d="M 78.828125 301.370265 
L 691.948125 301.370265 
" clip-path="url(#p69c23049bf)" style="fill: none; stroke-dasharray: 1,1.65; stroke-dashoffset: 0; stroke: #808080; stroke-opacity: 0.55"/>
     </g>
     <g id="line2d_19">
      <defs>
       <path id="m941ca37e47" d="M 0 0 
L -3.5 0 
" style="stroke: #808080; stroke-width: 0.8"/>
      </defs>
      <g>
       <use xlink:href="#m941ca37e47" x="78.828125" y="301.370265" style="fill: #808080; stroke: #808080; stroke-width: 0.8"/>
      </g>
     </g>
     <g id="text_18">
      <text style="fill: #808080; font: 22px 'PingFang SC', 'Heiti SC', 'STHeiti', 'Calibri', 'Arial', 'Helvetica Neue', 'Arial Unicode MS', 'Noto Sans CJK SC', 'DejaVu Sans', sans-serif; text-anchor: end" x="71.828125" y="310.125578" transform="rotate(-0 71.828125 310.125578)">0</text>
     </g>
    </g>
    <g id="ytick_2">
     <g id="line2d_20">
      <path d="M 78.828125 216.713017 
L 691.948125 216.713017 
" clip-path="url(#p69c23049bf)" style="fill: none; stroke-dasharray: 1,1.65; stroke-dashoffset: 0; stroke: #808080; stroke-opacity: 0.55"/>
     </g>
     <g id="line2d_21">
      <g>
       <use xlink:href="#m941ca37e47" x="78.828125" y="216.713017" style="fill: #808080; stroke: #808080; stroke-width: 0.8"/>
      </g>
     </g>
     <g id="text_19">
      <text style="fill: #808080; font: 22px 'PingFang SC', 'Heiti SC', 'STHeiti', 'Calibri', 'Arial', 'Helvetica Neue', 'Arial Unicode MS', 'Noto Sans CJK SC', 'DejaVu Sans', sans-serif; text-anchor: end" x="71.828125" y="225.468329" transform="rotate(-0 71.828125 225.468329)">100</text>
     </g>
    </g>
    <g id="ytick_3">
     <g id="line2d_22">
      <path d="M 78.828125 132.055768 
L 691.948125 132.055768 
" clip-path="url(#p69c23049bf)" style="fill: none; stroke-dasharray: 1,1.65; stroke-dashoffset: 0; stroke: #808080; stroke-opacity: 0.55"/>
     </g>
     <g id="line2d_23">
      <g>
       <use xlink:href="#m941ca37e47" x="78.828125" y="132.055768" style="fill: #808080; stroke: #808080; stroke-width: 0.8"/>
      </g>
     </g>
     <g id="text_20">
      <text style="fill: #808080; font: 22px 'PingFang SC', 'Heiti SC', 'STHeiti', 'Calibri', 'Arial', 'Helvetica Neue', 'Arial Unicode MS', 'Noto Sans CJK SC', 'DejaVu Sans', sans-serif; text-anchor: end" x="71.828125" y="140.811081" transform="rotate(-0 71.828125 140.811081)">200</text>
     </g>
    </g>
    <g id="ytick_4">
     <g id="line2d_24">
      <path d="M 78.828125 47.39852 
L 691.948125 47.39852 
" clip-path="url(#p69c23049bf)" style="fill: none; stroke-dasharray: 1,1.65; stroke-dashoffset: 0; stroke: #808080; stroke-opacity: 0.55"/>
     </g>
     <g id="line2d_25">
      <g>
       <use xlink:href="#m941ca37e47" x="78.828125" y="47.39852" style="fill: #808080; stroke: #808080; stroke-width: 0.8"/>
      </g>
     </g>
     <g id="text_21">
      <text style="fill: #808080; font: 22px 'PingFang SC', 'Heiti SC', 'STHeiti', 'Calibri', 'Arial', 'Helvetica Neue', 'Arial Unicode MS', 'Noto Sans CJK SC', 'DejaVu Sans', sans-serif; text-anchor: end" x="71.828125" y="56.153832" transform="rotate(-0 71.828125 56.153832)">300</text>
     </g>
    </g>
    <g id="text_22">
     <text style="font: 22px 'PingFang SC', 'Heiti SC', 'STHeiti', 'Calibri', 'Arial', 'Helvetica Neue', 'Arial Unicode MS', 'Noto Sans CJK SC', 'DejaVu Sans', sans-serif; text-anchor: middle" x="28.310625" y="168.237476" transform="rotate(-90 28.310625 168.237476)">Shape sweep peak TFLOPS</text>
    </g>
   </g>
   <g id="patch_3">
    <path d="M 106.697216 301.370265 
L 110.822375 301.370265 
L 110.822375 71.296614 
L 106.697216 71.296614 
z
" clip-path="url(#p69c23049bf)" style="fill: url(#h6a8596a81b); stroke: #2ca02c; stroke-width: 2; stroke-linejoin: miter"/>
   </g>
   <g id="patch_4">
    <path d="M 111.550344 301.370265 
L 115.675504 301.370265 
L 115.675504 68.958321 
L 111.550344 68.958321 
z
" clip-path="url(#p69c23049bf)" style="fill: url(#h6a8596a81b); stroke: #2ca02c; stroke-width: 2; stroke-linejoin: miter"/>
   </g>
   <g id="patch_5">
    <path d="M 116.403473 301.370265 
L 120.528632 301.370265 
L 120.528632 68.88165 
L 116.403473 68.88165 
z
" clip-path="url(#p69c23049bf)" style="fill: url(#h6a8596a81b); stroke: #2ca02c; stroke-width: 2; stroke-linejoin: miter"/>
   </g>
   <g id="patch_6">
    <path d="M 121.256602 301.370265 
L 125.381761 301.370265 
L 125.381761 68.81711 
L 121.256602 68.81711 
z
" clip-path="url(#p69c23049bf)" style="fill: url(#h6a8596a81b); stroke: #2ca02c; stroke-width: 2; stroke-linejoin: miter"/>
   </g>
   <g id="patch_7">
    <path d="M 126.10973 301.370265 
L 130.23489 301.370265 
L 130.23489 68.775151 
L 126.10973 68.775151 
z
" clip-path="url(#p69c23049bf)" style="fill: url(#h6a8596a81b); stroke: #2ca02c; stroke-width: 2; stroke-linejoin: miter"/>
   </g>
   <g id="patch_8">
    <path d="M 130.962859 301.370265 
L 135.088018 301.370265 
L 135.088018 68.734082 
L 130.962859 68.734082 
z
" clip-path="url(#p69c23049bf)" style="fill: url(#h6a8596a81b); stroke: #2ca02c; stroke-width: 2; stroke-linejoin: miter"/>
   </g>
   <g id="patch_9">
    <path d="M 135.815987 301.370265 
L 139.941147 301.370265 
L 139.941147 68.697755 
L 135.815987 68.697755 
z
" clip-path="url(#p69c23049bf)" style="fill: url(#h6a8596a81b); stroke: #2ca02c; stroke-width: 2; stroke-linejoin: miter"/>
   </g>
   <g id="patch_10">
    <path d="M 140.669116 301.370265 
L 144.794275 301.370265 
L 144.794275 68.691809 
L 140.669116 68.691809 
z
" clip-path="url(#p69c23049bf)" style="fill: url(#h6a8596a81b); stroke: #2ca02c; stroke-width: 2; stroke-linejoin: miter"/>
   </g>
   <g id="patch_11">
    <path d="M 145.522245 301.370265 
L 149.647404 301.370265 
L 149.647404 68.691205 
L 145.522245 68.691205 
z
" clip-path="url(#p69c23049bf)" style="fill: url(#h6a8596a81b); stroke: #2ca02c; stroke-width: 2; stroke-linejoin: miter"/>
   </g>
   <g id="patch_12">
    <path d="M 150.375373 301.370265 
L 154.500532 301.370265 
L 154.500532 68.690318 
L 150.375373 68.690318 
z
" clip-path="url(#p69c23049bf)" style="fill: url(#h6a8596a81b); stroke: #2ca02c; stroke-width: 2; stroke-linejoin: miter"/>
   </g>
   <g id="patch_13">
    <path d="M 155.228502 301.370265 
L 159.353661 301.370265 
L 159.353661 68.347643 
L 155.228502 68.347643 
z
" clip-path="url(#p69c23049bf)" style="fill: url(#h6a8596a81b); stroke: #2ca02c; stroke-width: 2; stroke-linejoin: miter"/>
   </g>
   <g id="patch_14">
    <path d="M 160.08163 301.370265 
L 164.20679 301.370265 
L 164.20679 67.176041 
L 160.08163 67.176041 
z
" clip-path="url(#p69c23049bf)" style="fill: url(#h6a8596a81b); stroke: #2ca02c; stroke-width: 2; stroke-linejoin: miter"/>
   </g>
   <g id="patch_15">
    <path d="M 164.934759 301.370265 
L 169.059918 301.370265 
L 169.059918 66.164058 
L 164.934759 66.164058 
z
" clip-path="url(#p69c23049bf)" style="fill: url(#h6a8596a81b); stroke: #2ca02c; stroke-width: 2; stroke-linejoin: miter"/>
   </g>
   <g id="patch_16">
    <path d="M 169.787888 301.370265 
L 173.913047 301.370265 
L 173.913047 65.860276 
L 169.787888 65.860276 
z
" clip-path="url(#p69c23049bf)" style="fill: url(#h6a8596a81b); stroke: #2ca02c; stroke-width: 2; stroke-linejoin: miter"/>
   </g>
   <g id="patch_17">
    <path d="M 174.641016 301.370265 
L 178.766175 301.370265 
L 178.766175 65.787933 
L 174.641016 65.787933 
z
" clip-path="url(#p69c23049bf)" style="fill: url(#h6a8596a81b); stroke: #2ca02c; stroke-width: 2; stroke-linejoin: miter"/>
   </g>
   <g id="patch_18">
    <path d="M 179.494145 301.370265 
L 183.619304 301.370265 
L 183.619304 65.522668 
L 179.494145 65.522668 
z
" clip-path="url(#p69c23049bf)" style="fill: url(#h6a8596a81b); stroke: #2ca02c; stroke-width: 2; stroke-linejoin: miter"/>
   </g>
   <g id="patch_19">
    <path d="M 184.347273 301.370265 
L 188.472433 301.370265 
L 188.472433 65.03395 
L 184.347273 65.03395 
z
" clip-path="url(#p69c23049bf)" style="fill: url(#h6a8596a81b); stroke: #2ca02c; stroke-width: 2; stroke-linejoin: miter"/>
   </g>
   <g id="patch_20">
    <path d="M 189.200402 301.370265 
L 193.325561 301.370265 
L 193.325561 64.53673 
L 189.200402 64.53673 
z
" clip-path="url(#p69c23049bf)" style="fill: url(#h6a8596a81b); stroke: #2ca02c; stroke-width: 2; stroke-linejoin: miter"/>
   </g>
   <g id="patch_21">
    <path d="M 194.05353 301.370265 
L 198.17869 301.370265 
L 198.17869 63.605344 
L 194.05353 63.605344 
z
" clip-path="url(#p69c23049bf)" style="fill: url(#h6a8596a81b); stroke: #2ca02c; stroke-width: 2; stroke-linejoin: miter"/>
   </g>
   <g id="patch_22">
    <path d="M 198.906659 301.370265 
L 203.031818 301.370265 
L 203.031818 63.599116 
L 198.906659 63.599116 
z
" clip-path="url(#p69c23049bf)" style="fill: url(#h6a8596a81b); stroke: #2ca02c; stroke-width: 2; stroke-linejoin: miter"/>
   </g>
   <g id="patch_23">
    <path d="M 203.759788 301.370265 
L 207.884947 301.370265 
L 207.884947 63.47529 
L 203.759788 63.47529 
z
" clip-path="url(#p69c23049bf)" style="fill: url(#h6a8596a81b); stroke: #2ca02c; stroke-width: 2; stroke-linejoin: miter"/>
   </g>
   <g id="patch_24">
    <path d="M 208.612916 301.370265 
L 212.738076 301.370265 
L 212.738076 63.469371 
L 208.612916 63.469371 
z
" clip-path="url(#p69c23049bf)" style="fill: url(#h6a8596a81b); stroke: #2ca02c; stroke-width: 2; stroke-linejoin: miter"/>
   </g>
   <g id="patch_25">
    <path d="M 213.466045 301.370265 
L 217.591204 301.370265 
L 217.591204 63.344165 
L 213.466045 63.344165 
z
" clip-path="url(#p69c23049bf)" style="fill: url(#h6a8596a81b); stroke: #2ca02c; stroke-width: 2; stroke-linejoin: miter"/>
   </g>
   <g id="patch_26">
    <path d="M 218.319173 301.370265 
L 222.444333 301.370265 
L 222.444333 63.319216 
L 218.319173 63.319216 
z
" clip-path="url(#p69c23049bf)" style="fill: url(#h6a8596a81b); stroke: #2ca02c; stroke-width: 2; stroke-linejoin: miter"/>
   </g>
   <g id="patch_27">
    <path d="M 223.172302 301.370265 
L 227.297461 301.370265 
L 227.297461 63.298331 
L 223.172302 63.298331 
z
" clip-path="url(#p69c23049bf)" style="fill: url(#h6a8596a81b); stroke: #2ca02c; stroke-width: 2; stroke-linejoin: miter"/>
   </g>
   <g id="patch_28">
    <path d="M 228.025431 301.370265 
L 232.15059 301.370265 
L 232.15059 63.228794 
L 228.025431 63.228794 
z
" clip-path="url(#p69c23049bf)" style="fill: url(#h6a8596a81b); stroke: #2ca02c; stroke-width: 2; stroke-linejoin: miter"/>
   </g>
   <g id="patch_29">
    <path d="M 232.878559 301.370265 
L 237.003718 301.370265 
L 237.003718 63.169206 
L 232.878559 63.169206 
z
" clip-path="url(#p69c23049bf)" style="fill: url(#h6a8596a81b); stroke: #2ca02c; stroke-width: 2; stroke-linejoin: miter"/>
   </g>
   <g id="patch_30">
    <path d="M 237.731688 301.370265 
L 241.856847 301.370265 
L 241.856847 63.078037 
L 237.731688 63.078037 
z
" clip-path="url(#p69c23049bf)" style="fill: url(#h6a8596a81b); stroke: #2ca02c; stroke-width: 2; stroke-linejoin: miter"/>
   </g>
   <g id="patch_31">
    <path d="M 242.584816 301.370265 
L 246.709976 301.370265 
L 246.709976 63.042734 
L 242.584816 63.042734 
z
" clip-path="url(#p69c23049bf)" style="fill: url(#h6a8596a81b); stroke: #2ca02c; stroke-width: 2; stroke-linejoin: miter"/>
   </g>
   <g id="patch_32">
    <path d="M 247.437945 301.370265 
L 251.563104 301.370265 
L 251.563104 62.973979 
L 247.437945 62.973979 
z
" clip-path="url(#p69c23049bf)" style="fill: url(#h6a8596a81b); stroke: #2ca02c; stroke-width: 2; stroke-linejoin: miter"/>
   </g>
   <g id="patch_33">
    <path d="M 252.291074 301.370265 
L 256.416233 301.370265 
L 256.416233 62.958028 
L 252.291074 62.958028 
z
" clip-path="url(#p69c23049bf)" style="fill: url(#h6a8596a81b); stroke: #2ca02c; stroke-width: 2; stroke-linejoin: miter"/>
   </g>
   <g id="patch_34">
    <path d="M 257.144202 301.370265 
L 261.269361 301.370265 
L 261.269361 62.863564 
L 257.144202 62.863564 
z
" clip-path="url(#p69c23049bf)" style="fill: url(#h6a8596a81b); stroke: #2ca02c; stroke-width: 2; stroke-linejoin: miter"/>
   </g>
   <g id="patch_35">
    <path d="M 261.997331 301.370265 
L 266.12249 301.370265 
L 266.12249 62.725192 
L 261.997331 62.725192 
z
" clip-path="url(#p69c23049bf)" style="fill: url(#h6a8596a81b); stroke: #2ca02c; stroke-width: 2; stroke-linejoin: miter"/>
   </g>
   <g id="patch_36">
    <path d="M 266.850459 301.370265 
L 270.975619 301.370265 
L 270.975619 61.9568 
L 266.850459 61.9568 
z
" clip-path="url(#p69c23049bf)" style="fill: url(#h6a8596a81b); stroke: #2ca02c; stroke-width: 2; stroke-linejoin: miter"/>
   </g>
   <g id="patch_37">
    <path d="M 271.703588 301.370265 
L 275.828747 301.370265 
L 275.828747 61.831238 
L 271.703588 61.831238 
z
" clip-path="url(#p69c23049bf)" style="fill: url(#h6a8596a81b); stroke: #2ca02c; stroke-width: 2; stroke-linejoin: miter"/>
   </g>
   <g id="patch_38">
    <path d="M 276.556716 301.370265 
L 280.681876 301.370265 
L 280.681876 61.444306 
L 276.556716 61.444306 
z
" clip-path="url(#p69c23049bf)" style="fill: url(#h6a8596a81b); stroke: #2ca02c; stroke-width: 2; stroke-linejoin: miter"/>
   </g>
   <g id="patch_39">
    <path d="M 281.409845 301.370265 
L 285.535004 301.370265 
L 285.535004 61.342632 
L 281.409845 61.342632 
z
" clip-path="url(#p69c23049bf)" style="fill: url(#h6a8596a81b); stroke: #2ca02c; stroke-width: 2; stroke-linejoin: miter"/>
   </g>
   <g id="patch_40">
    <path d="M 286.262974 301.370265 
L 290.388133 301.370265 
L 290.388133 61.327728 
L 286.262974 61.327728 
z
" clip-path="url(#p69c23049bf)" style="fill: url(#h6a8596a81b); stroke: #2ca02c; stroke-width: 2; stroke-linejoin: miter"/>
   </g>
   <g id="patch_41">
    <path d="M 291.116102 301.370265 
L 295.241262 301.370265 
L 295.241262 61.268451 
L 291.116102 61.268451 
z
" clip-path="url(#p69c23049bf)" style="fill: url(#h6a8596a81b); stroke: #2ca02c; stroke-width: 2; stroke-linejoin: miter"/>
   </g>
   <g id="patch_42">
    <path d="M 295.969231 301.370265 
L 300.09439 301.370265 
L 300.09439 61.000822 
L 295.969231 61.000822 
z
" clip-path="url(#p69c23049bf)" style="fill: url(#h6a8596a81b); stroke: #2ca02c; stroke-width: 2; stroke-linejoin: miter"/>
   </g>
   <g id="patch_43">
    <path d="M 300.822359 301.370265 
L 304.947519 301.370265 
L 304.947519 60.865058 
L 300.822359 60.865058 
z
" clip-path="url(#p69c23049bf)" style="fill: url(#h6a8596a81b); stroke: #2ca02c; stroke-width: 2; stroke-linejoin: miter"/>
   </g>
   <g id="patch_44">
    <path d="M 305.675488 301.370265 
L 309.800647 301.370265 
L 309.800647 60.804585 
L 305.675488 60.804585 
z
" clip-path="url(#p69c23049bf)" style="fill: url(#h6a8596a81b); stroke: #2ca02c; stroke-width: 2; stroke-linejoin: miter"/>
   </g>
   <g id="patch_45">
    <path d="M 310.528617 301.370265 
L 314.653776 301.370265 
L 314.653776 60.739943 
L 310.528617 60.739943 
z
" clip-path="url(#p69c23049bf)" style="fill: url(#h6a8596a81b); stroke: #2ca02c; stroke-width: 2; stroke-linejoin: miter"/>
   </g>
   <g id="patch_46">
    <path d="M 315.381745 301.370265 
L 319.506904 301.370265 
L 319.506904 60.531471 
L 315.381745 60.531471 
z
" clip-path="url(#p69c23049bf)" style="fill: url(#h6a8596a81b); stroke: #2ca02c; stroke-width: 2; stroke-linejoin: miter"/>
   </g>
   <g id="patch_47">
    <path d="M 320.234874 301.370265 
L 324.360033 301.370265 
L 324.360033 60.51424 
L 320.234874 60.51424 
z
" clip-path="url(#p69c23049bf)" style="fill: url(#h6a8596a81b); stroke: #2ca02c; stroke-width: 2; stroke-linejoin: miter"/>
   </g>
   <g id="patch_48">
    <path d="M 325.088002 301.370265 
L 329.213162 301.370265 
L 329.213162 60.303452 
L 325.088002 60.303452 
z
" clip-path="url(#p69c23049bf)" style="fill: url(#h6a8596a81b); stroke: #2ca02c; stroke-width: 2; stroke-linejoin: miter"/>
   </g>
   <g id="patch_49">
    <path d="M 329.941131 301.370265 
L 334.06629 301.370265 
L 334.06629 60.09197 
L 329.941131 60.09197 
z
" clip-path="url(#p69c23049bf)" style="fill: url(#h6a8596a81b); stroke: #2ca02c; stroke-width: 2; stroke-linejoin: miter"/>
   </g>
   <g id="patch_50">
    <path d="M 334.794259 301.370265 
L 338.919419 301.370265 
L 338.919419 59.931118 
L 334.794259 59.931118 
z
" clip-path="url(#p69c23049bf)" style="fill: url(#h6a8596a81b); stroke: #2ca02c; stroke-width: 2; stroke-linejoin: miter"/>
   </g>
   <g id="patch_51">
    <path d="M 339.647388 301.370265 
L 343.772547 301.370265 
L 343.772547 59.894876 
L 339.647388 59.894876 
z
" clip-path="url(#p69c23049bf)" style="fill: url(#h6a8596a81b); stroke: #2ca02c; stroke-width: 2; stroke-linejoin: miter"/>
   </g>
   <g id="patch_52">
    <path d="M 344.500517 301.370265 
L 348.625676 301.370265 
L 348.625676 59.841297 
L 344.500517 59.841297 
z
" clip-path="url(#p69c23049bf)" style="fill: url(#h6a8596a81b); stroke: #2ca02c; stroke-width: 2; stroke-linejoin: miter"/>
   </g>
   <g id="patch_53">
    <path d="M 349.353645 301.370265 
L 353.478805 301.370265 
L 353.478805 59.781609 
L 349.353645 59.781609 
z
" clip-path="url(#p69c23049bf)" style="fill: url(#h6a8596a81b); stroke: #2ca02c; stroke-width: 2; stroke-linejoin: miter"/>
   </g>
   <g id="patch_54">
    <path d="M 354.206774 301.370265 
L 358.331933 301.370265 
L 358.331933 59.763946 
L 354.206774 59.763946 
z
" clip-path="url(#p69c23049bf)" style="fill: url(#h6a8596a81b); stroke: #2ca02c; stroke-width: 2; stroke-linejoin: miter"/>
   </g>
   <g id="patch_55">
    <path d="M 359.059902 301.370265 
L 363.185062 301.370265 
L 363.185062 59.739542 
L 359.059902 59.739542 
z
" clip-path="url(#p69c23049bf)" style="fill: url(#h6a8596a81b); stroke: #2ca02c; stroke-width: 2; stroke-linejoin: miter"/>
   </g>
   <g id="patch_56">
    <path d="M 363.913031 301.370265 
L 368.03819 301.370265 
L 368.03819 59.717373 
L 363.913031 59.717373 
z
" clip-path="url(#p69c23049bf)" style="fill: url(#h6a8596a81b); stroke: #2ca02c; stroke-width: 2; stroke-linejoin: miter"/>
   </g>
   <g id="patch_57">
    <path d="M 368.76616 301.370265 
L 372.891319 301.370265 
L 372.891319 59.639311 
L 368.76616 59.639311 
z
" clip-path="url(#p69c23049bf)" style="fill: url(#h6a8596a81b); stroke: #2ca02c; stroke-width: 2; stroke-linejoin: miter"/>
   </g>
   <g id="patch_58">
    <path d="M 373.619288 301.370265 
L 377.744447 301.370265 
L 377.744447 59.527395 
L 373.619288 59.527395 
z
" clip-path="url(#p69c23049bf)" style="fill: url(#h6a8596a81b); stroke: #2ca02c; stroke-width: 2; stroke-linejoin: miter"/>
   </g>
   <g id="patch_59">
    <path d="M 378.472417 301.370265 
L 382.597576 301.370265 
L 382.597576 59.432131 
L 378.472417 59.432131 
z
" clip-path="url(#p69c23049bf)" style="fill: url(#h6a8596a81b); stroke: #2ca02c; stroke-width: 2; stroke-linejoin: miter"/>
   </g>
   <g id="patch_60">
    <path d="M 383.325545 301.370265 
L 387.450705 301.370265 
L 387.450705 59.263306 
L 383.325545 59.263306 
z
" clip-path="url(#p69c23049bf)" style="fill: url(#hca41a9a363); stroke: #ff7f0e; stroke-width: 2; stroke-linejoin: miter"/>
   </g>
   <g id="patch_61">
    <path d="M 388.178674 301.370265 
L 392.303833 301.370265 
L 392.303833 59.041273 
L 388.178674 59.041273 
z
" clip-path="url(#p69c23049bf)" style="fill: url(#hca41a9a363); stroke: #ff7f0e; stroke-width: 2; stroke-linejoin: miter"/>
   </g>
   <g id="patch_62">
    <path d="M 393.031803 301.370265 
L 397.156962 301.370265 
L 397.156962 59.030606 
L 393.031803 59.030606 
z
" clip-path="url(#p69c23049bf)" style="fill: url(#hca41a9a363); stroke: #ff7f0e; stroke-width: 2; stroke-linejoin: miter"/>
   </g>
   <g id="patch_63">
    <path d="M 397.884931 301.370265 
L 402.01009 301.370265 
L 402.01009 58.960172 
L 397.884931 58.960172 
z
" clip-path="url(#p69c23049bf)" style="fill: url(#hca41a9a363); stroke: #ff7f0e; stroke-width: 2; stroke-linejoin: miter"/>
   </g>
   <g id="patch_64">
    <path d="M 402.73806 301.370265 
L 406.863219 301.370265 
L 406.863219 58.915872 
L 402.73806 58.915872 
z
" clip-path="url(#p69c23049bf)" style="fill: url(#hca41a9a363); stroke: #ff7f0e; stroke-width: 2; stroke-linejoin: miter"/>
   </g>
   <g id="patch_65">
    <path d="M 407.591188 301.370265 
L 411.716348 301.370265 
L 411.716348 58.894862 
L 407.591188 58.894862 
z
" clip-path="url(#p69c23049bf)" style="fill: url(#hca41a9a363); stroke: #ff7f0e; stroke-width: 2; stroke-linejoin: miter"/>
   </g>
   <g id="patch_66">
    <path d="M 412.444317 301.370265 
L 416.569476 301.370265 
L 416.569476 58.825313 
L 412.444317 58.825313 
z
" clip-path="url(#p69c23049bf)" style="fill: url(#hca41a9a363); stroke: #ff7f0e; stroke-width: 2; stroke-linejoin: miter"/>
   </g>
   <g id="patch_67">
    <path d="M 417.297445 301.370265 
L 421.422605 301.370265 
L 421.422605 58.816248 
L 417.297445 58.816248 
z
" clip-path="url(#p69c23049bf)" style="fill: url(#hca41a9a363); stroke: #ff7f0e; stroke-width: 2; stroke-linejoin: miter"/>
   </g>
   <g id="patch_68">
    <path d="M 422.150574 301.370265 
L 426.275733 301.370265 
L 426.275733 58.799099 
L 422.150574 58.799099 
z
" clip-path="url(#p69c23049bf)" style="fill: url(#hca41a9a363); stroke: #ff7f0e; stroke-width: 2; stroke-linejoin: miter"/>
   </g>
   <g id="patch_69">
    <path d="M 427.003703 301.370265 
L 431.128862 301.370265 
L 431.128862 58.727873 
L 427.003703 58.727873 
z
" clip-path="url(#p69c23049bf)" style="fill: url(#hca41a9a363); stroke: #ff7f0e; stroke-width: 2; stroke-linejoin: miter"/>
   </g>
   <g id="patch_70">
    <path d="M 431.856831 301.370265 
L 435.981991 301.370265 
L 435.981991 58.701966 
L 431.856831 58.701966 
z
" clip-path="url(#p69c23049bf)" style="fill: url(#hca41a9a363); stroke: #ff7f0e; stroke-width: 2; stroke-linejoin: miter"/>
   </g>
   <g id="patch_71">
    <path d="M 436.70996 301.370265 
L 440.835119 301.370265 
L 440.835119 58.686095 
L 436.70996 58.686095 
z
" clip-path="url(#p69c23049bf)" style="fill: url(#hca41a9a363); stroke: #ff7f0e; stroke-width: 2; stroke-linejoin: miter"/>
   </g>
   <g id="patch_72">
    <path d="M 441.563088 301.370265 
L 445.688248 301.370265 
L 445.688248 58.67897 
L 441.563088 58.67897 
z
" clip-path="url(#p69c23049bf)" style="fill: url(#hca41a9a363); stroke: #ff7f0e; stroke-width: 2; stroke-linejoin: miter"/>
   </g>
   <g id="patch_73">
    <path d="M 446.416217 301.370265 
L 450.541376 301.370265 
L 450.541376 58.570377 
L 446.416217 58.570377 
z
" clip-path="url(#p69c23049bf)" style="fill: url(#hca41a9a363); stroke: #ff7f0e; stroke-width: 2; stroke-linejoin: miter"/>
   </g>
   <g id="patch_74">
    <path d="M 451.269346 301.370265 
L 455.394505 301.370265 
L 455.394505 58.415288 
L 451.269346 58.415288 
z
" clip-path="url(#p69c23049bf)" style="fill: url(#hca41a9a363); stroke: #ff7f0e; stroke-width: 2; stroke-linejoin: miter"/>
   </g>
   <g id="patch_75">
    <path d="M 456.122474 301.370265 
L 460.247633 301.370265 
L 460.247633 58.153301 
L 456.122474 58.153301 
z
" clip-path="url(#p69c23049bf)" style="fill: url(#hca41a9a363); stroke: #ff7f0e; stroke-width: 2; stroke-linejoin: miter"/>
   </g>
   <g id="patch_76">
    <path d="M 460.975603 301.370265 
L 465.100762 301.370265 
L 465.100762 58.002242 
L 460.975603 58.002242 
z
" clip-path="url(#p69c23049bf)" style="fill: url(#hca41a9a363); stroke: #ff7f0e; stroke-width: 2; stroke-linejoin: miter"/>
   </g>
   <g id="patch_77">
    <path d="M 465.828731 301.370265 
L 469.953891 301.370265 
L 469.953891 57.942283 
L 465.828731 57.942283 
z
" clip-path="url(#p69c23049bf)" style="fill: url(#hca41a9a363); stroke: #ff7f0e; stroke-width: 2; stroke-linejoin: miter"/>
   </g>
   <g id="patch_78">
    <path d="M 470.68186 301.370265 
L 474.807019 301.370265 
L 474.807019 57.908707 
L 470.68186 57.908707 
z
" clip-path="url(#p69c23049bf)" style="fill: url(#hca41a9a363); stroke: #ff7f0e; stroke-width: 2; stroke-linejoin: miter"/>
   </g>
   <g id="patch_79">
    <path d="M 475.534988 301.370265 
L 479.660148 301.370265 
L 479.660148 57.868259 
L 475.534988 57.868259 
z
" clip-path="url(#p69c23049bf)" style="fill: url(#hca41a9a363); stroke: #ff7f0e; stroke-width: 2; stroke-linejoin: miter"/>
   </g>
   <g id="patch_80">
    <path d="M 480.388117 301.370265 
L 484.513276 301.370265 
L 484.513276 57.863361 
L 480.388117 57.863361 
z
" clip-path="url(#p69c23049bf)" style="fill: url(#hca41a9a363); stroke: #ff7f0e; stroke-width: 2; stroke-linejoin: miter"/>
   </g>
   <g id="patch_81">
    <path d="M 485.241246 301.370265 
L 489.366405 301.370265 
L 489.366405 57.841838 
L 485.241246 57.841838 
z
" clip-path="url(#p69c23049bf)" style="fill: url(#hca41a9a363); stroke: #ff7f0e; stroke-width: 2; stroke-linejoin: miter"/>
   </g>
   <g id="patch_82">
    <path d="M 490.094374 301.370265 
L 494.219534 301.370265 
L 494.219534 57.836296 
L 490.094374 57.836296 
z
" clip-path="url(#p69c23049bf)" style="fill: url(#hca41a9a363); stroke: #ff7f0e; stroke-width: 2; stroke-linejoin: miter"/>
   </g>
   <g id="patch_83">
    <path d="M 494.947503 301.370265 
L 499.072662 301.370265 
L 499.072662 57.717158 
L 494.947503 57.717158 
z
" clip-path="url(#p69c23049bf)" style="fill: url(#hca41a9a363); stroke: #ff7f0e; stroke-width: 2; stroke-linejoin: miter"/>
   </g>
   <g id="patch_84">
    <path d="M 499.800631 301.370265 
L 503.925791 301.370265 
L 503.925791 57.696271 
L 499.800631 57.696271 
z
" clip-path="url(#p69c23049bf)" style="fill: url(#hca41a9a363); stroke: #ff7f0e; stroke-width: 2; stroke-linejoin: miter"/>
   </g>
   <g id="patch_85">
    <path d="M 504.65376 301.370265 
L 508.778919 301.370265 
L 508.778919 57.678944 
L 504.65376 57.678944 
z
" clip-path="url(#p69c23049bf)" style="fill: url(#hca41a9a363); stroke: #ff7f0e; stroke-width: 2; stroke-linejoin: miter"/>
   </g>
   <g id="patch_86">
    <path d="M 509.506889 301.370265 
L 513.632048 301.370265 
L 513.632048 57.639102 
L 509.506889 57.639102 
z
" clip-path="url(#p69c23049bf)" style="fill: url(#hca41a9a363); stroke: #ff7f0e; stroke-width: 2; stroke-linejoin: miter"/>
   </g>
   <g id="patch_87">
    <path d="M 514.360017 301.370265 
L 518.485176 301.370265 
L 518.485176 57.522382 
L 514.360017 57.522382 
z
" clip-path="url(#p69c23049bf)" style="fill: url(#hca41a9a363); stroke: #ff7f0e; stroke-width: 2; stroke-linejoin: miter"/>
   </g>
   <g id="patch_88">
    <path d="M 519.213146 301.370265 
L 523.338305 301.370265 
L 523.338305 57.368899 
L 519.213146 57.368899 
z
" clip-path="url(#p69c23049bf)" style="fill: url(#hca41a9a363); stroke: #ff7f0e; stroke-width: 2; stroke-linejoin: miter"/>
   </g>
   <g id="patch_89">
    <path d="M 524.066274 301.370265 
L 528.191434 301.370265 
L 528.191434 57.306655 
L 524.066274 57.306655 
z
" clip-path="url(#p69c23049bf)" style="fill: url(#hca41a9a363); stroke: #ff7f0e; stroke-width: 2; stroke-linejoin: miter"/>
   </g>
   <g id="patch_90">
    <path d="M 528.919403 301.370265 
L 533.044562 301.370265 
L 533.044562 57.27847 
L 528.919403 57.27847 
z
" clip-path="url(#p69c23049bf)" style="fill: url(#hca41a9a363); stroke: #ff7f0e; stroke-width: 2; stroke-linejoin: miter"/>
   </g>
   <g id="patch_91">
    <path d="M 533.772532 301.370265 
L 537.897691 301.370265 
L 537.897691 57.23324 
L 533.772532 57.23324 
z
" clip-path="url(#p69c23049bf)" style="fill: url(#hca41a9a363); stroke: #ff7f0e; stroke-width: 2; stroke-linejoin: miter"/>
   </g>
   <g id="patch_92">
    <path d="M 538.62566 301.370265 
L 542.750819 301.370265 
L 542.750819 57.231267 
L 538.62566 57.231267 
z
" clip-path="url(#p69c23049bf)" style="fill: url(#hca41a9a363); stroke: #ff7f0e; stroke-width: 2; stroke-linejoin: miter"/>
   </g>
   <g id="patch_93">
    <path d="M 543.478789 301.370265 
L 547.603948 301.370265 
L 547.603948 57.212916 
L 543.478789 57.212916 
z
" clip-path="url(#p69c23049bf)" style="fill: url(#hca41a9a363); stroke: #ff7f0e; stroke-width: 2; stroke-linejoin: miter"/>
   </g>
   <g id="patch_94">
    <path d="M 548.331917 301.370265 
L 552.457077 301.370265 
L 552.457077 57.197494 
L 548.331917 57.197494 
z
" clip-path="url(#p69c23049bf)" style="fill: url(#hca41a9a363); stroke: #ff7f0e; stroke-width: 2; stroke-linejoin: miter"/>
   </g>
   <g id="patch_95">
    <path d="M 553.185046 301.370265 
L 557.310205 301.370265 
L 557.310205 57.185687 
L 553.185046 57.185687 
z
" clip-path="url(#p69c23049bf)" style="fill: url(#hca41a9a363); stroke: #ff7f0e; stroke-width: 2; stroke-linejoin: miter"/>
   </g>
   <g id="patch_96">
    <path d="M 558.038174 301.370265 
L 562.163334 301.370265 
L 562.163334 57.154855 
L 558.038174 57.154855 
z
" clip-path="url(#p69c23049bf)" style="fill: url(#hca41a9a363); stroke: #ff7f0e; stroke-width: 2; stroke-linejoin: miter"/>
   </g>
   <g id="patch_97">
    <path d="M 562.891303 301.370265 
L 567.016462 301.370265 
L 567.016462 57.13616 
L 562.891303 57.13616 
z
" clip-path="url(#p69c23049bf)" style="fill: url(#hca41a9a363); stroke: #ff7f0e; stroke-width: 2; stroke-linejoin: miter"/>
   </g>
   <g id="patch_98">
    <path d="M 567.744432 301.370265 
L 571.869591 301.370265 
L 571.869591 57.112533 
L 567.744432 57.112533 
z
" clip-path="url(#p69c23049bf)" style="fill: url(#hca41a9a363); stroke: #ff7f0e; stroke-width: 2; stroke-linejoin: miter"/>
   </g>
   <g id="patch_99">
    <path d="M 572.59756 301.370265 
L 576.72272 301.370265 
L 576.72272 57.098409 
L 572.59756 57.098409 
z
" clip-path="url(#p69c23049bf)" style="fill: url(#hca41a9a363); stroke: #ff7f0e; stroke-width: 2; stroke-linejoin: miter"/>
   </g>
   <g id="patch_100">
    <path d="M 577.450689 301.370265 
L 581.575848 301.370265 
L 581.575848 57.021914 
L 577.450689 57.021914 
z
" clip-path="url(#p69c23049bf)" style="fill: url(#hca41a9a363); stroke: #ff7f0e; stroke-width: 2; stroke-linejoin: miter"/>
   </g>
   <g id="patch_101">
    <path d="M 582.303817 301.370265 
L 586.428977 301.370265 
L 586.428977 57.013712 
L 582.303817 57.013712 
z
" clip-path="url(#p69c23049bf)" style="fill: url(#hca41a9a363); stroke: #ff7f0e; stroke-width: 2; stroke-linejoin: miter"/>
   </g>
   <g id="patch_102">
    <path d="M 587.156946 301.370265 
L 591.282105 301.370265 
L 591.282105 57.004178 
L 587.156946 57.004178 
z
" clip-path="url(#p69c23049bf)" style="fill: url(#hca41a9a363); stroke: #ff7f0e; stroke-width: 2; stroke-linejoin: miter"/>
   </g>
   <g id="patch_103">
    <path d="M 592.010075 301.370265 
L 596.135234 301.370265 
L 596.135234 56.967718 
L 592.010075 56.967718 
z
" clip-path="url(#p69c23049bf)" style="fill: url(#hca41a9a363); stroke: #ff7f0e; stroke-width: 2; stroke-linejoin: miter"/>
   </g>
   <g id="patch_104">
    <path d="M 596.863203 301.370265 
L 600.988362 301.370265 
L 600.988362 56.964428 
L 596.863203 56.964428 
z
" clip-path="url(#p69c23049bf)" style="fill: url(#hca41a9a363); stroke: #ff7f0e; stroke-width: 2; stroke-linejoin: miter"/>
   </g>
   <g id="patch_105">
    <path d="M 601.716332 301.370265 
L 605.841491 301.370265 
L 605.841491 56.930914 
L 601.716332 56.930914 
z
" clip-path="url(#p69c23049bf)" style="fill: url(#hca41a9a363); stroke: #ff7f0e; stroke-width: 2; stroke-linejoin: miter"/>
   </g>
   <g id="patch_106">
    <path d="M 606.56946 301.370265 
L 610.69462 301.370265 
L 610.69462 56.803005 
L 606.56946 56.803005 
z
" clip-path="url(#p69c23049bf)" style="fill: url(#hca41a9a363); stroke: #ff7f0e; stroke-width: 2; stroke-linejoin: miter"/>
   </g>
   <g id="patch_107">
    <path d="M 611.422589 301.370265 
L 615.547748 301.370265 
L 615.547748 56.772723 
L 611.422589 56.772723 
z
" clip-path="url(#p69c23049bf)" style="fill: url(#hca41a9a363); stroke: #ff7f0e; stroke-width: 2; stroke-linejoin: miter"/>
   </g>
   <g id="patch_108">
    <path d="M 616.275718 301.370265 
L 620.400877 301.370265 
L 620.400877 56.743768 
L 616.275718 56.743768 
z
" clip-path="url(#p69c23049bf)" style="fill: url(#hca41a9a363); stroke: #ff7f0e; stroke-width: 2; stroke-linejoin: miter"/>
   </g>
   <g id="patch_109">
    <path d="M 621.128846 301.370265 
L 625.254005 301.370265 
L 625.254005 56.71875 
L 621.128846 56.71875 
z
" clip-path="url(#p69c23049bf)" style="fill: url(#hca41a9a363); stroke: #ff7f0e; stroke-width: 2; stroke-linejoin: miter"/>
   </g>
   <g id="patch_110">
    <path d="M 625.981975 301.370265 
L 630.107134 301.370265 
L 630.107134 48.345866 
L 625.981975 48.345866 
z
" clip-path="url(#p69c23049bf)" style="fill: url(#hca41a9a363); stroke: #ff7f0e; stroke-width: 2; stroke-linejoin: miter"/>
   </g>
   <g id="patch_111">
    <path d="M 630.835103 301.370265 
L 634.960263 301.370265 
L 634.960263 48.276118 
L 630.835103 48.276118 
z
" clip-path="url(#p69c23049bf)" style="fill: url(#hca41a9a363); stroke: #ff7f0e; stroke-width: 2; stroke-linejoin: miter"/>
   </g>
   <g id="patch_112">
    <path d="M 635.688232 301.370265 
L 639.813391 301.370265 
L 639.813391 47.90138 
L 635.688232 47.90138 
z
" clip-path="url(#p69c23049bf)" style="fill: url(#hca41a9a363); stroke: #ff7f0e; stroke-width: 2; stroke-linejoin: miter"/>
   </g>
   <g id="patch_113">
    <path d="M 640.54136 301.370265 
L 644.66652 301.370265 
L 644.66652 47.897125 
L 640.54136 47.897125 
z
" clip-path="url(#p69c23049bf)" style="fill: url(#hca41a9a363); stroke: #ff7f0e; stroke-width: 2; stroke-linejoin: miter"/>
   </g>
   <g id="patch_114">
    <path d="M 645.394489 301.370265 
L 649.519648 301.370265 
L 649.519648 47.869212 
L 645.394489 47.869212 
z
" clip-path="url(#p69c23049bf)" style="fill: url(#hca41a9a363); stroke: #ff7f0e; stroke-width: 2; stroke-linejoin: miter"/>
   </g>
   <g id="patch_115">
    <path d="M 650.247618 301.370265 
L 654.372777 301.370265 
L 654.372777 47.835265 
L 650.247618 47.835265 
z
" clip-path="url(#p69c23049bf)" style="fill: url(#hca41a9a363); stroke: #ff7f0e; stroke-width: 2; stroke-linejoin: miter"/>
   </g>
   <g id="patch_116">
    <path d="M 655.100746 301.370265 
L 659.225906 301.370265 
L 659.225906 47.832799 
L 655.100746 47.832799 
z
" clip-path="url(#p69c23049bf)" style="fill: url(#hca41a9a363); stroke: #ff7f0e; stroke-width: 2; stroke-linejoin: miter"/>
   </g>
   <g id="patch_117">
    <path d="M 659.953875 301.370265 
L 664.079034 301.370265 
L 664.079034 47.784001 
L 659.953875 47.784001 
z
" clip-path="url(#p69c23049bf)" style="fill: url(#hca41a9a363); stroke: #ff7f0e; stroke-width: 2; stroke-linejoin: miter"/>
   </g>
   <g id="line2d_26">
    <path d="M 78.828125 59.263306 
L 691.948125 59.263306 
" clip-path="url(#p69c23049bf)" style="fill: none; stroke-dasharray: 4.44,1.92; stroke-dashoffset: 0; stroke: #f58518; stroke-width: 1.2"/>
   </g>
   <g id="patch_118">
    <path d="M 78.828125 301.370265 
L 78.828125 35.104688 
" style="fill: none; stroke: #808080; stroke-width: 0.8; stroke-linejoin: miter; stroke-linecap: square"/>
   </g>
   <g id="patch_119">
    <path d="M 78.828125 301.370265 
L 691.948125 301.370265 
" style="fill: none; stroke: #808080; stroke-width: 0.8; stroke-linejoin: miter; stroke-linecap: square"/>
   </g>
   <g id="text_23">
    <text style="font: 22px 'PingFang SC', 'Heiti SC', 'STHeiti', 'Calibri', 'Arial', 'Helvetica Neue', 'Arial Unicode MS', 'Noto Sans CJK SC', 'DejaVu Sans', sans-serif; text-anchor: middle" x="385.388125" y="29.104688" transform="rotate(-0 385.388125 29.104688)">排序条形 · Shape sweep peak TFLOPS</text>
   </g>
   <g id="legend_1">
    <g id="patch_120">
     <path d="M 87.228125 61.864688 
L 198.036875 61.864688 
Q 200.436875 61.864688 200.436875 59.464688 
L 200.436875 43.504687 
Q 200.436875 41.104688 198.036875 41.104688 
L 87.228125 41.104688 
Q 84.828125 41.104688 84.828125 43.504687 
L 84.828125 59.464688 
Q 84.828125 61.864688 87.228125 61.864688 
z
" style="fill: #ffffff; opacity: 0.5; stroke: #cccccc; stroke-linejoin: miter"/>
    </g>
    <g id="line2d_27">
     <path d="M 89.628125 51.255938 
L 101.628125 51.255938 
L 113.628125 51.255938 
" style="fill: none; stroke-dasharray: 4.44,1.92; stroke-dashoffset: 0; stroke: #f58518; stroke-width: 1.2"/>
    </g>
    <g id="text_24">
     <text style="font: 12px 'PingFang SC', 'Heiti SC', 'STHeiti', 'Calibri', 'Arial', 'Helvetica Neue', 'Arial Unicode MS', 'Noto Sans CJK SC', 'DejaVu Sans', sans-serif; text-anchor: start" x="123.228125" y="55.455938" transform="rotate(-0 123.228125 55.455938)">median=286</text>
    </g>
   </g>
  </g>
 </g>
 <defs>
  <clipPath id="p69c23049bf">
   <rect x="78.828125" y="35.104688" width="613.12" height="266.265578"/>
  </clipPath>
 </defs>
 <defs>
  <pattern id="h6a8596a81b" patternUnits="userSpaceOnUse" x="0" y="0" width="72" height="72">
   <rect x="0" y="0" width="73" height="73" fill="none"/>
   <path d="M -36 36 
L 36 -36 
M -30 42 
L 42 -30 
M -24 48 
L 48 -24 
M -18 54 
L 54 -18 
M -12 60 
L 60 -12 
M -6 66 
L 66 -6 
M 0 72 
L 72 0 
M 6 78 
L 78 6 
M 12 84 
L 84 12 
M 18 90 
L 90 18 
M 24 96 
L 96 24 
M 30 102 
L 102 30 
M 36 108 
L 108 36 
M -36 36 
L 36 108 
M -30 30 
L 42 102 
M -24 24 
L 48 96 
M -18 18 
L 54 90 
M -12 12 
L 60 84 
M -6 6 
L 66 78 
M 0 0 
L 72 72 
M 6 -6 
L 78 66 
M 12 -12 
L 84 60 
M 18 -18 
L 90 54 
M 24 -24 
L 96 48 
M 30 -30 
L 102 42 
M 36 -36 
L 108 36 
" style="fill: #2ca02c; stroke: #2ca02c; stroke-width: 1.0; stroke-linecap: butt; stroke-linejoin: miter"/>
  </pattern>
  <pattern id="hca41a9a363" patternUnits="userSpaceOnUse" x="0" y="0" width="72" height="72">
   <rect x="0" y="0" width="73" height="73" fill="none"/>
   <path d="M -36 36 
L 36 -36 
M -30 42 
L 42 -30 
M -24 48 
L 48 -24 
M -18 54 
L 54 -18 
M -12 60 
L 60 -12 
M -6 66 
L 66 -6 
M 0 72 
L 72 0 
M 6 78 
L 78 6 
M 12 84 
L 84 12 
M 18 90 
L 90 18 
M 24 96 
L 96 24 
M 30 102 
L 102 30 
M 36 108 
L 108 36 
" style="fill: #ff7f0e; stroke: #ff7f0e; stroke-width: 1.0; stroke-linecap: butt; stroke-linejoin: miter"/>
  </pattern>
 </defs>
</svg>
