<?xml version="1.0" encoding="utf-8" standalone="no"?>
<!DOCTYPE svg PUBLIC "-//W3C//DTD SVG 1.1//EN"
  "http://www.w3.org/Graphics/SVG/1.1/DTD/svg11.dtd">
<svg xmlns:xlink="http://www.w3.org/1999/xlink" width="702.748125pt" height="342.920994pt" viewBox="0 0 702.748125 342.920994" xmlns="http://www.w3.org/2000/svg" version="1.1">
 <metadata>
  <rdf:RDF xmlns:dc="http://purl.org/dc/elements/1.1/" xmlns:cc="http://creativecommons.org/ns#" xmlns:rdf="http://www.w3.org/1999/02/22-rdf-syntax-ns#">
   <cc:Work>
    <dc:type rdf:resource="http://purl.org/dc/dcmitype/StillImage"/>
    <dc:date>2026-07-11T23:31:13.468783</dc:date>
    <dc:format>image/svg+xml</dc:format>
    <dc:creator>
     <cc:Agent>
      <dc:title>Matplotlib v3.9.4, https://matplotlib.org/</dc:title>
     </cc:Agent>
    </dc:creator>
   </cc:Work>
  </rdf:RDF>
 </metadata>
 <defs>
  <style type="text/css">*{stroke-linejoin: round; stroke-linecap: butt}</style>
 </defs>
 <g id="figure_1">
  <g id="patch_1">
   <path d="M 0 342.920994 
L 702.748125 342.920994 
L 702.748125 0 
L 0 0 
z
" style="fill: #ffffff"/>
  </g>
  <g id="axes_1">
   <g id="patch_2">
    <path d="M 78.828125 301.573344 
L 691.948125 301.573344 
L 691.948125 34.4 
L 78.828125 34.4 
z
" style="fill: #ffffff"/>
   </g>
   <g id="matplotlib.axis_1">
    <g id="xtick_1">
     <g id="line2d_1">
      <defs>
       <path id="m9ec19b195a" d="M 0 0 
L 0 3.5 
" style="stroke: #808080; stroke-width: 0.8"/>
      </defs>
      <g>
       <use xlink:href="#m9ec19b195a" x="108.759796" y="301.573344" style="fill: #808080; stroke: #808080; stroke-width: 0.8"/>
      </g>
     </g>
     <g id="text_1">
      <text style="fill: #808080; font: 9px 'PingFang SC', 'Heiti SC', 'STHeiti', 'Calibri', 'Arial', 'Helvetica Neue', 'Arial Unicode MS', 'Noto Sans CJK SC', 'DejaVu Sans', sans-serif" transform="translate(90.277461 331.267826) rotate(-45)">w11.1</text>
     </g>
    </g>
    <g id="xtick_2">
     <g id="line2d_2">
      <g>
       <use xlink:href="#m9ec19b195a" x="142.731696" y="301.573344" style="fill: #808080; stroke: #808080; stroke-width: 0.8"/>
      </g>
     </g>
     <g id="text_2">
      <text style="fill: #808080; font: 9px 'PingFang SC', 'Heiti SC', 'STHeiti', 'Calibri', 'Arial', 'Helvetica Neue', 'Arial Unicode MS', 'Noto Sans CJK SC', 'DejaVu Sans', sans-serif" transform="translate(124.249361 331.267826) rotate(-45)">w14.1</text>
     </g>
    </g>
    <g id="xtick_3">
     <g id="line2d_3">
      <g>
       <use xlink:href="#m9ec19b195a" x="176.703596" y="301.573344" style="fill: #808080; stroke: #808080; stroke-width: 0.8"/>
      </g>
     </g>
     <g id="text_3">
      <text style="fill: #808080; font: 9px 'PingFang SC', 'Heiti SC', 'STHeiti', 'Calibri', 'Arial', 'Helvetica Neue', 'Arial Unicode MS', 'Noto Sans CJK SC', 'DejaVu Sans', sans-serif" transform="translate(161.747293 327.741794) rotate(-45)">w1.1</text>
     </g>
    </g>
    <g id="xtick_4">
     <g id="line2d_4">
      <g>
       <use xlink:href="#m9ec19b195a" x="210.675496" y="301.573344" style="fill: #808080; stroke: #808080; stroke-width: 0.8"/>
      </g>
     </g>
     <g id="text_4">
      <text style="fill: #808080; font: 9px 'PingFang SC', 'Heiti SC', 'STHeiti', 'Calibri', 'Arial', 'Helvetica Neue', 'Arial Unicode MS', 'Noto Sans CJK SC', 'DejaVu Sans', sans-serif" transform="translate(192.193161 331.267826) rotate(-45)">w11.5</text>
     </g>
    </g>
    <g id="xtick_5">
     <g id="line2d_5">
      <g>
       <use xlink:href="#m9ec19b195a" x="244.647396" y="301.573344" style="fill: #808080; stroke: #808080; stroke-width: 0.8"/>
      </g>
     </g>
     <g id="text_5">
      <text style="fill: #808080; font: 9px 'PingFang SC', 'Heiti SC', 'STHeiti', 'Calibri', 'Arial', 'Helvetica Neue', 'Arial Unicode MS', 'Noto Sans CJK SC', 'DejaVu Sans', sans-serif" transform="translate(229.691093 327.741794) rotate(-45)">w6.2</text>
     </g>
    </g>
    <g id="xtick_6">
     <g id="line2d_6">
      <g>
       <use xlink:href="#m9ec19b195a" x="278.619296" y="301.573344" style="fill: #808080; stroke: #808080; stroke-width: 0.8"/>
      </g>
     </g>
     <g id="text_6">
      <text style="fill: #808080; font: 9px 'PingFang SC', 'Heiti SC', 'STHeiti', 'Calibri', 'Arial', 'Helvetica Neue', 'Arial Unicode MS', 'Noto Sans CJK SC', 'DejaVu Sans', sans-serif" transform="translate(263.662993 327.741794) rotate(-45)">w4.6</text>
     </g>
    </g>
    <g id="xtick_7">
     <g id="line2d_7">
      <g>
       <use xlink:href="#m9ec19b195a" x="312.591196" y="301.573344" style="fill: #808080; stroke: #808080; stroke-width: 0.8"/>
      </g>
     </g>
     <g id="text_7">
      <text style="fill: #808080; font: 9px 'PingFang SC', 'Heiti SC', 'STHeiti', 'Calibri', 'Arial', 'Helvetica Neue', 'Arial Unicode MS', 'Noto Sans CJK SC', 'DejaVu Sans', sans-serif" transform="translate(297.634893 327.741794) rotate(-45)">w9.3</text>
     </g>
    </g>
    <g id="xtick_8">
     <g id="line2d_8">
      <g>
       <use xlink:href="#m9ec19b195a" x="346.563096" y="301.573344" style="fill: #808080; stroke: #808080; stroke-width: 0.8"/>
      </g>
     </g>
     <g id="text_8">
      <text style="fill: #808080; font: 9px 'PingFang SC', 'Heiti SC', 'STHeiti', 'Calibri', 'Arial', 'Helvetica Neue', 'Arial Unicode MS', 'Noto Sans CJK SC', 'DejaVu Sans', sans-serif" transform="translate(331.606794 327.741794) rotate(-45)">w3.3</text>
     </g>
    </g>
    <g id="xtick_9">
     <g id="line2d_9">
      <g>
       <use xlink:href="#m9ec19b195a" x="380.534996" y="301.573344" style="fill: #808080; stroke: #808080; stroke-width: 0.8"/>
      </g>
     </g>
     <g id="text_9">
      <text style="fill: #808080; font: 9px 'PingFang SC', 'Heiti SC', 'STHeiti', 'Calibri', 'Arial', 'Helvetica Neue', 'Arial Unicode MS', 'Noto Sans CJK SC', 'DejaVu Sans', sans-serif" transform="translate(364.897551 328.422936) rotate(-45)">m0.3</text>
     </g>
    </g>
    <g id="xtick_10">
     <g id="line2d_10">
      <g>
       <use xlink:href="#m9ec19b195a" x="414.506897" y="301.573344" style="fill: #808080; stroke: #808080; stroke-width: 0.8"/>
      </g>
     </g>
     <g id="text_10">
      <text style="fill: #808080; font: 9px 'PingFang SC', 'Heiti SC', 'STHeiti', 'Calibri', 'Arial', 'Helvetica Neue', 'Arial Unicode MS', 'Noto Sans CJK SC', 'DejaVu Sans', sans-serif" transform="translate(396.024562 331.267826) rotate(-45)">w12.4</text>
     </g>
    </g>
    <g id="xtick_11">
     <g id="line2d_11">
      <g>
       <use xlink:href="#m9ec19b195a" x="448.478797" y="301.573344" style="fill: #808080; stroke: #808080; stroke-width: 0.8"/>
      </g>
     </g>
     <g id="text_11">
      <text style="fill: #808080; font: 9px 'PingFang SC', 'Heiti SC', 'STHeiti', 'Calibri', 'Arial', 'Helvetica Neue', 'Arial Unicode MS', 'Noto Sans CJK SC', 'DejaVu Sans', sans-serif" transform="translate(429.996462 331.267826) rotate(-45)">w13.4</text>
     </g>
    </g>
    <g id="xtick_12">
     <g id="line2d_12">
      <g>
       <use xlink:href="#m9ec19b195a" x="482.450697" y="301.573344" style="fill: #808080; stroke: #808080; stroke-width: 0.8"/>
      </g>
     </g>
     <g id="text_12">
      <text style="fill: #808080; font: 9px 'PingFang SC', 'Heiti SC', 'STHeiti', 'Calibri', 'Arial', 'Helvetica Neue', 'Arial Unicode MS', 'Noto Sans CJK SC', 'DejaVu Sans', sans-serif" transform="translate(463.968362 331.267826) rotate(-45)">w14.2</text>
     </g>
    </g>
    <g id="xtick_13">
     <g id="line2d_13">
      <g>
       <use xlink:href="#m9ec19b195a" x="516.422597" y="301.573344" style="fill: #808080; stroke: #808080; stroke-width: 0.8"/>
      </g>
     </g>
     <g id="text_13">
      <text style="fill: #808080; font: 9px 'PingFang SC', 'Heiti SC', 'STHeiti', 'Calibri', 'Arial', 'Helvetica Neue', 'Arial Unicode MS', 'Noto Sans CJK SC', 'DejaVu Sans', sans-serif" transform="translate(501.466294 327.741794) rotate(-45)">w1.6</text>
     </g>
    </g>
    <g id="xtick_14">
     <g id="line2d_14">
      <g>
       <use xlink:href="#m9ec19b195a" x="550.394497" y="301.573344" style="fill: #808080; stroke: #808080; stroke-width: 0.8"/>
      </g>
     </g>
     <g id="text_14">
      <text style="fill: #808080; font: 9px 'PingFang SC', 'Heiti SC', 'STHeiti', 'Calibri', 'Arial', 'Helvetica Neue', 'Arial Unicode MS', 'Noto Sans CJK SC', 'DejaVu Sans', sans-serif" transform="translate(535.438194 327.741794) rotate(-45)">w3.0</text>
     </g>
    </g>
    <g id="xtick_15">
     <g id="line2d_15">
      <g>
       <use xlink:href="#m9ec19b195a" x="584.366397" y="301.573344" style="fill: #808080; stroke: #808080; stroke-width: 0.8"/>
      </g>
     </g>
     <g id="text_15">
      <text style="fill: #808080; font: 9px 'PingFang SC', 'Heiti SC', 'STHeiti', 'Calibri', 'Arial', 'Helvetica Neue', 'Arial Unicode MS', 'Noto Sans CJK SC', 'DejaVu Sans', sans-serif" transform="translate(569.410094 327.741794) rotate(-45)">w4.0</text>
     </g>
    </g>
    <g id="xtick_16">
     <g id="line2d_16">
      <g>
       <use xlink:href="#m9ec19b195a" x="618.338297" y="301.573344" style="fill: #808080; stroke: #808080; stroke-width: 0.8"/>
      </g>
     </g>
     <g id="text_16">
      <text style="fill: #808080; font: 9px 'PingFang SC', 'Heiti SC', 'STHeiti', 'Calibri', 'Arial', 'Helvetica Neue', 'Arial Unicode MS', 'Noto Sans CJK SC', 'DejaVu Sans', sans-serif" transform="translate(603.381994 327.741794) rotate(-45)">w3.5</text>
     </g>
    </g>
    <g id="xtick_17">
     <g id="line2d_17">
      <g>
       <use xlink:href="#m9ec19b195a" x="652.310197" y="301.573344" style="fill: #808080; stroke: #808080; stroke-width: 0.8"/>
      </g>
     </g>
     <g id="text_17">
      <text style="fill: #808080; font: 9px 'PingFang SC', 'Heiti SC', 'STHeiti', 'Calibri', 'Arial', 'Helvetica Neue', 'Arial Unicode MS', 'Noto Sans CJK SC', 'DejaVu Sans', sans-serif" transform="translate(636.672752 328.422936) rotate(-45)">m0.5</text>
     </g>
    </g>
   </g>
   <g id="matplotlib.axis_2">
    <g id="ytick_1">
     <g id="line2d_18">
      <path d="M 78.828125 301.573344 
L 691.948125 301.573344 
" clip-path="url(#p10c77dbfa2)" style="fill: none; stroke-dasharray: 1,1.65; stroke-dashoffset: 0; stroke: #808080; stroke-opacity: 0.55"/>
     </g>
     <g id="line2d_19">
      <defs>
       <path id="m74cf3afa2c" d="M 0 0 
L -3.5 0 
" style="stroke: #808080; stroke-width: 0.8"/>
      </defs>
      <g>
       <use xlink:href="#m74cf3afa2c" x="78.828125" y="301.573344" style="fill: #808080; stroke: #808080; stroke-width: 0.8"/>
      </g>
     </g>
     <g id="text_18">
      <text style="fill: #808080; font: 22px 'PingFang SC', 'Heiti SC', 'STHeiti', 'Calibri', 'Arial', 'Helvetica Neue', 'Arial Unicode MS', 'Noto Sans CJK SC', 'DejaVu Sans', sans-serif; text-anchor: end" x="71.828125" y="310.328657" transform="rotate(-0 71.828125 310.328657)">0</text>
     </g>
    </g>
    <g id="ytick_2">
     <g id="line2d_20">
      <path d="M 78.828125 216.648333 
L 691.948125 216.648333 
" clip-path="url(#p10c77dbfa2)" style="fill: none; stroke-dasharray: 1,1.65; stroke-dashoffset: 0; stroke: #808080; stroke-opacity: 0.55"/>
     </g>
     <g id="line2d_21">
      <g>
       <use xlink:href="#m74cf3afa2c" x="78.828125" y="216.648333" style="fill: #808080; stroke: #808080; stroke-width: 0.8"/>
      </g>
     </g>
     <g id="text_19">
      <text style="fill: #808080; font: 22px 'PingFang SC', 'Heiti SC', 'STHeiti', 'Calibri', 'Arial', 'Helvetica Neue', 'Arial Unicode MS', 'Noto Sans CJK SC', 'DejaVu Sans', sans-serif; text-anchor: end" x="71.828125" y="225.403646" transform="rotate(-0 71.828125 225.403646)">100</text>
     </g>
    </g>
    <g id="ytick_3">
     <g id="line2d_22">
      <path d="M 78.828125 131.723322 
L 691.948125 131.723322 
" clip-path="url(#p10c77dbfa2)" style="fill: none; stroke-dasharray: 1,1.65; stroke-dashoffset: 0; stroke: #808080; stroke-opacity: 0.55"/>
     </g>
     <g id="line2d_23">
      <g>
       <use xlink:href="#m74cf3afa2c" x="78.828125" y="131.723322" style="fill: #808080; stroke: #808080; stroke-width: 0.8"/>
      </g>
     </g>
     <g id="text_20">
      <text style="fill: #808080; font: 22px 'PingFang SC', 'Heiti SC', 'STHeiti', 'Calibri', 'Arial', 'Helvetica Neue', 'Arial Unicode MS', 'Noto Sans CJK SC', 'DejaVu Sans', sans-serif; text-anchor: end" x="71.828125" y="140.478635" transform="rotate(-0 71.828125 140.478635)">200</text>
     </g>
    </g>
    <g id="ytick_4">
     <g id="line2d_24">
      <path d="M 78.828125 46.798311 
L 691.948125 46.798311 
" clip-path="url(#p10c77dbfa2)" style="fill: none; stroke-dasharray: 1,1.65; stroke-dashoffset: 0; stroke: #808080; stroke-opacity: 0.55"/>
     </g>
     <g id="line2d_25">
      <g>
       <use xlink:href="#m74cf3afa2c" x="78.828125" y="46.798311" style="fill: #808080; stroke: #808080; stroke-width: 0.8"/>
      </g>
     </g>
     <g id="text_21">
      <text style="fill: #808080; font: 22px 'PingFang SC', 'Heiti SC', 'STHeiti', 'Calibri', 'Arial', 'Helvetica Neue', 'Arial Unicode MS', 'Noto Sans CJK SC', 'DejaVu Sans', sans-serif; text-anchor: end" x="71.828125" y="55.553624" transform="rotate(-0 71.828125 55.553624)">300</text>
     </g>
    </g>
    <g id="text_22">
     <text style="font: 22px 'PingFang SC', 'Heiti SC', 'STHeiti', 'Calibri', 'Arial', 'Helvetica Neue', 'Arial Unicode MS', 'Noto Sans CJK SC', 'DejaVu Sans', sans-serif; text-anchor: middle" x="28.310625" y="167.986672" transform="rotate(-90 28.310625 167.986672)">Sustained TFLOPS</text>
    </g>
   </g>
   <g id="patch_3">
    <path d="M 106.697216 301.573344 
L 110.822375 301.573344 
L 110.822375 82.411526 
L 106.697216 82.411526 
z
" clip-path="url(#p10c77dbfa2)" style="fill: url(#h43281a19f8); stroke: #2ca02c; stroke-width: 2; stroke-linejoin: miter"/>
   </g>
   <g id="patch_4">
    <path d="M 111.550344 301.573344 
L 115.675504 301.573344 
L 115.675504 82.404932 
L 111.550344 82.404932 
z
" clip-path="url(#p10c77dbfa2)" style="fill: url(#h43281a19f8); stroke: #2ca02c; stroke-width: 2; stroke-linejoin: miter"/>
   </g>
   <g id="patch_5">
    <path d="M 116.403473 301.573344 
L 120.528632 301.573344 
L 120.528632 75.033679 
L 116.403473 75.033679 
z
" clip-path="url(#p10c77dbfa2)" style="fill: url(#h43281a19f8); stroke: #2ca02c; stroke-width: 2; stroke-linejoin: miter"/>
   </g>
   <g id="patch_6">
    <path d="M 121.256602 301.573344 
L 125.381761 301.573344 
L 125.381761 73.130201 
L 121.256602 73.130201 
z
" clip-path="url(#p10c77dbfa2)" style="fill: url(#h43281a19f8); stroke: #2ca02c; stroke-width: 2; stroke-linejoin: miter"/>
   </g>
   <g id="patch_7">
    <path d="M 126.10973 301.573344 
L 130.23489 301.573344 
L 130.23489 70.767901 
L 126.10973 70.767901 
z
" clip-path="url(#p10c77dbfa2)" style="fill: url(#h43281a19f8); stroke: #2ca02c; stroke-width: 2; stroke-linejoin: miter"/>
   </g>
   <g id="patch_8">
    <path d="M 130.962859 301.573344 
L 135.088018 301.573344 
L 135.088018 68.895696 
L 130.962859 68.895696 
z
" clip-path="url(#p10c77dbfa2)" style="fill: url(#h43281a19f8); stroke: #2ca02c; stroke-width: 2; stroke-linejoin: miter"/>
   </g>
   <g id="patch_9">
    <path d="M 135.815987 301.573344 
L 139.941147 301.573344 
L 139.941147 68.368179 
L 135.815987 68.368179 
z
" clip-path="url(#p10c77dbfa2)" style="fill: url(#h43281a19f8); stroke: #2ca02c; stroke-width: 2; stroke-linejoin: miter"/>
   </g>
   <g id="patch_10">
    <path d="M 140.669116 301.573344 
L 144.794275 301.573344 
L 144.794275 68.352661 
L 140.669116 68.352661 
z
" clip-path="url(#p10c77dbfa2)" style="fill: url(#h43281a19f8); stroke: #2ca02c; stroke-width: 2; stroke-linejoin: miter"/>
   </g>
   <g id="patch_11">
    <path d="M 145.522245 301.573344 
L 149.647404 301.573344 
L 149.647404 68.272105 
L 145.522245 68.272105 
z
" clip-path="url(#p10c77dbfa2)" style="fill: url(#h43281a19f8); stroke: #2ca02c; stroke-width: 2; stroke-linejoin: miter"/>
   </g>
   <g id="patch_12">
    <path d="M 150.375373 301.573344 
L 154.500532 301.573344 
L 154.500532 68.255987 
L 150.375373 68.255987 
z
" clip-path="url(#p10c77dbfa2)" style="fill: url(#h43281a19f8); stroke: #2ca02c; stroke-width: 2; stroke-linejoin: miter"/>
   </g>
   <g id="patch_13">
    <path d="M 155.228502 301.573344 
L 159.353661 301.573344 
L 159.353661 68.240472 
L 155.228502 68.240472 
z
" clip-path="url(#p10c77dbfa2)" style="fill: url(#h43281a19f8); stroke: #2ca02c; stroke-width: 2; stroke-linejoin: miter"/>
   </g>
   <g id="patch_14">
    <path d="M 160.08163 301.573344 
L 164.20679 301.573344 
L 164.20679 68.233604 
L 160.08163 68.233604 
z
" clip-path="url(#p10c77dbfa2)" style="fill: url(#h43281a19f8); stroke: #2ca02c; stroke-width: 2; stroke-linejoin: miter"/>
   </g>
   <g id="patch_15">
    <path d="M 164.934759 301.573344 
L 169.059918 301.573344 
L 169.059918 68.231219 
L 164.934759 68.231219 
z
" clip-path="url(#p10c77dbfa2)" style="fill: url(#h43281a19f8); stroke: #2ca02c; stroke-width: 2; stroke-linejoin: miter"/>
   </g>
   <g id="patch_16">
    <path d="M 169.787888 301.573344 
L 173.913047 301.573344 
L 173.913047 68.231219 
L 169.787888 68.231219 
z
" clip-path="url(#p10c77dbfa2)" style="fill: url(#h43281a19f8); stroke: #2ca02c; stroke-width: 2; stroke-linejoin: miter"/>
   </g>
   <g id="patch_17">
    <path d="M 174.641016 301.573344 
L 178.766175 301.573344 
L 178.766175 68.229724 
L 174.641016 68.229724 
z
" clip-path="url(#p10c77dbfa2)" style="fill: url(#h43281a19f8); stroke: #2ca02c; stroke-width: 2; stroke-linejoin: miter"/>
   </g>
   <g id="patch_18">
    <path d="M 179.494145 301.573344 
L 183.619304 301.573344 
L 183.619304 68.229422 
L 179.494145 68.229422 
z
" clip-path="url(#p10c77dbfa2)" style="fill: url(#h43281a19f8); stroke: #2ca02c; stroke-width: 2; stroke-linejoin: miter"/>
   </g>
   <g id="patch_19">
    <path d="M 184.347273 301.573344 
L 188.472433 301.573344 
L 188.472433 68.227642 
L 184.347273 68.227642 
z
" clip-path="url(#p10c77dbfa2)" style="fill: url(#h43281a19f8); stroke: #2ca02c; stroke-width: 2; stroke-linejoin: miter"/>
   </g>
   <g id="patch_20">
    <path d="M 189.200402 301.573344 
L 193.325561 301.573344 
L 193.325561 68.224955 
L 189.200402 68.224955 
z
" clip-path="url(#p10c77dbfa2)" style="fill: url(#h43281a19f8); stroke: #2ca02c; stroke-width: 2; stroke-linejoin: miter"/>
   </g>
   <g id="patch_21">
    <path d="M 194.05353 301.573344 
L 198.17869 301.573344 
L 198.17869 68.22435 
L 194.05353 68.22435 
z
" clip-path="url(#p10c77dbfa2)" style="fill: url(#h43281a19f8); stroke: #2ca02c; stroke-width: 2; stroke-linejoin: miter"/>
   </g>
   <g id="patch_22">
    <path d="M 198.906659 301.573344 
L 203.031818 301.573344 
L 203.031818 68.222268 
L 198.906659 68.222268 
z
" clip-path="url(#p10c77dbfa2)" style="fill: url(#h43281a19f8); stroke: #2ca02c; stroke-width: 2; stroke-linejoin: miter"/>
   </g>
   <g id="patch_23">
    <path d="M 203.759788 301.573344 
L 207.884947 301.573344 
L 207.884947 68.217783 
L 203.759788 68.217783 
z
" clip-path="url(#p10c77dbfa2)" style="fill: url(#h43281a19f8); stroke: #2ca02c; stroke-width: 2; stroke-linejoin: miter"/>
   </g>
   <g id="patch_24">
    <path d="M 208.612916 301.573344 
L 212.738076 301.573344 
L 212.738076 68.211216 
L 208.612916 68.211216 
z
" clip-path="url(#p10c77dbfa2)" style="fill: url(#h43281a19f8); stroke: #2ca02c; stroke-width: 2; stroke-linejoin: miter"/>
   </g>
   <g id="patch_25">
    <path d="M 213.466045 301.573344 
L 217.591204 301.573344 
L 217.591204 68.210023 
L 213.466045 68.210023 
z
" clip-path="url(#p10c77dbfa2)" style="fill: url(#h43281a19f8); stroke: #2ca02c; stroke-width: 2; stroke-linejoin: miter"/>
   </g>
   <g id="patch_26">
    <path d="M 218.319173 301.573344 
L 222.444333 301.573344 
L 222.444333 68.209721 
L 218.319173 68.209721 
z
" clip-path="url(#p10c77dbfa2)" style="fill: url(#h43281a19f8); stroke: #2ca02c; stroke-width: 2; stroke-linejoin: miter"/>
   </g>
   <g id="patch_27">
    <path d="M 223.172302 301.573344 
L 227.297461 301.573344 
L 227.297461 68.209418 
L 223.172302 68.209418 
z
" clip-path="url(#p10c77dbfa2)" style="fill: url(#h43281a19f8); stroke: #2ca02c; stroke-width: 2; stroke-linejoin: miter"/>
   </g>
   <g id="patch_28">
    <path d="M 228.025431 301.573344 
L 232.15059 301.573344 
L 232.15059 68.208226 
L 228.025431 68.208226 
z
" clip-path="url(#p10c77dbfa2)" style="fill: url(#h43281a19f8); stroke: #2ca02c; stroke-width: 2; stroke-linejoin: miter"/>
   </g>
   <g id="patch_29">
    <path d="M 232.878559 301.573344 
L 237.003718 301.573344 
L 237.003718 68.207033 
L 232.878559 68.207033 
z
" clip-path="url(#p10c77dbfa2)" style="fill: url(#h43281a19f8); stroke: #2ca02c; stroke-width: 2; stroke-linejoin: miter"/>
   </g>
   <g id="patch_30">
    <path d="M 237.731688 301.573344 
L 241.856847 301.573344 
L 241.856847 68.204346 
L 237.731688 68.204346 
z
" clip-path="url(#p10c77dbfa2)" style="fill: url(#h43281a19f8); stroke: #2ca02c; stroke-width: 2; stroke-linejoin: miter"/>
   </g>
   <g id="patch_31">
    <path d="M 242.584816 301.573344 
L 246.709976 301.573344 
L 246.709976 68.199575 
L 242.584816 68.199575 
z
" clip-path="url(#p10c77dbfa2)" style="fill: url(#h43281a19f8); stroke: #2ca02c; stroke-width: 2; stroke-linejoin: miter"/>
   </g>
   <g id="patch_32">
    <path d="M 247.437945 301.573344 
L 251.563104 301.573344 
L 251.563104 68.197475 
L 247.437945 68.197475 
z
" clip-path="url(#p10c77dbfa2)" style="fill: url(#h43281a19f8); stroke: #2ca02c; stroke-width: 2; stroke-linejoin: miter"/>
   </g>
   <g id="patch_33">
    <path d="M 252.291074 301.573344 
L 256.416233 301.573344 
L 256.416233 68.193594 
L 252.291074 68.193594 
z
" clip-path="url(#p10c77dbfa2)" style="fill: url(#h43281a19f8); stroke: #2ca02c; stroke-width: 2; stroke-linejoin: miter"/>
   </g>
   <g id="patch_34">
    <path d="M 257.144202 301.573344 
L 261.269361 301.573344 
L 261.269361 68.191512 
L 257.144202 68.191512 
z
" clip-path="url(#p10c77dbfa2)" style="fill: url(#h43281a19f8); stroke: #2ca02c; stroke-width: 2; stroke-linejoin: miter"/>
   </g>
   <g id="patch_35">
    <path d="M 261.997331 301.573344 
L 266.12249 301.573344 
L 266.12249 68.190906 
L 261.997331 68.190906 
z
" clip-path="url(#p10c77dbfa2)" style="fill: url(#h43281a19f8); stroke: #2ca02c; stroke-width: 2; stroke-linejoin: miter"/>
   </g>
   <g id="patch_36">
    <path d="M 266.850459 301.573344 
L 270.975619 301.573344 
L 270.975619 68.188218 
L 266.850459 68.188218 
z
" clip-path="url(#p10c77dbfa2)" style="fill: url(#h43281a19f8); stroke: #2ca02c; stroke-width: 2; stroke-linejoin: miter"/>
   </g>
   <g id="patch_37">
    <path d="M 271.703588 301.573344 
L 275.828747 301.573344 
L 275.828747 68.182237 
L 271.703588 68.182237 
z
" clip-path="url(#p10c77dbfa2)" style="fill: url(#h43281a19f8); stroke: #2ca02c; stroke-width: 2; stroke-linejoin: miter"/>
   </g>
   <g id="patch_38">
    <path d="M 276.556716 301.573344 
L 280.681876 301.573344 
L 280.681876 68.179851 
L 276.556716 68.179851 
z
" clip-path="url(#p10c77dbfa2)" style="fill: url(#h43281a19f8); stroke: #2ca02c; stroke-width: 2; stroke-linejoin: miter"/>
   </g>
   <g id="patch_39">
    <path d="M 281.409845 301.573344 
L 285.535004 301.573344 
L 285.535004 68.177163 
L 281.409845 68.177163 
z
" clip-path="url(#p10c77dbfa2)" style="fill: url(#h43281a19f8); stroke: #2ca02c; stroke-width: 2; stroke-linejoin: miter"/>
   </g>
   <g id="patch_40">
    <path d="M 286.262974 301.573344 
L 290.388133 301.573344 
L 290.388133 68.167317 
L 286.262974 68.167317 
z
" clip-path="url(#p10c77dbfa2)" style="fill: url(#h43281a19f8); stroke: #2ca02c; stroke-width: 2; stroke-linejoin: miter"/>
   </g>
   <g id="patch_41">
    <path d="M 291.116102 301.573344 
L 295.241262 301.573344 
L 295.241262 68.15715 
L 291.116102 68.15715 
z
" clip-path="url(#p10c77dbfa2)" style="fill: url(#h43281a19f8); stroke: #2ca02c; stroke-width: 2; stroke-linejoin: miter"/>
   </g>
   <g id="patch_42">
    <path d="M 295.969231 301.573344 
L 300.09439 301.573344 
L 300.09439 68.148496 
L 295.969231 68.148496 
z
" clip-path="url(#p10c77dbfa2)" style="fill: url(#h43281a19f8); stroke: #2ca02c; stroke-width: 2; stroke-linejoin: miter"/>
   </g>
   <g id="patch_43">
    <path d="M 300.822359 301.573344 
L 304.947519 301.573344 
L 304.947519 67.836462 
L 300.822359 67.836462 
z
" clip-path="url(#p10c77dbfa2)" style="fill: url(#h43281a19f8); stroke: #2ca02c; stroke-width: 2; stroke-linejoin: miter"/>
   </g>
   <g id="patch_44">
    <path d="M 305.675488 301.573344 
L 309.800647 301.573344 
L 309.800647 67.206581 
L 305.675488 67.206581 
z
" clip-path="url(#p10c77dbfa2)" style="fill: url(#h43281a19f8); stroke: #2ca02c; stroke-width: 2; stroke-linejoin: miter"/>
   </g>
   <g id="patch_45">
    <path d="M 310.528617 301.573344 
L 314.653776 301.573344 
L 314.653776 67.002202 
L 310.528617 67.002202 
z
" clip-path="url(#p10c77dbfa2)" style="fill: url(#h43281a19f8); stroke: #2ca02c; stroke-width: 2; stroke-linejoin: miter"/>
   </g>
   <g id="patch_46">
    <path d="M 315.381745 301.573344 
L 319.506904 301.573344 
L 319.506904 66.976861 
L 315.381745 66.976861 
z
" clip-path="url(#p10c77dbfa2)" style="fill: url(#h43281a19f8); stroke: #2ca02c; stroke-width: 2; stroke-linejoin: miter"/>
   </g>
   <g id="patch_47">
    <path d="M 320.234874 301.573344 
L 324.360033 301.573344 
L 324.360033 66.584504 
L 320.234874 66.584504 
z
" clip-path="url(#p10c77dbfa2)" style="fill: url(#h43281a19f8); stroke: #2ca02c; stroke-width: 2; stroke-linejoin: miter"/>
   </g>
   <g id="patch_48">
    <path d="M 325.088002 301.573344 
L 329.213162 301.573344 
L 329.213162 66.489086 
L 325.088002 66.489086 
z
" clip-path="url(#p10c77dbfa2)" style="fill: url(#h43281a19f8); stroke: #2ca02c; stroke-width: 2; stroke-linejoin: miter"/>
   </g>
   <g id="patch_49">
    <path d="M 329.941131 301.573344 
L 334.06629 301.573344 
L 334.06629 66.409966 
L 329.941131 66.409966 
z
" clip-path="url(#p10c77dbfa2)" style="fill: url(#h43281a19f8); stroke: #2ca02c; stroke-width: 2; stroke-linejoin: miter"/>
   </g>
   <g id="patch_50">
    <path d="M 334.794259 301.573344 
L 338.919419 301.573344 
L 338.919419 65.953636 
L 334.794259 65.953636 
z
" clip-path="url(#p10c77dbfa2)" style="fill: url(#h43281a19f8); stroke: #2ca02c; stroke-width: 2; stroke-linejoin: miter"/>
   </g>
   <g id="patch_51">
    <path d="M 339.647388 301.573344 
L 343.772547 301.573344 
L 343.772547 65.9305 
L 339.647388 65.9305 
z
" clip-path="url(#p10c77dbfa2)" style="fill: url(#h43281a19f8); stroke: #2ca02c; stroke-width: 2; stroke-linejoin: miter"/>
   </g>
   <g id="patch_52">
    <path d="M 344.500517 301.573344 
L 348.625676 301.573344 
L 348.625676 65.912532 
L 344.500517 65.912532 
z
" clip-path="url(#p10c77dbfa2)" style="fill: url(#h43281a19f8); stroke: #2ca02c; stroke-width: 2; stroke-linejoin: miter"/>
   </g>
   <g id="patch_53">
    <path d="M 349.353645 301.573344 
L 353.478805 301.573344 
L 353.478805 65.86259 
L 349.353645 65.86259 
z
" clip-path="url(#p10c77dbfa2)" style="fill: url(#h43281a19f8); stroke: #2ca02c; stroke-width: 2; stroke-linejoin: miter"/>
   </g>
   <g id="patch_54">
    <path d="M 354.206774 301.573344 
L 358.331933 301.573344 
L 358.331933 65.449676 
L 354.206774 65.449676 
z
" clip-path="url(#p10c77dbfa2)" style="fill: url(#h43281a19f8); stroke: #2ca02c; stroke-width: 2; stroke-linejoin: miter"/>
   </g>
   <g id="patch_55">
    <path d="M 359.059902 301.573344 
L 363.185062 301.573344 
L 363.185062 65.338032 
L 359.059902 65.338032 
z
" clip-path="url(#p10c77dbfa2)" style="fill: url(#h43281a19f8); stroke: #2ca02c; stroke-width: 2; stroke-linejoin: miter"/>
   </g>
   <g id="patch_56">
    <path d="M 363.913031 301.573344 
L 368.03819 301.573344 
L 368.03819 65.066925 
L 363.913031 65.066925 
z
" clip-path="url(#p10c77dbfa2)" style="fill: url(#h43281a19f8); stroke: #2ca02c; stroke-width: 2; stroke-linejoin: miter"/>
   </g>
   <g id="patch_57">
    <path d="M 368.76616 301.573344 
L 372.891319 301.573344 
L 372.891319 64.920531 
L 368.76616 64.920531 
z
" clip-path="url(#p10c77dbfa2)" style="fill: url(#h43281a19f8); stroke: #2ca02c; stroke-width: 2; stroke-linejoin: miter"/>
   </g>
   <g id="patch_58">
    <path d="M 373.619288 301.573344 
L 377.744447 301.573344 
L 377.744447 64.806536 
L 373.619288 64.806536 
z
" clip-path="url(#p10c77dbfa2)" style="fill: url(#h43281a19f8); stroke: #2ca02c; stroke-width: 2; stroke-linejoin: miter"/>
   </g>
   <g id="patch_59">
    <path d="M 378.472417 301.573344 
L 382.597576 301.573344 
L 382.597576 64.381913 
L 378.472417 64.381913 
z
" clip-path="url(#p10c77dbfa2)" style="fill: url(#h43281a19f8); stroke: #2ca02c; stroke-width: 2; stroke-linejoin: miter"/>
   </g>
   <g id="patch_60">
    <path d="M 383.325545 301.573344 
L 387.450705 301.573344 
L 387.450705 64.372351 
L 383.325545 64.372351 
z
" clip-path="url(#p10c77dbfa2)" style="fill: url(#hae25fd9122); stroke: #ff7f0e; stroke-width: 2; stroke-linejoin: miter"/>
   </g>
   <g id="patch_61">
    <path d="M 388.178674 301.573344 
L 392.303833 301.573344 
L 392.303833 64.080442 
L 388.178674 64.080442 
z
" clip-path="url(#p10c77dbfa2)" style="fill: url(#hae25fd9122); stroke: #ff7f0e; stroke-width: 2; stroke-linejoin: miter"/>
   </g>
   <g id="patch_62">
    <path d="M 393.031803 301.573344 
L 397.156962 301.573344 
L 397.156962 63.783489 
L 393.031803 63.783489 
z
" clip-path="url(#p10c77dbfa2)" style="fill: url(#hae25fd9122); stroke: #ff7f0e; stroke-width: 2; stroke-linejoin: miter"/>
   </g>
   <g id="patch_63">
    <path d="M 397.884931 301.573344 
L 402.01009 301.573344 
L 402.01009 63.431368 
L 397.884931 63.431368 
z
" clip-path="url(#p10c77dbfa2)" style="fill: url(#hae25fd9122); stroke: #ff7f0e; stroke-width: 2; stroke-linejoin: miter"/>
   </g>
   <g id="patch_64">
    <path d="M 402.73806 301.573344 
L 406.863219 301.573344 
L 406.863219 63.392495 
L 402.73806 63.392495 
z
" clip-path="url(#p10c77dbfa2)" style="fill: url(#hae25fd9122); stroke: #ff7f0e; stroke-width: 2; stroke-linejoin: miter"/>
   </g>
   <g id="patch_65">
    <path d="M 407.591188 301.573344 
L 411.716348 301.573344 
L 411.716348 63.306935 
L 407.591188 63.306935 
z
" clip-path="url(#p10c77dbfa2)" style="fill: url(#hae25fd9122); stroke: #ff7f0e; stroke-width: 2; stroke-linejoin: miter"/>
   </g>
   <g id="patch_66">
    <path d="M 412.444317 301.573344 
L 416.569476 301.573344 
L 416.569476 63.156794 
L 412.444317 63.156794 
z
" clip-path="url(#p10c77dbfa2)" style="fill: url(#hae25fd9122); stroke: #ff7f0e; stroke-width: 2; stroke-linejoin: miter"/>
   </g>
   <g id="patch_67">
    <path d="M 417.297445 301.573344 
L 421.422605 301.573344 
L 421.422605 62.820327 
L 417.297445 62.820327 
z
" clip-path="url(#p10c77dbfa2)" style="fill: url(#hae25fd9122); stroke: #ff7f0e; stroke-width: 2; stroke-linejoin: miter"/>
   </g>
   <g id="patch_68">
    <path d="M 422.150574 301.573344 
L 426.275733 301.573344 
L 426.275733 62.800018 
L 422.150574 62.800018 
z
" clip-path="url(#p10c77dbfa2)" style="fill: url(#hae25fd9122); stroke: #ff7f0e; stroke-width: 2; stroke-linejoin: miter"/>
   </g>
   <g id="patch_69">
    <path d="M 427.003703 301.573344 
L 431.128862 301.573344 
L 431.128862 62.578787 
L 427.003703 62.578787 
z
" clip-path="url(#p10c77dbfa2)" style="fill: url(#hae25fd9122); stroke: #ff7f0e; stroke-width: 2; stroke-linejoin: miter"/>
   </g>
   <g id="patch_70">
    <path d="M 431.856831 301.573344 
L 435.981991 301.573344 
L 435.981991 62.193575 
L 431.856831 62.193575 
z
" clip-path="url(#p10c77dbfa2)" style="fill: url(#hae25fd9122); stroke: #ff7f0e; stroke-width: 2; stroke-linejoin: miter"/>
   </g>
   <g id="patch_71">
    <path d="M 436.70996 301.573344 
L 440.835119 301.573344 
L 440.835119 62.177862 
L 436.70996 62.177862 
z
" clip-path="url(#p10c77dbfa2)" style="fill: url(#hae25fd9122); stroke: #ff7f0e; stroke-width: 2; stroke-linejoin: miter"/>
   </g>
   <g id="patch_72">
    <path d="M 441.563088 301.573344 
L 445.688248 301.573344 
L 445.688248 61.867303 
L 441.563088 61.867303 
z
" clip-path="url(#p10c77dbfa2)" style="fill: url(#hae25fd9122); stroke: #ff7f0e; stroke-width: 2; stroke-linejoin: miter"/>
   </g>
   <g id="patch_73">
    <path d="M 446.416217 301.573344 
L 450.541376 301.573344 
L 450.541376 61.699245 
L 446.416217 61.699245 
z
" clip-path="url(#p10c77dbfa2)" style="fill: url(#hae25fd9122); stroke: #ff7f0e; stroke-width: 2; stroke-linejoin: miter"/>
   </g>
   <g id="patch_74">
    <path d="M 451.269346 301.573344 
L 455.394505 301.573344 
L 455.394505 61.595093 
L 451.269346 61.595093 
z
" clip-path="url(#p10c77dbfa2)" style="fill: url(#hae25fd9122); stroke: #ff7f0e; stroke-width: 2; stroke-linejoin: miter"/>
   </g>
   <g id="patch_75">
    <path d="M 456.122474 301.573344 
L 460.247633 301.573344 
L 460.247633 61.583404 
L 456.122474 61.583404 
z
" clip-path="url(#p10c77dbfa2)" style="fill: url(#hae25fd9122); stroke: #ff7f0e; stroke-width: 2; stroke-linejoin: miter"/>
   </g>
   <g id="patch_76">
    <path d="M 460.975603 301.573344 
L 465.100762 301.573344 
L 465.100762 61.415909 
L 460.975603 61.415909 
z
" clip-path="url(#p10c77dbfa2)" style="fill: url(#hae25fd9122); stroke: #ff7f0e; stroke-width: 2; stroke-linejoin: miter"/>
   </g>
   <g id="patch_77">
    <path d="M 465.828731 301.573344 
L 469.953891 301.573344 
L 469.953891 61.361816 
L 465.828731 61.361816 
z
" clip-path="url(#p10c77dbfa2)" style="fill: url(#hae25fd9122); stroke: #ff7f0e; stroke-width: 2; stroke-linejoin: miter"/>
   </g>
   <g id="patch_78">
    <path d="M 470.68186 301.573344 
L 474.807019 301.573344 
L 474.807019 60.761721 
L 470.68186 60.761721 
z
" clip-path="url(#p10c77dbfa2)" style="fill: url(#hae25fd9122); stroke: #ff7f0e; stroke-width: 2; stroke-linejoin: miter"/>
   </g>
   <g id="patch_79">
    <path d="M 475.534988 301.573344 
L 479.660148 301.573344 
L 479.660148 60.11545 
L 475.534988 60.11545 
z
" clip-path="url(#p10c77dbfa2)" style="fill: url(#hae25fd9122); stroke: #ff7f0e; stroke-width: 2; stroke-linejoin: miter"/>
   </g>
   <g id="patch_80">
    <path d="M 480.388117 301.573344 
L 484.513276 301.573344 
L 484.513276 59.83638 
L 480.388117 59.83638 
z
" clip-path="url(#p10c77dbfa2)" style="fill: url(#hae25fd9122); stroke: #ff7f0e; stroke-width: 2; stroke-linejoin: miter"/>
   </g>
   <g id="patch_81">
    <path d="M 485.241246 301.573344 
L 489.366405 301.573344 
L 489.366405 59.660985 
L 485.241246 59.660985 
z
" clip-path="url(#p10c77dbfa2)" style="fill: url(#hae25fd9122); stroke: #ff7f0e; stroke-width: 2; stroke-linejoin: miter"/>
   </g>
   <g id="patch_82">
    <path d="M 490.094374 301.573344 
L 494.219534 301.573344 
L 494.219534 59.599038 
L 490.094374 59.599038 
z
" clip-path="url(#p10c77dbfa2)" style="fill: url(#hae25fd9122); stroke: #ff7f0e; stroke-width: 2; stroke-linejoin: miter"/>
   </g>
   <g id="patch_83">
    <path d="M 494.947503 301.573344 
L 499.072662 301.573344 
L 499.072662 59.484359 
L 494.947503 59.484359 
z
" clip-path="url(#p10c77dbfa2)" style="fill: url(#hae25fd9122); stroke: #ff7f0e; stroke-width: 2; stroke-linejoin: miter"/>
   </g>
   <g id="patch_84">
    <path d="M 499.800631 301.573344 
L 503.925791 301.573344 
L 503.925791 59.415576 
L 499.800631 59.415576 
z
" clip-path="url(#p10c77dbfa2)" style="fill: url(#hae25fd9122); stroke: #ff7f0e; stroke-width: 2; stroke-linejoin: miter"/>
   </g>
   <g id="patch_85">
    <path d="M 504.65376 301.573344 
L 508.778919 301.573344 
L 508.778919 59.258876 
L 504.65376 59.258876 
z
" clip-path="url(#p10c77dbfa2)" style="fill: url(#hae25fd9122); stroke: #ff7f0e; stroke-width: 2; stroke-linejoin: miter"/>
   </g>
   <g id="patch_86">
    <path d="M 509.506889 301.573344 
L 513.632048 301.573344 
L 513.632048 59.208646 
L 509.506889 59.208646 
z
" clip-path="url(#p10c77dbfa2)" style="fill: url(#hae25fd9122); stroke: #ff7f0e; stroke-width: 2; stroke-linejoin: miter"/>
   </g>
   <g id="patch_87">
    <path d="M 514.360017 301.573344 
L 518.485176 301.573344 
L 518.485176 59.203174 
L 514.360017 59.203174 
z
" clip-path="url(#p10c77dbfa2)" style="fill: url(#hae25fd9122); stroke: #ff7f0e; stroke-width: 2; stroke-linejoin: miter"/>
   </g>
   <g id="patch_88">
    <path d="M 519.213146 301.573344 
L 523.338305 301.573344 
L 523.338305 59.195763 
L 519.213146 59.195763 
z
" clip-path="url(#p10c77dbfa2)" style="fill: url(#hae25fd9122); stroke: #ff7f0e; stroke-width: 2; stroke-linejoin: miter"/>
   </g>
   <g id="patch_89">
    <path d="M 524.066274 301.573344 
L 528.191434 301.573344 
L 528.191434 58.927147 
L 524.066274 58.927147 
z
" clip-path="url(#p10c77dbfa2)" style="fill: url(#hae25fd9122); stroke: #ff7f0e; stroke-width: 2; stroke-linejoin: miter"/>
   </g>
   <g id="patch_90">
    <path d="M 528.919403 301.573344 
L 533.044562 301.573344 
L 533.044562 58.75332 
L 528.919403 58.75332 
z
" clip-path="url(#p10c77dbfa2)" style="fill: url(#hae25fd9122); stroke: #ff7f0e; stroke-width: 2; stroke-linejoin: miter"/>
   </g>
   <g id="patch_91">
    <path d="M 533.772532 301.573344 
L 537.897691 301.573344 
L 537.897691 58.636893 
L 533.772532 58.636893 
z
" clip-path="url(#p10c77dbfa2)" style="fill: url(#hae25fd9122); stroke: #ff7f0e; stroke-width: 2; stroke-linejoin: miter"/>
   </g>
   <g id="patch_92">
    <path d="M 538.62566 301.573344 
L 542.750819 301.573344 
L 542.750819 57.938806 
L 538.62566 57.938806 
z
" clip-path="url(#p10c77dbfa2)" style="fill: url(#hae25fd9122); stroke: #ff7f0e; stroke-width: 2; stroke-linejoin: miter"/>
   </g>
   <g id="patch_93">
    <path d="M 543.478789 301.573344 
L 547.603948 301.573344 
L 547.603948 57.933277 
L 543.478789 57.933277 
z
" clip-path="url(#p10c77dbfa2)" style="fill: url(#hae25fd9122); stroke: #ff7f0e; stroke-width: 2; stroke-linejoin: miter"/>
   </g>
   <g id="patch_94">
    <path d="M 548.331917 301.573344 
L 552.457077 301.573344 
L 552.457077 57.230804 
L 548.331917 57.230804 
z
" clip-path="url(#p10c77dbfa2)" style="fill: url(#hae25fd9122); stroke: #ff7f0e; stroke-width: 2; stroke-linejoin: miter"/>
   </g>
   <g id="patch_95">
    <path d="M 553.185046 301.573344 
L 557.310205 301.573344 
L 557.310205 57.064718 
L 553.185046 57.064718 
z
" clip-path="url(#p10c77dbfa2)" style="fill: url(#hae25fd9122); stroke: #ff7f0e; stroke-width: 2; stroke-linejoin: miter"/>
   </g>
   <g id="patch_96">
    <path d="M 558.038174 301.573344 
L 562.163334 301.573344 
L 562.163334 56.815655 
L 558.038174 56.815655 
z
" clip-path="url(#p10c77dbfa2)" style="fill: url(#hae25fd9122); stroke: #ff7f0e; stroke-width: 2; stroke-linejoin: miter"/>
   </g>
   <g id="patch_97">
    <path d="M 562.891303 301.573344 
L 567.016462 301.573344 
L 567.016462 56.713136 
L 562.891303 56.713136 
z
" clip-path="url(#p10c77dbfa2)" style="fill: url(#hae25fd9122); stroke: #ff7f0e; stroke-width: 2; stroke-linejoin: miter"/>
   </g>
   <g id="patch_98">
    <path d="M 567.744432 301.573344 
L 571.869591 301.573344 
L 571.869591 56.404691 
L 567.744432 56.404691 
z
" clip-path="url(#p10c77dbfa2)" style="fill: url(#hae25fd9122); stroke: #ff7f0e; stroke-width: 2; stroke-linejoin: miter"/>
   </g>
   <g id="patch_99">
    <path d="M 572.59756 301.573344 
L 576.72272 301.573344 
L 576.72272 56.355589 
L 572.59756 56.355589 
z
" clip-path="url(#p10c77dbfa2)" style="fill: url(#hae25fd9122); stroke: #ff7f0e; stroke-width: 2; stroke-linejoin: miter"/>
   </g>
   <g id="patch_100">
    <path d="M 577.450689 301.573344 
L 581.575848 301.573344 
L 581.575848 56.270484 
L 577.450689 56.270484 
z
" clip-path="url(#p10c77dbfa2)" style="fill: url(#hae25fd9122); stroke: #ff7f0e; stroke-width: 2; stroke-linejoin: miter"/>
   </g>
   <g id="patch_101">
    <path d="M 582.303817 301.573344 
L 586.428977 301.573344 
L 586.428977 56.189295 
L 582.303817 56.189295 
z
" clip-path="url(#p10c77dbfa2)" style="fill: url(#hae25fd9122); stroke: #ff7f0e; stroke-width: 2; stroke-linejoin: miter"/>
   </g>
   <g id="patch_102">
    <path d="M 587.156946 301.573344 
L 591.282105 301.573344 
L 591.282105 56.167823 
L 587.156946 56.167823 
z
" clip-path="url(#p10c77dbfa2)" style="fill: url(#hae25fd9122); stroke: #ff7f0e; stroke-width: 2; stroke-linejoin: miter"/>
   </g>
   <g id="patch_103">
    <path d="M 592.010075 301.573344 
L 596.135234 301.573344 
L 596.135234 56.157587 
L 592.010075 56.157587 
z
" clip-path="url(#p10c77dbfa2)" style="fill: url(#hae25fd9122); stroke: #ff7f0e; stroke-width: 2; stroke-linejoin: miter"/>
   </g>
   <g id="patch_104">
    <path d="M 596.863203 301.573344 
L 600.988362 301.573344 
L 600.988362 56.137114 
L 596.863203 56.137114 
z
" clip-path="url(#p10c77dbfa2)" style="fill: url(#hae25fd9122); stroke: #ff7f0e; stroke-width: 2; stroke-linejoin: miter"/>
   </g>
   <g id="patch_105">
    <path d="M 601.716332 301.573344 
L 605.841491 301.573344 
L 605.841491 56.130499 
L 601.716332 56.130499 
z
" clip-path="url(#p10c77dbfa2)" style="fill: url(#hae25fd9122); stroke: #ff7f0e; stroke-width: 2; stroke-linejoin: miter"/>
   </g>
   <g id="patch_106">
    <path d="M 606.56946 301.573344 
L 610.69462 301.573344 
L 610.69462 56.099131 
L 606.56946 56.099131 
z
" clip-path="url(#p10c77dbfa2)" style="fill: url(#hae25fd9122); stroke: #ff7f0e; stroke-width: 2; stroke-linejoin: miter"/>
   </g>
   <g id="patch_107">
    <path d="M 611.422589 301.573344 
L 615.547748 301.573344 
L 615.547748 56.079632 
L 611.422589 56.079632 
z
" clip-path="url(#p10c77dbfa2)" style="fill: url(#hae25fd9122); stroke: #ff7f0e; stroke-width: 2; stroke-linejoin: miter"/>
   </g>
   <g id="patch_108">
    <path d="M 616.275718 301.573344 
L 620.400877 301.573344 
L 620.400877 56.041612 
L 616.275718 56.041612 
z
" clip-path="url(#p10c77dbfa2)" style="fill: url(#hae25fd9122); stroke: #ff7f0e; stroke-width: 2; stroke-linejoin: miter"/>
   </g>
   <g id="patch_109">
    <path d="M 621.128846 301.573344 
L 625.254005 301.573344 
L 625.254005 50.242682 
L 621.128846 50.242682 
z
" clip-path="url(#p10c77dbfa2)" style="fill: url(#hae25fd9122); stroke: #ff7f0e; stroke-width: 2; stroke-linejoin: miter"/>
   </g>
   <g id="patch_110">
    <path d="M 625.981975 301.573344 
L 630.107134 301.573344 
L 630.107134 49.742254 
L 625.981975 49.742254 
z
" clip-path="url(#p10c77dbfa2)" style="fill: url(#hae25fd9122); stroke: #ff7f0e; stroke-width: 2; stroke-linejoin: miter"/>
   </g>
   <g id="patch_111">
    <path d="M 630.835103 301.573344 
L 634.960263 301.573344 
L 634.960263 47.264806 
L 630.835103 47.264806 
z
" clip-path="url(#p10c77dbfa2)" style="fill: url(#hae25fd9122); stroke: #ff7f0e; stroke-width: 2; stroke-linejoin: miter"/>
   </g>
   <g id="patch_112">
    <path d="M 635.688232 301.573344 
L 639.813391 301.573344 
L 639.813391 47.235021 
L 635.688232 47.235021 
z
" clip-path="url(#p10c77dbfa2)" style="fill: url(#hae25fd9122); stroke: #ff7f0e; stroke-width: 2; stroke-linejoin: miter"/>
   </g>
   <g id="patch_113">
    <path d="M 640.54136 301.573344 
L 644.66652 301.573344 
L 644.66652 47.162992 
L 640.54136 47.162992 
z
" clip-path="url(#p10c77dbfa2)" style="fill: url(#hae25fd9122); stroke: #ff7f0e; stroke-width: 2; stroke-linejoin: miter"/>
   </g>
   <g id="patch_114">
    <path d="M 645.394489 301.573344 
L 649.519648 301.573344 
L 649.519648 47.157683 
L 645.394489 47.157683 
z
" clip-path="url(#p10c77dbfa2)" style="fill: url(#hae25fd9122); stroke: #ff7f0e; stroke-width: 2; stroke-linejoin: miter"/>
   </g>
   <g id="patch_115">
    <path d="M 650.247618 301.573344 
L 654.372777 301.573344 
L 654.372777 47.156963 
L 650.247618 47.156963 
z
" clip-path="url(#p10c77dbfa2)" style="fill: url(#hae25fd9122); stroke: #ff7f0e; stroke-width: 2; stroke-linejoin: miter"/>
   </g>
   <g id="patch_116">
    <path d="M 655.100746 301.573344 
L 659.225906 301.573344 
L 659.225906 47.155906 
L 655.100746 47.155906 
z
" clip-path="url(#p10c77dbfa2)" style="fill: url(#hae25fd9122); stroke: #ff7f0e; stroke-width: 2; stroke-linejoin: miter"/>
   </g>
   <g id="patch_117">
    <path d="M 659.953875 301.573344 
L 664.079034 301.573344 
L 664.079034 47.12254 
L 659.953875 47.12254 
z
" clip-path="url(#p10c77dbfa2)" style="fill: url(#hae25fd9122); stroke: #ff7f0e; stroke-width: 2; stroke-linejoin: miter"/>
   </g>
   <g id="line2d_26">
    <path d="M 78.828125 64.372351 
L 691.948125 64.372351 
" clip-path="url(#p10c77dbfa2)" style="fill: none; stroke-dasharray: 4.44,1.92; stroke-dashoffset: 0; stroke: #f58518; stroke-width: 1.2"/>
   </g>
   <g id="patch_118">
    <path d="M 78.828125 301.573344 
L 78.828125 34.4 
" style="fill: none; stroke: #808080; stroke-width: 0.8; stroke-linejoin: miter; stroke-linecap: square"/>
   </g>
   <g id="patch_119">
    <path d="M 78.828125 301.573344 
L 691.948125 301.573344 
" style="fill: none; stroke: #808080; stroke-width: 0.8; stroke-linejoin: miter; stroke-linecap: square"/>
   </g>
   <g id="text_23">
    <text style="font: 22px 'PingFang SC', 'Heiti SC', 'STHeiti', 'Calibri', 'Arial', 'Helvetica Neue', 'Arial Unicode MS', 'Noto Sans CJK SC', 'DejaVu Sans', sans-serif; text-anchor: middle" x="385.388125" y="28.4" transform="rotate(-0 385.388125 28.4)">排序条形 · Sustained TFLOPS</text>
   </g>
   <g id="legend_1">
    <g id="patch_120">
     <path d="M 87.228125 61.16 
L 208.01 61.16 
Q 210.41 61.16 210.41 58.76 
L 210.41 42.8 
Q 210.41 40.4 208.01 40.4 
L 87.228125 40.4 
Q 84.828125 40.4 84.828125 42.8 
L 84.828125 58.76 
Q 84.828125 61.16 87.228125 61.16 
z
" style="fill: #ffffff; opacity: 0.5; stroke: #cccccc; stroke-linejoin: miter"/>
    </g>
    <g id="line2d_27">
     <path d="M 89.628125 50.55125 
L 101.628125 50.55125 
L 113.628125 50.55125 
" style="fill: none; stroke-dasharray: 4.44,1.92; stroke-dashoffset: 0; stroke: #f58518; stroke-width: 1.2"/>
    </g>
    <g id="text_24">
     <text style="font: 12px 'PingFang SC', 'Heiti SC', 'STHeiti', 'Calibri', 'Arial', 'Helvetica Neue', 'Arial Unicode MS', 'Noto Sans CJK SC', 'DejaVu Sans', sans-serif; text-anchor: start" x="123.228125" y="54.75125" transform="rotate(-0 123.228125 54.75125)">median=279.3</text>
    </g>
   </g>
  </g>
 </g>
 <defs>
  <clipPath id="p10c77dbfa2">
   <rect x="78.828125" y="34.4" width="613.12" height="267.173344"/>
  </clipPath>
 </defs>
 <defs>
  <pattern id="h43281a19f8" patternUnits="userSpaceOnUse" x="0" y="0" width="72" height="72">
   <rect x="0" y="0" width="73" height="73" fill="none"/>
   <path d="M -36 36 
L 36 -36 
M -30 42 
L 42 -30 
M -24 48 
L 48 -24 
M -18 54 
L 54 -18 
M -12 60 
L 60 -12 
M -6 66 
L 66 -6 
M 0 72 
L 72 0 
M 6 78 
L 78 6 
M 12 84 
L 84 12 
M 18 90 
L 90 18 
M 24 96 
L 96 24 
M 30 102 
L 102 30 
M 36 108 
L 108 36 
M -36 36 
L 36 108 
M -30 30 
L 42 102 
M -24 24 
L 48 96 
M -18 18 
L 54 90 
M -12 12 
L 60 84 
M -6 6 
L 66 78 
M 0 0 
L 72 72 
M 6 -6 
L 78 66 
M 12 -12 
L 84 60 
M 18 -18 
L 90 54 
M 24 -24 
L 96 48 
M 30 -30 
L 102 42 
M 36 -36 
L 108 36 
" style="fill: #2ca02c; stroke: #2ca02c; stroke-width: 1.0; stroke-linecap: butt; stroke-linejoin: miter"/>
  </pattern>
  <pattern id="hae25fd9122" patternUnits="userSpaceOnUse" x="0" y="0" width="72" height="72">
   <rect x="0" y="0" width="73" height="73" fill="none"/>
   <path d="M -36 36 
L 36 -36 
M -30 42 
L 42 -30 
M -24 48 
L 48 -24 
M -18 54 
L 54 -18 
M -12 60 
L 60 -12 
M -6 66 
L 66 -6 
M 0 72 
L 72 0 
M 6 78 
L 78 6 
M 12 84 
L 84 12 
M 18 90 
L 90 18 
M 24 96 
L 96 24 
M 30 102 
L 102 30 
M 36 108 
L 108 36 
" style="fill: #ff7f0e; stroke: #ff7f0e; stroke-width: 1.0; stroke-linecap: butt; stroke-linejoin: miter"/>
  </pattern>
 </defs>
</svg>
