<?xml version="1.0" encoding="utf-8" standalone="no"?>
<!DOCTYPE svg PUBLIC "-//W3C//DTD SVG 1.1//EN"
  "http://www.w3.org/Graphics/SVG/1.1/DTD/svg11.dtd">
<svg xmlns:xlink="http://www.w3.org/1999/xlink" width="702.9825pt" height="342.846086pt" viewBox="0 0 702.9825 342.846086" xmlns="http://www.w3.org/2000/svg" version="1.1">
 <metadata>
  <rdf:RDF xmlns:dc="http://purl.org/dc/elements/1.1/" xmlns:cc="http://creativecommons.org/ns#" xmlns:rdf="http://www.w3.org/1999/02/22-rdf-syntax-ns#">
   <cc:Work>
    <dc:type rdf:resource="http://purl.org/dc/dcmitype/StillImage"/>
    <dc:date>2026-07-11T23:31:18.552340</dc:date>
    <dc:format>image/svg+xml</dc:format>
    <dc:creator>
     <cc:Agent>
      <dc:title>Matplotlib v3.9.4, https://matplotlib.org/</dc:title>
     </cc:Agent>
    </dc:creator>
   </cc:Work>
  </rdf:RDF>
 </metadata>
 <defs>
  <style type="text/css">*{stroke-linejoin: round; stroke-linecap: butt}</style>
 </defs>
 <g id="figure_1">
  <g id="patch_1">
   <path d="M 0 342.846086 
L 702.9825 342.846086 
L 702.9825 0 
L 0 0 
z
" style="fill: #ffffff"/>
  </g>
  <g id="axes_1">
   <g id="patch_2">
    <path d="M 67.5875 301.498436 
L 692.1825 301.498436 
L 692.1825 35.259375 
L 67.5875 35.259375 
z
" style="fill: #ffffff"/>
   </g>
   <g id="matplotlib.axis_1">
    <g id="xtick_1">
     <g id="line2d_1">
      <defs>
       <path id="m91734862c6" d="M 0 0 
L 0 3.5 
" style="stroke: #808080; stroke-width: 0.8"/>
      </defs>
      <g>
       <use xlink:href="#m91734862c6" x="98.079364" y="301.498436" style="fill: #808080; stroke: #808080; stroke-width: 0.8"/>
      </g>
     </g>
     <g id="text_1">
      <text style="fill: #808080; font: 9px 'PingFang SC', 'Heiti SC', 'STHeiti', 'Calibri', 'Arial', 'Helvetica Neue', 'Arial Unicode MS', 'Noto Sans CJK SC', 'DejaVu Sans', sans-serif" transform="translate(83.123061 327.666886) rotate(-45)">w6.1</text>
     </g>
    </g>
    <g id="xtick_2">
     <g id="line2d_2">
      <g>
       <use xlink:href="#m91734862c6" x="132.687074" y="301.498436" style="fill: #808080; stroke: #808080; stroke-width: 0.8"/>
      </g>
     </g>
     <g id="text_2">
      <text style="fill: #808080; font: 9px 'PingFang SC', 'Heiti SC', 'STHeiti', 'Calibri', 'Arial', 'Helvetica Neue', 'Arial Unicode MS', 'Noto Sans CJK SC', 'DejaVu Sans', sans-serif" transform="translate(117.730771 327.666886) rotate(-45)">w1.0</text>
     </g>
    </g>
    <g id="xtick_3">
     <g id="line2d_3">
      <g>
       <use xlink:href="#m91734862c6" x="167.294784" y="301.498436" style="fill: #808080; stroke: #808080; stroke-width: 0.8"/>
      </g>
     </g>
     <g id="text_3">
      <text style="fill: #808080; font: 9px 'PingFang SC', 'Heiti SC', 'STHeiti', 'Calibri', 'Arial', 'Helvetica Neue', 'Arial Unicode MS', 'Noto Sans CJK SC', 'DejaVu Sans', sans-serif" transform="translate(152.338481 327.666886) rotate(-45)">w2.6</text>
     </g>
    </g>
    <g id="xtick_4">
     <g id="line2d_4">
      <g>
       <use xlink:href="#m91734862c6" x="201.902493" y="301.498436" style="fill: #808080; stroke: #808080; stroke-width: 0.8"/>
      </g>
     </g>
     <g id="text_4">
      <text style="fill: #808080; font: 9px 'PingFang SC', 'Heiti SC', 'STHeiti', 'Calibri', 'Arial', 'Helvetica Neue', 'Arial Unicode MS', 'Noto Sans CJK SC', 'DejaVu Sans', sans-serif" transform="translate(183.420158 331.192918) rotate(-45)">w10.0</text>
     </g>
    </g>
    <g id="xtick_5">
     <g id="line2d_5">
      <g>
       <use xlink:href="#m91734862c6" x="236.510203" y="301.498436" style="fill: #808080; stroke: #808080; stroke-width: 0.8"/>
      </g>
     </g>
     <g id="text_5">
      <text style="fill: #808080; font: 9px 'PingFang SC', 'Heiti SC', 'STHeiti', 'Calibri', 'Arial', 'Helvetica Neue', 'Arial Unicode MS', 'Noto Sans CJK SC', 'DejaVu Sans', sans-serif" transform="translate(221.5539 327.666886) rotate(-45)">w6.3</text>
     </g>
    </g>
    <g id="xtick_6">
     <g id="line2d_6">
      <g>
       <use xlink:href="#m91734862c6" x="271.117912" y="301.498436" style="fill: #808080; stroke: #808080; stroke-width: 0.8"/>
      </g>
     </g>
     <g id="text_6">
      <text style="fill: #808080; font: 9px 'PingFang SC', 'Heiti SC', 'STHeiti', 'Calibri', 'Arial', 'Helvetica Neue', 'Arial Unicode MS', 'Noto Sans CJK SC', 'DejaVu Sans', sans-serif" transform="translate(252.635578 331.192918) rotate(-45)">w12.3</text>
     </g>
    </g>
    <g id="xtick_7">
     <g id="line2d_7">
      <g>
       <use xlink:href="#m91734862c6" x="305.725622" y="301.498436" style="fill: #808080; stroke: #808080; stroke-width: 0.8"/>
      </g>
     </g>
     <g id="text_7">
      <text style="fill: #808080; font: 9px 'PingFang SC', 'Heiti SC', 'STHeiti', 'Calibri', 'Arial', 'Helvetica Neue', 'Arial Unicode MS', 'Noto Sans CJK SC', 'DejaVu Sans', sans-serif" transform="translate(290.769319 327.666886) rotate(-45)">w0.0</text>
     </g>
    </g>
    <g id="xtick_8">
     <g id="line2d_8">
      <g>
       <use xlink:href="#m91734862c6" x="340.333332" y="301.498436" style="fill: #808080; stroke: #808080; stroke-width: 0.8"/>
      </g>
     </g>
     <g id="text_8">
      <text style="fill: #808080; font: 9px 'PingFang SC', 'Heiti SC', 'STHeiti', 'Calibri', 'Arial', 'Helvetica Neue', 'Arial Unicode MS', 'Noto Sans CJK SC', 'DejaVu Sans', sans-serif" transform="translate(321.850997 331.192918) rotate(-45)">w11.1</text>
     </g>
    </g>
    <g id="xtick_9">
     <g id="line2d_9">
      <g>
       <use xlink:href="#m91734862c6" x="374.941041" y="301.498436" style="fill: #808080; stroke: #808080; stroke-width: 0.8"/>
      </g>
     </g>
     <g id="text_9">
      <text style="fill: #808080; font: 9px 'PingFang SC', 'Heiti SC', 'STHeiti', 'Calibri', 'Arial', 'Helvetica Neue', 'Arial Unicode MS', 'Noto Sans CJK SC', 'DejaVu Sans', sans-serif" transform="translate(356.458707 331.192918) rotate(-45)">w13.7</text>
     </g>
    </g>
    <g id="xtick_10">
     <g id="line2d_10">
      <g>
       <use xlink:href="#m91734862c6" x="409.548751" y="301.498436" style="fill: #808080; stroke: #808080; stroke-width: 0.8"/>
      </g>
     </g>
     <g id="text_10">
      <text style="fill: #808080; font: 9px 'PingFang SC', 'Heiti SC', 'STHeiti', 'Calibri', 'Arial', 'Helvetica Neue', 'Arial Unicode MS', 'Noto Sans CJK SC', 'DejaVu Sans', sans-serif" transform="translate(394.592448 327.666886) rotate(-45)">w0.5</text>
     </g>
    </g>
    <g id="xtick_11">
     <g id="line2d_11">
      <g>
       <use xlink:href="#m91734862c6" x="444.156461" y="301.498436" style="fill: #808080; stroke: #808080; stroke-width: 0.8"/>
      </g>
     </g>
     <g id="text_11">
      <text style="fill: #808080; font: 9px 'PingFang SC', 'Heiti SC', 'STHeiti', 'Calibri', 'Arial', 'Helvetica Neue', 'Arial Unicode MS', 'Noto Sans CJK SC', 'DejaVu Sans', sans-serif" transform="translate(429.200158 327.666886) rotate(-45)">w2.1</text>
     </g>
    </g>
    <g id="xtick_12">
     <g id="line2d_12">
      <g>
       <use xlink:href="#m91734862c6" x="478.76417" y="301.498436" style="fill: #808080; stroke: #808080; stroke-width: 0.8"/>
      </g>
     </g>
     <g id="text_12">
      <text style="fill: #808080; font: 9px 'PingFang SC', 'Heiti SC', 'STHeiti', 'Calibri', 'Arial', 'Helvetica Neue', 'Arial Unicode MS', 'Noto Sans CJK SC', 'DejaVu Sans', sans-serif" transform="translate(463.807868 327.666886) rotate(-45)">w9.1</text>
     </g>
    </g>
    <g id="xtick_13">
     <g id="line2d_13">
      <g>
       <use xlink:href="#m91734862c6" x="513.37188" y="301.498436" style="fill: #808080; stroke: #808080; stroke-width: 0.8"/>
      </g>
     </g>
     <g id="text_13">
      <text style="fill: #808080; font: 9px 'PingFang SC', 'Heiti SC', 'STHeiti', 'Calibri', 'Arial', 'Helvetica Neue', 'Arial Unicode MS', 'Noto Sans CJK SC', 'DejaVu Sans', sans-serif" transform="translate(494.889545 331.192918) rotate(-45)">w11.7</text>
     </g>
    </g>
    <g id="xtick_14">
     <g id="line2d_14">
      <g>
       <use xlink:href="#m91734862c6" x="547.97959" y="301.498436" style="fill: #808080; stroke: #808080; stroke-width: 0.8"/>
      </g>
     </g>
     <g id="text_14">
      <text style="fill: #808080; font: 9px 'PingFang SC', 'Heiti SC', 'STHeiti', 'Calibri', 'Arial', 'Helvetica Neue', 'Arial Unicode MS', 'Noto Sans CJK SC', 'DejaVu Sans', sans-serif" transform="translate(533.023287 327.666886) rotate(-45)">w3.7</text>
     </g>
    </g>
    <g id="xtick_15">
     <g id="line2d_15">
      <g>
       <use xlink:href="#m91734862c6" x="582.587299" y="301.498436" style="fill: #808080; stroke: #808080; stroke-width: 0.8"/>
      </g>
     </g>
     <g id="text_15">
      <text style="fill: #808080; font: 9px 'PingFang SC', 'Heiti SC', 'STHeiti', 'Calibri', 'Arial', 'Helvetica Neue', 'Arial Unicode MS', 'Noto Sans CJK SC', 'DejaVu Sans', sans-serif" transform="translate(567.630997 327.666886) rotate(-45)">w0.2</text>
     </g>
    </g>
    <g id="xtick_16">
     <g id="line2d_16">
      <g>
       <use xlink:href="#m91734862c6" x="617.195009" y="301.498436" style="fill: #808080; stroke: #808080; stroke-width: 0.8"/>
      </g>
     </g>
     <g id="text_16">
      <text style="fill: #808080; font: 9px 'PingFang SC', 'Heiti SC', 'STHeiti', 'Calibri', 'Arial', 'Helvetica Neue', 'Arial Unicode MS', 'Noto Sans CJK SC', 'DejaVu Sans', sans-serif" transform="translate(602.238706 327.666886) rotate(-45)">w9.0</text>
     </g>
    </g>
    <g id="xtick_17">
     <g id="line2d_17">
      <g>
       <use xlink:href="#m91734862c6" x="651.802719" y="301.498436" style="fill: #808080; stroke: #808080; stroke-width: 0.8"/>
      </g>
     </g>
     <g id="text_17">
      <text style="fill: #808080; font: 9px 'PingFang SC', 'Heiti SC', 'STHeiti', 'Calibri', 'Arial', 'Helvetica Neue', 'Arial Unicode MS', 'Noto Sans CJK SC', 'DejaVu Sans', sans-serif" transform="translate(636.846416 327.666886) rotate(-45)">w5.2</text>
     </g>
    </g>
   </g>
   <g id="matplotlib.axis_2">
    <g id="ytick_1">
     <g id="line2d_18">
      <path d="M 67.5875 301.498436 
L 692.1825 301.498436 
" clip-path="url(#p4d72eaa723)" style="fill: none; stroke-dasharray: 1,1.65; stroke-dashoffset: 0; stroke: #808080; stroke-opacity: 0.55"/>
     </g>
     <g id="line2d_19">
      <defs>
       <path id="mf0a881d25d" d="M 0 0 
L -3.5 0 
" style="stroke: #808080; stroke-width: 0.8"/>
      </defs>
      <g>
       <use xlink:href="#mf0a881d25d" x="67.5875" y="301.498436" style="fill: #808080; stroke: #808080; stroke-width: 0.8"/>
      </g>
     </g>
     <g id="text_18">
      <text style="fill: #808080; font: 22px 'PingFang SC', 'Heiti SC', 'STHeiti', 'Calibri', 'Arial', 'Helvetica Neue', 'Arial Unicode MS', 'Noto Sans CJK SC', 'DejaVu Sans', sans-serif; text-anchor: end" x="60.5875" y="310.253749" transform="rotate(-0 60.5875 310.253749)">0</text>
     </g>
    </g>
    <g id="ytick_2">
     <g id="line2d_20">
      <path d="M 67.5875 219.704562 
L 692.1825 219.704562 
" clip-path="url(#p4d72eaa723)" style="fill: none; stroke-dasharray: 1,1.65; stroke-dashoffset: 0; stroke: #808080; stroke-opacity: 0.55"/>
     </g>
     <g id="line2d_21">
      <g>
       <use xlink:href="#mf0a881d25d" x="67.5875" y="219.704562" style="fill: #808080; stroke: #808080; stroke-width: 0.8"/>
      </g>
     </g>
     <g id="text_19">
      <text style="fill: #808080; font: 22px 'PingFang SC', 'Heiti SC', 'STHeiti', 'Calibri', 'Arial', 'Helvetica Neue', 'Arial Unicode MS', 'Noto Sans CJK SC', 'DejaVu Sans', sans-serif; text-anchor: end" x="60.5875" y="228.459874" transform="rotate(-0 60.5875 228.459874)">20</text>
     </g>
    </g>
    <g id="ytick_3">
     <g id="line2d_22">
      <path d="M 67.5875 137.910687 
L 692.1825 137.910687 
" clip-path="url(#p4d72eaa723)" style="fill: none; stroke-dasharray: 1,1.65; stroke-dashoffset: 0; stroke: #808080; stroke-opacity: 0.55"/>
     </g>
     <g id="line2d_23">
      <g>
       <use xlink:href="#mf0a881d25d" x="67.5875" y="137.910687" style="fill: #808080; stroke: #808080; stroke-width: 0.8"/>
      </g>
     </g>
     <g id="text_20">
      <text style="fill: #808080; font: 22px 'PingFang SC', 'Heiti SC', 'STHeiti', 'Calibri', 'Arial', 'Helvetica Neue', 'Arial Unicode MS', 'Noto Sans CJK SC', 'DejaVu Sans', sans-serif; text-anchor: end" x="60.5875" y="146.666" transform="rotate(-0 60.5875 146.666)">40</text>
     </g>
    </g>
    <g id="ytick_4">
     <g id="line2d_24">
      <path d="M 67.5875 56.116813 
L 692.1825 56.116813 
" clip-path="url(#p4d72eaa723)" style="fill: none; stroke-dasharray: 1,1.65; stroke-dashoffset: 0; stroke: #808080; stroke-opacity: 0.55"/>
     </g>
     <g id="line2d_25">
      <g>
       <use xlink:href="#mf0a881d25d" x="67.5875" y="56.116813" style="fill: #808080; stroke: #808080; stroke-width: 0.8"/>
      </g>
     </g>
     <g id="text_21">
      <text style="fill: #808080; font: 22px 'PingFang SC', 'Heiti SC', 'STHeiti', 'Calibri', 'Arial', 'Helvetica Neue', 'Arial Unicode MS', 'Noto Sans CJK SC', 'DejaVu Sans', sans-serif; text-anchor: end" x="60.5875" y="64.872125" transform="rotate(-0 60.5875 64.872125)">60</text>
     </g>
    </g>
    <g id="text_22">
     <text style="font: 22px 'PingFang SC', 'Heiti SC', 'STHeiti', 'Calibri', 'Arial', 'Helvetica Neue', 'Arial Unicode MS', 'Noto Sans CJK SC', 'DejaVu Sans', sans-serif; text-anchor: middle" x="29.259375" y="168.378906" transform="rotate(-90 29.259375 168.378906)">Board temp (C)</text>
    </g>
   </g>
   <g id="patch_3">
    <path d="M 95.978182 301.498436 
L 100.180547 301.498436 
L 100.180547 109.282831 
L 95.978182 109.282831 
z
" clip-path="url(#p4d72eaa723)" style="fill: url(#h72f7721b14); stroke: #2ca02c; stroke-width: 2; stroke-linejoin: miter"/>
   </g>
   <g id="patch_4">
    <path d="M 100.92214 301.498436 
L 105.124505 301.498436 
L 105.124505 101.103444 
L 100.92214 101.103444 
z
" clip-path="url(#p4d72eaa723)" style="fill: url(#h72f7721b14); stroke: #2ca02c; stroke-width: 2; stroke-linejoin: miter"/>
   </g>
   <g id="patch_5">
    <path d="M 105.866099 301.498436 
L 110.068464 301.498436 
L 110.068464 97.01375 
L 105.866099 97.01375 
z
" clip-path="url(#p4d72eaa723)" style="fill: url(#h72f7721b14); stroke: #2ca02c; stroke-width: 2; stroke-linejoin: miter"/>
   </g>
   <g id="patch_6">
    <path d="M 110.810057 301.498436 
L 115.012422 301.498436 
L 115.012422 97.01375 
L 110.810057 97.01375 
z
" clip-path="url(#p4d72eaa723)" style="fill: url(#h72f7721b14); stroke: #2ca02c; stroke-width: 2; stroke-linejoin: miter"/>
   </g>
   <g id="patch_7">
    <path d="M 115.754016 301.498436 
L 119.956381 301.498436 
L 119.956381 97.01375 
L 115.754016 97.01375 
z
" clip-path="url(#p4d72eaa723)" style="fill: url(#h72f7721b14); stroke: #2ca02c; stroke-width: 2; stroke-linejoin: miter"/>
   </g>
   <g id="patch_8">
    <path d="M 120.697974 301.498436 
L 124.900339 301.498436 
L 124.900339 97.01375 
L 120.697974 97.01375 
z
" clip-path="url(#p4d72eaa723)" style="fill: url(#h72f7721b14); stroke: #2ca02c; stroke-width: 2; stroke-linejoin: miter"/>
   </g>
   <g id="patch_9">
    <path d="M 125.641933 301.498436 
L 129.844298 301.498436 
L 129.844298 92.924056 
L 125.641933 92.924056 
z
" clip-path="url(#p4d72eaa723)" style="fill: url(#h72f7721b14); stroke: #2ca02c; stroke-width: 2; stroke-linejoin: miter"/>
   </g>
   <g id="patch_10">
    <path d="M 130.585891 301.498436 
L 134.788256 301.498436 
L 134.788256 92.924056 
L 130.585891 92.924056 
z
" clip-path="url(#p4d72eaa723)" style="fill: url(#h72f7721b14); stroke: #2ca02c; stroke-width: 2; stroke-linejoin: miter"/>
   </g>
   <g id="patch_11">
    <path d="M 135.52985 301.498436 
L 139.732215 301.498436 
L 139.732215 92.924056 
L 135.52985 92.924056 
z
" clip-path="url(#p4d72eaa723)" style="fill: url(#h72f7721b14); stroke: #2ca02c; stroke-width: 2; stroke-linejoin: miter"/>
   </g>
   <g id="patch_12">
    <path d="M 140.473809 301.498436 
L 144.676173 301.498436 
L 144.676173 92.924056 
L 140.473809 92.924056 
z
" clip-path="url(#p4d72eaa723)" style="fill: url(#h72f7721b14); stroke: #2ca02c; stroke-width: 2; stroke-linejoin: miter"/>
   </g>
   <g id="patch_13">
    <path d="M 145.417767 301.498436 
L 149.620132 301.498436 
L 149.620132 92.924056 
L 145.417767 92.924056 
z
" clip-path="url(#p4d72eaa723)" style="fill: url(#h72f7721b14); stroke: #2ca02c; stroke-width: 2; stroke-linejoin: miter"/>
   </g>
   <g id="patch_14">
    <path d="M 150.361726 301.498436 
L 154.56409 301.498436 
L 154.56409 92.924056 
L 150.361726 92.924056 
z
" clip-path="url(#p4d72eaa723)" style="fill: url(#h72f7721b14); stroke: #2ca02c; stroke-width: 2; stroke-linejoin: miter"/>
   </g>
   <g id="patch_15">
    <path d="M 155.305684 301.498436 
L 159.508049 301.498436 
L 159.508049 92.924056 
L 155.305684 92.924056 
z
" clip-path="url(#p4d72eaa723)" style="fill: url(#h72f7721b14); stroke: #2ca02c; stroke-width: 2; stroke-linejoin: miter"/>
   </g>
   <g id="patch_16">
    <path d="M 160.249643 301.498436 
L 164.452007 301.498436 
L 164.452007 92.924056 
L 160.249643 92.924056 
z
" clip-path="url(#p4d72eaa723)" style="fill: url(#h72f7721b14); stroke: #2ca02c; stroke-width: 2; stroke-linejoin: miter"/>
   </g>
   <g id="patch_17">
    <path d="M 165.193601 301.498436 
L 169.395966 301.498436 
L 169.395966 92.924056 
L 165.193601 92.924056 
z
" clip-path="url(#p4d72eaa723)" style="fill: url(#h72f7721b14); stroke: #2ca02c; stroke-width: 2; stroke-linejoin: miter"/>
   </g>
   <g id="patch_18">
    <path d="M 170.13756 301.498436 
L 174.339924 301.498436 
L 174.339924 92.924056 
L 170.13756 92.924056 
z
" clip-path="url(#p4d72eaa723)" style="fill: url(#h72f7721b14); stroke: #2ca02c; stroke-width: 2; stroke-linejoin: miter"/>
   </g>
   <g id="patch_19">
    <path d="M 175.081518 301.498436 
L 179.283883 301.498436 
L 179.283883 92.924056 
L 175.081518 92.924056 
z
" clip-path="url(#p4d72eaa723)" style="fill: url(#h72f7721b14); stroke: #2ca02c; stroke-width: 2; stroke-linejoin: miter"/>
   </g>
   <g id="patch_20">
    <path d="M 180.025477 301.498436 
L 184.227841 301.498436 
L 184.227841 92.924056 
L 180.025477 92.924056 
z
" clip-path="url(#p4d72eaa723)" style="fill: url(#h72f7721b14); stroke: #2ca02c; stroke-width: 2; stroke-linejoin: miter"/>
   </g>
   <g id="patch_21">
    <path d="M 184.969435 301.498436 
L 189.1718 301.498436 
L 189.1718 88.834363 
L 184.969435 88.834363 
z
" clip-path="url(#p4d72eaa723)" style="fill: url(#h72f7721b14); stroke: #2ca02c; stroke-width: 2; stroke-linejoin: miter"/>
   </g>
   <g id="patch_22">
    <path d="M 189.913394 301.498436 
L 194.115758 301.498436 
L 194.115758 88.834363 
L 189.913394 88.834363 
z
" clip-path="url(#p4d72eaa723)" style="fill: url(#h72f7721b14); stroke: #2ca02c; stroke-width: 2; stroke-linejoin: miter"/>
   </g>
   <g id="patch_23">
    <path d="M 194.857352 301.498436 
L 199.059717 301.498436 
L 199.059717 88.834363 
L 194.857352 88.834363 
z
" clip-path="url(#p4d72eaa723)" style="fill: url(#h72f7721b14); stroke: #2ca02c; stroke-width: 2; stroke-linejoin: miter"/>
   </g>
   <g id="patch_24">
    <path d="M 199.801311 301.498436 
L 204.003676 301.498436 
L 204.003676 88.834363 
L 199.801311 88.834363 
z
" clip-path="url(#p4d72eaa723)" style="fill: url(#h72f7721b14); stroke: #2ca02c; stroke-width: 2; stroke-linejoin: miter"/>
   </g>
   <g id="patch_25">
    <path d="M 204.745269 301.498436 
L 208.947634 301.498436 
L 208.947634 88.834363 
L 204.745269 88.834363 
z
" clip-path="url(#p4d72eaa723)" style="fill: url(#h72f7721b14); stroke: #2ca02c; stroke-width: 2; stroke-linejoin: miter"/>
   </g>
   <g id="patch_26">
    <path d="M 209.689228 301.498436 
L 213.891593 301.498436 
L 213.891593 88.834363 
L 209.689228 88.834363 
z
" clip-path="url(#p4d72eaa723)" style="fill: url(#h72f7721b14); stroke: #2ca02c; stroke-width: 2; stroke-linejoin: miter"/>
   </g>
   <g id="patch_27">
    <path d="M 214.633186 301.498436 
L 218.835551 301.498436 
L 218.835551 88.834363 
L 214.633186 88.834363 
z
" clip-path="url(#p4d72eaa723)" style="fill: url(#h72f7721b14); stroke: #2ca02c; stroke-width: 2; stroke-linejoin: miter"/>
   </g>
   <g id="patch_28">
    <path d="M 219.577145 301.498436 
L 223.77951 301.498436 
L 223.77951 88.834363 
L 219.577145 88.834363 
z
" clip-path="url(#p4d72eaa723)" style="fill: url(#h72f7721b14); stroke: #2ca02c; stroke-width: 2; stroke-linejoin: miter"/>
   </g>
   <g id="patch_29">
    <path d="M 224.521103 301.498436 
L 228.723468 301.498436 
L 228.723468 88.834363 
L 224.521103 88.834363 
z
" clip-path="url(#p4d72eaa723)" style="fill: url(#h72f7721b14); stroke: #2ca02c; stroke-width: 2; stroke-linejoin: miter"/>
   </g>
   <g id="patch_30">
    <path d="M 229.465062 301.498436 
L 233.667427 301.498436 
L 233.667427 88.834363 
L 229.465062 88.834363 
z
" clip-path="url(#p4d72eaa723)" style="fill: url(#h72f7721b14); stroke: #2ca02c; stroke-width: 2; stroke-linejoin: miter"/>
   </g>
   <g id="patch_31">
    <path d="M 234.40902 301.498436 
L 238.611385 301.498436 
L 238.611385 88.834363 
L 234.40902 88.834363 
z
" clip-path="url(#p4d72eaa723)" style="fill: url(#h72f7721b14); stroke: #2ca02c; stroke-width: 2; stroke-linejoin: miter"/>
   </g>
   <g id="patch_32">
    <path d="M 239.352979 301.498436 
L 243.555344 301.498436 
L 243.555344 88.834363 
L 239.352979 88.834363 
z
" clip-path="url(#p4d72eaa723)" style="fill: url(#h72f7721b14); stroke: #2ca02c; stroke-width: 2; stroke-linejoin: miter"/>
   </g>
   <g id="patch_33">
    <path d="M 244.296938 301.498436 
L 248.499302 301.498436 
L 248.499302 88.834363 
L 244.296938 88.834363 
z
" clip-path="url(#p4d72eaa723)" style="fill: url(#h72f7721b14); stroke: #2ca02c; stroke-width: 2; stroke-linejoin: miter"/>
   </g>
   <g id="patch_34">
    <path d="M 249.240896 301.498436 
L 253.443261 301.498436 
L 253.443261 88.834363 
L 249.240896 88.834363 
z
" clip-path="url(#p4d72eaa723)" style="fill: url(#h72f7721b14); stroke: #2ca02c; stroke-width: 2; stroke-linejoin: miter"/>
   </g>
   <g id="patch_35">
    <path d="M 254.184855 301.498436 
L 258.387219 301.498436 
L 258.387219 84.744669 
L 254.184855 84.744669 
z
" clip-path="url(#p4d72eaa723)" style="fill: url(#h72f7721b14); stroke: #2ca02c; stroke-width: 2; stroke-linejoin: miter"/>
   </g>
   <g id="patch_36">
    <path d="M 259.128813 301.498436 
L 263.331178 301.498436 
L 263.331178 84.744669 
L 259.128813 84.744669 
z
" clip-path="url(#p4d72eaa723)" style="fill: url(#h72f7721b14); stroke: #2ca02c; stroke-width: 2; stroke-linejoin: miter"/>
   </g>
   <g id="patch_37">
    <path d="M 264.072772 301.498436 
L 268.275136 301.498436 
L 268.275136 84.744669 
L 264.072772 84.744669 
z
" clip-path="url(#p4d72eaa723)" style="fill: url(#h72f7721b14); stroke: #2ca02c; stroke-width: 2; stroke-linejoin: miter"/>
   </g>
   <g id="patch_38">
    <path d="M 269.01673 301.498436 
L 273.219095 301.498436 
L 273.219095 84.744669 
L 269.01673 84.744669 
z
" clip-path="url(#p4d72eaa723)" style="fill: url(#h72f7721b14); stroke: #2ca02c; stroke-width: 2; stroke-linejoin: miter"/>
   </g>
   <g id="patch_39">
    <path d="M 273.960689 301.498436 
L 278.163053 301.498436 
L 278.163053 84.744669 
L 273.960689 84.744669 
z
" clip-path="url(#p4d72eaa723)" style="fill: url(#h72f7721b14); stroke: #2ca02c; stroke-width: 2; stroke-linejoin: miter"/>
   </g>
   <g id="patch_40">
    <path d="M 278.904647 301.498436 
L 283.107012 301.498436 
L 283.107012 84.744669 
L 278.904647 84.744669 
z
" clip-path="url(#p4d72eaa723)" style="fill: url(#h72f7721b14); stroke: #2ca02c; stroke-width: 2; stroke-linejoin: miter"/>
   </g>
   <g id="patch_41">
    <path d="M 283.848606 301.498436 
L 288.05097 301.498436 
L 288.05097 84.744669 
L 283.848606 84.744669 
z
" clip-path="url(#p4d72eaa723)" style="fill: url(#h72f7721b14); stroke: #2ca02c; stroke-width: 2; stroke-linejoin: miter"/>
   </g>
   <g id="patch_42">
    <path d="M 288.792564 301.498436 
L 292.994929 301.498436 
L 292.994929 84.744669 
L 288.792564 84.744669 
z
" clip-path="url(#p4d72eaa723)" style="fill: url(#h72f7721b14); stroke: #2ca02c; stroke-width: 2; stroke-linejoin: miter"/>
   </g>
   <g id="patch_43">
    <path d="M 293.736523 301.498436 
L 297.938887 301.498436 
L 297.938887 84.744669 
L 293.736523 84.744669 
z
" clip-path="url(#p4d72eaa723)" style="fill: url(#h72f7721b14); stroke: #2ca02c; stroke-width: 2; stroke-linejoin: miter"/>
   </g>
   <g id="patch_44">
    <path d="M 298.680481 301.498436 
L 302.882846 301.498436 
L 302.882846 80.654975 
L 298.680481 80.654975 
z
" clip-path="url(#p4d72eaa723)" style="fill: url(#h5c7312ea3c); stroke: #ff7f0e; stroke-width: 2; stroke-linejoin: miter"/>
   </g>
   <g id="patch_45">
    <path d="M 303.62444 301.498436 
L 307.826805 301.498436 
L 307.826805 80.654975 
L 303.62444 80.654975 
z
" clip-path="url(#p4d72eaa723)" style="fill: url(#h5c7312ea3c); stroke: #ff7f0e; stroke-width: 2; stroke-linejoin: miter"/>
   </g>
   <g id="patch_46">
    <path d="M 308.568398 301.498436 
L 312.770763 301.498436 
L 312.770763 80.654975 
L 308.568398 80.654975 
z
" clip-path="url(#p4d72eaa723)" style="fill: url(#h5c7312ea3c); stroke: #ff7f0e; stroke-width: 2; stroke-linejoin: miter"/>
   </g>
   <g id="patch_47">
    <path d="M 313.512357 301.498436 
L 317.714722 301.498436 
L 317.714722 80.654975 
L 313.512357 80.654975 
z
" clip-path="url(#p4d72eaa723)" style="fill: url(#h5c7312ea3c); stroke: #ff7f0e; stroke-width: 2; stroke-linejoin: miter"/>
   </g>
   <g id="patch_48">
    <path d="M 318.456315 301.498436 
L 322.65868 301.498436 
L 322.65868 80.654975 
L 318.456315 80.654975 
z
" clip-path="url(#p4d72eaa723)" style="fill: url(#h5c7312ea3c); stroke: #ff7f0e; stroke-width: 2; stroke-linejoin: miter"/>
   </g>
   <g id="patch_49">
    <path d="M 323.400274 301.498436 
L 327.602639 301.498436 
L 327.602639 80.654975 
L 323.400274 80.654975 
z
" clip-path="url(#p4d72eaa723)" style="fill: url(#h5c7312ea3c); stroke: #ff7f0e; stroke-width: 2; stroke-linejoin: miter"/>
   </g>
   <g id="patch_50">
    <path d="M 328.344232 301.498436 
L 332.546597 301.498436 
L 332.546597 80.654975 
L 328.344232 80.654975 
z
" clip-path="url(#p4d72eaa723)" style="fill: url(#h5c7312ea3c); stroke: #ff7f0e; stroke-width: 2; stroke-linejoin: miter"/>
   </g>
   <g id="patch_51">
    <path d="M 333.288191 301.498436 
L 337.490556 301.498436 
L 337.490556 80.654975 
L 333.288191 80.654975 
z
" clip-path="url(#p4d72eaa723)" style="fill: url(#h5c7312ea3c); stroke: #ff7f0e; stroke-width: 2; stroke-linejoin: miter"/>
   </g>
   <g id="patch_52">
    <path d="M 338.232149 301.498436 
L 342.434514 301.498436 
L 342.434514 80.654975 
L 338.232149 80.654975 
z
" clip-path="url(#p4d72eaa723)" style="fill: url(#h5c7312ea3c); stroke: #ff7f0e; stroke-width: 2; stroke-linejoin: miter"/>
   </g>
   <g id="patch_53">
    <path d="M 343.176108 301.498436 
L 347.378473 301.498436 
L 347.378473 80.654975 
L 343.176108 80.654975 
z
" clip-path="url(#p4d72eaa723)" style="fill: url(#h5c7312ea3c); stroke: #ff7f0e; stroke-width: 2; stroke-linejoin: miter"/>
   </g>
   <g id="patch_54">
    <path d="M 348.120066 301.498436 
L 352.322431 301.498436 
L 352.322431 80.654975 
L 348.120066 80.654975 
z
" clip-path="url(#p4d72eaa723)" style="fill: url(#h5c7312ea3c); stroke: #ff7f0e; stroke-width: 2; stroke-linejoin: miter"/>
   </g>
   <g id="patch_55">
    <path d="M 353.064025 301.498436 
L 357.26639 301.498436 
L 357.26639 80.654975 
L 353.064025 80.654975 
z
" clip-path="url(#p4d72eaa723)" style="fill: url(#h5c7312ea3c); stroke: #ff7f0e; stroke-width: 2; stroke-linejoin: miter"/>
   </g>
   <g id="patch_56">
    <path d="M 358.007984 301.498436 
L 362.210348 301.498436 
L 362.210348 80.654975 
L 358.007984 80.654975 
z
" clip-path="url(#p4d72eaa723)" style="fill: url(#h5c7312ea3c); stroke: #ff7f0e; stroke-width: 2; stroke-linejoin: miter"/>
   </g>
   <g id="patch_57">
    <path d="M 362.951942 301.498436 
L 367.154307 301.498436 
L 367.154307 80.654975 
L 362.951942 80.654975 
z
" clip-path="url(#p4d72eaa723)" style="fill: url(#h5c7312ea3c); stroke: #ff7f0e; stroke-width: 2; stroke-linejoin: miter"/>
   </g>
   <g id="patch_58">
    <path d="M 367.895901 301.498436 
L 372.098265 301.498436 
L 372.098265 80.654975 
L 367.895901 80.654975 
z
" clip-path="url(#p4d72eaa723)" style="fill: url(#h5c7312ea3c); stroke: #ff7f0e; stroke-width: 2; stroke-linejoin: miter"/>
   </g>
   <g id="patch_59">
    <path d="M 372.839859 301.498436 
L 377.042224 301.498436 
L 377.042224 80.654975 
L 372.839859 80.654975 
z
" clip-path="url(#p4d72eaa723)" style="fill: url(#h5c7312ea3c); stroke: #ff7f0e; stroke-width: 2; stroke-linejoin: miter"/>
   </g>
   <g id="patch_60">
    <path d="M 377.783818 301.498436 
L 381.986182 301.498436 
L 381.986182 80.654975 
L 377.783818 80.654975 
z
" clip-path="url(#p4d72eaa723)" style="fill: url(#h5c7312ea3c); stroke: #ff7f0e; stroke-width: 2; stroke-linejoin: miter"/>
   </g>
   <g id="patch_61">
    <path d="M 382.727776 301.498436 
L 386.930141 301.498436 
L 386.930141 80.654975 
L 382.727776 80.654975 
z
" clip-path="url(#p4d72eaa723)" style="fill: url(#h5c7312ea3c); stroke: #ff7f0e; stroke-width: 2; stroke-linejoin: miter"/>
   </g>
   <g id="patch_62">
    <path d="M 387.671735 301.498436 
L 391.874099 301.498436 
L 391.874099 80.654975 
L 387.671735 80.654975 
z
" clip-path="url(#p4d72eaa723)" style="fill: url(#h5c7312ea3c); stroke: #ff7f0e; stroke-width: 2; stroke-linejoin: miter"/>
   </g>
   <g id="patch_63">
    <path d="M 392.615693 301.498436 
L 396.818058 301.498436 
L 396.818058 80.654975 
L 392.615693 80.654975 
z
" clip-path="url(#p4d72eaa723)" style="fill: url(#h5c7312ea3c); stroke: #ff7f0e; stroke-width: 2; stroke-linejoin: miter"/>
   </g>
   <g id="patch_64">
    <path d="M 397.559652 301.498436 
L 401.762016 301.498436 
L 401.762016 80.654975 
L 397.559652 80.654975 
z
" clip-path="url(#p4d72eaa723)" style="fill: url(#h5c7312ea3c); stroke: #ff7f0e; stroke-width: 2; stroke-linejoin: miter"/>
   </g>
   <g id="patch_65">
    <path d="M 402.50361 301.498436 
L 406.705975 301.498436 
L 406.705975 76.565282 
L 402.50361 76.565282 
z
" clip-path="url(#p4d72eaa723)" style="fill: url(#h5c7312ea3c); stroke: #ff7f0e; stroke-width: 2; stroke-linejoin: miter"/>
   </g>
   <g id="patch_66">
    <path d="M 407.447569 301.498436 
L 411.649934 301.498436 
L 411.649934 76.565282 
L 407.447569 76.565282 
z
" clip-path="url(#p4d72eaa723)" style="fill: url(#h5c7312ea3c); stroke: #ff7f0e; stroke-width: 2; stroke-linejoin: miter"/>
   </g>
   <g id="patch_67">
    <path d="M 412.391527 301.498436 
L 416.593892 301.498436 
L 416.593892 76.565282 
L 412.391527 76.565282 
z
" clip-path="url(#p4d72eaa723)" style="fill: url(#h5c7312ea3c); stroke: #ff7f0e; stroke-width: 2; stroke-linejoin: miter"/>
   </g>
   <g id="patch_68">
    <path d="M 417.335486 301.498436 
L 421.537851 301.498436 
L 421.537851 76.565282 
L 417.335486 76.565282 
z
" clip-path="url(#p4d72eaa723)" style="fill: url(#h5c7312ea3c); stroke: #ff7f0e; stroke-width: 2; stroke-linejoin: miter"/>
   </g>
   <g id="patch_69">
    <path d="M 422.279444 301.498436 
L 426.481809 301.498436 
L 426.481809 76.565282 
L 422.279444 76.565282 
z
" clip-path="url(#p4d72eaa723)" style="fill: url(#h5c7312ea3c); stroke: #ff7f0e; stroke-width: 2; stroke-linejoin: miter"/>
   </g>
   <g id="patch_70">
    <path d="M 427.223403 301.498436 
L 431.425768 301.498436 
L 431.425768 76.565282 
L 427.223403 76.565282 
z
" clip-path="url(#p4d72eaa723)" style="fill: url(#h5c7312ea3c); stroke: #ff7f0e; stroke-width: 2; stroke-linejoin: miter"/>
   </g>
   <g id="patch_71">
    <path d="M 432.167361 301.498436 
L 436.369726 301.498436 
L 436.369726 76.565282 
L 432.167361 76.565282 
z
" clip-path="url(#p4d72eaa723)" style="fill: url(#h5c7312ea3c); stroke: #ff7f0e; stroke-width: 2; stroke-linejoin: miter"/>
   </g>
   <g id="patch_72">
    <path d="M 437.11132 301.498436 
L 441.313685 301.498436 
L 441.313685 76.565282 
L 437.11132 76.565282 
z
" clip-path="url(#p4d72eaa723)" style="fill: url(#h5c7312ea3c); stroke: #ff7f0e; stroke-width: 2; stroke-linejoin: miter"/>
   </g>
   <g id="patch_73">
    <path d="M 442.055278 301.498436 
L 446.257643 301.498436 
L 446.257643 76.565282 
L 442.055278 76.565282 
z
" clip-path="url(#p4d72eaa723)" style="fill: url(#h5c7312ea3c); stroke: #ff7f0e; stroke-width: 2; stroke-linejoin: miter"/>
   </g>
   <g id="patch_74">
    <path d="M 446.999237 301.498436 
L 451.201602 301.498436 
L 451.201602 76.565282 
L 446.999237 76.565282 
z
" clip-path="url(#p4d72eaa723)" style="fill: url(#h5c7312ea3c); stroke: #ff7f0e; stroke-width: 2; stroke-linejoin: miter"/>
   </g>
   <g id="patch_75">
    <path d="M 451.943195 301.498436 
L 456.14556 301.498436 
L 456.14556 76.565282 
L 451.943195 76.565282 
z
" clip-path="url(#p4d72eaa723)" style="fill: url(#h5c7312ea3c); stroke: #ff7f0e; stroke-width: 2; stroke-linejoin: miter"/>
   </g>
   <g id="patch_76">
    <path d="M 456.887154 301.498436 
L 461.089519 301.498436 
L 461.089519 76.565282 
L 456.887154 76.565282 
z
" clip-path="url(#p4d72eaa723)" style="fill: url(#h5c7312ea3c); stroke: #ff7f0e; stroke-width: 2; stroke-linejoin: miter"/>
   </g>
   <g id="patch_77">
    <path d="M 461.831113 301.498436 
L 466.033477 301.498436 
L 466.033477 76.565282 
L 461.831113 76.565282 
z
" clip-path="url(#p4d72eaa723)" style="fill: url(#h5c7312ea3c); stroke: #ff7f0e; stroke-width: 2; stroke-linejoin: miter"/>
   </g>
   <g id="patch_78">
    <path d="M 466.775071 301.498436 
L 470.977436 301.498436 
L 470.977436 76.565282 
L 466.775071 76.565282 
z
" clip-path="url(#p4d72eaa723)" style="fill: url(#h5c7312ea3c); stroke: #ff7f0e; stroke-width: 2; stroke-linejoin: miter"/>
   </g>
   <g id="patch_79">
    <path d="M 471.71903 301.498436 
L 475.921394 301.498436 
L 475.921394 76.565282 
L 471.71903 76.565282 
z
" clip-path="url(#p4d72eaa723)" style="fill: url(#h5c7312ea3c); stroke: #ff7f0e; stroke-width: 2; stroke-linejoin: miter"/>
   </g>
   <g id="patch_80">
    <path d="M 476.662988 301.498436 
L 480.865353 301.498436 
L 480.865353 76.565282 
L 476.662988 76.565282 
z
" clip-path="url(#p4d72eaa723)" style="fill: url(#h5c7312ea3c); stroke: #ff7f0e; stroke-width: 2; stroke-linejoin: miter"/>
   </g>
   <g id="patch_81">
    <path d="M 481.606947 301.498436 
L 485.809311 301.498436 
L 485.809311 72.475588 
L 481.606947 72.475588 
z
" clip-path="url(#p4d72eaa723)" style="fill: url(#h5c7312ea3c); stroke: #ff7f0e; stroke-width: 2; stroke-linejoin: miter"/>
   </g>
   <g id="patch_82">
    <path d="M 486.550905 301.498436 
L 490.75327 301.498436 
L 490.75327 72.475588 
L 486.550905 72.475588 
z
" clip-path="url(#p4d72eaa723)" style="fill: url(#h5c7312ea3c); stroke: #ff7f0e; stroke-width: 2; stroke-linejoin: miter"/>
   </g>
   <g id="patch_83">
    <path d="M 491.494864 301.498436 
L 495.697228 301.498436 
L 495.697228 72.475588 
L 491.494864 72.475588 
z
" clip-path="url(#p4d72eaa723)" style="fill: url(#h5c7312ea3c); stroke: #ff7f0e; stroke-width: 2; stroke-linejoin: miter"/>
   </g>
   <g id="patch_84">
    <path d="M 496.438822 301.498436 
L 500.641187 301.498436 
L 500.641187 72.475588 
L 496.438822 72.475588 
z
" clip-path="url(#p4d72eaa723)" style="fill: url(#h5c7312ea3c); stroke: #ff7f0e; stroke-width: 2; stroke-linejoin: miter"/>
   </g>
   <g id="patch_85">
    <path d="M 501.382781 301.498436 
L 505.585145 301.498436 
L 505.585145 72.475588 
L 501.382781 72.475588 
z
" clip-path="url(#p4d72eaa723)" style="fill: url(#h5c7312ea3c); stroke: #ff7f0e; stroke-width: 2; stroke-linejoin: miter"/>
   </g>
   <g id="patch_86">
    <path d="M 506.326739 301.498436 
L 510.529104 301.498436 
L 510.529104 72.475588 
L 506.326739 72.475588 
z
" clip-path="url(#p4d72eaa723)" style="fill: url(#h5c7312ea3c); stroke: #ff7f0e; stroke-width: 2; stroke-linejoin: miter"/>
   </g>
   <g id="patch_87">
    <path d="M 511.270698 301.498436 
L 515.473062 301.498436 
L 515.473062 72.475588 
L 511.270698 72.475588 
z
" clip-path="url(#p4d72eaa723)" style="fill: url(#h5c7312ea3c); stroke: #ff7f0e; stroke-width: 2; stroke-linejoin: miter"/>
   </g>
   <g id="patch_88">
    <path d="M 516.214656 301.498436 
L 520.417021 301.498436 
L 520.417021 72.475588 
L 516.214656 72.475588 
z
" clip-path="url(#p4d72eaa723)" style="fill: url(#h5c7312ea3c); stroke: #ff7f0e; stroke-width: 2; stroke-linejoin: miter"/>
   </g>
   <g id="patch_89">
    <path d="M 521.158615 301.498436 
L 525.36098 301.498436 
L 525.36098 72.475588 
L 521.158615 72.475588 
z
" clip-path="url(#p4d72eaa723)" style="fill: url(#h5c7312ea3c); stroke: #ff7f0e; stroke-width: 2; stroke-linejoin: miter"/>
   </g>
   <g id="patch_90">
    <path d="M 526.102573 301.498436 
L 530.304938 301.498436 
L 530.304938 72.475588 
L 526.102573 72.475588 
z
" clip-path="url(#p4d72eaa723)" style="fill: url(#h5c7312ea3c); stroke: #ff7f0e; stroke-width: 2; stroke-linejoin: miter"/>
   </g>
   <g id="patch_91">
    <path d="M 531.046532 301.498436 
L 535.248897 301.498436 
L 535.248897 72.475588 
L 531.046532 72.475588 
z
" clip-path="url(#p4d72eaa723)" style="fill: url(#h5c7312ea3c); stroke: #ff7f0e; stroke-width: 2; stroke-linejoin: miter"/>
   </g>
   <g id="patch_92">
    <path d="M 535.99049 301.498436 
L 540.192855 301.498436 
L 540.192855 72.475588 
L 535.99049 72.475588 
z
" clip-path="url(#p4d72eaa723)" style="fill: url(#h5c7312ea3c); stroke: #ff7f0e; stroke-width: 2; stroke-linejoin: miter"/>
   </g>
   <g id="patch_93">
    <path d="M 540.934449 301.498436 
L 545.136814 301.498436 
L 545.136814 72.475588 
L 540.934449 72.475588 
z
" clip-path="url(#p4d72eaa723)" style="fill: url(#h5c7312ea3c); stroke: #ff7f0e; stroke-width: 2; stroke-linejoin: miter"/>
   </g>
   <g id="patch_94">
    <path d="M 545.878407 301.498436 
L 550.080772 301.498436 
L 550.080772 72.475588 
L 545.878407 72.475588 
z
" clip-path="url(#p4d72eaa723)" style="fill: url(#h5c7312ea3c); stroke: #ff7f0e; stroke-width: 2; stroke-linejoin: miter"/>
   </g>
   <g id="patch_95">
    <path d="M 550.822366 301.498436 
L 555.024731 301.498436 
L 555.024731 72.475588 
L 550.822366 72.475588 
z
" clip-path="url(#p4d72eaa723)" style="fill: url(#h5c7312ea3c); stroke: #ff7f0e; stroke-width: 2; stroke-linejoin: miter"/>
   </g>
   <g id="patch_96">
    <path d="M 555.766324 301.498436 
L 559.968689 301.498436 
L 559.968689 72.475588 
L 555.766324 72.475588 
z
" clip-path="url(#p4d72eaa723)" style="fill: url(#h5c7312ea3c); stroke: #ff7f0e; stroke-width: 2; stroke-linejoin: miter"/>
   </g>
   <g id="patch_97">
    <path d="M 560.710283 301.498436 
L 564.912648 301.498436 
L 564.912648 72.475588 
L 560.710283 72.475588 
z
" clip-path="url(#p4d72eaa723)" style="fill: url(#h5c7312ea3c); stroke: #ff7f0e; stroke-width: 2; stroke-linejoin: miter"/>
   </g>
   <g id="patch_98">
    <path d="M 565.654242 301.498436 
L 569.856606 301.498436 
L 569.856606 72.475588 
L 565.654242 72.475588 
z
" clip-path="url(#p4d72eaa723)" style="fill: url(#h5c7312ea3c); stroke: #ff7f0e; stroke-width: 2; stroke-linejoin: miter"/>
   </g>
   <g id="patch_99">
    <path d="M 570.5982 301.498436 
L 574.800565 301.498436 
L 574.800565 72.475588 
L 570.5982 72.475588 
z
" clip-path="url(#p4d72eaa723)" style="fill: url(#h5c7312ea3c); stroke: #ff7f0e; stroke-width: 2; stroke-linejoin: miter"/>
   </g>
   <g id="patch_100">
    <path d="M 575.542159 301.498436 
L 579.744523 301.498436 
L 579.744523 68.385894 
L 575.542159 68.385894 
z
" clip-path="url(#p4d72eaa723)" style="fill: url(#h5c7312ea3c); stroke: #ff7f0e; stroke-width: 2; stroke-linejoin: miter"/>
   </g>
   <g id="patch_101">
    <path d="M 580.486117 301.498436 
L 584.688482 301.498436 
L 584.688482 68.385894 
L 580.486117 68.385894 
z
" clip-path="url(#p4d72eaa723)" style="fill: url(#h5c7312ea3c); stroke: #ff7f0e; stroke-width: 2; stroke-linejoin: miter"/>
   </g>
   <g id="patch_102">
    <path d="M 585.430076 301.498436 
L 589.63244 301.498436 
L 589.63244 68.385894 
L 585.430076 68.385894 
z
" clip-path="url(#p4d72eaa723)" style="fill: url(#h5c7312ea3c); stroke: #ff7f0e; stroke-width: 2; stroke-linejoin: miter"/>
   </g>
   <g id="patch_103">
    <path d="M 590.374034 301.498436 
L 594.576399 301.498436 
L 594.576399 68.385894 
L 590.374034 68.385894 
z
" clip-path="url(#p4d72eaa723)" style="fill: url(#h5c7312ea3c); stroke: #ff7f0e; stroke-width: 2; stroke-linejoin: miter"/>
   </g>
   <g id="patch_104">
    <path d="M 595.317993 301.498436 
L 599.520357 301.498436 
L 599.520357 68.385894 
L 595.317993 68.385894 
z
" clip-path="url(#p4d72eaa723)" style="fill: url(#h5c7312ea3c); stroke: #ff7f0e; stroke-width: 2; stroke-linejoin: miter"/>
   </g>
   <g id="patch_105">
    <path d="M 600.261951 301.498436 
L 604.464316 301.498436 
L 604.464316 68.385894 
L 600.261951 68.385894 
z
" clip-path="url(#p4d72eaa723)" style="fill: url(#h5c7312ea3c); stroke: #ff7f0e; stroke-width: 2; stroke-linejoin: miter"/>
   </g>
   <g id="patch_106">
    <path d="M 605.20591 301.498436 
L 609.408274 301.498436 
L 609.408274 64.2962 
L 605.20591 64.2962 
z
" clip-path="url(#p4d72eaa723)" style="fill: url(#h5c7312ea3c); stroke: #ff7f0e; stroke-width: 2; stroke-linejoin: miter"/>
   </g>
   <g id="patch_107">
    <path d="M 610.149868 301.498436 
L 614.352233 301.498436 
L 614.352233 64.2962 
L 610.149868 64.2962 
z
" clip-path="url(#p4d72eaa723)" style="fill: url(#h5c7312ea3c); stroke: #ff7f0e; stroke-width: 2; stroke-linejoin: miter"/>
   </g>
   <g id="patch_108">
    <path d="M 615.093827 301.498436 
L 619.296191 301.498436 
L 619.296191 64.2962 
L 615.093827 64.2962 
z
" clip-path="url(#p4d72eaa723)" style="fill: url(#h5c7312ea3c); stroke: #ff7f0e; stroke-width: 2; stroke-linejoin: miter"/>
   </g>
   <g id="patch_109">
    <path d="M 620.037785 301.498436 
L 624.24015 301.498436 
L 624.24015 64.2962 
L 620.037785 64.2962 
z
" clip-path="url(#p4d72eaa723)" style="fill: url(#h5c7312ea3c); stroke: #ff7f0e; stroke-width: 2; stroke-linejoin: miter"/>
   </g>
   <g id="patch_110">
    <path d="M 624.981744 301.498436 
L 629.184109 301.498436 
L 629.184109 64.2962 
L 624.981744 64.2962 
z
" clip-path="url(#p4d72eaa723)" style="fill: url(#h5c7312ea3c); stroke: #ff7f0e; stroke-width: 2; stroke-linejoin: miter"/>
   </g>
   <g id="patch_111">
    <path d="M 629.925702 301.498436 
L 634.128067 301.498436 
L 634.128067 60.206507 
L 629.925702 60.206507 
z
" clip-path="url(#p4d72eaa723)" style="fill: url(#h5c7312ea3c); stroke: #ff7f0e; stroke-width: 2; stroke-linejoin: miter"/>
   </g>
   <g id="patch_112">
    <path d="M 634.869661 301.498436 
L 639.072026 301.498436 
L 639.072026 60.206507 
L 634.869661 60.206507 
z
" clip-path="url(#p4d72eaa723)" style="fill: url(#h5c7312ea3c); stroke: #ff7f0e; stroke-width: 2; stroke-linejoin: miter"/>
   </g>
   <g id="patch_113">
    <path d="M 639.813619 301.498436 
L 644.015984 301.498436 
L 644.015984 60.206507 
L 639.813619 60.206507 
z
" clip-path="url(#p4d72eaa723)" style="fill: url(#h5c7312ea3c); stroke: #ff7f0e; stroke-width: 2; stroke-linejoin: miter"/>
   </g>
   <g id="patch_114">
    <path d="M 644.757578 301.498436 
L 648.959943 301.498436 
L 648.959943 60.206507 
L 644.757578 60.206507 
z
" clip-path="url(#p4d72eaa723)" style="fill: url(#h5c7312ea3c); stroke: #ff7f0e; stroke-width: 2; stroke-linejoin: miter"/>
   </g>
   <g id="patch_115">
    <path d="M 649.701536 301.498436 
L 653.903901 301.498436 
L 653.903901 56.116813 
L 649.701536 56.116813 
z
" clip-path="url(#p4d72eaa723)" style="fill: url(#h5c7312ea3c); stroke: #ff7f0e; stroke-width: 2; stroke-linejoin: miter"/>
   </g>
   <g id="patch_116">
    <path d="M 654.645495 301.498436 
L 658.84786 301.498436 
L 658.84786 52.027119 
L 654.645495 52.027119 
z
" clip-path="url(#p4d72eaa723)" style="fill: url(#h5c7312ea3c); stroke: #ff7f0e; stroke-width: 2; stroke-linejoin: miter"/>
   </g>
   <g id="patch_117">
    <path d="M 659.589453 301.498436 
L 663.791818 301.498436 
L 663.791818 47.937426 
L 659.589453 47.937426 
z
" clip-path="url(#p4d72eaa723)" style="fill: url(#h5c7312ea3c); stroke: #ff7f0e; stroke-width: 2; stroke-linejoin: miter"/>
   </g>
   <g id="line2d_26">
    <path d="M 67.5875 80.654975 
L 692.1825 80.654975 
" clip-path="url(#p4d72eaa723)" style="fill: none; stroke-dasharray: 4.44,1.92; stroke-dashoffset: 0; stroke: #f58518; stroke-width: 1.2"/>
   </g>
   <g id="patch_118">
    <path d="M 67.5875 301.498436 
L 67.5875 35.259375 
" style="fill: none; stroke: #808080; stroke-width: 0.8; stroke-linejoin: miter; stroke-linecap: square"/>
   </g>
   <g id="patch_119">
    <path d="M 67.5875 301.498436 
L 692.1825 301.498436 
" style="fill: none; stroke: #808080; stroke-width: 0.8; stroke-linejoin: miter; stroke-linecap: square"/>
   </g>
   <g id="text_23">
    <text style="font: 22px 'PingFang SC', 'Heiti SC', 'STHeiti', 'Calibri', 'Arial', 'Helvetica Neue', 'Arial Unicode MS', 'Noto Sans CJK SC', 'DejaVu Sans', sans-serif; text-anchor: middle" x="379.885" y="29.259375" transform="rotate(-0 379.885 29.259375)">排序条形 · Board temp (C)</text>
   </g>
   <g id="legend_1">
    <g id="patch_120">
     <path d="M 75.9875 62.019375 
L 180.1475 62.019375 
Q 182.5475 62.019375 182.5475 59.619375 
L 182.5475 43.659375 
Q 182.5475 41.259375 180.1475 41.259375 
L 75.9875 41.259375 
Q 73.5875 41.259375 73.5875 43.659375 
L 73.5875 59.619375 
Q 73.5875 62.019375 75.9875 62.019375 
z
" style="fill: #ffffff; opacity: 0.5; stroke: #cccccc; stroke-linejoin: miter"/>
    </g>
    <g id="line2d_27">
     <path d="M 78.3875 51.410625 
L 90.3875 51.410625 
L 102.3875 51.410625 
" style="fill: none; stroke-dasharray: 4.44,1.92; stroke-dashoffset: 0; stroke: #f58518; stroke-width: 1.2"/>
    </g>
    <g id="text_24">
     <text style="font: 12px 'PingFang SC', 'Heiti SC', 'STHeiti', 'Calibri', 'Arial', 'Helvetica Neue', 'Arial Unicode MS', 'Noto Sans CJK SC', 'DejaVu Sans', sans-serif; text-anchor: start" x="111.9875" y="55.610625" transform="rotate(-0 111.9875 55.610625)">median=54</text>
    </g>
   </g>
  </g>
 </g>
 <defs>
  <clipPath id="p4d72eaa723">
   <rect x="67.5875" y="35.259375" width="624.595" height="266.239061"/>
  </clipPath>
 </defs>
 <defs>
  <pattern id="h72f7721b14" patternUnits="userSpaceOnUse" x="0" y="0" width="72" height="72">
   <rect x="0" y="0" width="73" height="73" fill="none"/>
   <path d="M -36 36 
L 36 -36 
M -30 42 
L 42 -30 
M -24 48 
L 48 -24 
M -18 54 
L 54 -18 
M -12 60 
L 60 -12 
M -6 66 
L 66 -6 
M 0 72 
L 72 0 
M 6 78 
L 78 6 
M 12 84 
L 84 12 
M 18 90 
L 90 18 
M 24 96 
L 96 24 
M 30 102 
L 102 30 
M 36 108 
L 108 36 
M -36 36 
L 36 108 
M -30 30 
L 42 102 
M -24 24 
L 48 96 
M -18 18 
L 54 90 
M -12 12 
L 60 84 
M -6 6 
L 66 78 
M 0 0 
L 72 72 
M 6 -6 
L 78 66 
M 12 -12 
L 84 60 
M 18 -18 
L 90 54 
M 24 -24 
L 96 48 
M 30 -30 
L 102 42 
M 36 -36 
L 108 36 
" style="fill: #2ca02c; stroke: #2ca02c; stroke-width: 1.0; stroke-linecap: butt; stroke-linejoin: miter"/>
  </pattern>
  <pattern id="h5c7312ea3c" patternUnits="userSpaceOnUse" x="0" y="0" width="72" height="72">
   <rect x="0" y="0" width="73" height="73" fill="none"/>
   <path d="M -36 36 
L 36 -36 
M -30 42 
L 42 -30 
M -24 48 
L 48 -24 
M -18 54 
L 54 -18 
M -12 60 
L 60 -12 
M -6 66 
L 66 -6 
M 0 72 
L 72 0 
M 6 78 
L 78 6 
M 12 84 
L 84 12 
M 18 90 
L 90 18 
M 24 96 
L 96 24 
M 30 102 
L 102 30 
M 36 108 
L 108 36 
" style="fill: #ff7f0e; stroke: #ff7f0e; stroke-width: 1.0; stroke-linecap: butt; stroke-linejoin: miter"/>
  </pattern>
 </defs>
</svg>
