<?xml version="1.0" encoding="utf-8" standalone="no"?>
<!DOCTYPE svg PUBLIC "-//W3C//DTD SVG 1.1//EN"
  "http://www.w3.org/Graphics/SVG/1.1/DTD/svg11.dtd">
<svg xmlns:xlink="http://www.w3.org/1999/xlink" width="702.748125pt" height="342.867961pt" viewBox="0 0 702.748125 342.867961" xmlns="http://www.w3.org/2000/svg" version="1.1">
 <metadata>
  <rdf:RDF xmlns:dc="http://purl.org/dc/elements/1.1/" xmlns:cc="http://creativecommons.org/ns#" xmlns:rdf="http://www.w3.org/1999/02/22-rdf-syntax-ns#">
   <cc:Work>
    <dc:type rdf:resource="http://purl.org/dc/dcmitype/StillImage"/>
    <dc:date>2026-07-11T23:31:15.202626</dc:date>
    <dc:format>image/svg+xml</dc:format>
    <dc:creator>
     <cc:Agent>
      <dc:title>Matplotlib v3.9.4, https://matplotlib.org/</dc:title>
     </cc:Agent>
    </dc:creator>
   </cc:Work>
  </rdf:RDF>
 </metadata>
 <defs>
  <style type="text/css">*{stroke-linejoin: round; stroke-linecap: butt}</style>
 </defs>
 <g id="figure_1">
  <g id="patch_1">
   <path d="M 0 342.867961 
L 702.748125 342.867961 
L 702.748125 0 
L 0 0 
z
" style="fill: #ffffff"/>
  </g>
  <g id="axes_1">
   <g id="patch_2">
    <path d="M 78.828125 301.520311 
L 691.948125 301.520311 
L 691.948125 34.4 
L 78.828125 34.4 
z
" style="fill: #ffffff"/>
   </g>
   <g id="matplotlib.axis_1">
    <g id="xtick_1">
     <g id="line2d_1">
      <defs>
       <path id="m66b4d1ae08" d="M 0 0 
L 0 3.5 
" style="stroke: #808080; stroke-width: 0.8"/>
      </defs>
      <g>
       <use xlink:href="#m66b4d1ae08" x="108.759796" y="301.520311" style="fill: #808080; stroke: #808080; stroke-width: 0.8"/>
      </g>
     </g>
     <g id="text_1">
      <text style="fill: #808080; font: 9px 'PingFang SC', 'Heiti SC', 'STHeiti', 'Calibri', 'Arial', 'Helvetica Neue', 'Arial Unicode MS', 'Noto Sans CJK SC', 'DejaVu Sans', sans-serif" transform="translate(93.803493 327.688761) rotate(-45)">w7.0</text>
     </g>
    </g>
    <g id="xtick_2">
     <g id="line2d_2">
      <g>
       <use xlink:href="#m66b4d1ae08" x="142.731696" y="301.520311" style="fill: #808080; stroke: #808080; stroke-width: 0.8"/>
      </g>
     </g>
     <g id="text_2">
      <text style="fill: #808080; font: 9px 'PingFang SC', 'Heiti SC', 'STHeiti', 'Calibri', 'Arial', 'Helvetica Neue', 'Arial Unicode MS', 'Noto Sans CJK SC', 'DejaVu Sans', sans-serif" transform="translate(124.249361 331.214793) rotate(-45)">w14.4</text>
     </g>
    </g>
    <g id="xtick_3">
     <g id="line2d_3">
      <g>
       <use xlink:href="#m66b4d1ae08" x="176.703596" y="301.520311" style="fill: #808080; stroke: #808080; stroke-width: 0.8"/>
      </g>
     </g>
     <g id="text_3">
      <text style="fill: #808080; font: 9px 'PingFang SC', 'Heiti SC', 'STHeiti', 'Calibri', 'Arial', 'Helvetica Neue', 'Arial Unicode MS', 'Noto Sans CJK SC', 'DejaVu Sans', sans-serif" transform="translate(158.221261 331.214793) rotate(-45)">w10.0</text>
     </g>
    </g>
    <g id="xtick_4">
     <g id="line2d_4">
      <g>
       <use xlink:href="#m66b4d1ae08" x="210.675496" y="301.520311" style="fill: #808080; stroke: #808080; stroke-width: 0.8"/>
      </g>
     </g>
     <g id="text_4">
      <text style="fill: #808080; font: 9px 'PingFang SC', 'Heiti SC', 'STHeiti', 'Calibri', 'Arial', 'Helvetica Neue', 'Arial Unicode MS', 'Noto Sans CJK SC', 'DejaVu Sans', sans-serif" transform="translate(192.193161 331.214793) rotate(-45)">w10.7</text>
     </g>
    </g>
    <g id="xtick_5">
     <g id="line2d_5">
      <g>
       <use xlink:href="#m66b4d1ae08" x="244.647396" y="301.520311" style="fill: #808080; stroke: #808080; stroke-width: 0.8"/>
      </g>
     </g>
     <g id="text_5">
      <text style="fill: #808080; font: 9px 'PingFang SC', 'Heiti SC', 'STHeiti', 'Calibri', 'Arial', 'Helvetica Neue', 'Arial Unicode MS', 'Noto Sans CJK SC', 'DejaVu Sans', sans-serif" transform="translate(229.691093 327.688761) rotate(-45)">w4.1</text>
     </g>
    </g>
    <g id="xtick_6">
     <g id="line2d_6">
      <g>
       <use xlink:href="#m66b4d1ae08" x="278.619296" y="301.520311" style="fill: #808080; stroke: #808080; stroke-width: 0.8"/>
      </g>
     </g>
     <g id="text_6">
      <text style="fill: #808080; font: 9px 'PingFang SC', 'Heiti SC', 'STHeiti', 'Calibri', 'Arial', 'Helvetica Neue', 'Arial Unicode MS', 'Noto Sans CJK SC', 'DejaVu Sans', sans-serif" transform="translate(263.662993 327.688761) rotate(-45)">w4.6</text>
     </g>
    </g>
    <g id="xtick_7">
     <g id="line2d_7">
      <g>
       <use xlink:href="#m66b4d1ae08" x="312.591196" y="301.520311" style="fill: #808080; stroke: #808080; stroke-width: 0.8"/>
      </g>
     </g>
     <g id="text_7">
      <text style="fill: #808080; font: 9px 'PingFang SC', 'Heiti SC', 'STHeiti', 'Calibri', 'Arial', 'Helvetica Neue', 'Arial Unicode MS', 'Noto Sans CJK SC', 'DejaVu Sans', sans-serif" transform="translate(297.634893 327.688761) rotate(-45)">w6.4</text>
     </g>
    </g>
    <g id="xtick_8">
     <g id="line2d_8">
      <g>
       <use xlink:href="#m66b4d1ae08" x="346.563096" y="301.520311" style="fill: #808080; stroke: #808080; stroke-width: 0.8"/>
      </g>
     </g>
     <g id="text_8">
      <text style="fill: #808080; font: 9px 'PingFang SC', 'Heiti SC', 'STHeiti', 'Calibri', 'Arial', 'Helvetica Neue', 'Arial Unicode MS', 'Noto Sans CJK SC', 'DejaVu Sans', sans-serif" transform="translate(331.606794 327.688761) rotate(-45)">w9.1</text>
     </g>
    </g>
    <g id="xtick_9">
     <g id="line2d_9">
      <g>
       <use xlink:href="#m66b4d1ae08" x="380.534996" y="301.520311" style="fill: #808080; stroke: #808080; stroke-width: 0.8"/>
      </g>
     </g>
     <g id="text_9">
      <text style="fill: #808080; font: 9px 'PingFang SC', 'Heiti SC', 'STHeiti', 'Calibri', 'Arial', 'Helvetica Neue', 'Arial Unicode MS', 'Noto Sans CJK SC', 'DejaVu Sans', sans-serif" transform="translate(365.578694 327.688761) rotate(-45)">w6.0</text>
     </g>
    </g>
    <g id="xtick_10">
     <g id="line2d_10">
      <g>
       <use xlink:href="#m66b4d1ae08" x="414.506897" y="301.520311" style="fill: #808080; stroke: #808080; stroke-width: 0.8"/>
      </g>
     </g>
     <g id="text_10">
      <text style="fill: #808080; font: 9px 'PingFang SC', 'Heiti SC', 'STHeiti', 'Calibri', 'Arial', 'Helvetica Neue', 'Arial Unicode MS', 'Noto Sans CJK SC', 'DejaVu Sans', sans-serif" transform="translate(399.550594 327.688761) rotate(-45)">w1.2</text>
     </g>
    </g>
    <g id="xtick_11">
     <g id="line2d_11">
      <g>
       <use xlink:href="#m66b4d1ae08" x="448.478797" y="301.520311" style="fill: #808080; stroke: #808080; stroke-width: 0.8"/>
      </g>
     </g>
     <g id="text_11">
      <text style="fill: #808080; font: 9px 'PingFang SC', 'Heiti SC', 'STHeiti', 'Calibri', 'Arial', 'Helvetica Neue', 'Arial Unicode MS', 'Noto Sans CJK SC', 'DejaVu Sans', sans-serif" transform="translate(429.996462 331.214793) rotate(-45)">w12.5</text>
     </g>
    </g>
    <g id="xtick_12">
     <g id="line2d_12">
      <g>
       <use xlink:href="#m66b4d1ae08" x="482.450697" y="301.520311" style="fill: #808080; stroke: #808080; stroke-width: 0.8"/>
      </g>
     </g>
     <g id="text_12">
      <text style="fill: #808080; font: 9px 'PingFang SC', 'Heiti SC', 'STHeiti', 'Calibri', 'Arial', 'Helvetica Neue', 'Arial Unicode MS', 'Noto Sans CJK SC', 'DejaVu Sans', sans-serif" transform="translate(467.494394 327.688761) rotate(-45)">w6.2</text>
     </g>
    </g>
    <g id="xtick_13">
     <g id="line2d_13">
      <g>
       <use xlink:href="#m66b4d1ae08" x="516.422597" y="301.520311" style="fill: #808080; stroke: #808080; stroke-width: 0.8"/>
      </g>
     </g>
     <g id="text_13">
      <text style="fill: #808080; font: 9px 'PingFang SC', 'Heiti SC', 'STHeiti', 'Calibri', 'Arial', 'Helvetica Neue', 'Arial Unicode MS', 'Noto Sans CJK SC', 'DejaVu Sans', sans-serif" transform="translate(501.466294 327.688761) rotate(-45)">w8.7</text>
     </g>
    </g>
    <g id="xtick_14">
     <g id="line2d_14">
      <g>
       <use xlink:href="#m66b4d1ae08" x="550.394497" y="301.520311" style="fill: #808080; stroke: #808080; stroke-width: 0.8"/>
      </g>
     </g>
     <g id="text_14">
      <text style="fill: #808080; font: 9px 'PingFang SC', 'Heiti SC', 'STHeiti', 'Calibri', 'Arial', 'Helvetica Neue', 'Arial Unicode MS', 'Noto Sans CJK SC', 'DejaVu Sans', sans-serif" transform="translate(535.438194 327.688761) rotate(-45)">w4.0</text>
     </g>
    </g>
    <g id="xtick_15">
     <g id="line2d_15">
      <g>
       <use xlink:href="#m66b4d1ae08" x="584.366397" y="301.520311" style="fill: #808080; stroke: #808080; stroke-width: 0.8"/>
      </g>
     </g>
     <g id="text_15">
      <text style="fill: #808080; font: 9px 'PingFang SC', 'Heiti SC', 'STHeiti', 'Calibri', 'Arial', 'Helvetica Neue', 'Arial Unicode MS', 'Noto Sans CJK SC', 'DejaVu Sans', sans-serif" transform="translate(569.410094 327.688761) rotate(-45)">w2.2</text>
     </g>
    </g>
    <g id="xtick_16">
     <g id="line2d_16">
      <g>
       <use xlink:href="#m66b4d1ae08" x="618.338297" y="301.520311" style="fill: #808080; stroke: #808080; stroke-width: 0.8"/>
      </g>
     </g>
     <g id="text_16">
      <text style="fill: #808080; font: 9px 'PingFang SC', 'Heiti SC', 'STHeiti', 'Calibri', 'Arial', 'Helvetica Neue', 'Arial Unicode MS', 'Noto Sans CJK SC', 'DejaVu Sans', sans-serif" transform="translate(603.381994 327.688761) rotate(-45)">w2.3</text>
     </g>
    </g>
    <g id="xtick_17">
     <g id="line2d_17">
      <g>
       <use xlink:href="#m66b4d1ae08" x="652.310197" y="301.520311" style="fill: #808080; stroke: #808080; stroke-width: 0.8"/>
      </g>
     </g>
     <g id="text_17">
      <text style="fill: #808080; font: 9px 'PingFang SC', 'Heiti SC', 'STHeiti', 'Calibri', 'Arial', 'Helvetica Neue', 'Arial Unicode MS', 'Noto Sans CJK SC', 'DejaVu Sans', sans-serif" transform="translate(637.353894 327.688761) rotate(-45)">w9.7</text>
     </g>
    </g>
   </g>
   <g id="matplotlib.axis_2">
    <g id="ytick_1">
     <g id="line2d_18">
      <path d="M 78.828125 301.520311 
L 691.948125 301.520311 
" clip-path="url(#p1540537def)" style="fill: none; stroke-dasharray: 1,1.65; stroke-dashoffset: 0; stroke: #808080; stroke-opacity: 0.55"/>
     </g>
     <g id="line2d_19">
      <defs>
       <path id="md1406a7ce0" d="M 0 0 
L -3.5 0 
" style="stroke: #808080; stroke-width: 0.8"/>
      </defs>
      <g>
       <use xlink:href="#md1406a7ce0" x="78.828125" y="301.520311" style="fill: #808080; stroke: #808080; stroke-width: 0.8"/>
      </g>
     </g>
     <g id="text_18">
      <text style="fill: #808080; font: 22px 'PingFang SC', 'Heiti SC', 'STHeiti', 'Calibri', 'Arial', 'Helvetica Neue', 'Arial Unicode MS', 'Noto Sans CJK SC', 'DejaVu Sans', sans-serif; text-anchor: end" x="71.828125" y="310.275624" transform="rotate(-0 71.828125 310.275624)">0</text>
     </g>
    </g>
    <g id="ytick_2">
     <g id="line2d_20">
      <path d="M 78.828125 230.628202 
L 691.948125 230.628202 
" clip-path="url(#p1540537def)" style="fill: none; stroke-dasharray: 1,1.65; stroke-dashoffset: 0; stroke: #808080; stroke-opacity: 0.55"/>
     </g>
     <g id="line2d_21">
      <g>
       <use xlink:href="#md1406a7ce0" x="78.828125" y="230.628202" style="fill: #808080; stroke: #808080; stroke-width: 0.8"/>
      </g>
     </g>
     <g id="text_19">
      <text style="fill: #808080; font: 22px 'PingFang SC', 'Heiti SC', 'STHeiti', 'Calibri', 'Arial', 'Helvetica Neue', 'Arial Unicode MS', 'Noto Sans CJK SC', 'DejaVu Sans', sans-serif; text-anchor: end" x="71.828125" y="239.383515" transform="rotate(-0 71.828125 239.383515)">50</text>
     </g>
    </g>
    <g id="ytick_3">
     <g id="line2d_22">
      <path d="M 78.828125 159.736093 
L 691.948125 159.736093 
" clip-path="url(#p1540537def)" style="fill: none; stroke-dasharray: 1,1.65; stroke-dashoffset: 0; stroke: #808080; stroke-opacity: 0.55"/>
     </g>
     <g id="line2d_23">
      <g>
       <use xlink:href="#md1406a7ce0" x="78.828125" y="159.736093" style="fill: #808080; stroke: #808080; stroke-width: 0.8"/>
      </g>
     </g>
     <g id="text_20">
      <text style="fill: #808080; font: 22px 'PingFang SC', 'Heiti SC', 'STHeiti', 'Calibri', 'Arial', 'Helvetica Neue', 'Arial Unicode MS', 'Noto Sans CJK SC', 'DejaVu Sans', sans-serif; text-anchor: end" x="71.828125" y="168.491406" transform="rotate(-0 71.828125 168.491406)">100</text>
     </g>
    </g>
    <g id="ytick_4">
     <g id="line2d_24">
      <path d="M 78.828125 88.843984 
L 691.948125 88.843984 
" clip-path="url(#p1540537def)" style="fill: none; stroke-dasharray: 1,1.65; stroke-dashoffset: 0; stroke: #808080; stroke-opacity: 0.55"/>
     </g>
     <g id="line2d_25">
      <g>
       <use xlink:href="#md1406a7ce0" x="78.828125" y="88.843984" style="fill: #808080; stroke: #808080; stroke-width: 0.8"/>
      </g>
     </g>
     <g id="text_21">
      <text style="fill: #808080; font: 22px 'PingFang SC', 'Heiti SC', 'STHeiti', 'Calibri', 'Arial', 'Helvetica Neue', 'Arial Unicode MS', 'Noto Sans CJK SC', 'DejaVu Sans', sans-serif; text-anchor: end" x="71.828125" y="97.599297" transform="rotate(-0 71.828125 97.599297)">150</text>
     </g>
    </g>
    <g id="text_22">
     <text style="font: 22px 'PingFang SC', 'Heiti SC', 'STHeiti', 'Calibri', 'Arial', 'Helvetica Neue', 'Arial Unicode MS', 'Noto Sans CJK SC', 'DejaVu Sans', sans-serif; text-anchor: middle" x="28.310625" y="167.960156" transform="rotate(-90 28.310625 167.960156)">SFU GFLOPS</text>
    </g>
   </g>
   <g id="patch_3">
    <path d="M 106.697216 301.520311 
L 110.822375 301.520311 
L 110.822375 124.107977 
L 106.697216 124.107977 
z
" clip-path="url(#p1540537def)" style="fill: url(#h45957c9552); stroke: #2ca02c; stroke-width: 2; stroke-linejoin: miter"/>
   </g>
   <g id="patch_4">
    <path d="M 111.550344 301.520311 
L 115.675504 301.520311 
L 115.675504 122.74262 
L 111.550344 122.74262 
z
" clip-path="url(#p1540537def)" style="fill: url(#h45957c9552); stroke: #2ca02c; stroke-width: 2; stroke-linejoin: miter"/>
   </g>
   <g id="patch_5">
    <path d="M 116.403473 301.520311 
L 120.528632 301.520311 
L 120.528632 122.397985 
L 116.403473 122.397985 
z
" clip-path="url(#p1540537def)" style="fill: url(#h45957c9552); stroke: #2ca02c; stroke-width: 2; stroke-linejoin: miter"/>
   </g>
   <g id="patch_6">
    <path d="M 121.256602 301.520311 
L 125.381761 301.520311 
L 125.381761 122.311619 
L 121.256602 122.311619 
z
" clip-path="url(#p1540537def)" style="fill: url(#h45957c9552); stroke: #2ca02c; stroke-width: 2; stroke-linejoin: miter"/>
   </g>
   <g id="patch_7">
    <path d="M 126.10973 301.520311 
L 130.23489 301.520311 
L 130.23489 122.311619 
L 126.10973 122.311619 
z
" clip-path="url(#p1540537def)" style="fill: url(#h45957c9552); stroke: #2ca02c; stroke-width: 2; stroke-linejoin: miter"/>
   </g>
   <g id="patch_8">
    <path d="M 130.962859 301.520311 
L 135.088018 301.520311 
L 135.088018 121.96532 
L 130.962859 121.96532 
z
" clip-path="url(#p1540537def)" style="fill: url(#h45957c9552); stroke: #2ca02c; stroke-width: 2; stroke-linejoin: miter"/>
   </g>
   <g id="patch_9">
    <path d="M 135.815987 301.520311 
L 139.941147 301.520311 
L 139.941147 121.878535 
L 135.815987 121.878535 
z
" clip-path="url(#p1540537def)" style="fill: url(#h45957c9552); stroke: #2ca02c; stroke-width: 2; stroke-linejoin: miter"/>
   </g>
   <g id="patch_10">
    <path d="M 140.669116 301.520311 
L 144.794275 301.520311 
L 144.794275 121.791667 
L 140.669116 121.791667 
z
" clip-path="url(#p1540537def)" style="fill: url(#h45957c9552); stroke: #2ca02c; stroke-width: 2; stroke-linejoin: miter"/>
   </g>
   <g id="patch_11">
    <path d="M 145.522245 301.520311 
L 149.647404 301.520311 
L 149.647404 121.356084 
L 145.522245 121.356084 
z
" clip-path="url(#p1540537def)" style="fill: url(#h45957c9552); stroke: #2ca02c; stroke-width: 2; stroke-linejoin: miter"/>
   </g>
   <g id="patch_12">
    <path d="M 150.375373 301.520311 
L 154.500532 301.520311 
L 154.500532 120.478512 
L 150.375373 120.478512 
z
" clip-path="url(#p1540537def)" style="fill: url(#h45957c9552); stroke: #2ca02c; stroke-width: 2; stroke-linejoin: miter"/>
   </g>
   <g id="patch_13">
    <path d="M 155.228502 301.520311 
L 159.353661 301.520311 
L 159.353661 120.30197 
L 155.228502 120.30197 
z
" clip-path="url(#p1540537def)" style="fill: url(#h45957c9552); stroke: #2ca02c; stroke-width: 2; stroke-linejoin: miter"/>
   </g>
   <g id="patch_14">
    <path d="M 160.08163 301.520311 
L 164.20679 301.520311 
L 164.20679 120.213571 
L 160.08163 120.213571 
z
" clip-path="url(#p1540537def)" style="fill: url(#h45957c9552); stroke: #2ca02c; stroke-width: 2; stroke-linejoin: miter"/>
   </g>
   <g id="patch_15">
    <path d="M 164.934759 301.520311 
L 169.059918 301.520311 
L 169.059918 58.592979 
L 164.934759 58.592979 
z
" clip-path="url(#p1540537def)" style="fill: url(#h45957c9552); stroke: #2ca02c; stroke-width: 2; stroke-linejoin: miter"/>
   </g>
   <g id="patch_16">
    <path d="M 169.787888 301.520311 
L 173.913047 301.520311 
L 173.913047 54.22902 
L 169.787888 54.22902 
z
" clip-path="url(#p1540537def)" style="fill: url(#h45957c9552); stroke: #2ca02c; stroke-width: 2; stroke-linejoin: miter"/>
   </g>
   <g id="patch_17">
    <path d="M 174.641016 301.520311 
L 178.766175 301.520311 
L 178.766175 53.734433 
L 174.641016 53.734433 
z
" clip-path="url(#p1540537def)" style="fill: url(#h45957c9552); stroke: #2ca02c; stroke-width: 2; stroke-linejoin: miter"/>
   </g>
   <g id="patch_18">
    <path d="M 179.494145 301.520311 
L 183.619304 301.520311 
L 183.619304 53.569131 
L 179.494145 53.569131 
z
" clip-path="url(#p1540537def)" style="fill: url(#h45957c9552); stroke: #2ca02c; stroke-width: 2; stroke-linejoin: miter"/>
   </g>
   <g id="patch_19">
    <path d="M 184.347273 301.520311 
L 188.472433 301.520311 
L 188.472433 52.905712 
L 184.347273 52.905712 
z
" clip-path="url(#p1540537def)" style="fill: url(#h45957c9552); stroke: #2ca02c; stroke-width: 2; stroke-linejoin: miter"/>
   </g>
   <g id="patch_20">
    <path d="M 189.200402 301.520311 
L 193.325561 301.520311 
L 193.325561 52.572669 
L 189.200402 52.572669 
z
" clip-path="url(#p1540537def)" style="fill: url(#h45957c9552); stroke: #2ca02c; stroke-width: 2; stroke-linejoin: miter"/>
   </g>
   <g id="patch_21">
    <path d="M 194.05353 301.520311 
L 198.17869 301.520311 
L 198.17869 52.238732 
L 194.05353 52.238732 
z
" clip-path="url(#p1540537def)" style="fill: url(#h45957c9552); stroke: #2ca02c; stroke-width: 2; stroke-linejoin: miter"/>
   </g>
   <g id="patch_22">
    <path d="M 198.906659 301.520311 
L 203.031818 301.520311 
L 203.031818 52.071448 
L 198.906659 52.071448 
z
" clip-path="url(#p1540537def)" style="fill: url(#h45957c9552); stroke: #2ca02c; stroke-width: 2; stroke-linejoin: miter"/>
   </g>
   <g id="patch_23">
    <path d="M 203.759788 301.520311 
L 207.884947 301.520311 
L 207.884947 52.071448 
L 203.759788 52.071448 
z
" clip-path="url(#p1540537def)" style="fill: url(#h45957c9552); stroke: #2ca02c; stroke-width: 2; stroke-linejoin: miter"/>
   </g>
   <g id="patch_24">
    <path d="M 208.612916 301.520311 
L 212.738076 301.520311 
L 212.738076 51.903919 
L 208.612916 51.903919 
z
" clip-path="url(#p1540537def)" style="fill: url(#h45957c9552); stroke: #2ca02c; stroke-width: 2; stroke-linejoin: miter"/>
   </g>
   <g id="patch_25">
    <path d="M 213.466045 301.520311 
L 217.591204 301.520311 
L 217.591204 51.903919 
L 213.466045 51.903919 
z
" clip-path="url(#p1540537def)" style="fill: url(#h45957c9552); stroke: #2ca02c; stroke-width: 2; stroke-linejoin: miter"/>
   </g>
   <g id="patch_26">
    <path d="M 218.319173 301.520311 
L 222.444333 301.520311 
L 222.444333 51.736164 
L 218.319173 51.736164 
z
" clip-path="url(#p1540537def)" style="fill: url(#h45957c9552); stroke: #2ca02c; stroke-width: 2; stroke-linejoin: miter"/>
   </g>
   <g id="patch_27">
    <path d="M 223.172302 301.520311 
L 227.297461 301.520311 
L 227.297461 51.736164 
L 223.172302 51.736164 
z
" clip-path="url(#p1540537def)" style="fill: url(#h45957c9552); stroke: #2ca02c; stroke-width: 2; stroke-linejoin: miter"/>
   </g>
   <g id="patch_28">
    <path d="M 228.025431 301.520311 
L 232.15059 301.520311 
L 232.15059 51.736164 
L 228.025431 51.736164 
z
" clip-path="url(#p1540537def)" style="fill: url(#h45957c9552); stroke: #2ca02c; stroke-width: 2; stroke-linejoin: miter"/>
   </g>
   <g id="patch_29">
    <path d="M 232.878559 301.520311 
L 237.003718 301.520311 
L 237.003718 51.568185 
L 232.878559 51.568185 
z
" clip-path="url(#p1540537def)" style="fill: url(#h45957c9552); stroke: #2ca02c; stroke-width: 2; stroke-linejoin: miter"/>
   </g>
   <g id="patch_30">
    <path d="M 237.731688 301.520311 
L 241.856847 301.520311 
L 241.856847 51.568185 
L 237.731688 51.568185 
z
" clip-path="url(#p1540537def)" style="fill: url(#h45957c9552); stroke: #2ca02c; stroke-width: 2; stroke-linejoin: miter"/>
   </g>
   <g id="patch_31">
    <path d="M 242.584816 301.520311 
L 246.709976 301.520311 
L 246.709976 51.568185 
L 242.584816 51.568185 
z
" clip-path="url(#p1540537def)" style="fill: url(#h45957c9552); stroke: #2ca02c; stroke-width: 2; stroke-linejoin: miter"/>
   </g>
   <g id="patch_32">
    <path d="M 247.437945 301.520311 
L 251.563104 301.520311 
L 251.563104 51.399979 
L 247.437945 51.399979 
z
" clip-path="url(#p1540537def)" style="fill: url(#h45957c9552); stroke: #2ca02c; stroke-width: 2; stroke-linejoin: miter"/>
   </g>
   <g id="patch_33">
    <path d="M 252.291074 301.520311 
L 256.416233 301.520311 
L 256.416233 51.399979 
L 252.291074 51.399979 
z
" clip-path="url(#p1540537def)" style="fill: url(#h45957c9552); stroke: #2ca02c; stroke-width: 2; stroke-linejoin: miter"/>
   </g>
   <g id="patch_34">
    <path d="M 257.144202 301.520311 
L 261.269361 301.520311 
L 261.269361 51.231546 
L 257.144202 51.231546 
z
" clip-path="url(#p1540537def)" style="fill: url(#h45957c9552); stroke: #2ca02c; stroke-width: 2; stroke-linejoin: miter"/>
   </g>
   <g id="patch_35">
    <path d="M 261.997331 301.520311 
L 266.12249 301.520311 
L 266.12249 51.231546 
L 261.997331 51.231546 
z
" clip-path="url(#p1540537def)" style="fill: url(#h45957c9552); stroke: #2ca02c; stroke-width: 2; stroke-linejoin: miter"/>
   </g>
   <g id="patch_36">
    <path d="M 266.850459 301.520311 
L 270.975619 301.520311 
L 270.975619 51.231546 
L 266.850459 51.231546 
z
" clip-path="url(#p1540537def)" style="fill: url(#h45957c9552); stroke: #2ca02c; stroke-width: 2; stroke-linejoin: miter"/>
   </g>
   <g id="patch_37">
    <path d="M 271.703588 301.520311 
L 275.828747 301.520311 
L 275.828747 51.231546 
L 271.703588 51.231546 
z
" clip-path="url(#p1540537def)" style="fill: url(#h45957c9552); stroke: #2ca02c; stroke-width: 2; stroke-linejoin: miter"/>
   </g>
   <g id="patch_38">
    <path d="M 276.556716 301.520311 
L 280.681876 301.520311 
L 280.681876 51.231546 
L 276.556716 51.231546 
z
" clip-path="url(#p1540537def)" style="fill: url(#h45957c9552); stroke: #2ca02c; stroke-width: 2; stroke-linejoin: miter"/>
   </g>
   <g id="patch_39">
    <path d="M 281.409845 301.520311 
L 285.535004 301.520311 
L 285.535004 51.231546 
L 281.409845 51.231546 
z
" clip-path="url(#p1540537def)" style="fill: url(#h45957c9552); stroke: #2ca02c; stroke-width: 2; stroke-linejoin: miter"/>
   </g>
   <g id="patch_40">
    <path d="M 286.262974 301.520311 
L 290.388133 301.520311 
L 290.388133 51.062887 
L 286.262974 51.062887 
z
" clip-path="url(#p1540537def)" style="fill: url(#h45957c9552); stroke: #2ca02c; stroke-width: 2; stroke-linejoin: miter"/>
   </g>
   <g id="patch_41">
    <path d="M 291.116102 301.520311 
L 295.241262 301.520311 
L 295.241262 51.062887 
L 291.116102 51.062887 
z
" clip-path="url(#p1540537def)" style="fill: url(#h45957c9552); stroke: #2ca02c; stroke-width: 2; stroke-linejoin: miter"/>
   </g>
   <g id="patch_42">
    <path d="M 295.969231 301.520311 
L 300.09439 301.520311 
L 300.09439 51.062887 
L 295.969231 51.062887 
z
" clip-path="url(#p1540537def)" style="fill: url(#h45957c9552); stroke: #2ca02c; stroke-width: 2; stroke-linejoin: miter"/>
   </g>
   <g id="patch_43">
    <path d="M 300.822359 301.520311 
L 304.947519 301.520311 
L 304.947519 51.062887 
L 300.822359 51.062887 
z
" clip-path="url(#p1540537def)" style="fill: url(#h45957c9552); stroke: #2ca02c; stroke-width: 2; stroke-linejoin: miter"/>
   </g>
   <g id="patch_44">
    <path d="M 305.675488 301.520311 
L 309.800647 301.520311 
L 309.800647 51.062887 
L 305.675488 51.062887 
z
" clip-path="url(#p1540537def)" style="fill: url(#h45957c9552); stroke: #2ca02c; stroke-width: 2; stroke-linejoin: miter"/>
   </g>
   <g id="patch_45">
    <path d="M 310.528617 301.520311 
L 314.653776 301.520311 
L 314.653776 51.062887 
L 310.528617 51.062887 
z
" clip-path="url(#p1540537def)" style="fill: url(#h45957c9552); stroke: #2ca02c; stroke-width: 2; stroke-linejoin: miter"/>
   </g>
   <g id="patch_46">
    <path d="M 315.381745 301.520311 
L 319.506904 301.520311 
L 319.506904 50.894 
L 315.381745 50.894 
z
" clip-path="url(#p1540537def)" style="fill: url(#h45957c9552); stroke: #2ca02c; stroke-width: 2; stroke-linejoin: miter"/>
   </g>
   <g id="patch_47">
    <path d="M 320.234874 301.520311 
L 324.360033 301.520311 
L 324.360033 50.894 
L 320.234874 50.894 
z
" clip-path="url(#p1540537def)" style="fill: url(#h45957c9552); stroke: #2ca02c; stroke-width: 2; stroke-linejoin: miter"/>
   </g>
   <g id="patch_48">
    <path d="M 325.088002 301.520311 
L 329.213162 301.520311 
L 329.213162 50.724885 
L 325.088002 50.724885 
z
" clip-path="url(#p1540537def)" style="fill: url(#h45957c9552); stroke: #2ca02c; stroke-width: 2; stroke-linejoin: miter"/>
   </g>
   <g id="patch_49">
    <path d="M 329.941131 301.520311 
L 334.06629 301.520311 
L 334.06629 50.385969 
L 329.941131 50.385969 
z
" clip-path="url(#p1540537def)" style="fill: url(#h45957c9552); stroke: #2ca02c; stroke-width: 2; stroke-linejoin: miter"/>
   </g>
   <g id="patch_50">
    <path d="M 334.794259 301.520311 
L 338.919419 301.520311 
L 338.919419 50.385969 
L 334.794259 50.385969 
z
" clip-path="url(#p1540537def)" style="fill: url(#h45957c9552); stroke: #2ca02c; stroke-width: 2; stroke-linejoin: miter"/>
   </g>
   <g id="patch_51">
    <path d="M 339.647388 301.520311 
L 343.772547 301.520311 
L 343.772547 50.216168 
L 339.647388 50.216168 
z
" clip-path="url(#p1540537def)" style="fill: url(#h45957c9552); stroke: #2ca02c; stroke-width: 2; stroke-linejoin: miter"/>
   </g>
   <g id="patch_52">
    <path d="M 344.500517 301.520311 
L 348.625676 301.520311 
L 348.625676 50.216168 
L 344.500517 50.216168 
z
" clip-path="url(#p1540537def)" style="fill: url(#h45957c9552); stroke: #2ca02c; stroke-width: 2; stroke-linejoin: miter"/>
   </g>
   <g id="patch_53">
    <path d="M 349.353645 301.520311 
L 353.478805 301.520311 
L 353.478805 50.046137 
L 349.353645 50.046137 
z
" clip-path="url(#p1540537def)" style="fill: url(#hc450e4bf05); stroke: #ff7f0e; stroke-width: 2; stroke-linejoin: miter"/>
   </g>
   <g id="patch_54">
    <path d="M 354.206774 301.520311 
L 358.331933 301.520311 
L 358.331933 50.046137 
L 354.206774 50.046137 
z
" clip-path="url(#p1540537def)" style="fill: url(#hc450e4bf05); stroke: #ff7f0e; stroke-width: 2; stroke-linejoin: miter"/>
   </g>
   <g id="patch_55">
    <path d="M 359.059902 301.520311 
L 363.185062 301.520311 
L 363.185062 50.046137 
L 359.059902 50.046137 
z
" clip-path="url(#p1540537def)" style="fill: url(#hc450e4bf05); stroke: #ff7f0e; stroke-width: 2; stroke-linejoin: miter"/>
   </g>
   <g id="patch_56">
    <path d="M 363.913031 301.520311 
L 368.03819 301.520311 
L 368.03819 50.046137 
L 363.913031 50.046137 
z
" clip-path="url(#p1540537def)" style="fill: url(#hc450e4bf05); stroke: #ff7f0e; stroke-width: 2; stroke-linejoin: miter"/>
   </g>
   <g id="patch_57">
    <path d="M 368.76616 301.520311 
L 372.891319 301.520311 
L 372.891319 50.046137 
L 368.76616 50.046137 
z
" clip-path="url(#p1540537def)" style="fill: url(#hc450e4bf05); stroke: #ff7f0e; stroke-width: 2; stroke-linejoin: miter"/>
   </g>
   <g id="patch_58">
    <path d="M 373.619288 301.520311 
L 377.744447 301.520311 
L 377.744447 50.046137 
L 373.619288 50.046137 
z
" clip-path="url(#p1540537def)" style="fill: url(#hc450e4bf05); stroke: #ff7f0e; stroke-width: 2; stroke-linejoin: miter"/>
   </g>
   <g id="patch_59">
    <path d="M 378.472417 301.520311 
L 382.597576 301.520311 
L 382.597576 50.046137 
L 378.472417 50.046137 
z
" clip-path="url(#p1540537def)" style="fill: url(#hc450e4bf05); stroke: #ff7f0e; stroke-width: 2; stroke-linejoin: miter"/>
   </g>
   <g id="patch_60">
    <path d="M 383.325545 301.520311 
L 387.450705 301.520311 
L 387.450705 50.046137 
L 383.325545 50.046137 
z
" clip-path="url(#p1540537def)" style="fill: url(#hc450e4bf05); stroke: #ff7f0e; stroke-width: 2; stroke-linejoin: miter"/>
   </g>
   <g id="patch_61">
    <path d="M 388.178674 301.520311 
L 392.303833 301.520311 
L 392.303833 49.875876 
L 388.178674 49.875876 
z
" clip-path="url(#p1540537def)" style="fill: url(#hc450e4bf05); stroke: #ff7f0e; stroke-width: 2; stroke-linejoin: miter"/>
   </g>
   <g id="patch_62">
    <path d="M 393.031803 301.520311 
L 397.156962 301.520311 
L 397.156962 49.875876 
L 393.031803 49.875876 
z
" clip-path="url(#p1540537def)" style="fill: url(#hc450e4bf05); stroke: #ff7f0e; stroke-width: 2; stroke-linejoin: miter"/>
   </g>
   <g id="patch_63">
    <path d="M 397.884931 301.520311 
L 402.01009 301.520311 
L 402.01009 49.705383 
L 397.884931 49.705383 
z
" clip-path="url(#p1540537def)" style="fill: url(#hc450e4bf05); stroke: #ff7f0e; stroke-width: 2; stroke-linejoin: miter"/>
   </g>
   <g id="patch_64">
    <path d="M 402.73806 301.520311 
L 406.863219 301.520311 
L 406.863219 49.705383 
L 402.73806 49.705383 
z
" clip-path="url(#p1540537def)" style="fill: url(#hc450e4bf05); stroke: #ff7f0e; stroke-width: 2; stroke-linejoin: miter"/>
   </g>
   <g id="patch_65">
    <path d="M 407.591188 301.520311 
L 411.716348 301.520311 
L 411.716348 49.53468 
L 407.591188 49.53468 
z
" clip-path="url(#p1540537def)" style="fill: url(#hc450e4bf05); stroke: #ff7f0e; stroke-width: 2; stroke-linejoin: miter"/>
   </g>
   <g id="patch_66">
    <path d="M 412.444317 301.520311 
L 416.569476 301.520311 
L 416.569476 49.53468 
L 412.444317 49.53468 
z
" clip-path="url(#p1540537def)" style="fill: url(#hc450e4bf05); stroke: #ff7f0e; stroke-width: 2; stroke-linejoin: miter"/>
   </g>
   <g id="patch_67">
    <path d="M 417.297445 301.520311 
L 421.422605 301.520311 
L 421.422605 49.53468 
L 417.297445 49.53468 
z
" clip-path="url(#p1540537def)" style="fill: url(#hc450e4bf05); stroke: #ff7f0e; stroke-width: 2; stroke-linejoin: miter"/>
   </g>
   <g id="patch_68">
    <path d="M 422.150574 301.520311 
L 426.275733 301.520311 
L 426.275733 49.53468 
L 422.150574 49.53468 
z
" clip-path="url(#p1540537def)" style="fill: url(#hc450e4bf05); stroke: #ff7f0e; stroke-width: 2; stroke-linejoin: miter"/>
   </g>
   <g id="patch_69">
    <path d="M 427.003703 301.520311 
L 431.128862 301.520311 
L 431.128862 49.363725 
L 427.003703 49.363725 
z
" clip-path="url(#p1540537def)" style="fill: url(#hc450e4bf05); stroke: #ff7f0e; stroke-width: 2; stroke-linejoin: miter"/>
   </g>
   <g id="patch_70">
    <path d="M 431.856831 301.520311 
L 435.981991 301.520311 
L 435.981991 49.363725 
L 431.856831 49.363725 
z
" clip-path="url(#p1540537def)" style="fill: url(#hc450e4bf05); stroke: #ff7f0e; stroke-width: 2; stroke-linejoin: miter"/>
   </g>
   <g id="patch_71">
    <path d="M 436.70996 301.520311 
L 440.835119 301.520311 
L 440.835119 49.363725 
L 436.70996 49.363725 
z
" clip-path="url(#p1540537def)" style="fill: url(#hc450e4bf05); stroke: #ff7f0e; stroke-width: 2; stroke-linejoin: miter"/>
   </g>
   <g id="patch_72">
    <path d="M 441.563088 301.520311 
L 445.688248 301.520311 
L 445.688248 49.363725 
L 441.563088 49.363725 
z
" clip-path="url(#p1540537def)" style="fill: url(#hc450e4bf05); stroke: #ff7f0e; stroke-width: 2; stroke-linejoin: miter"/>
   </g>
   <g id="patch_73">
    <path d="M 446.416217 301.520311 
L 450.541376 301.520311 
L 450.541376 49.363725 
L 446.416217 49.363725 
z
" clip-path="url(#p1540537def)" style="fill: url(#hc450e4bf05); stroke: #ff7f0e; stroke-width: 2; stroke-linejoin: miter"/>
   </g>
   <g id="patch_74">
    <path d="M 451.269346 301.520311 
L 455.394505 301.520311 
L 455.394505 49.363725 
L 451.269346 49.363725 
z
" clip-path="url(#p1540537def)" style="fill: url(#hc450e4bf05); stroke: #ff7f0e; stroke-width: 2; stroke-linejoin: miter"/>
   </g>
   <g id="patch_75">
    <path d="M 456.122474 301.520311 
L 460.247633 301.520311 
L 460.247633 49.363725 
L 456.122474 49.363725 
z
" clip-path="url(#p1540537def)" style="fill: url(#hc450e4bf05); stroke: #ff7f0e; stroke-width: 2; stroke-linejoin: miter"/>
   </g>
   <g id="patch_76">
    <path d="M 460.975603 301.520311 
L 465.100762 301.520311 
L 465.100762 49.363725 
L 460.975603 49.363725 
z
" clip-path="url(#p1540537def)" style="fill: url(#hc450e4bf05); stroke: #ff7f0e; stroke-width: 2; stroke-linejoin: miter"/>
   </g>
   <g id="patch_77">
    <path d="M 465.828731 301.520311 
L 469.953891 301.520311 
L 469.953891 49.363725 
L 465.828731 49.363725 
z
" clip-path="url(#p1540537def)" style="fill: url(#hc450e4bf05); stroke: #ff7f0e; stroke-width: 2; stroke-linejoin: miter"/>
   </g>
   <g id="patch_78">
    <path d="M 470.68186 301.520311 
L 474.807019 301.520311 
L 474.807019 49.363725 
L 470.68186 49.363725 
z
" clip-path="url(#p1540537def)" style="fill: url(#hc450e4bf05); stroke: #ff7f0e; stroke-width: 2; stroke-linejoin: miter"/>
   </g>
   <g id="patch_79">
    <path d="M 475.534988 301.520311 
L 479.660148 301.520311 
L 479.660148 49.192538 
L 475.534988 49.192538 
z
" clip-path="url(#p1540537def)" style="fill: url(#hc450e4bf05); stroke: #ff7f0e; stroke-width: 2; stroke-linejoin: miter"/>
   </g>
   <g id="patch_80">
    <path d="M 480.388117 301.520311 
L 484.513276 301.520311 
L 484.513276 49.192538 
L 480.388117 49.192538 
z
" clip-path="url(#p1540537def)" style="fill: url(#hc450e4bf05); stroke: #ff7f0e; stroke-width: 2; stroke-linejoin: miter"/>
   </g>
   <g id="patch_81">
    <path d="M 485.241246 301.520311 
L 489.366405 301.520311 
L 489.366405 49.192538 
L 485.241246 49.192538 
z
" clip-path="url(#p1540537def)" style="fill: url(#hc450e4bf05); stroke: #ff7f0e; stroke-width: 2; stroke-linejoin: miter"/>
   </g>
   <g id="patch_82">
    <path d="M 490.094374 301.520311 
L 494.219534 301.520311 
L 494.219534 49.192538 
L 490.094374 49.192538 
z
" clip-path="url(#p1540537def)" style="fill: url(#hc450e4bf05); stroke: #ff7f0e; stroke-width: 2; stroke-linejoin: miter"/>
   </g>
   <g id="patch_83">
    <path d="M 494.947503 301.520311 
L 499.072662 301.520311 
L 499.072662 49.021118 
L 494.947503 49.021118 
z
" clip-path="url(#p1540537def)" style="fill: url(#hc450e4bf05); stroke: #ff7f0e; stroke-width: 2; stroke-linejoin: miter"/>
   </g>
   <g id="patch_84">
    <path d="M 499.800631 301.520311 
L 503.925791 301.520311 
L 503.925791 49.021118 
L 499.800631 49.021118 
z
" clip-path="url(#p1540537def)" style="fill: url(#hc450e4bf05); stroke: #ff7f0e; stroke-width: 2; stroke-linejoin: miter"/>
   </g>
   <g id="patch_85">
    <path d="M 504.65376 301.520311 
L 508.778919 301.520311 
L 508.778919 49.021118 
L 504.65376 49.021118 
z
" clip-path="url(#p1540537def)" style="fill: url(#hc450e4bf05); stroke: #ff7f0e; stroke-width: 2; stroke-linejoin: miter"/>
   </g>
   <g id="patch_86">
    <path d="M 509.506889 301.520311 
L 513.632048 301.520311 
L 513.632048 49.021118 
L 509.506889 49.021118 
z
" clip-path="url(#p1540537def)" style="fill: url(#hc450e4bf05); stroke: #ff7f0e; stroke-width: 2; stroke-linejoin: miter"/>
   </g>
   <g id="patch_87">
    <path d="M 514.360017 301.520311 
L 518.485176 301.520311 
L 518.485176 49.021118 
L 514.360017 49.021118 
z
" clip-path="url(#p1540537def)" style="fill: url(#hc450e4bf05); stroke: #ff7f0e; stroke-width: 2; stroke-linejoin: miter"/>
   </g>
   <g id="patch_88">
    <path d="M 519.213146 301.520311 
L 523.338305 301.520311 
L 523.338305 49.021118 
L 519.213146 49.021118 
z
" clip-path="url(#p1540537def)" style="fill: url(#hc450e4bf05); stroke: #ff7f0e; stroke-width: 2; stroke-linejoin: miter"/>
   </g>
   <g id="patch_89">
    <path d="M 524.066274 301.520311 
L 528.191434 301.520311 
L 528.191434 48.849466 
L 524.066274 48.849466 
z
" clip-path="url(#p1540537def)" style="fill: url(#hc450e4bf05); stroke: #ff7f0e; stroke-width: 2; stroke-linejoin: miter"/>
   </g>
   <g id="patch_90">
    <path d="M 528.919403 301.520311 
L 533.044562 301.520311 
L 533.044562 48.849466 
L 528.919403 48.849466 
z
" clip-path="url(#p1540537def)" style="fill: url(#hc450e4bf05); stroke: #ff7f0e; stroke-width: 2; stroke-linejoin: miter"/>
   </g>
   <g id="patch_91">
    <path d="M 533.772532 301.520311 
L 537.897691 301.520311 
L 537.897691 48.849466 
L 533.772532 48.849466 
z
" clip-path="url(#p1540537def)" style="fill: url(#hc450e4bf05); stroke: #ff7f0e; stroke-width: 2; stroke-linejoin: miter"/>
   </g>
   <g id="patch_92">
    <path d="M 538.62566 301.520311 
L 542.750819 301.520311 
L 542.750819 48.849466 
L 538.62566 48.849466 
z
" clip-path="url(#p1540537def)" style="fill: url(#hc450e4bf05); stroke: #ff7f0e; stroke-width: 2; stroke-linejoin: miter"/>
   </g>
   <g id="patch_93">
    <path d="M 543.478789 301.520311 
L 547.603948 301.520311 
L 547.603948 48.677579 
L 543.478789 48.677579 
z
" clip-path="url(#p1540537def)" style="fill: url(#hc450e4bf05); stroke: #ff7f0e; stroke-width: 2; stroke-linejoin: miter"/>
   </g>
   <g id="patch_94">
    <path d="M 548.331917 301.520311 
L 552.457077 301.520311 
L 552.457077 48.677579 
L 548.331917 48.677579 
z
" clip-path="url(#p1540537def)" style="fill: url(#hc450e4bf05); stroke: #ff7f0e; stroke-width: 2; stroke-linejoin: miter"/>
   </g>
   <g id="patch_95">
    <path d="M 553.185046 301.520311 
L 557.310205 301.520311 
L 557.310205 48.505459 
L 553.185046 48.505459 
z
" clip-path="url(#p1540537def)" style="fill: url(#hc450e4bf05); stroke: #ff7f0e; stroke-width: 2; stroke-linejoin: miter"/>
   </g>
   <g id="patch_96">
    <path d="M 558.038174 301.520311 
L 562.163334 301.520311 
L 562.163334 48.333104 
L 558.038174 48.333104 
z
" clip-path="url(#p1540537def)" style="fill: url(#hc450e4bf05); stroke: #ff7f0e; stroke-width: 2; stroke-linejoin: miter"/>
   </g>
   <g id="patch_97">
    <path d="M 562.891303 301.520311 
L 567.016462 301.520311 
L 567.016462 48.160515 
L 562.891303 48.160515 
z
" clip-path="url(#p1540537def)" style="fill: url(#hc450e4bf05); stroke: #ff7f0e; stroke-width: 2; stroke-linejoin: miter"/>
   </g>
   <g id="patch_98">
    <path d="M 567.744432 301.520311 
L 571.869591 301.520311 
L 571.869591 48.160515 
L 567.744432 48.160515 
z
" clip-path="url(#p1540537def)" style="fill: url(#hc450e4bf05); stroke: #ff7f0e; stroke-width: 2; stroke-linejoin: miter"/>
   </g>
   <g id="patch_99">
    <path d="M 572.59756 301.520311 
L 576.72272 301.520311 
L 576.72272 48.160515 
L 572.59756 48.160515 
z
" clip-path="url(#p1540537def)" style="fill: url(#hc450e4bf05); stroke: #ff7f0e; stroke-width: 2; stroke-linejoin: miter"/>
   </g>
   <g id="patch_100">
    <path d="M 577.450689 301.520311 
L 581.575848 301.520311 
L 581.575848 47.98769 
L 577.450689 47.98769 
z
" clip-path="url(#p1540537def)" style="fill: url(#hc450e4bf05); stroke: #ff7f0e; stroke-width: 2; stroke-linejoin: miter"/>
   </g>
   <g id="patch_101">
    <path d="M 582.303817 301.520311 
L 586.428977 301.520311 
L 586.428977 47.98769 
L 582.303817 47.98769 
z
" clip-path="url(#p1540537def)" style="fill: url(#hc450e4bf05); stroke: #ff7f0e; stroke-width: 2; stroke-linejoin: miter"/>
   </g>
   <g id="patch_102">
    <path d="M 587.156946 301.520311 
L 591.282105 301.520311 
L 591.282105 47.98769 
L 587.156946 47.98769 
z
" clip-path="url(#p1540537def)" style="fill: url(#hc450e4bf05); stroke: #ff7f0e; stroke-width: 2; stroke-linejoin: miter"/>
   </g>
   <g id="patch_103">
    <path d="M 592.010075 301.520311 
L 596.135234 301.520311 
L 596.135234 47.98769 
L 592.010075 47.98769 
z
" clip-path="url(#p1540537def)" style="fill: url(#hc450e4bf05); stroke: #ff7f0e; stroke-width: 2; stroke-linejoin: miter"/>
   </g>
   <g id="patch_104">
    <path d="M 596.863203 301.520311 
L 600.988362 301.520311 
L 600.988362 47.98769 
L 596.863203 47.98769 
z
" clip-path="url(#p1540537def)" style="fill: url(#hc450e4bf05); stroke: #ff7f0e; stroke-width: 2; stroke-linejoin: miter"/>
   </g>
   <g id="patch_105">
    <path d="M 601.716332 301.520311 
L 605.841491 301.520311 
L 605.841491 47.814628 
L 601.716332 47.814628 
z
" clip-path="url(#p1540537def)" style="fill: url(#hc450e4bf05); stroke: #ff7f0e; stroke-width: 2; stroke-linejoin: miter"/>
   </g>
   <g id="patch_106">
    <path d="M 606.56946 301.520311 
L 610.69462 301.520311 
L 610.69462 47.814628 
L 606.56946 47.814628 
z
" clip-path="url(#p1540537def)" style="fill: url(#hc450e4bf05); stroke: #ff7f0e; stroke-width: 2; stroke-linejoin: miter"/>
   </g>
   <g id="patch_107">
    <path d="M 611.422589 301.520311 
L 615.547748 301.520311 
L 615.547748 47.814628 
L 611.422589 47.814628 
z
" clip-path="url(#p1540537def)" style="fill: url(#hc450e4bf05); stroke: #ff7f0e; stroke-width: 2; stroke-linejoin: miter"/>
   </g>
   <g id="patch_108">
    <path d="M 616.275718 301.520311 
L 620.400877 301.520311 
L 620.400877 47.814628 
L 616.275718 47.814628 
z
" clip-path="url(#p1540537def)" style="fill: url(#hc450e4bf05); stroke: #ff7f0e; stroke-width: 2; stroke-linejoin: miter"/>
   </g>
   <g id="patch_109">
    <path d="M 621.128846 301.520311 
L 625.254005 301.520311 
L 625.254005 47.814628 
L 621.128846 47.814628 
z
" clip-path="url(#p1540537def)" style="fill: url(#hc450e4bf05); stroke: #ff7f0e; stroke-width: 2; stroke-linejoin: miter"/>
   </g>
   <g id="patch_110">
    <path d="M 625.981975 301.520311 
L 630.107134 301.520311 
L 630.107134 47.814628 
L 625.981975 47.814628 
z
" clip-path="url(#p1540537def)" style="fill: url(#hc450e4bf05); stroke: #ff7f0e; stroke-width: 2; stroke-linejoin: miter"/>
   </g>
   <g id="patch_111">
    <path d="M 630.835103 301.520311 
L 634.960263 301.520311 
L 634.960263 47.814628 
L 630.835103 47.814628 
z
" clip-path="url(#p1540537def)" style="fill: url(#hc450e4bf05); stroke: #ff7f0e; stroke-width: 2; stroke-linejoin: miter"/>
   </g>
   <g id="patch_112">
    <path d="M 635.688232 301.520311 
L 639.813391 301.520311 
L 639.813391 47.641331 
L 635.688232 47.641331 
z
" clip-path="url(#p1540537def)" style="fill: url(#hc450e4bf05); stroke: #ff7f0e; stroke-width: 2; stroke-linejoin: miter"/>
   </g>
   <g id="patch_113">
    <path d="M 640.54136 301.520311 
L 644.66652 301.520311 
L 644.66652 47.641331 
L 640.54136 47.641331 
z
" clip-path="url(#p1540537def)" style="fill: url(#hc450e4bf05); stroke: #ff7f0e; stroke-width: 2; stroke-linejoin: miter"/>
   </g>
   <g id="patch_114">
    <path d="M 645.394489 301.520311 
L 649.519648 301.520311 
L 649.519648 47.641331 
L 645.394489 47.641331 
z
" clip-path="url(#p1540537def)" style="fill: url(#hc450e4bf05); stroke: #ff7f0e; stroke-width: 2; stroke-linejoin: miter"/>
   </g>
   <g id="patch_115">
    <path d="M 650.247618 301.520311 
L 654.372777 301.520311 
L 654.372777 47.467796 
L 650.247618 47.467796 
z
" clip-path="url(#p1540537def)" style="fill: url(#hc450e4bf05); stroke: #ff7f0e; stroke-width: 2; stroke-linejoin: miter"/>
   </g>
   <g id="patch_116">
    <path d="M 655.100746 301.520311 
L 659.225906 301.520311 
L 659.225906 47.120015 
L 655.100746 47.120015 
z
" clip-path="url(#p1540537def)" style="fill: url(#hc450e4bf05); stroke: #ff7f0e; stroke-width: 2; stroke-linejoin: miter"/>
   </g>
   <g id="patch_117">
    <path d="M 659.953875 301.520311 
L 664.079034 301.520311 
L 664.079034 47.120015 
L 659.953875 47.120015 
z
" clip-path="url(#p1540537def)" style="fill: url(#hc450e4bf05); stroke: #ff7f0e; stroke-width: 2; stroke-linejoin: miter"/>
   </g>
   <g id="line2d_26">
    <path d="M 78.828125 50.046137 
L 691.948125 50.046137 
" clip-path="url(#p1540537def)" style="fill: none; stroke-dasharray: 4.44,1.92; stroke-dashoffset: 0; stroke: #f58518; stroke-width: 1.2"/>
   </g>
   <g id="patch_118">
    <path d="M 78.828125 301.520311 
L 78.828125 34.4 
" style="fill: none; stroke: #808080; stroke-width: 0.8; stroke-linejoin: miter; stroke-linecap: square"/>
   </g>
   <g id="patch_119">
    <path d="M 78.828125 301.520311 
L 691.948125 301.520311 
" style="fill: none; stroke: #808080; stroke-width: 0.8; stroke-linejoin: miter; stroke-linecap: square"/>
   </g>
   <g id="text_23">
    <text style="font: 22px 'PingFang SC', 'Heiti SC', 'STHeiti', 'Calibri', 'Arial', 'Helvetica Neue', 'Arial Unicode MS', 'Noto Sans CJK SC', 'DejaVu Sans', sans-serif; text-anchor: middle" x="385.388125" y="28.4" transform="rotate(-0 385.388125 28.4)">排序条形 · SFU GFLOPS</text>
   </g>
   <g id="legend_1">
    <g id="patch_120">
     <path d="M 87.228125 61.16 
L 208.01 61.16 
Q 210.41 61.16 210.41 58.76 
L 210.41 42.8 
Q 210.41 40.4 208.01 40.4 
L 87.228125 40.4 
Q 84.828125 40.4 84.828125 42.8 
L 84.828125 58.76 
Q 84.828125 61.16 87.228125 61.16 
z
" style="fill: #ffffff; opacity: 0.5; stroke: #cccccc; stroke-linejoin: miter"/>
    </g>
    <g id="line2d_27">
     <path d="M 89.628125 50.55125 
L 101.628125 50.55125 
L 113.628125 50.55125 
" style="fill: none; stroke-dasharray: 4.44,1.92; stroke-dashoffset: 0; stroke: #f58518; stroke-width: 1.2"/>
    </g>
    <g id="text_24">
     <text style="font: 12px 'PingFang SC', 'Heiti SC', 'STHeiti', 'Calibri', 'Arial', 'Helvetica Neue', 'Arial Unicode MS', 'Noto Sans CJK SC', 'DejaVu Sans', sans-serif; text-anchor: start" x="123.228125" y="54.75125" transform="rotate(-0 123.228125 54.75125)">median=177.4</text>
    </g>
   </g>
  </g>
 </g>
 <defs>
  <clipPath id="p1540537def">
   <rect x="78.828125" y="34.4" width="613.12" height="267.120311"/>
  </clipPath>
 </defs>
 <defs>
  <pattern id="h45957c9552" patternUnits="userSpaceOnUse" x="0" y="0" width="72" height="72">
   <rect x="0" y="0" width="73" height="73" fill="none"/>
   <path d="M -36 36 
L 36 -36 
M -30 42 
L 42 -30 
M -24 48 
L 48 -24 
M -18 54 
L 54 -18 
M -12 60 
L 60 -12 
M -6 66 
L 66 -6 
M 0 72 
L 72 0 
M 6 78 
L 78 6 
M 12 84 
L 84 12 
M 18 90 
L 90 18 
M 24 96 
L 96 24 
M 30 102 
L 102 30 
M 36 108 
L 108 36 
M -36 36 
L 36 108 
M -30 30 
L 42 102 
M -24 24 
L 48 96 
M -18 18 
L 54 90 
M -12 12 
L 60 84 
M -6 6 
L 66 78 
M 0 0 
L 72 72 
M 6 -6 
L 78 66 
M 12 -12 
L 84 60 
M 18 -18 
L 90 54 
M 24 -24 
L 96 48 
M 30 -30 
L 102 42 
M 36 -36 
L 108 36 
" style="fill: #2ca02c; stroke: #2ca02c; stroke-width: 1.0; stroke-linecap: butt; stroke-linejoin: miter"/>
  </pattern>
  <pattern id="hc450e4bf05" patternUnits="userSpaceOnUse" x="0" y="0" width="72" height="72">
   <rect x="0" y="0" width="73" height="73" fill="none"/>
   <path d="M -36 36 
L 36 -36 
M -30 42 
L 42 -30 
M -24 48 
L 48 -24 
M -18 54 
L 54 -18 
M -12 60 
L 60 -12 
M -6 66 
L 66 -6 
M 0 72 
L 72 0 
M 6 78 
L 78 6 
M 12 84 
L 84 12 
M 18 90 
L 90 18 
M 24 96 
L 96 24 
M 30 102 
L 102 30 
M 36 108 
L 108 36 
" style="fill: #ff7f0e; stroke: #ff7f0e; stroke-width: 1.0; stroke-linecap: butt; stroke-linejoin: miter"/>
  </pattern>
 </defs>
</svg>
