<?xml version="1.0" encoding="utf-8" standalone="no"?>
<!DOCTYPE svg PUBLIC "-//W3C//DTD SVG 1.1//EN"
  "http://www.w3.org/Graphics/SVG/1.1/DTD/svg11.dtd">
<svg xmlns:xlink="http://www.w3.org/1999/xlink" width="702.844062pt" height="342.717915pt" viewBox="0 0 702.844062 342.717915" xmlns="http://www.w3.org/2000/svg" version="1.1">
 <metadata>
  <rdf:RDF xmlns:dc="http://purl.org/dc/elements/1.1/" xmlns:cc="http://creativecommons.org/ns#" xmlns:rdf="http://www.w3.org/1999/02/22-rdf-syntax-ns#">
   <cc:Work>
    <dc:type rdf:resource="http://purl.org/dc/dcmitype/StillImage"/>
    <dc:date>2026-07-11T23:31:14.515489</dc:date>
    <dc:format>image/svg+xml</dc:format>
    <dc:creator>
     <cc:Agent>
      <dc:title>Matplotlib v3.9.4, https://matplotlib.org/</dc:title>
     </cc:Agent>
    </dc:creator>
   </cc:Work>
  </rdf:RDF>
 </metadata>
 <defs>
  <style type="text/css">*{stroke-linejoin: round; stroke-linecap: butt}</style>
 </defs>
 <g id="figure_1">
  <g id="patch_1">
   <path d="M 0 342.717915 
L 702.844062 342.717915 
L 702.844062 0 
L 0 0 
z
" style="fill: #ffffff"/>
  </g>
  <g id="axes_1">
   <g id="patch_2">
    <path d="M 91.261562 301.370265 
L 692.044062 301.370265 
L 692.044062 35.104688 
L 91.261562 35.104688 
z
" style="fill: #ffffff"/>
   </g>
   <g id="matplotlib.axis_1">
    <g id="xtick_1">
     <g id="line2d_1">
      <defs>
       <path id="m78f0cb6cf9" d="M 0 0 
L 0 3.5 
" style="stroke: #808080; stroke-width: 0.8"/>
      </defs>
      <g>
       <use xlink:href="#m78f0cb6cf9" x="120.590933" y="301.370265" style="fill: #808080; stroke: #808080; stroke-width: 0.8"/>
      </g>
     </g>
     <g id="text_1">
      <text style="fill: #808080; font: 9px 'PingFang SC', 'Heiti SC', 'STHeiti', 'Calibri', 'Arial', 'Helvetica Neue', 'Arial Unicode MS', 'Noto Sans CJK SC', 'DejaVu Sans', sans-serif" transform="translate(102.108598 331.064747) rotate(-45)">w14.5</text>
     </g>
    </g>
    <g id="xtick_2">
     <g id="line2d_2">
      <g>
       <use xlink:href="#m78f0cb6cf9" x="153.879234" y="301.370265" style="fill: #808080; stroke: #808080; stroke-width: 0.8"/>
      </g>
     </g>
     <g id="text_2">
      <text style="fill: #808080; font: 9px 'PingFang SC', 'Heiti SC', 'STHeiti', 'Calibri', 'Arial', 'Helvetica Neue', 'Arial Unicode MS', 'Noto Sans CJK SC', 'DejaVu Sans', sans-serif" transform="translate(135.396899 331.064747) rotate(-45)">w10.6</text>
     </g>
    </g>
    <g id="xtick_3">
     <g id="line2d_3">
      <g>
       <use xlink:href="#m78f0cb6cf9" x="187.167535" y="301.370265" style="fill: #808080; stroke: #808080; stroke-width: 0.8"/>
      </g>
     </g>
     <g id="text_3">
      <text style="fill: #808080; font: 9px 'PingFang SC', 'Heiti SC', 'STHeiti', 'Calibri', 'Arial', 'Helvetica Neue', 'Arial Unicode MS', 'Noto Sans CJK SC', 'DejaVu Sans', sans-serif" transform="translate(168.6852 331.064747) rotate(-45)">w14.2</text>
     </g>
    </g>
    <g id="xtick_4">
     <g id="line2d_4">
      <g>
       <use xlink:href="#m78f0cb6cf9" x="220.455836" y="301.370265" style="fill: #808080; stroke: #808080; stroke-width: 0.8"/>
      </g>
     </g>
     <g id="text_4">
      <text style="fill: #808080; font: 9px 'PingFang SC', 'Heiti SC', 'STHeiti', 'Calibri', 'Arial', 'Helvetica Neue', 'Arial Unicode MS', 'Noto Sans CJK SC', 'DejaVu Sans', sans-serif" transform="translate(201.973501 331.064747) rotate(-45)">w12.1</text>
     </g>
    </g>
    <g id="xtick_5">
     <g id="line2d_5">
      <g>
       <use xlink:href="#m78f0cb6cf9" x="253.744137" y="301.370265" style="fill: #808080; stroke: #808080; stroke-width: 0.8"/>
      </g>
     </g>
     <g id="text_5">
      <text style="fill: #808080; font: 9px 'PingFang SC', 'Heiti SC', 'STHeiti', 'Calibri', 'Arial', 'Helvetica Neue', 'Arial Unicode MS', 'Noto Sans CJK SC', 'DejaVu Sans', sans-serif" transform="translate(235.261802 331.064747) rotate(-45)">w11.5</text>
     </g>
    </g>
    <g id="xtick_6">
     <g id="line2d_6">
      <g>
       <use xlink:href="#m78f0cb6cf9" x="287.032438" y="301.370265" style="fill: #808080; stroke: #808080; stroke-width: 0.8"/>
      </g>
     </g>
     <g id="text_6">
      <text style="fill: #808080; font: 9px 'PingFang SC', 'Heiti SC', 'STHeiti', 'Calibri', 'Arial', 'Helvetica Neue', 'Arial Unicode MS', 'Noto Sans CJK SC', 'DejaVu Sans', sans-serif" transform="translate(272.076135 327.538715) rotate(-45)">w8.6</text>
     </g>
    </g>
    <g id="xtick_7">
     <g id="line2d_7">
      <g>
       <use xlink:href="#m78f0cb6cf9" x="320.320739" y="301.370265" style="fill: #808080; stroke: #808080; stroke-width: 0.8"/>
      </g>
     </g>
     <g id="text_7">
      <text style="fill: #808080; font: 9px 'PingFang SC', 'Heiti SC', 'STHeiti', 'Calibri', 'Arial', 'Helvetica Neue', 'Arial Unicode MS', 'Noto Sans CJK SC', 'DejaVu Sans', sans-serif" transform="translate(301.838404 331.064747) rotate(-45)">w12.3</text>
     </g>
    </g>
    <g id="xtick_8">
     <g id="line2d_8">
      <g>
       <use xlink:href="#m78f0cb6cf9" x="353.60904" y="301.370265" style="fill: #808080; stroke: #808080; stroke-width: 0.8"/>
      </g>
     </g>
     <g id="text_8">
      <text style="fill: #808080; font: 9px 'PingFang SC', 'Heiti SC', 'STHeiti', 'Calibri', 'Arial', 'Helvetica Neue', 'Arial Unicode MS', 'Noto Sans CJK SC', 'DejaVu Sans', sans-serif" transform="translate(337.971594 328.219857) rotate(-45)">m0.7</text>
     </g>
    </g>
    <g id="xtick_9">
     <g id="line2d_9">
      <g>
       <use xlink:href="#m78f0cb6cf9" x="386.897341" y="301.370265" style="fill: #808080; stroke: #808080; stroke-width: 0.8"/>
      </g>
     </g>
     <g id="text_9">
      <text style="fill: #808080; font: 9px 'PingFang SC', 'Heiti SC', 'STHeiti', 'Calibri', 'Arial', 'Helvetica Neue', 'Arial Unicode MS', 'Noto Sans CJK SC', 'DejaVu Sans', sans-serif" transform="translate(371.941038 327.538715) rotate(-45)">w4.0</text>
     </g>
    </g>
    <g id="xtick_10">
     <g id="line2d_10">
      <g>
       <use xlink:href="#m78f0cb6cf9" x="420.185642" y="301.370265" style="fill: #808080; stroke: #808080; stroke-width: 0.8"/>
      </g>
     </g>
     <g id="text_10">
      <text style="fill: #808080; font: 9px 'PingFang SC', 'Heiti SC', 'STHeiti', 'Calibri', 'Arial', 'Helvetica Neue', 'Arial Unicode MS', 'Noto Sans CJK SC', 'DejaVu Sans', sans-serif" transform="translate(405.229339 327.538715) rotate(-45)">w3.4</text>
     </g>
    </g>
    <g id="xtick_11">
     <g id="line2d_11">
      <g>
       <use xlink:href="#m78f0cb6cf9" x="453.473943" y="301.370265" style="fill: #808080; stroke: #808080; stroke-width: 0.8"/>
      </g>
     </g>
     <g id="text_11">
      <text style="fill: #808080; font: 9px 'PingFang SC', 'Heiti SC', 'STHeiti', 'Calibri', 'Arial', 'Helvetica Neue', 'Arial Unicode MS', 'Noto Sans CJK SC', 'DejaVu Sans', sans-serif" transform="translate(438.51764 327.538715) rotate(-45)">w3.6</text>
     </g>
    </g>
    <g id="xtick_12">
     <g id="line2d_12">
      <g>
       <use xlink:href="#m78f0cb6cf9" x="486.762244" y="301.370265" style="fill: #808080; stroke: #808080; stroke-width: 0.8"/>
      </g>
     </g>
     <g id="text_12">
      <text style="fill: #808080; font: 9px 'PingFang SC', 'Heiti SC', 'STHeiti', 'Calibri', 'Arial', 'Helvetica Neue', 'Arial Unicode MS', 'Noto Sans CJK SC', 'DejaVu Sans', sans-serif" transform="translate(471.805941 327.538715) rotate(-45)">w9.1</text>
     </g>
    </g>
    <g id="xtick_13">
     <g id="line2d_13">
      <g>
       <use xlink:href="#m78f0cb6cf9" x="520.050545" y="301.370265" style="fill: #808080; stroke: #808080; stroke-width: 0.8"/>
      </g>
     </g>
     <g id="text_13">
      <text style="fill: #808080; font: 9px 'PingFang SC', 'Heiti SC', 'STHeiti', 'Calibri', 'Arial', 'Helvetica Neue', 'Arial Unicode MS', 'Noto Sans CJK SC', 'DejaVu Sans', sans-serif" transform="translate(505.094242 327.538715) rotate(-45)">w2.0</text>
     </g>
    </g>
    <g id="xtick_14">
     <g id="line2d_14">
      <g>
       <use xlink:href="#m78f0cb6cf9" x="553.338846" y="301.370265" style="fill: #808080; stroke: #808080; stroke-width: 0.8"/>
      </g>
     </g>
     <g id="text_14">
      <text style="fill: #808080; font: 9px 'PingFang SC', 'Heiti SC', 'STHeiti', 'Calibri', 'Arial', 'Helvetica Neue', 'Arial Unicode MS', 'Noto Sans CJK SC', 'DejaVu Sans', sans-serif" transform="translate(537.7014 328.219857) rotate(-45)">m0.6</text>
     </g>
    </g>
    <g id="xtick_15">
     <g id="line2d_15">
      <g>
       <use xlink:href="#m78f0cb6cf9" x="586.627147" y="301.370265" style="fill: #808080; stroke: #808080; stroke-width: 0.8"/>
      </g>
     </g>
     <g id="text_15">
      <text style="fill: #808080; font: 9px 'PingFang SC', 'Heiti SC', 'STHeiti', 'Calibri', 'Arial', 'Helvetica Neue', 'Arial Unicode MS', 'Noto Sans CJK SC', 'DejaVu Sans', sans-serif" transform="translate(571.670844 327.538715) rotate(-45)">w4.4</text>
     </g>
    </g>
    <g id="xtick_16">
     <g id="line2d_16">
      <g>
       <use xlink:href="#m78f0cb6cf9" x="619.915448" y="301.370265" style="fill: #808080; stroke: #808080; stroke-width: 0.8"/>
      </g>
     </g>
     <g id="text_16">
      <text style="fill: #808080; font: 9px 'PingFang SC', 'Heiti SC', 'STHeiti', 'Calibri', 'Arial', 'Helvetica Neue', 'Arial Unicode MS', 'Noto Sans CJK SC', 'DejaVu Sans', sans-serif" transform="translate(601.433113 331.064747) rotate(-45)">w13.1</text>
     </g>
    </g>
    <g id="xtick_17">
     <g id="line2d_17">
      <g>
       <use xlink:href="#m78f0cb6cf9" x="653.203749" y="301.370265" style="fill: #808080; stroke: #808080; stroke-width: 0.8"/>
      </g>
     </g>
     <g id="text_17">
      <text style="fill: #808080; font: 9px 'PingFang SC', 'Heiti SC', 'STHeiti', 'Calibri', 'Arial', 'Helvetica Neue', 'Arial Unicode MS', 'Noto Sans CJK SC', 'DejaVu Sans', sans-serif" transform="translate(638.247446 327.538715) rotate(-45)">w4.7</text>
     </g>
    </g>
   </g>
   <g id="matplotlib.axis_2">
    <g id="ytick_1">
     <g id="line2d_18">
      <path d="M 91.261562 301.370265 
L 692.044062 301.370265 
" clip-path="url(#peaa9789cc0)" style="fill: none; stroke-dasharray: 1,1.65; stroke-dashoffset: 0; stroke: #808080; stroke-opacity: 0.55"/>
     </g>
     <g id="line2d_19">
      <defs>
       <path id="me3120b8be2" d="M 0 0 
L -3.5 0 
" style="stroke: #808080; stroke-width: 0.8"/>
      </defs>
      <g>
       <use xlink:href="#me3120b8be2" x="91.261562" y="301.370265" style="fill: #808080; stroke: #808080; stroke-width: 0.8"/>
      </g>
     </g>
     <g id="text_18">
      <text style="fill: #808080; font: 22px 'PingFang SC', 'Heiti SC', 'STHeiti', 'Calibri', 'Arial', 'Helvetica Neue', 'Arial Unicode MS', 'Noto Sans CJK SC', 'DejaVu Sans', sans-serif; text-anchor: end" x="84.261562" y="310.125578" transform="rotate(-0 84.261562 310.125578)">0</text>
     </g>
    </g>
    <g id="ytick_2">
     <g id="line2d_20">
      <path d="M 91.261562 256.388264 
L 692.044062 256.388264 
" clip-path="url(#peaa9789cc0)" style="fill: none; stroke-dasharray: 1,1.65; stroke-dashoffset: 0; stroke: #808080; stroke-opacity: 0.55"/>
     </g>
     <g id="line2d_21">
      <g>
       <use xlink:href="#me3120b8be2" x="91.261562" y="256.388264" style="fill: #808080; stroke: #808080; stroke-width: 0.8"/>
      </g>
     </g>
     <g id="text_19">
      <text style="fill: #808080; font: 22px 'PingFang SC', 'Heiti SC', 'STHeiti', 'Calibri', 'Arial', 'Helvetica Neue', 'Arial Unicode MS', 'Noto Sans CJK SC', 'DejaVu Sans', sans-serif; text-anchor: end" x="84.261562" y="265.143577" transform="rotate(-0 84.261562 265.143577)">250</text>
     </g>
    </g>
    <g id="ytick_3">
     <g id="line2d_22">
      <path d="M 91.261562 211.406264 
L 692.044062 211.406264 
" clip-path="url(#peaa9789cc0)" style="fill: none; stroke-dasharray: 1,1.65; stroke-dashoffset: 0; stroke: #808080; stroke-opacity: 0.55"/>
     </g>
     <g id="line2d_23">
      <g>
       <use xlink:href="#me3120b8be2" x="91.261562" y="211.406264" style="fill: #808080; stroke: #808080; stroke-width: 0.8"/>
      </g>
     </g>
     <g id="text_20">
      <text style="fill: #808080; font: 22px 'PingFang SC', 'Heiti SC', 'STHeiti', 'Calibri', 'Arial', 'Helvetica Neue', 'Arial Unicode MS', 'Noto Sans CJK SC', 'DejaVu Sans', sans-serif; text-anchor: end" x="84.261562" y="220.161576" transform="rotate(-0 84.261562 220.161576)">500</text>
     </g>
    </g>
    <g id="ytick_4">
     <g id="line2d_24">
      <path d="M 91.261562 166.424263 
L 692.044062 166.424263 
" clip-path="url(#peaa9789cc0)" style="fill: none; stroke-dasharray: 1,1.65; stroke-dashoffset: 0; stroke: #808080; stroke-opacity: 0.55"/>
     </g>
     <g id="line2d_25">
      <g>
       <use xlink:href="#me3120b8be2" x="91.261562" y="166.424263" style="fill: #808080; stroke: #808080; stroke-width: 0.8"/>
      </g>
     </g>
     <g id="text_21">
      <text style="fill: #808080; font: 22px 'PingFang SC', 'Heiti SC', 'STHeiti', 'Calibri', 'Arial', 'Helvetica Neue', 'Arial Unicode MS', 'Noto Sans CJK SC', 'DejaVu Sans', sans-serif; text-anchor: end" x="84.261562" y="175.179575" transform="rotate(-0 84.261562 175.179575)">750</text>
     </g>
    </g>
    <g id="ytick_5">
     <g id="line2d_26">
      <path d="M 91.261562 121.442262 
L 692.044062 121.442262 
" clip-path="url(#peaa9789cc0)" style="fill: none; stroke-dasharray: 1,1.65; stroke-dashoffset: 0; stroke: #808080; stroke-opacity: 0.55"/>
     </g>
     <g id="line2d_27">
      <g>
       <use xlink:href="#me3120b8be2" x="91.261562" y="121.442262" style="fill: #808080; stroke: #808080; stroke-width: 0.8"/>
      </g>
     </g>
     <g id="text_22">
      <text style="fill: #808080; font: 22px 'PingFang SC', 'Heiti SC', 'STHeiti', 'Calibri', 'Arial', 'Helvetica Neue', 'Arial Unicode MS', 'Noto Sans CJK SC', 'DejaVu Sans', sans-serif; text-anchor: end" x="84.261562" y="130.197575" transform="rotate(-0 84.261562 130.197575)">1000</text>
     </g>
    </g>
    <g id="ytick_6">
     <g id="line2d_28">
      <path d="M 91.261562 76.460262 
L 692.044062 76.460262 
" clip-path="url(#peaa9789cc0)" style="fill: none; stroke-dasharray: 1,1.65; stroke-dashoffset: 0; stroke: #808080; stroke-opacity: 0.55"/>
     </g>
     <g id="line2d_29">
      <g>
       <use xlink:href="#me3120b8be2" x="91.261562" y="76.460262" style="fill: #808080; stroke: #808080; stroke-width: 0.8"/>
      </g>
     </g>
     <g id="text_23">
      <text style="fill: #808080; font: 22px 'PingFang SC', 'Heiti SC', 'STHeiti', 'Calibri', 'Arial', 'Helvetica Neue', 'Arial Unicode MS', 'Noto Sans CJK SC', 'DejaVu Sans', sans-serif; text-anchor: end" x="84.261562" y="85.215574" transform="rotate(-0 84.261562 85.215574)">1250</text>
     </g>
    </g>
    <g id="text_24">
     <text style="font: 22px 'PingFang SC', 'Heiti SC', 'STHeiti', 'Calibri', 'Arial', 'Helvetica Neue', 'Arial Unicode MS', 'Noto Sans CJK SC', 'DejaVu Sans', sans-serif; text-anchor: middle" x="28.554688" y="168.237476" transform="rotate(-90 28.554688 168.237476)">DMA copy GB/s</text>
    </g>
   </g>
   <g id="patch_3">
    <path d="M 118.569858 301.370265 
L 122.612009 301.370265 
L 122.612009 87.823926 
L 118.569858 87.823926 
z
" clip-path="url(#peaa9789cc0)" style="fill: url(#ha5d271e81d); stroke: #2ca02c; stroke-width: 2; stroke-linejoin: miter"/>
   </g>
   <g id="patch_4">
    <path d="M 123.32533 301.370265 
L 127.36748 301.370265 
L 127.36748 86.791721 
L 123.32533 86.791721 
z
" clip-path="url(#peaa9789cc0)" style="fill: url(#ha5d271e81d); stroke: #2ca02c; stroke-width: 2; stroke-linejoin: miter"/>
   </g>
   <g id="patch_5">
    <path d="M 128.080801 301.370265 
L 132.122952 301.370265 
L 132.122952 86.730691 
L 128.080801 86.730691 
z
" clip-path="url(#peaa9789cc0)" style="fill: url(#ha5d271e81d); stroke: #2ca02c; stroke-width: 2; stroke-linejoin: miter"/>
   </g>
   <g id="patch_6">
    <path d="M 132.836273 301.370265 
L 136.878423 301.370265 
L 136.878423 86.425021 
L 132.836273 86.425021 
z
" clip-path="url(#peaa9789cc0)" style="fill: url(#ha5d271e81d); stroke: #2ca02c; stroke-width: 2; stroke-linejoin: miter"/>
   </g>
   <g id="patch_7">
    <path d="M 137.591744 301.370265 
L 141.633895 301.370265 
L 141.633895 85.502781 
L 137.591744 85.502781 
z
" clip-path="url(#peaa9789cc0)" style="fill: url(#ha5d271e81d); stroke: #2ca02c; stroke-width: 2; stroke-linejoin: miter"/>
   </g>
   <g id="patch_8">
    <path d="M 142.347216 301.370265 
L 146.389367 301.370265 
L 146.389367 85.379215 
L 142.347216 85.379215 
z
" clip-path="url(#peaa9789cc0)" style="fill: url(#ha5d271e81d); stroke: #2ca02c; stroke-width: 2; stroke-linejoin: miter"/>
   </g>
   <g id="patch_9">
    <path d="M 147.102687 301.370265 
L 151.144838 301.370265 
L 151.144838 85.131659 
L 147.102687 85.131659 
z
" clip-path="url(#peaa9789cc0)" style="fill: url(#ha5d271e81d); stroke: #2ca02c; stroke-width: 2; stroke-linejoin: miter"/>
   </g>
   <g id="patch_10">
    <path d="M 151.858159 301.370265 
L 155.90031 301.370265 
L 155.90031 84.945619 
L 151.858159 84.945619 
z
" clip-path="url(#peaa9789cc0)" style="fill: url(#ha5d271e81d); stroke: #2ca02c; stroke-width: 2; stroke-linejoin: miter"/>
   </g>
   <g id="patch_11">
    <path d="M 156.61363 301.370265 
L 160.655781 301.370265 
L 160.655781 84.198248 
L 156.61363 84.198248 
z
" clip-path="url(#peaa9789cc0)" style="fill: url(#ha5d271e81d); stroke: #2ca02c; stroke-width: 2; stroke-linejoin: miter"/>
   </g>
   <g id="patch_12">
    <path d="M 161.369102 301.370265 
L 165.411253 301.370265 
L 165.411253 56.107749 
L 161.369102 56.107749 
z
" clip-path="url(#peaa9789cc0)" style="fill: url(#ha5d271e81d); stroke: #2ca02c; stroke-width: 2; stroke-linejoin: miter"/>
   </g>
   <g id="patch_13">
    <path d="M 166.124574 301.370265 
L 170.166724 301.370265 
L 170.166724 53.692956 
L 166.124574 53.692956 
z
" clip-path="url(#peaa9789cc0)" style="fill: url(#ha5d271e81d); stroke: #2ca02c; stroke-width: 2; stroke-linejoin: miter"/>
   </g>
   <g id="patch_14">
    <path d="M 170.880045 301.370265 
L 174.922196 301.370265 
L 174.922196 53.692956 
L 170.880045 53.692956 
z
" clip-path="url(#peaa9789cc0)" style="fill: url(#ha5d271e81d); stroke: #2ca02c; stroke-width: 2; stroke-linejoin: miter"/>
   </g>
   <g id="patch_15">
    <path d="M 175.635517 301.370265 
L 179.677668 301.370265 
L 179.677668 53.448856 
L 175.635517 53.448856 
z
" clip-path="url(#peaa9789cc0)" style="fill: url(#ha5d271e81d); stroke: #2ca02c; stroke-width: 2; stroke-linejoin: miter"/>
   </g>
   <g id="patch_16">
    <path d="M 180.390988 301.370265 
L 184.433139 301.370265 
L 184.433139 53.204295 
L 180.390988 53.204295 
z
" clip-path="url(#peaa9789cc0)" style="fill: url(#ha5d271e81d); stroke: #2ca02c; stroke-width: 2; stroke-linejoin: miter"/>
   </g>
   <g id="patch_17">
    <path d="M 185.14646 301.370265 
L 189.188611 301.370265 
L 189.188611 53.040973 
L 185.14646 53.040973 
z
" clip-path="url(#peaa9789cc0)" style="fill: url(#ha5d271e81d); stroke: #2ca02c; stroke-width: 2; stroke-linejoin: miter"/>
   </g>
   <g id="patch_18">
    <path d="M 189.901931 301.370265 
L 193.944082 301.370265 
L 193.944082 53.040973 
L 189.901931 53.040973 
z
" clip-path="url(#peaa9789cc0)" style="fill: url(#ha5d271e81d); stroke: #2ca02c; stroke-width: 2; stroke-linejoin: miter"/>
   </g>
   <g id="patch_19">
    <path d="M 194.657403 301.370265 
L 198.699554 301.370265 
L 198.699554 52.959231 
L 194.657403 52.959231 
z
" clip-path="url(#peaa9789cc0)" style="fill: url(#ha5d271e81d); stroke: #2ca02c; stroke-width: 2; stroke-linejoin: miter"/>
   </g>
   <g id="patch_20">
    <path d="M 199.412875 301.370265 
L 203.455025 301.370265 
L 203.455025 52.877436 
L 199.412875 52.877436 
z
" clip-path="url(#peaa9789cc0)" style="fill: url(#ha5d271e81d); stroke: #2ca02c; stroke-width: 2; stroke-linejoin: miter"/>
   </g>
   <g id="patch_21">
    <path d="M 204.168346 301.370265 
L 208.210497 301.370265 
L 208.210497 52.795586 
L 204.168346 52.795586 
z
" clip-path="url(#peaa9789cc0)" style="fill: url(#ha5d271e81d); stroke: #2ca02c; stroke-width: 2; stroke-linejoin: miter"/>
   </g>
   <g id="patch_22">
    <path d="M 208.923818 301.370265 
L 212.965968 301.370265 
L 212.965968 52.713683 
L 208.923818 52.713683 
z
" clip-path="url(#peaa9789cc0)" style="fill: url(#ha5d271e81d); stroke: #2ca02c; stroke-width: 2; stroke-linejoin: miter"/>
   </g>
   <g id="patch_23">
    <path d="M 213.679289 301.370265 
L 217.72144 301.370265 
L 217.72144 52.631726 
L 213.679289 52.631726 
z
" clip-path="url(#peaa9789cc0)" style="fill: url(#ha5d271e81d); stroke: #2ca02c; stroke-width: 2; stroke-linejoin: miter"/>
   </g>
   <g id="patch_24">
    <path d="M 218.434761 301.370265 
L 222.476912 301.370265 
L 222.476912 52.549714 
L 218.434761 52.549714 
z
" clip-path="url(#peaa9789cc0)" style="fill: url(#ha5d271e81d); stroke: #2ca02c; stroke-width: 2; stroke-linejoin: miter"/>
   </g>
   <g id="patch_25">
    <path d="M 223.190232 301.370265 
L 227.232383 301.370265 
L 227.232383 52.549714 
L 223.190232 52.549714 
z
" clip-path="url(#peaa9789cc0)" style="fill: url(#ha5d271e81d); stroke: #2ca02c; stroke-width: 2; stroke-linejoin: miter"/>
   </g>
   <g id="patch_26">
    <path d="M 227.945704 301.370265 
L 231.987855 301.370265 
L 231.987855 52.385529 
L 227.945704 52.385529 
z
" clip-path="url(#peaa9789cc0)" style="fill: url(#ha5d271e81d); stroke: #2ca02c; stroke-width: 2; stroke-linejoin: miter"/>
   </g>
   <g id="patch_27">
    <path d="M 232.701175 301.370265 
L 236.743326 301.370265 
L 236.743326 52.385529 
L 232.701175 52.385529 
z
" clip-path="url(#peaa9789cc0)" style="fill: url(#ha5d271e81d); stroke: #2ca02c; stroke-width: 2; stroke-linejoin: miter"/>
   </g>
   <g id="patch_28">
    <path d="M 237.456647 301.370265 
L 241.498798 301.370265 
L 241.498798 52.303355 
L 237.456647 52.303355 
z
" clip-path="url(#peaa9789cc0)" style="fill: url(#ha5d271e81d); stroke: #2ca02c; stroke-width: 2; stroke-linejoin: miter"/>
   </g>
   <g id="patch_29">
    <path d="M 242.212119 301.370265 
L 246.254269 301.370265 
L 246.254269 52.303355 
L 242.212119 52.303355 
z
" clip-path="url(#peaa9789cc0)" style="fill: url(#ha5d271e81d); stroke: #2ca02c; stroke-width: 2; stroke-linejoin: miter"/>
   </g>
   <g id="patch_30">
    <path d="M 246.96759 301.370265 
L 251.009741 301.370265 
L 251.009741 52.303355 
L 246.96759 52.303355 
z
" clip-path="url(#peaa9789cc0)" style="fill: url(#ha5d271e81d); stroke: #2ca02c; stroke-width: 2; stroke-linejoin: miter"/>
   </g>
   <g id="patch_31">
    <path d="M 251.723062 301.370265 
L 255.765213 301.370265 
L 255.765213 52.221127 
L 251.723062 52.221127 
z
" clip-path="url(#peaa9789cc0)" style="fill: url(#ha5d271e81d); stroke: #2ca02c; stroke-width: 2; stroke-linejoin: miter"/>
   </g>
   <g id="patch_32">
    <path d="M 256.478533 301.370265 
L 260.520684 301.370265 
L 260.520684 52.221127 
L 256.478533 52.221127 
z
" clip-path="url(#peaa9789cc0)" style="fill: url(#ha5d271e81d); stroke: #2ca02c; stroke-width: 2; stroke-linejoin: miter"/>
   </g>
   <g id="patch_33">
    <path d="M 261.234005 301.370265 
L 265.276156 301.370265 
L 265.276156 52.221127 
L 261.234005 52.221127 
z
" clip-path="url(#peaa9789cc0)" style="fill: url(#ha5d271e81d); stroke: #2ca02c; stroke-width: 2; stroke-linejoin: miter"/>
   </g>
   <g id="patch_34">
    <path d="M 265.989476 301.370265 
L 270.031627 301.370265 
L 270.031627 52.221127 
L 265.989476 52.221127 
z
" clip-path="url(#peaa9789cc0)" style="fill: url(#ha5d271e81d); stroke: #2ca02c; stroke-width: 2; stroke-linejoin: miter"/>
   </g>
   <g id="patch_35">
    <path d="M 270.744948 301.370265 
L 274.787099 301.370265 
L 274.787099 52.138845 
L 270.744948 52.138845 
z
" clip-path="url(#peaa9789cc0)" style="fill: url(#ha5d271e81d); stroke: #2ca02c; stroke-width: 2; stroke-linejoin: miter"/>
   </g>
   <g id="patch_36">
    <path d="M 275.50042 301.370265 
L 279.54257 301.370265 
L 279.54257 52.138845 
L 275.50042 52.138845 
z
" clip-path="url(#peaa9789cc0)" style="fill: url(#ha5d271e81d); stroke: #2ca02c; stroke-width: 2; stroke-linejoin: miter"/>
   </g>
   <g id="patch_37">
    <path d="M 280.255891 301.370265 
L 284.298042 301.370265 
L 284.298042 52.138845 
L 280.255891 52.138845 
z
" clip-path="url(#peaa9789cc0)" style="fill: url(#ha5d271e81d); stroke: #2ca02c; stroke-width: 2; stroke-linejoin: miter"/>
   </g>
   <g id="patch_38">
    <path d="M 285.011363 301.370265 
L 289.053514 301.370265 
L 289.053514 52.138845 
L 285.011363 52.138845 
z
" clip-path="url(#peaa9789cc0)" style="fill: url(#ha5d271e81d); stroke: #2ca02c; stroke-width: 2; stroke-linejoin: miter"/>
   </g>
   <g id="patch_39">
    <path d="M 289.766834 301.370265 
L 293.808985 301.370265 
L 293.808985 52.056508 
L 289.766834 52.056508 
z
" clip-path="url(#peaa9789cc0)" style="fill: url(#ha5d271e81d); stroke: #2ca02c; stroke-width: 2; stroke-linejoin: miter"/>
   </g>
   <g id="patch_40">
    <path d="M 294.522306 301.370265 
L 298.564457 301.370265 
L 298.564457 52.056508 
L 294.522306 52.056508 
z
" clip-path="url(#peaa9789cc0)" style="fill: url(#ha5d271e81d); stroke: #2ca02c; stroke-width: 2; stroke-linejoin: miter"/>
   </g>
   <g id="patch_41">
    <path d="M 299.277777 301.370265 
L 303.319928 301.370265 
L 303.319928 52.056508 
L 299.277777 52.056508 
z
" clip-path="url(#peaa9789cc0)" style="fill: url(#ha5d271e81d); stroke: #2ca02c; stroke-width: 2; stroke-linejoin: miter"/>
   </g>
   <g id="patch_42">
    <path d="M 304.033249 301.370265 
L 308.0754 301.370265 
L 308.0754 52.056508 
L 304.033249 52.056508 
z
" clip-path="url(#peaa9789cc0)" style="fill: url(#ha5d271e81d); stroke: #2ca02c; stroke-width: 2; stroke-linejoin: miter"/>
   </g>
   <g id="patch_43">
    <path d="M 308.788721 301.370265 
L 312.830871 301.370265 
L 312.830871 51.974117 
L 308.788721 51.974117 
z
" clip-path="url(#peaa9789cc0)" style="fill: url(#ha5d271e81d); stroke: #2ca02c; stroke-width: 2; stroke-linejoin: miter"/>
   </g>
   <g id="patch_44">
    <path d="M 313.544192 301.370265 
L 317.586343 301.370265 
L 317.586343 51.891671 
L 313.544192 51.891671 
z
" clip-path="url(#peaa9789cc0)" style="fill: url(#ha5d271e81d); stroke: #2ca02c; stroke-width: 2; stroke-linejoin: miter"/>
   </g>
   <g id="patch_45">
    <path d="M 318.299664 301.370265 
L 322.341814 301.370265 
L 322.341814 51.891671 
L 318.299664 51.891671 
z
" clip-path="url(#peaa9789cc0)" style="fill: url(#ha5d271e81d); stroke: #2ca02c; stroke-width: 2; stroke-linejoin: miter"/>
   </g>
   <g id="patch_46">
    <path d="M 323.055135 301.370265 
L 327.097286 301.370265 
L 327.097286 51.891671 
L 323.055135 51.891671 
z
" clip-path="url(#peaa9789cc0)" style="fill: url(#ha5d271e81d); stroke: #2ca02c; stroke-width: 2; stroke-linejoin: miter"/>
   </g>
   <g id="patch_47">
    <path d="M 327.810607 301.370265 
L 331.852758 301.370265 
L 331.852758 51.891671 
L 327.810607 51.891671 
z
" clip-path="url(#peaa9789cc0)" style="fill: url(#ha5d271e81d); stroke: #2ca02c; stroke-width: 2; stroke-linejoin: miter"/>
   </g>
   <g id="patch_48">
    <path d="M 332.566078 301.370265 
L 336.608229 301.370265 
L 336.608229 51.809171 
L 332.566078 51.809171 
z
" clip-path="url(#peaa9789cc0)" style="fill: url(#ha5d271e81d); stroke: #2ca02c; stroke-width: 2; stroke-linejoin: miter"/>
   </g>
   <g id="patch_49">
    <path d="M 337.32155 301.370265 
L 341.363701 301.370265 
L 341.363701 51.809171 
L 337.32155 51.809171 
z
" clip-path="url(#peaa9789cc0)" style="fill: url(#ha5d271e81d); stroke: #2ca02c; stroke-width: 2; stroke-linejoin: miter"/>
   </g>
   <g id="patch_50">
    <path d="M 342.077021 301.370265 
L 346.119172 301.370265 
L 346.119172 51.809171 
L 342.077021 51.809171 
z
" clip-path="url(#peaa9789cc0)" style="fill: url(#ha5d271e81d); stroke: #2ca02c; stroke-width: 2; stroke-linejoin: miter"/>
   </g>
   <g id="patch_51">
    <path d="M 346.832493 301.370265 
L 350.874644 301.370265 
L 350.874644 51.809171 
L 346.832493 51.809171 
z
" clip-path="url(#peaa9789cc0)" style="fill: url(#ha5d271e81d); stroke: #2ca02c; stroke-width: 2; stroke-linejoin: miter"/>
   </g>
   <g id="patch_52">
    <path d="M 351.587965 301.370265 
L 355.630115 301.370265 
L 355.630115 51.726616 
L 351.587965 51.726616 
z
" clip-path="url(#peaa9789cc0)" style="fill: url(#ha5d271e81d); stroke: #2ca02c; stroke-width: 2; stroke-linejoin: miter"/>
   </g>
   <g id="patch_53">
    <path d="M 356.343436 301.370265 
L 360.385587 301.370265 
L 360.385587 51.726616 
L 356.343436 51.726616 
z
" clip-path="url(#peaa9789cc0)" style="fill: url(#ha5d271e81d); stroke: #2ca02c; stroke-width: 2; stroke-linejoin: miter"/>
   </g>
   <g id="patch_54">
    <path d="M 361.098908 301.370265 
L 365.141059 301.370265 
L 365.141059 51.726616 
L 361.098908 51.726616 
z
" clip-path="url(#peaa9789cc0)" style="fill: url(#ha5d271e81d); stroke: #2ca02c; stroke-width: 2; stroke-linejoin: miter"/>
   </g>
   <g id="patch_55">
    <path d="M 365.854379 301.370265 
L 369.89653 301.370265 
L 369.89653 51.726616 
L 365.854379 51.726616 
z
" clip-path="url(#peaa9789cc0)" style="fill: url(#ha5d271e81d); stroke: #2ca02c; stroke-width: 2; stroke-linejoin: miter"/>
   </g>
   <g id="patch_56">
    <path d="M 370.609851 301.370265 
L 374.652002 301.370265 
L 374.652002 51.726616 
L 370.609851 51.726616 
z
" clip-path="url(#peaa9789cc0)" style="fill: url(#ha5d271e81d); stroke: #2ca02c; stroke-width: 2; stroke-linejoin: miter"/>
   </g>
   <g id="patch_57">
    <path d="M 375.365322 301.370265 
L 379.407473 301.370265 
L 379.407473 51.644007 
L 375.365322 51.644007 
z
" clip-path="url(#peaa9789cc0)" style="fill: url(#hf868d61813); stroke: #ff7f0e; stroke-width: 2; stroke-linejoin: miter"/>
   </g>
   <g id="patch_58">
    <path d="M 380.120794 301.370265 
L 384.162945 301.370265 
L 384.162945 51.644007 
L 380.120794 51.644007 
z
" clip-path="url(#peaa9789cc0)" style="fill: url(#hf868d61813); stroke: #ff7f0e; stroke-width: 2; stroke-linejoin: miter"/>
   </g>
   <g id="patch_59">
    <path d="M 384.876266 301.370265 
L 388.918416 301.370265 
L 388.918416 51.644007 
L 384.876266 51.644007 
z
" clip-path="url(#peaa9789cc0)" style="fill: url(#hf868d61813); stroke: #ff7f0e; stroke-width: 2; stroke-linejoin: miter"/>
   </g>
   <g id="patch_60">
    <path d="M 389.631737 301.370265 
L 393.673888 301.370265 
L 393.673888 51.644007 
L 389.631737 51.644007 
z
" clip-path="url(#peaa9789cc0)" style="fill: url(#hf868d61813); stroke: #ff7f0e; stroke-width: 2; stroke-linejoin: miter"/>
   </g>
   <g id="patch_61">
    <path d="M 394.387209 301.370265 
L 398.429359 301.370265 
L 398.429359 51.644007 
L 394.387209 51.644007 
z
" clip-path="url(#peaa9789cc0)" style="fill: url(#hf868d61813); stroke: #ff7f0e; stroke-width: 2; stroke-linejoin: miter"/>
   </g>
   <g id="patch_62">
    <path d="M 399.14268 301.370265 
L 403.184831 301.370265 
L 403.184831 51.561343 
L 399.14268 51.561343 
z
" clip-path="url(#peaa9789cc0)" style="fill: url(#hf868d61813); stroke: #ff7f0e; stroke-width: 2; stroke-linejoin: miter"/>
   </g>
   <g id="patch_63">
    <path d="M 403.898152 301.370265 
L 407.940303 301.370265 
L 407.940303 51.561343 
L 403.898152 51.561343 
z
" clip-path="url(#peaa9789cc0)" style="fill: url(#hf868d61813); stroke: #ff7f0e; stroke-width: 2; stroke-linejoin: miter"/>
   </g>
   <g id="patch_64">
    <path d="M 408.653623 301.370265 
L 412.695774 301.370265 
L 412.695774 51.561343 
L 408.653623 51.561343 
z
" clip-path="url(#peaa9789cc0)" style="fill: url(#hf868d61813); stroke: #ff7f0e; stroke-width: 2; stroke-linejoin: miter"/>
   </g>
   <g id="patch_65">
    <path d="M 413.409095 301.370265 
L 417.451246 301.370265 
L 417.451246 51.561343 
L 413.409095 51.561343 
z
" clip-path="url(#peaa9789cc0)" style="fill: url(#hf868d61813); stroke: #ff7f0e; stroke-width: 2; stroke-linejoin: miter"/>
   </g>
   <g id="patch_66">
    <path d="M 418.164566 301.370265 
L 422.206717 301.370265 
L 422.206717 51.561343 
L 418.164566 51.561343 
z
" clip-path="url(#peaa9789cc0)" style="fill: url(#hf868d61813); stroke: #ff7f0e; stroke-width: 2; stroke-linejoin: miter"/>
   </g>
   <g id="patch_67">
    <path d="M 422.920038 301.370265 
L 426.962189 301.370265 
L 426.962189 51.478624 
L 422.920038 51.478624 
z
" clip-path="url(#peaa9789cc0)" style="fill: url(#hf868d61813); stroke: #ff7f0e; stroke-width: 2; stroke-linejoin: miter"/>
   </g>
   <g id="patch_68">
    <path d="M 427.67551 301.370265 
L 431.71766 301.370265 
L 431.71766 51.478624 
L 427.67551 51.478624 
z
" clip-path="url(#peaa9789cc0)" style="fill: url(#hf868d61813); stroke: #ff7f0e; stroke-width: 2; stroke-linejoin: miter"/>
   </g>
   <g id="patch_69">
    <path d="M 432.430981 301.370265 
L 436.473132 301.370265 
L 436.473132 51.395851 
L 432.430981 51.395851 
z
" clip-path="url(#peaa9789cc0)" style="fill: url(#hf868d61813); stroke: #ff7f0e; stroke-width: 2; stroke-linejoin: miter"/>
   </g>
   <g id="patch_70">
    <path d="M 437.186453 301.370265 
L 441.228604 301.370265 
L 441.228604 51.395851 
L 437.186453 51.395851 
z
" clip-path="url(#peaa9789cc0)" style="fill: url(#hf868d61813); stroke: #ff7f0e; stroke-width: 2; stroke-linejoin: miter"/>
   </g>
   <g id="patch_71">
    <path d="M 441.941924 301.370265 
L 445.984075 301.370265 
L 445.984075 51.395851 
L 441.941924 51.395851 
z
" clip-path="url(#peaa9789cc0)" style="fill: url(#hf868d61813); stroke: #ff7f0e; stroke-width: 2; stroke-linejoin: miter"/>
   </g>
   <g id="patch_72">
    <path d="M 446.697396 301.370265 
L 450.739547 301.370265 
L 450.739547 51.395851 
L 446.697396 51.395851 
z
" clip-path="url(#peaa9789cc0)" style="fill: url(#hf868d61813); stroke: #ff7f0e; stroke-width: 2; stroke-linejoin: miter"/>
   </g>
   <g id="patch_73">
    <path d="M 451.452867 301.370265 
L 455.495018 301.370265 
L 455.495018 51.395851 
L 451.452867 51.395851 
z
" clip-path="url(#peaa9789cc0)" style="fill: url(#hf868d61813); stroke: #ff7f0e; stroke-width: 2; stroke-linejoin: miter"/>
   </g>
   <g id="patch_74">
    <path d="M 456.208339 301.370265 
L 460.25049 301.370265 
L 460.25049 51.313022 
L 456.208339 51.313022 
z
" clip-path="url(#peaa9789cc0)" style="fill: url(#hf868d61813); stroke: #ff7f0e; stroke-width: 2; stroke-linejoin: miter"/>
   </g>
   <g id="patch_75">
    <path d="M 460.963811 301.370265 
L 465.005961 301.370265 
L 465.005961 51.313022 
L 460.963811 51.313022 
z
" clip-path="url(#peaa9789cc0)" style="fill: url(#hf868d61813); stroke: #ff7f0e; stroke-width: 2; stroke-linejoin: miter"/>
   </g>
   <g id="patch_76">
    <path d="M 465.719282 301.370265 
L 469.761433 301.370265 
L 469.761433 51.313022 
L 465.719282 51.313022 
z
" clip-path="url(#peaa9789cc0)" style="fill: url(#hf868d61813); stroke: #ff7f0e; stroke-width: 2; stroke-linejoin: miter"/>
   </g>
   <g id="patch_77">
    <path d="M 470.474754 301.370265 
L 474.516904 301.370265 
L 474.516904 51.313022 
L 470.474754 51.313022 
z
" clip-path="url(#peaa9789cc0)" style="fill: url(#hf868d61813); stroke: #ff7f0e; stroke-width: 2; stroke-linejoin: miter"/>
   </g>
   <g id="patch_78">
    <path d="M 475.230225 301.370265 
L 479.272376 301.370265 
L 479.272376 51.230139 
L 475.230225 51.230139 
z
" clip-path="url(#peaa9789cc0)" style="fill: url(#hf868d61813); stroke: #ff7f0e; stroke-width: 2; stroke-linejoin: miter"/>
   </g>
   <g id="patch_79">
    <path d="M 479.985697 301.370265 
L 484.027848 301.370265 
L 484.027848 51.230139 
L 479.985697 51.230139 
z
" clip-path="url(#peaa9789cc0)" style="fill: url(#hf868d61813); stroke: #ff7f0e; stroke-width: 2; stroke-linejoin: miter"/>
   </g>
   <g id="patch_80">
    <path d="M 484.741168 301.370265 
L 488.783319 301.370265 
L 488.783319 51.230139 
L 484.741168 51.230139 
z
" clip-path="url(#peaa9789cc0)" style="fill: url(#hf868d61813); stroke: #ff7f0e; stroke-width: 2; stroke-linejoin: miter"/>
   </g>
   <g id="patch_81">
    <path d="M 489.49664 301.370265 
L 493.538791 301.370265 
L 493.538791 51.1472 
L 489.49664 51.1472 
z
" clip-path="url(#peaa9789cc0)" style="fill: url(#hf868d61813); stroke: #ff7f0e; stroke-width: 2; stroke-linejoin: miter"/>
   </g>
   <g id="patch_82">
    <path d="M 494.252111 301.370265 
L 498.294262 301.370265 
L 498.294262 51.1472 
L 494.252111 51.1472 
z
" clip-path="url(#peaa9789cc0)" style="fill: url(#hf868d61813); stroke: #ff7f0e; stroke-width: 2; stroke-linejoin: miter"/>
   </g>
   <g id="patch_83">
    <path d="M 499.007583 301.370265 
L 503.049734 301.370265 
L 503.049734 51.1472 
L 499.007583 51.1472 
z
" clip-path="url(#peaa9789cc0)" style="fill: url(#hf868d61813); stroke: #ff7f0e; stroke-width: 2; stroke-linejoin: miter"/>
   </g>
   <g id="patch_84">
    <path d="M 503.763055 301.370265 
L 507.805205 301.370265 
L 507.805205 51.1472 
L 503.763055 51.1472 
z
" clip-path="url(#peaa9789cc0)" style="fill: url(#hf868d61813); stroke: #ff7f0e; stroke-width: 2; stroke-linejoin: miter"/>
   </g>
   <g id="patch_85">
    <path d="M 508.518526 301.370265 
L 512.560677 301.370265 
L 512.560677 51.1472 
L 508.518526 51.1472 
z
" clip-path="url(#peaa9789cc0)" style="fill: url(#hf868d61813); stroke: #ff7f0e; stroke-width: 2; stroke-linejoin: miter"/>
   </g>
   <g id="patch_86">
    <path d="M 513.273998 301.370265 
L 517.316149 301.370265 
L 517.316149 51.064207 
L 513.273998 51.064207 
z
" clip-path="url(#peaa9789cc0)" style="fill: url(#hf868d61813); stroke: #ff7f0e; stroke-width: 2; stroke-linejoin: miter"/>
   </g>
   <g id="patch_87">
    <path d="M 518.029469 301.370265 
L 522.07162 301.370265 
L 522.07162 51.064207 
L 518.029469 51.064207 
z
" clip-path="url(#peaa9789cc0)" style="fill: url(#hf868d61813); stroke: #ff7f0e; stroke-width: 2; stroke-linejoin: miter"/>
   </g>
   <g id="patch_88">
    <path d="M 522.784941 301.370265 
L 526.827092 301.370265 
L 526.827092 50.981159 
L 522.784941 50.981159 
z
" clip-path="url(#peaa9789cc0)" style="fill: url(#hf868d61813); stroke: #ff7f0e; stroke-width: 2; stroke-linejoin: miter"/>
   </g>
   <g id="patch_89">
    <path d="M 527.540412 301.370265 
L 531.582563 301.370265 
L 531.582563 50.981159 
L 527.540412 50.981159 
z
" clip-path="url(#peaa9789cc0)" style="fill: url(#hf868d61813); stroke: #ff7f0e; stroke-width: 2; stroke-linejoin: miter"/>
   </g>
   <g id="patch_90">
    <path d="M 532.295884 301.370265 
L 536.338035 301.370265 
L 536.338035 50.898055 
L 532.295884 50.898055 
z
" clip-path="url(#peaa9789cc0)" style="fill: url(#hf868d61813); stroke: #ff7f0e; stroke-width: 2; stroke-linejoin: miter"/>
   </g>
   <g id="patch_91">
    <path d="M 537.051356 301.370265 
L 541.093506 301.370265 
L 541.093506 50.814896 
L 537.051356 50.814896 
z
" clip-path="url(#peaa9789cc0)" style="fill: url(#hf868d61813); stroke: #ff7f0e; stroke-width: 2; stroke-linejoin: miter"/>
   </g>
   <g id="patch_92">
    <path d="M 541.806827 301.370265 
L 545.848978 301.370265 
L 545.848978 50.731702 
L 541.806827 50.731702 
z
" clip-path="url(#peaa9789cc0)" style="fill: url(#hf868d61813); stroke: #ff7f0e; stroke-width: 2; stroke-linejoin: miter"/>
   </g>
   <g id="patch_93">
    <path d="M 546.562299 301.370265 
L 550.60445 301.370265 
L 550.60445 50.731702 
L 546.562299 50.731702 
z
" clip-path="url(#peaa9789cc0)" style="fill: url(#hf868d61813); stroke: #ff7f0e; stroke-width: 2; stroke-linejoin: miter"/>
   </g>
   <g id="patch_94">
    <path d="M 551.31777 301.370265 
L 555.359921 301.370265 
L 555.359921 50.648432 
L 551.31777 50.648432 
z
" clip-path="url(#peaa9789cc0)" style="fill: url(#hf868d61813); stroke: #ff7f0e; stroke-width: 2; stroke-linejoin: miter"/>
   </g>
   <g id="patch_95">
    <path d="M 556.073242 301.370265 
L 560.115393 301.370265 
L 560.115393 50.648432 
L 556.073242 50.648432 
z
" clip-path="url(#peaa9789cc0)" style="fill: url(#hf868d61813); stroke: #ff7f0e; stroke-width: 2; stroke-linejoin: miter"/>
   </g>
   <g id="patch_96">
    <path d="M 560.828713 301.370265 
L 564.870864 301.370265 
L 564.870864 50.648432 
L 560.828713 50.648432 
z
" clip-path="url(#peaa9789cc0)" style="fill: url(#hf868d61813); stroke: #ff7f0e; stroke-width: 2; stroke-linejoin: miter"/>
   </g>
   <g id="patch_97">
    <path d="M 565.584185 301.370265 
L 569.626336 301.370265 
L 569.626336 50.565108 
L 565.584185 50.565108 
z
" clip-path="url(#peaa9789cc0)" style="fill: url(#hf868d61813); stroke: #ff7f0e; stroke-width: 2; stroke-linejoin: miter"/>
   </g>
   <g id="patch_98">
    <path d="M 570.339657 301.370265 
L 574.381807 301.370265 
L 574.381807 50.565108 
L 570.339657 50.565108 
z
" clip-path="url(#peaa9789cc0)" style="fill: url(#hf868d61813); stroke: #ff7f0e; stroke-width: 2; stroke-linejoin: miter"/>
   </g>
   <g id="patch_99">
    <path d="M 575.095128 301.370265 
L 579.137279 301.370265 
L 579.137279 50.398292 
L 575.095128 50.398292 
z
" clip-path="url(#peaa9789cc0)" style="fill: url(#hf868d61813); stroke: #ff7f0e; stroke-width: 2; stroke-linejoin: miter"/>
   </g>
   <g id="patch_100">
    <path d="M 579.8506 301.370265 
L 583.89275 301.370265 
L 583.89275 50.147653 
L 579.8506 50.147653 
z
" clip-path="url(#peaa9789cc0)" style="fill: url(#hf868d61813); stroke: #ff7f0e; stroke-width: 2; stroke-linejoin: miter"/>
   </g>
   <g id="patch_101">
    <path d="M 584.606071 301.370265 
L 588.648222 301.370265 
L 588.648222 50.063995 
L 584.606071 50.063995 
z
" clip-path="url(#peaa9789cc0)" style="fill: url(#hf868d61813); stroke: #ff7f0e; stroke-width: 2; stroke-linejoin: miter"/>
   </g>
   <g id="patch_102">
    <path d="M 589.361543 301.370265 
L 593.403694 301.370265 
L 593.403694 49.980281 
L 589.361543 49.980281 
z
" clip-path="url(#peaa9789cc0)" style="fill: url(#hf868d61813); stroke: #ff7f0e; stroke-width: 2; stroke-linejoin: miter"/>
   </g>
   <g id="patch_103">
    <path d="M 594.117014 301.370265 
L 598.159165 301.370265 
L 598.159165 49.980281 
L 594.117014 49.980281 
z
" clip-path="url(#peaa9789cc0)" style="fill: url(#hf868d61813); stroke: #ff7f0e; stroke-width: 2; stroke-linejoin: miter"/>
   </g>
   <g id="patch_104">
    <path d="M 598.872486 301.370265 
L 602.914637 301.370265 
L 602.914637 49.896512 
L 598.872486 49.896512 
z
" clip-path="url(#peaa9789cc0)" style="fill: url(#hf868d61813); stroke: #ff7f0e; stroke-width: 2; stroke-linejoin: miter"/>
   </g>
   <g id="patch_105">
    <path d="M 603.627957 301.370265 
L 607.670108 301.370265 
L 607.670108 49.896512 
L 603.627957 49.896512 
z
" clip-path="url(#peaa9789cc0)" style="fill: url(#hf868d61813); stroke: #ff7f0e; stroke-width: 2; stroke-linejoin: miter"/>
   </g>
   <g id="patch_106">
    <path d="M 608.383429 301.370265 
L 612.42558 301.370265 
L 612.42558 49.896512 
L 608.383429 49.896512 
z
" clip-path="url(#peaa9789cc0)" style="fill: url(#hf868d61813); stroke: #ff7f0e; stroke-width: 2; stroke-linejoin: miter"/>
   </g>
   <g id="patch_107">
    <path d="M 613.138901 301.370265 
L 617.181051 301.370265 
L 617.181051 49.896512 
L 613.138901 49.896512 
z
" clip-path="url(#peaa9789cc0)" style="fill: url(#hf868d61813); stroke: #ff7f0e; stroke-width: 2; stroke-linejoin: miter"/>
   </g>
   <g id="patch_108">
    <path d="M 617.894372 301.370265 
L 621.936523 301.370265 
L 621.936523 49.644868 
L 617.894372 49.644868 
z
" clip-path="url(#peaa9789cc0)" style="fill: url(#hf868d61813); stroke: #ff7f0e; stroke-width: 2; stroke-linejoin: miter"/>
   </g>
   <g id="patch_109">
    <path d="M 622.649844 301.370265 
L 626.691995 301.370265 
L 626.691995 49.392721 
L 622.649844 49.392721 
z
" clip-path="url(#peaa9789cc0)" style="fill: url(#hf868d61813); stroke: #ff7f0e; stroke-width: 2; stroke-linejoin: miter"/>
   </g>
   <g id="patch_110">
    <path d="M 627.405315 301.370265 
L 631.447466 301.370265 
L 631.447466 49.308559 
L 627.405315 49.308559 
z
" clip-path="url(#peaa9789cc0)" style="fill: url(#hf868d61813); stroke: #ff7f0e; stroke-width: 2; stroke-linejoin: miter"/>
   </g>
   <g id="patch_111">
    <path d="M 632.160787 301.370265 
L 636.202938 301.370265 
L 636.202938 49.140068 
L 632.160787 49.140068 
z
" clip-path="url(#peaa9789cc0)" style="fill: url(#hf868d61813); stroke: #ff7f0e; stroke-width: 2; stroke-linejoin: miter"/>
   </g>
   <g id="patch_112">
    <path d="M 636.916258 301.370265 
L 640.958409 301.370265 
L 640.958409 49.140068 
L 636.916258 49.140068 
z
" clip-path="url(#peaa9789cc0)" style="fill: url(#hf868d61813); stroke: #ff7f0e; stroke-width: 2; stroke-linejoin: miter"/>
   </g>
   <g id="patch_113">
    <path d="M 641.67173 301.370265 
L 645.713881 301.370265 
L 645.713881 49.140068 
L 641.67173 49.140068 
z
" clip-path="url(#peaa9789cc0)" style="fill: url(#hf868d61813); stroke: #ff7f0e; stroke-width: 2; stroke-linejoin: miter"/>
   </g>
   <g id="patch_114">
    <path d="M 646.427202 301.370265 
L 650.469352 301.370265 
L 650.469352 48.97135 
L 646.427202 48.97135 
z
" clip-path="url(#peaa9789cc0)" style="fill: url(#hf868d61813); stroke: #ff7f0e; stroke-width: 2; stroke-linejoin: miter"/>
   </g>
   <g id="patch_115">
    <path d="M 651.182673 301.370265 
L 655.224824 301.370265 
L 655.224824 48.886907 
L 651.182673 48.886907 
z
" clip-path="url(#peaa9789cc0)" style="fill: url(#hf868d61813); stroke: #ff7f0e; stroke-width: 2; stroke-linejoin: miter"/>
   </g>
   <g id="patch_116">
    <path d="M 655.938145 301.370265 
L 659.980295 301.370265 
L 659.980295 48.717851 
L 655.938145 48.717851 
z
" clip-path="url(#peaa9789cc0)" style="fill: url(#hf868d61813); stroke: #ff7f0e; stroke-width: 2; stroke-linejoin: miter"/>
   </g>
   <g id="patch_117">
    <path d="M 660.693616 301.370265 
L 664.735767 301.370265 
L 664.735767 47.784001 
L 660.693616 47.784001 
z
" clip-path="url(#peaa9789cc0)" style="fill: url(#hf868d61813); stroke: #ff7f0e; stroke-width: 2; stroke-linejoin: miter"/>
   </g>
   <g id="line2d_30">
    <path d="M 91.261562 51.644007 
L 692.044062 51.644007 
" clip-path="url(#peaa9789cc0)" style="fill: none; stroke-dasharray: 4.44,1.92; stroke-dashoffset: 0; stroke: #f58518; stroke-width: 1.2"/>
   </g>
   <g id="patch_118">
    <path d="M 91.261562 301.370265 
L 91.261562 35.104688 
" style="fill: none; stroke: #808080; stroke-width: 0.8; stroke-linejoin: miter; stroke-linecap: square"/>
   </g>
   <g id="patch_119">
    <path d="M 91.261562 301.370265 
L 692.044062 301.370265 
" style="fill: none; stroke: #808080; stroke-width: 0.8; stroke-linejoin: miter; stroke-linecap: square"/>
   </g>
   <g id="text_25">
    <text style="font: 22px 'PingFang SC', 'Heiti SC', 'STHeiti', 'Calibri', 'Arial', 'Helvetica Neue', 'Arial Unicode MS', 'Noto Sans CJK SC', 'DejaVu Sans', sans-serif; text-anchor: middle" x="391.652812" y="29.104688" transform="rotate(-0 391.652812 29.104688)">排序条形 · DMA copy GB/s</text>
   </g>
   <g id="legend_1">
    <g id="patch_120">
     <path d="M 99.661563 61.864688 
L 217.119062 61.864688 
Q 219.519062 61.864688 219.519062 59.464688 
L 219.519062 43.504687 
Q 219.519062 41.104688 217.119062 41.104688 
L 99.661563 41.104688 
Q 97.261562 41.104688 97.261562 43.504687 
L 97.261562 59.464688 
Q 97.261562 61.864688 99.661563 61.864688 
z
" style="fill: #ffffff; opacity: 0.5; stroke: #cccccc; stroke-linejoin: miter"/>
    </g>
    <g id="line2d_31">
     <path d="M 102.061562 51.255938 
L 114.061562 51.255938 
L 126.061562 51.255938 
" style="fill: none; stroke-dasharray: 4.44,1.92; stroke-dashoffset: 0; stroke: #f58518; stroke-width: 1.2"/>
    </g>
    <g id="text_26">
     <text style="font: 12px 'PingFang SC', 'Heiti SC', 'STHeiti', 'Calibri', 'Arial', 'Helvetica Neue', 'Arial Unicode MS', 'Noto Sans CJK SC', 'DejaVu Sans', sans-serif; text-anchor: start" x="135.661563" y="55.455938" transform="rotate(-0 135.661563 55.455938)">median=1388</text>
    </g>
   </g>
  </g>
 </g>
 <defs>
  <clipPath id="peaa9789cc0">
   <rect x="91.261562" y="35.104688" width="600.7825" height="266.265578"/>
  </clipPath>
 </defs>
 <defs>
  <pattern id="ha5d271e81d" patternUnits="userSpaceOnUse" x="0" y="0" width="72" height="72">
   <rect x="0" y="0" width="73" height="73" fill="none"/>
   <path d="M -36 36 
L 36 -36 
M -30 42 
L 42 -30 
M -24 48 
L 48 -24 
M -18 54 
L 54 -18 
M -12 60 
L 60 -12 
M -6 66 
L 66 -6 
M 0 72 
L 72 0 
M 6 78 
L 78 6 
M 12 84 
L 84 12 
M 18 90 
L 90 18 
M 24 96 
L 96 24 
M 30 102 
L 102 30 
M 36 108 
L 108 36 
M -36 36 
L 36 108 
M -30 30 
L 42 102 
M -24 24 
L 48 96 
M -18 18 
L 54 90 
M -12 12 
L 60 84 
M -6 6 
L 66 78 
M 0 0 
L 72 72 
M 6 -6 
L 78 66 
M 12 -12 
L 84 60 
M 18 -18 
L 90 54 
M 24 -24 
L 96 48 
M 30 -30 
L 102 42 
M 36 -36 
L 108 36 
" style="fill: #2ca02c; stroke: #2ca02c; stroke-width: 1.0; stroke-linecap: butt; stroke-linejoin: miter"/>
  </pattern>
  <pattern id="hf868d61813" patternUnits="userSpaceOnUse" x="0" y="0" width="72" height="72">
   <rect x="0" y="0" width="73" height="73" fill="none"/>
   <path d="M -36 36 
L 36 -36 
M -30 42 
L 42 -30 
M -24 48 
L 48 -24 
M -18 54 
L 54 -18 
M -12 60 
L 60 -12 
M -6 66 
L 66 -6 
M 0 72 
L 72 0 
M 6 78 
L 78 6 
M 12 84 
L 84 12 
M 18 90 
L 90 18 
M 24 96 
L 96 24 
M 30 102 
L 102 30 
M 36 108 
L 108 36 
" style="fill: #ff7f0e; stroke: #ff7f0e; stroke-width: 1.0; stroke-linecap: butt; stroke-linejoin: miter"/>
  </pattern>
 </defs>
</svg>
