<?xml version="1.0" encoding="utf-8" standalone="no"?>
<!DOCTYPE svg PUBLIC "-//W3C//DTD SVG 1.1//EN"
  "http://www.w3.org/Graphics/SVG/1.1/DTD/svg11.dtd">
<svg xmlns:xlink="http://www.w3.org/1999/xlink" width="702.748125pt" height="342.920994pt" viewBox="0 0 702.748125 342.920994" xmlns="http://www.w3.org/2000/svg" version="1.1">
 <metadata>
  <rdf:RDF xmlns:dc="http://purl.org/dc/elements/1.1/" xmlns:cc="http://creativecommons.org/ns#" xmlns:rdf="http://www.w3.org/1999/02/22-rdf-syntax-ns#">
   <cc:Work>
    <dc:type rdf:resource="http://purl.org/dc/dcmitype/StillImage"/>
    <dc:date>2026-07-11T23:31:12.769267</dc:date>
    <dc:format>image/svg+xml</dc:format>
    <dc:creator>
     <cc:Agent>
      <dc:title>Matplotlib v3.9.4, https://matplotlib.org/</dc:title>
     </cc:Agent>
    </dc:creator>
   </cc:Work>
  </rdf:RDF>
 </metadata>
 <defs>
  <style type="text/css">*{stroke-linejoin: round; stroke-linecap: butt}</style>
 </defs>
 <g id="figure_1">
  <g id="patch_1">
   <path d="M 0 342.920994 
L 702.748125 342.920994 
L 702.748125 0 
L 0 0 
z
" style="fill: #ffffff"/>
  </g>
  <g id="axes_1">
   <g id="patch_2">
    <path d="M 78.828125 301.573344 
L 691.948125 301.573344 
L 691.948125 34.4 
L 78.828125 34.4 
z
" style="fill: #ffffff"/>
   </g>
   <g id="matplotlib.axis_1">
    <g id="xtick_1">
     <g id="line2d_1">
      <defs>
       <path id="m12f8c382b5" d="M 0 0 
L 0 3.5 
" style="stroke: #808080; stroke-width: 0.8"/>
      </defs>
      <g>
       <use xlink:href="#m12f8c382b5" x="108.759796" y="301.573344" style="fill: #808080; stroke: #808080; stroke-width: 0.8"/>
      </g>
     </g>
     <g id="text_1">
      <text style="fill: #808080; font: 9px 'PingFang SC', 'Heiti SC', 'STHeiti', 'Calibri', 'Arial', 'Helvetica Neue', 'Arial Unicode MS', 'Noto Sans CJK SC', 'DejaVu Sans', sans-serif" transform="translate(93.803493 327.741794) rotate(-45)">w7.0</text>
     </g>
    </g>
    <g id="xtick_2">
     <g id="line2d_2">
      <g>
       <use xlink:href="#m12f8c382b5" x="142.731696" y="301.573344" style="fill: #808080; stroke: #808080; stroke-width: 0.8"/>
      </g>
     </g>
     <g id="text_2">
      <text style="fill: #808080; font: 9px 'PingFang SC', 'Heiti SC', 'STHeiti', 'Calibri', 'Arial', 'Helvetica Neue', 'Arial Unicode MS', 'Noto Sans CJK SC', 'DejaVu Sans', sans-serif" transform="translate(127.775393 327.741794) rotate(-45)">w5.2</text>
     </g>
    </g>
    <g id="xtick_3">
     <g id="line2d_3">
      <g>
       <use xlink:href="#m12f8c382b5" x="176.703596" y="301.573344" style="fill: #808080; stroke: #808080; stroke-width: 0.8"/>
      </g>
     </g>
     <g id="text_3">
      <text style="fill: #808080; font: 9px 'PingFang SC', 'Heiti SC', 'STHeiti', 'Calibri', 'Arial', 'Helvetica Neue', 'Arial Unicode MS', 'Noto Sans CJK SC', 'DejaVu Sans', sans-serif" transform="translate(161.747293 327.741794) rotate(-45)">w2.0</text>
     </g>
    </g>
    <g id="xtick_4">
     <g id="line2d_4">
      <g>
       <use xlink:href="#m12f8c382b5" x="210.675496" y="301.573344" style="fill: #808080; stroke: #808080; stroke-width: 0.8"/>
      </g>
     </g>
     <g id="text_4">
      <text style="fill: #808080; font: 9px 'PingFang SC', 'Heiti SC', 'STHeiti', 'Calibri', 'Arial', 'Helvetica Neue', 'Arial Unicode MS', 'Noto Sans CJK SC', 'DejaVu Sans', sans-serif" transform="translate(195.719193 327.741794) rotate(-45)">w4.0</text>
     </g>
    </g>
    <g id="xtick_5">
     <g id="line2d_5">
      <g>
       <use xlink:href="#m12f8c382b5" x="244.647396" y="301.573344" style="fill: #808080; stroke: #808080; stroke-width: 0.8"/>
      </g>
     </g>
     <g id="text_5">
      <text style="fill: #808080; font: 9px 'PingFang SC', 'Heiti SC', 'STHeiti', 'Calibri', 'Arial', 'Helvetica Neue', 'Arial Unicode MS', 'Noto Sans CJK SC', 'DejaVu Sans', sans-serif" transform="translate(229.00995 328.422936) rotate(-45)">m0.1</text>
     </g>
    </g>
    <g id="xtick_6">
     <g id="line2d_6">
      <g>
       <use xlink:href="#m12f8c382b5" x="278.619296" y="301.573344" style="fill: #808080; stroke: #808080; stroke-width: 0.8"/>
      </g>
     </g>
     <g id="text_6">
      <text style="fill: #808080; font: 9px 'PingFang SC', 'Heiti SC', 'STHeiti', 'Calibri', 'Arial', 'Helvetica Neue', 'Arial Unicode MS', 'Noto Sans CJK SC', 'DejaVu Sans', sans-serif" transform="translate(263.662993 327.741794) rotate(-45)">w2.2</text>
     </g>
    </g>
    <g id="xtick_7">
     <g id="line2d_7">
      <g>
       <use xlink:href="#m12f8c382b5" x="312.591196" y="301.573344" style="fill: #808080; stroke: #808080; stroke-width: 0.8"/>
      </g>
     </g>
     <g id="text_7">
      <text style="fill: #808080; font: 9px 'PingFang SC', 'Heiti SC', 'STHeiti', 'Calibri', 'Arial', 'Helvetica Neue', 'Arial Unicode MS', 'Noto Sans CJK SC', 'DejaVu Sans', sans-serif" transform="translate(297.634893 327.741794) rotate(-45)">w9.4</text>
     </g>
    </g>
    <g id="xtick_8">
     <g id="line2d_8">
      <g>
       <use xlink:href="#m12f8c382b5" x="346.563096" y="301.573344" style="fill: #808080; stroke: #808080; stroke-width: 0.8"/>
      </g>
     </g>
     <g id="text_8">
      <text style="fill: #808080; font: 9px 'PingFang SC', 'Heiti SC', 'STHeiti', 'Calibri', 'Arial', 'Helvetica Neue', 'Arial Unicode MS', 'Noto Sans CJK SC', 'DejaVu Sans', sans-serif" transform="translate(331.606794 327.741794) rotate(-45)">w4.6</text>
     </g>
    </g>
    <g id="xtick_9">
     <g id="line2d_9">
      <g>
       <use xlink:href="#m12f8c382b5" x="380.534996" y="301.573344" style="fill: #808080; stroke: #808080; stroke-width: 0.8"/>
      </g>
     </g>
     <g id="text_9">
      <text style="fill: #808080; font: 9px 'PingFang SC', 'Heiti SC', 'STHeiti', 'Calibri', 'Arial', 'Helvetica Neue', 'Arial Unicode MS', 'Noto Sans CJK SC', 'DejaVu Sans', sans-serif" transform="translate(365.578694 327.741794) rotate(-45)">w1.3</text>
     </g>
    </g>
    <g id="xtick_10">
     <g id="line2d_10">
      <g>
       <use xlink:href="#m12f8c382b5" x="414.506897" y="301.573344" style="fill: #808080; stroke: #808080; stroke-width: 0.8"/>
      </g>
     </g>
     <g id="text_10">
      <text style="fill: #808080; font: 9px 'PingFang SC', 'Heiti SC', 'STHeiti', 'Calibri', 'Arial', 'Helvetica Neue', 'Arial Unicode MS', 'Noto Sans CJK SC', 'DejaVu Sans', sans-serif" transform="translate(396.024562 331.267826) rotate(-45)">w12.6</text>
     </g>
    </g>
    <g id="xtick_11">
     <g id="line2d_11">
      <g>
       <use xlink:href="#m12f8c382b5" x="448.478797" y="301.573344" style="fill: #808080; stroke: #808080; stroke-width: 0.8"/>
      </g>
     </g>
     <g id="text_11">
      <text style="fill: #808080; font: 9px 'PingFang SC', 'Heiti SC', 'STHeiti', 'Calibri', 'Arial', 'Helvetica Neue', 'Arial Unicode MS', 'Noto Sans CJK SC', 'DejaVu Sans', sans-serif" transform="translate(433.522494 327.741794) rotate(-45)">w1.2</text>
     </g>
    </g>
    <g id="xtick_12">
     <g id="line2d_12">
      <g>
       <use xlink:href="#m12f8c382b5" x="482.450697" y="301.573344" style="fill: #808080; stroke: #808080; stroke-width: 0.8"/>
      </g>
     </g>
     <g id="text_12">
      <text style="fill: #808080; font: 9px 'PingFang SC', 'Heiti SC', 'STHeiti', 'Calibri', 'Arial', 'Helvetica Neue', 'Arial Unicode MS', 'Noto Sans CJK SC', 'DejaVu Sans', sans-serif" transform="translate(463.968362 331.267826) rotate(-45)">w12.4</text>
     </g>
    </g>
    <g id="xtick_13">
     <g id="line2d_13">
      <g>
       <use xlink:href="#m12f8c382b5" x="516.422597" y="301.573344" style="fill: #808080; stroke: #808080; stroke-width: 0.8"/>
      </g>
     </g>
     <g id="text_13">
      <text style="fill: #808080; font: 9px 'PingFang SC', 'Heiti SC', 'STHeiti', 'Calibri', 'Arial', 'Helvetica Neue', 'Arial Unicode MS', 'Noto Sans CJK SC', 'DejaVu Sans', sans-serif" transform="translate(501.466294 327.741794) rotate(-45)">w2.5</text>
     </g>
    </g>
    <g id="xtick_14">
     <g id="line2d_14">
      <g>
       <use xlink:href="#m12f8c382b5" x="550.394497" y="301.573344" style="fill: #808080; stroke: #808080; stroke-width: 0.8"/>
      </g>
     </g>
     <g id="text_14">
      <text style="fill: #808080; font: 9px 'PingFang SC', 'Heiti SC', 'STHeiti', 'Calibri', 'Arial', 'Helvetica Neue', 'Arial Unicode MS', 'Noto Sans CJK SC', 'DejaVu Sans', sans-serif" transform="translate(535.438194 327.741794) rotate(-45)">w8.1</text>
     </g>
    </g>
    <g id="xtick_15">
     <g id="line2d_15">
      <g>
       <use xlink:href="#m12f8c382b5" x="584.366397" y="301.573344" style="fill: #808080; stroke: #808080; stroke-width: 0.8"/>
      </g>
     </g>
     <g id="text_15">
      <text style="fill: #808080; font: 9px 'PingFang SC', 'Heiti SC', 'STHeiti', 'Calibri', 'Arial', 'Helvetica Neue', 'Arial Unicode MS', 'Noto Sans CJK SC', 'DejaVu Sans', sans-serif" transform="translate(569.410094 327.741794) rotate(-45)">w6.1</text>
     </g>
    </g>
    <g id="xtick_16">
     <g id="line2d_16">
      <g>
       <use xlink:href="#m12f8c382b5" x="618.338297" y="301.573344" style="fill: #808080; stroke: #808080; stroke-width: 0.8"/>
      </g>
     </g>
     <g id="text_16">
      <text style="fill: #808080; font: 9px 'PingFang SC', 'Heiti SC', 'STHeiti', 'Calibri', 'Arial', 'Helvetica Neue', 'Arial Unicode MS', 'Noto Sans CJK SC', 'DejaVu Sans', sans-serif" transform="translate(603.381994 327.741794) rotate(-45)">w9.0</text>
     </g>
    </g>
    <g id="xtick_17">
     <g id="line2d_17">
      <g>
       <use xlink:href="#m12f8c382b5" x="652.310197" y="301.573344" style="fill: #808080; stroke: #808080; stroke-width: 0.8"/>
      </g>
     </g>
     <g id="text_17">
      <text style="fill: #808080; font: 9px 'PingFang SC', 'Heiti SC', 'STHeiti', 'Calibri', 'Arial', 'Helvetica Neue', 'Arial Unicode MS', 'Noto Sans CJK SC', 'DejaVu Sans', sans-serif" transform="translate(637.353894 327.741794) rotate(-45)">w6.7</text>
     </g>
    </g>
   </g>
   <g id="matplotlib.axis_2">
    <g id="ytick_1">
     <g id="line2d_18">
      <path d="M 78.828125 301.573344 
L 691.948125 301.573344 
" clip-path="url(#p853f8f69b3)" style="fill: none; stroke-dasharray: 1,1.65; stroke-dashoffset: 0; stroke: #808080; stroke-opacity: 0.55"/>
     </g>
     <g id="line2d_19">
      <defs>
       <path id="ma49af0bd26" d="M 0 0 
L -3.5 0 
" style="stroke: #808080; stroke-width: 0.8"/>
      </defs>
      <g>
       <use xlink:href="#ma49af0bd26" x="78.828125" y="301.573344" style="fill: #808080; stroke: #808080; stroke-width: 0.8"/>
      </g>
     </g>
     <g id="text_18">
      <text style="fill: #808080; font: 22px 'PingFang SC', 'Heiti SC', 'STHeiti', 'Calibri', 'Arial', 'Helvetica Neue', 'Arial Unicode MS', 'Noto Sans CJK SC', 'DejaVu Sans', sans-serif; text-anchor: end" x="71.828125" y="310.328657" transform="rotate(-0 71.828125 310.328657)">0</text>
     </g>
    </g>
    <g id="ytick_2">
     <g id="line2d_20">
      <path d="M 78.828125 213.211003 
L 691.948125 213.211003 
" clip-path="url(#p853f8f69b3)" style="fill: none; stroke-dasharray: 1,1.65; stroke-dashoffset: 0; stroke: #808080; stroke-opacity: 0.55"/>
     </g>
     <g id="line2d_21">
      <g>
       <use xlink:href="#ma49af0bd26" x="78.828125" y="213.211003" style="fill: #808080; stroke: #808080; stroke-width: 0.8"/>
      </g>
     </g>
     <g id="text_19">
      <text style="fill: #808080; font: 22px 'PingFang SC', 'Heiti SC', 'STHeiti', 'Calibri', 'Arial', 'Helvetica Neue', 'Arial Unicode MS', 'Noto Sans CJK SC', 'DejaVu Sans', sans-serif; text-anchor: end" x="71.828125" y="221.966315" transform="rotate(-0 71.828125 221.966315)">100</text>
     </g>
    </g>
    <g id="ytick_3">
     <g id="line2d_22">
      <path d="M 78.828125 124.848661 
L 691.948125 124.848661 
" clip-path="url(#p853f8f69b3)" style="fill: none; stroke-dasharray: 1,1.65; stroke-dashoffset: 0; stroke: #808080; stroke-opacity: 0.55"/>
     </g>
     <g id="line2d_23">
      <g>
       <use xlink:href="#ma49af0bd26" x="78.828125" y="124.848661" style="fill: #808080; stroke: #808080; stroke-width: 0.8"/>
      </g>
     </g>
     <g id="text_20">
      <text style="fill: #808080; font: 22px 'PingFang SC', 'Heiti SC', 'STHeiti', 'Calibri', 'Arial', 'Helvetica Neue', 'Arial Unicode MS', 'Noto Sans CJK SC', 'DejaVu Sans', sans-serif; text-anchor: end" x="71.828125" y="133.603974" transform="rotate(-0 71.828125 133.603974)">200</text>
     </g>
    </g>
    <g id="ytick_4">
     <g id="line2d_24">
      <path d="M 78.828125 36.48632 
L 691.948125 36.48632 
" clip-path="url(#p853f8f69b3)" style="fill: none; stroke-dasharray: 1,1.65; stroke-dashoffset: 0; stroke: #808080; stroke-opacity: 0.55"/>
     </g>
     <g id="line2d_25">
      <g>
       <use xlink:href="#ma49af0bd26" x="78.828125" y="36.48632" style="fill: #808080; stroke: #808080; stroke-width: 0.8"/>
      </g>
     </g>
     <g id="text_21">
      <text style="fill: #808080; font: 22px 'PingFang SC', 'Heiti SC', 'STHeiti', 'Calibri', 'Arial', 'Helvetica Neue', 'Arial Unicode MS', 'Noto Sans CJK SC', 'DejaVu Sans', sans-serif; text-anchor: end" x="71.828125" y="45.241632" transform="rotate(-0 71.828125 45.241632)">300</text>
     </g>
    </g>
    <g id="text_22">
     <text style="font: 22px 'PingFang SC', 'Heiti SC', 'STHeiti', 'Calibri', 'Arial', 'Helvetica Neue', 'Arial Unicode MS', 'Noto Sans CJK SC', 'DejaVu Sans', sans-serif; text-anchor: middle" x="28.310625" y="167.986672" transform="rotate(-90 28.310625 167.986672)">GEMM func TFLOPS</text>
    </g>
   </g>
   <g id="patch_3">
    <path d="M 106.697216 301.573344 
L 110.822375 301.573344 
L 110.822375 61.769623 
L 106.697216 61.769623 
z
" clip-path="url(#p853f8f69b3)" style="fill: url(#hff3c3afa26); stroke: #2ca02c; stroke-width: 2; stroke-linejoin: miter"/>
   </g>
   <g id="patch_4">
    <path d="M 111.550344 301.573344 
L 115.675504 301.573344 
L 115.675504 60.811195 
L 111.550344 60.811195 
z
" clip-path="url(#p853f8f69b3)" style="fill: url(#hff3c3afa26); stroke: #2ca02c; stroke-width: 2; stroke-linejoin: miter"/>
   </g>
   <g id="patch_5">
    <path d="M 116.403473 301.573344 
L 120.528632 301.573344 
L 120.528632 60.244739 
L 116.403473 60.244739 
z
" clip-path="url(#p853f8f69b3)" style="fill: url(#hff3c3afa26); stroke: #2ca02c; stroke-width: 2; stroke-linejoin: miter"/>
   </g>
   <g id="patch_6">
    <path d="M 121.256602 301.573344 
L 125.381761 301.573344 
L 125.381761 59.952802 
L 121.256602 59.952802 
z
" clip-path="url(#p853f8f69b3)" style="fill: url(#hff3c3afa26); stroke: #2ca02c; stroke-width: 2; stroke-linejoin: miter"/>
   </g>
   <g id="patch_7">
    <path d="M 126.10973 301.573344 
L 130.23489 301.573344 
L 130.23489 59.691031 
L 126.10973 59.691031 
z
" clip-path="url(#p853f8f69b3)" style="fill: url(#hff3c3afa26); stroke: #2ca02c; stroke-width: 2; stroke-linejoin: miter"/>
   </g>
   <g id="patch_8">
    <path d="M 130.962859 301.573344 
L 135.088018 301.573344 
L 135.088018 59.660187 
L 130.962859 59.660187 
z
" clip-path="url(#p853f8f69b3)" style="fill: url(#hff3c3afa26); stroke: #2ca02c; stroke-width: 2; stroke-linejoin: miter"/>
   </g>
   <g id="patch_9">
    <path d="M 135.815987 301.573344 
L 139.941147 301.573344 
L 139.941147 59.52132 
L 135.815987 59.52132 
z
" clip-path="url(#p853f8f69b3)" style="fill: url(#hff3c3afa26); stroke: #2ca02c; stroke-width: 2; stroke-linejoin: miter"/>
   </g>
   <g id="patch_10">
    <path d="M 140.669116 301.573344 
L 144.794275 301.573344 
L 144.794275 59.041795 
L 140.669116 59.041795 
z
" clip-path="url(#p853f8f69b3)" style="fill: url(#hff3c3afa26); stroke: #2ca02c; stroke-width: 2; stroke-linejoin: miter"/>
   </g>
   <g id="patch_11">
    <path d="M 145.522245 301.573344 
L 149.647404 301.573344 
L 149.647404 59.026291 
L 145.522245 59.026291 
z
" clip-path="url(#p853f8f69b3)" style="fill: url(#hff3c3afa26); stroke: #2ca02c; stroke-width: 2; stroke-linejoin: miter"/>
   </g>
   <g id="patch_12">
    <path d="M 150.375373 301.573344 
L 154.500532 301.573344 
L 154.500532 58.840147 
L 150.375373 58.840147 
z
" clip-path="url(#p853f8f69b3)" style="fill: url(#hff3c3afa26); stroke: #2ca02c; stroke-width: 2; stroke-linejoin: miter"/>
   </g>
   <g id="patch_13">
    <path d="M 155.228502 301.573344 
L 159.353661 301.573344 
L 159.353661 58.840147 
L 155.228502 58.840147 
z
" clip-path="url(#p853f8f69b3)" style="fill: url(#hff3c3afa26); stroke: #2ca02c; stroke-width: 2; stroke-linejoin: miter"/>
   </g>
   <g id="patch_14">
    <path d="M 160.08163 301.573344 
L 164.20679 301.573344 
L 164.20679 58.746939 
L 160.08163 58.746939 
z
" clip-path="url(#p853f8f69b3)" style="fill: url(#hff3c3afa26); stroke: #2ca02c; stroke-width: 2; stroke-linejoin: miter"/>
   </g>
   <g id="patch_15">
    <path d="M 164.934759 301.573344 
L 169.059918 301.573344 
L 169.059918 58.684789 
L 164.934759 58.684789 
z
" clip-path="url(#p853f8f69b3)" style="fill: url(#hff3c3afa26); stroke: #2ca02c; stroke-width: 2; stroke-linejoin: miter"/>
   </g>
   <g id="patch_16">
    <path d="M 169.787888 301.573344 
L 173.913047 301.573344 
L 173.913047 58.513678 
L 169.787888 58.513678 
z
" clip-path="url(#p853f8f69b3)" style="fill: url(#hff3c3afa26); stroke: #2ca02c; stroke-width: 2; stroke-linejoin: miter"/>
   </g>
   <g id="patch_17">
    <path d="M 174.641016 301.573344 
L 178.766175 301.573344 
L 178.766175 58.311136 
L 174.641016 58.311136 
z
" clip-path="url(#p853f8f69b3)" style="fill: url(#hff3c3afa26); stroke: #2ca02c; stroke-width: 2; stroke-linejoin: miter"/>
   </g>
   <g id="patch_18">
    <path d="M 179.494145 301.573344 
L 183.619304 301.573344 
L 183.619304 58.092647 
L 179.494145 58.092647 
z
" clip-path="url(#p853f8f69b3)" style="fill: url(#hff3c3afa26); stroke: #2ca02c; stroke-width: 2; stroke-linejoin: miter"/>
   </g>
   <g id="patch_19">
    <path d="M 184.347273 301.573344 
L 188.472433 301.573344 
L 188.472433 57.983255 
L 184.347273 57.983255 
z
" clip-path="url(#p853f8f69b3)" style="fill: url(#hff3c3afa26); stroke: #2ca02c; stroke-width: 2; stroke-linejoin: miter"/>
   </g>
   <g id="patch_20">
    <path d="M 189.200402 301.573344 
L 193.325561 301.573344 
L 193.325561 57.748495 
L 189.200402 57.748495 
z
" clip-path="url(#p853f8f69b3)" style="fill: url(#hff3c3afa26); stroke: #2ca02c; stroke-width: 2; stroke-linejoin: miter"/>
   </g>
   <g id="patch_21">
    <path d="M 194.05353 301.573344 
L 198.17869 301.573344 
L 198.17869 57.685833 
L 194.05353 57.685833 
z
" clip-path="url(#p853f8f69b3)" style="fill: url(#hff3c3afa26); stroke: #2ca02c; stroke-width: 2; stroke-linejoin: miter"/>
   </g>
   <g id="patch_22">
    <path d="M 198.906659 301.573344 
L 203.031818 301.573344 
L 203.031818 57.638794 
L 198.906659 57.638794 
z
" clip-path="url(#p853f8f69b3)" style="fill: url(#hff3c3afa26); stroke: #2ca02c; stroke-width: 2; stroke-linejoin: miter"/>
   </g>
   <g id="patch_23">
    <path d="M 203.759788 301.573344 
L 207.884947 301.573344 
L 207.884947 57.623124 
L 203.759788 57.623124 
z
" clip-path="url(#p853f8f69b3)" style="fill: url(#hff3c3afa26); stroke: #2ca02c; stroke-width: 2; stroke-linejoin: miter"/>
   </g>
   <g id="patch_24">
    <path d="M 208.612916 301.573344 
L 212.738076 301.573344 
L 212.738076 57.466205 
L 208.612916 57.466205 
z
" clip-path="url(#p853f8f69b3)" style="fill: url(#hff3c3afa26); stroke: #2ca02c; stroke-width: 2; stroke-linejoin: miter"/>
   </g>
   <g id="patch_25">
    <path d="M 213.466045 301.573344 
L 217.591204 301.573344 
L 217.591204 57.371967 
L 213.466045 57.371967 
z
" clip-path="url(#p853f8f69b3)" style="fill: url(#hff3c3afa26); stroke: #2ca02c; stroke-width: 2; stroke-linejoin: miter"/>
   </g>
   <g id="patch_26">
    <path d="M 218.319173 301.573344 
L 222.444333 301.573344 
L 222.444333 57.246195 
L 218.319173 57.246195 
z
" clip-path="url(#p853f8f69b3)" style="fill: url(#hff3c3afa26); stroke: #2ca02c; stroke-width: 2; stroke-linejoin: miter"/>
   </g>
   <g id="patch_27">
    <path d="M 223.172302 301.573344 
L 227.297461 301.573344 
L 227.297461 57.041534 
L 223.172302 57.041534 
z
" clip-path="url(#p853f8f69b3)" style="fill: url(#hff3c3afa26); stroke: #2ca02c; stroke-width: 2; stroke-linejoin: miter"/>
   </g>
   <g id="patch_28">
    <path d="M 228.025431 301.573344 
L 232.15059 301.573344 
L 232.15059 56.978494 
L 228.025431 56.978494 
z
" clip-path="url(#p853f8f69b3)" style="fill: url(#hff3c3afa26); stroke: #2ca02c; stroke-width: 2; stroke-linejoin: miter"/>
   </g>
   <g id="patch_29">
    <path d="M 232.878559 301.573344 
L 237.003718 301.573344 
L 237.003718 56.71022 
L 232.878559 56.71022 
z
" clip-path="url(#p853f8f69b3)" style="fill: url(#hff3c3afa26); stroke: #2ca02c; stroke-width: 2; stroke-linejoin: miter"/>
   </g>
   <g id="patch_30">
    <path d="M 237.731688 301.573344 
L 241.856847 301.573344 
L 241.856847 56.599568 
L 237.731688 56.599568 
z
" clip-path="url(#p853f8f69b3)" style="fill: url(#hff3c3afa26); stroke: #2ca02c; stroke-width: 2; stroke-linejoin: miter"/>
   </g>
   <g id="patch_31">
    <path d="M 242.584816 301.573344 
L 246.709976 301.573344 
L 246.709976 56.362146 
L 242.584816 56.362146 
z
" clip-path="url(#p853f8f69b3)" style="fill: url(#hff3c3afa26); stroke: #2ca02c; stroke-width: 2; stroke-linejoin: miter"/>
   </g>
   <g id="patch_32">
    <path d="M 247.437945 301.573344 
L 251.563104 301.573344 
L 251.563104 56.314609 
L 247.437945 56.314609 
z
" clip-path="url(#p853f8f69b3)" style="fill: url(#hff3c3afa26); stroke: #2ca02c; stroke-width: 2; stroke-linejoin: miter"/>
   </g>
   <g id="patch_33">
    <path d="M 252.291074 301.573344 
L 256.416233 301.573344 
L 256.416233 56.187745 
L 252.291074 56.187745 
z
" clip-path="url(#p853f8f69b3)" style="fill: url(#hff3c3afa26); stroke: #2ca02c; stroke-width: 2; stroke-linejoin: miter"/>
   </g>
   <g id="patch_34">
    <path d="M 257.144202 301.573344 
L 261.269361 301.573344 
L 261.269361 56.171874 
L 257.144202 56.171874 
z
" clip-path="url(#p853f8f69b3)" style="fill: url(#hff3c3afa26); stroke: #2ca02c; stroke-width: 2; stroke-linejoin: miter"/>
   </g>
   <g id="patch_35">
    <path d="M 261.997331 301.573344 
L 266.12249 301.573344 
L 266.12249 55.965423 
L 261.997331 55.965423 
z
" clip-path="url(#p853f8f69b3)" style="fill: url(#hff3c3afa26); stroke: #2ca02c; stroke-width: 2; stroke-linejoin: miter"/>
   </g>
   <g id="patch_36">
    <path d="M 266.850459 301.573344 
L 270.975619 301.573344 
L 270.975619 55.854097 
L 266.850459 55.854097 
z
" clip-path="url(#p853f8f69b3)" style="fill: url(#hff3c3afa26); stroke: #2ca02c; stroke-width: 2; stroke-linejoin: miter"/>
   </g>
   <g id="patch_37">
    <path d="M 271.703588 301.573344 
L 275.828747 301.573344 
L 275.828747 55.75861 
L 271.703588 55.75861 
z
" clip-path="url(#p853f8f69b3)" style="fill: url(#hff3c3afa26); stroke: #2ca02c; stroke-width: 2; stroke-linejoin: miter"/>
   </g>
   <g id="patch_38">
    <path d="M 276.556716 301.573344 
L 280.681876 301.573344 
L 280.681876 55.75861 
L 276.556716 55.75861 
z
" clip-path="url(#p853f8f69b3)" style="fill: url(#hff3c3afa26); stroke: #2ca02c; stroke-width: 2; stroke-linejoin: miter"/>
   </g>
   <g id="patch_39">
    <path d="M 281.409845 301.573344 
L 285.535004 301.573344 
L 285.535004 55.599297 
L 281.409845 55.599297 
z
" clip-path="url(#p853f8f69b3)" style="fill: url(#hff3c3afa26); stroke: #2ca02c; stroke-width: 2; stroke-linejoin: miter"/>
   </g>
   <g id="patch_40">
    <path d="M 286.262974 301.573344 
L 290.388133 301.573344 
L 290.388133 55.551449 
L 286.262974 55.551449 
z
" clip-path="url(#p853f8f69b3)" style="fill: url(#hff3c3afa26); stroke: #2ca02c; stroke-width: 2; stroke-linejoin: miter"/>
   </g>
   <g id="patch_41">
    <path d="M 291.116102 301.573344 
L 295.241262 301.573344 
L 295.241262 55.487638 
L 291.116102 55.487638 
z
" clip-path="url(#p853f8f69b3)" style="fill: url(#hff3c3afa26); stroke: #2ca02c; stroke-width: 2; stroke-linejoin: miter"/>
   </g>
   <g id="patch_42">
    <path d="M 295.969231 301.573344 
L 300.09439 301.573344 
L 300.09439 55.423794 
L 295.969231 55.423794 
z
" clip-path="url(#p853f8f69b3)" style="fill: url(#hff3c3afa26); stroke: #2ca02c; stroke-width: 2; stroke-linejoin: miter"/>
   </g>
   <g id="patch_43">
    <path d="M 300.822359 301.573344 
L 304.947519 301.573344 
L 304.947519 55.407839 
L 300.822359 55.407839 
z
" clip-path="url(#p853f8f69b3)" style="fill: url(#hff3c3afa26); stroke: #2ca02c; stroke-width: 2; stroke-linejoin: miter"/>
   </g>
   <g id="patch_44">
    <path d="M 305.675488 301.573344 
L 309.800647 301.573344 
L 309.800647 55.1681 
L 305.675488 55.1681 
z
" clip-path="url(#p853f8f69b3)" style="fill: url(#hff3c3afa26); stroke: #2ca02c; stroke-width: 2; stroke-linejoin: miter"/>
   </g>
   <g id="patch_45">
    <path d="M 310.528617 301.573344 
L 314.653776 301.573344 
L 314.653776 55.1681 
L 310.528617 55.1681 
z
" clip-path="url(#p853f8f69b3)" style="fill: url(#hff3c3afa26); stroke: #2ca02c; stroke-width: 2; stroke-linejoin: miter"/>
   </g>
   <g id="patch_46">
    <path d="M 315.381745 301.573344 
L 319.506904 301.573344 
L 319.506904 55.120084 
L 315.381745 55.120084 
z
" clip-path="url(#p853f8f69b3)" style="fill: url(#hff3c3afa26); stroke: #2ca02c; stroke-width: 2; stroke-linejoin: miter"/>
   </g>
   <g id="patch_47">
    <path d="M 320.234874 301.573344 
L 324.360033 301.573344 
L 324.360033 55.10409 
L 320.234874 55.10409 
z
" clip-path="url(#p853f8f69b3)" style="fill: url(#hff3c3afa26); stroke: #2ca02c; stroke-width: 2; stroke-linejoin: miter"/>
   </g>
   <g id="patch_48">
    <path d="M 325.088002 301.573344 
L 329.213162 301.573344 
L 329.213162 55.040046 
L 325.088002 55.040046 
z
" clip-path="url(#p853f8f69b3)" style="fill: url(#hff3c3afa26); stroke: #2ca02c; stroke-width: 2; stroke-linejoin: miter"/>
   </g>
   <g id="patch_49">
    <path d="M 329.941131 301.573344 
L 334.06629 301.573344 
L 334.06629 54.927879 
L 329.941131 54.927879 
z
" clip-path="url(#p853f8f69b3)" style="fill: url(#hff3c3afa26); stroke: #2ca02c; stroke-width: 2; stroke-linejoin: miter"/>
   </g>
   <g id="patch_50">
    <path d="M 334.794259 301.573344 
L 338.919419 301.573344 
L 338.919419 54.91186 
L 334.794259 54.91186 
z
" clip-path="url(#p853f8f69b3)" style="fill: url(#hff3c3afa26); stroke: #2ca02c; stroke-width: 2; stroke-linejoin: miter"/>
   </g>
   <g id="patch_51">
    <path d="M 339.647388 301.573344 
L 343.772547 301.573344 
L 343.772547 54.895823 
L 339.647388 54.895823 
z
" clip-path="url(#p853f8f69b3)" style="fill: url(#hff3c3afa26); stroke: #2ca02c; stroke-width: 2; stroke-linejoin: miter"/>
   </g>
   <g id="patch_52">
    <path d="M 344.500517 301.573344 
L 348.625676 301.573344 
L 348.625676 54.863744 
L 344.500517 54.863744 
z
" clip-path="url(#p853f8f69b3)" style="fill: url(#hff3c3afa26); stroke: #2ca02c; stroke-width: 2; stroke-linejoin: miter"/>
   </g>
   <g id="patch_53">
    <path d="M 349.353645 301.573344 
L 353.478805 301.573344 
L 353.478805 54.799591 
L 349.353645 54.799591 
z
" clip-path="url(#p853f8f69b3)" style="fill: url(#hff3c3afa26); stroke: #2ca02c; stroke-width: 2; stroke-linejoin: miter"/>
   </g>
   <g id="patch_54">
    <path d="M 354.206774 301.573344 
L 358.331933 301.573344 
L 358.331933 54.671154 
L 354.206774 54.671154 
z
" clip-path="url(#p853f8f69b3)" style="fill: url(#hff3c3afa26); stroke: #2ca02c; stroke-width: 2; stroke-linejoin: miter"/>
   </g>
   <g id="patch_55">
    <path d="M 359.059902 301.573344 
L 363.185062 301.573344 
L 363.185062 54.622944 
L 359.059902 54.622944 
z
" clip-path="url(#p853f8f69b3)" style="fill: url(#hff3c3afa26); stroke: #2ca02c; stroke-width: 2; stroke-linejoin: miter"/>
   </g>
   <g id="patch_56">
    <path d="M 363.913031 301.573344 
L 368.03819 301.573344 
L 368.03819 54.590809 
L 363.913031 54.590809 
z
" clip-path="url(#p853f8f69b3)" style="fill: url(#hff3c3afa26); stroke: #2ca02c; stroke-width: 2; stroke-linejoin: miter"/>
   </g>
   <g id="patch_57">
    <path d="M 368.76616 301.573344 
L 372.891319 301.573344 
L 372.891319 54.574731 
L 368.76616 54.574731 
z
" clip-path="url(#p853f8f69b3)" style="fill: url(#hff3c3afa26); stroke: #2ca02c; stroke-width: 2; stroke-linejoin: miter"/>
   </g>
   <g id="patch_58">
    <path d="M 373.619288 301.573344 
L 377.744447 301.573344 
L 377.744447 54.349475 
L 373.619288 54.349475 
z
" clip-path="url(#p853f8f69b3)" style="fill: url(#hff3c3afa26); stroke: #2ca02c; stroke-width: 2; stroke-linejoin: miter"/>
   </g>
   <g id="patch_59">
    <path d="M 378.472417 301.573344 
L 382.597576 301.573344 
L 382.597576 54.349475 
L 378.472417 54.349475 
z
" clip-path="url(#p853f8f69b3)" style="fill: url(#hff3c3afa26); stroke: #2ca02c; stroke-width: 2; stroke-linejoin: miter"/>
   </g>
   <g id="patch_60">
    <path d="M 383.325545 301.573344 
L 387.450705 301.573344 
L 387.450705 54.285039 
L 383.325545 54.285039 
z
" clip-path="url(#p853f8f69b3)" style="fill: url(#hd5c8204126); stroke: #ff7f0e; stroke-width: 2; stroke-linejoin: miter"/>
   </g>
   <g id="patch_61">
    <path d="M 388.178674 301.573344 
L 392.303833 301.573344 
L 392.303833 54.268921 
L 388.178674 54.268921 
z
" clip-path="url(#p853f8f69b3)" style="fill: url(#hd5c8204126); stroke: #ff7f0e; stroke-width: 2; stroke-linejoin: miter"/>
   </g>
   <g id="patch_62">
    <path d="M 393.031803 301.573344 
L 397.156962 301.573344 
L 397.156962 54.268921 
L 393.031803 54.268921 
z
" clip-path="url(#p853f8f69b3)" style="fill: url(#hd5c8204126); stroke: #ff7f0e; stroke-width: 2; stroke-linejoin: miter"/>
   </g>
   <g id="patch_63">
    <path d="M 397.884931 301.573344 
L 402.01009 301.573344 
L 402.01009 54.220569 
L 397.884931 54.220569 
z
" clip-path="url(#p853f8f69b3)" style="fill: url(#hd5c8204126); stroke: #ff7f0e; stroke-width: 2; stroke-linejoin: miter"/>
   </g>
   <g id="patch_64">
    <path d="M 402.73806 301.573344 
L 406.863219 301.573344 
L 406.863219 54.204443 
L 402.73806 54.204443 
z
" clip-path="url(#p853f8f69b3)" style="fill: url(#hd5c8204126); stroke: #ff7f0e; stroke-width: 2; stroke-linejoin: miter"/>
   </g>
   <g id="patch_65">
    <path d="M 407.591188 301.573344 
L 411.716348 301.573344 
L 411.716348 54.188314 
L 407.591188 54.188314 
z
" clip-path="url(#p853f8f69b3)" style="fill: url(#hd5c8204126); stroke: #ff7f0e; stroke-width: 2; stroke-linejoin: miter"/>
   </g>
   <g id="patch_66">
    <path d="M 412.444317 301.573344 
L 416.569476 301.573344 
L 416.569476 54.188314 
L 412.444317 54.188314 
z
" clip-path="url(#p853f8f69b3)" style="fill: url(#hd5c8204126); stroke: #ff7f0e; stroke-width: 2; stroke-linejoin: miter"/>
   </g>
   <g id="patch_67">
    <path d="M 417.297445 301.573344 
L 421.422605 301.573344 
L 421.422605 54.172199 
L 417.297445 54.172199 
z
" clip-path="url(#p853f8f69b3)" style="fill: url(#hd5c8204126); stroke: #ff7f0e; stroke-width: 2; stroke-linejoin: miter"/>
   </g>
   <g id="patch_68">
    <path d="M 422.150574 301.573344 
L 426.275733 301.573344 
L 426.275733 54.156066 
L 422.150574 54.156066 
z
" clip-path="url(#p853f8f69b3)" style="fill: url(#hd5c8204126); stroke: #ff7f0e; stroke-width: 2; stroke-linejoin: miter"/>
   </g>
   <g id="patch_69">
    <path d="M 427.003703 301.573344 
L 431.128862 301.573344 
L 431.128862 54.156066 
L 427.003703 54.156066 
z
" clip-path="url(#p853f8f69b3)" style="fill: url(#hd5c8204126); stroke: #ff7f0e; stroke-width: 2; stroke-linejoin: miter"/>
   </g>
   <g id="patch_70">
    <path d="M 431.856831 301.573344 
L 435.981991 301.573344 
L 435.981991 54.156066 
L 431.856831 54.156066 
z
" clip-path="url(#p853f8f69b3)" style="fill: url(#hd5c8204126); stroke: #ff7f0e; stroke-width: 2; stroke-linejoin: miter"/>
   </g>
   <g id="patch_71">
    <path d="M 436.70996 301.573344 
L 440.835119 301.573344 
L 440.835119 54.139931 
L 436.70996 54.139931 
z
" clip-path="url(#p853f8f69b3)" style="fill: url(#hd5c8204126); stroke: #ff7f0e; stroke-width: 2; stroke-linejoin: miter"/>
   </g>
   <g id="patch_72">
    <path d="M 441.563088 301.573344 
L 445.688248 301.573344 
L 445.688248 54.043108 
L 441.563088 54.043108 
z
" clip-path="url(#p853f8f69b3)" style="fill: url(#hd5c8204126); stroke: #ff7f0e; stroke-width: 2; stroke-linejoin: miter"/>
   </g>
   <g id="patch_73">
    <path d="M 446.416217 301.573344 
L 450.541376 301.573344 
L 450.541376 54.010806 
L 446.416217 54.010806 
z
" clip-path="url(#p853f8f69b3)" style="fill: url(#hd5c8204126); stroke: #ff7f0e; stroke-width: 2; stroke-linejoin: miter"/>
   </g>
   <g id="patch_74">
    <path d="M 451.269346 301.573344 
L 455.394505 301.573344 
L 455.394505 53.946193 
L 451.269346 53.946193 
z
" clip-path="url(#p853f8f69b3)" style="fill: url(#hd5c8204126); stroke: #ff7f0e; stroke-width: 2; stroke-linejoin: miter"/>
   </g>
   <g id="patch_75">
    <path d="M 456.122474 301.573344 
L 460.247633 301.573344 
L 460.247633 53.913882 
L 456.122474 53.913882 
z
" clip-path="url(#p853f8f69b3)" style="fill: url(#hd5c8204126); stroke: #ff7f0e; stroke-width: 2; stroke-linejoin: miter"/>
   </g>
   <g id="patch_76">
    <path d="M 460.975603 301.573344 
L 465.100762 301.573344 
L 465.100762 53.865376 
L 460.975603 53.865376 
z
" clip-path="url(#p853f8f69b3)" style="fill: url(#hd5c8204126); stroke: #ff7f0e; stroke-width: 2; stroke-linejoin: miter"/>
   </g>
   <g id="patch_77">
    <path d="M 465.828731 301.573344 
L 469.953891 301.573344 
L 469.953891 53.800702 
L 465.828731 53.800702 
z
" clip-path="url(#p853f8f69b3)" style="fill: url(#hd5c8204126); stroke: #ff7f0e; stroke-width: 2; stroke-linejoin: miter"/>
   </g>
   <g id="patch_78">
    <path d="M 470.68186 301.573344 
L 474.807019 301.573344 
L 474.807019 53.752152 
L 470.68186 53.752152 
z
" clip-path="url(#p853f8f69b3)" style="fill: url(#hd5c8204126); stroke: #ff7f0e; stroke-width: 2; stroke-linejoin: miter"/>
   </g>
   <g id="patch_79">
    <path d="M 475.534988 301.573344 
L 479.660148 301.573344 
L 479.660148 53.655025 
L 475.534988 53.655025 
z
" clip-path="url(#p853f8f69b3)" style="fill: url(#hd5c8204126); stroke: #ff7f0e; stroke-width: 2; stroke-linejoin: miter"/>
   </g>
   <g id="patch_80">
    <path d="M 480.388117 301.573344 
L 484.513276 301.573344 
L 484.513276 53.638825 
L 480.388117 53.638825 
z
" clip-path="url(#p853f8f69b3)" style="fill: url(#hd5c8204126); stroke: #ff7f0e; stroke-width: 2; stroke-linejoin: miter"/>
   </g>
   <g id="patch_81">
    <path d="M 485.241246 301.573344 
L 489.366405 301.573344 
L 489.366405 53.606433 
L 485.241246 53.606433 
z
" clip-path="url(#p853f8f69b3)" style="fill: url(#hd5c8204126); stroke: #ff7f0e; stroke-width: 2; stroke-linejoin: miter"/>
   </g>
   <g id="patch_82">
    <path d="M 490.094374 301.573344 
L 494.219534 301.573344 
L 494.219534 53.557806 
L 490.094374 53.557806 
z
" clip-path="url(#p853f8f69b3)" style="fill: url(#hd5c8204126); stroke: #ff7f0e; stroke-width: 2; stroke-linejoin: miter"/>
   </g>
   <g id="patch_83">
    <path d="M 494.947503 301.573344 
L 499.072662 301.573344 
L 499.072662 53.509176 
L 494.947503 53.509176 
z
" clip-path="url(#p853f8f69b3)" style="fill: url(#hd5c8204126); stroke: #ff7f0e; stroke-width: 2; stroke-linejoin: miter"/>
   </g>
   <g id="patch_84">
    <path d="M 499.800631 301.573344 
L 503.925791 301.573344 
L 503.925791 53.460527 
L 499.800631 53.460527 
z
" clip-path="url(#p853f8f69b3)" style="fill: url(#hd5c8204126); stroke: #ff7f0e; stroke-width: 2; stroke-linejoin: miter"/>
   </g>
   <g id="patch_85">
    <path d="M 504.65376 301.573344 
L 508.778919 301.573344 
L 508.778919 53.444301 
L 504.65376 53.444301 
z
" clip-path="url(#p853f8f69b3)" style="fill: url(#hd5c8204126); stroke: #ff7f0e; stroke-width: 2; stroke-linejoin: miter"/>
   </g>
   <g id="patch_86">
    <path d="M 509.506889 301.573344 
L 513.632048 301.573344 
L 513.632048 53.428073 
L 509.506889 53.428073 
z
" clip-path="url(#p853f8f69b3)" style="fill: url(#hd5c8204126); stroke: #ff7f0e; stroke-width: 2; stroke-linejoin: miter"/>
   </g>
   <g id="patch_87">
    <path d="M 514.360017 301.573344 
L 518.485176 301.573344 
L 518.485176 53.314449 
L 514.360017 53.314449 
z
" clip-path="url(#p853f8f69b3)" style="fill: url(#hd5c8204126); stroke: #ff7f0e; stroke-width: 2; stroke-linejoin: miter"/>
   </g>
   <g id="patch_88">
    <path d="M 519.213146 301.573344 
L 523.338305 301.573344 
L 523.338305 53.216978 
L 519.213146 53.216978 
z
" clip-path="url(#p853f8f69b3)" style="fill: url(#hd5c8204126); stroke: #ff7f0e; stroke-width: 2; stroke-linejoin: miter"/>
   </g>
   <g id="patch_89">
    <path d="M 524.066274 301.573344 
L 528.191434 301.573344 
L 528.191434 53.119416 
L 524.066274 53.119416 
z
" clip-path="url(#p853f8f69b3)" style="fill: url(#hd5c8204126); stroke: #ff7f0e; stroke-width: 2; stroke-linejoin: miter"/>
   </g>
   <g id="patch_90">
    <path d="M 528.919403 301.573344 
L 533.044562 301.573344 
L 533.044562 53.086888 
L 528.919403 53.086888 
z
" clip-path="url(#p853f8f69b3)" style="fill: url(#hd5c8204126); stroke: #ff7f0e; stroke-width: 2; stroke-linejoin: miter"/>
   </g>
   <g id="patch_91">
    <path d="M 533.772532 301.573344 
L 537.897691 301.573344 
L 537.897691 53.038073 
L 533.772532 53.038073 
z
" clip-path="url(#p853f8f69b3)" style="fill: url(#hd5c8204126); stroke: #ff7f0e; stroke-width: 2; stroke-linejoin: miter"/>
   </g>
   <g id="patch_92">
    <path d="M 538.62566 301.573344 
L 542.750819 301.573344 
L 542.750819 53.005509 
L 538.62566 53.005509 
z
" clip-path="url(#p853f8f69b3)" style="fill: url(#hd5c8204126); stroke: #ff7f0e; stroke-width: 2; stroke-linejoin: miter"/>
   </g>
   <g id="patch_93">
    <path d="M 543.478789 301.573344 
L 547.603948 301.573344 
L 547.603948 52.989224 
L 543.478789 52.989224 
z
" clip-path="url(#p853f8f69b3)" style="fill: url(#hd5c8204126); stroke: #ff7f0e; stroke-width: 2; stroke-linejoin: miter"/>
   </g>
   <g id="patch_94">
    <path d="M 548.331917 301.573344 
L 552.457077 301.573344 
L 552.457077 52.80999 
L 548.331917 52.80999 
z
" clip-path="url(#p853f8f69b3)" style="fill: url(#hd5c8204126); stroke: #ff7f0e; stroke-width: 2; stroke-linejoin: miter"/>
   </g>
   <g id="patch_95">
    <path d="M 553.185046 301.573344 
L 557.310205 301.573344 
L 557.310205 52.66316 
L 553.185046 52.66316 
z
" clip-path="url(#p853f8f69b3)" style="fill: url(#hd5c8204126); stroke: #ff7f0e; stroke-width: 2; stroke-linejoin: miter"/>
   </g>
   <g id="patch_96">
    <path d="M 558.038174 301.573344 
L 562.163334 301.573344 
L 562.163334 52.66316 
L 558.038174 52.66316 
z
" clip-path="url(#p853f8f69b3)" style="fill: url(#hd5c8204126); stroke: #ff7f0e; stroke-width: 2; stroke-linejoin: miter"/>
   </g>
   <g id="patch_97">
    <path d="M 562.891303 301.573344 
L 567.016462 301.573344 
L 567.016462 52.532489 
L 562.891303 52.532489 
z
" clip-path="url(#p853f8f69b3)" style="fill: url(#hd5c8204126); stroke: #ff7f0e; stroke-width: 2; stroke-linejoin: miter"/>
   </g>
   <g id="patch_98">
    <path d="M 567.744432 301.573344 
L 571.869591 301.573344 
L 571.869591 52.434388 
L 567.744432 52.434388 
z
" clip-path="url(#p853f8f69b3)" style="fill: url(#hd5c8204126); stroke: #ff7f0e; stroke-width: 2; stroke-linejoin: miter"/>
   </g>
   <g id="patch_99">
    <path d="M 572.59756 301.573344 
L 576.72272 301.573344 
L 576.72272 52.401681 
L 572.59756 52.401681 
z
" clip-path="url(#p853f8f69b3)" style="fill: url(#hd5c8204126); stroke: #ff7f0e; stroke-width: 2; stroke-linejoin: miter"/>
   </g>
   <g id="patch_100">
    <path d="M 577.450689 301.573344 
L 581.575848 301.573344 
L 581.575848 52.319852 
L 577.450689 52.319852 
z
" clip-path="url(#p853f8f69b3)" style="fill: url(#hd5c8204126); stroke: #ff7f0e; stroke-width: 2; stroke-linejoin: miter"/>
   </g>
   <g id="patch_101">
    <path d="M 582.303817 301.573344 
L 586.428977 301.573344 
L 586.428977 52.221599 
L 582.303817 52.221599 
z
" clip-path="url(#p853f8f69b3)" style="fill: url(#hd5c8204126); stroke: #ff7f0e; stroke-width: 2; stroke-linejoin: miter"/>
   </g>
   <g id="patch_102">
    <path d="M 587.156946 301.573344 
L 591.282105 301.573344 
L 591.282105 52.05765 
L 587.156946 52.05765 
z
" clip-path="url(#p853f8f69b3)" style="fill: url(#hd5c8204126); stroke: #ff7f0e; stroke-width: 2; stroke-linejoin: miter"/>
   </g>
   <g id="patch_103">
    <path d="M 592.010075 301.573344 
L 596.135234 301.573344 
L 596.135234 51.860637 
L 592.010075 51.860637 
z
" clip-path="url(#p853f8f69b3)" style="fill: url(#hd5c8204126); stroke: #ff7f0e; stroke-width: 2; stroke-linejoin: miter"/>
   </g>
   <g id="patch_104">
    <path d="M 596.863203 301.573344 
L 600.988362 301.573344 
L 600.988362 51.844201 
L 596.863203 51.844201 
z
" clip-path="url(#p853f8f69b3)" style="fill: url(#hd5c8204126); stroke: #ff7f0e; stroke-width: 2; stroke-linejoin: miter"/>
   </g>
   <g id="patch_105">
    <path d="M 601.716332 301.573344 
L 605.841491 301.573344 
L 605.841491 51.745572 
L 601.716332 51.745572 
z
" clip-path="url(#p853f8f69b3)" style="fill: url(#hd5c8204126); stroke: #ff7f0e; stroke-width: 2; stroke-linejoin: miter"/>
   </g>
   <g id="patch_106">
    <path d="M 606.56946 301.573344 
L 610.69462 301.573344 
L 610.69462 51.613936 
L 606.56946 51.613936 
z
" clip-path="url(#p853f8f69b3)" style="fill: url(#hd5c8204126); stroke: #ff7f0e; stroke-width: 2; stroke-linejoin: miter"/>
   </g>
   <g id="patch_107">
    <path d="M 611.422589 301.573344 
L 615.547748 301.573344 
L 615.547748 51.366747 
L 611.422589 51.366747 
z
" clip-path="url(#p853f8f69b3)" style="fill: url(#hd5c8204126); stroke: #ff7f0e; stroke-width: 2; stroke-linejoin: miter"/>
   </g>
   <g id="patch_108">
    <path d="M 616.275718 301.573344 
L 620.400877 301.573344 
L 620.400877 51.234711 
L 616.275718 51.234711 
z
" clip-path="url(#p853f8f69b3)" style="fill: url(#hd5c8204126); stroke: #ff7f0e; stroke-width: 2; stroke-linejoin: miter"/>
   </g>
   <g id="patch_109">
    <path d="M 621.128846 301.573344 
L 625.254005 301.573344 
L 625.254005 51.019851 
L 621.128846 51.019851 
z
" clip-path="url(#p853f8f69b3)" style="fill: url(#hd5c8204126); stroke: #ff7f0e; stroke-width: 2; stroke-linejoin: miter"/>
   </g>
   <g id="patch_110">
    <path d="M 625.981975 301.573344 
L 630.107134 301.573344 
L 630.107134 50.887448 
L 625.981975 50.887448 
z
" clip-path="url(#p853f8f69b3)" style="fill: url(#hd5c8204126); stroke: #ff7f0e; stroke-width: 2; stroke-linejoin: miter"/>
   </g>
   <g id="patch_111">
    <path d="M 630.835103 301.573344 
L 634.960263 301.573344 
L 634.960263 50.754921 
L 630.835103 50.754921 
z
" clip-path="url(#p853f8f69b3)" style="fill: url(#hd5c8204126); stroke: #ff7f0e; stroke-width: 2; stroke-linejoin: miter"/>
   </g>
   <g id="patch_112">
    <path d="M 635.688232 301.573344 
L 639.813391 301.573344 
L 639.813391 50.439558 
L 635.688232 50.439558 
z
" clip-path="url(#p853f8f69b3)" style="fill: url(#hd5c8204126); stroke: #ff7f0e; stroke-width: 2; stroke-linejoin: miter"/>
   </g>
   <g id="patch_113">
    <path d="M 640.54136 301.573344 
L 644.66652 301.573344 
L 644.66652 49.90666 
L 640.54136 49.90666 
z
" clip-path="url(#p853f8f69b3)" style="fill: url(#hd5c8204126); stroke: #ff7f0e; stroke-width: 2; stroke-linejoin: miter"/>
   </g>
   <g id="patch_114">
    <path d="M 645.394489 301.573344 
L 649.519648 301.573344 
L 649.519648 48.732997 
L 645.394489 48.732997 
z
" clip-path="url(#p853f8f69b3)" style="fill: url(#hd5c8204126); stroke: #ff7f0e; stroke-width: 2; stroke-linejoin: miter"/>
   </g>
   <g id="patch_115">
    <path d="M 650.247618 301.573344 
L 654.372777 301.573344 
L 654.372777 48.682456 
L 650.247618 48.682456 
z
" clip-path="url(#p853f8f69b3)" style="fill: url(#hd5c8204126); stroke: #ff7f0e; stroke-width: 2; stroke-linejoin: miter"/>
   </g>
   <g id="patch_116">
    <path d="M 655.100746 301.573344 
L 659.225906 301.573344 
L 659.225906 48.023533 
L 655.100746 48.023533 
z
" clip-path="url(#p853f8f69b3)" style="fill: url(#hd5c8204126); stroke: #ff7f0e; stroke-width: 2; stroke-linejoin: miter"/>
   </g>
   <g id="patch_117">
    <path d="M 659.953875 301.573344 
L 664.079034 301.573344 
L 664.079034 47.12254 
L 659.953875 47.12254 
z
" clip-path="url(#p853f8f69b3)" style="fill: url(#hd5c8204126); stroke: #ff7f0e; stroke-width: 2; stroke-linejoin: miter"/>
   </g>
   <g id="line2d_26">
    <path d="M 78.828125 54.285039 
L 691.948125 54.285039 
" clip-path="url(#p853f8f69b3)" style="fill: none; stroke-dasharray: 4.44,1.92; stroke-dashoffset: 0; stroke: #f58518; stroke-width: 1.2"/>
   </g>
   <g id="patch_118">
    <path d="M 78.828125 301.573344 
L 78.828125 34.4 
" style="fill: none; stroke: #808080; stroke-width: 0.8; stroke-linejoin: miter; stroke-linecap: square"/>
   </g>
   <g id="patch_119">
    <path d="M 78.828125 301.573344 
L 691.948125 301.573344 
" style="fill: none; stroke: #808080; stroke-width: 0.8; stroke-linejoin: miter; stroke-linecap: square"/>
   </g>
   <g id="text_23">
    <text style="font: 22px 'PingFang SC', 'Heiti SC', 'STHeiti', 'Calibri', 'Arial', 'Helvetica Neue', 'Arial Unicode MS', 'Noto Sans CJK SC', 'DejaVu Sans', sans-serif; text-anchor: middle" x="385.388125" y="28.4" transform="rotate(-0 385.388125 28.4)">排序条形 · GEMM func TFLOPS</text>
   </g>
   <g id="legend_1">
    <g id="patch_120">
     <path d="M 87.228125 61.16 
L 208.01 61.16 
Q 210.41 61.16 210.41 58.76 
L 210.41 42.8 
Q 210.41 40.4 208.01 40.4 
L 87.228125 40.4 
Q 84.828125 40.4 84.828125 42.8 
L 84.828125 58.76 
Q 84.828125 61.16 87.228125 61.16 
z
" style="fill: #ffffff; opacity: 0.5; stroke: #cccccc; stroke-linejoin: miter"/>
    </g>
    <g id="line2d_27">
     <path d="M 89.628125 50.55125 
L 101.628125 50.55125 
L 113.628125 50.55125 
" style="fill: none; stroke-dasharray: 4.44,1.92; stroke-dashoffset: 0; stroke: #f58518; stroke-width: 1.2"/>
    </g>
    <g id="text_24">
     <text style="font: 12px 'PingFang SC', 'Heiti SC', 'STHeiti', 'Calibri', 'Arial', 'Helvetica Neue', 'Arial Unicode MS', 'Noto Sans CJK SC', 'DejaVu Sans', sans-serif; text-anchor: start" x="123.228125" y="54.75125" transform="rotate(-0 123.228125 54.75125)">median=279.9</text>
    </g>
   </g>
  </g>
 </g>
 <defs>
  <clipPath id="p853f8f69b3">
   <rect x="78.828125" y="34.4" width="613.12" height="267.173344"/>
  </clipPath>
 </defs>
 <defs>
  <pattern id="hff3c3afa26" patternUnits="userSpaceOnUse" x="0" y="0" width="72" height="72">
   <rect x="0" y="0" width="73" height="73" fill="none"/>
   <path d="M -36 36 
L 36 -36 
M -30 42 
L 42 -30 
M -24 48 
L 48 -24 
M -18 54 
L 54 -18 
M -12 60 
L 60 -12 
M -6 66 
L 66 -6 
M 0 72 
L 72 0 
M 6 78 
L 78 6 
M 12 84 
L 84 12 
M 18 90 
L 90 18 
M 24 96 
L 96 24 
M 30 102 
L 102 30 
M 36 108 
L 108 36 
M -36 36 
L 36 108 
M -30 30 
L 42 102 
M -24 24 
L 48 96 
M -18 18 
L 54 90 
M -12 12 
L 60 84 
M -6 6 
L 66 78 
M 0 0 
L 72 72 
M 6 -6 
L 78 66 
M 12 -12 
L 84 60 
M 18 -18 
L 90 54 
M 24 -24 
L 96 48 
M 30 -30 
L 102 42 
M 36 -36 
L 108 36 
" style="fill: #2ca02c; stroke: #2ca02c; stroke-width: 1.0; stroke-linecap: butt; stroke-linejoin: miter"/>
  </pattern>
  <pattern id="hd5c8204126" patternUnits="userSpaceOnUse" x="0" y="0" width="72" height="72">
   <rect x="0" y="0" width="73" height="73" fill="none"/>
   <path d="M -36 36 
L 36 -36 
M -30 42 
L 42 -30 
M -24 48 
L 48 -24 
M -18 54 
L 54 -18 
M -12 60 
L 60 -12 
M -6 66 
L 66 -6 
M 0 72 
L 72 0 
M 6 78 
L 78 6 
M 12 84 
L 84 12 
M 18 90 
L 90 18 
M 24 96 
L 96 24 
M 30 102 
L 102 30 
M 36 108 
L 108 36 
" style="fill: #ff7f0e; stroke: #ff7f0e; stroke-width: 1.0; stroke-linecap: butt; stroke-linejoin: miter"/>
  </pattern>
 </defs>
</svg>
