<?xml version="1.0" encoding="utf-8" standalone="no"?>
<!DOCTYPE svg PUBLIC "-//W3C//DTD SVG 1.1//EN"
  "http://www.w3.org/Graphics/SVG/1.1/DTD/svg11.dtd">
<svg xmlns:xlink="http://www.w3.org/1999/xlink" width="702.785625pt" height="342.906875pt" viewBox="0 0 702.785625 342.906875" xmlns="http://www.w3.org/2000/svg" version="1.1">
 <metadata>
  <rdf:RDF xmlns:dc="http://purl.org/dc/elements/1.1/" xmlns:cc="http://creativecommons.org/ns#" xmlns:rdf="http://www.w3.org/1999/02/22-rdf-syntax-ns#">
   <cc:Work>
    <dc:type rdf:resource="http://purl.org/dc/dcmitype/StillImage"/>
    <dc:date>2026-07-11T23:31:20.225327</dc:date>
    <dc:format>image/svg+xml</dc:format>
    <dc:creator>
     <cc:Agent>
      <dc:title>Matplotlib v3.9.4, https://matplotlib.org/</dc:title>
     </cc:Agent>
    </dc:creator>
   </cc:Work>
  </rdf:RDF>
 </metadata>
 <defs>
  <style type="text/css">*{stroke-linejoin: round; stroke-linecap: butt}</style>
 </defs>
 <g id="figure_1">
  <g id="patch_1">
   <path d="M 0 342.906875 
L 702.785625 342.906875 
L 702.785625 0 
L 0 0 
z
" style="fill: #ffffff"/>
  </g>
  <g id="axes_1">
   <g id="patch_2">
    <path d="M 78.828125 279.238125 
L 691.985625 279.238125 
L 691.985625 35.080625 
L 78.828125 35.080625 
z
" style="fill: #ffffff"/>
   </g>
   <g id="matplotlib.axis_1">
    <g id="xtick_1">
     <g id="line2d_1">
      <defs>
       <path id="m05ddedcf50" d="M 0 0 
L 0 3.5 
" style="stroke: #808080; stroke-width: 0.8"/>
      </defs>
      <g>
       <use xlink:href="#m05ddedcf50" x="102.554298" y="279.238125" style="fill: #808080; stroke: #808080; stroke-width: 0.8"/>
      </g>
     </g>
     <g id="text_1">
      <text style="fill: #808080; font: 22px 'PingFang SC', 'Heiti SC', 'STHeiti', 'Calibri', 'Arial', 'Helvetica Neue', 'Arial Unicode MS', 'Noto Sans CJK SC', 'DejaVu Sans', sans-serif; text-anchor: middle" x="102.554298" y="303.74875" transform="rotate(-0 102.554298 303.74875)">0</text>
     </g>
    </g>
    <g id="xtick_2">
     <g id="line2d_2">
      <g>
       <use xlink:href="#m05ddedcf50" x="197.884381" y="279.238125" style="fill: #808080; stroke: #808080; stroke-width: 0.8"/>
      </g>
     </g>
     <g id="text_2">
      <text style="fill: #808080; font: 22px 'PingFang SC', 'Heiti SC', 'STHeiti', 'Calibri', 'Arial', 'Helvetica Neue', 'Arial Unicode MS', 'Noto Sans CJK SC', 'DejaVu Sans', sans-serif; text-anchor: middle" x="197.884381" y="303.74875" transform="rotate(-0 197.884381 303.74875)">5</text>
     </g>
    </g>
    <g id="xtick_3">
     <g id="line2d_3">
      <g>
       <use xlink:href="#m05ddedcf50" x="293.214464" y="279.238125" style="fill: #808080; stroke: #808080; stroke-width: 0.8"/>
      </g>
     </g>
     <g id="text_3">
      <text style="fill: #808080; font: 22px 'PingFang SC', 'Heiti SC', 'STHeiti', 'Calibri', 'Arial', 'Helvetica Neue', 'Arial Unicode MS', 'Noto Sans CJK SC', 'DejaVu Sans', sans-serif; text-anchor: middle" x="293.214464" y="303.74875" transform="rotate(-0 293.214464 303.74875)">10</text>
     </g>
    </g>
    <g id="xtick_4">
     <g id="line2d_4">
      <g>
       <use xlink:href="#m05ddedcf50" x="388.544547" y="279.238125" style="fill: #808080; stroke: #808080; stroke-width: 0.8"/>
      </g>
     </g>
     <g id="text_4">
      <text style="fill: #808080; font: 22px 'PingFang SC', 'Heiti SC', 'STHeiti', 'Calibri', 'Arial', 'Helvetica Neue', 'Arial Unicode MS', 'Noto Sans CJK SC', 'DejaVu Sans', sans-serif; text-anchor: middle" x="388.544547" y="303.74875" transform="rotate(-0 388.544547 303.74875)">15</text>
     </g>
    </g>
    <g id="xtick_5">
     <g id="line2d_5">
      <g>
       <use xlink:href="#m05ddedcf50" x="483.87463" y="279.238125" style="fill: #808080; stroke: #808080; stroke-width: 0.8"/>
      </g>
     </g>
     <g id="text_5">
      <text style="fill: #808080; font: 22px 'PingFang SC', 'Heiti SC', 'STHeiti', 'Calibri', 'Arial', 'Helvetica Neue', 'Arial Unicode MS', 'Noto Sans CJK SC', 'DejaVu Sans', sans-serif; text-anchor: middle" x="483.87463" y="303.74875" transform="rotate(-0 483.87463 303.74875)">20</text>
     </g>
    </g>
    <g id="xtick_6">
     <g id="line2d_6">
      <g>
       <use xlink:href="#m05ddedcf50" x="579.204713" y="279.238125" style="fill: #808080; stroke: #808080; stroke-width: 0.8"/>
      </g>
     </g>
     <g id="text_6">
      <text style="fill: #808080; font: 22px 'PingFang SC', 'Heiti SC', 'STHeiti', 'Calibri', 'Arial', 'Helvetica Neue', 'Arial Unicode MS', 'Noto Sans CJK SC', 'DejaVu Sans', sans-serif; text-anchor: middle" x="579.204713" y="303.74875" transform="rotate(-0 579.204713 303.74875)">25</text>
     </g>
    </g>
    <g id="xtick_7">
     <g id="line2d_7">
      <g>
       <use xlink:href="#m05ddedcf50" x="674.534796" y="279.238125" style="fill: #808080; stroke: #808080; stroke-width: 0.8"/>
      </g>
     </g>
     <g id="text_7">
      <text style="fill: #808080; font: 22px 'PingFang SC', 'Heiti SC', 'STHeiti', 'Calibri', 'Arial', 'Helvetica Neue', 'Arial Unicode MS', 'Noto Sans CJK SC', 'DejaVu Sans', sans-serif; text-anchor: middle" x="674.534796" y="303.74875" transform="rotate(-0 674.534796 303.74875)">30</text>
     </g>
    </g>
    <g id="text_8">
     <text style="font: 22px 'PingFang SC', 'Heiti SC', 'STHeiti', 'Calibri', 'Arial', 'Helvetica Neue', 'Arial Unicode MS', 'Noto Sans CJK SC', 'DejaVu Sans', sans-serif; text-anchor: middle" x="385.406875" y="329.1575" transform="rotate(-0 385.406875 329.1575)">t (s)  ·  由各卡 sample.t_s 在同 iter 上取中位</text>
    </g>
   </g>
   <g id="matplotlib.axis_2">
    <g id="ytick_1">
     <g id="line2d_8">
      <path d="M 78.828125 257.617132 
L 691.985625 257.617132 
" clip-path="url(#pbc554a492d)" style="fill: none; stroke-dasharray: 1,1.65; stroke-dashoffset: 0; stroke: #808080; stroke-opacity: 0.55"/>
     </g>
     <g id="line2d_9">
      <defs>
       <path id="m705de3dac3" d="M 0 0 
L -3.5 0 
" style="stroke: #808080; stroke-width: 0.8"/>
      </defs>
      <g>
       <use xlink:href="#m705de3dac3" x="78.828125" y="257.617132" style="fill: #808080; stroke: #808080; stroke-width: 0.8"/>
      </g>
     </g>
     <g id="text_9">
      <text style="fill: #808080; font: 22px 'PingFang SC', 'Heiti SC', 'STHeiti', 'Calibri', 'Arial', 'Helvetica Neue', 'Arial Unicode MS', 'Noto Sans CJK SC', 'DejaVu Sans', sans-serif; text-anchor: end" x="71.828125" y="266.372444" transform="rotate(-0 71.828125 266.372444)">260</text>
     </g>
    </g>
    <g id="ytick_2">
     <g id="line2d_10">
      <path d="M 78.828125 202.677333 
L 691.985625 202.677333 
" clip-path="url(#pbc554a492d)" style="fill: none; stroke-dasharray: 1,1.65; stroke-dashoffset: 0; stroke: #808080; stroke-opacity: 0.55"/>
     </g>
     <g id="line2d_11">
      <g>
       <use xlink:href="#m705de3dac3" x="78.828125" y="202.677333" style="fill: #808080; stroke: #808080; stroke-width: 0.8"/>
      </g>
     </g>
     <g id="text_10">
      <text style="fill: #808080; font: 22px 'PingFang SC', 'Heiti SC', 'STHeiti', 'Calibri', 'Arial', 'Helvetica Neue', 'Arial Unicode MS', 'Noto Sans CJK SC', 'DejaVu Sans', sans-serif; text-anchor: end" x="71.828125" y="211.432646" transform="rotate(-0 71.828125 211.432646)">270</text>
     </g>
    </g>
    <g id="ytick_3">
     <g id="line2d_12">
      <path d="M 78.828125 147.737534 
L 691.985625 147.737534 
" clip-path="url(#pbc554a492d)" style="fill: none; stroke-dasharray: 1,1.65; stroke-dashoffset: 0; stroke: #808080; stroke-opacity: 0.55"/>
     </g>
     <g id="line2d_13">
      <g>
       <use xlink:href="#m705de3dac3" x="78.828125" y="147.737534" style="fill: #808080; stroke: #808080; stroke-width: 0.8"/>
      </g>
     </g>
     <g id="text_11">
      <text style="fill: #808080; font: 22px 'PingFang SC', 'Heiti SC', 'STHeiti', 'Calibri', 'Arial', 'Helvetica Neue', 'Arial Unicode MS', 'Noto Sans CJK SC', 'DejaVu Sans', sans-serif; text-anchor: end" x="71.828125" y="156.492847" transform="rotate(-0 71.828125 156.492847)">280</text>
     </g>
    </g>
    <g id="ytick_4">
     <g id="line2d_14">
      <path d="M 78.828125 92.797736 
L 691.985625 92.797736 
" clip-path="url(#pbc554a492d)" style="fill: none; stroke-dasharray: 1,1.65; stroke-dashoffset: 0; stroke: #808080; stroke-opacity: 0.55"/>
     </g>
     <g id="line2d_15">
      <g>
       <use xlink:href="#m705de3dac3" x="78.828125" y="92.797736" style="fill: #808080; stroke: #808080; stroke-width: 0.8"/>
      </g>
     </g>
     <g id="text_12">
      <text style="fill: #808080; font: 22px 'PingFang SC', 'Heiti SC', 'STHeiti', 'Calibri', 'Arial', 'Helvetica Neue', 'Arial Unicode MS', 'Noto Sans CJK SC', 'DejaVu Sans', sans-serif; text-anchor: end" x="71.828125" y="101.553048" transform="rotate(-0 71.828125 101.553048)">290</text>
     </g>
    </g>
    <g id="ytick_5">
     <g id="line2d_16">
      <path d="M 78.828125 37.857937 
L 691.985625 37.857937 
" clip-path="url(#pbc554a492d)" style="fill: none; stroke-dasharray: 1,1.65; stroke-dashoffset: 0; stroke: #808080; stroke-opacity: 0.55"/>
     </g>
     <g id="line2d_17">
      <g>
       <use xlink:href="#m705de3dac3" x="78.828125" y="37.857937" style="fill: #808080; stroke: #808080; stroke-width: 0.8"/>
      </g>
     </g>
     <g id="text_13">
      <text style="fill: #808080; font: 22px 'PingFang SC', 'Heiti SC', 'STHeiti', 'Calibri', 'Arial', 'Helvetica Neue', 'Arial Unicode MS', 'Noto Sans CJK SC', 'DejaVu Sans', sans-serif; text-anchor: end" x="71.828125" y="46.61325" transform="rotate(-0 71.828125 46.61325)">300</text>
     </g>
    </g>
    <g id="text_14">
     <text style="font: 22px 'PingFang SC', 'Heiti SC', 'STHeiti', 'Calibri', 'Arial', 'Helvetica Neue', 'Arial Unicode MS', 'Noto Sans CJK SC', 'DejaVu Sans', sans-serif; text-anchor: middle" x="28.310625" y="157.159375" transform="rotate(-90 28.310625 157.159375)">TFLOPS</text>
    </g>
   </g>
   <g id="line2d_18">
    <path d="M 106.69892 105.788378 
L 110.506952 193.388918 
L 114.26431 176.984981 
L 118.110479 192.703108 
L 121.861134 176.749555 
L 125.731871 192.38544 
L 129.431106 176.840236 
L 133.288081 192.80709 
L 137.058305 177.13752 
L 140.876247 192.701193 
L 144.648937 176.915489 
L 148.500682 192.665365 
L 152.23505 176.925153 
L 156.086937 192.74851 
L 159.825226 181.649303 
L 163.666231 192.701193 
L 167.406441 176.828614 
L 171.233968 193.171756 
L 174.976652 177.858842 
L 178.785207 192.82027 
L 182.547843 193.013095 
L 186.349698 192.587844 
L 190.124397 176.610521 
L 193.916328 192.928064 
L 197.715987 177.00822 
L 201.478722 192.827817 
L 205.273664 186.361126 
L 209.055973 193.003635 
L 212.880956 193.417282 
L 216.701305 193.162298 
L 220.497786 264.742574 
L 224.35318 208.132379 
L 228.146928 219.780983 
L 231.942405 205.21255 
L 235.714775 209.379032 
L 239.53548 209.776279 
L 243.314735 193.375748 
L 247.127004 218.996903 
L 250.915788 193.048907 
L 254.736064 192.79008 
L 258.518814 177.056423 
L 262.313916 192.982801 
L 266.094594 176.680041 
L 269.898703 192.710656 
L 273.673902 206.595952 
L 277.480462 192.965795 
L 281.281632 176.720554 
L 285.073446 192.667167 
L 288.869419 176.840236 
L 292.644116 192.880758 
L 300.223189 192.850571 
L 304.049962 176.606607 
L 307.796904 192.601027 
L 311.667027 192.546263 
L 315.384275 192.937413 
L 319.235823 176.851858 
L 322.977575 192.971426 
L 326.824329 183.892242 
L 330.571908 193.319014 
L 334.404413 203.474519 
L 338.160406 202.206637 
L 341.965169 207.039235 
L 345.734884 248.375713 
L 349.538984 212.551148 
L 353.328381 216.5301 
L 357.123385 204.671502 
L 360.891103 208.461805 
L 364.729473 207.194929 
L 368.463064 192.997892 
L 372.321929 179.13791 
L 376.044284 193.200017 
L 379.891584 185.499027 
L 383.623618 192.997892 
L 387.468286 176.687753 
L 391.200958 193.15284 
L 398.767468 193.043276 
L 402.600091 176.730221 
L 406.353668 192.843024 
L 410.188939 184.355044 
L 413.938319 192.672913 
L 417.760491 176.969564 
L 421.510522 192.946873 
L 425.336165 193.232217 
L 429.091138 192.731499 
L 432.913783 182.699795 
L 436.675393 193.081001 
L 440.510046 196.315935 
L 444.259696 192.659618 
L 448.098705 193.133924 
L 451.851798 199.283984 
L 455.686098 202.077816 
L 459.431501 224.945208 
L 463.280965 255.982272 
L 467.052559 205.827481 
L 470.876268 268.140057 
L 474.650429 209.46958 
L 478.474581 193.232217 
L 482.243782 192.846741 
L 486.052412 183.306865 
L 489.827716 192.846741 
L 493.636818 176.710886 
L 497.478465 193.147211 
L 501.224805 184.731479 
L 505.05972 192.909142 
L 508.79819 178.321463 
L 512.645717 192.901596 
L 516.379254 192.289065 
L 520.237421 192.650154 
L 523.973621 186.864307 
L 527.822711 193.411654 
L 531.558429 176.683839 
L 535.438275 191.772599 
L 539.155279 232.881596 
L 543.016096 193.084829 
L 546.745911 177.183758 
L 550.591461 192.262574 
L 554.498454 208.409962 
L 558.273665 192.96388 
L 562.078789 176.645282 
L 565.862359 193.088658 
L 569.702868 205.695634 
L 573.481165 199.229597 
L 577.302799 188.72881 
L 581.06895 268.109382 
L 584.890476 214.233065 
L 588.662704 193.084829 
L 592.477499 210.012742 
L 596.265051 207.328387 
L 600.066827 208.121234 
L 603.85743 193.135838 
L 607.662374 185.037044 
L 611.454736 194.147753 
L 615.243913 184.809704 
L 619.046361 192.701193 
L 622.826835 183.813922 
L 626.64433 192.96388 
L 630.400318 177.287957 
L 634.222578 192.875126 
L 637.984708 181.614772 
L 641.862489 193.232217 
L 645.695788 176.774643 
L 649.410219 192.739047 
L 653.127016 182.080806 
L 656.732512 183.697167 
L 660.416838 176.598895 
L 664.11483 184.060598 
L 664.11483 184.060598 
" clip-path="url(#pbc554a492d)" style="fill: none; stroke: #e45756; stroke-width: 1.6; stroke-linecap: square"/>
   </g>
   <g id="line2d_19">
    <path d="M 106.69892 46.178693 
L 110.506952 176.819063 
L 114.26431 101.50971 
L 118.110479 176.040534 
L 121.861134 102.963911 
L 125.731871 176.02314 
L 129.431106 104.773778 
L 133.288081 175.972913 
L 137.058305 117.578115 
L 140.876247 174.599371 
L 144.648937 117.988892 
L 148.500682 169.343515 
L 152.23505 117.296684 
L 156.086937 171.452231 
L 159.825226 118.284728 
L 163.666231 168.436253 
L 167.406441 120.259192 
L 171.233968 161.111869 
L 174.976652 124.588242 
L 178.785207 160.289527 
L 182.547843 129.893585 
L 186.349698 155.970057 
L 190.124397 121.490508 
L 193.916328 162.989959 
L 197.715987 128.661129 
L 201.478722 147.947257 
L 205.273664 134.463495 
L 209.055973 162.842517 
L 212.880956 148.869028 
L 216.701305 163.021366 
L 220.497786 146.455896 
L 224.35318 163.809394 
L 228.146928 144.756321 
L 231.942405 166.751769 
L 235.714775 141.277176 
L 239.53548 149.647677 
L 243.314735 142.675579 
L 247.127004 153.571117 
L 250.915788 139.916816 
L 254.736064 153.827942 
L 258.518814 141.932247 
L 262.313916 154.78047 
L 266.094594 145.840852 
L 269.898703 157.642998 
L 273.673902 139.203341 
L 277.480462 157.106189 
L 281.281632 141.631171 
L 285.073446 149.703724 
L 288.869419 144.983836 
L 292.644116 147.439734 
L 296.453351 142.970353 
L 300.223189 142.067627 
L 304.049962 145.01611 
L 307.796904 150.741414 
L 311.667027 145.486985 
L 315.384275 164.076492 
L 319.235823 159.306279 
L 326.824329 173.050683 
L 330.571908 176.094673 
L 334.404413 170.430753 
L 338.160406 175.754457 
L 341.965169 174.334107 
L 345.734884 175.764137 
L 349.538984 163.75238 
L 353.328381 175.986507 
L 357.123385 170.288579 
L 360.891103 175.570749 
L 364.729473 170.810257 
L 368.463064 175.764137 
L 372.321929 167.629597 
L 376.044284 173.132211 
L 379.891584 158.788549 
L 383.623618 150.051723 
L 387.468286 158.547294 
L 391.200958 162.948706 
L 395.027766 154.496234 
L 398.767468 164.333552 
L 402.600091 150.315687 
L 406.353668 156.737512 
L 410.188939 144.816806 
L 413.938319 155.159918 
L 417.760491 139.503431 
L 421.510522 151.090967 
L 425.336165 146.935945 
L 429.091138 147.726595 
L 432.913783 146.399611 
L 436.675393 152.652959 
L 440.510046 158.115979 
L 444.259696 152.676953 
L 448.098705 150.633516 
L 451.851798 155.050745 
L 455.686098 154.605605 
L 459.431501 155.505568 
L 463.280965 150.7014 
L 467.052559 152.170526 
L 470.876268 144.728237 
L 474.650429 149.599735 
L 478.474581 150.099756 
L 482.243782 155.173889 
L 486.052412 146.729118 
L 489.827716 148.424347 
L 493.636818 144.474475 
L 497.478465 154.440536 
L 501.224805 143.18216 
L 505.05972 156.434145 
L 508.79819 142.859315 
L 512.645717 152.571228 
L 516.379254 153.063381 
L 520.237421 154.57776 
L 523.973621 142.55848 
L 527.822711 155.102373 
L 531.558429 149.409608 
L 535.438275 162.179496 
L 539.155279 143.853761 
L 543.016096 155.569118 
L 546.745911 152.110736 
L 550.591461 170.274882 
L 554.498454 143.01474 
L 558.273665 174.214026 
L 562.078789 146.343442 
L 565.862359 175.959434 
L 569.702868 151.168808 
L 573.481165 174.622684 
L 577.302799 161.021286 
L 581.06895 166.843655 
L 584.890476 164.794686 
L 588.662704 173.880703 
L 592.477499 166.39753 
L 596.265051 173.252464 
L 600.066827 162.69106 
L 603.85743 170.364486 
L 607.662374 148.837035 
L 611.454736 166.274202 
L 615.243913 135.603239 
L 619.046361 168.061379 
L 622.826835 148.422316 
L 630.400318 160.238248 
L 634.222578 158.185326 
L 637.984708 147.006191 
L 641.862489 155.054653 
L 645.695788 143.809423 
L 649.410219 150.028778 
L 653.127016 148.496487 
L 656.732512 146.291102 
L 660.416838 151.10354 
L 664.11483 150.016797 
L 664.11483 150.016797 
" clip-path="url(#pbc554a492d)" style="fill: none; stroke: #4c78a8; stroke-width: 1.8; stroke-linecap: square"/>
   </g>
   <g id="patch_3">
    <path d="M 78.828125 279.238125 
L 78.828125 35.080625 
" style="fill: none; stroke: #808080; stroke-width: 0.8; stroke-linejoin: miter; stroke-linecap: square"/>
   </g>
   <g id="patch_4">
    <path d="M 78.828125 279.238125 
L 691.985625 279.238125 
" style="fill: none; stroke: #808080; stroke-width: 0.8; stroke-linejoin: miter; stroke-linecap: square"/>
   </g>
   <g id="text_15">
    <text style="font: 22px 'PingFang SC', 'Heiti SC', 'STHeiti', 'Calibri', 'Arial', 'Helvetica Neue', 'Arial Unicode MS', 'Noto Sans CJK SC', 'DejaVu Sans', sans-serif; text-anchor: middle" x="385.406875" y="29.080625" transform="rotate(-0 385.406875 29.080625)">Sustained GEMM 时序 · 跨卡 p05 / p50（按 iter 对齐）</text>
   </g>
   <g id="legend_1">
    <g id="patch_5">
     <path d="M 560.38125 79.000625 
L 683.585625 79.000625 
Q 685.985625 79.000625 685.985625 76.600625 
L 685.985625 43.480625 
Q 685.985625 41.080625 683.585625 41.080625 
L 560.38125 41.080625 
Q 557.98125 41.080625 557.98125 43.480625 
L 557.98125 76.600625 
Q 557.98125 79.000625 560.38125 79.000625 
z
" style="fill: #ffffff; opacity: 0.5; stroke: #cccccc; stroke-linejoin: miter"/>
    </g>
    <g id="line2d_20">
     <path d="M 562.78125 51.231875 
L 574.78125 51.231875 
L 586.78125 51.231875 
" style="fill: none; stroke: #e45756; stroke-width: 1.6; stroke-linecap: square"/>
    </g>
    <g id="text_16">
     <text style="font: 12px 'PingFang SC', 'Heiti SC', 'STHeiti', 'Calibri', 'Arial', 'Helvetica Neue', 'Arial Unicode MS', 'Noto Sans CJK SC', 'DejaVu Sans', sans-serif; text-anchor: start" x="596.38125" y="55.431875" transform="rotate(-0 596.38125 55.431875)">cross-card p05</text>
    </g>
    <g id="line2d_21">
     <path d="M 562.78125 68.391875 
L 574.78125 68.391875 
L 586.78125 68.391875 
" style="fill: none; stroke: #4c78a8; stroke-width: 1.8; stroke-linecap: square"/>
    </g>
    <g id="text_17">
     <text style="font: 12px 'PingFang SC', 'Heiti SC', 'STHeiti', 'Calibri', 'Arial', 'Helvetica Neue', 'Arial Unicode MS', 'Noto Sans CJK SC', 'DejaVu Sans', sans-serif; text-anchor: start" x="596.38125" y="72.591875" transform="rotate(-0 596.38125 72.591875)">cross-card p50</text>
    </g>
   </g>
  </g>
 </g>
 <defs>
  <clipPath id="pbc554a492d">
   <rect x="78.828125" y="35.080625" width="613.1575" height="244.1575"/>
  </clipPath>
 </defs>
</svg>
