<?xml version="1.0" encoding="utf-8" standalone="no"?>
<!DOCTYPE svg PUBLIC "-//W3C//DTD SVG 1.1//EN"
  "http://www.w3.org/Graphics/SVG/1.1/DTD/svg11.dtd">
<svg xmlns:xlink="http://www.w3.org/1999/xlink" width="702.9525pt" height="414.8025pt" viewBox="0 0 702.9525 414.8025" xmlns="http://www.w3.org/2000/svg" version="1.1">
 <metadata>
  <rdf:RDF xmlns:dc="http://purl.org/dc/elements/1.1/" xmlns:cc="http://creativecommons.org/ns#" xmlns:rdf="http://www.w3.org/1999/02/22-rdf-syntax-ns#">
   <cc:Work>
    <dc:type rdf:resource="http://purl.org/dc/dcmitype/StillImage"/>
    <dc:date>2026-07-11T21:18:46.502303</dc:date>
    <dc:format>image/svg+xml</dc:format>
    <dc:creator>
     <cc:Agent>
      <dc:title>Matplotlib v3.9.4, https://matplotlib.org/</dc:title>
     </cc:Agent>
    </dc:creator>
   </cc:Work>
  </rdf:RDF>
 </metadata>
 <defs>
  <style type="text/css">*{stroke-linejoin: round; stroke-linecap: butt}</style>
 </defs>
 <g id="figure_1">
  <g id="patch_1">
   <path d="M 0 414.8025 
L 702.9525 414.8025 
L 702.9525 0 
L 0 0 
z
" style="fill: #ffffff"/>
  </g>
  <g id="axes_1">
   <g id="patch_2">
    <path d="M 67.2575 352.0825 
L 692.1525 352.0825 
L 692.1525 34.640625 
L 67.2575 34.640625 
z
" style="fill: #ffffff"/>
   </g>
   <g id="matplotlib.axis_1">
    <g id="xtick_1">
     <g id="line2d_1">
      <defs>
       <path id="m8b12e9d08e" d="M 0 0 
L 0 3.5 
" style="stroke: #808080; stroke-width: 0.8"/>
      </defs>
      <g>
       <use xlink:href="#m8b12e9d08e" x="136.239416" y="352.0825" style="fill: #808080; stroke: #808080; stroke-width: 0.8"/>
      </g>
     </g>
     <g id="text_1">
      <text style="fill: #808080; font: 22px 'PingFang SC', 'Heiti SC', 'STHeiti', 'Calibri', 'Arial', 'Helvetica Neue', 'Arial Unicode MS', 'Noto Sans CJK SC', 'DejaVu Sans', sans-serif; text-anchor: middle" x="136.239416" y="376.593125" transform="rotate(-0 136.239416 376.593125)">16</text>
     </g>
    </g>
    <g id="xtick_2">
     <g id="line2d_2">
      <g>
       <use xlink:href="#m8b12e9d08e" x="298.549805" y="352.0825" style="fill: #808080; stroke: #808080; stroke-width: 0.8"/>
      </g>
     </g>
     <g id="text_2">
      <text style="fill: #808080; font: 22px 'PingFang SC', 'Heiti SC', 'STHeiti', 'Calibri', 'Arial', 'Helvetica Neue', 'Arial Unicode MS', 'Noto Sans CJK SC', 'DejaVu Sans', sans-serif; text-anchor: middle" x="298.549805" y="376.593125" transform="rotate(-0 298.549805 376.593125)">32</text>
     </g>
    </g>
    <g id="xtick_3">
     <g id="line2d_3">
      <g>
       <use xlink:href="#m8b12e9d08e" x="460.860195" y="352.0825" style="fill: #808080; stroke: #808080; stroke-width: 0.8"/>
      </g>
     </g>
     <g id="text_3">
      <text style="fill: #808080; font: 22px 'PingFang SC', 'Heiti SC', 'STHeiti', 'Calibri', 'Arial', 'Helvetica Neue', 'Arial Unicode MS', 'Noto Sans CJK SC', 'DejaVu Sans', sans-serif; text-anchor: middle" x="460.860195" y="376.593125" transform="rotate(-0 460.860195 376.593125)">64</text>
     </g>
    </g>
    <g id="xtick_4">
     <g id="line2d_4">
      <g>
       <use xlink:href="#m8b12e9d08e" x="623.170584" y="352.0825" style="fill: #808080; stroke: #808080; stroke-width: 0.8"/>
      </g>
     </g>
     <g id="text_4">
      <text style="fill: #808080; font: 22px 'PingFang SC', 'Heiti SC', 'STHeiti', 'Calibri', 'Arial', 'Helvetica Neue', 'Arial Unicode MS', 'Noto Sans CJK SC', 'DejaVu Sans', sans-serif; text-anchor: middle" x="623.170584" y="376.593125" transform="rotate(-0 623.170584 376.593125)">128</text>
     </g>
    </g>
    <g id="text_5">
     <text style="font: 22px 'PingFang SC', 'Heiti SC', 'STHeiti', 'Calibri', 'Arial', 'Helvetica Neue', 'Arial Unicode MS', 'Noto Sans CJK SC', 'DejaVu Sans', sans-serif; text-anchor: middle" x="379.705" y="401.053125" transform="rotate(-0 379.705 401.053125)">World 规模</text>
    </g>
   </g>
   <g id="matplotlib.axis_2">
    <g id="ytick_1">
     <g id="line2d_5">
      <path d="M 67.2575 341.857938 
L 692.1525 341.857938 
" clip-path="url(#p02c5bdf3d1)" style="fill: none; stroke-dasharray: 1,1.65; stroke-dashoffset: 0; stroke: #808080; stroke-opacity: 0.55"/>
     </g>
     <g id="line2d_6">
      <defs>
       <path id="mf62011b7b9" d="M 0 0 
L -3.5 0 
" style="stroke: #808080; stroke-width: 0.8"/>
      </defs>
      <g>
       <use xlink:href="#mf62011b7b9" x="67.2575" y="341.857938" style="fill: #808080; stroke: #808080; stroke-width: 0.8"/>
      </g>
     </g>
     <g id="text_6">
      <text style="fill: #808080; font: 22px 'PingFang SC', 'Heiti SC', 'STHeiti', 'Calibri', 'Arial', 'Helvetica Neue', 'Arial Unicode MS', 'Noto Sans CJK SC', 'DejaVu Sans', sans-serif; text-anchor: end" x="60.2575" y="350.613251" transform="rotate(-0 60.2575 350.613251)">80</text>
     </g>
    </g>
    <g id="ytick_2">
     <g id="line2d_7">
      <path d="M 67.2575 294.833041 
L 692.1525 294.833041 
" clip-path="url(#p02c5bdf3d1)" style="fill: none; stroke-dasharray: 1,1.65; stroke-dashoffset: 0; stroke: #808080; stroke-opacity: 0.55"/>
     </g>
     <g id="line2d_8">
      <g>
       <use xlink:href="#mf62011b7b9" x="67.2575" y="294.833041" style="fill: #808080; stroke: #808080; stroke-width: 0.8"/>
      </g>
     </g>
     <g id="text_7">
      <text style="fill: #808080; font: 22px 'PingFang SC', 'Heiti SC', 'STHeiti', 'Calibri', 'Arial', 'Helvetica Neue', 'Arial Unicode MS', 'Noto Sans CJK SC', 'DejaVu Sans', sans-serif; text-anchor: end" x="60.2575" y="303.588354" transform="rotate(-0 60.2575 303.588354)">82</text>
     </g>
    </g>
    <g id="ytick_3">
     <g id="line2d_9">
      <path d="M 67.2575 247.808144 
L 692.1525 247.808144 
" clip-path="url(#p02c5bdf3d1)" style="fill: none; stroke-dasharray: 1,1.65; stroke-dashoffset: 0; stroke: #808080; stroke-opacity: 0.55"/>
     </g>
     <g id="line2d_10">
      <g>
       <use xlink:href="#mf62011b7b9" x="67.2575" y="247.808144" style="fill: #808080; stroke: #808080; stroke-width: 0.8"/>
      </g>
     </g>
     <g id="text_8">
      <text style="fill: #808080; font: 22px 'PingFang SC', 'Heiti SC', 'STHeiti', 'Calibri', 'Arial', 'Helvetica Neue', 'Arial Unicode MS', 'Noto Sans CJK SC', 'DejaVu Sans', sans-serif; text-anchor: end" x="60.2575" y="256.563457" transform="rotate(-0 60.2575 256.563457)">84</text>
     </g>
    </g>
    <g id="ytick_4">
     <g id="line2d_11">
      <path d="M 67.2575 200.783247 
L 692.1525 200.783247 
" clip-path="url(#p02c5bdf3d1)" style="fill: none; stroke-dasharray: 1,1.65; stroke-dashoffset: 0; stroke: #808080; stroke-opacity: 0.55"/>
     </g>
     <g id="line2d_12">
      <g>
       <use xlink:href="#mf62011b7b9" x="67.2575" y="200.783247" style="fill: #808080; stroke: #808080; stroke-width: 0.8"/>
      </g>
     </g>
     <g id="text_9">
      <text style="fill: #808080; font: 22px 'PingFang SC', 'Heiti SC', 'STHeiti', 'Calibri', 'Arial', 'Helvetica Neue', 'Arial Unicode MS', 'Noto Sans CJK SC', 'DejaVu Sans', sans-serif; text-anchor: end" x="60.2575" y="209.53856" transform="rotate(-0 60.2575 209.53856)">86</text>
     </g>
    </g>
    <g id="ytick_5">
     <g id="line2d_13">
      <path d="M 67.2575 153.75835 
L 692.1525 153.75835 
" clip-path="url(#p02c5bdf3d1)" style="fill: none; stroke-dasharray: 1,1.65; stroke-dashoffset: 0; stroke: #808080; stroke-opacity: 0.55"/>
     </g>
     <g id="line2d_14">
      <g>
       <use xlink:href="#mf62011b7b9" x="67.2575" y="153.75835" style="fill: #808080; stroke: #808080; stroke-width: 0.8"/>
      </g>
     </g>
     <g id="text_10">
      <text style="fill: #808080; font: 22px 'PingFang SC', 'Heiti SC', 'STHeiti', 'Calibri', 'Arial', 'Helvetica Neue', 'Arial Unicode MS', 'Noto Sans CJK SC', 'DejaVu Sans', sans-serif; text-anchor: end" x="60.2575" y="162.513662" transform="rotate(-0 60.2575 162.513662)">88</text>
     </g>
    </g>
    <g id="ytick_6">
     <g id="line2d_15">
      <path d="M 67.2575 106.733453 
L 692.1525 106.733453 
" clip-path="url(#p02c5bdf3d1)" style="fill: none; stroke-dasharray: 1,1.65; stroke-dashoffset: 0; stroke: #808080; stroke-opacity: 0.55"/>
     </g>
     <g id="line2d_16">
      <g>
       <use xlink:href="#mf62011b7b9" x="67.2575" y="106.733453" style="fill: #808080; stroke: #808080; stroke-width: 0.8"/>
      </g>
     </g>
     <g id="text_11">
      <text style="fill: #808080; font: 22px 'PingFang SC', 'Heiti SC', 'STHeiti', 'Calibri', 'Arial', 'Helvetica Neue', 'Arial Unicode MS', 'Noto Sans CJK SC', 'DejaVu Sans', sans-serif; text-anchor: end" x="60.2575" y="115.488765" transform="rotate(-0 60.2575 115.488765)">90</text>
     </g>
    </g>
    <g id="ytick_7">
     <g id="line2d_17">
      <path d="M 67.2575 59.708556 
L 692.1525 59.708556 
" clip-path="url(#p02c5bdf3d1)" style="fill: none; stroke-dasharray: 1,1.65; stroke-dashoffset: 0; stroke: #808080; stroke-opacity: 0.55"/>
     </g>
     <g id="line2d_18">
      <g>
       <use xlink:href="#mf62011b7b9" x="67.2575" y="59.708556" style="fill: #808080; stroke: #808080; stroke-width: 0.8"/>
      </g>
     </g>
     <g id="text_12">
      <text style="fill: #808080; font: 22px 'PingFang SC', 'Heiti SC', 'STHeiti', 'Calibri', 'Arial', 'Helvetica Neue', 'Arial Unicode MS', 'Noto Sans CJK SC', 'DejaVu Sans', sans-serif; text-anchor: end" x="60.2575" y="68.463868" transform="rotate(-0 60.2575 68.463868)">92</text>
     </g>
    </g>
    <g id="text_13">
     <text style="font: 22px 'PingFang SC', 'Heiti SC', 'STHeiti', 'Calibri', 'Arial', 'Helvetica Neue', 'Arial Unicode MS', 'Noto Sans CJK SC', 'DejaVu Sans', sans-serif; text-anchor: middle" x="28.929375" y="193.361562" transform="rotate(-90 28.929375 193.361562)">Bus 带宽 (GB/s)</text>
    </g>
   </g>
   <g id="PolyCollection_1">
    <path d="M 139.647171 50.873859 
L 132.83166 50.873859 
L 132.832889 50.855636 
L 132.857766 50.837414 
L 132.90443 50.819191 
L 132.970233 50.800968 
L 133.051796 50.782745 
L 133.145066 50.764522 
L 133.245408 50.7463 
L 133.347701 50.728077 
L 133.446436 50.709854 
L 133.535833 50.691631 
L 133.609933 50.673408 
L 133.662704 50.655186 
L 133.688122 50.636963 
L 133.680243 50.61874 
L 133.633268 50.600517 
L 133.541582 50.582294 
L 133.39979 50.564071 
L 133.202735 50.545849 
L 132.94551 50.527626 
L 132.623464 50.509403 
L 132.232204 50.49118 
L 131.767605 50.472957 
L 131.225817 50.454735 
L 130.603293 50.436512 
L 129.896822 50.418289 
L 129.10359 50.400066 
L 128.221252 50.381843 
L 127.248034 50.363621 
L 126.182858 50.345398 
L 125.025492 50.327175 
L 123.776717 50.308952 
L 122.438516 50.290729 
L 121.014281 50.272507 
L 119.509011 50.254284 
L 117.929517 50.236061 
L 116.284604 50.217838 
L 114.585218 50.199615 
L 112.844558 50.181392 
L 111.078118 50.16317 
L 109.303656 50.144947 
L 107.541082 50.126724 
L 105.81224 50.108501 
L 104.140598 50.090278 
L 102.550824 50.072056 
L 101.068272 50.053833 
L 99.718376 50.03561 
L 98.525971 50.017387 
L 97.514569 49.999164 
L 96.705615 49.980942 
L 96.117752 49.962719 
L 95.766134 49.944496 
L 95.661818 49.926273 
L 95.811268 49.90805 
L 96.216 49.889828 
L 96.872393 49.871605 
L 97.771678 49.853382 
L 98.900107 49.835159 
L 100.239309 49.816936 
L 101.766808 49.798713 
L 103.456689 49.780491 
L 105.280378 49.762268 
L 107.207501 49.744045 
L 109.206781 49.725822 
L 111.246937 49.707599 
L 113.297542 49.689377 
L 115.329801 49.671154 
L 117.317231 49.652931 
L 119.236206 49.634708 
L 121.066363 49.616485 
L 122.790859 49.598263 
L 124.396483 49.58004 
L 125.873626 49.561817 
L 127.216143 49.543594 
L 128.421099 49.525371 
L 129.488456 49.507149 
L 130.420696 49.488926 
L 131.222425 49.470703 
L 131.899966 49.45248 
L 132.460975 49.434257 
L 132.914074 49.416035 
L 133.26854 49.397812 
L 133.534023 49.379589 
L 133.720327 49.361366 
L 133.83723 49.343143 
L 133.894347 49.32492 
L 133.901034 49.306698 
L 133.86631 49.288475 
L 133.79881 49.270252 
L 133.706742 49.252029 
L 133.597849 49.233806 
L 133.479377 49.215584 
L 133.358035 49.197361 
L 133.239948 49.179138 
L 133.130615 49.160915 
L 133.034853 49.142692 
L 132.956752 49.12447 
L 132.899632 49.106247 
L 132.866009 49.088024 
L 132.857574 49.069801 
L 139.621257 49.069801 
L 139.621257 49.069801 
L 139.612823 49.088024 
L 139.579199 49.106247 
L 139.522079 49.12447 
L 139.443978 49.142692 
L 139.348216 49.160915 
L 139.238883 49.179138 
L 139.120796 49.197361 
L 138.999454 49.215584 
L 138.880982 49.233806 
L 138.772089 49.252029 
L 138.680021 49.270252 
L 138.612521 49.288475 
L 138.577797 49.306698 
L 138.584484 49.32492 
L 138.641601 49.343143 
L 138.758504 49.361366 
L 138.944808 49.379589 
L 139.210291 49.397812 
L 139.564757 49.416035 
L 140.017857 49.434257 
L 140.578865 49.45248 
L 141.256406 49.470703 
L 142.058135 49.488926 
L 142.990375 49.507149 
L 144.057732 49.525371 
L 145.262688 49.543594 
L 146.605205 49.561817 
L 148.082348 49.58004 
L 149.687972 49.598263 
L 151.412468 49.616485 
L 153.242625 49.634708 
L 155.1616 49.652931 
L 157.14903 49.671154 
L 159.181289 49.689377 
L 161.231894 49.707599 
L 163.272051 49.725822 
L 165.27133 49.744045 
L 167.198453 49.762268 
L 169.022142 49.780491 
L 170.712023 49.798713 
L 172.239522 49.816936 
L 173.578724 49.835159 
L 174.707153 49.853382 
L 175.606438 49.871605 
L 176.262832 49.889828 
L 176.667563 49.90805 
L 176.817013 49.926273 
L 176.712697 49.944496 
L 176.361079 49.962719 
L 175.773217 49.980942 
L 174.964262 49.999164 
L 173.95286 50.017387 
L 172.760455 50.03561 
L 171.410559 50.053833 
L 169.928007 50.072056 
L 168.338234 50.090278 
L 166.666591 50.108501 
L 164.93775 50.126724 
L 163.175175 50.144947 
L 161.400713 50.16317 
L 159.634273 50.181392 
L 157.893613 50.199615 
L 156.194228 50.217838 
L 154.549314 50.236061 
L 152.96982 50.254284 
L 151.46455 50.272507 
L 150.040315 50.290729 
L 148.702115 50.308952 
L 147.453339 50.327175 
L 146.295973 50.345398 
L 145.230798 50.363621 
L 144.257579 50.381843 
L 143.375241 50.400066 
L 142.582009 50.418289 
L 141.875538 50.436512 
L 141.253014 50.454735 
L 140.711226 50.472957 
L 140.246627 50.49118 
L 139.855367 50.509403 
L 139.533321 50.527626 
L 139.276096 50.545849 
L 139.079041 50.564071 
L 138.937249 50.582294 
L 138.845563 50.600517 
L 138.798588 50.61874 
L 138.790709 50.636963 
L 138.816127 50.655186 
L 138.868898 50.673408 
L 138.942999 50.691631 
L 139.032395 50.709854 
L 139.131131 50.728077 
L 139.233423 50.7463 
L 139.333765 50.764522 
L 139.427035 50.782745 
L 139.508598 50.800968 
L 139.574402 50.819191 
L 139.621065 50.837414 
L 139.645942 50.855636 
L 139.647171 50.873859 
z
" clip-path="url(#p02c5bdf3d1)" style="fill: #4c78a8; fill-opacity: 0.65"/>
   </g>
   <g id="PolyCollection_2">
    <path d="M 301.256643 258.19395 
L 295.842967 258.19395 
L 295.849743 257.955995 
L 295.86997 257.71804 
L 295.903346 257.480085 
L 295.949374 257.24213 
L 296.00738 257.004176 
L 296.076521 256.766221 
L 296.155812 256.528266 
L 296.24415 256.290311 
L 296.340331 256.052356 
L 296.443088 255.814401 
L 296.55111 255.576446 
L 296.663075 255.338491 
L 296.777675 255.100536 
L 296.893636 254.862581 
L 297.009749 254.624626 
L 297.124882 254.386671 
L 297.238 254.148716 
L 297.348177 253.910761 
L 297.454603 253.672806 
L 297.556593 253.434851 
L 297.653588 253.196896 
L 297.745151 252.958941 
L 297.830968 252.720986 
L 297.910838 252.483031 
L 297.984665 252.245076 
L 298.052449 252.007121 
L 298.114274 251.769166 
L 298.170296 251.531211 
L 298.220729 251.293256 
L 298.265836 251.055301 
L 298.305914 250.817346 
L 298.341284 250.579391 
L 298.372277 250.341436 
L 298.399228 250.103481 
L 298.422464 249.865527 
L 298.442293 249.627572 
L 298.459002 249.389617 
L 298.472843 249.151662 
L 298.484028 248.913707 
L 298.492726 248.675752 
L 298.499046 248.437797 
L 298.503039 248.199842 
L 298.504683 247.961887 
L 298.503875 247.723932 
L 298.500421 247.485977 
L 298.494025 247.248022 
L 298.484269 247.010067 
L 298.470605 246.772112 
L 298.452331 246.534157 
L 298.428576 246.296202 
L 298.398274 246.058247 
L 298.360147 245.820292 
L 298.312676 245.582337 
L 298.254081 245.344382 
L 298.182296 245.106427 
L 298.094947 244.868472 
L 297.989333 244.630517 
L 297.862409 244.392562 
L 297.710776 244.154607 
L 297.530681 243.916652 
L 297.318017 243.678697 
L 297.068344 243.440742 
L 296.776917 243.202787 
L 296.438725 242.964832 
L 296.048556 242.726878 
L 295.601067 242.488923 
L 295.090877 242.250968 
L 294.51268 242.013013 
L 293.861373 241.775058 
L 293.132196 241.537103 
L 292.320893 241.299148 
L 291.423884 241.061193 
L 290.438437 240.823238 
L 289.362853 240.585283 
L 288.196643 240.347328 
L 286.940698 240.109373 
L 285.597449 239.871418 
L 284.170995 239.633463 
L 282.667215 239.395508 
L 281.09384 239.157553 
L 279.460478 238.919598 
L 277.778607 238.681643 
L 276.061503 238.443688 
L 274.324124 238.205733 
L 272.582942 237.967778 
L 270.85571 237.729823 
L 269.161194 237.491868 
L 267.518851 237.253913 
L 265.948469 237.015958 
L 264.469785 236.778003 
L 263.10207 236.540048 
L 261.863724 236.302093 
L 260.771859 236.064138 
L 259.84191 235.826184 
L 259.087272 235.588229 
L 258.518978 235.350274 
L 258.145434 235.112319 
L 257.972208 234.874364 
L 258.001893 234.636409 
L 339.097718 234.636409 
L 339.097718 234.636409 
L 339.127403 234.874364 
L 338.954176 235.112319 
L 338.580632 235.350274 
L 338.012339 235.588229 
L 337.2577 235.826184 
L 336.327751 236.064138 
L 335.235886 236.302093 
L 333.99754 236.540048 
L 332.629826 236.778003 
L 331.151141 237.015958 
L 329.58076 237.253913 
L 327.938416 237.491868 
L 326.243901 237.729823 
L 324.516668 237.967778 
L 322.775486 238.205733 
L 321.038108 238.443688 
L 319.321004 238.681643 
L 317.639132 238.919598 
L 316.005771 239.157553 
L 314.432395 239.395508 
L 312.928616 239.633463 
L 311.502162 239.871418 
L 310.158912 240.109373 
L 308.902968 240.347328 
L 307.736758 240.585283 
L 306.661173 240.823238 
L 305.675726 241.061193 
L 304.778717 241.299148 
L 303.967415 241.537103 
L 303.238238 241.775058 
L 302.58693 242.013013 
L 302.008734 242.250968 
L 301.498544 242.488923 
L 301.051054 242.726878 
L 300.660885 242.964832 
L 300.322694 243.202787 
L 300.031266 243.440742 
L 299.781593 243.678697 
L 299.568929 243.916652 
L 299.388834 244.154607 
L 299.237202 244.392562 
L 299.110277 244.630517 
L 299.004663 244.868472 
L 298.917314 245.106427 
L 298.84553 245.344382 
L 298.786935 245.582337 
L 298.739464 245.820292 
L 298.701336 246.058247 
L 298.671034 246.296202 
L 298.647279 246.534157 
L 298.629005 246.772112 
L 298.615341 247.010067 
L 298.605586 247.248022 
L 298.599189 247.485977 
L 298.595736 247.723932 
L 298.594928 247.961887 
L 298.596571 248.199842 
L 298.600564 248.437797 
L 298.606885 248.675752 
L 298.615582 248.913707 
L 298.626768 249.151662 
L 298.640609 249.389617 
L 298.657317 249.627572 
L 298.677147 249.865527 
L 298.700382 250.103481 
L 298.727333 250.341436 
L 298.758326 250.579391 
L 298.793696 250.817346 
L 298.833774 251.055301 
L 298.878882 251.293256 
L 298.929315 251.531211 
L 298.985336 251.769166 
L 299.047161 252.007121 
L 299.114945 252.245076 
L 299.188772 252.483031 
L 299.268642 252.720986 
L 299.354459 252.958941 
L 299.446023 253.196896 
L 299.543017 253.434851 
L 299.645008 253.672806 
L 299.751434 253.910761 
L 299.86161 254.148716 
L 299.974728 254.386671 
L 300.089861 254.624626 
L 300.205974 254.862581 
L 300.321936 255.100536 
L 300.436535 255.338491 
L 300.5485 255.576446 
L 300.656523 255.814401 
L 300.759279 256.052356 
L 300.855461 256.290311 
L 300.943798 256.528266 
L 301.02309 256.766221 
L 301.092231 257.004176 
L 301.150236 257.24213 
L 301.196265 257.480085 
L 301.22964 257.71804 
L 301.249867 257.955995 
L 301.256643 258.19395 
z
" clip-path="url(#p02c5bdf3d1)" style="fill: #4c78a8; fill-opacity: 0.65"/>
   </g>
   <g id="PolyCollection_3">
    <path d="M 472.505752 337.172467 
L 449.214638 337.172467 
L 448.850172 337.16922 
L 448.501822 337.165973 
L 448.171185 337.162726 
L 447.859721 337.159478 
L 447.568734 337.156231 
L 447.29935 337.152984 
L 447.052503 337.149737 
L 446.828911 337.146489 
L 446.629063 337.143242 
L 446.453202 337.139995 
L 446.301309 337.136748 
L 446.173096 337.1335 
L 446.067988 337.130253 
L 445.985121 337.127006 
L 445.923332 337.123759 
L 445.881155 337.120511 
L 445.856823 337.117264 
L 445.84827 337.114017 
L 445.853134 337.11077 
L 445.868769 337.107523 
L 445.892259 337.104275 
L 445.920434 337.101028 
L 445.94989 337.097781 
L 445.97702 337.094534 
L 445.998038 337.091286 
L 446.009019 337.088039 
L 446.005935 337.084792 
L 445.984698 337.081545 
L 445.941206 337.078297 
L 445.871395 337.07505 
L 445.771286 337.071803 
L 445.637045 337.068556 
L 445.465035 337.065308 
L 445.251872 337.062061 
L 444.994482 337.058814 
L 444.690157 337.055567 
L 444.336602 337.052319 
L 443.931991 337.049072 
L 443.475005 337.045825 
L 442.964878 337.042578 
L 442.401427 337.03933 
L 441.785079 337.036083 
L 441.116892 337.032836 
L 440.398564 337.029589 
L 439.632437 337.026341 
L 438.82149 337.023094 
L 437.969321 337.019847 
L 437.080123 337.0166 
L 436.15865 337.013352 
L 435.210171 337.010105 
L 434.240422 337.006858 
L 433.255544 337.003611 
L 432.262017 337.000363 
L 431.26659 336.997116 
L 430.276203 336.993869 
L 429.29791 336.990622 
L 428.338793 336.987375 
L 427.405882 336.984127 
L 426.506073 336.98088 
L 425.64605 336.977633 
L 424.832204 336.974386 
L 424.070563 336.971138 
L 423.366728 336.967891 
L 422.72581 336.964644 
L 422.152379 336.961397 
L 421.650422 336.958149 
L 421.223308 336.954902 
L 420.873761 336.951655 
L 420.603847 336.948408 
L 420.414964 336.94516 
L 420.307852 336.941913 
L 420.282597 336.938666 
L 420.338659 336.935419 
L 420.474897 336.932171 
L 420.689604 336.928924 
L 420.980551 336.925677 
L 421.345035 336.92243 
L 421.779926 336.919182 
L 422.281724 336.915935 
L 422.846614 336.912688 
L 423.470523 336.909441 
L 424.149176 336.906193 
L 424.878151 336.902946 
L 425.652932 336.899699 
L 426.468961 336.896452 
L 427.32168 336.893204 
L 428.206579 336.889957 
L 429.119229 336.88671 
L 430.055317 336.883463 
L 431.010672 336.880215 
L 431.981292 336.876968 
L 432.963356 336.873721 
L 433.953239 336.870474 
L 434.947523 336.867227 
L 435.942999 336.863979 
L 436.936667 336.860732 
L 437.925734 336.857485 
L 438.907613 336.854238 
L 439.879911 336.85099 
L 481.840479 336.85099 
L 481.840479 336.85099 
L 482.812776 336.854238 
L 483.794655 336.857485 
L 484.783723 336.860732 
L 485.777391 336.863979 
L 486.772866 336.867227 
L 487.767151 336.870474 
L 488.757034 336.873721 
L 489.739097 336.876968 
L 490.709717 336.880215 
L 491.665073 336.883463 
L 492.60116 336.88671 
L 493.51381 336.889957 
L 494.398709 336.893204 
L 495.251429 336.896452 
L 496.067457 336.899699 
L 496.842239 336.902946 
L 497.571214 336.906193 
L 498.249866 336.909441 
L 498.873775 336.912688 
L 499.438666 336.915935 
L 499.940464 336.919182 
L 500.375355 336.92243 
L 500.739838 336.925677 
L 501.030786 336.928924 
L 501.245493 336.932171 
L 501.38173 336.935419 
L 501.437792 336.938666 
L 501.412538 336.941913 
L 501.305425 336.94516 
L 501.116543 336.948408 
L 500.846629 336.951655 
L 500.497082 336.954902 
L 500.069968 336.958149 
L 499.568011 336.961397 
L 498.99458 336.964644 
L 498.353662 336.967891 
L 497.649826 336.971138 
L 496.888186 336.974386 
L 496.074339 336.977633 
L 495.214316 336.98088 
L 494.314508 336.984127 
L 493.381597 336.987375 
L 492.42248 336.990622 
L 491.444186 336.993869 
L 490.4538 336.997116 
L 489.458373 337.000363 
L 488.464846 337.003611 
L 487.479968 337.006858 
L 486.510219 337.010105 
L 485.56174 337.013352 
L 484.640267 337.0166 
L 483.751069 337.019847 
L 482.8989 337.023094 
L 482.087952 337.026341 
L 481.321826 337.029589 
L 480.603498 337.032836 
L 479.935311 337.036083 
L 479.318962 337.03933 
L 478.755511 337.042578 
L 478.245384 337.045825 
L 477.788399 337.049072 
L 477.383788 337.052319 
L 477.030233 337.055567 
L 476.725907 337.058814 
L 476.468518 337.062061 
L 476.255355 337.065308 
L 476.083344 337.068556 
L 475.949103 337.071803 
L 475.848995 337.07505 
L 475.779183 337.078297 
L 475.735692 337.081545 
L 475.714455 337.084792 
L 475.711371 337.088039 
L 475.722352 337.091286 
L 475.74337 337.094534 
L 475.7705 337.097781 
L 475.799956 337.101028 
L 475.82813 337.104275 
L 475.851621 337.107523 
L 475.867256 337.11077 
L 475.87212 337.114017 
L 475.863566 337.117264 
L 475.839235 337.120511 
L 475.797058 337.123759 
L 475.735268 337.127006 
L 475.652401 337.130253 
L 475.547294 337.1335 
L 475.41908 337.136748 
L 475.267188 337.139995 
L 475.091326 337.143242 
L 474.891478 337.146489 
L 474.667886 337.149737 
L 474.421039 337.152984 
L 474.151656 337.156231 
L 473.860668 337.159478 
L 473.549205 337.162726 
L 473.218568 337.165973 
L 472.870218 337.16922 
L 472.505752 337.172467 
z
" clip-path="url(#p02c5bdf3d1)" style="fill: #4c78a8; fill-opacity: 0.65"/>
   </g>
   <g id="PolyCollection_4">
    <path d="M 649.776187 337.653324 
L 596.564982 337.653324 
L 595.471034 337.650264 
L 594.399536 337.647204 
L 593.354973 337.644143 
L 592.341647 337.641083 
L 591.363647 337.638023 
L 590.424812 337.634963 
L 589.528708 337.631903 
L 588.678599 337.628843 
L 587.87743 337.625783 
L 587.127806 337.622723 
L 586.431978 337.619662 
L 585.791833 337.616602 
L 585.208887 337.613542 
L 584.68428 337.610482 
L 584.218772 337.607422 
L 583.812749 337.604362 
L 583.466224 337.601302 
L 583.178845 337.598242 
L 582.949909 337.595181 
L 582.778371 337.592121 
L 582.662864 337.589061 
L 582.601719 337.586001 
L 582.592987 337.582941 
L 582.634466 337.579881 
L 582.723732 337.576821 
L 582.858165 337.573761 
L 583.034992 337.5707 
L 583.251316 337.56764 
L 583.504157 337.56458 
L 583.79049 337.56152 
L 584.107284 337.55846 
L 584.451541 337.5554 
L 584.820333 337.55234 
L 585.210837 337.54928 
L 585.620369 337.546219 
L 586.046413 337.543159 
L 586.486648 337.540099 
L 586.93897 337.537039 
L 587.401506 337.533979 
L 587.872631 337.530919 
L 588.350969 337.527859 
L 588.835398 337.524799 
L 589.325048 337.521738 
L 589.819288 337.518678 
L 590.317716 337.515618 
L 590.820141 337.512558 
L 591.326562 337.509498 
L 591.837144 337.506438 
L 592.352191 337.503378 
L 592.872119 337.500318 
L 593.397424 337.497257 
L 593.928652 337.494197 
L 594.466368 337.491137 
L 595.011129 337.488077 
L 595.563449 337.485017 
L 596.123774 337.481957 
L 596.692455 337.478897 
L 597.269726 337.475837 
L 597.85568 337.472776 
L 598.450251 337.469716 
L 599.053202 337.466656 
L 599.664109 337.463596 
L 600.282357 337.460536 
L 600.907137 337.457476 
L 601.537443 337.454416 
L 602.172081 337.451356 
L 602.809677 337.448295 
L 603.448693 337.445235 
L 604.087445 337.442175 
L 604.724122 337.439115 
L 605.35682 337.436055 
L 605.983564 337.432995 
L 606.602347 337.429935 
L 607.211161 337.426875 
L 607.808037 337.423814 
L 608.391078 337.420754 
L 608.958496 337.417694 
L 609.508653 337.414634 
L 610.040087 337.411574 
L 610.551544 337.408514 
L 611.042009 337.405454 
L 611.510718 337.402394 
L 611.957183 337.399333 
L 612.381194 337.396273 
L 612.782826 337.393213 
L 613.162435 337.390153 
L 613.520648 337.387093 
L 613.858346 337.384033 
L 614.176641 337.380973 
L 614.47685 337.377913 
L 614.76046 337.374852 
L 615.029096 337.371792 
L 615.284478 337.368732 
L 615.528385 337.365672 
L 615.76261 337.362612 
L 615.988923 337.359552 
L 616.209032 337.356492 
L 616.424546 337.353432 
L 616.636946 337.350371 
L 629.704223 337.350371 
L 629.704223 337.350371 
L 629.916623 337.353432 
L 630.132137 337.356492 
L 630.352246 337.359552 
L 630.578559 337.362612 
L 630.812784 337.365672 
L 631.056691 337.368732 
L 631.312073 337.371792 
L 631.580709 337.374852 
L 631.864319 337.377913 
L 632.164528 337.380973 
L 632.482823 337.384033 
L 632.82052 337.387093 
L 633.178734 337.390153 
L 633.558343 337.393213 
L 633.959975 337.396273 
L 634.383986 337.399333 
L 634.830451 337.402394 
L 635.29916 337.405454 
L 635.789625 337.408514 
L 636.301082 337.411574 
L 636.832516 337.414634 
L 637.382673 337.417694 
L 637.950091 337.420754 
L 638.533132 337.423814 
L 639.130007 337.426875 
L 639.738822 337.429935 
L 640.357605 337.432995 
L 640.984349 337.436055 
L 641.617047 337.439115 
L 642.253724 337.442175 
L 642.892475 337.445235 
L 643.531492 337.448295 
L 644.169088 337.451356 
L 644.803726 337.454416 
L 645.434032 337.457476 
L 646.058812 337.460536 
L 646.67706 337.463596 
L 647.287967 337.466656 
L 647.890918 337.469716 
L 648.485489 337.472776 
L 649.071443 337.475837 
L 649.648714 337.478897 
L 650.217395 337.481957 
L 650.77772 337.485017 
L 651.330039 337.488077 
L 651.8748 337.491137 
L 652.412517 337.494197 
L 652.943745 337.497257 
L 653.46905 337.500318 
L 653.988978 337.503378 
L 654.504025 337.506438 
L 655.014607 337.509498 
L 655.521028 337.512558 
L 656.023453 337.515618 
L 656.521881 337.518678 
L 657.01612 337.521738 
L 657.50577 337.524799 
L 657.9902 337.527859 
L 658.468538 337.530919 
L 658.939662 337.533979 
L 659.402199 337.537039 
L 659.854521 337.540099 
L 660.294756 337.543159 
L 660.7208 337.546219 
L 661.130332 337.54928 
L 661.520836 337.55234 
L 661.889628 337.5554 
L 662.233885 337.55846 
L 662.550679 337.56152 
L 662.837012 337.56458 
L 663.089853 337.56764 
L 663.306177 337.5707 
L 663.483004 337.573761 
L 663.617437 337.576821 
L 663.706702 337.579881 
L 663.748182 337.582941 
L 663.73945 337.586001 
L 663.678305 337.589061 
L 663.562798 337.592121 
L 663.39126 337.595181 
L 663.162324 337.598242 
L 662.874945 337.601302 
L 662.52842 337.604362 
L 662.122397 337.607422 
L 661.656889 337.610482 
L 661.132282 337.613542 
L 660.549336 337.616602 
L 659.909191 337.619662 
L 659.213363 337.622723 
L 658.463738 337.625783 
L 657.662569 337.628843 
L 656.812461 337.631903 
L 655.916357 337.634963 
L 654.977522 337.638023 
L 653.999522 337.641083 
L 652.986196 337.644143 
L 651.941633 337.647204 
L 650.870135 337.650264 
L 649.776187 337.653324 
z
" clip-path="url(#p02c5bdf3d1)" style="fill: #4c78a8; fill-opacity: 0.65"/>
   </g>
   <g id="LineCollection_1">
    <path d="M 115.950617 49.954177 
L 156.528214 49.954177 
" clip-path="url(#p02c5bdf3d1)" style="fill: none; stroke: #1f77b4; stroke-width: 1.5"/>
    <path d="M 278.261006 236.252881 
L 318.838604 236.252881 
" clip-path="url(#p02c5bdf3d1)" style="fill: none; stroke: #1f77b4; stroke-width: 1.5"/>
    <path d="M 440.571396 336.979162 
L 481.148994 336.979162 
" clip-path="url(#p02c5bdf3d1)" style="fill: none; stroke: #1f77b4; stroke-width: 1.5"/>
    <path d="M 602.881786 337.54574 
L 643.459383 337.54574 
" clip-path="url(#p02c5bdf3d1)" style="fill: none; stroke: #1f77b4; stroke-width: 1.5"/>
   </g>
   <g id="LineCollection_2">
    <path d="M 115.950617 49.069801 
L 156.528214 49.069801 
" clip-path="url(#p02c5bdf3d1)" style="fill: none; stroke: #1f77b4; stroke-width: 1.5"/>
    <path d="M 278.261006 234.636409 
L 318.838604 234.636409 
" clip-path="url(#p02c5bdf3d1)" style="fill: none; stroke: #1f77b4; stroke-width: 1.5"/>
    <path d="M 440.571396 336.85099 
L 481.148994 336.85099 
" clip-path="url(#p02c5bdf3d1)" style="fill: none; stroke: #1f77b4; stroke-width: 1.5"/>
    <path d="M 602.881786 337.350371 
L 643.459383 337.350371 
" clip-path="url(#p02c5bdf3d1)" style="fill: none; stroke: #1f77b4; stroke-width: 1.5"/>
   </g>
   <g id="LineCollection_3">
    <path d="M 115.950617 50.873859 
L 156.528214 50.873859 
" clip-path="url(#p02c5bdf3d1)" style="fill: none; stroke: #1f77b4; stroke-width: 1.5"/>
    <path d="M 278.261006 258.19395 
L 318.838604 258.19395 
" clip-path="url(#p02c5bdf3d1)" style="fill: none; stroke: #1f77b4; stroke-width: 1.5"/>
    <path d="M 440.571396 337.172467 
L 481.148994 337.172467 
" clip-path="url(#p02c5bdf3d1)" style="fill: none; stroke: #1f77b4; stroke-width: 1.5"/>
    <path d="M 602.881786 337.653324 
L 643.459383 337.653324 
" clip-path="url(#p02c5bdf3d1)" style="fill: none; stroke: #1f77b4; stroke-width: 1.5"/>
   </g>
   <g id="LineCollection_4">
    <path d="M 136.239416 50.873859 
L 136.239416 49.069801 
" clip-path="url(#p02c5bdf3d1)" style="fill: none; stroke: #1f77b4; stroke-width: 1.5"/>
    <path d="M 298.549805 258.19395 
L 298.549805 234.636409 
" clip-path="url(#p02c5bdf3d1)" style="fill: none; stroke: #1f77b4; stroke-width: 1.5"/>
    <path d="M 460.860195 337.172467 
L 460.860195 336.85099 
" clip-path="url(#p02c5bdf3d1)" style="fill: none; stroke: #1f77b4; stroke-width: 1.5"/>
    <path d="M 623.170584 337.653324 
L 623.170584 337.350371 
" clip-path="url(#p02c5bdf3d1)" style="fill: none; stroke: #1f77b4; stroke-width: 1.5"/>
   </g>
   <g id="LineCollection_5">
    <path d="M 115.950617 49.886614 
L 156.528214 49.886614 
" clip-path="url(#p02c5bdf3d1)" style="fill: none; stroke: #1f77b4; stroke-width: 1.5"/>
    <path d="M 278.261006 234.798552 
L 318.838604 234.798552 
" clip-path="url(#p02c5bdf3d1)" style="fill: none; stroke: #1f77b4; stroke-width: 1.5"/>
    <path d="M 440.571396 336.956849 
L 481.148994 336.956849 
" clip-path="url(#p02c5bdf3d1)" style="fill: none; stroke: #1f77b4; stroke-width: 1.5"/>
    <path d="M 602.881786 337.567473 
L 643.459383 337.567473 
" clip-path="url(#p02c5bdf3d1)" style="fill: none; stroke: #1f77b4; stroke-width: 1.5"/>
   </g>
   <g id="patch_3">
    <path d="M 67.2575 352.0825 
L 67.2575 34.640625 
" style="fill: none; stroke: #808080; stroke-width: 0.8; stroke-linejoin: miter; stroke-linecap: square"/>
   </g>
   <g id="patch_4">
    <path d="M 67.2575 352.0825 
L 692.1525 352.0825 
" style="fill: none; stroke: #808080; stroke-width: 0.8; stroke-linejoin: miter; stroke-linecap: square"/>
   </g>
   <g id="text_14">
    <text style="font: 22px 'PingFang SC', 'Heiti SC', 'STHeiti', 'Calibri', 'Arial', 'Helvetica Neue', 'Arial Unicode MS', 'Noto Sans CJK SC', 'DejaVu Sans', sans-serif; text-anchor: middle" x="379.705" y="28.640625" transform="rotate(-0 379.705 28.640625)">Broadcast · 256 MB Rank 分布（Violin）</text>
   </g>
  </g>
 </g>
 <defs>
  <clipPath id="p02c5bdf3d1">
   <rect x="67.2575" y="34.640625" width="624.895" height="317.441875"/>
  </clipPath>
 </defs>
</svg>
