<?xml version="1.0" encoding="utf-8" standalone="no"?>
<!DOCTYPE svg PUBLIC "-//W3C//DTD SVG 1.1//EN"
  "http://www.w3.org/Graphics/SVG/1.1/DTD/svg11.dtd">
<svg xmlns:xlink="http://www.w3.org/1999/xlink" width="700.977761pt" height="414.582812pt" viewBox="0 0 700.977761 414.582812" xmlns="http://www.w3.org/2000/svg" version="1.1">
 <metadata>
  <rdf:RDF xmlns:dc="http://purl.org/dc/elements/1.1/" xmlns:cc="http://creativecommons.org/ns#" xmlns:rdf="http://www.w3.org/1999/02/22-rdf-syntax-ns#">
   <cc:Work>
    <dc:type rdf:resource="http://purl.org/dc/dcmitype/StillImage"/>
    <dc:date>2026-07-11T21:18:46.026663</dc:date>
    <dc:format>image/svg+xml</dc:format>
    <dc:creator>
     <cc:Agent>
      <dc:title>Matplotlib v3.9.4, https://matplotlib.org/</dc:title>
     </cc:Agent>
    </dc:creator>
   </cc:Work>
  </rdf:RDF>
 </metadata>
 <defs>
  <style type="text/css">*{stroke-linejoin: round; stroke-linecap: butt}</style>
 </defs>
 <g id="figure_1">
  <g id="patch_1">
   <path d="M 0 414.582812 
L 700.977761 414.582812 
L 700.977761 0 
L 0 0 
z
" style="fill: #ffffff"/>
  </g>
  <g id="axes_1">
   <g id="patch_2">
    <path d="M 79.446875 351.821562 
L 680.018011 351.821562 
L 680.018011 34.726562 
L 79.446875 34.726562 
z
" style="fill: #ffffff"/>
   </g>
   <g id="matplotlib.axis_1">
    <g id="xtick_1">
     <g id="line2d_1">
      <defs>
       <path id="m7cb169adc0" d="M 0 0 
L 0 3.5 
" style="stroke: #808080; stroke-width: 0.8"/>
      </defs>
      <g>
       <use xlink:href="#m7cb169adc0" x="106.745563" y="351.821562" style="fill: #808080; stroke: #808080; stroke-width: 0.8"/>
      </g>
     </g>
     <g id="text_1">
      <text style="fill: #808080; font: 22px 'PingFang SC', 'Heiti SC', 'STHeiti', 'Calibri', 'Arial', 'Helvetica Neue', 'Arial Unicode MS', 'Noto Sans CJK SC', 'DejaVu Sans', sans-serif; text-anchor: middle" x="106.745563" y="376.332187" transform="rotate(-0 106.745563 376.332187)">1 MB</text>
     </g>
    </g>
    <g id="xtick_2">
     <g id="line2d_2">
      <g>
       <use xlink:href="#m7cb169adc0" x="288.736816" y="351.821562" style="fill: #808080; stroke: #808080; stroke-width: 0.8"/>
      </g>
     </g>
     <g id="text_2">
      <text style="fill: #808080; font: 22px 'PingFang SC', 'Heiti SC', 'STHeiti', 'Calibri', 'Arial', 'Helvetica Neue', 'Arial Unicode MS', 'Noto Sans CJK SC', 'DejaVu Sans', sans-serif; text-anchor: middle" x="288.736816" y="376.332187" transform="rotate(-0 288.736816 376.332187)">16 MB</text>
     </g>
    </g>
    <g id="xtick_3">
     <g id="line2d_3">
      <g>
       <use xlink:href="#m7cb169adc0" x="470.72807" y="351.821562" style="fill: #808080; stroke: #808080; stroke-width: 0.8"/>
      </g>
     </g>
     <g id="text_3">
      <text style="fill: #808080; font: 22px 'PingFang SC', 'Heiti SC', 'STHeiti', 'Calibri', 'Arial', 'Helvetica Neue', 'Arial Unicode MS', 'Noto Sans CJK SC', 'DejaVu Sans', sans-serif; text-anchor: middle" x="470.72807" y="376.332187" transform="rotate(-0 470.72807 376.332187)">64 MB</text>
     </g>
    </g>
    <g id="xtick_4">
     <g id="line2d_4">
      <g>
       <use xlink:href="#m7cb169adc0" x="652.719323" y="351.821562" style="fill: #808080; stroke: #808080; stroke-width: 0.8"/>
      </g>
     </g>
     <g id="text_4">
      <text style="fill: #808080; font: 22px 'PingFang SC', 'Heiti SC', 'STHeiti', 'Calibri', 'Arial', 'Helvetica Neue', 'Arial Unicode MS', 'Noto Sans CJK SC', 'DejaVu Sans', sans-serif; text-anchor: middle" x="652.719323" y="376.332187" transform="rotate(-0 652.719323 376.332187)">256 MB</text>
     </g>
    </g>
    <g id="text_5">
     <text style="font: 22px 'PingFang SC', 'Heiti SC', 'STHeiti', 'Calibri', 'Arial', 'Helvetica Neue', 'Arial Unicode MS', 'Noto Sans CJK SC', 'DejaVu Sans', sans-serif; text-anchor: middle" x="379.732443" y="400.833437" transform="rotate(-0 379.732443 400.833437)">消息大小</text>
    </g>
   </g>
   <g id="matplotlib.axis_2">
    <g id="ytick_1">
     <g id="line2d_5">
      <path d="M 79.446875 337.915111 
L 680.018011 337.915111 
" clip-path="url(#pc0911e87f8)" style="fill: none; stroke-dasharray: 1,1.65; stroke-dashoffset: 0; stroke: #808080; stroke-opacity: 0.55"/>
     </g>
     <g id="line2d_6">
      <defs>
       <path id="m7763dcbcf0" d="M 0 0 
L -3.5 0 
" style="stroke: #808080; stroke-width: 0.8"/>
      </defs>
      <g>
       <use xlink:href="#m7763dcbcf0" x="79.446875" y="337.915111" style="fill: #808080; stroke: #808080; stroke-width: 0.8"/>
      </g>
     </g>
     <g id="text_6">
      <text style="fill: #808080; font: 22px 'PingFang SC', 'Heiti SC', 'STHeiti', 'Calibri', 'Arial', 'Helvetica Neue', 'Arial Unicode MS', 'Noto Sans CJK SC', 'DejaVu Sans', sans-serif; text-anchor: end" x="72.446875" y="346.670424" transform="rotate(-0 72.446875 346.670424)">0</text>
     </g>
    </g>
    <g id="ytick_2">
     <g id="line2d_7">
      <path d="M 79.446875 289.495159 
L 680.018011 289.495159 
" clip-path="url(#pc0911e87f8)" style="fill: none; stroke-dasharray: 1,1.65; stroke-dashoffset: 0; stroke: #808080; stroke-opacity: 0.55"/>
     </g>
     <g id="line2d_8">
      <g>
       <use xlink:href="#m7763dcbcf0" x="79.446875" y="289.495159" style="fill: #808080; stroke: #808080; stroke-width: 0.8"/>
      </g>
     </g>
     <g id="text_7">
      <text style="fill: #808080; font: 22px 'PingFang SC', 'Heiti SC', 'STHeiti', 'Calibri', 'Arial', 'Helvetica Neue', 'Arial Unicode MS', 'Noto Sans CJK SC', 'DejaVu Sans', sans-serif; text-anchor: end" x="72.446875" y="298.250471" transform="rotate(-0 72.446875 298.250471)">20</text>
     </g>
    </g>
    <g id="ytick_3">
     <g id="line2d_9">
      <path d="M 79.446875 241.075206 
L 680.018011 241.075206 
" clip-path="url(#pc0911e87f8)" style="fill: none; stroke-dasharray: 1,1.65; stroke-dashoffset: 0; stroke: #808080; stroke-opacity: 0.55"/>
     </g>
     <g id="line2d_10">
      <g>
       <use xlink:href="#m7763dcbcf0" x="79.446875" y="241.075206" style="fill: #808080; stroke: #808080; stroke-width: 0.8"/>
      </g>
     </g>
     <g id="text_8">
      <text style="fill: #808080; font: 22px 'PingFang SC', 'Heiti SC', 'STHeiti', 'Calibri', 'Arial', 'Helvetica Neue', 'Arial Unicode MS', 'Noto Sans CJK SC', 'DejaVu Sans', sans-serif; text-anchor: end" x="72.446875" y="249.830519" transform="rotate(-0 72.446875 249.830519)">40</text>
     </g>
    </g>
    <g id="ytick_4">
     <g id="line2d_11">
      <path d="M 79.446875 192.655254 
L 680.018011 192.655254 
" clip-path="url(#pc0911e87f8)" style="fill: none; stroke-dasharray: 1,1.65; stroke-dashoffset: 0; stroke: #808080; stroke-opacity: 0.55"/>
     </g>
     <g id="line2d_12">
      <g>
       <use xlink:href="#m7763dcbcf0" x="79.446875" y="192.655254" style="fill: #808080; stroke: #808080; stroke-width: 0.8"/>
      </g>
     </g>
     <g id="text_9">
      <text style="fill: #808080; font: 22px 'PingFang SC', 'Heiti SC', 'STHeiti', 'Calibri', 'Arial', 'Helvetica Neue', 'Arial Unicode MS', 'Noto Sans CJK SC', 'DejaVu Sans', sans-serif; text-anchor: end" x="72.446875" y="201.410566" transform="rotate(-0 72.446875 201.410566)">60</text>
     </g>
    </g>
    <g id="ytick_5">
     <g id="line2d_13">
      <path d="M 79.446875 144.235301 
L 680.018011 144.235301 
" clip-path="url(#pc0911e87f8)" style="fill: none; stroke-dasharray: 1,1.65; stroke-dashoffset: 0; stroke: #808080; stroke-opacity: 0.55"/>
     </g>
     <g id="line2d_14">
      <g>
       <use xlink:href="#m7763dcbcf0" x="79.446875" y="144.235301" style="fill: #808080; stroke: #808080; stroke-width: 0.8"/>
      </g>
     </g>
     <g id="text_10">
      <text style="fill: #808080; font: 22px 'PingFang SC', 'Heiti SC', 'STHeiti', 'Calibri', 'Arial', 'Helvetica Neue', 'Arial Unicode MS', 'Noto Sans CJK SC', 'DejaVu Sans', sans-serif; text-anchor: end" x="72.446875" y="152.990614" transform="rotate(-0 72.446875 152.990614)">80</text>
     </g>
    </g>
    <g id="ytick_6">
     <g id="line2d_15">
      <path d="M 79.446875 95.815348 
L 680.018011 95.815348 
" clip-path="url(#pc0911e87f8)" style="fill: none; stroke-dasharray: 1,1.65; stroke-dashoffset: 0; stroke: #808080; stroke-opacity: 0.55"/>
     </g>
     <g id="line2d_16">
      <g>
       <use xlink:href="#m7763dcbcf0" x="79.446875" y="95.815348" style="fill: #808080; stroke: #808080; stroke-width: 0.8"/>
      </g>
     </g>
     <g id="text_11">
      <text style="fill: #808080; font: 22px 'PingFang SC', 'Heiti SC', 'STHeiti', 'Calibri', 'Arial', 'Helvetica Neue', 'Arial Unicode MS', 'Noto Sans CJK SC', 'DejaVu Sans', sans-serif; text-anchor: end" x="72.446875" y="104.570661" transform="rotate(-0 72.446875 104.570661)">100</text>
     </g>
    </g>
    <g id="ytick_7">
     <g id="line2d_17">
      <path d="M 79.446875 47.395396 
L 680.018011 47.395396 
" clip-path="url(#pc0911e87f8)" style="fill: none; stroke-dasharray: 1,1.65; stroke-dashoffset: 0; stroke: #808080; stroke-opacity: 0.55"/>
     </g>
     <g id="line2d_18">
      <g>
       <use xlink:href="#m7763dcbcf0" x="79.446875" y="47.395396" style="fill: #808080; stroke: #808080; stroke-width: 0.8"/>
      </g>
     </g>
     <g id="text_12">
      <text style="fill: #808080; font: 22px 'PingFang SC', 'Heiti SC', 'STHeiti', 'Calibri', 'Arial', 'Helvetica Neue', 'Arial Unicode MS', 'Noto Sans CJK SC', 'DejaVu Sans', sans-serif; text-anchor: end" x="72.446875" y="56.150708" transform="rotate(-0 72.446875 56.150708)">120</text>
     </g>
    </g>
    <g id="text_13">
     <text style="font: 22px 'PingFang SC', 'Heiti SC', 'STHeiti', 'Calibri', 'Arial', 'Helvetica Neue', 'Arial Unicode MS', 'Noto Sans CJK SC', 'DejaVu Sans', sans-serif; text-anchor: middle" x="28.929375" y="193.274062" transform="rotate(-90 28.929375 193.274062)">Bus 带宽 (GB/s)</text>
    </g>
   </g>
   <g id="line2d_19">
    <path d="M 106.745563 334.429239 
L 288.736816 272.560724 
L 470.72807 158.408737 
L 652.719323 49.139972 
" clip-path="url(#pc0911e87f8)" style="fill: none; stroke: #4c78a8; stroke-width: 2.2; stroke-linecap: square"/>
    <defs>
     <path id="m38b3a4842f" d="M 0 3.5 
C 0.928211 3.5 1.81853 3.131218 2.474874 2.474874 
C 3.131218 1.81853 3.5 0.928211 3.5 0 
C 3.5 -0.928211 3.131218 -1.81853 2.474874 -2.474874 
C 1.81853 -3.131218 0.928211 -3.5 0 -3.5 
C -0.928211 -3.5 -1.81853 -3.131218 -2.474874 -2.474874 
C -3.131218 -1.81853 -3.5 -0.928211 -3.5 0 
C -3.5 0.928211 -3.131218 1.81853 -2.474874 2.474874 
C -1.81853 3.131218 -0.928211 3.5 0 3.5 
z
" style="stroke: #4c78a8"/>
    </defs>
    <g clip-path="url(#pc0911e87f8)">
     <use xlink:href="#m38b3a4842f" x="106.745563" y="334.429239" style="fill: #4c78a8; stroke: #4c78a8"/>
     <use xlink:href="#m38b3a4842f" x="288.736816" y="272.560724" style="fill: #4c78a8; stroke: #4c78a8"/>
     <use xlink:href="#m38b3a4842f" x="470.72807" y="158.408737" style="fill: #4c78a8; stroke: #4c78a8"/>
     <use xlink:href="#m38b3a4842f" x="652.719323" y="49.139972" style="fill: #4c78a8; stroke: #4c78a8"/>
    </g>
   </g>
   <g id="line2d_20">
    <path d="M 106.745563 336.758455 
L 288.736816 297.539506 
L 470.72807 200.305546 
L 652.719323 83.643189 
" clip-path="url(#pc0911e87f8)" style="fill: none; stroke: #f58518; stroke-width: 2.2; stroke-linecap: square"/>
    <defs>
     <path id="m9839c67b9a" d="M 0 3.5 
C 0.928211 3.5 1.81853 3.131218 2.474874 2.474874 
C 3.131218 1.81853 3.5 0.928211 3.5 0 
C 3.5 -0.928211 3.131218 -1.81853 2.474874 -2.474874 
C 1.81853 -3.131218 0.928211 -3.5 0 -3.5 
C -0.928211 -3.5 -1.81853 -3.131218 -2.474874 -2.474874 
C -3.131218 -1.81853 -3.5 -0.928211 -3.5 0 
C -3.5 0.928211 -3.131218 1.81853 -2.474874 2.474874 
C -1.81853 3.131218 -0.928211 3.5 0 3.5 
z
" style="stroke: #f58518"/>
    </defs>
    <g clip-path="url(#pc0911e87f8)">
     <use xlink:href="#m9839c67b9a" x="106.745563" y="336.758455" style="fill: #f58518; stroke: #f58518"/>
     <use xlink:href="#m9839c67b9a" x="288.736816" y="297.539506" style="fill: #f58518; stroke: #f58518"/>
     <use xlink:href="#m9839c67b9a" x="470.72807" y="200.305546" style="fill: #f58518; stroke: #f58518"/>
     <use xlink:href="#m9839c67b9a" x="652.719323" y="83.643189" style="fill: #f58518; stroke: #f58518"/>
    </g>
   </g>
   <g id="line2d_21">
    <path d="M 106.745563 337.006949 
L 288.736816 323.943456 
L 470.72807 246.945455 
L 652.719323 152.00517 
" clip-path="url(#pc0911e87f8)" style="fill: none; stroke: #54a24b; stroke-width: 2.2; stroke-linecap: square"/>
    <defs>
     <path id="m6d753c85d9" d="M 0 3.5 
C 0.928211 3.5 1.81853 3.131218 2.474874 2.474874 
C 3.131218 1.81853 3.5 0.928211 3.5 0 
C 3.5 -0.928211 3.131218 -1.81853 2.474874 -2.474874 
C 1.81853 -3.131218 0.928211 -3.5 0 -3.5 
C -0.928211 -3.5 -1.81853 -3.131218 -2.474874 -2.474874 
C -3.131218 -1.81853 -3.5 -0.928211 -3.5 0 
C -3.5 0.928211 -3.131218 1.81853 -2.474874 2.474874 
C -1.81853 3.131218 -0.928211 3.5 0 3.5 
z
" style="stroke: #54a24b"/>
    </defs>
    <g clip-path="url(#pc0911e87f8)">
     <use xlink:href="#m6d753c85d9" x="106.745563" y="337.006949" style="fill: #54a24b; stroke: #54a24b"/>
     <use xlink:href="#m6d753c85d9" x="288.736816" y="323.943456" style="fill: #54a24b; stroke: #54a24b"/>
     <use xlink:href="#m6d753c85d9" x="470.72807" y="246.945455" style="fill: #54a24b; stroke: #54a24b"/>
     <use xlink:href="#m6d753c85d9" x="652.719323" y="152.00517" style="fill: #54a24b; stroke: #54a24b"/>
    </g>
   </g>
   <g id="line2d_22">
    <path d="M 106.745563 337.408153 
L 288.736816 330.099294 
L 470.72807 285.152067 
L 652.719323 181.95102 
" clip-path="url(#pc0911e87f8)" style="fill: none; stroke: #e45756; stroke-width: 2.2; stroke-linecap: square"/>
    <defs>
     <path id="ma1d7c20964" d="M 0 3.5 
C 0.928211 3.5 1.81853 3.131218 2.474874 2.474874 
C 3.131218 1.81853 3.5 0.928211 3.5 0 
C 3.5 -0.928211 3.131218 -1.81853 2.474874 -2.474874 
C 1.81853 -3.131218 0.928211 -3.5 0 -3.5 
C -0.928211 -3.5 -1.81853 -3.131218 -2.474874 -2.474874 
C -3.131218 -1.81853 -3.5 -0.928211 -3.5 0 
C -3.5 0.928211 -3.131218 1.81853 -2.474874 2.474874 
C -1.81853 3.131218 -0.928211 3.5 0 3.5 
z
" style="stroke: #e45756"/>
    </defs>
    <g clip-path="url(#pc0911e87f8)">
     <use xlink:href="#ma1d7c20964" x="106.745563" y="337.408153" style="fill: #e45756; stroke: #e45756"/>
     <use xlink:href="#ma1d7c20964" x="288.736816" y="330.099294" style="fill: #e45756; stroke: #e45756"/>
     <use xlink:href="#ma1d7c20964" x="470.72807" y="285.152067" style="fill: #e45756; stroke: #e45756"/>
     <use xlink:href="#ma1d7c20964" x="652.719323" y="181.95102" style="fill: #e45756; stroke: #e45756"/>
    </g>
   </g>
   <g id="patch_3">
    <path d="M 79.446875 351.821562 
L 79.446875 34.726563 
" style="fill: none; stroke: #808080; stroke-width: 0.8; stroke-linejoin: miter; stroke-linecap: square"/>
   </g>
   <g id="patch_4">
    <path d="M 79.446875 351.821562 
L 680.018011 351.821562 
" style="fill: none; stroke: #808080; stroke-width: 0.8; stroke-linejoin: miter; stroke-linecap: square"/>
   </g>
   <g id="text_14">
    <text style="font: 22px 'PingFang SC', 'Heiti SC', 'STHeiti', 'Calibri', 'Arial', 'Helvetica Neue', 'Arial Unicode MS', 'Noto Sans CJK SC', 'DejaVu Sans', sans-serif; text-anchor: middle" x="379.732443" y="28.726562" transform="rotate(-0 379.732443 28.726562)">All-Gather · Bus 带宽 vs 消息大小</text>
   </g>
   <g id="legend_1">
    <g id="patch_5">
     <path d="M 92.046875 177.826563 
L 238.566875 177.826563 
Q 242.166875 177.826563 242.166875 174.226563 
L 242.166875 47.326563 
Q 242.166875 43.726562 238.566875 43.726562 
L 92.046875 43.726562 
Q 88.446875 43.726562 88.446875 47.326563 
L 88.446875 174.226563 
Q 88.446875 177.826563 92.046875 177.826563 
z
" style="fill: #ffffff; opacity: 0.5; stroke: #cccccc; stroke-linejoin: miter"/>
    </g>
    <g id="text_15">
     <text style="font: 18px 'PingFang SC', 'Heiti SC', 'STHeiti', 'Calibri', 'Arial', 'Helvetica Neue', 'Arial Unicode MS', 'Noto Sans CJK SC', 'DejaVu Sans', sans-serif; text-anchor: start" x="147.306875" y="65.253438" transform="rotate(-0 147.306875 65.253438)">规模</text>
    </g>
    <g id="line2d_23">
     <path d="M 95.646875 84.693438 
L 113.646875 84.693438 
L 131.646875 84.693438 
" style="fill: none; stroke: #4c78a8; stroke-width: 2.2; stroke-linecap: square"/>
     <g>
      <use xlink:href="#m38b3a4842f" x="113.646875" y="84.693438" style="fill: #4c78a8; stroke: #4c78a8"/>
     </g>
    </g>
    <g id="text_16">
     <text style="font: 18px 'PingFang SC', 'Heiti SC', 'STHeiti', 'Calibri', 'Arial', 'Helvetica Neue', 'Arial Unicode MS', 'Noto Sans CJK SC', 'DejaVu Sans', sans-serif; text-anchor: start" x="146.046875" y="90.993438" transform="rotate(-0 146.046875 90.993438)">world=16</text>
    </g>
    <g id="line2d_24">
     <path d="M 95.646875 110.433438 
L 113.646875 110.433438 
L 131.646875 110.433438 
" style="fill: none; stroke: #f58518; stroke-width: 2.2; stroke-linecap: square"/>
     <g>
      <use xlink:href="#m9839c67b9a" x="113.646875" y="110.433438" style="fill: #f58518; stroke: #f58518"/>
     </g>
    </g>
    <g id="text_17">
     <text style="font: 18px 'PingFang SC', 'Heiti SC', 'STHeiti', 'Calibri', 'Arial', 'Helvetica Neue', 'Arial Unicode MS', 'Noto Sans CJK SC', 'DejaVu Sans', sans-serif; text-anchor: start" x="146.046875" y="116.733438" transform="rotate(-0 146.046875 116.733438)">world=32</text>
    </g>
    <g id="line2d_25">
     <path d="M 95.646875 136.173438 
L 113.646875 136.173438 
L 131.646875 136.173438 
" style="fill: none; stroke: #54a24b; stroke-width: 2.2; stroke-linecap: square"/>
     <g>
      <use xlink:href="#m6d753c85d9" x="113.646875" y="136.173438" style="fill: #54a24b; stroke: #54a24b"/>
     </g>
    </g>
    <g id="text_18">
     <text style="font: 18px 'PingFang SC', 'Heiti SC', 'STHeiti', 'Calibri', 'Arial', 'Helvetica Neue', 'Arial Unicode MS', 'Noto Sans CJK SC', 'DejaVu Sans', sans-serif; text-anchor: start" x="146.046875" y="142.473438" transform="rotate(-0 146.046875 142.473438)">world=64</text>
    </g>
    <g id="line2d_26">
     <path d="M 95.646875 161.913438 
L 113.646875 161.913438 
L 131.646875 161.913438 
" style="fill: none; stroke: #e45756; stroke-width: 2.2; stroke-linecap: square"/>
     <g>
      <use xlink:href="#ma1d7c20964" x="113.646875" y="161.913438" style="fill: #e45756; stroke: #e45756"/>
     </g>
    </g>
    <g id="text_19">
     <text style="font: 18px 'PingFang SC', 'Heiti SC', 'STHeiti', 'Calibri', 'Arial', 'Helvetica Neue', 'Arial Unicode MS', 'Noto Sans CJK SC', 'DejaVu Sans', sans-serif; text-anchor: start" x="146.046875" y="168.213438" transform="rotate(-0 146.046875 168.213438)">world=128</text>
    </g>
   </g>
  </g>
 </g>
 <defs>
  <clipPath id="pc0911e87f8">
   <rect x="79.446875" y="34.726562" width="600.571136" height="317.095"/>
  </clipPath>
 </defs>
</svg>
