<?xml version="1.0" encoding="utf-8" standalone="no"?>
<!DOCTYPE svg PUBLIC "-//W3C//DTD SVG 1.1//EN"
  "http://www.w3.org/Graphics/SVG/1.1/DTD/svg11.dtd">
<svg xmlns:xlink="http://www.w3.org/1999/xlink" width="702.879375pt" height="414.8025pt" viewBox="0 0 702.879375 414.8025" xmlns="http://www.w3.org/2000/svg" version="1.1">
 <metadata>
  <rdf:RDF xmlns:dc="http://purl.org/dc/elements/1.1/" xmlns:cc="http://creativecommons.org/ns#" xmlns:rdf="http://www.w3.org/1999/02/22-rdf-syntax-ns#">
   <cc:Work>
    <dc:type rdf:resource="http://purl.org/dc/dcmitype/StillImage"/>
    <dc:date>2026-07-11T21:18:46.450341</dc:date>
    <dc:format>image/svg+xml</dc:format>
    <dc:creator>
     <cc:Agent>
      <dc:title>Matplotlib v3.9.4, https://matplotlib.org/</dc:title>
     </cc:Agent>
    </dc:creator>
   </cc:Work>
  </rdf:RDF>
 </metadata>
 <defs>
  <style type="text/css">*{stroke-linejoin: round; stroke-linecap: butt}</style>
 </defs>
 <g id="figure_1">
  <g id="patch_1">
   <path d="M 0 414.8025 
L 702.879375 414.8025 
L 702.879375 0 
L 0 0 
z
" style="fill: #ffffff"/>
  </g>
  <g id="axes_1">
   <g id="patch_2">
    <path d="M 79.446875 352.0825 
L 692.079375 352.0825 
L 692.079375 34.640625 
L 79.446875 34.640625 
z
" style="fill: #ffffff"/>
   </g>
   <g id="matplotlib.axis_1">
    <g id="xtick_1">
     <g id="line2d_1">
      <defs>
       <path id="maf9dc7b99b" d="M 0 0 
L 0 3.5 
" style="stroke: #808080; stroke-width: 0.8"/>
      </defs>
      <g>
       <use xlink:href="#maf9dc7b99b" x="147.075138" y="352.0825" style="fill: #808080; stroke: #808080; stroke-width: 0.8"/>
      </g>
     </g>
     <g id="text_1">
      <text style="fill: #808080; font: 22px 'PingFang SC', 'Heiti SC', 'STHeiti', 'Calibri', 'Arial', 'Helvetica Neue', 'Arial Unicode MS', 'Noto Sans CJK SC', 'DejaVu Sans', sans-serif; text-anchor: middle" x="147.075138" y="376.593125" transform="rotate(-0 147.075138 376.593125)">16</text>
     </g>
    </g>
    <g id="xtick_2">
     <g id="line2d_2">
      <g>
       <use xlink:href="#maf9dc7b99b" x="306.200463" y="352.0825" style="fill: #808080; stroke: #808080; stroke-width: 0.8"/>
      </g>
     </g>
     <g id="text_2">
      <text style="fill: #808080; font: 22px 'PingFang SC', 'Heiti SC', 'STHeiti', 'Calibri', 'Arial', 'Helvetica Neue', 'Arial Unicode MS', 'Noto Sans CJK SC', 'DejaVu Sans', sans-serif; text-anchor: middle" x="306.200463" y="376.593125" transform="rotate(-0 306.200463 376.593125)">32</text>
     </g>
    </g>
    <g id="xtick_3">
     <g id="line2d_3">
      <g>
       <use xlink:href="#maf9dc7b99b" x="465.325787" y="352.0825" style="fill: #808080; stroke: #808080; stroke-width: 0.8"/>
      </g>
     </g>
     <g id="text_3">
      <text style="fill: #808080; font: 22px 'PingFang SC', 'Heiti SC', 'STHeiti', 'Calibri', 'Arial', 'Helvetica Neue', 'Arial Unicode MS', 'Noto Sans CJK SC', 'DejaVu Sans', sans-serif; text-anchor: middle" x="465.325787" y="376.593125" transform="rotate(-0 465.325787 376.593125)">64</text>
     </g>
    </g>
    <g id="xtick_4">
     <g id="line2d_4">
      <g>
       <use xlink:href="#maf9dc7b99b" x="624.451112" y="352.0825" style="fill: #808080; stroke: #808080; stroke-width: 0.8"/>
      </g>
     </g>
     <g id="text_4">
      <text style="fill: #808080; font: 22px 'PingFang SC', 'Heiti SC', 'STHeiti', 'Calibri', 'Arial', 'Helvetica Neue', 'Arial Unicode MS', 'Noto Sans CJK SC', 'DejaVu Sans', sans-serif; text-anchor: middle" x="624.451112" y="376.593125" transform="rotate(-0 624.451112 376.593125)">128</text>
     </g>
    </g>
    <g id="text_5">
     <text style="font: 22px 'PingFang SC', 'Heiti SC', 'STHeiti', 'Calibri', 'Arial', 'Helvetica Neue', 'Arial Unicode MS', 'Noto Sans CJK SC', 'DejaVu Sans', sans-serif; text-anchor: middle" x="385.763125" y="401.053125" transform="rotate(-0 385.763125 401.053125)">World 规模</text>
    </g>
   </g>
   <g id="matplotlib.axis_2">
    <g id="ytick_1">
     <g id="line2d_5">
      <path d="M 79.446875 343.784763 
L 692.079375 343.784763 
" clip-path="url(#p9e653b9ce0)" style="fill: none; stroke-dasharray: 1,1.65; stroke-dashoffset: 0; stroke: #808080; stroke-opacity: 0.55"/>
     </g>
     <g id="line2d_6">
      <defs>
       <path id="mb0172acd08" d="M 0 0 
L -3.5 0 
" style="stroke: #808080; stroke-width: 0.8"/>
      </defs>
      <g>
       <use xlink:href="#mb0172acd08" x="79.446875" y="343.784763" style="fill: #808080; stroke: #808080; stroke-width: 0.8"/>
      </g>
     </g>
     <g id="text_6">
      <text style="fill: #808080; font: 22px 'PingFang SC', 'Heiti SC', 'STHeiti', 'Calibri', 'Arial', 'Helvetica Neue', 'Arial Unicode MS', 'Noto Sans CJK SC', 'DejaVu Sans', sans-serif; text-anchor: end" x="72.446875" y="352.540076" transform="rotate(-0 72.446875 352.540076)">50</text>
     </g>
    </g>
    <g id="ytick_2">
     <g id="line2d_7">
      <path d="M 79.446875 295.081528 
L 692.079375 295.081528 
" clip-path="url(#p9e653b9ce0)" style="fill: none; stroke-dasharray: 1,1.65; stroke-dashoffset: 0; stroke: #808080; stroke-opacity: 0.55"/>
     </g>
     <g id="line2d_8">
      <g>
       <use xlink:href="#mb0172acd08" x="79.446875" y="295.081528" style="fill: #808080; stroke: #808080; stroke-width: 0.8"/>
      </g>
     </g>
     <g id="text_7">
      <text style="fill: #808080; font: 22px 'PingFang SC', 'Heiti SC', 'STHeiti', 'Calibri', 'Arial', 'Helvetica Neue', 'Arial Unicode MS', 'Noto Sans CJK SC', 'DejaVu Sans', sans-serif; text-anchor: end" x="72.446875" y="303.83684" transform="rotate(-0 72.446875 303.83684)">60</text>
     </g>
    </g>
    <g id="ytick_3">
     <g id="line2d_9">
      <path d="M 79.446875 246.378292 
L 692.079375 246.378292 
" clip-path="url(#p9e653b9ce0)" style="fill: none; stroke-dasharray: 1,1.65; stroke-dashoffset: 0; stroke: #808080; stroke-opacity: 0.55"/>
     </g>
     <g id="line2d_10">
      <g>
       <use xlink:href="#mb0172acd08" x="79.446875" y="246.378292" style="fill: #808080; stroke: #808080; stroke-width: 0.8"/>
      </g>
     </g>
     <g id="text_8">
      <text style="fill: #808080; font: 22px 'PingFang SC', 'Heiti SC', 'STHeiti', 'Calibri', 'Arial', 'Helvetica Neue', 'Arial Unicode MS', 'Noto Sans CJK SC', 'DejaVu Sans', sans-serif; text-anchor: end" x="72.446875" y="255.133605" transform="rotate(-0 72.446875 255.133605)">70</text>
     </g>
    </g>
    <g id="ytick_4">
     <g id="line2d_11">
      <path d="M 79.446875 197.675057 
L 692.079375 197.675057 
" clip-path="url(#p9e653b9ce0)" style="fill: none; stroke-dasharray: 1,1.65; stroke-dashoffset: 0; stroke: #808080; stroke-opacity: 0.55"/>
     </g>
     <g id="line2d_12">
      <g>
       <use xlink:href="#mb0172acd08" x="79.446875" y="197.675057" style="fill: #808080; stroke: #808080; stroke-width: 0.8"/>
      </g>
     </g>
     <g id="text_9">
      <text style="fill: #808080; font: 22px 'PingFang SC', 'Heiti SC', 'STHeiti', 'Calibri', 'Arial', 'Helvetica Neue', 'Arial Unicode MS', 'Noto Sans CJK SC', 'DejaVu Sans', sans-serif; text-anchor: end" x="72.446875" y="206.430369" transform="rotate(-0 72.446875 206.430369)">80</text>
     </g>
    </g>
    <g id="ytick_5">
     <g id="line2d_13">
      <path d="M 79.446875 148.971821 
L 692.079375 148.971821 
" clip-path="url(#p9e653b9ce0)" style="fill: none; stroke-dasharray: 1,1.65; stroke-dashoffset: 0; stroke: #808080; stroke-opacity: 0.55"/>
     </g>
     <g id="line2d_14">
      <g>
       <use xlink:href="#mb0172acd08" x="79.446875" y="148.971821" style="fill: #808080; stroke: #808080; stroke-width: 0.8"/>
      </g>
     </g>
     <g id="text_10">
      <text style="fill: #808080; font: 22px 'PingFang SC', 'Heiti SC', 'STHeiti', 'Calibri', 'Arial', 'Helvetica Neue', 'Arial Unicode MS', 'Noto Sans CJK SC', 'DejaVu Sans', sans-serif; text-anchor: end" x="72.446875" y="157.727134" transform="rotate(-0 72.446875 157.727134)">90</text>
     </g>
    </g>
    <g id="ytick_6">
     <g id="line2d_15">
      <path d="M 79.446875 100.268586 
L 692.079375 100.268586 
" clip-path="url(#p9e653b9ce0)" style="fill: none; stroke-dasharray: 1,1.65; stroke-dashoffset: 0; stroke: #808080; stroke-opacity: 0.55"/>
     </g>
     <g id="line2d_16">
      <g>
       <use xlink:href="#mb0172acd08" x="79.446875" y="100.268586" style="fill: #808080; stroke: #808080; stroke-width: 0.8"/>
      </g>
     </g>
     <g id="text_11">
      <text style="fill: #808080; font: 22px 'PingFang SC', 'Heiti SC', 'STHeiti', 'Calibri', 'Arial', 'Helvetica Neue', 'Arial Unicode MS', 'Noto Sans CJK SC', 'DejaVu Sans', sans-serif; text-anchor: end" x="72.446875" y="109.023898" transform="rotate(-0 72.446875 109.023898)">100</text>
     </g>
    </g>
    <g id="ytick_7">
     <g id="line2d_17">
      <path d="M 79.446875 51.56535 
L 692.079375 51.56535 
" clip-path="url(#p9e653b9ce0)" style="fill: none; stroke-dasharray: 1,1.65; stroke-dashoffset: 0; stroke: #808080; stroke-opacity: 0.55"/>
     </g>
     <g id="line2d_18">
      <g>
       <use xlink:href="#mb0172acd08" x="79.446875" y="51.56535" style="fill: #808080; stroke: #808080; stroke-width: 0.8"/>
      </g>
     </g>
     <g id="text_12">
      <text style="fill: #808080; font: 22px 'PingFang SC', 'Heiti SC', 'STHeiti', 'Calibri', 'Arial', 'Helvetica Neue', 'Arial Unicode MS', 'Noto Sans CJK SC', 'DejaVu Sans', sans-serif; text-anchor: end" x="72.446875" y="60.320663" transform="rotate(-0 72.446875 60.320663)">110</text>
     </g>
    </g>
    <g id="text_13">
     <text style="font: 22px 'PingFang SC', 'Heiti SC', 'STHeiti', 'Calibri', 'Arial', 'Helvetica Neue', 'Arial Unicode MS', 'Noto Sans CJK SC', 'DejaVu Sans', sans-serif; text-anchor: middle" x="28.929375" y="193.361562" transform="rotate(-90 28.929375 193.361562)">Bus 带宽 (GB/s)</text>
    </g>
   </g>
   <g id="PolyCollection_1">
    <path d="M 149.739208 51.974827 
L 144.411068 51.974827 
L 144.418007 51.945484 
L 144.438716 51.91614 
L 144.472872 51.886796 
L 144.519949 51.857453 
L 144.579227 51.828109 
L 144.649813 51.798765 
L 144.730664 51.769421 
L 144.82061 51.740078 
L 144.918385 51.710734 
L 145.022653 51.68139 
L 145.132043 51.652047 
L 145.245172 51.622703 
L 145.360681 51.593359 
L 145.477255 51.564016 
L 145.59365 51.534672 
L 145.708712 51.505328 
L 145.821394 51.475984 
L 145.930767 51.446641 
L 146.036032 51.417297 
L 146.136522 51.387953 
L 146.231701 51.35861 
L 146.321168 51.329266 
L 146.404646 51.299922 
L 146.481974 51.270579 
L 146.553103 51.241235 
L 146.618075 51.211891 
L 146.677018 51.182547 
L 146.730128 51.153204 
L 146.777658 51.12386 
L 146.819903 51.094516 
L 146.857188 51.065173 
L 146.889855 51.035829 
L 146.918251 51.006485 
L 146.942718 50.977142 
L 146.963582 50.947798 
L 146.981146 50.918454 
L 146.995679 50.88911 
L 147.007407 50.859767 
L 147.016509 50.830423 
L 147.023104 50.801079 
L 147.027246 50.771736 
L 147.028911 50.742392 
L 147.027988 50.713048 
L 147.024269 50.683705 
L 147.017432 50.654361 
L 147.007027 50.625017 
L 146.992461 50.595674 
L 146.972974 50.56633 
L 146.947622 50.536986 
L 146.915253 50.507642 
L 146.874482 50.478299 
L 146.823666 50.448955 
L 146.760879 50.419611 
L 146.683887 50.390268 
L 146.590126 50.360924 
L 146.476686 50.33158 
L 146.340287 50.302237 
L 146.177283 50.272893 
L 145.983653 50.243549 
L 145.755016 50.214205 
L 145.486656 50.184862 
L 145.173553 50.155518 
L 144.810445 50.126174 
L 144.39189 50.096831 
L 143.912361 50.067487 
L 143.366356 50.038143 
L 142.748519 50.0088 
L 142.053792 49.979456 
L 141.277572 49.950112 
L 140.415892 49.920768 
L 139.4656 49.891425 
L 138.424557 49.862081 
L 137.291824 49.832737 
L 136.067846 49.803394 
L 134.754627 49.77405 
L 133.355877 49.744706 
L 131.877137 49.715363 
L 130.325862 49.686019 
L 128.711472 49.656675 
L 127.045342 49.627331 
L 125.340746 49.597988 
L 123.612745 49.568644 
L 121.878016 49.5393 
L 120.154617 49.509957 
L 118.461714 49.480613 
L 116.819236 49.451269 
L 115.24751 49.421926 
L 113.766847 49.392582 
L 112.397114 49.363238 
L 111.157292 49.333894 
L 110.065045 49.304551 
L 109.1363 49.275207 
L 108.38486 49.245863 
L 107.822064 49.21652 
L 107.456505 49.187176 
L 107.293807 49.157832 
L 107.336483 49.128489 
L 107.583873 49.099145 
L 108.032156 49.069801 
L 186.11812 49.069801 
L 186.11812 49.069801 
L 186.566403 49.099145 
L 186.813793 49.128489 
L 186.856469 49.157832 
L 186.693771 49.187176 
L 186.328212 49.21652 
L 185.765416 49.245863 
L 185.013976 49.275207 
L 184.085231 49.304551 
L 182.992984 49.333894 
L 181.753162 49.363238 
L 180.383429 49.392582 
L 178.902766 49.421926 
L 177.33104 49.451269 
L 175.688562 49.480613 
L 173.995659 49.509957 
L 172.27226 49.5393 
L 170.537531 49.568644 
L 168.80953 49.597988 
L 167.104934 49.627331 
L 165.438803 49.656675 
L 163.824414 49.686019 
L 162.273139 49.715363 
L 160.794399 49.744706 
L 159.395649 49.77405 
L 158.08243 49.803394 
L 156.858452 49.832737 
L 155.725719 49.862081 
L 154.684676 49.891425 
L 153.734384 49.920768 
L 152.872704 49.950112 
L 152.096484 49.979456 
L 151.401757 50.0088 
L 150.78392 50.038143 
L 150.237915 50.067487 
L 149.758386 50.096831 
L 149.339831 50.126174 
L 148.976723 50.155518 
L 148.66362 50.184862 
L 148.39526 50.214205 
L 148.166623 50.243549 
L 147.972993 50.272893 
L 147.809989 50.302237 
L 147.67359 50.33158 
L 147.560149 50.360924 
L 147.466389 50.390268 
L 147.389397 50.419611 
L 147.32661 50.448955 
L 147.275794 50.478299 
L 147.235023 50.507642 
L 147.202654 50.536986 
L 147.177302 50.56633 
L 147.157815 50.595674 
L 147.143249 50.625017 
L 147.132844 50.654361 
L 147.126007 50.683705 
L 147.122288 50.713048 
L 147.121365 50.742392 
L 147.12303 50.771736 
L 147.127172 50.801079 
L 147.133767 50.830423 
L 147.142869 50.859767 
L 147.154597 50.88911 
L 147.16913 50.918454 
L 147.186694 50.947798 
L 147.207558 50.977142 
L 147.232025 51.006485 
L 147.260421 51.035829 
L 147.293087 51.065173 
L 147.330373 51.094516 
L 147.372618 51.12386 
L 147.420148 51.153204 
L 147.473258 51.182547 
L 147.532201 51.211891 
L 147.597173 51.241235 
L 147.668302 51.270579 
L 147.74563 51.299922 
L 147.829108 51.329266 
L 147.918575 51.35861 
L 148.013754 51.387953 
L 148.114243 51.417297 
L 148.219509 51.446641 
L 148.328882 51.475984 
L 148.441564 51.505328 
L 148.556626 51.534672 
L 148.673021 51.564016 
L 148.789595 51.593359 
L 148.905104 51.622703 
L 149.018233 51.652047 
L 149.127623 51.68139 
L 149.231891 51.710734 
L 149.329666 51.740078 
L 149.419612 51.769421 
L 149.500463 51.798765 
L 149.571049 51.828109 
L 149.630327 51.857453 
L 149.677404 51.886796 
L 149.71156 51.91614 
L 149.732269 51.945484 
L 149.739208 51.974827 
z
" clip-path="url(#p9e653b9ce0)" style="fill: #4c78a8; fill-opacity: 0.65"/>
   </g>
   <g id="PolyCollection_2">
    <path d="M 311.207589 93.382916 
L 301.193337 93.382916 
L 301.119458 93.381783 
L 301.054684 93.380651 
L 300.997129 93.379518 
L 300.94453 93.378386 
L 300.894272 93.377253 
L 300.843425 93.37612 
L 300.788785 93.374988 
L 300.726922 93.373855 
L 300.654235 93.372723 
L 300.567007 93.37159 
L 300.461463 93.370457 
L 300.333828 93.369325 
L 300.180389 93.368192 
L 299.997543 93.36706 
L 299.781853 93.365927 
L 299.530094 93.364794 
L 299.239293 93.363662 
L 298.906765 93.362529 
L 298.530144 93.361397 
L 298.107409 93.360264 
L 297.6369 93.359131 
L 297.117334 93.357999 
L 296.547815 93.356866 
L 295.927846 93.355734 
L 295.257329 93.354601 
L 294.536573 93.353468 
L 293.766296 93.352336 
L 292.947633 93.351203 
L 292.082135 93.350071 
L 291.171779 93.348938 
L 290.218972 93.347805 
L 289.226555 93.346673 
L 288.19781 93.34554 
L 287.136461 93.344408 
L 286.046674 93.343275 
L 284.933052 93.342143 
L 283.800624 93.34101 
L 282.654828 93.339877 
L 281.50148 93.338745 
L 280.346742 93.337612 
L 279.197073 93.33648 
L 278.059167 93.335347 
L 276.939892 93.334214 
L 275.846205 93.333082 
L 274.785067 93.331949 
L 273.763351 93.330817 
L 272.787736 93.329684 
L 271.86461 93.328551 
L 270.999967 93.327419 
L 270.199306 93.326286 
L 269.467542 93.325154 
L 268.808919 93.324021 
L 268.22694 93.322888 
L 267.724309 93.321756 
L 267.302893 93.320623 
L 266.963692 93.319491 
L 266.706841 93.318358 
L 266.531622 93.317225 
L 266.43649 93.316093 
L 266.419131 93.31496 
L 266.476522 93.313828 
L 266.605008 93.312695 
L 266.800393 93.311562 
L 267.058041 93.31043 
L 267.372974 93.309297 
L 267.739982 93.308165 
L 268.153727 93.307032 
L 268.608852 93.305899 
L 269.100074 93.304767 
L 269.622278 93.303634 
L 270.170603 93.302502 
L 270.740513 93.301369 
L 271.327861 93.300237 
L 271.928935 93.299104 
L 272.540502 93.297971 
L 273.159832 93.296839 
L 273.78471 93.295706 
L 274.413437 93.294574 
L 275.044824 93.293441 
L 275.678166 93.292308 
L 276.313215 93.291176 
L 276.950135 93.290043 
L 277.589459 93.288911 
L 278.232025 93.287778 
L 278.878919 93.286645 
L 279.531407 93.285513 
L 280.190861 93.28438 
L 280.858693 93.283248 
L 281.536275 93.282115 
L 282.224878 93.280982 
L 282.925596 93.27985 
L 283.639293 93.278717 
L 284.366543 93.277585 
L 285.107587 93.276452 
L 285.862299 93.275319 
L 286.630157 93.274187 
L 287.410234 93.273054 
L 288.201196 93.271922 
L 289.001315 93.270789 
L 323.39961 93.270789 
L 323.39961 93.270789 
L 324.199729 93.271922 
L 324.990692 93.273054 
L 325.770769 93.274187 
L 326.538626 93.275319 
L 327.293338 93.276452 
L 328.034382 93.277585 
L 328.761632 93.278717 
L 329.475329 93.27985 
L 330.176048 93.280982 
L 330.86465 93.282115 
L 331.542233 93.283248 
L 332.210064 93.28438 
L 332.869518 93.285513 
L 333.522006 93.286645 
L 334.1689 93.287778 
L 334.811466 93.288911 
L 335.45079 93.290043 
L 336.087711 93.291176 
L 336.722759 93.292308 
L 337.356102 93.293441 
L 337.987488 93.294574 
L 338.616216 93.295706 
L 339.241093 93.296839 
L 339.860423 93.297971 
L 340.471991 93.299104 
L 341.073065 93.300237 
L 341.660412 93.301369 
L 342.230322 93.302502 
L 342.778648 93.303634 
L 343.300852 93.304767 
L 343.792073 93.305899 
L 344.247198 93.307032 
L 344.660944 93.308165 
L 345.027951 93.309297 
L 345.342884 93.31043 
L 345.600532 93.311562 
L 345.795918 93.312695 
L 345.924403 93.313828 
L 345.981794 93.31496 
L 345.964435 93.316093 
L 345.869304 93.317225 
L 345.694084 93.318358 
L 345.437234 93.319491 
L 345.098033 93.320623 
L 344.676616 93.321756 
L 344.173985 93.322888 
L 343.592006 93.324021 
L 342.933383 93.325154 
L 342.201619 93.326286 
L 341.400959 93.327419 
L 340.536316 93.328551 
L 339.61319 93.329684 
L 338.637575 93.330817 
L 337.615858 93.331949 
L 336.554721 93.333082 
L 335.461034 93.334214 
L 334.341758 93.335347 
L 333.203853 93.33648 
L 332.054183 93.337612 
L 330.899445 93.338745 
L 329.746098 93.339877 
L 328.600301 93.34101 
L 327.467874 93.342143 
L 326.354252 93.343275 
L 325.264464 93.344408 
L 324.203115 93.34554 
L 323.17437 93.346673 
L 322.181953 93.347805 
L 321.229146 93.348938 
L 320.318791 93.350071 
L 319.453293 93.351203 
L 318.634629 93.352336 
L 317.864353 93.353468 
L 317.143596 93.354601 
L 316.473079 93.355734 
L 315.85311 93.356866 
L 315.283592 93.357999 
L 314.764025 93.359131 
L 314.293516 93.360264 
L 313.870781 93.361397 
L 313.494161 93.362529 
L 313.161633 93.363662 
L 312.870831 93.364794 
L 312.619072 93.365927 
L 312.403382 93.36706 
L 312.220536 93.368192 
L 312.067097 93.369325 
L 311.939463 93.370457 
L 311.833918 93.37159 
L 311.74669 93.372723 
L 311.674003 93.373855 
L 311.612141 93.374988 
L 311.5575 93.37612 
L 311.506654 93.377253 
L 311.456396 93.378386 
L 311.403796 93.379518 
L 311.346241 93.380651 
L 311.281467 93.381783 
L 311.207589 93.382916 
z
" clip-path="url(#p9e653b9ce0)" style="fill: #4c78a8; fill-opacity: 0.65"/>
   </g>
   <g id="PolyCollection_3">
    <path d="M 470.953094 205.458333 
L 459.698481 205.458333 
L 459.521592 205.457329 
L 459.36126 205.456325 
L 459.218106 205.455321 
L 459.092382 205.454317 
L 458.983948 205.453313 
L 458.892245 205.452309 
L 458.816279 205.451306 
L 458.754608 205.450302 
L 458.705327 205.449298 
L 458.666069 205.448294 
L 458.63401 205.44729 
L 458.605874 205.446286 
L 458.577954 205.445282 
L 458.546141 205.444278 
L 458.505955 205.443274 
L 458.45259 205.44227 
L 458.380972 205.441266 
L 458.285815 205.440262 
L 458.161697 205.439258 
L 458.003135 205.438255 
L 457.80467 205.437251 
L 457.560951 205.436247 
L 457.266833 205.435243 
L 456.917461 205.434239 
L 456.508363 205.433235 
L 456.035539 205.432231 
L 455.495541 205.431227 
L 454.885556 205.430223 
L 454.20347 205.429219 
L 453.44794 205.428215 
L 452.618451 205.427211 
L 451.715364 205.426207 
L 450.739967 205.425203 
L 449.694508 205.4242 
L 448.582236 205.423196 
L 447.407424 205.422192 
L 446.17539 205.421188 
L 444.892515 205.420184 
L 443.566248 205.41918 
L 442.205096 205.418176 
L 440.818613 205.417172 
L 439.417358 205.416168 
L 438.012841 205.415164 
L 436.617447 205.41416 
L 435.24433 205.413156 
L 433.907281 205.412152 
L 432.620564 205.411149 
L 431.398727 205.410145 
L 430.256379 205.409141 
L 429.207946 205.408137 
L 428.267402 205.407133 
L 427.447993 205.406129 
L 426.761943 205.405125 
L 426.220169 205.404121 
L 425.832007 205.403117 
L 425.604956 205.402113 
L 425.544456 205.401109 
L 425.653706 205.400105 
L 425.933526 205.399101 
L 426.382283 205.398098 
L 426.995869 205.397094 
L 427.767745 205.39609 
L 428.689041 205.395086 
L 429.748732 205.394082 
L 430.933846 205.393078 
L 432.229741 205.392074 
L 433.620412 205.39107 
L 435.088831 205.390066 
L 436.617302 205.389062 
L 438.187834 205.388058 
L 439.782501 205.387054 
L 441.383795 205.38605 
L 442.974954 205.385047 
L 444.540258 205.384043 
L 446.065286 205.383039 
L 447.537136 205.382035 
L 448.944587 205.381031 
L 450.27822 205.380027 
L 451.530494 205.379023 
L 452.695763 205.378019 
L 453.770258 205.377015 
L 454.752025 205.376011 
L 455.640828 205.375007 
L 456.438017 205.374003 
L 457.146379 205.372999 
L 457.769954 205.371995 
L 458.313857 205.370992 
L 458.784069 205.369988 
L 459.187244 205.368984 
L 459.530504 205.36798 
L 459.821245 205.366976 
L 460.066952 205.365972 
L 460.275026 205.364968 
L 460.452628 205.363964 
L 460.606542 205.36296 
L 460.743058 205.361956 
L 460.867872 205.360952 
L 460.986021 205.359948 
L 461.101825 205.358944 
L 469.54975 205.358944 
L 469.54975 205.358944 
L 469.665554 205.359948 
L 469.783702 205.360952 
L 469.908517 205.361956 
L 470.045032 205.36296 
L 470.198946 205.363964 
L 470.376549 205.364968 
L 470.584622 205.365972 
L 470.830329 205.366976 
L 471.12107 205.36798 
L 471.46433 205.368984 
L 471.867506 205.369988 
L 472.337718 205.370992 
L 472.88162 205.371995 
L 473.505196 205.372999 
L 474.213557 205.374003 
L 475.010747 205.375007 
L 475.89955 205.376011 
L 476.881317 205.377015 
L 477.955812 205.378019 
L 479.12108 205.379023 
L 480.373354 205.380027 
L 481.706988 205.381031 
L 483.114439 205.382035 
L 484.586288 205.383039 
L 486.111317 205.384043 
L 487.676621 205.385047 
L 489.26778 205.38605 
L 490.869074 205.387054 
L 492.463741 205.388058 
L 494.034273 205.389062 
L 495.562744 205.390066 
L 497.031162 205.39107 
L 498.421834 205.392074 
L 499.717729 205.393078 
L 500.902843 205.394082 
L 501.962533 205.395086 
L 502.88383 205.39609 
L 503.655705 205.397094 
L 504.269292 205.398098 
L 504.718049 205.399101 
L 504.997869 205.400105 
L 505.107119 205.401109 
L 505.046619 205.402113 
L 504.819568 205.403117 
L 504.431406 205.404121 
L 503.889632 205.405125 
L 503.203581 205.406129 
L 502.384172 205.407133 
L 501.443629 205.408137 
L 500.395196 205.409141 
L 499.252847 205.410145 
L 498.03101 205.411149 
L 496.744294 205.412152 
L 495.407245 205.413156 
L 494.034128 205.41416 
L 492.638734 205.415164 
L 491.234217 205.416168 
L 489.832961 205.417172 
L 488.446478 205.418176 
L 487.085327 205.41918 
L 485.75906 205.420184 
L 484.476185 205.421188 
L 483.244151 205.422192 
L 482.069338 205.423196 
L 480.957066 205.4242 
L 479.911608 205.425203 
L 478.93621 205.426207 
L 478.033124 205.427211 
L 477.203635 205.428215 
L 476.448105 205.429219 
L 475.766019 205.430223 
L 475.156033 205.431227 
L 474.616036 205.432231 
L 474.143212 205.433235 
L 473.734114 205.434239 
L 473.384742 205.435243 
L 473.090623 205.436247 
L 472.846905 205.437251 
L 472.648439 205.438255 
L 472.489878 205.439258 
L 472.36576 205.440262 
L 472.270603 205.441266 
L 472.198985 205.44227 
L 472.14562 205.443274 
L 472.105433 205.444278 
L 472.07362 205.445282 
L 472.045701 205.446286 
L 472.017565 205.44729 
L 471.985505 205.448294 
L 471.946248 205.449298 
L 471.896967 205.450302 
L 471.835295 205.451306 
L 471.75933 205.452309 
L 471.667627 205.453313 
L 471.559192 205.454317 
L 471.433468 205.455321 
L 471.290314 205.456325 
L 471.129983 205.457329 
L 470.953094 205.458333 
z
" clip-path="url(#p9e653b9ce0)" style="fill: #4c78a8; fill-opacity: 0.65"/>
   </g>
   <g id="PolyCollection_4">
    <path d="M 637.622257 337.653324 
L 611.279967 337.653324 
L 610.742738 337.652967 
L 610.212713 337.652609 
L 609.691294 337.652252 
L 609.179729 337.651895 
L 608.679095 337.651538 
L 608.190284 337.651181 
L 607.71399 337.650823 
L 607.250706 337.650466 
L 606.800711 337.650109 
L 606.36407 337.649752 
L 605.940636 337.649395 
L 605.53005 337.649037 
L 605.131746 337.64868 
L 604.744961 337.648323 
L 604.368746 337.647966 
L 604.001976 337.647608 
L 603.643368 337.647251 
L 603.291497 337.646894 
L 602.944817 337.646537 
L 602.60168 337.64618 
L 602.260358 337.645822 
L 601.919072 337.645465 
L 601.57601 337.645108 
L 601.229359 337.644751 
L 600.87733 337.644394 
L 600.518186 337.644036 
L 600.150271 337.643679 
L 599.772034 337.643322 
L 599.382062 337.642965 
L 598.979106 337.642607 
L 598.562103 337.64225 
L 598.130207 337.641893 
L 597.682807 337.641536 
L 597.219551 337.641179 
L 596.740363 337.640821 
L 596.245456 337.640464 
L 595.735349 337.640107 
L 595.210869 337.63975 
L 594.673157 337.639393 
L 594.12367 337.639035 
L 593.56417 337.638678 
L 592.996719 337.638321 
L 592.423662 337.637964 
L 591.847608 337.637607 
L 591.271407 337.637249 
L 590.698124 337.636892 
L 590.131003 337.636535 
L 589.573437 337.636178 
L 589.02893 337.63582 
L 588.501058 337.635463 
L 587.993428 337.635106 
L 587.509639 337.634749 
L 587.05324 337.634392 
L 586.627694 337.634034 
L 586.236336 337.633677 
L 585.88234 337.63332 
L 585.568687 337.632963 
L 585.298133 337.632606 
L 585.073185 337.632248 
L 584.89608 337.631891 
L 584.768767 337.631534 
L 584.692889 337.631177 
L 584.669781 337.630819 
L 584.700457 337.630462 
L 584.785613 337.630105 
L 584.925626 337.629748 
L 585.120558 337.629391 
L 585.370165 337.629033 
L 585.673904 337.628676 
L 586.030946 337.628319 
L 586.44019 337.627962 
L 586.900275 337.627605 
L 587.409596 337.627247 
L 587.966322 337.62689 
L 588.568411 337.626533 
L 589.213629 337.626176 
L 589.899565 337.625818 
L 590.623653 337.625461 
L 591.383187 337.625104 
L 592.175343 337.624747 
L 592.997196 337.62439 
L 593.845739 337.624032 
L 594.717904 337.623675 
L 595.61058 337.623318 
L 596.520635 337.622961 
L 597.444933 337.622604 
L 598.380355 337.622246 
L 599.323816 337.621889 
L 600.272288 337.621532 
L 601.22281 337.621175 
L 602.172511 337.620818 
L 603.118624 337.62046 
L 604.058496 337.620103 
L 604.989605 337.619746 
L 605.909569 337.619389 
L 606.816155 337.619031 
L 607.707282 337.618674 
L 608.581035 337.618317 
L 609.435661 337.61796 
L 639.466564 337.61796 
L 639.466564 337.61796 
L 640.321189 337.618317 
L 641.194942 337.618674 
L 642.086069 337.619031 
L 642.992655 337.619389 
L 643.912619 337.619746 
L 644.843728 337.620103 
L 645.7836 337.62046 
L 646.729713 337.620818 
L 647.679414 337.621175 
L 648.629936 337.621532 
L 649.578408 337.621889 
L 650.521869 337.622246 
L 651.457291 337.622604 
L 652.381589 337.622961 
L 653.291644 337.623318 
L 654.18432 337.623675 
L 655.056485 337.624032 
L 655.905028 337.62439 
L 656.726881 337.624747 
L 657.519037 337.625104 
L 658.278571 337.625461 
L 659.002659 337.625818 
L 659.688595 337.626176 
L 660.333813 337.626533 
L 660.935902 337.62689 
L 661.492628 337.627247 
L 662.001949 337.627605 
L 662.462034 337.627962 
L 662.871278 337.628319 
L 663.22832 337.628676 
L 663.532059 337.629033 
L 663.781666 337.629391 
L 663.976598 337.629748 
L 664.116611 337.630105 
L 664.201767 337.630462 
L 664.232443 337.630819 
L 664.209335 337.631177 
L 664.133457 337.631534 
L 664.006144 337.631891 
L 663.829039 337.632248 
L 663.604091 337.632606 
L 663.333537 337.632963 
L 663.019884 337.63332 
L 662.665888 337.633677 
L 662.27453 337.634034 
L 661.848984 337.634392 
L 661.392585 337.634749 
L 660.908796 337.635106 
L 660.401166 337.635463 
L 659.873294 337.63582 
L 659.328787 337.636178 
L 658.771221 337.636535 
L 658.2041 337.636892 
L 657.630817 337.637249 
L 657.054616 337.637607 
L 656.478563 337.637964 
L 655.905505 337.638321 
L 655.338054 337.638678 
L 654.778554 337.639035 
L 654.229067 337.639393 
L 653.691355 337.63975 
L 653.166875 337.640107 
L 652.656768 337.640464 
L 652.161861 337.640821 
L 651.682673 337.641179 
L 651.219417 337.641536 
L 650.772017 337.641893 
L 650.340121 337.64225 
L 649.923118 337.642607 
L 649.520162 337.642965 
L 649.13019 337.643322 
L 648.751953 337.643679 
L 648.384038 337.644036 
L 648.024894 337.644394 
L 647.672865 337.644751 
L 647.326214 337.645108 
L 646.983152 337.645465 
L 646.641866 337.645822 
L 646.300544 337.64618 
L 645.957407 337.646537 
L 645.610727 337.646894 
L 645.258856 337.647251 
L 644.900248 337.647608 
L 644.533478 337.647966 
L 644.157263 337.648323 
L 643.770478 337.64868 
L 643.372174 337.649037 
L 642.961588 337.649395 
L 642.538154 337.649752 
L 642.101513 337.650109 
L 641.651518 337.650466 
L 641.188234 337.650823 
L 640.71194 337.651181 
L 640.223129 337.651538 
L 639.722495 337.651895 
L 639.21093 337.652252 
L 638.689512 337.652609 
L 638.159486 337.652967 
L 637.622257 337.653324 
z
" clip-path="url(#p9e653b9ce0)" style="fill: #4c78a8; fill-opacity: 0.65"/>
   </g>
   <g id="LineCollection_1">
    <path d="M 127.184472 49.325835 
L 166.965804 49.325835 
" clip-path="url(#p9e653b9ce0)" style="fill: none; stroke: #1f77b4; stroke-width: 1.5"/>
    <path d="M 286.309797 93.313465 
L 326.091128 93.313465 
" clip-path="url(#p9e653b9ce0)" style="fill: none; stroke: #1f77b4; stroke-width: 1.5"/>
    <path d="M 445.435122 205.40573 
L 485.216453 205.40573 
" clip-path="url(#p9e653b9ce0)" style="fill: none; stroke: #1f77b4; stroke-width: 1.5"/>
    <path d="M 604.560446 337.634537 
L 644.341778 337.634537 
" clip-path="url(#p9e653b9ce0)" style="fill: none; stroke: #1f77b4; stroke-width: 1.5"/>
   </g>
   <g id="LineCollection_2">
    <path d="M 127.184472 49.069801 
L 166.965804 49.069801 
" clip-path="url(#p9e653b9ce0)" style="fill: none; stroke: #1f77b4; stroke-width: 1.5"/>
    <path d="M 286.309797 93.270789 
L 326.091128 93.270789 
" clip-path="url(#p9e653b9ce0)" style="fill: none; stroke: #1f77b4; stroke-width: 1.5"/>
    <path d="M 445.435122 205.358944 
L 485.216453 205.358944 
" clip-path="url(#p9e653b9ce0)" style="fill: none; stroke: #1f77b4; stroke-width: 1.5"/>
    <path d="M 604.560446 337.61796 
L 644.341778 337.61796 
" clip-path="url(#p9e653b9ce0)" style="fill: none; stroke: #1f77b4; stroke-width: 1.5"/>
   </g>
   <g id="LineCollection_3">
    <path d="M 127.184472 51.974827 
L 166.965804 51.974827 
" clip-path="url(#p9e653b9ce0)" style="fill: none; stroke: #1f77b4; stroke-width: 1.5"/>
    <path d="M 286.309797 93.382916 
L 326.091128 93.382916 
" clip-path="url(#p9e653b9ce0)" style="fill: none; stroke: #1f77b4; stroke-width: 1.5"/>
    <path d="M 445.435122 205.458333 
L 485.216453 205.458333 
" clip-path="url(#p9e653b9ce0)" style="fill: none; stroke: #1f77b4; stroke-width: 1.5"/>
    <path d="M 604.560446 337.653324 
L 644.341778 337.653324 
" clip-path="url(#p9e653b9ce0)" style="fill: none; stroke: #1f77b4; stroke-width: 1.5"/>
   </g>
   <g id="LineCollection_4">
    <path d="M 147.075138 51.974827 
L 147.075138 49.069801 
" clip-path="url(#p9e653b9ce0)" style="fill: none; stroke: #1f77b4; stroke-width: 1.5"/>
    <path d="M 306.200463 93.382916 
L 306.200463 93.270789 
" clip-path="url(#p9e653b9ce0)" style="fill: none; stroke: #1f77b4; stroke-width: 1.5"/>
    <path d="M 465.325787 205.458333 
L 465.325787 205.358944 
" clip-path="url(#p9e653b9ce0)" style="fill: none; stroke: #1f77b4; stroke-width: 1.5"/>
    <path d="M 624.451112 337.653324 
L 624.451112 337.61796 
" clip-path="url(#p9e653b9ce0)" style="fill: none; stroke: #1f77b4; stroke-width: 1.5"/>
   </g>
   <g id="LineCollection_5">
    <path d="M 127.184472 49.15458 
L 166.965804 49.15458 
" clip-path="url(#p9e653b9ce0)" style="fill: none; stroke: #1f77b4; stroke-width: 1.5"/>
    <path d="M 286.309797 93.316721 
L 326.091128 93.316721 
" clip-path="url(#p9e653b9ce0)" style="fill: none; stroke: #1f77b4; stroke-width: 1.5"/>
    <path d="M 445.435122 205.401062 
L 485.216453 205.401062 
" clip-path="url(#p9e653b9ce0)" style="fill: none; stroke: #1f77b4; stroke-width: 1.5"/>
    <path d="M 604.560446 337.633088 
L 644.341778 337.633088 
" clip-path="url(#p9e653b9ce0)" style="fill: none; stroke: #1f77b4; stroke-width: 1.5"/>
   </g>
   <g id="patch_3">
    <path d="M 79.446875 352.0825 
L 79.446875 34.640625 
" style="fill: none; stroke: #808080; stroke-width: 0.8; stroke-linejoin: miter; stroke-linecap: square"/>
   </g>
   <g id="patch_4">
    <path d="M 79.446875 352.0825 
L 692.079375 352.0825 
" style="fill: none; stroke: #808080; stroke-width: 0.8; stroke-linejoin: miter; stroke-linecap: square"/>
   </g>
   <g id="text_14">
    <text style="font: 22px 'PingFang SC', 'Heiti SC', 'STHeiti', 'Calibri', 'Arial', 'Helvetica Neue', 'Arial Unicode MS', 'Noto Sans CJK SC', 'DejaVu Sans', sans-serif; text-anchor: middle" x="385.763125" y="28.640625" transform="rotate(-0 385.763125 28.640625)">Reduce-Scatter · 256 MB Rank 分布（Violin）</text>
   </g>
  </g>
 </g>
 <defs>
  <clipPath id="p9e653b9ce0">
   <rect x="79.446875" y="34.640625" width="612.6325" height="317.441875"/>
  </clipPath>
 </defs>
</svg>
