<?xml version="1.0" encoding="utf-8" standalone="no"?>
<!DOCTYPE svg PUBLIC "-//W3C//DTD SVG 1.1//EN"
  "http://www.w3.org/Graphics/SVG/1.1/DTD/svg11.dtd">
<svg xmlns:xlink="http://www.w3.org/1999/xlink" width="700.457704pt" height="414.582812pt" viewBox="0 0 700.457704 414.582812" xmlns="http://www.w3.org/2000/svg" version="1.1">
 <metadata>
  <rdf:RDF xmlns:dc="http://purl.org/dc/elements/1.1/" xmlns:cc="http://creativecommons.org/ns#" xmlns:rdf="http://www.w3.org/1999/02/22-rdf-syntax-ns#">
   <cc:Work>
    <dc:type rdf:resource="http://purl.org/dc/dcmitype/StillImage"/>
    <dc:date>2026-07-11T21:18:46.115199</dc:date>
    <dc:format>image/svg+xml</dc:format>
    <dc:creator>
     <cc:Agent>
      <dc:title>Matplotlib v3.9.4, https://matplotlib.org/</dc:title>
     </cc:Agent>
    </dc:creator>
   </cc:Work>
  </rdf:RDF>
 </metadata>
 <defs>
  <style type="text/css">*{stroke-linejoin: round; stroke-linecap: butt}</style>
 </defs>
 <g id="figure_1">
  <g id="patch_1">
   <path d="M 0 414.582812 
L 700.457704 414.582812 
L 700.457704 0 
L 0 0 
z
" style="fill: #ffffff"/>
  </g>
  <g id="axes_1">
   <g id="patch_2">
    <path d="M 67.2575 351.821562 
L 680.053636 351.821562 
L 680.053636 34.726562 
L 67.2575 34.726562 
z
" style="fill: #ffffff"/>
   </g>
   <g id="matplotlib.axis_1">
    <g id="xtick_1">
     <g id="line2d_1">
      <defs>
       <path id="m87ce704df6" d="M 0 0 
L 0 3.5 
" style="stroke: #808080; stroke-width: 0.8"/>
      </defs>
      <g>
       <use xlink:href="#m87ce704df6" x="95.11187" y="351.821562" style="fill: #808080; stroke: #808080; stroke-width: 0.8"/>
      </g>
     </g>
     <g id="text_1">
      <text style="fill: #808080; font: 22px 'PingFang SC', 'Heiti SC', 'STHeiti', 'Calibri', 'Arial', 'Helvetica Neue', 'Arial Unicode MS', 'Noto Sans CJK SC', 'DejaVu Sans', sans-serif; text-anchor: middle" x="95.11187" y="376.332187" transform="rotate(-0 95.11187 376.332187)">1 MB</text>
     </g>
    </g>
    <g id="xtick_2">
     <g id="line2d_2">
      <g>
       <use xlink:href="#m87ce704df6" x="280.807669" y="351.821562" style="fill: #808080; stroke: #808080; stroke-width: 0.8"/>
      </g>
     </g>
     <g id="text_2">
      <text style="fill: #808080; font: 22px 'PingFang SC', 'Heiti SC', 'STHeiti', 'Calibri', 'Arial', 'Helvetica Neue', 'Arial Unicode MS', 'Noto Sans CJK SC', 'DejaVu Sans', sans-serif; text-anchor: middle" x="280.807669" y="376.332187" transform="rotate(-0 280.807669 376.332187)">16 MB</text>
     </g>
    </g>
    <g id="xtick_3">
     <g id="line2d_3">
      <g>
       <use xlink:href="#m87ce704df6" x="466.503468" y="351.821562" style="fill: #808080; stroke: #808080; stroke-width: 0.8"/>
      </g>
     </g>
     <g id="text_3">
      <text style="fill: #808080; font: 22px 'PingFang SC', 'Heiti SC', 'STHeiti', 'Calibri', 'Arial', 'Helvetica Neue', 'Arial Unicode MS', 'Noto Sans CJK SC', 'DejaVu Sans', sans-serif; text-anchor: middle" x="466.503468" y="376.332187" transform="rotate(-0 466.503468 376.332187)">64 MB</text>
     </g>
    </g>
    <g id="xtick_4">
     <g id="line2d_4">
      <g>
       <use xlink:href="#m87ce704df6" x="652.199267" y="351.821562" style="fill: #808080; stroke: #808080; stroke-width: 0.8"/>
      </g>
     </g>
     <g id="text_4">
      <text style="fill: #808080; font: 22px 'PingFang SC', 'Heiti SC', 'STHeiti', 'Calibri', 'Arial', 'Helvetica Neue', 'Arial Unicode MS', 'Noto Sans CJK SC', 'DejaVu Sans', sans-serif; text-anchor: middle" x="652.199267" y="376.332187" transform="rotate(-0 652.199267 376.332187)">256 MB</text>
     </g>
    </g>
    <g id="text_5">
     <text style="font: 22px 'PingFang SC', 'Heiti SC', 'STHeiti', 'Calibri', 'Arial', 'Helvetica Neue', 'Arial Unicode MS', 'Noto Sans CJK SC', 'DejaVu Sans', sans-serif; text-anchor: middle" x="373.655568" y="400.833437" transform="rotate(-0 373.655568 400.833437)">消息大小</text>
    </g>
   </g>
   <g id="matplotlib.axis_2">
    <g id="ytick_1">
     <g id="line2d_5">
      <path d="M 67.2575 344.798381 
L 680.053636 344.798381 
" clip-path="url(#p1ff5dc97e9)" style="fill: none; stroke-dasharray: 1,1.65; stroke-dashoffset: 0; stroke: #808080; stroke-opacity: 0.55"/>
     </g>
     <g id="line2d_6">
      <defs>
       <path id="m1bb01d8011" d="M 0 0 
L -3.5 0 
" style="stroke: #808080; stroke-width: 0.8"/>
      </defs>
      <g>
       <use xlink:href="#m1bb01d8011" x="67.2575" y="344.798381" style="fill: #808080; stroke: #808080; stroke-width: 0.8"/>
      </g>
     </g>
     <g id="text_6">
      <text style="fill: #808080; font: 22px 'PingFang SC', 'Heiti SC', 'STHeiti', 'Calibri', 'Arial', 'Helvetica Neue', 'Arial Unicode MS', 'Noto Sans CJK SC', 'DejaVu Sans', sans-serif; text-anchor: end" x="60.2575" y="353.553694" transform="rotate(-0 60.2575 353.553694)">0</text>
     </g>
    </g>
    <g id="ytick_2">
     <g id="line2d_7">
      <path d="M 67.2575 280.815334 
L 680.053636 280.815334 
" clip-path="url(#p1ff5dc97e9)" style="fill: none; stroke-dasharray: 1,1.65; stroke-dashoffset: 0; stroke: #808080; stroke-opacity: 0.55"/>
     </g>
     <g id="line2d_8">
      <g>
       <use xlink:href="#m1bb01d8011" x="67.2575" y="280.815334" style="fill: #808080; stroke: #808080; stroke-width: 0.8"/>
      </g>
     </g>
     <g id="text_7">
      <text style="fill: #808080; font: 22px 'PingFang SC', 'Heiti SC', 'STHeiti', 'Calibri', 'Arial', 'Helvetica Neue', 'Arial Unicode MS', 'Noto Sans CJK SC', 'DejaVu Sans', sans-serif; text-anchor: end" x="60.2575" y="289.570647" transform="rotate(-0 60.2575 289.570647)">20</text>
     </g>
    </g>
    <g id="ytick_3">
     <g id="line2d_9">
      <path d="M 67.2575 216.832287 
L 680.053636 216.832287 
" clip-path="url(#p1ff5dc97e9)" style="fill: none; stroke-dasharray: 1,1.65; stroke-dashoffset: 0; stroke: #808080; stroke-opacity: 0.55"/>
     </g>
     <g id="line2d_10">
      <g>
       <use xlink:href="#m1bb01d8011" x="67.2575" y="216.832287" style="fill: #808080; stroke: #808080; stroke-width: 0.8"/>
      </g>
     </g>
     <g id="text_8">
      <text style="fill: #808080; font: 22px 'PingFang SC', 'Heiti SC', 'STHeiti', 'Calibri', 'Arial', 'Helvetica Neue', 'Arial Unicode MS', 'Noto Sans CJK SC', 'DejaVu Sans', sans-serif; text-anchor: end" x="60.2575" y="225.5876" transform="rotate(-0 60.2575 225.5876)">40</text>
     </g>
    </g>
    <g id="ytick_4">
     <g id="line2d_11">
      <path d="M 67.2575 152.84924 
L 680.053636 152.84924 
" clip-path="url(#p1ff5dc97e9)" style="fill: none; stroke-dasharray: 1,1.65; stroke-dashoffset: 0; stroke: #808080; stroke-opacity: 0.55"/>
     </g>
     <g id="line2d_12">
      <g>
       <use xlink:href="#m1bb01d8011" x="67.2575" y="152.84924" style="fill: #808080; stroke: #808080; stroke-width: 0.8"/>
      </g>
     </g>
     <g id="text_9">
      <text style="fill: #808080; font: 22px 'PingFang SC', 'Heiti SC', 'STHeiti', 'Calibri', 'Arial', 'Helvetica Neue', 'Arial Unicode MS', 'Noto Sans CJK SC', 'DejaVu Sans', sans-serif; text-anchor: end" x="60.2575" y="161.604553" transform="rotate(-0 60.2575 161.604553)">60</text>
     </g>
    </g>
    <g id="ytick_5">
     <g id="line2d_13">
      <path d="M 67.2575 88.866193 
L 680.053636 88.866193 
" clip-path="url(#p1ff5dc97e9)" style="fill: none; stroke-dasharray: 1,1.65; stroke-dashoffset: 0; stroke: #808080; stroke-opacity: 0.55"/>
     </g>
     <g id="line2d_14">
      <g>
       <use xlink:href="#m1bb01d8011" x="67.2575" y="88.866193" style="fill: #808080; stroke: #808080; stroke-width: 0.8"/>
      </g>
     </g>
     <g id="text_10">
      <text style="fill: #808080; font: 22px 'PingFang SC', 'Heiti SC', 'STHeiti', 'Calibri', 'Arial', 'Helvetica Neue', 'Arial Unicode MS', 'Noto Sans CJK SC', 'DejaVu Sans', sans-serif; text-anchor: end" x="60.2575" y="97.621506" transform="rotate(-0 60.2575 97.621506)">80</text>
     </g>
    </g>
    <g id="text_11">
     <text style="font: 22px 'PingFang SC', 'Heiti SC', 'STHeiti', 'Calibri', 'Arial', 'Helvetica Neue', 'Arial Unicode MS', 'Noto Sans CJK SC', 'DejaVu Sans', sans-serif; text-anchor: middle" x="28.929375" y="193.274062" transform="rotate(-90 28.929375 193.274062)">Bus 带宽 (GB/s)</text>
    </g>
   </g>
   <g id="line2d_15">
    <path d="M 95.11187 333.691812 
L 280.807669 265.209249 
L 466.503468 160.013257 
L 652.199267 49.139972 
" clip-path="url(#p1ff5dc97e9)" style="fill: none; stroke: #4c78a8; stroke-width: 2.2; stroke-linecap: square"/>
    <defs>
     <path id="mf4803bc7b7" d="M 0 3.5 
C 0.928211 3.5 1.81853 3.131218 2.474874 2.474874 
C 3.131218 1.81853 3.5 0.928211 3.5 0 
C 3.5 -0.928211 3.131218 -1.81853 2.474874 -2.474874 
C 1.81853 -3.131218 0.928211 -3.5 0 -3.5 
C -0.928211 -3.5 -1.81853 -3.131218 -2.474874 -2.474874 
C -3.131218 -1.81853 -3.5 -0.928211 -3.5 0 
C -3.5 0.928211 -3.131218 1.81853 -2.474874 2.474874 
C -1.81853 3.131218 -0.928211 3.5 0 3.5 
z
" style="stroke: #4c78a8"/>
    </defs>
    <g clip-path="url(#p1ff5dc97e9)">
     <use xlink:href="#mf4803bc7b7" x="95.11187" y="333.691812" style="fill: #4c78a8; stroke: #4c78a8"/>
     <use xlink:href="#mf4803bc7b7" x="280.807669" y="265.209249" style="fill: #4c78a8; stroke: #4c78a8"/>
     <use xlink:href="#mf4803bc7b7" x="466.503468" y="160.013257" style="fill: #4c78a8; stroke: #4c78a8"/>
     <use xlink:href="#mf4803bc7b7" x="652.199267" y="49.139972" style="fill: #4c78a8; stroke: #4c78a8"/>
    </g>
   </g>
   <g id="line2d_16">
    <path d="M 95.11187 335.697408 
L 280.807669 253.45738 
L 466.503468 166.279102 
L 652.199267 74.299472 
" clip-path="url(#p1ff5dc97e9)" style="fill: none; stroke: #f58518; stroke-width: 2.2; stroke-linecap: square"/>
    <defs>
     <path id="md945a16ac7" d="M 0 3.5 
C 0.928211 3.5 1.81853 3.131218 2.474874 2.474874 
C 3.131218 1.81853 3.5 0.928211 3.5 0 
C 3.5 -0.928211 3.131218 -1.81853 2.474874 -2.474874 
C 1.81853 -3.131218 0.928211 -3.5 0 -3.5 
C -0.928211 -3.5 -1.81853 -3.131218 -2.474874 -2.474874 
C -3.131218 -1.81853 -3.5 -0.928211 -3.5 0 
C -3.5 0.928211 -3.131218 1.81853 -2.474874 2.474874 
C -1.81853 3.131218 -0.928211 3.5 0 3.5 
z
" style="stroke: #f58518"/>
    </defs>
    <g clip-path="url(#p1ff5dc97e9)">
     <use xlink:href="#md945a16ac7" x="95.11187" y="335.697408" style="fill: #f58518; stroke: #f58518"/>
     <use xlink:href="#md945a16ac7" x="280.807669" y="253.45738" style="fill: #f58518; stroke: #f58518"/>
     <use xlink:href="#md945a16ac7" x="466.503468" y="166.279102" style="fill: #f58518; stroke: #f58518"/>
     <use xlink:href="#md945a16ac7" x="652.199267" y="74.299472" style="fill: #f58518; stroke: #f58518"/>
    </g>
   </g>
   <g id="line2d_17">
    <path d="M 95.11187 336.421579 
L 280.807669 257.576522 
L 466.503468 180.92509 
L 652.199267 88.199341 
" clip-path="url(#p1ff5dc97e9)" style="fill: none; stroke: #54a24b; stroke-width: 2.2; stroke-linecap: square"/>
    <defs>
     <path id="m34397b1d60" d="M 0 3.5 
C 0.928211 3.5 1.81853 3.131218 2.474874 2.474874 
C 3.131218 1.81853 3.5 0.928211 3.5 0 
C 3.5 -0.928211 3.131218 -1.81853 2.474874 -2.474874 
C 1.81853 -3.131218 0.928211 -3.5 0 -3.5 
C -0.928211 -3.5 -1.81853 -3.131218 -2.474874 -2.474874 
C -3.131218 -1.81853 -3.5 -0.928211 -3.5 0 
C -3.5 0.928211 -3.131218 1.81853 -2.474874 2.474874 
C -1.81853 3.131218 -0.928211 3.5 0 3.5 
z
" style="stroke: #54a24b"/>
    </defs>
    <g clip-path="url(#p1ff5dc97e9)">
     <use xlink:href="#m34397b1d60" x="95.11187" y="336.421579" style="fill: #54a24b; stroke: #54a24b"/>
     <use xlink:href="#m34397b1d60" x="280.807669" y="257.576522" style="fill: #54a24b; stroke: #54a24b"/>
     <use xlink:href="#m34397b1d60" x="466.503468" y="180.92509" style="fill: #54a24b; stroke: #54a24b"/>
     <use xlink:href="#m34397b1d60" x="652.199267" y="88.199341" style="fill: #54a24b; stroke: #54a24b"/>
    </g>
   </g>
   <g id="line2d_18">
    <path d="M 95.11187 337.408153 
L 280.807669 276.675235 
L 466.503468 209.249406 
L 652.199267 88.282424 
" clip-path="url(#p1ff5dc97e9)" style="fill: none; stroke: #e45756; stroke-width: 2.2; stroke-linecap: square"/>
    <defs>
     <path id="m66309cfb5f" d="M 0 3.5 
C 0.928211 3.5 1.81853 3.131218 2.474874 2.474874 
C 3.131218 1.81853 3.5 0.928211 3.5 0 
C 3.5 -0.928211 3.131218 -1.81853 2.474874 -2.474874 
C 1.81853 -3.131218 0.928211 -3.5 0 -3.5 
C -0.928211 -3.5 -1.81853 -3.131218 -2.474874 -2.474874 
C -3.131218 -1.81853 -3.5 -0.928211 -3.5 0 
C -3.5 0.928211 -3.131218 1.81853 -2.474874 2.474874 
C -1.81853 3.131218 -0.928211 3.5 0 3.5 
z
" style="stroke: #e45756"/>
    </defs>
    <g clip-path="url(#p1ff5dc97e9)">
     <use xlink:href="#m66309cfb5f" x="95.11187" y="337.408153" style="fill: #e45756; stroke: #e45756"/>
     <use xlink:href="#m66309cfb5f" x="280.807669" y="276.675235" style="fill: #e45756; stroke: #e45756"/>
     <use xlink:href="#m66309cfb5f" x="466.503468" y="209.249406" style="fill: #e45756; stroke: #e45756"/>
     <use xlink:href="#m66309cfb5f" x="652.199267" y="88.282424" style="fill: #e45756; stroke: #e45756"/>
    </g>
   </g>
   <g id="patch_3">
    <path d="M 67.2575 351.821562 
L 67.2575 34.726562 
" style="fill: none; stroke: #808080; stroke-width: 0.8; stroke-linejoin: miter; stroke-linecap: square"/>
   </g>
   <g id="patch_4">
    <path d="M 67.2575 351.821562 
L 680.053636 351.821562 
" style="fill: none; stroke: #808080; stroke-width: 0.8; stroke-linejoin: miter; stroke-linecap: square"/>
   </g>
   <g id="text_12">
    <text style="font: 22px 'PingFang SC', 'Heiti SC', 'STHeiti', 'Calibri', 'Arial', 'Helvetica Neue', 'Arial Unicode MS', 'Noto Sans CJK SC', 'DejaVu Sans', sans-serif; text-anchor: middle" x="373.655568" y="28.726562" transform="rotate(-0 373.655568 28.726562)">Broadcast · Bus 带宽 vs 消息大小</text>
   </g>
   <g id="legend_1">
    <g id="patch_5">
     <path d="M 79.8575 177.826563 
L 226.3775 177.826563 
Q 229.9775 177.826563 229.9775 174.226563 
L 229.9775 47.326563 
Q 229.9775 43.726562 226.3775 43.726562 
L 79.8575 43.726562 
Q 76.2575 43.726562 76.2575 47.326563 
L 76.2575 174.226563 
Q 76.2575 177.826563 79.8575 177.826563 
z
" style="fill: #ffffff; opacity: 0.5; stroke: #cccccc; stroke-linejoin: miter"/>
    </g>
    <g id="text_13">
     <text style="font: 18px 'PingFang SC', 'Heiti SC', 'STHeiti', 'Calibri', 'Arial', 'Helvetica Neue', 'Arial Unicode MS', 'Noto Sans CJK SC', 'DejaVu Sans', sans-serif; text-anchor: start" x="135.1175" y="65.253438" transform="rotate(-0 135.1175 65.253438)">规模</text>
    </g>
    <g id="line2d_19">
     <path d="M 83.4575 84.693438 
L 101.4575 84.693438 
L 119.4575 84.693438 
" style="fill: none; stroke: #4c78a8; stroke-width: 2.2; stroke-linecap: square"/>
     <g>
      <use xlink:href="#mf4803bc7b7" x="101.4575" y="84.693438" style="fill: #4c78a8; stroke: #4c78a8"/>
     </g>
    </g>
    <g id="text_14">
     <text style="font: 18px 'PingFang SC', 'Heiti SC', 'STHeiti', 'Calibri', 'Arial', 'Helvetica Neue', 'Arial Unicode MS', 'Noto Sans CJK SC', 'DejaVu Sans', sans-serif; text-anchor: start" x="133.8575" y="90.993438" transform="rotate(-0 133.8575 90.993438)">world=16</text>
    </g>
    <g id="line2d_20">
     <path d="M 83.4575 110.433438 
L 101.4575 110.433438 
L 119.4575 110.433438 
" style="fill: none; stroke: #f58518; stroke-width: 2.2; stroke-linecap: square"/>
     <g>
      <use xlink:href="#md945a16ac7" x="101.4575" y="110.433438" style="fill: #f58518; stroke: #f58518"/>
     </g>
    </g>
    <g id="text_15">
     <text style="font: 18px 'PingFang SC', 'Heiti SC', 'STHeiti', 'Calibri', 'Arial', 'Helvetica Neue', 'Arial Unicode MS', 'Noto Sans CJK SC', 'DejaVu Sans', sans-serif; text-anchor: start" x="133.8575" y="116.733438" transform="rotate(-0 133.8575 116.733438)">world=32</text>
    </g>
    <g id="line2d_21">
     <path d="M 83.4575 136.173438 
L 101.4575 136.173438 
L 119.4575 136.173438 
" style="fill: none; stroke: #54a24b; stroke-width: 2.2; stroke-linecap: square"/>
     <g>
      <use xlink:href="#m34397b1d60" x="101.4575" y="136.173438" style="fill: #54a24b; stroke: #54a24b"/>
     </g>
    </g>
    <g id="text_16">
     <text style="font: 18px 'PingFang SC', 'Heiti SC', 'STHeiti', 'Calibri', 'Arial', 'Helvetica Neue', 'Arial Unicode MS', 'Noto Sans CJK SC', 'DejaVu Sans', sans-serif; text-anchor: start" x="133.8575" y="142.473438" transform="rotate(-0 133.8575 142.473438)">world=64</text>
    </g>
    <g id="line2d_22">
     <path d="M 83.4575 161.913438 
L 101.4575 161.913438 
L 119.4575 161.913438 
" style="fill: none; stroke: #e45756; stroke-width: 2.2; stroke-linecap: square"/>
     <g>
      <use xlink:href="#m66309cfb5f" x="101.4575" y="161.913438" style="fill: #e45756; stroke: #e45756"/>
     </g>
    </g>
    <g id="text_17">
     <text style="font: 18px 'PingFang SC', 'Heiti SC', 'STHeiti', 'Calibri', 'Arial', 'Helvetica Neue', 'Arial Unicode MS', 'Noto Sans CJK SC', 'DejaVu Sans', sans-serif; text-anchor: start" x="133.8575" y="168.213438" transform="rotate(-0 133.8575 168.213438)">world=128</text>
    </g>
   </g>
  </g>
 </g>
 <defs>
  <clipPath id="p1ff5dc97e9">
   <rect x="67.2575" y="34.726562" width="612.796136" height="317.095"/>
  </clipPath>
 </defs>
</svg>
