<?xml version="1.0" encoding="utf-8" standalone="no"?>
<!DOCTYPE svg PUBLIC "-//W3C//DTD SVG 1.1//EN"
  "http://www.w3.org/Graphics/SVG/1.1/DTD/svg11.dtd">
<svg xmlns:xlink="http://www.w3.org/1999/xlink" width="702.879375pt" height="414.8025pt" viewBox="0 0 702.879375 414.8025" xmlns="http://www.w3.org/2000/svg" version="1.1">
 <metadata>
  <rdf:RDF xmlns:dc="http://purl.org/dc/elements/1.1/" xmlns:cc="http://creativecommons.org/ns#" xmlns:rdf="http://www.w3.org/1999/02/22-rdf-syntax-ns#">
   <cc:Work>
    <dc:type rdf:resource="http://purl.org/dc/dcmitype/StillImage"/>
    <dc:date>2026-07-11T21:18:46.411763</dc:date>
    <dc:format>image/svg+xml</dc:format>
    <dc:creator>
     <cc:Agent>
      <dc:title>Matplotlib v3.9.4, https://matplotlib.org/</dc:title>
     </cc:Agent>
    </dc:creator>
   </cc:Work>
  </rdf:RDF>
 </metadata>
 <defs>
  <style type="text/css">*{stroke-linejoin: round; stroke-linecap: butt}</style>
 </defs>
 <g id="figure_1">
  <g id="patch_1">
   <path d="M 0 414.8025 
L 702.879375 414.8025 
L 702.879375 0 
L 0 0 
z
" style="fill: #ffffff"/>
  </g>
  <g id="axes_1">
   <g id="patch_2">
    <path d="M 79.446875 352.0825 
L 692.079375 352.0825 
L 692.079375 34.640625 
L 79.446875 34.640625 
z
" style="fill: #ffffff"/>
   </g>
   <g id="matplotlib.axis_1">
    <g id="xtick_1">
     <g id="line2d_1">
      <defs>
       <path id="mdd61aab1fd" d="M 0 0 
L 0 3.5 
" style="stroke: #808080; stroke-width: 0.8"/>
      </defs>
      <g>
       <use xlink:href="#mdd61aab1fd" x="147.075138" y="352.0825" style="fill: #808080; stroke: #808080; stroke-width: 0.8"/>
      </g>
     </g>
     <g id="text_1">
      <text style="fill: #808080; font: 22px 'PingFang SC', 'Heiti SC', 'STHeiti', 'Calibri', 'Arial', 'Helvetica Neue', 'Arial Unicode MS', 'Noto Sans CJK SC', 'DejaVu Sans', sans-serif; text-anchor: middle" x="147.075138" y="376.593125" transform="rotate(-0 147.075138 376.593125)">16</text>
     </g>
    </g>
    <g id="xtick_2">
     <g id="line2d_2">
      <g>
       <use xlink:href="#mdd61aab1fd" x="306.200463" y="352.0825" style="fill: #808080; stroke: #808080; stroke-width: 0.8"/>
      </g>
     </g>
     <g id="text_2">
      <text style="fill: #808080; font: 22px 'PingFang SC', 'Heiti SC', 'STHeiti', 'Calibri', 'Arial', 'Helvetica Neue', 'Arial Unicode MS', 'Noto Sans CJK SC', 'DejaVu Sans', sans-serif; text-anchor: middle" x="306.200463" y="376.593125" transform="rotate(-0 306.200463 376.593125)">32</text>
     </g>
    </g>
    <g id="xtick_3">
     <g id="line2d_3">
      <g>
       <use xlink:href="#mdd61aab1fd" x="465.325787" y="352.0825" style="fill: #808080; stroke: #808080; stroke-width: 0.8"/>
      </g>
     </g>
     <g id="text_3">
      <text style="fill: #808080; font: 22px 'PingFang SC', 'Heiti SC', 'STHeiti', 'Calibri', 'Arial', 'Helvetica Neue', 'Arial Unicode MS', 'Noto Sans CJK SC', 'DejaVu Sans', sans-serif; text-anchor: middle" x="465.325787" y="376.593125" transform="rotate(-0 465.325787 376.593125)">64</text>
     </g>
    </g>
    <g id="xtick_4">
     <g id="line2d_4">
      <g>
       <use xlink:href="#mdd61aab1fd" x="624.451112" y="352.0825" style="fill: #808080; stroke: #808080; stroke-width: 0.8"/>
      </g>
     </g>
     <g id="text_4">
      <text style="fill: #808080; font: 22px 'PingFang SC', 'Heiti SC', 'STHeiti', 'Calibri', 'Arial', 'Helvetica Neue', 'Arial Unicode MS', 'Noto Sans CJK SC', 'DejaVu Sans', sans-serif; text-anchor: middle" x="624.451112" y="376.593125" transform="rotate(-0 624.451112 376.593125)">128</text>
     </g>
    </g>
    <g id="text_5">
     <text style="font: 22px 'PingFang SC', 'Heiti SC', 'STHeiti', 'Calibri', 'Arial', 'Helvetica Neue', 'Arial Unicode MS', 'Noto Sans CJK SC', 'DejaVu Sans', sans-serif; text-anchor: middle" x="385.763125" y="401.053125" transform="rotate(-0 385.763125 401.053125)">World 规模</text>
    </g>
   </g>
   <g id="matplotlib.axis_2">
    <g id="ytick_1">
     <g id="line2d_5">
      <path d="M 79.446875 308.235589 
L 692.079375 308.235589 
" clip-path="url(#p9842be32d8)" style="fill: none; stroke-dasharray: 1,1.65; stroke-dashoffset: 0; stroke: #808080; stroke-opacity: 0.55"/>
     </g>
     <g id="line2d_6">
      <defs>
       <path id="m2a320a3981" d="M 0 0 
L -3.5 0 
" style="stroke: #808080; stroke-width: 0.8"/>
      </defs>
      <g>
       <use xlink:href="#m2a320a3981" x="79.446875" y="308.235589" style="fill: #808080; stroke: #808080; stroke-width: 0.8"/>
      </g>
     </g>
     <g id="text_6">
      <text style="fill: #808080; font: 22px 'PingFang SC', 'Heiti SC', 'STHeiti', 'Calibri', 'Arial', 'Helvetica Neue', 'Arial Unicode MS', 'Noto Sans CJK SC', 'DejaVu Sans', sans-serif; text-anchor: end" x="72.446875" y="316.990902" transform="rotate(-0 72.446875 316.990902)">70</text>
     </g>
    </g>
    <g id="ytick_2">
     <g id="line2d_7">
      <path d="M 79.446875 255.658981 
L 692.079375 255.658981 
" clip-path="url(#p9842be32d8)" style="fill: none; stroke-dasharray: 1,1.65; stroke-dashoffset: 0; stroke: #808080; stroke-opacity: 0.55"/>
     </g>
     <g id="line2d_8">
      <g>
       <use xlink:href="#m2a320a3981" x="79.446875" y="255.658981" style="fill: #808080; stroke: #808080; stroke-width: 0.8"/>
      </g>
     </g>
     <g id="text_7">
      <text style="fill: #808080; font: 22px 'PingFang SC', 'Heiti SC', 'STHeiti', 'Calibri', 'Arial', 'Helvetica Neue', 'Arial Unicode MS', 'Noto Sans CJK SC', 'DejaVu Sans', sans-serif; text-anchor: end" x="72.446875" y="264.414294" transform="rotate(-0 72.446875 264.414294)">80</text>
     </g>
    </g>
    <g id="ytick_3">
     <g id="line2d_9">
      <path d="M 79.446875 203.082374 
L 692.079375 203.082374 
" clip-path="url(#p9842be32d8)" style="fill: none; stroke-dasharray: 1,1.65; stroke-dashoffset: 0; stroke: #808080; stroke-opacity: 0.55"/>
     </g>
     <g id="line2d_10">
      <g>
       <use xlink:href="#m2a320a3981" x="79.446875" y="203.082374" style="fill: #808080; stroke: #808080; stroke-width: 0.8"/>
      </g>
     </g>
     <g id="text_8">
      <text style="fill: #808080; font: 22px 'PingFang SC', 'Heiti SC', 'STHeiti', 'Calibri', 'Arial', 'Helvetica Neue', 'Arial Unicode MS', 'Noto Sans CJK SC', 'DejaVu Sans', sans-serif; text-anchor: end" x="72.446875" y="211.837686" transform="rotate(-0 72.446875 211.837686)">90</text>
     </g>
    </g>
    <g id="ytick_4">
     <g id="line2d_11">
      <path d="M 79.446875 150.505766 
L 692.079375 150.505766 
" clip-path="url(#p9842be32d8)" style="fill: none; stroke-dasharray: 1,1.65; stroke-dashoffset: 0; stroke: #808080; stroke-opacity: 0.55"/>
     </g>
     <g id="line2d_12">
      <g>
       <use xlink:href="#m2a320a3981" x="79.446875" y="150.505766" style="fill: #808080; stroke: #808080; stroke-width: 0.8"/>
      </g>
     </g>
     <g id="text_9">
      <text style="fill: #808080; font: 22px 'PingFang SC', 'Heiti SC', 'STHeiti', 'Calibri', 'Arial', 'Helvetica Neue', 'Arial Unicode MS', 'Noto Sans CJK SC', 'DejaVu Sans', sans-serif; text-anchor: end" x="72.446875" y="159.261078" transform="rotate(-0 72.446875 159.261078)">100</text>
     </g>
    </g>
    <g id="ytick_5">
     <g id="line2d_13">
      <path d="M 79.446875 97.929158 
L 692.079375 97.929158 
" clip-path="url(#p9842be32d8)" style="fill: none; stroke-dasharray: 1,1.65; stroke-dashoffset: 0; stroke: #808080; stroke-opacity: 0.55"/>
     </g>
     <g id="line2d_14">
      <g>
       <use xlink:href="#m2a320a3981" x="79.446875" y="97.929158" style="fill: #808080; stroke: #808080; stroke-width: 0.8"/>
      </g>
     </g>
     <g id="text_10">
      <text style="fill: #808080; font: 22px 'PingFang SC', 'Heiti SC', 'STHeiti', 'Calibri', 'Arial', 'Helvetica Neue', 'Arial Unicode MS', 'Noto Sans CJK SC', 'DejaVu Sans', sans-serif; text-anchor: end" x="72.446875" y="106.684471" transform="rotate(-0 72.446875 106.684471)">110</text>
     </g>
    </g>
    <g id="ytick_6">
     <g id="line2d_15">
      <path d="M 79.446875 45.35255 
L 692.079375 45.35255 
" clip-path="url(#p9842be32d8)" style="fill: none; stroke-dasharray: 1,1.65; stroke-dashoffset: 0; stroke: #808080; stroke-opacity: 0.55"/>
     </g>
     <g id="line2d_16">
      <g>
       <use xlink:href="#m2a320a3981" x="79.446875" y="45.35255" style="fill: #808080; stroke: #808080; stroke-width: 0.8"/>
      </g>
     </g>
     <g id="text_11">
      <text style="fill: #808080; font: 22px 'PingFang SC', 'Heiti SC', 'STHeiti', 'Calibri', 'Arial', 'Helvetica Neue', 'Arial Unicode MS', 'Noto Sans CJK SC', 'DejaVu Sans', sans-serif; text-anchor: end" x="72.446875" y="54.107863" transform="rotate(-0 72.446875 54.107863)">120</text>
     </g>
    </g>
    <g id="text_12">
     <text style="font: 22px 'PingFang SC', 'Heiti SC', 'STHeiti', 'Calibri', 'Arial', 'Helvetica Neue', 'Arial Unicode MS', 'Noto Sans CJK SC', 'DejaVu Sans', sans-serif; text-anchor: middle" x="28.929375" y="193.361562" transform="rotate(-90 28.929375 193.361562)">Bus 带宽 (GB/s)</text>
    </g>
   </g>
   <g id="PolyCollection_1">
    <path d="M 173.968258 49.181978 
L 120.182018 49.181978 
L 119.136255 49.180845 
L 118.111882 49.179712 
L 117.113381 49.178579 
L 116.145125 49.177446 
L 115.21134 49.176312 
L 114.316059 49.175179 
L 113.463087 49.174046 
L 112.655962 49.172913 
L 111.897919 49.17178 
L 111.191864 49.170647 
L 110.540341 49.169514 
L 109.945511 49.168381 
L 109.409134 49.167248 
L 108.932555 49.166115 
L 108.516693 49.164981 
L 108.162038 49.163848 
L 107.86865 49.162715 
L 107.636166 49.161582 
L 107.463807 49.160449 
L 107.350395 49.159316 
L 107.29437 49.158183 
L 107.293807 49.15705 
L 107.346447 49.155917 
L 107.449721 49.154784 
L 107.600778 49.15365 
L 107.796518 49.152517 
L 108.033623 49.151384 
L 108.308592 49.150251 
L 108.617773 49.149118 
L 108.957398 49.147985 
L 109.323616 49.146852 
L 109.71253 49.145719 
L 110.120226 49.144586 
L 110.542807 49.143453 
L 110.976428 49.142319 
L 111.417325 49.141186 
L 111.861846 49.140053 
L 112.306482 49.13892 
L 112.747895 49.137787 
L 113.18295 49.136654 
L 113.608736 49.135521 
L 114.022597 49.134388 
L 114.422156 49.133255 
L 114.805336 49.132122 
L 115.170383 49.130988 
L 115.515883 49.129855 
L 115.840781 49.128722 
L 116.144387 49.127589 
L 116.426391 49.126456 
L 116.686866 49.125323 
L 116.926267 49.12419 
L 117.145426 49.123057 
L 117.345542 49.121924 
L 117.528167 49.120791 
L 117.695185 49.119657 
L 117.848782 49.118524 
L 117.991417 49.117391 
L 118.125787 49.116258 
L 118.254779 49.115125 
L 118.381432 49.113992 
L 118.508883 49.112859 
L 118.640316 49.111726 
L 118.778916 49.110593 
L 118.927805 49.10946 
L 119.090001 49.108327 
L 119.268358 49.107193 
L 119.465524 49.10606 
L 119.683898 49.104927 
L 119.925584 49.103794 
L 120.192366 49.102661 
L 120.485677 49.101528 
L 120.806579 49.100395 
L 121.155752 49.099262 
L 121.533489 49.098129 
L 121.939697 49.096996 
L 122.37391 49.095862 
L 122.835303 49.094729 
L 123.322717 49.093596 
L 123.83469 49.092463 
L 124.369487 49.09133 
L 124.92514 49.090197 
L 125.499489 49.089064 
L 126.090226 49.087931 
L 126.694934 49.086798 
L 127.311133 49.085665 
L 127.936322 49.084531 
L 128.568015 49.083398 
L 129.203781 49.082265 
L 129.841274 49.081132 
L 130.47826 49.079999 
L 131.112643 49.078866 
L 131.74248 49.077733 
L 132.366 49.0766 
L 132.981606 49.075467 
L 133.587881 49.074334 
L 134.18359 49.0732 
L 134.767671 49.072067 
L 135.339232 49.070934 
L 135.897536 49.069801 
L 158.25274 49.069801 
L 158.25274 49.069801 
L 158.811044 49.070934 
L 159.382605 49.072067 
L 159.966686 49.0732 
L 160.562395 49.074334 
L 161.16867 49.075467 
L 161.784276 49.0766 
L 162.407796 49.077733 
L 163.037633 49.078866 
L 163.672016 49.079999 
L 164.309002 49.081132 
L 164.946495 49.082265 
L 165.582261 49.083398 
L 166.213954 49.084531 
L 166.839143 49.085665 
L 167.455342 49.086798 
L 168.06005 49.087931 
L 168.650787 49.089064 
L 169.225136 49.090197 
L 169.780789 49.09133 
L 170.315586 49.092463 
L 170.827559 49.093596 
L 171.314973 49.094729 
L 171.776366 49.095862 
L 172.210579 49.096996 
L 172.616787 49.098129 
L 172.994524 49.099262 
L 173.343697 49.100395 
L 173.664599 49.101528 
L 173.95791 49.102661 
L 174.224692 49.103794 
L 174.466378 49.104927 
L 174.684752 49.10606 
L 174.881918 49.107193 
L 175.060275 49.108327 
L 175.222471 49.10946 
L 175.37136 49.110593 
L 175.509959 49.111726 
L 175.641393 49.112859 
L 175.768844 49.113992 
L 175.895497 49.115125 
L 176.024489 49.116258 
L 176.158859 49.117391 
L 176.301494 49.118524 
L 176.455091 49.119657 
L 176.622109 49.120791 
L 176.804734 49.121924 
L 177.00485 49.123057 
L 177.224009 49.12419 
L 177.46341 49.125323 
L 177.723885 49.126456 
L 178.005889 49.127589 
L 178.309495 49.128722 
L 178.634393 49.129855 
L 178.979893 49.130988 
L 179.34494 49.132122 
L 179.72812 49.133255 
L 180.127679 49.134388 
L 180.54154 49.135521 
L 180.967326 49.136654 
L 181.402381 49.137787 
L 181.843794 49.13892 
L 182.28843 49.140053 
L 182.732951 49.141186 
L 183.173848 49.142319 
L 183.607469 49.143453 
L 184.03005 49.144586 
L 184.437746 49.145719 
L 184.826659 49.146852 
L 185.192878 49.147985 
L 185.532503 49.149118 
L 185.841684 49.150251 
L 186.116653 49.151384 
L 186.353758 49.152517 
L 186.549498 49.15365 
L 186.700555 49.154784 
L 186.803829 49.155917 
L 186.856469 49.15705 
L 186.855906 49.158183 
L 186.799881 49.159316 
L 186.686469 49.160449 
L 186.51411 49.161582 
L 186.281626 49.162715 
L 185.988238 49.163848 
L 185.633583 49.164981 
L 185.217721 49.166115 
L 184.741142 49.167248 
L 184.204765 49.168381 
L 183.609935 49.169514 
L 182.958412 49.170647 
L 182.252357 49.17178 
L 181.494314 49.172913 
L 180.687189 49.174046 
L 179.834217 49.175179 
L 178.938936 49.176312 
L 178.005151 49.177446 
L 177.036895 49.178579 
L 176.038394 49.179712 
L 175.014021 49.180845 
L 173.968258 49.181978 
z
" clip-path="url(#p9842be32d8)" style="fill: #4c78a8; fill-opacity: 0.65"/>
   </g>
   <g id="PolyCollection_2">
    <path d="M 323.541333 124.14306 
L 288.859593 124.14306 
L 288.435301 124.141894 
L 288.02893 124.140728 
L 287.640689 124.139562 
L 287.270549 124.138396 
L 286.918248 124.13723 
L 286.583288 124.136065 
L 286.264952 124.134899 
L 285.962308 124.133733 
L 285.67423 124.132567 
L 285.399411 124.131401 
L 285.136382 124.130236 
L 284.883538 124.12907 
L 284.639159 124.127904 
L 284.401433 124.126738 
L 284.168483 124.125572 
L 283.938392 124.124406 
L 283.70923 124.123241 
L 283.479076 124.122075 
L 283.246048 124.120909 
L 283.00832 124.119743 
L 282.764147 124.118577 
L 282.511885 124.117411 
L 282.250013 124.116246 
L 281.977143 124.11508 
L 281.692039 124.113914 
L 281.39363 124.112748 
L 281.081019 124.111582 
L 280.753491 124.110417 
L 280.410521 124.109251 
L 280.05178 124.108085 
L 279.677133 124.106919 
L 279.286644 124.105753 
L 278.880576 124.104587 
L 278.459386 124.103422 
L 278.023722 124.102256 
L 277.574421 124.10109 
L 277.1125 124.099924 
L 276.639148 124.098758 
L 276.15572 124.097592 
L 275.663726 124.096427 
L 275.16482 124.095261 
L 274.660786 124.094095 
L 274.153532 124.092929 
L 273.645065 124.091763 
L 273.137485 124.090598 
L 272.632966 124.089432 
L 272.133737 124.088266 
L 271.642067 124.0871 
L 271.160243 124.085934 
L 270.690556 124.084768 
L 270.235277 124.083603 
L 269.796642 124.082437 
L 269.376829 124.081271 
L 268.977939 124.080105 
L 268.601983 124.078939 
L 268.25086 124.077773 
L 267.926344 124.076608 
L 267.630068 124.075442 
L 267.363515 124.074276 
L 267.128004 124.07311 
L 266.924688 124.071944 
L 266.754545 124.070779 
L 266.618375 124.069613 
L 266.516808 124.068447 
L 266.450296 124.067281 
L 266.419131 124.066115 
L 266.423445 124.064949 
L 266.463223 124.063784 
L 266.538318 124.062618 
L 266.648462 124.061452 
L 266.793284 124.060286 
L 266.972325 124.05912 
L 267.185055 124.057954 
L 267.430888 124.056789 
L 267.709198 124.055623 
L 268.019336 124.054457 
L 268.360638 124.053291 
L 268.732437 124.052125 
L 269.134075 124.05096 
L 269.564903 124.049794 
L 270.02429 124.048628 
L 270.511619 124.047462 
L 271.026286 124.046296 
L 271.567694 124.04513 
L 272.135248 124.043965 
L 272.728343 124.042799 
L 273.346352 124.041633 
L 273.988617 124.040467 
L 274.654428 124.039301 
L 275.343018 124.038135 
L 276.053542 124.03697 
L 276.785065 124.035804 
L 277.536552 124.034638 
L 278.306857 124.033472 
L 279.094712 124.032306 
L 279.898724 124.031141 
L 280.717368 124.029975 
L 281.548992 124.028809 
L 282.391815 124.027643 
L 330.00911 124.027643 
L 330.00911 124.027643 
L 330.851933 124.028809 
L 331.683557 124.029975 
L 332.502202 124.031141 
L 333.306213 124.032306 
L 334.094068 124.033472 
L 334.864373 124.034638 
L 335.615861 124.035804 
L 336.347384 124.03697 
L 337.057907 124.038135 
L 337.746497 124.039301 
L 338.412309 124.040467 
L 339.054573 124.041633 
L 339.672582 124.042799 
L 340.265677 124.043965 
L 340.833231 124.04513 
L 341.37464 124.046296 
L 341.889306 124.047462 
L 342.376635 124.048628 
L 342.836022 124.049794 
L 343.266851 124.05096 
L 343.668488 124.052125 
L 344.040288 124.053291 
L 344.381589 124.054457 
L 344.691727 124.055623 
L 344.970038 124.056789 
L 345.215871 124.057954 
L 345.428601 124.05912 
L 345.607642 124.060286 
L 345.752464 124.061452 
L 345.862608 124.062618 
L 345.937702 124.063784 
L 345.97748 124.064949 
L 345.981794 124.066115 
L 345.950629 124.067281 
L 345.884118 124.068447 
L 345.78255 124.069613 
L 345.646381 124.070779 
L 345.476237 124.071944 
L 345.272921 124.07311 
L 345.03741 124.074276 
L 344.770857 124.075442 
L 344.474581 124.076608 
L 344.150065 124.077773 
L 343.798942 124.078939 
L 343.422986 124.080105 
L 343.024097 124.081271 
L 342.604283 124.082437 
L 342.165648 124.083603 
L 341.71037 124.084768 
L 341.240682 124.085934 
L 340.758859 124.0871 
L 340.267188 124.088266 
L 339.767959 124.089432 
L 339.26344 124.090598 
L 338.75586 124.091763 
L 338.247394 124.092929 
L 337.740139 124.094095 
L 337.236106 124.095261 
L 336.737199 124.096427 
L 336.245205 124.097592 
L 335.761777 124.098758 
L 335.288425 124.099924 
L 334.826504 124.10109 
L 334.377203 124.102256 
L 333.94154 124.103422 
L 333.520349 124.104587 
L 333.114281 124.105753 
L 332.723793 124.106919 
L 332.349146 124.108085 
L 331.990404 124.109251 
L 331.647434 124.110417 
L 331.319906 124.111582 
L 331.007295 124.112748 
L 330.708886 124.113914 
L 330.423782 124.11508 
L 330.150912 124.116246 
L 329.88904 124.117411 
L 329.636779 124.118577 
L 329.392606 124.119743 
L 329.154877 124.120909 
L 328.921849 124.122075 
L 328.691696 124.123241 
L 328.462534 124.124406 
L 328.232443 124.125572 
L 327.999492 124.126738 
L 327.761766 124.127904 
L 327.517387 124.12907 
L 327.264544 124.130236 
L 327.001515 124.131401 
L 326.726695 124.132567 
L 326.438617 124.133733 
L 326.135973 124.134899 
L 325.817637 124.136065 
L 325.482678 124.13723 
L 325.130376 124.138396 
L 324.760237 124.139562 
L 324.371996 124.140728 
L 323.965624 124.141894 
L 323.541333 124.14306 
z
" clip-path="url(#p9842be32d8)" style="fill: #4c78a8; fill-opacity: 0.65"/>
   </g>
   <g id="PolyCollection_3">
    <path d="M 467.978035 289.28401 
L 462.67354 289.28401 
L 462.680112 289.114556 
L 462.699731 288.945101 
L 462.732107 288.775646 
L 462.776765 288.606192 
L 462.833053 288.436737 
L 462.900165 288.267283 
L 462.977153 288.097828 
L 463.062954 287.928373 
L 463.156412 287.758919 
L 463.256305 287.589464 
L 463.36137 287.420009 
L 463.470331 287.250555 
L 463.581923 287.0811 
L 463.694916 286.911646 
L 463.808138 286.742191 
L 463.920489 286.572736 
L 464.030964 286.403282 
L 464.138659 286.233827 
L 464.242783 286.064372 
L 464.342664 285.894918 
L 464.437749 285.725463 
L 464.527605 285.556009 
L 464.611917 285.386554 
L 464.690478 285.217099 
L 464.763184 285.047645 
L 464.830024 284.87819 
L 464.891069 284.708735 
L 464.946462 284.539281 
L 464.996401 284.369826 
L 465.041135 284.200372 
L 465.080947 284.030917 
L 465.116142 283.861462 
L 465.147039 283.692008 
L 465.173963 283.522553 
L 465.197231 283.353098 
L 465.217143 283.183644 
L 465.233982 283.014189 
L 465.247998 282.844735 
L 465.259405 282.67528 
L 465.268372 282.505825 
L 465.275021 282.336371 
L 465.279411 282.166916 
L 465.281539 281.997461 
L 465.281325 281.828007 
L 465.278604 281.658552 
L 465.273113 281.489098 
L 465.26448 281.319643 
L 465.252211 281.150188 
L 465.235667 280.980734 
L 465.214052 280.811279 
L 465.186391 280.641824 
L 465.151508 280.47237 
L 465.108004 280.302915 
L 465.054234 280.133461 
L 464.988286 279.964006 
L 464.907958 279.794551 
L 464.810738 279.625097 
L 464.693786 279.455642 
L 464.553929 279.286187 
L 464.387649 279.116733 
L 464.191086 278.947278 
L 463.960056 278.777824 
L 463.690067 278.608369 
L 463.37636 278.438914 
L 463.013959 278.26946 
L 462.597735 278.100005 
L 462.122493 277.93055 
L 461.583068 277.761096 
L 460.974443 277.591641 
L 460.29188 277.422187 
L 459.53107 277.252732 
L 458.688287 277.083277 
L 457.760561 276.913823 
L 456.745845 276.744368 
L 455.643189 276.574913 
L 454.45291 276.405459 
L 453.176744 276.236004 
L 451.817985 276.06655 
L 450.381598 275.897095 
L 448.874305 275.72764 
L 447.304628 275.558186 
L 445.682895 275.388731 
L 444.021198 275.219276 
L 442.333302 275.049822 
L 440.634502 274.880367 
L 438.941433 274.710913 
L 437.27182 274.541458 
L 435.644201 274.372003 
L 434.077592 274.202549 
L 432.59113 274.033094 
L 431.203694 273.863639 
L 429.933505 273.694185 
L 428.797738 273.52473 
L 427.81213 273.355276 
L 426.990621 273.185821 
L 426.345026 273.016366 
L 425.884753 272.846912 
L 425.616573 272.677457 
L 425.544456 272.508002 
L 505.107119 272.508002 
L 505.107119 272.508002 
L 505.035002 272.677457 
L 504.766822 272.846912 
L 504.306548 273.016366 
L 503.660953 273.185821 
L 502.839444 273.355276 
L 501.853836 273.52473 
L 500.718069 273.694185 
L 499.447881 273.863639 
L 498.060445 274.033094 
L 496.573983 274.202549 
L 495.007373 274.372003 
L 493.379754 274.541458 
L 491.710142 274.710913 
L 490.017072 274.880367 
L 488.318273 275.049822 
L 486.630377 275.219276 
L 484.96868 275.388731 
L 483.346947 275.558186 
L 481.77727 275.72764 
L 480.269977 275.897095 
L 478.83359 276.06655 
L 477.474831 276.236004 
L 476.198664 276.405459 
L 475.008386 276.574913 
L 473.90573 276.744368 
L 472.891014 276.913823 
L 471.963287 277.083277 
L 471.120505 277.252732 
L 470.359695 277.422187 
L 469.677132 277.591641 
L 469.068507 277.761096 
L 468.529081 277.93055 
L 468.05384 278.100005 
L 467.637616 278.26946 
L 467.275215 278.438914 
L 466.961508 278.608369 
L 466.691519 278.777824 
L 466.460488 278.947278 
L 466.263926 279.116733 
L 466.097645 279.286187 
L 465.957788 279.455642 
L 465.840837 279.625097 
L 465.743616 279.794551 
L 465.663288 279.964006 
L 465.597341 280.133461 
L 465.543571 280.302915 
L 465.500067 280.47237 
L 465.465183 280.641824 
L 465.437522 280.811279 
L 465.415908 280.980734 
L 465.399364 281.150188 
L 465.387094 281.319643 
L 465.378462 281.489098 
L 465.372971 281.658552 
L 465.370249 281.828007 
L 465.370035 281.997461 
L 465.372163 282.166916 
L 465.376554 282.336371 
L 465.383202 282.505825 
L 465.39217 282.67528 
L 465.403577 282.844735 
L 465.417592 283.014189 
L 465.434431 283.183644 
L 465.454344 283.353098 
L 465.477611 283.522553 
L 465.504535 283.692008 
L 465.535433 283.861462 
L 465.570628 284.030917 
L 465.610439 284.200372 
L 465.655173 284.369826 
L 465.705113 284.539281 
L 465.760505 284.708735 
L 465.821551 284.87819 
L 465.888391 285.047645 
L 465.961097 285.217099 
L 466.039657 285.386554 
L 466.123969 285.556009 
L 466.213826 285.725463 
L 466.308911 285.894918 
L 466.408792 286.064372 
L 466.512916 286.233827 
L 466.620611 286.403282 
L 466.731086 286.572736 
L 466.843437 286.742191 
L 466.956658 286.911646 
L 467.069652 287.0811 
L 467.181244 287.250555 
L 467.290205 287.420009 
L 467.39527 287.589464 
L 467.495163 287.758919 
L 467.588621 287.928373 
L 467.674422 288.097828 
L 467.75141 288.267283 
L 467.818522 288.436737 
L 467.87481 288.606192 
L 467.919467 288.775646 
L 467.951843 288.945101 
L 467.971463 289.114556 
L 467.978035 289.28401 
z
" clip-path="url(#p9842be32d8)" style="fill: #4c78a8; fill-opacity: 0.65"/>
   </g>
   <g id="PolyCollection_4">
    <path d="M 628.110616 337.653324 
L 620.791608 337.653324 
L 620.80407 337.6519 
L 620.842376 337.650475 
L 620.90558 337.649051 
L 620.992178 337.647627 
L 621.100143 337.646202 
L 621.226983 337.644778 
L 621.36981 337.643353 
L 621.525406 337.641929 
L 621.690306 337.640505 
L 621.860868 337.63908 
L 622.033346 337.637656 
L 622.203946 337.636232 
L 622.36888 337.634807 
L 622.524396 337.633383 
L 622.666801 337.631959 
L 622.792462 337.630534 
L 622.897801 337.62911 
L 622.979269 337.627686 
L 623.033316 337.626261 
L 623.056352 337.624837 
L 623.044708 337.623413 
L 622.994593 337.621988 
L 622.902067 337.620564 
L 622.763014 337.61914 
L 622.573137 337.617715 
L 622.327971 337.616291 
L 622.022908 337.614867 
L 621.653261 337.613442 
L 621.214338 337.612018 
L 620.701548 337.610594 
L 620.110525 337.609169 
L 619.43728 337.607745 
L 618.678362 337.606321 
L 617.831034 337.604896 
L 616.893452 337.603472 
L 615.864847 337.602048 
L 614.745694 337.600623 
L 613.537863 337.599199 
L 612.244749 337.597775 
L 610.871363 337.59635 
L 609.424389 337.594926 
L 607.91219 337.593502 
L 606.344772 337.592077 
L 604.733688 337.590653 
L 603.091899 337.589229 
L 601.43358 337.587804 
L 599.773889 337.58638 
L 598.128696 337.584956 
L 596.514283 337.583531 
L 594.947028 337.582107 
L 593.443091 337.580683 
L 592.018089 337.579258 
L 590.686807 337.577834 
L 589.462922 337.57641 
L 588.358771 337.574985 
L 587.385157 337.573561 
L 586.551206 337.572137 
L 585.864266 337.570712 
L 585.32986 337.569288 
L 584.951676 337.567864 
L 584.731601 337.566439 
L 584.669781 337.565015 
L 584.764708 337.56359 
L 585.013321 337.562166 
L 585.41112 337.560742 
L 585.952272 337.559317 
L 586.629726 337.557893 
L 587.435317 337.556469 
L 588.359863 337.555044 
L 589.393265 337.55362 
L 590.524593 337.552196 
L 591.742186 337.550771 
L 593.033753 337.549347 
L 594.386484 337.547923 
L 595.787181 337.546498 
L 597.222404 337.545074 
L 598.678638 337.54365 
L 600.142474 337.542225 
L 601.600817 337.540801 
L 603.041091 337.539377 
L 604.451456 337.537952 
L 605.82102 337.536528 
L 607.140041 337.535104 
L 608.400095 337.533679 
L 609.59423 337.532255 
L 610.717067 337.530831 
L 611.764865 337.529406 
L 612.735533 337.527982 
L 613.628598 337.526558 
L 614.445112 337.525133 
L 615.187528 337.523709 
L 615.859524 337.522285 
L 616.465804 337.52086 
L 617.011867 337.519436 
L 617.503771 337.518012 
L 617.947889 337.516587 
L 618.350676 337.515163 
L 618.718448 337.513739 
L 619.057192 337.512314 
L 629.845032 337.512314 
L 629.845032 337.512314 
L 630.183776 337.513739 
L 630.551548 337.515163 
L 630.954335 337.516587 
L 631.398453 337.518012 
L 631.890357 337.519436 
L 632.43642 337.52086 
L 633.0427 337.522285 
L 633.714696 337.523709 
L 634.457112 337.525133 
L 635.273626 337.526558 
L 636.166691 337.527982 
L 637.137359 337.529406 
L 638.185157 337.530831 
L 639.307994 337.532255 
L 640.502129 337.533679 
L 641.762183 337.535104 
L 643.081204 337.536528 
L 644.450768 337.537952 
L 645.861133 337.539377 
L 647.301407 337.540801 
L 648.75975 337.542225 
L 650.223586 337.54365 
L 651.67982 337.545074 
L 653.115043 337.546498 
L 654.51574 337.547923 
L 655.868471 337.549347 
L 657.160038 337.550771 
L 658.377631 337.552196 
L 659.508959 337.55362 
L 660.542361 337.555044 
L 661.466907 337.556469 
L 662.272498 337.557893 
L 662.949952 337.559317 
L 663.491104 337.560742 
L 663.888903 337.562166 
L 664.137516 337.56359 
L 664.232443 337.565015 
L 664.170623 337.566439 
L 663.950548 337.567864 
L 663.572364 337.569288 
L 663.037958 337.570712 
L 662.351018 337.572137 
L 661.517067 337.573561 
L 660.543453 337.574985 
L 659.439302 337.57641 
L 658.215417 337.577834 
L 656.884135 337.579258 
L 655.459133 337.580683 
L 653.955196 337.582107 
L 652.387941 337.583531 
L 650.773528 337.584956 
L 649.128335 337.58638 
L 647.468644 337.587804 
L 645.810325 337.589229 
L 644.168536 337.590653 
L 642.557452 337.592077 
L 640.990034 337.593502 
L 639.477835 337.594926 
L 638.030861 337.59635 
L 636.657475 337.597775 
L 635.364361 337.599199 
L 634.15653 337.600623 
L 633.037377 337.602048 
L 632.008772 337.603472 
L 631.07119 337.604896 
L 630.223862 337.606321 
L 629.464944 337.607745 
L 628.791699 337.609169 
L 628.200676 337.610594 
L 627.687886 337.612018 
L 627.248963 337.613442 
L 626.879316 337.614867 
L 626.574253 337.616291 
L 626.329087 337.617715 
L 626.13921 337.61914 
L 626.000157 337.620564 
L 625.907631 337.621988 
L 625.857516 337.623413 
L 625.845872 337.624837 
L 625.868908 337.626261 
L 625.922955 337.627686 
L 626.004423 337.62911 
L 626.109762 337.630534 
L 626.235423 337.631959 
L 626.377828 337.633383 
L 626.533344 337.634807 
L 626.698278 337.636232 
L 626.868878 337.637656 
L 627.041356 337.63908 
L 627.211918 337.640505 
L 627.376818 337.641929 
L 627.532414 337.643353 
L 627.675241 337.644778 
L 627.802081 337.646202 
L 627.910046 337.647627 
L 627.996644 337.649051 
L 628.059848 337.650475 
L 628.098154 337.6519 
L 628.110616 337.653324 
z
" clip-path="url(#p9842be32d8)" style="fill: #4c78a8; fill-opacity: 0.65"/>
   </g>
   <g id="LineCollection_1">
    <path d="M 127.184472 49.136759 
L 166.965804 49.136759 
" clip-path="url(#p9842be32d8)" style="fill: none; stroke: #1f77b4; stroke-width: 1.5"/>
    <path d="M 286.309797 124.079937 
L 326.091128 124.079937 
" clip-path="url(#p9842be32d8)" style="fill: none; stroke: #1f77b4; stroke-width: 1.5"/>
    <path d="M 445.435122 273.577843 
L 485.216453 273.577843 
" clip-path="url(#p9842be32d8)" style="fill: none; stroke: #1f77b4; stroke-width: 1.5"/>
    <path d="M 604.560446 337.566905 
L 644.341778 337.566905 
" clip-path="url(#p9842be32d8)" style="fill: none; stroke: #1f77b4; stroke-width: 1.5"/>
   </g>
   <g id="LineCollection_2">
    <path d="M 127.184472 49.069801 
L 166.965804 49.069801 
" clip-path="url(#p9842be32d8)" style="fill: none; stroke: #1f77b4; stroke-width: 1.5"/>
    <path d="M 286.309797 124.027643 
L 326.091128 124.027643 
" clip-path="url(#p9842be32d8)" style="fill: none; stroke: #1f77b4; stroke-width: 1.5"/>
    <path d="M 445.435122 272.508002 
L 485.216453 272.508002 
" clip-path="url(#p9842be32d8)" style="fill: none; stroke: #1f77b4; stroke-width: 1.5"/>
    <path d="M 604.560446 337.512314 
L 644.341778 337.512314 
" clip-path="url(#p9842be32d8)" style="fill: none; stroke: #1f77b4; stroke-width: 1.5"/>
   </g>
   <g id="LineCollection_3">
    <path d="M 127.184472 49.181978 
L 166.965804 49.181978 
" clip-path="url(#p9842be32d8)" style="fill: none; stroke: #1f77b4; stroke-width: 1.5"/>
    <path d="M 286.309797 124.14306 
L 326.091128 124.14306 
" clip-path="url(#p9842be32d8)" style="fill: none; stroke: #1f77b4; stroke-width: 1.5"/>
    <path d="M 445.435122 289.28401 
L 485.216453 289.28401 
" clip-path="url(#p9842be32d8)" style="fill: none; stroke: #1f77b4; stroke-width: 1.5"/>
    <path d="M 604.560446 337.653324 
L 644.341778 337.653324 
" clip-path="url(#p9842be32d8)" style="fill: none; stroke: #1f77b4; stroke-width: 1.5"/>
   </g>
   <g id="LineCollection_4">
    <path d="M 147.075138 49.181978 
L 147.075138 49.069801 
" clip-path="url(#p9842be32d8)" style="fill: none; stroke: #1f77b4; stroke-width: 1.5"/>
    <path d="M 306.200463 124.14306 
L 306.200463 124.027643 
" clip-path="url(#p9842be32d8)" style="fill: none; stroke: #1f77b4; stroke-width: 1.5"/>
    <path d="M 465.325787 289.28401 
L 465.325787 272.508002 
" clip-path="url(#p9842be32d8)" style="fill: none; stroke: #1f77b4; stroke-width: 1.5"/>
    <path d="M 624.451112 337.653324 
L 624.451112 337.512314 
" clip-path="url(#p9842be32d8)" style="fill: none; stroke: #1f77b4; stroke-width: 1.5"/>
   </g>
   <g id="LineCollection_5">
    <path d="M 127.184472 49.141231 
L 166.965804 49.141231 
" clip-path="url(#p9842be32d8)" style="fill: none; stroke: #1f77b4; stroke-width: 1.5"/>
    <path d="M 286.309797 124.071587 
L 326.091128 124.071587 
" clip-path="url(#p9842be32d8)" style="fill: none; stroke: #1f77b4; stroke-width: 1.5"/>
    <path d="M 445.435122 272.532743 
L 485.216453 272.532743 
" clip-path="url(#p9842be32d8)" style="fill: none; stroke: #1f77b4; stroke-width: 1.5"/>
    <path d="M 604.560446 337.5659 
L 644.341778 337.5659 
" clip-path="url(#p9842be32d8)" style="fill: none; stroke: #1f77b4; stroke-width: 1.5"/>
   </g>
   <g id="patch_3">
    <path d="M 79.446875 352.0825 
L 79.446875 34.640625 
" style="fill: none; stroke: #808080; stroke-width: 0.8; stroke-linejoin: miter; stroke-linecap: square"/>
   </g>
   <g id="patch_4">
    <path d="M 79.446875 352.0825 
L 692.079375 352.0825 
" style="fill: none; stroke: #808080; stroke-width: 0.8; stroke-linejoin: miter; stroke-linecap: square"/>
   </g>
   <g id="text_13">
    <text style="font: 22px 'PingFang SC', 'Heiti SC', 'STHeiti', 'Calibri', 'Arial', 'Helvetica Neue', 'Arial Unicode MS', 'Noto Sans CJK SC', 'DejaVu Sans', sans-serif; text-anchor: middle" x="385.763125" y="28.640625" transform="rotate(-0 385.763125 28.640625)">All-Gather · 256 MB Rank 分布（Violin）</text>
   </g>
  </g>
 </g>
 <defs>
  <clipPath id="p9842be32d8">
   <rect x="79.446875" y="34.640625" width="612.6325" height="317.441875"/>
  </clipPath>
 </defs>
</svg>
