<?xml version="1.0" encoding="utf-8" standalone="no"?>
<!DOCTYPE svg PUBLIC "-//W3C//DTD SVG 1.1//EN"
  "http://www.w3.org/Graphics/SVG/1.1/DTD/svg11.dtd">
<svg xmlns:xlink="http://www.w3.org/1999/xlink" width="702.916875pt" height="414.8025pt" viewBox="0 0 702.916875 414.8025" xmlns="http://www.w3.org/2000/svg" version="1.1">
 <metadata>
  <rdf:RDF xmlns:dc="http://purl.org/dc/elements/1.1/" xmlns:cc="http://creativecommons.org/ns#" xmlns:rdf="http://www.w3.org/1999/02/22-rdf-syntax-ns#">
   <cc:Work>
    <dc:type rdf:resource="http://purl.org/dc/dcmitype/StillImage"/>
    <dc:date>2026-07-11T21:18:46.372815</dc:date>
    <dc:format>image/svg+xml</dc:format>
    <dc:creator>
     <cc:Agent>
      <dc:title>Matplotlib v3.9.4, https://matplotlib.org/</dc:title>
     </cc:Agent>
    </dc:creator>
   </cc:Work>
  </rdf:RDF>
 </metadata>
 <defs>
  <style type="text/css">*{stroke-linejoin: round; stroke-linecap: butt}</style>
 </defs>
 <g id="figure_1">
  <g id="patch_1">
   <path d="M 0 414.8025 
L 702.916875 414.8025 
L 702.916875 0 
L 0 0 
z
" style="fill: #ffffff"/>
  </g>
  <g id="axes_1">
   <g id="patch_2">
    <path d="M 79.446875 352.0825 
L 692.116875 352.0825 
L 692.116875 34.640625 
L 79.446875 34.640625 
z
" style="fill: #ffffff"/>
   </g>
   <g id="matplotlib.axis_1">
    <g id="xtick_1">
     <g id="line2d_1">
      <defs>
       <path id="md1e98e0825" d="M 0 0 
L 0 3.5 
" style="stroke: #808080; stroke-width: 0.8"/>
      </defs>
      <g>
       <use xlink:href="#md1e98e0825" x="147.079278" y="352.0825" style="fill: #808080; stroke: #808080; stroke-width: 0.8"/>
      </g>
     </g>
     <g id="text_1">
      <text style="fill: #808080; font: 22px 'PingFang SC', 'Heiti SC', 'STHeiti', 'Calibri', 'Arial', 'Helvetica Neue', 'Arial Unicode MS', 'Noto Sans CJK SC', 'DejaVu Sans', sans-serif; text-anchor: middle" x="147.079278" y="376.593125" transform="rotate(-0 147.079278 376.593125)">16</text>
     </g>
    </g>
    <g id="xtick_2">
     <g id="line2d_2">
      <g>
       <use xlink:href="#md1e98e0825" x="306.214343" y="352.0825" style="fill: #808080; stroke: #808080; stroke-width: 0.8"/>
      </g>
     </g>
     <g id="text_2">
      <text style="fill: #808080; font: 22px 'PingFang SC', 'Heiti SC', 'STHeiti', 'Calibri', 'Arial', 'Helvetica Neue', 'Arial Unicode MS', 'Noto Sans CJK SC', 'DejaVu Sans', sans-serif; text-anchor: middle" x="306.214343" y="376.593125" transform="rotate(-0 306.214343 376.593125)">32</text>
     </g>
    </g>
    <g id="xtick_3">
     <g id="line2d_3">
      <g>
       <use xlink:href="#md1e98e0825" x="465.349407" y="352.0825" style="fill: #808080; stroke: #808080; stroke-width: 0.8"/>
      </g>
     </g>
     <g id="text_3">
      <text style="fill: #808080; font: 22px 'PingFang SC', 'Heiti SC', 'STHeiti', 'Calibri', 'Arial', 'Helvetica Neue', 'Arial Unicode MS', 'Noto Sans CJK SC', 'DejaVu Sans', sans-serif; text-anchor: middle" x="465.349407" y="376.593125" transform="rotate(-0 465.349407 376.593125)">64</text>
     </g>
    </g>
    <g id="xtick_4">
     <g id="line2d_4">
      <g>
       <use xlink:href="#md1e98e0825" x="624.484472" y="352.0825" style="fill: #808080; stroke: #808080; stroke-width: 0.8"/>
      </g>
     </g>
     <g id="text_4">
      <text style="fill: #808080; font: 22px 'PingFang SC', 'Heiti SC', 'STHeiti', 'Calibri', 'Arial', 'Helvetica Neue', 'Arial Unicode MS', 'Noto Sans CJK SC', 'DejaVu Sans', sans-serif; text-anchor: middle" x="624.484472" y="376.593125" transform="rotate(-0 624.484472 376.593125)">128</text>
     </g>
    </g>
    <g id="text_5">
     <text style="font: 22px 'PingFang SC', 'Heiti SC', 'STHeiti', 'Calibri', 'Arial', 'Helvetica Neue', 'Arial Unicode MS', 'Noto Sans CJK SC', 'DejaVu Sans', sans-serif; text-anchor: middle" x="385.781875" y="401.053125" transform="rotate(-0 385.781875 401.053125)">World 规模</text>
    </g>
   </g>
   <g id="matplotlib.axis_2">
    <g id="ytick_1">
     <g id="line2d_5">
      <path d="M 79.446875 310.101031 
L 692.116875 310.101031 
" clip-path="url(#p97028b0f29)" style="fill: none; stroke-dasharray: 1,1.65; stroke-dashoffset: 0; stroke: #808080; stroke-opacity: 0.55"/>
     </g>
     <g id="line2d_6">
      <defs>
       <path id="m4f1facee76" d="M 0 0 
L -3.5 0 
" style="stroke: #808080; stroke-width: 0.8"/>
      </defs>
      <g>
       <use xlink:href="#m4f1facee76" x="79.446875" y="310.101031" style="fill: #808080; stroke: #808080; stroke-width: 0.8"/>
      </g>
     </g>
     <g id="text_6">
      <text style="fill: #808080; font: 22px 'PingFang SC', 'Heiti SC', 'STHeiti', 'Calibri', 'Arial', 'Helvetica Neue', 'Arial Unicode MS', 'Noto Sans CJK SC', 'DejaVu Sans', sans-serif; text-anchor: end" x="72.446875" y="318.856343" transform="rotate(-0 72.446875 318.856343)">140</text>
     </g>
    </g>
    <g id="ytick_2">
     <g id="line2d_7">
      <path d="M 79.446875 222.144122 
L 692.116875 222.144122 
" clip-path="url(#p97028b0f29)" style="fill: none; stroke-dasharray: 1,1.65; stroke-dashoffset: 0; stroke: #808080; stroke-opacity: 0.55"/>
     </g>
     <g id="line2d_8">
      <g>
       <use xlink:href="#m4f1facee76" x="79.446875" y="222.144122" style="fill: #808080; stroke: #808080; stroke-width: 0.8"/>
      </g>
     </g>
     <g id="text_7">
      <text style="fill: #808080; font: 22px 'PingFang SC', 'Heiti SC', 'STHeiti', 'Calibri', 'Arial', 'Helvetica Neue', 'Arial Unicode MS', 'Noto Sans CJK SC', 'DejaVu Sans', sans-serif; text-anchor: end" x="72.446875" y="230.899435" transform="rotate(-0 72.446875 230.899435)">145</text>
     </g>
    </g>
    <g id="ytick_3">
     <g id="line2d_9">
      <path d="M 79.446875 134.187214 
L 692.116875 134.187214 
" clip-path="url(#p97028b0f29)" style="fill: none; stroke-dasharray: 1,1.65; stroke-dashoffset: 0; stroke: #808080; stroke-opacity: 0.55"/>
     </g>
     <g id="line2d_10">
      <g>
       <use xlink:href="#m4f1facee76" x="79.446875" y="134.187214" style="fill: #808080; stroke: #808080; stroke-width: 0.8"/>
      </g>
     </g>
     <g id="text_8">
      <text style="fill: #808080; font: 22px 'PingFang SC', 'Heiti SC', 'STHeiti', 'Calibri', 'Arial', 'Helvetica Neue', 'Arial Unicode MS', 'Noto Sans CJK SC', 'DejaVu Sans', sans-serif; text-anchor: end" x="72.446875" y="142.942526" transform="rotate(-0 72.446875 142.942526)">150</text>
     </g>
    </g>
    <g id="ytick_4">
     <g id="line2d_11">
      <path d="M 79.446875 46.230305 
L 692.116875 46.230305 
" clip-path="url(#p97028b0f29)" style="fill: none; stroke-dasharray: 1,1.65; stroke-dashoffset: 0; stroke: #808080; stroke-opacity: 0.55"/>
     </g>
     <g id="line2d_12">
      <g>
       <use xlink:href="#m4f1facee76" x="79.446875" y="46.230305" style="fill: #808080; stroke: #808080; stroke-width: 0.8"/>
      </g>
     </g>
     <g id="text_9">
      <text style="fill: #808080; font: 22px 'PingFang SC', 'Heiti SC', 'STHeiti', 'Calibri', 'Arial', 'Helvetica Neue', 'Arial Unicode MS', 'Noto Sans CJK SC', 'DejaVu Sans', sans-serif; text-anchor: end" x="72.446875" y="54.985618" transform="rotate(-0 72.446875 54.985618)">155</text>
     </g>
    </g>
    <g id="text_10">
     <text style="font: 22px 'PingFang SC', 'Heiti SC', 'STHeiti', 'Calibri', 'Arial', 'Helvetica Neue', 'Arial Unicode MS', 'Noto Sans CJK SC', 'DejaVu Sans', sans-serif; text-anchor: middle" x="28.929375" y="193.361562" transform="rotate(-90 28.929375 193.361562)">Bus 带宽 (GB/s)</text>
    </g>
   </g>
   <g id="PolyCollection_1">
    <path d="M 170.525757 50.030213 
L 123.632798 50.030213 
L 122.114285 50.020512 
L 120.602423 50.010811 
L 119.109848 50.00111 
L 117.649743 49.991408 
L 116.23565 49.981707 
L 114.881273 49.972006 
L 113.600256 49.962305 
L 112.405951 49.952604 
L 111.311183 49.942903 
L 110.328007 49.933202 
L 109.467477 49.923501 
L 108.739427 49.913799 
L 108.15227 49.904098 
L 107.712822 49.894397 
L 107.426158 49.884696 
L 107.295511 49.874995 
L 107.322198 49.865294 
L 107.505598 49.855593 
L 107.843172 49.845891 
L 108.330521 49.83619 
L 108.961491 49.826489 
L 109.728305 49.816788 
L 110.621739 49.807087 
L 111.631314 49.797386 
L 112.745516 49.787685 
L 113.952021 49.777984 
L 115.237935 49.768282 
L 116.590027 49.758581 
L 117.994957 49.74888 
L 119.439493 49.739179 
L 120.91071 49.729478 
L 122.396168 49.719777 
L 123.884066 49.710076 
L 125.363371 49.700375 
L 126.82392 49.690673 
L 128.256502 49.680972 
L 129.652904 49.671271 
L 131.005946 49.66157 
L 132.309485 49.651869 
L 133.558408 49.642168 
L 134.748604 49.632467 
L 135.876921 49.622766 
L 136.941119 49.613064 
L 137.939809 49.603363 
L 138.872382 49.593662 
L 139.738945 49.583961 
L 140.540238 49.57426 
L 141.277566 49.564559 
L 141.95272 49.554858 
L 142.567897 49.545156 
L 143.125637 49.535455 
L 143.628741 49.525754 
L 144.080209 49.516053 
L 144.483176 49.506352 
L 144.84085 49.496651 
L 145.156455 49.48695 
L 145.433185 49.477249 
L 145.674156 49.467547 
L 145.882367 49.457846 
L 146.060665 49.448145 
L 146.21172 49.438444 
L 146.337998 49.428743 
L 146.441751 49.419042 
L 146.525002 49.409341 
L 146.589541 49.39964 
L 146.636927 49.389938 
L 146.668492 49.380237 
L 146.685355 49.370536 
L 146.688436 49.360835 
L 146.678475 49.351134 
L 146.656057 49.341433 
L 146.621638 49.331732 
L 146.57558 49.322031 
L 146.518174 49.312329 
L 146.449682 49.302628 
L 146.370367 49.292927 
L 146.280528 49.283226 
L 146.180533 49.273525 
L 146.070849 49.263824 
L 145.952071 49.254123 
L 145.82494 49.244421 
L 145.690371 49.23472 
L 145.549453 49.225019 
L 145.403463 49.215318 
L 145.253859 49.205617 
L 145.102269 49.195916 
L 144.950478 49.186215 
L 144.800397 49.176514 
L 144.654031 49.166812 
L 144.513443 49.157111 
L 144.380707 49.14741 
L 144.25786 49.137709 
L 144.146855 49.128008 
L 144.04951 49.118307 
L 143.967456 49.108606 
L 143.902099 49.098905 
L 143.854576 49.089203 
L 143.825723 49.079502 
L 143.816053 49.069801 
L 150.342502 49.069801 
L 150.342502 49.069801 
L 150.332832 49.079502 
L 150.303979 49.089203 
L 150.256456 49.098905 
L 150.191099 49.108606 
L 150.109046 49.118307 
L 150.0117 49.128008 
L 149.900695 49.137709 
L 149.777849 49.14741 
L 149.645112 49.157111 
L 149.504524 49.166812 
L 149.358158 49.176514 
L 149.208077 49.186215 
L 149.056286 49.195916 
L 148.904696 49.205617 
L 148.755092 49.215318 
L 148.609102 49.225019 
L 148.468184 49.23472 
L 148.333615 49.244421 
L 148.206485 49.254123 
L 148.087706 49.263824 
L 147.978022 49.273525 
L 147.878027 49.283226 
L 147.788188 49.292927 
L 147.708873 49.302628 
L 147.640381 49.312329 
L 147.582975 49.322031 
L 147.536917 49.331732 
L 147.502499 49.341433 
L 147.48008 49.351134 
L 147.470119 49.360835 
L 147.4732 49.370536 
L 147.490063 49.380237 
L 147.521628 49.389938 
L 147.569014 49.39964 
L 147.633553 49.409341 
L 147.716804 49.419042 
L 147.820557 49.428743 
L 147.946836 49.438444 
L 148.09789 49.448145 
L 148.276188 49.457846 
L 148.484399 49.467547 
L 148.72537 49.477249 
L 149.0021 49.48695 
L 149.317706 49.496651 
L 149.675379 49.506352 
L 150.078346 49.516053 
L 150.529815 49.525754 
L 151.032918 49.535455 
L 151.590658 49.545156 
L 152.205836 49.554858 
L 152.880989 49.564559 
L 153.618317 49.57426 
L 154.41961 49.583961 
L 155.286173 49.593662 
L 156.218746 49.603363 
L 157.217436 49.613064 
L 158.281634 49.622766 
L 159.409952 49.632467 
L 160.600147 49.642168 
L 161.84907 49.651869 
L 163.152609 49.66157 
L 164.505651 49.671271 
L 165.902053 49.680972 
L 167.334635 49.690673 
L 168.795185 49.700375 
L 170.274489 49.710076 
L 171.762387 49.719777 
L 173.247845 49.729478 
L 174.719062 49.739179 
L 176.163598 49.74888 
L 177.568528 49.758581 
L 178.92062 49.768282 
L 180.206534 49.777984 
L 181.413039 49.787685 
L 182.527241 49.797386 
L 183.536817 49.807087 
L 184.43025 49.816788 
L 185.197065 49.826489 
L 185.828034 49.83619 
L 186.315383 49.845891 
L 186.652957 49.855593 
L 186.836357 49.865294 
L 186.863044 49.874995 
L 186.732397 49.884696 
L 186.445734 49.894397 
L 186.006285 49.904098 
L 185.419128 49.913799 
L 184.691078 49.923501 
L 183.830548 49.933202 
L 182.847372 49.942903 
L 181.752604 49.952604 
L 180.558299 49.962305 
L 179.277282 49.972006 
L 177.922905 49.981707 
L 176.508812 49.991408 
L 175.048707 50.00111 
L 173.556132 50.010811 
L 172.04427 50.020512 
L 170.525757 50.030213 
z
" clip-path="url(#p97028b0f29)" style="fill: #4c78a8; fill-opacity: 0.65"/>
   </g>
   <g id="PolyCollection_2">
    <path d="M 310.763746 138.236679 
L 301.664939 138.236679 
L 301.621137 138.229805 
L 301.590308 138.222932 
L 301.57038 138.216058 
L 301.558794 138.209185 
L 301.552534 138.202311 
L 301.548174 138.195438 
L 301.541941 138.188564 
L 301.529777 138.18169 
L 301.507424 138.174817 
L 301.470508 138.167943 
L 301.414628 138.16107 
L 301.335452 138.154196 
L 301.228807 138.147323 
L 301.090776 138.140449 
L 300.917781 138.133576 
L 300.706661 138.126702 
L 300.454746 138.119829 
L 300.159912 138.112955 
L 299.820628 138.106082 
L 299.435982 138.099208 
L 299.0057 138.092335 
L 298.53014 138.085461 
L 298.010271 138.078587 
L 297.447638 138.071714 
L 296.844311 138.06484 
L 296.202811 138.057967 
L 295.52604 138.051093 
L 294.817182 138.04422 
L 294.079613 138.037346 
L 293.316793 138.030473 
L 292.532172 138.023599 
L 291.72909 138.016726 
L 290.910683 138.009852 
L 290.079812 138.002979 
L 289.238994 137.996105 
L 288.390358 137.989232 
L 287.535621 137.982358 
L 286.676082 137.975484 
L 285.812643 137.968611 
L 284.945852 137.961737 
L 284.075964 137.954864 
L 283.203026 137.94799 
L 282.326974 137.941117 
L 281.447742 137.934243 
L 280.565386 137.92737 
L 279.680196 137.920496 
L 278.792818 137.913623 
L 277.904358 137.906749 
L 277.016478 137.899876 
L 276.131469 137.893002 
L 275.252303 137.886128 
L 274.382657 137.879255 
L 273.526912 137.872381 
L 272.69012 137.865508 
L 271.877946 137.858634 
L 271.096577 137.851761 
L 270.352618 137.844887 
L 269.652955 137.838014 
L 269.004613 137.83114 
L 268.414599 137.824267 
L 267.889742 137.817393 
L 267.436531 137.81052 
L 267.060966 137.803646 
L 266.768415 137.796773 
L 266.56349 137.789899 
L 266.449942 137.783025 
L 266.430576 137.776152 
L 266.507196 137.769278 
L 266.68057 137.762405 
L 266.950418 137.755531 
L 267.315435 137.748658 
L 267.77332 137.741784 
L 268.320836 137.734911 
L 268.953882 137.728037 
L 269.667583 137.721164 
L 270.456385 137.71429 
L 271.314163 137.707417 
L 272.234327 137.700543 
L 273.209938 137.69367 
L 274.233818 137.686796 
L 275.298657 137.679922 
L 276.397119 137.673049 
L 277.521939 137.666175 
L 278.66601 137.659302 
L 279.822469 137.652428 
L 280.984767 137.645555 
L 282.146729 137.638681 
L 283.30261 137.631808 
L 284.447132 137.624934 
L 285.575516 137.618061 
L 286.6835 137.611187 
L 287.76735 137.604314 
L 288.823856 137.59744 
L 289.850319 137.590567 
L 290.844539 137.583693 
L 291.804777 137.576819 
L 292.729733 137.569946 
L 293.618495 137.563072 
L 294.470507 137.556199 
L 317.958178 137.556199 
L 317.958178 137.556199 
L 318.81019 137.563072 
L 319.698953 137.569946 
L 320.623908 137.576819 
L 321.584146 137.583693 
L 322.578366 137.590567 
L 323.60483 137.59744 
L 324.661335 137.604314 
L 325.745185 137.611187 
L 326.85317 137.618061 
L 327.981553 137.624934 
L 329.126075 137.631808 
L 330.281956 137.638681 
L 331.443918 137.645555 
L 332.606216 137.652428 
L 333.762675 137.659302 
L 334.906746 137.666175 
L 336.031566 137.673049 
L 337.130028 137.679922 
L 338.194867 137.686796 
L 339.218747 137.69367 
L 340.194358 137.700543 
L 341.114522 137.707417 
L 341.9723 137.71429 
L 342.761102 137.721164 
L 343.474803 137.728037 
L 344.10785 137.734911 
L 344.655365 137.741784 
L 345.11325 137.748658 
L 345.478267 137.755531 
L 345.748115 137.762405 
L 345.921489 137.769278 
L 345.998109 137.776152 
L 345.978743 137.783025 
L 345.865195 137.789899 
L 345.66027 137.796773 
L 345.367719 137.803646 
L 344.992154 137.81052 
L 344.538943 137.817393 
L 344.014086 137.824267 
L 343.424072 137.83114 
L 342.77573 137.838014 
L 342.076067 137.844887 
L 341.332108 137.851761 
L 340.550739 137.858634 
L 339.738565 137.865508 
L 338.901773 137.872381 
L 338.046028 137.879255 
L 337.176382 137.886128 
L 336.297216 137.893002 
L 335.412207 137.899876 
L 334.524327 137.906749 
L 333.635867 137.913623 
L 332.748489 137.920496 
L 331.863299 137.92737 
L 330.980943 137.934243 
L 330.101712 137.941117 
L 329.225659 137.94799 
L 328.352721 137.954864 
L 327.482833 137.961737 
L 326.616042 137.968611 
L 325.752603 137.975484 
L 324.893064 137.982358 
L 324.038327 137.989232 
L 323.189691 137.996105 
L 322.348873 138.002979 
L 321.518002 138.009852 
L 320.699595 138.016726 
L 319.896513 138.023599 
L 319.111892 138.030473 
L 318.349072 138.037346 
L 317.611503 138.04422 
L 316.902645 138.051093 
L 316.225874 138.057967 
L 315.584374 138.06484 
L 314.981047 138.071714 
L 314.418414 138.078587 
L 313.898545 138.085461 
L 313.422985 138.092335 
L 312.992703 138.099208 
L 312.608057 138.106082 
L 312.268773 138.112955 
L 311.973939 138.119829 
L 311.722024 138.126702 
L 311.510904 138.133576 
L 311.337909 138.140449 
L 311.199878 138.147323 
L 311.093233 138.154196 
L 311.014057 138.16107 
L 310.958177 138.167943 
L 310.921261 138.174817 
L 310.898908 138.18169 
L 310.886744 138.188564 
L 310.880511 138.195438 
L 310.876151 138.202311 
L 310.869891 138.209185 
L 310.858305 138.216058 
L 310.838377 138.222932 
L 310.807548 138.229805 
L 310.763746 138.236679 
z
" clip-path="url(#p97028b0f29)" style="fill: #4c78a8; fill-opacity: 0.65"/>
   </g>
   <g id="PolyCollection_3">
    <path d="M 472.989429 187.855387 
L 457.709386 187.855387 
L 457.375918 187.847873 
L 457.03434 187.84036 
L 456.682973 187.832847 
L 456.319893 187.825333 
L 455.942948 187.81782 
L 455.549786 187.810307 
L 455.137885 187.802794 
L 454.704594 187.79528 
L 454.247177 187.787767 
L 453.762867 187.780254 
L 453.248919 187.77274 
L 452.702675 187.765227 
L 452.12163 187.757714 
L 451.503498 187.750201 
L 450.846286 187.742687 
L 450.148362 187.735174 
L 449.408528 187.727661 
L 448.626088 187.720147 
L 447.80091 187.712634 
L 446.933489 187.705121 
L 446.024991 187.697608 
L 445.077302 187.690094 
L 444.093053 187.682581 
L 443.075641 187.675068 
L 442.029231 187.667555 
L 440.958746 187.660041 
L 439.869835 187.652528 
L 438.768832 187.645015 
L 437.662691 187.637501 
L 436.558905 187.629988 
L 435.465415 187.622475 
L 434.390495 187.614962 
L 433.342631 187.607448 
L 432.330387 187.599935 
L 431.362261 187.592422 
L 430.44654 187.584908 
L 429.591149 187.577395 
L 428.803509 187.569882 
L 428.090393 187.562369 
L 427.457799 187.554855 
L 426.91083 187.547342 
L 426.453599 187.539829 
L 426.089142 187.532315 
L 425.819366 187.524802 
L 425.645011 187.517289 
L 425.565641 187.509776 
L 425.579664 187.502262 
L 425.684368 187.494749 
L 425.875989 187.487236 
L 426.1498 187.479723 
L 426.500217 187.472209 
L 426.920924 187.464696 
L 427.405009 187.457183 
L 427.945112 187.449669 
L 428.533578 187.442156 
L 429.162608 187.434643 
L 429.824413 187.42713 
L 430.511352 187.419616 
L 431.216071 187.412103 
L 431.931618 187.40459 
L 432.651551 187.397076 
L 433.370018 187.389563 
L 434.081829 187.38205 
L 434.782501 187.374537 
L 435.468284 187.367023 
L 436.13617 187.35951 
L 436.783884 187.351997 
L 437.409855 187.344483 
L 438.013179 187.33697 
L 438.593569 187.329457 
L 439.151288 187.321944 
L 439.687092 187.31443 
L 440.202148 187.306917 
L 440.697974 187.299404 
L 441.176357 187.291891 
L 441.639294 187.284377 
L 442.08892 187.276864 
L 442.527457 187.269351 
L 442.957155 187.261837 
L 443.380253 187.254324 
L 443.798935 187.246811 
L 444.2153 187.239298 
L 444.631336 187.231784 
L 445.048901 187.224271 
L 445.469701 187.216758 
L 445.895285 187.209244 
L 446.327027 187.201731 
L 446.766126 187.194218 
L 447.213595 187.186705 
L 447.670256 187.179191 
L 448.136737 187.171678 
L 448.613464 187.164165 
L 449.100662 187.156651 
L 449.598347 187.149138 
L 450.106327 187.141625 
L 450.624197 187.134112 
L 451.151346 187.126598 
L 451.686952 187.119085 
L 452.229998 187.111572 
L 478.468817 187.111572 
L 478.468817 187.111572 
L 479.011863 187.119085 
L 479.547469 187.126598 
L 480.074618 187.134112 
L 480.592488 187.141625 
L 481.100468 187.149138 
L 481.598153 187.156651 
L 482.085351 187.164165 
L 482.562078 187.171678 
L 483.028559 187.179191 
L 483.48522 187.186705 
L 483.932689 187.194218 
L 484.371788 187.201731 
L 484.80353 187.209244 
L 485.229114 187.216758 
L 485.649914 187.224271 
L 486.067479 187.231784 
L 486.483515 187.239298 
L 486.89988 187.246811 
L 487.318562 187.254324 
L 487.74166 187.261837 
L 488.171358 187.269351 
L 488.609895 187.276864 
L 489.059521 187.284377 
L 489.522458 187.291891 
L 490.000841 187.299404 
L 490.496667 187.306917 
L 491.011723 187.31443 
L 491.547527 187.321944 
L 492.105246 187.329457 
L 492.685636 187.33697 
L 493.28896 187.344483 
L 493.914931 187.351997 
L 494.562645 187.35951 
L 495.230531 187.367023 
L 495.916314 187.374537 
L 496.616986 187.38205 
L 497.328797 187.389563 
L 498.047264 187.397076 
L 498.767196 187.40459 
L 499.482744 187.412103 
L 500.187463 187.419616 
L 500.874402 187.42713 
L 501.536207 187.434643 
L 502.165237 187.442156 
L 502.753703 187.449669 
L 503.293806 187.457183 
L 503.777891 187.464696 
L 504.198597 187.472209 
L 504.549015 187.479723 
L 504.822826 187.487236 
L 505.014447 187.494749 
L 505.119151 187.502262 
L 505.133174 187.509776 
L 505.053804 187.517289 
L 504.879449 187.524802 
L 504.609673 187.532315 
L 504.245216 187.539829 
L 503.787985 187.547342 
L 503.241016 187.554855 
L 502.608422 187.562369 
L 501.895306 187.569882 
L 501.107666 187.577395 
L 500.252275 187.584908 
L 499.336554 187.592422 
L 498.368428 187.599935 
L 497.356184 187.607448 
L 496.30832 187.614962 
L 495.2334 187.622475 
L 494.13991 187.629988 
L 493.036124 187.637501 
L 491.929982 187.645015 
L 490.82898 187.652528 
L 489.740069 187.660041 
L 488.669584 187.667555 
L 487.623174 187.675068 
L 486.605762 187.682581 
L 485.621513 187.690094 
L 484.673824 187.697608 
L 483.765326 187.705121 
L 482.897904 187.712634 
L 482.072727 187.720147 
L 481.290287 187.727661 
L 480.550453 187.735174 
L 479.852529 187.742687 
L 479.195317 187.750201 
L 478.577185 187.757714 
L 477.99614 187.765227 
L 477.449896 187.77274 
L 476.935948 187.780254 
L 476.451638 187.787767 
L 475.994221 187.79528 
L 475.56093 187.802794 
L 475.149029 187.810307 
L 474.755867 187.81782 
L 474.378922 187.825333 
L 474.015842 187.832847 
L 473.664475 187.84036 
L 473.322896 187.847873 
L 472.989429 187.855387 
z
" clip-path="url(#p97028b0f29)" style="fill: #4c78a8; fill-opacity: 0.65"/>
   </g>
   <g id="PolyCollection_4">
    <path d="M 651.248528 337.653324 
L 597.720417 337.653324 
L 596.620622 337.650015 
L 595.556013 337.646706 
L 594.53143 337.643397 
L 593.551189 337.640088 
L 592.619022 337.636779 
L 591.738043 337.63347 
L 590.910711 337.630162 
L 590.138822 337.626853 
L 589.423509 337.623544 
L 588.765257 337.620235 
L 588.163935 337.616926 
L 587.618834 337.613617 
L 587.128727 337.610308 
L 586.691928 337.606999 
L 586.306368 337.60369 
L 585.96967 337.600381 
L 585.679236 337.597073 
L 585.432328 337.593764 
L 585.226153 337.590455 
L 585.057946 337.587146 
L 584.925046 337.583837 
L 584.824968 337.580528 
L 584.755465 337.577219 
L 584.714583 337.57391 
L 584.700706 337.570601 
L 584.712585 337.567292 
L 584.749362 337.563983 
L 584.810577 337.560675 
L 584.896166 337.557366 
L 585.006446 337.554057 
L 585.142093 337.550748 
L 585.304102 337.547439 
L 585.493747 337.54413 
L 585.712531 337.540821 
L 585.962124 337.537512 
L 586.244308 337.534203 
L 586.56091 337.530894 
L 586.913735 337.527586 
L 587.304506 337.524277 
L 587.734796 337.520968 
L 588.205972 337.517659 
L 588.719138 337.51435 
L 589.275089 337.511041 
L 589.874266 337.507732 
L 590.516722 337.504423 
L 591.202097 337.501114 
L 591.929596 337.497805 
L 592.697985 337.494496 
L 593.505584 337.491188 
L 594.350275 337.487879 
L 595.22952 337.48457 
L 596.14038 337.481261 
L 597.079542 337.477952 
L 598.043357 337.474643 
L 599.027876 337.471334 
L 600.028894 337.468025 
L 601.041999 337.464716 
L 602.062616 337.461407 
L 603.086065 337.458099 
L 604.107604 337.45479 
L 605.122489 337.451481 
L 606.126021 337.448172 
L 607.113596 337.444863 
L 608.080755 337.441554 
L 609.023229 337.438245 
L 609.936987 337.434936 
L 610.818269 337.431627 
L 611.663631 337.428318 
L 612.469978 337.42501 
L 613.234589 337.421701 
L 613.955148 337.418392 
L 614.629766 337.415083 
L 615.256994 337.411774 
L 615.83584 337.408465 
L 616.365773 337.405156 
L 616.846727 337.401847 
L 617.279099 337.398538 
L 617.663736 337.395229 
L 618.001927 337.39192 
L 618.295378 337.388612 
L 618.546193 337.385303 
L 618.756839 337.381994 
L 618.930113 337.378685 
L 619.069101 337.375376 
L 619.177134 337.372067 
L 619.257743 337.368758 
L 619.314603 337.365449 
L 619.351484 337.36214 
L 619.372193 337.358831 
L 619.380521 337.355523 
L 619.380187 337.352214 
L 619.374784 337.348905 
L 619.367732 337.345596 
L 619.362226 337.342287 
L 619.361195 337.338978 
L 619.367268 337.335669 
L 619.382738 337.33236 
L 619.409542 337.329051 
L 619.449243 337.325742 
L 629.519702 337.325742 
L 629.519702 337.325742 
L 629.559403 337.329051 
L 629.586207 337.33236 
L 629.601677 337.335669 
L 629.60775 337.338978 
L 629.606719 337.342287 
L 629.601213 337.345596 
L 629.59416 337.348905 
L 629.588758 337.352214 
L 629.588424 337.355523 
L 629.596752 337.358831 
L 629.617461 337.36214 
L 629.654341 337.365449 
L 629.711202 337.368758 
L 629.791811 337.372067 
L 629.899844 337.375376 
L 630.038832 337.378685 
L 630.212105 337.381994 
L 630.422751 337.385303 
L 630.673567 337.388612 
L 630.967018 337.39192 
L 631.305209 337.395229 
L 631.689846 337.398538 
L 632.122217 337.401847 
L 632.603172 337.405156 
L 633.133105 337.408465 
L 633.711951 337.411774 
L 634.339179 337.415083 
L 635.013797 337.418392 
L 635.734356 337.421701 
L 636.498967 337.42501 
L 637.305313 337.428318 
L 638.150676 337.431627 
L 639.031958 337.434936 
L 639.945715 337.438245 
L 640.88819 337.441554 
L 641.855349 337.444863 
L 642.842924 337.448172 
L 643.846455 337.451481 
L 644.861341 337.45479 
L 645.88288 337.458099 
L 646.906328 337.461407 
L 647.926946 337.464716 
L 648.940051 337.468025 
L 649.941069 337.471334 
L 650.925588 337.474643 
L 651.889403 337.477952 
L 652.828565 337.481261 
L 653.739425 337.48457 
L 654.61867 337.487879 
L 655.463361 337.491188 
L 656.27096 337.494496 
L 657.039348 337.497805 
L 657.766848 337.501114 
L 658.452223 337.504423 
L 659.094679 337.507732 
L 659.693856 337.511041 
L 660.249807 337.51435 
L 660.762973 337.517659 
L 661.234149 337.520968 
L 661.664439 337.524277 
L 662.055209 337.527586 
L 662.408035 337.530894 
L 662.724637 337.534203 
L 663.006821 337.537512 
L 663.256414 337.540821 
L 663.475197 337.54413 
L 663.664843 337.547439 
L 663.826852 337.550748 
L 663.962498 337.554057 
L 664.072779 337.557366 
L 664.158368 337.560675 
L 664.219583 337.563983 
L 664.25636 337.567292 
L 664.268239 337.570601 
L 664.254361 337.57391 
L 664.21348 337.577219 
L 664.143977 337.580528 
L 664.043899 337.583837 
L 663.910999 337.587146 
L 663.742792 337.590455 
L 663.536617 337.593764 
L 663.289709 337.597073 
L 662.999275 337.600381 
L 662.662577 337.60369 
L 662.277017 337.606999 
L 661.840218 337.610308 
L 661.350111 337.613617 
L 660.80501 337.616926 
L 660.203688 337.620235 
L 659.545436 337.623544 
L 658.830123 337.626853 
L 658.058234 337.630162 
L 657.230902 337.63347 
L 656.349922 337.636779 
L 655.417756 337.640088 
L 654.437515 337.643397 
L 653.412932 337.646706 
L 652.348322 337.650015 
L 651.248528 337.653324 
z
" clip-path="url(#p97028b0f29)" style="fill: #4c78a8; fill-opacity: 0.65"/>
   </g>
   <g id="LineCollection_1">
    <path d="M 127.187394 49.819777 
L 166.971161 49.819777 
" clip-path="url(#p97028b0f29)" style="fill: none; stroke: #1f77b4; stroke-width: 1.5"/>
    <path d="M 286.322459 137.819376 
L 326.106226 137.819376 
" clip-path="url(#p97028b0f29)" style="fill: none; stroke: #1f77b4; stroke-width: 1.5"/>
    <path d="M 445.457524 187.459517 
L 485.241291 187.459517 
" clip-path="url(#p97028b0f29)" style="fill: none; stroke: #1f77b4; stroke-width: 1.5"/>
    <path d="M 604.592589 337.54738 
L 644.376356 337.54738 
" clip-path="url(#p97028b0f29)" style="fill: none; stroke: #1f77b4; stroke-width: 1.5"/>
   </g>
   <g id="LineCollection_2">
    <path d="M 127.187394 49.069801 
L 166.971161 49.069801 
" clip-path="url(#p97028b0f29)" style="fill: none; stroke: #1f77b4; stroke-width: 1.5"/>
    <path d="M 286.322459 137.556199 
L 326.106226 137.556199 
" clip-path="url(#p97028b0f29)" style="fill: none; stroke: #1f77b4; stroke-width: 1.5"/>
    <path d="M 445.457524 187.111572 
L 485.241291 187.111572 
" clip-path="url(#p97028b0f29)" style="fill: none; stroke: #1f77b4; stroke-width: 1.5"/>
    <path d="M 604.592589 337.325742 
L 644.376356 337.325742 
" clip-path="url(#p97028b0f29)" style="fill: none; stroke: #1f77b4; stroke-width: 1.5"/>
   </g>
   <g id="LineCollection_3">
    <path d="M 127.187394 50.030213 
L 166.971161 50.030213 
" clip-path="url(#p97028b0f29)" style="fill: none; stroke: #1f77b4; stroke-width: 1.5"/>
    <path d="M 286.322459 138.236679 
L 326.106226 138.236679 
" clip-path="url(#p97028b0f29)" style="fill: none; stroke: #1f77b4; stroke-width: 1.5"/>
    <path d="M 445.457524 187.855387 
L 485.241291 187.855387 
" clip-path="url(#p97028b0f29)" style="fill: none; stroke: #1f77b4; stroke-width: 1.5"/>
    <path d="M 604.592589 337.653324 
L 644.376356 337.653324 
" clip-path="url(#p97028b0f29)" style="fill: none; stroke: #1f77b4; stroke-width: 1.5"/>
   </g>
   <g id="LineCollection_4">
    <path d="M 147.079278 50.030213 
L 147.079278 49.069801 
" clip-path="url(#p97028b0f29)" style="fill: none; stroke: #1f77b4; stroke-width: 1.5"/>
    <path d="M 306.214343 138.236679 
L 306.214343 137.556199 
" clip-path="url(#p97028b0f29)" style="fill: none; stroke: #1f77b4; stroke-width: 1.5"/>
    <path d="M 465.349407 187.855387 
L 465.349407 187.111572 
" clip-path="url(#p97028b0f29)" style="fill: none; stroke: #1f77b4; stroke-width: 1.5"/>
    <path d="M 624.484472 337.653324 
L 624.484472 337.325742 
" clip-path="url(#p97028b0f29)" style="fill: none; stroke: #1f77b4; stroke-width: 1.5"/>
   </g>
   <g id="LineCollection_5">
    <path d="M 127.187394 49.864602 
L 166.971161 49.864602 
" clip-path="url(#p97028b0f29)" style="fill: none; stroke: #1f77b4; stroke-width: 1.5"/>
    <path d="M 286.322459 137.786328 
L 326.106226 137.786328 
" clip-path="url(#p97028b0f29)" style="fill: none; stroke: #1f77b4; stroke-width: 1.5"/>
    <path d="M 445.457524 187.497394 
L 485.241291 187.497394 
" clip-path="url(#p97028b0f29)" style="fill: none; stroke: #1f77b4; stroke-width: 1.5"/>
    <path d="M 604.592589 337.555978 
L 644.376356 337.555978 
" clip-path="url(#p97028b0f29)" style="fill: none; stroke: #1f77b4; stroke-width: 1.5"/>
   </g>
   <g id="patch_3">
    <path d="M 79.446875 352.0825 
L 79.446875 34.640625 
" style="fill: none; stroke: #808080; stroke-width: 0.8; stroke-linejoin: miter; stroke-linecap: square"/>
   </g>
   <g id="patch_4">
    <path d="M 79.446875 352.0825 
L 692.116875 352.0825 
" style="fill: none; stroke: #808080; stroke-width: 0.8; stroke-linejoin: miter; stroke-linecap: square"/>
   </g>
   <g id="text_11">
    <text style="font: 22px 'PingFang SC', 'Heiti SC', 'STHeiti', 'Calibri', 'Arial', 'Helvetica Neue', 'Arial Unicode MS', 'Noto Sans CJK SC', 'DejaVu Sans', sans-serif; text-anchor: middle" x="385.781875" y="28.640625" transform="rotate(-0 385.781875 28.640625)">All-Reduce · 256 MB Rank 分布（Violin）</text>
   </g>
  </g>
 </g>
 <defs>
  <clipPath id="p97028b0f29">
   <rect x="79.446875" y="34.640625" width="612.67" height="317.441875"/>
  </clipPath>
 </defs>
</svg>
