<?xml version="1.0" encoding="utf-8" standalone="no"?>
<!DOCTYPE svg PUBLIC "-//W3C//DTD SVG 1.1//EN"
  "http://www.w3.org/Graphics/SVG/1.1/DTD/svg11.dtd">
<svg xmlns:xlink="http://www.w3.org/1999/xlink" width="984.92405pt" height="443.006832pt" viewBox="0 0 984.92405 443.006832" xmlns="http://www.w3.org/2000/svg" version="1.1">
 <metadata>
  <rdf:RDF xmlns:dc="http://purl.org/dc/elements/1.1/" xmlns:cc="http://creativecommons.org/ns#" xmlns:rdf="http://www.w3.org/1999/02/22-rdf-syntax-ns#">
   <cc:Work>
    <dc:type rdf:resource="http://purl.org/dc/dcmitype/StillImage"/>
    <dc:date>2026-07-11T21:18:47.180274</dc:date>
    <dc:format>image/svg+xml</dc:format>
    <dc:creator>
     <cc:Agent>
      <dc:title>Matplotlib v3.9.4, https://matplotlib.org/</dc:title>
     </cc:Agent>
    </dc:creator>
   </cc:Work>
  </rdf:RDF>
 </metadata>
 <defs>
  <style type="text/css">*{stroke-linejoin: round; stroke-linecap: butt}</style>
 </defs>
 <g id="figure_1">
  <g id="patch_1">
   <path d="M 0 443.006832 
L 984.92405 443.006832 
L 984.92405 0 
L 0 0 
z
" style="fill: #ffffff"/>
  </g>
  <g id="axes_1">
   <g id="patch_2">
    <path d="M 79.446875 355.451092 
L 479.84405 355.451092 
L 479.84405 94.924688 
L 79.446875 94.924688 
z
" style="fill: #ffffff"/>
   </g>
   <g id="matplotlib.axis_1">
    <g id="xtick_1">
     <g id="line2d_1">
      <defs>
       <path id="m6fd86298ff" d="M 0 0 
L 0 3.5 
" style="stroke: #808080; stroke-width: 0.8"/>
      </defs>
      <g>
       <use xlink:href="#m6fd86298ff" x="158.312985" y="355.451092" style="fill: #808080; stroke: #808080; stroke-width: 0.8"/>
      </g>
     </g>
     <g id="text_1">
      <text style="fill: #808080; font: 22px 'PingFang SC', 'Heiti SC', 'STHeiti', 'Calibri', 'Arial', 'Helvetica Neue', 'Arial Unicode MS', 'Noto Sans CJK SC', 'DejaVu Sans', sans-serif" transform="translate(20.072704 429.435326) rotate(-20)">星型(经 rank0)</text>
     </g>
    </g>
    <g id="xtick_2">
     <g id="line2d_2">
      <g>
       <use xlink:href="#m6fd86298ff" x="400.97794" y="355.451092" style="fill: #808080; stroke: #808080; stroke-width: 0.8"/>
      </g>
     </g>
     <g id="text_2">
      <text style="fill: #808080; font: 22px 'PingFang SC', 'Heiti SC', 'STHeiti', 'Calibri', 'Arial', 'Helvetica Neue', 'Arial Unicode MS', 'Noto Sans CJK SC', 'DejaVu Sans', sans-serif" transform="translate(337.949481 401.479026) rotate(-20)">环相邻</text>
     </g>
    </g>
   </g>
   <g id="matplotlib.axis_2">
    <g id="ytick_1">
     <g id="line2d_3">
      <path d="M 79.446875 343.900175 
L 479.84405 343.900175 
" clip-path="url(#p1aaec8364d)" style="fill: none; stroke-dasharray: 1,1.65; stroke-dashoffset: 0; stroke: #808080; stroke-opacity: 0.55"/>
     </g>
     <g id="line2d_4">
      <defs>
       <path id="me0eef73185" d="M 0 0 
L -3.5 0 
" style="stroke: #808080; stroke-width: 0.8"/>
      </defs>
      <g>
       <use xlink:href="#me0eef73185" x="79.446875" y="343.900175" style="fill: #808080; stroke: #808080; stroke-width: 0.8"/>
      </g>
     </g>
     <g id="text_3">
      <text style="fill: #808080; font: 22px 'PingFang SC', 'Heiti SC', 'STHeiti', 'Calibri', 'Arial', 'Helvetica Neue', 'Arial Unicode MS', 'Noto Sans CJK SC', 'DejaVu Sans', sans-serif; text-anchor: end" x="72.446875" y="352.655487" transform="rotate(-0 72.446875 352.655487)">0</text>
     </g>
    </g>
    <g id="ytick_2">
     <g id="line2d_5">
      <path d="M 79.446875 247.168773 
L 479.84405 247.168773 
" clip-path="url(#p1aaec8364d)" style="fill: none; stroke-dasharray: 1,1.65; stroke-dashoffset: 0; stroke: #808080; stroke-opacity: 0.55"/>
     </g>
     <g id="line2d_6">
      <g>
       <use xlink:href="#me0eef73185" x="79.446875" y="247.168773" style="fill: #808080; stroke: #808080; stroke-width: 0.8"/>
      </g>
     </g>
     <g id="text_4">
      <text style="fill: #808080; font: 22px 'PingFang SC', 'Heiti SC', 'STHeiti', 'Calibri', 'Arial', 'Helvetica Neue', 'Arial Unicode MS', 'Noto Sans CJK SC', 'DejaVu Sans', sans-serif; text-anchor: end" x="72.446875" y="255.924085" transform="rotate(-0 72.446875 255.924085)">50</text>
     </g>
    </g>
    <g id="ytick_3">
     <g id="line2d_7">
      <path d="M 79.446875 150.43737 
L 479.84405 150.43737 
" clip-path="url(#p1aaec8364d)" style="fill: none; stroke-dasharray: 1,1.65; stroke-dashoffset: 0; stroke: #808080; stroke-opacity: 0.55"/>
     </g>
     <g id="line2d_8">
      <g>
       <use xlink:href="#me0eef73185" x="79.446875" y="150.43737" style="fill: #808080; stroke: #808080; stroke-width: 0.8"/>
      </g>
     </g>
     <g id="text_5">
      <text style="fill: #808080; font: 22px 'PingFang SC', 'Heiti SC', 'STHeiti', 'Calibri', 'Arial', 'Helvetica Neue', 'Arial Unicode MS', 'Noto Sans CJK SC', 'DejaVu Sans', sans-serif; text-anchor: end" x="72.446875" y="159.192683" transform="rotate(-0 72.446875 159.192683)">100</text>
     </g>
    </g>
    <g id="text_6">
     <text style="font: 22px 'PingFang SC', 'Heiti SC', 'STHeiti', 'Calibri', 'Arial', 'Helvetica Neue', 'Arial Unicode MS', 'Noto Sans CJK SC', 'DejaVu Sans', sans-serif; text-anchor: middle" x="28.929375" y="225.18789" transform="rotate(-90 28.929375 225.18789)">带宽 (GB/s)</text>
    </g>
   </g>
   <g id="PolyCollection_1">
    <path d="M 172.803096 343.470323 
L 143.822875 343.470323 
L 143.107691 343.464008 
L 142.41444 343.457693 
L 141.749065 343.451378 
L 141.117422 343.445064 
L 140.52518 343.438749 
L 139.977702 343.432434 
L 139.479938 343.426119 
L 139.036306 343.419804 
L 138.650584 343.41349 
L 138.325796 343.407175 
L 138.064115 343.40086 
L 137.866771 343.394545 
L 137.733971 343.388231 
L 137.664842 343.381916 
L 137.65738 343.375601 
L 137.708433 343.369286 
L 137.813694 343.362971 
L 137.967724 343.356657 
L 138.163998 343.350342 
L 138.394972 343.344027 
L 138.652176 343.337712 
L 138.926324 343.331397 
L 139.207453 343.325083 
L 139.485072 343.318768 
L 139.748326 343.312453 
L 139.986175 343.306138 
L 140.187579 343.299823 
L 140.341687 343.293509 
L 140.438024 343.287194 
L 140.466678 343.280879 
L 140.418472 343.274564 
L 140.285134 343.268249 
L 140.059438 343.261935 
L 139.73534 343.25562 
L 139.308086 343.249305 
L 138.774292 343.24299 
L 138.132007 343.236675 
L 137.380747 343.230361 
L 136.521495 343.224046 
L 135.556687 343.217731 
L 134.490157 343.211416 
L 133.327067 343.205101 
L 132.073811 343.198787 
L 130.737896 343.192472 
L 129.327808 343.186157 
L 127.852862 343.179842 
L 126.323044 343.173528 
L 124.748843 343.167213 
L 123.141082 343.160898 
L 121.510755 343.154583 
L 119.868868 343.148268 
L 118.226288 343.141954 
L 116.593613 343.135639 
L 114.981051 343.129324 
L 113.39833 343.123009 
L 111.854617 343.116694 
L 110.35847 343.11038 
L 108.917806 343.104065 
L 107.539893 343.09775 
L 106.23136 343.091435 
L 104.998228 343.08512 
L 103.845944 343.078806 
L 102.779437 343.072491 
L 101.803174 343.066176 
L 100.921212 343.059861 
L 100.137255 343.053546 
L 99.454701 343.047232 
L 98.876678 343.040917 
L 98.406066 343.034602 
L 98.045508 343.028287 
L 97.797399 343.021972 
L 97.66387 343.015658 
L 97.646747 343.009343 
L 97.747501 343.003028 
L 97.967193 342.996713 
L 98.306406 342.990399 
L 98.765176 342.984084 
L 99.342927 342.977769 
L 100.038406 342.971454 
L 100.849634 342.965139 
L 101.773861 342.958825 
L 102.807542 342.95251 
L 103.946324 342.946195 
L 105.185057 342.93988 
L 106.517819 342.933565 
L 107.93796 342.927251 
L 109.438163 342.920936 
L 111.010523 342.914621 
L 112.64663 342.908306 
L 114.337671 342.901991 
L 116.074536 342.895677 
L 117.847927 342.889362 
L 119.648465 342.883047 
L 121.466804 342.876732 
L 123.293731 342.870417 
L 125.120266 342.864103 
L 126.937749 342.857788 
L 128.737922 342.851473 
L 130.512999 342.845158 
L 186.112972 342.845158 
L 186.112972 342.845158 
L 187.888049 342.851473 
L 189.688222 342.857788 
L 191.505705 342.864103 
L 193.332239 342.870417 
L 195.159166 342.876732 
L 196.977505 342.883047 
L 198.778044 342.889362 
L 200.551434 342.895677 
L 202.2883 342.901991 
L 203.979341 342.908306 
L 205.615448 342.914621 
L 207.187807 342.920936 
L 208.688011 342.927251 
L 210.108152 342.933565 
L 211.440914 342.93988 
L 212.679647 342.946195 
L 213.818429 342.95251 
L 214.852109 342.958825 
L 215.776337 342.965139 
L 216.587565 342.971454 
L 217.283044 342.977769 
L 217.860794 342.984084 
L 218.319564 342.990399 
L 218.658777 342.996713 
L 218.87847 343.003028 
L 218.979224 343.009343 
L 218.962101 343.015658 
L 218.828572 343.021972 
L 218.580463 343.028287 
L 218.219904 343.034602 
L 217.749292 343.040917 
L 217.171269 343.047232 
L 216.488716 343.053546 
L 215.704759 343.059861 
L 214.822797 343.066176 
L 213.846533 343.072491 
L 212.780027 343.078806 
L 211.627743 343.08512 
L 210.39461 343.091435 
L 209.086078 343.09775 
L 207.708165 343.104065 
L 206.267501 343.11038 
L 204.771354 343.116694 
L 203.227641 343.123009 
L 201.644919 343.129324 
L 200.032358 343.135639 
L 198.399682 343.141954 
L 196.757103 343.148268 
L 195.115216 343.154583 
L 193.484889 343.160898 
L 191.877128 343.167213 
L 190.302926 343.173528 
L 188.773108 343.179842 
L 187.298163 343.186157 
L 185.888075 343.192472 
L 184.552159 343.198787 
L 183.298903 343.205101 
L 182.135813 343.211416 
L 181.069283 343.217731 
L 180.104475 343.224046 
L 179.245224 343.230361 
L 178.493964 343.236675 
L 177.851679 343.24299 
L 177.317885 343.249305 
L 176.89063 343.25562 
L 176.566533 343.261935 
L 176.340837 343.268249 
L 176.207498 343.274564 
L 176.159293 343.280879 
L 176.187946 343.287194 
L 176.284284 343.293509 
L 176.438391 343.299823 
L 176.639796 343.306138 
L 176.877645 343.312453 
L 177.140898 343.318768 
L 177.418517 343.325083 
L 177.699647 343.331397 
L 177.973795 343.337712 
L 178.230998 343.344027 
L 178.461972 343.350342 
L 178.658247 343.356657 
L 178.812277 343.362971 
L 178.917538 343.369286 
L 178.968591 343.375601 
L 178.961129 343.381916 
L 178.891999 343.388231 
L 178.7592 343.394545 
L 178.561855 343.40086 
L 178.300174 343.407175 
L 177.975386 343.41349 
L 177.589664 343.419804 
L 177.146033 343.426119 
L 176.648269 343.432434 
L 176.100791 343.438749 
L 175.508548 343.445064 
L 174.876906 343.451378 
L 174.21153 343.457693 
L 173.518279 343.464008 
L 172.803096 343.470323 
z
" clip-path="url(#p1aaec8364d)" style="fill: #1f77b4; fill-opacity: 0.7"/>
   </g>
   <g id="PolyCollection_2">
    <path d="M 424.187811 343.608982 
L 377.768069 343.608982 
L 376.97598 343.602861 
L 376.189176 343.596739 
L 375.408723 343.590617 
L 374.635605 343.584496 
L 373.870729 343.578374 
L 373.114926 343.572252 
L 372.36896 343.566131 
L 371.633534 343.560009 
L 370.909295 343.553887 
L 370.196846 343.547766 
L 369.496752 343.541644 
L 368.80955 343.535523 
L 368.135755 343.529401 
L 367.475866 343.523279 
L 366.830376 343.517158 
L 366.199771 343.511036 
L 365.584533 343.504914 
L 364.985145 343.498793 
L 364.402084 343.492671 
L 363.83582 343.486549 
L 363.286811 343.480428 
L 362.755494 343.474306 
L 362.242275 343.468184 
L 361.747519 343.462063 
L 361.271538 343.455941 
L 360.814573 343.449819 
L 360.376786 343.443698 
L 359.958237 343.437576 
L 359.558877 343.431454 
L 359.178526 343.425333 
L 358.816864 343.419211 
L 358.473414 343.413089 
L 358.147537 343.406968 
L 357.838416 343.400846 
L 357.545053 343.394724 
L 357.266266 343.388603 
L 357.000683 343.382481 
L 356.746751 343.376359 
L 356.502739 343.370238 
L 356.266744 343.364116 
L 356.03671 343.357994 
L 355.81044 343.351873 
L 355.585622 343.345751 
L 355.359847 343.339629 
L 355.130641 343.333508 
L 354.895494 343.327386 
L 354.651894 343.321265 
L 354.397364 343.315143 
L 354.129502 343.309021 
L 353.846016 343.3029 
L 353.544772 343.296778 
L 353.223833 343.290656 
L 352.8815 343.284535 
L 352.516355 343.278413 
L 352.127304 343.272291 
L 351.71361 343.26617 
L 351.274931 343.260048 
L 350.811354 343.253926 
L 350.323421 343.247805 
L 349.812152 343.241683 
L 349.279063 343.235561 
L 348.726179 343.22944 
L 348.156039 343.223318 
L 347.571693 343.217196 
L 346.976692 343.211075 
L 346.375073 343.204953 
L 345.771337 343.198831 
L 345.17041 343.19271 
L 344.577609 343.186588 
L 343.998592 343.180466 
L 343.439306 343.174345 
L 342.905925 343.168223 
L 342.404786 343.162101 
L 341.942316 343.15598 
L 341.524961 343.149858 
L 341.159106 343.143736 
L 340.850996 343.137615 
L 340.606662 343.131493 
L 340.431834 343.125371 
L 340.331875 343.11925 
L 340.311701 343.113128 
L 340.375715 343.107007 
L 340.527746 343.100885 
L 340.77099 343.094763 
L 341.107967 343.088642 
L 341.540477 343.08252 
L 342.069573 343.076398 
L 342.69554 343.070277 
L 343.417885 343.064155 
L 344.235335 343.058033 
L 345.145853 343.051912 
L 346.146652 343.04579 
L 347.23423 343.039668 
L 348.404407 343.033547 
L 349.652373 343.027425 
L 350.972745 343.021303 
L 352.359625 343.015182 
L 353.806672 343.00906 
L 355.307172 343.002938 
L 446.648708 343.002938 
L 446.648708 343.002938 
L 448.149208 343.00906 
L 449.596255 343.015182 
L 450.983135 343.021303 
L 452.303507 343.027425 
L 453.551473 343.033547 
L 454.72165 343.039668 
L 455.809228 343.04579 
L 456.810027 343.051912 
L 457.720545 343.058033 
L 458.537996 343.064155 
L 459.26034 343.070277 
L 459.886307 343.076398 
L 460.415403 343.08252 
L 460.847913 343.088642 
L 461.18489 343.094763 
L 461.428134 343.100885 
L 461.580165 343.107007 
L 461.644179 343.113128 
L 461.624005 343.11925 
L 461.524046 343.125371 
L 461.349219 343.131493 
L 461.104884 343.137615 
L 460.796774 343.143736 
L 460.430919 343.149858 
L 460.013564 343.15598 
L 459.551094 343.162101 
L 459.049955 343.168223 
L 458.516575 343.174345 
L 457.957289 343.180466 
L 457.378272 343.186588 
L 456.78547 343.19271 
L 456.184543 343.198831 
L 455.580807 343.204953 
L 454.979189 343.211075 
L 454.384187 343.217196 
L 453.799841 343.223318 
L 453.229701 343.22944 
L 452.676817 343.235561 
L 452.143728 343.241683 
L 451.632459 343.247805 
L 451.144526 343.253926 
L 450.680949 343.260048 
L 450.24227 343.26617 
L 449.828576 343.272291 
L 449.439525 343.278413 
L 449.07438 343.284535 
L 448.732047 343.290656 
L 448.411108 343.296778 
L 448.109864 343.3029 
L 447.826378 343.309021 
L 447.558516 343.315143 
L 447.303986 343.321265 
L 447.060386 343.327386 
L 446.825239 343.333508 
L 446.596033 343.339629 
L 446.370258 343.345751 
L 446.14544 343.351873 
L 445.919171 343.357994 
L 445.689136 343.364116 
L 445.453141 343.370238 
L 445.209129 343.376359 
L 444.955197 343.382481 
L 444.689614 343.388603 
L 444.410827 343.394724 
L 444.117464 343.400846 
L 443.808343 343.406968 
L 443.482466 343.413089 
L 443.139017 343.419211 
L 442.777354 343.425333 
L 442.397003 343.431454 
L 441.997643 343.437576 
L 441.579095 343.443698 
L 441.141307 343.449819 
L 440.684342 343.455941 
L 440.208361 343.462063 
L 439.713605 343.468184 
L 439.200386 343.474306 
L 438.669069 343.480428 
L 438.12006 343.486549 
L 437.553796 343.492671 
L 436.970735 343.498793 
L 436.371347 343.504914 
L 435.756109 343.511036 
L 435.125504 343.517158 
L 434.480014 343.523279 
L 433.820126 343.529401 
L 433.14633 343.535523 
L 432.459128 343.541644 
L 431.759035 343.547766 
L 431.046585 343.553887 
L 430.322346 343.560009 
L 429.58692 343.566131 
L 428.840954 343.572252 
L 428.085151 343.578374 
L 427.320275 343.584496 
L 426.547157 343.590617 
L 425.766704 343.596739 
L 424.9799 343.602861 
L 424.187811 343.608982 
z
" clip-path="url(#p1aaec8364d)" style="fill: #1f77b4; fill-opacity: 0.7"/>
   </g>
   <g id="PolyCollection_3">
    <path d="M 169.262383 161.953105 
L 147.363588 161.953105 
L 145.795691 161.48706 
L 144.047281 161.021014 
L 142.111064 160.554968 
L 139.983366 160.088922 
L 137.665025 159.622877 
L 135.162214 159.156831 
L 132.487179 158.690785 
L 129.658793 158.224739 
L 126.7029 157.758693 
L 123.652382 157.292648 
L 120.546915 156.826602 
L 117.432384 156.360556 
L 114.359959 155.89451 
L 111.384832 155.428465 
L 108.564662 154.962419 
L 105.957778 154.496373 
L 103.621209 154.030327 
L 101.608645 153.564281 
L 99.96842 153.098236 
L 98.741619 152.63219 
L 97.960419 152.166144 
L 97.646747 151.700098 
L 97.811339 151.234053 
L 98.453251 150.768007 
L 99.559838 150.301961 
L 101.107233 149.835915 
L 103.061267 149.369869 
L 105.378793 148.903824 
L 108.009349 148.437778 
L 110.897051 147.971732 
L 113.982624 147.505686 
L 117.205478 147.039641 
L 120.505707 146.573595 
L 123.825934 146.107549 
L 127.112924 145.641503 
L 130.318905 145.175457 
L 133.402558 144.709412 
L 136.329658 144.243366 
L 139.073385 143.77732 
L 141.6143 143.311274 
L 143.940055 142.845228 
L 146.044853 142.379183 
L 147.928741 141.913137 
L 149.596772 141.447091 
L 151.0581 140.981045 
L 152.325062 140.515 
L 153.412285 140.048954 
L 154.335857 139.582908 
L 155.112584 139.116862 
L 155.759361 138.650816 
L 156.29265 138.184771 
L 156.728082 137.718725 
L 157.080164 137.252679 
L 157.362092 136.786633 
L 157.585643 136.320588 
L 157.761153 135.854542 
L 157.897541 135.388496 
L 158.002381 134.92245 
L 158.082003 134.456404 
L 158.141606 133.990359 
L 158.185387 133.524313 
L 158.216659 133.058267 
L 158.237969 132.592221 
L 158.251202 132.126176 
L 158.257675 131.66013 
L 158.258216 131.194084 
L 158.253226 130.728038 
L 158.242737 130.261992 
L 158.226455 129.795947 
L 158.203794 129.329901 
L 158.173911 128.863855 
L 158.13574 128.397809 
L 158.08802 127.931764 
L 158.02934 127.465718 
L 157.958181 126.999672 
L 157.872977 126.533626 
L 157.772179 126.06758 
L 157.654337 125.601535 
L 157.518188 125.135489 
L 157.362753 124.669443 
L 157.187437 124.203397 
L 156.992134 123.737352 
L 156.777323 123.271306 
L 156.544144 122.80526 
L 156.294469 122.339214 
L 156.030933 121.873168 
L 155.756939 121.407123 
L 155.476625 120.941077 
L 155.194786 120.475031 
L 154.916764 120.008985 
L 154.648292 119.54294 
L 154.395306 119.076894 
L 154.163735 118.610848 
L 153.959269 118.144802 
L 153.787136 117.678756 
L 153.651872 117.212711 
L 153.557127 116.746665 
L 153.505503 116.280619 
L 153.498432 115.814573 
L 163.127539 115.814573 
L 163.127539 115.814573 
L 163.120467 116.280619 
L 163.068843 116.746665 
L 162.974099 117.212711 
L 162.838835 117.678756 
L 162.666701 118.144802 
L 162.462236 118.610848 
L 162.230664 119.076894 
L 161.977678 119.54294 
L 161.709206 120.008985 
L 161.431185 120.475031 
L 161.149346 120.941077 
L 160.869031 121.407123 
L 160.595037 121.873168 
L 160.331501 122.339214 
L 160.081826 122.80526 
L 159.848648 123.271306 
L 159.633836 123.737352 
L 159.438534 124.203397 
L 159.263218 124.669443 
L 159.107782 125.135489 
L 158.971633 125.601535 
L 158.853792 126.06758 
L 158.752994 126.533626 
L 158.66779 126.999672 
L 158.596631 127.465718 
L 158.53795 127.931764 
L 158.49023 128.397809 
L 158.452059 128.863855 
L 158.422177 129.329901 
L 158.399516 129.795947 
L 158.383234 130.261992 
L 158.372745 130.728038 
L 158.367755 131.194084 
L 158.368295 131.66013 
L 158.374769 132.126176 
L 158.388002 132.592221 
L 158.409311 133.058267 
L 158.440583 133.524313 
L 158.484364 133.990359 
L 158.543968 134.456404 
L 158.623589 134.92245 
L 158.728429 135.388496 
L 158.864817 135.854542 
L 159.040328 136.320588 
L 159.263879 136.786633 
L 159.545806 137.252679 
L 159.897889 137.718725 
L 160.333321 138.184771 
L 160.86661 138.650816 
L 161.513387 139.116862 
L 162.290114 139.582908 
L 163.213685 140.048954 
L 164.300909 140.515 
L 165.567871 140.981045 
L 167.029199 141.447091 
L 168.697229 141.913137 
L 170.581117 142.379183 
L 172.685915 142.845228 
L 175.01167 143.311274 
L 177.552586 143.77732 
L 180.296312 144.243366 
L 183.223413 144.709412 
L 186.307065 145.175457 
L 189.513046 145.641503 
L 192.800037 146.107549 
L 196.120263 146.573595 
L 199.420492 147.039641 
L 202.643347 147.505686 
L 205.72892 147.971732 
L 208.616621 148.437778 
L 211.247178 148.903824 
L 213.564704 149.369869 
L 215.518737 149.835915 
L 217.066133 150.301961 
L 218.17272 150.768007 
L 218.814631 151.234053 
L 218.979224 151.700098 
L 218.665552 152.166144 
L 217.884351 152.63219 
L 216.65755 153.098236 
L 215.017325 153.564281 
L 213.004761 154.030327 
L 210.668192 154.496373 
L 208.061308 154.962419 
L 205.241139 155.428465 
L 202.266012 155.89451 
L 199.193587 156.360556 
L 196.079056 156.826602 
L 192.973588 157.292648 
L 189.923071 157.758693 
L 186.967178 158.224739 
L 184.138792 158.690785 
L 181.463756 159.156831 
L 178.960946 159.622877 
L 176.642604 160.088922 
L 174.514907 160.554968 
L 172.57869 161.021014 
L 170.83028 161.48706 
L 169.262383 161.953105 
z
" clip-path="url(#p1aaec8364d)" style="fill: #ff7f0e; fill-opacity: 0.7"/>
   </g>
   <g id="PolyCollection_4">
    <path d="M 446.448375 161.730179 
L 355.507505 161.730179 
L 354.160676 161.174993 
L 352.850488 160.619807 
L 351.581905 160.064622 
L 350.35981 159.509436 
L 349.188966 158.95425 
L 348.073987 158.399065 
L 347.01931 157.843879 
L 346.029157 157.288693 
L 345.107511 156.733508 
L 344.258086 156.178322 
L 343.484299 155.623136 
L 342.789246 155.067951 
L 342.175682 154.512765 
L 341.645993 153.957579 
L 341.202186 153.402393 
L 340.845869 152.847208 
L 340.578237 152.292022 
L 340.400065 151.736836 
L 340.311701 151.181651 
L 340.313059 150.626465 
L 340.403618 150.071279 
L 340.582428 149.516094 
L 340.84811 148.960908 
L 341.198866 148.405722 
L 341.632491 147.850537 
L 342.146381 147.295351 
L 342.737555 146.740165 
L 343.402671 146.18498 
L 344.138042 145.629794 
L 344.939666 145.074608 
L 345.803246 144.519423 
L 346.724215 143.964237 
L 347.697767 143.409051 
L 348.718882 142.853866 
L 349.782357 142.29868 
L 350.882839 141.743494 
L 352.01485 141.188309 
L 353.172824 140.633123 
L 354.351134 140.077937 
L 355.544128 139.522752 
L 356.746155 138.967566 
L 357.9516 138.41238 
L 359.154912 137.857195 
L 360.350634 137.302009 
L 361.533434 136.746823 
L 362.698128 136.191638 
L 363.839713 135.636452 
L 364.95339 135.081266 
L 366.034587 134.526081 
L 367.078988 133.970895 
L 368.082547 133.415709 
L 369.041519 132.860524 
L 369.952471 132.305338 
L 370.812304 131.750152 
L 371.618267 131.194966 
L 372.367975 130.639781 
L 373.059417 130.084595 
L 373.690973 129.529409 
L 374.261416 128.974224 
L 374.769924 128.419038 
L 375.216084 127.863852 
L 375.599891 127.308667 
L 375.921753 126.753481 
L 376.182486 126.198295 
L 376.383309 125.64311 
L 376.525837 125.087924 
L 376.612072 124.532738 
L 376.644388 123.977553 
L 376.625519 123.422367 
L 376.558536 122.867181 
L 376.446829 122.311996 
L 376.294085 121.75681 
L 376.104257 121.201624 
L 375.88154 120.646439 
L 375.630339 120.091253 
L 375.355233 119.536067 
L 375.060945 118.980882 
L 374.752304 118.425696 
L 374.434203 117.87051 
L 374.11157 117.315325 
L 373.789317 116.760139 
L 373.472311 116.204953 
L 373.165329 115.649768 
L 372.87302 115.094582 
L 372.599869 114.539396 
L 372.350157 113.984211 
L 372.127934 113.429025 
L 371.936975 112.873839 
L 371.780763 112.318654 
L 371.662451 111.763468 
L 371.584846 111.208282 
L 371.550386 110.653097 
L 371.561121 110.097911 
L 371.618705 109.542725 
L 371.724384 108.987539 
L 371.878994 108.432354 
L 372.082959 107.877168 
L 372.336296 107.321982 
L 372.638621 106.766797 
L 429.317259 106.766797 
L 429.317259 106.766797 
L 429.619585 107.321982 
L 429.872921 107.877168 
L 430.076886 108.432354 
L 430.231496 108.987539 
L 430.337175 109.542725 
L 430.394759 110.097911 
L 430.405494 110.653097 
L 430.371034 111.208282 
L 430.293429 111.763468 
L 430.175117 112.318654 
L 430.018905 112.873839 
L 429.827947 113.429025 
L 429.605723 113.984211 
L 429.356011 114.539396 
L 429.08286 115.094582 
L 428.790551 115.649768 
L 428.483569 116.204953 
L 428.166563 116.760139 
L 427.844311 117.315325 
L 427.521677 117.87051 
L 427.203577 118.425696 
L 426.894935 118.980882 
L 426.600647 119.536067 
L 426.325541 120.091253 
L 426.07434 120.646439 
L 425.851623 121.201624 
L 425.661795 121.75681 
L 425.509051 122.311996 
L 425.397344 122.867181 
L 425.330361 123.422367 
L 425.311492 123.977553 
L 425.343808 124.532738 
L 425.430043 125.087924 
L 425.572571 125.64311 
L 425.773394 126.198295 
L 426.034127 126.753481 
L 426.355989 127.308667 
L 426.739796 127.863852 
L 427.185956 128.419038 
L 427.694464 128.974224 
L 428.264907 129.529409 
L 428.896463 130.084595 
L 429.587905 130.639781 
L 430.337613 131.194966 
L 431.143576 131.750152 
L 432.003409 132.305338 
L 432.914361 132.860524 
L 433.873333 133.415709 
L 434.876893 133.970895 
L 435.921293 134.526081 
L 437.00249 135.081266 
L 438.116167 135.636452 
L 439.257752 136.191638 
L 440.422446 136.746823 
L 441.605246 137.302009 
L 442.800968 137.857195 
L 444.00428 138.41238 
L 445.209725 138.967566 
L 446.411752 139.522752 
L 447.604746 140.077937 
L 448.783057 140.633123 
L 449.94103 141.188309 
L 451.073041 141.743494 
L 452.173523 142.29868 
L 453.236998 142.853866 
L 454.258113 143.409051 
L 455.231665 143.964237 
L 456.152634 144.519423 
L 457.016214 145.074608 
L 457.817838 145.629794 
L 458.55321 146.18498 
L 459.218325 146.740165 
L 459.809499 147.295351 
L 460.32339 147.850537 
L 460.757014 148.405722 
L 461.10777 148.960908 
L 461.373452 149.516094 
L 461.552262 150.071279 
L 461.642821 150.626465 
L 461.644179 151.181651 
L 461.555815 151.736836 
L 461.377643 152.292022 
L 461.110012 152.847208 
L 460.753694 153.402393 
L 460.309887 153.957579 
L 459.780199 154.512765 
L 459.166634 155.067951 
L 458.471581 155.623136 
L 457.697794 156.178322 
L 456.848369 156.733508 
L 455.926723 157.288693 
L 454.93657 157.843879 
L 453.881893 158.399065 
L 452.766915 158.95425 
L 451.59607 159.509436 
L 450.373975 160.064622 
L 449.105392 160.619807 
L 447.795204 161.174993 
L 446.448375 161.730179 
z
" clip-path="url(#p1aaec8364d)" style="fill: #ff7f0e; fill-opacity: 0.7"/>
   </g>
   <g id="LineCollection_1">
    <path d="M 127.979866 343.0887 
L 188.646105 343.0887 
" clip-path="url(#p1aaec8364d)" style="fill: none; stroke: #1f77b4; stroke-width: 1.5"/>
    <path d="M 370.644821 343.255165 
L 431.311059 343.255165 
" clip-path="url(#p1aaec8364d)" style="fill: none; stroke: #1f77b4; stroke-width: 1.5"/>
   </g>
   <g id="LineCollection_2">
    <path d="M 127.979866 342.845158 
L 188.646105 342.845158 
" clip-path="url(#p1aaec8364d)" style="fill: none; stroke: #1f77b4; stroke-width: 1.5"/>
    <path d="M 370.644821 343.002938 
L 431.311059 343.002938 
" clip-path="url(#p1aaec8364d)" style="fill: none; stroke: #1f77b4; stroke-width: 1.5"/>
   </g>
   <g id="LineCollection_3">
    <path d="M 127.979866 343.470323 
L 188.646105 343.470323 
" clip-path="url(#p1aaec8364d)" style="fill: none; stroke: #1f77b4; stroke-width: 1.5"/>
    <path d="M 370.644821 343.608982 
L 431.311059 343.608982 
" clip-path="url(#p1aaec8364d)" style="fill: none; stroke: #1f77b4; stroke-width: 1.5"/>
   </g>
   <g id="LineCollection_4">
    <path d="M 158.312985 343.470323 
L 158.312985 342.845158 
" clip-path="url(#p1aaec8364d)" style="fill: none; stroke: #1f77b4; stroke-width: 1.5"/>
    <path d="M 400.97794 343.608982 
L 400.97794 343.002938 
" clip-path="url(#p1aaec8364d)" style="fill: none; stroke: #1f77b4; stroke-width: 1.5"/>
   </g>
   <g id="LineCollection_5">
    <path d="M 127.979866 149.616412 
L 188.646105 149.616412 
" clip-path="url(#p1aaec8364d)" style="fill: none; stroke: #ff7f0e; stroke-width: 1.5"/>
    <path d="M 370.644821 138.765283 
L 431.311059 138.765283 
" clip-path="url(#p1aaec8364d)" style="fill: none; stroke: #ff7f0e; stroke-width: 1.5"/>
   </g>
   <g id="LineCollection_6">
    <path d="M 127.979866 115.814573 
L 188.646105 115.814573 
" clip-path="url(#p1aaec8364d)" style="fill: none; stroke: #ff7f0e; stroke-width: 1.5"/>
    <path d="M 370.644821 106.766797 
L 431.311059 106.766797 
" clip-path="url(#p1aaec8364d)" style="fill: none; stroke: #ff7f0e; stroke-width: 1.5"/>
   </g>
   <g id="LineCollection_7">
    <path d="M 127.979866 161.953105 
L 188.646105 161.953105 
" clip-path="url(#p1aaec8364d)" style="fill: none; stroke: #ff7f0e; stroke-width: 1.5"/>
    <path d="M 370.644821 161.730179 
L 431.311059 161.730179 
" clip-path="url(#p1aaec8364d)" style="fill: none; stroke: #ff7f0e; stroke-width: 1.5"/>
   </g>
   <g id="LineCollection_8">
    <path d="M 158.312985 161.953105 
L 158.312985 115.814573 
" clip-path="url(#p1aaec8364d)" style="fill: none; stroke: #ff7f0e; stroke-width: 1.5"/>
    <path d="M 400.97794 161.730179 
L 400.97794 106.766797 
" clip-path="url(#p1aaec8364d)" style="fill: none; stroke: #ff7f0e; stroke-width: 1.5"/>
   </g>
   <g id="patch_3">
    <path d="M 79.446875 355.451092 
L 79.446875 94.924688 
" style="fill: none; stroke: #808080; stroke-width: 0.8; stroke-linejoin: miter; stroke-linecap: square"/>
   </g>
   <g id="patch_4">
    <path d="M 79.446875 355.451092 
L 479.84405 355.451092 
" style="fill: none; stroke: #808080; stroke-width: 0.8; stroke-linejoin: miter; stroke-linecap: square"/>
   </g>
   <g id="text_7">
    <text style="font: 22px 'PingFang SC', 'Heiti SC', 'STHeiti', 'Calibri', 'Arial', 'Helvetica Neue', 'Arial Unicode MS', 'Noto Sans CJK SC', 'DejaVu Sans', sans-serif; text-anchor: middle" x="279.645463" y="88.924688" transform="rotate(-0 279.645463 88.924688)">world=16 · 16 MB</text>
   </g>
  </g>
  <g id="axes_2">
   <g id="patch_5">
    <path d="M 573.726875 355.451092 
L 974.12405 355.451092 
L 974.12405 94.924688 
L 573.726875 94.924688 
z
" style="fill: #ffffff"/>
   </g>
   <g id="matplotlib.axis_3">
    <g id="xtick_3">
     <g id="line2d_9">
      <g>
       <use xlink:href="#m6fd86298ff" x="652.592985" y="355.451092" style="fill: #808080; stroke: #808080; stroke-width: 0.8"/>
      </g>
     </g>
     <g id="text_8">
      <text style="fill: #808080; font: 22px 'PingFang SC', 'Heiti SC', 'STHeiti', 'Calibri', 'Arial', 'Helvetica Neue', 'Arial Unicode MS', 'Noto Sans CJK SC', 'DejaVu Sans', sans-serif" transform="translate(514.352704 429.435326) rotate(-20)">星型(经 rank0)</text>
     </g>
    </g>
    <g id="xtick_4">
     <g id="line2d_10">
      <g>
       <use xlink:href="#m6fd86298ff" x="895.25794" y="355.451092" style="fill: #808080; stroke: #808080; stroke-width: 0.8"/>
      </g>
     </g>
     <g id="text_9">
      <text style="fill: #808080; font: 22px 'PingFang SC', 'Heiti SC', 'STHeiti', 'Calibri', 'Arial', 'Helvetica Neue', 'Arial Unicode MS', 'Noto Sans CJK SC', 'DejaVu Sans', sans-serif" transform="translate(832.229481 401.479026) rotate(-20)">环相邻</text>
     </g>
    </g>
   </g>
   <g id="matplotlib.axis_4">
    <g id="ytick_4">
     <g id="line2d_11">
      <path d="M 573.726875 343.935666 
L 974.12405 343.935666 
" clip-path="url(#p493e0a7a2f)" style="fill: none; stroke-dasharray: 1,1.65; stroke-dashoffset: 0; stroke: #808080; stroke-opacity: 0.55"/>
     </g>
     <g id="line2d_12">
      <g>
       <use xlink:href="#me0eef73185" x="573.726875" y="343.935666" style="fill: #808080; stroke: #808080; stroke-width: 0.8"/>
      </g>
     </g>
     <g id="text_10">
      <text style="fill: #808080; font: 22px 'PingFang SC', 'Heiti SC', 'STHeiti', 'Calibri', 'Arial', 'Helvetica Neue', 'Arial Unicode MS', 'Noto Sans CJK SC', 'DejaVu Sans', sans-serif; text-anchor: end" x="566.726875" y="352.690978" transform="rotate(-0 566.726875 352.690978)">0</text>
     </g>
    </g>
    <g id="ytick_5">
     <g id="line2d_13">
      <path d="M 573.726875 245.854079 
L 974.12405 245.854079 
" clip-path="url(#p493e0a7a2f)" style="fill: none; stroke-dasharray: 1,1.65; stroke-dashoffset: 0; stroke: #808080; stroke-opacity: 0.55"/>
     </g>
     <g id="line2d_14">
      <g>
       <use xlink:href="#me0eef73185" x="573.726875" y="245.854079" style="fill: #808080; stroke: #808080; stroke-width: 0.8"/>
      </g>
     </g>
     <g id="text_11">
      <text style="fill: #808080; font: 22px 'PingFang SC', 'Heiti SC', 'STHeiti', 'Calibri', 'Arial', 'Helvetica Neue', 'Arial Unicode MS', 'Noto Sans CJK SC', 'DejaVu Sans', sans-serif; text-anchor: end" x="566.726875" y="254.609391" transform="rotate(-0 566.726875 254.609391)">50</text>
     </g>
    </g>
    <g id="ytick_6">
     <g id="line2d_15">
      <path d="M 573.726875 147.772491 
L 974.12405 147.772491 
" clip-path="url(#p493e0a7a2f)" style="fill: none; stroke-dasharray: 1,1.65; stroke-dashoffset: 0; stroke: #808080; stroke-opacity: 0.55"/>
     </g>
     <g id="line2d_16">
      <g>
       <use xlink:href="#me0eef73185" x="573.726875" y="147.772491" style="fill: #808080; stroke: #808080; stroke-width: 0.8"/>
      </g>
     </g>
     <g id="text_12">
      <text style="fill: #808080; font: 22px 'PingFang SC', 'Heiti SC', 'STHeiti', 'Calibri', 'Arial', 'Helvetica Neue', 'Arial Unicode MS', 'Noto Sans CJK SC', 'DejaVu Sans', sans-serif; text-anchor: end" x="566.726875" y="156.527804" transform="rotate(-0 566.726875 156.527804)">100</text>
     </g>
    </g>
    <g id="text_13">
     <text style="font: 22px 'PingFang SC', 'Heiti SC', 'STHeiti', 'Calibri', 'Arial', 'Helvetica Neue', 'Arial Unicode MS', 'Noto Sans CJK SC', 'DejaVu Sans', sans-serif; text-anchor: middle" x="523.209375" y="225.18789" transform="rotate(-90 523.209375 225.18789)">带宽 (GB/s)</text>
    </g>
   </g>
   <g id="PolyCollection_5">
    <path d="M 706.05605 343.202755 
L 599.12992 343.202755 
L 598.832552 343.201457 
L 598.541594 343.200159 
L 598.257069 343.198861 
L 597.978996 343.197563 
L 597.707388 343.196265 
L 597.442257 343.194966 
L 597.183609 343.193668 
L 596.931449 343.19237 
L 596.685774 343.191072 
L 596.446582 343.189774 
L 596.213866 343.188476 
L 595.987616 343.187177 
L 595.767819 343.185879 
L 595.554459 343.184581 
L 595.347519 343.183283 
L 595.146978 343.181985 
L 594.952813 343.180687 
L 594.765 343.179389 
L 594.583513 343.17809 
L 594.408324 343.176792 
L 594.239402 343.175494 
L 594.076719 343.174196 
L 593.920242 343.172898 
L 593.769938 343.1716 
L 593.625775 343.170301 
L 593.487718 343.169003 
L 593.355734 343.167705 
L 593.229789 343.166407 
L 593.109848 343.165109 
L 592.995878 343.163811 
L 592.887846 343.162512 
L 592.785718 343.161214 
L 592.689463 343.159916 
L 592.599048 343.158618 
L 592.514445 343.15732 
L 592.435624 343.156022 
L 592.362557 343.154724 
L 592.295218 343.153425 
L 592.233582 343.152127 
L 592.177626 343.150829 
L 592.127329 343.149531 
L 592.082671 343.148233 
L 592.043634 343.146935 
L 592.010204 343.145636 
L 591.982366 343.144338 
L 591.960109 343.14304 
L 591.943424 343.141742 
L 591.932305 343.140444 
L 591.926747 343.139146 
L 591.926747 343.137848 
L 591.932305 343.136549 
L 591.943424 343.135251 
L 591.960109 343.133953 
L 591.982366 343.132655 
L 592.010204 343.131357 
L 592.043634 343.130059 
L 592.082671 343.12876 
L 592.127329 343.127462 
L 592.177626 343.126164 
L 592.233582 343.124866 
L 592.295218 343.123568 
L 592.362557 343.12227 
L 592.435624 343.120971 
L 592.514445 343.119673 
L 592.599048 343.118375 
L 592.689463 343.117077 
L 592.785718 343.115779 
L 592.887846 343.114481 
L 592.995878 343.113183 
L 593.109848 343.111884 
L 593.229789 343.110586 
L 593.355734 343.109288 
L 593.487718 343.10799 
L 593.625775 343.106692 
L 593.769938 343.105394 
L 593.920242 343.104095 
L 594.076719 343.102797 
L 594.239402 343.101499 
L 594.408324 343.100201 
L 594.583513 343.098903 
L 594.765 343.097605 
L 594.952813 343.096307 
L 595.146978 343.095008 
L 595.347519 343.09371 
L 595.554459 343.092412 
L 595.767819 343.091114 
L 595.987616 343.089816 
L 596.213866 343.088518 
L 596.446582 343.087219 
L 596.685774 343.085921 
L 596.931449 343.084623 
L 597.183609 343.083325 
L 597.442257 343.082027 
L 597.707388 343.080729 
L 597.978996 343.079431 
L 598.257069 343.078132 
L 598.541594 343.076834 
L 598.832552 343.075536 
L 599.12992 343.074238 
L 706.05605 343.074238 
L 706.05605 343.074238 
L 706.353418 343.075536 
L 706.644376 343.076834 
L 706.928901 343.078132 
L 707.206975 343.079431 
L 707.478583 343.080729 
L 707.743714 343.082027 
L 708.002361 343.083325 
L 708.254522 343.084623 
L 708.500196 343.085921 
L 708.739388 343.087219 
L 708.972104 343.088518 
L 709.198355 343.089816 
L 709.418152 343.091114 
L 709.631512 343.092412 
L 709.838452 343.09371 
L 710.038993 343.095008 
L 710.233158 343.096307 
L 710.420971 343.097605 
L 710.602458 343.098903 
L 710.777647 343.100201 
L 710.946568 343.101499 
L 711.109252 343.102797 
L 711.265729 343.104095 
L 711.416033 343.105394 
L 711.560196 343.106692 
L 711.698253 343.10799 
L 711.830237 343.109288 
L 711.956182 343.110586 
L 712.076123 343.111884 
L 712.190093 343.113183 
L 712.298125 343.114481 
L 712.400253 343.115779 
L 712.496508 343.117077 
L 712.586922 343.118375 
L 712.671525 343.119673 
L 712.750346 343.120971 
L 712.823413 343.12227 
L 712.890752 343.123568 
L 712.952388 343.124866 
L 713.008344 343.126164 
L 713.058641 343.127462 
L 713.1033 343.12876 
L 713.142336 343.130059 
L 713.175767 343.131357 
L 713.203605 343.132655 
L 713.225862 343.133953 
L 713.242546 343.135251 
L 713.253666 343.136549 
L 713.259224 343.137848 
L 713.259224 343.139146 
L 713.253666 343.140444 
L 713.242546 343.141742 
L 713.225862 343.14304 
L 713.203605 343.144338 
L 713.175767 343.145636 
L 713.142336 343.146935 
L 713.1033 343.148233 
L 713.058641 343.149531 
L 713.008344 343.150829 
L 712.952388 343.152127 
L 712.890752 343.153425 
L 712.823413 343.154724 
L 712.750346 343.156022 
L 712.671525 343.15732 
L 712.586922 343.158618 
L 712.496508 343.159916 
L 712.400253 343.161214 
L 712.298125 343.162512 
L 712.190093 343.163811 
L 712.076123 343.165109 
L 711.956182 343.166407 
L 711.830237 343.167705 
L 711.698253 343.169003 
L 711.560196 343.170301 
L 711.416033 343.1716 
L 711.265729 343.172898 
L 711.109252 343.174196 
L 710.946568 343.175494 
L 710.777647 343.176792 
L 710.602458 343.17809 
L 710.420971 343.179389 
L 710.233158 343.180687 
L 710.038993 343.181985 
L 709.838452 343.183283 
L 709.631512 343.184581 
L 709.418152 343.185879 
L 709.198355 343.187177 
L 708.972104 343.188476 
L 708.739388 343.189774 
L 708.500196 343.191072 
L 708.254522 343.19237 
L 708.002361 343.193668 
L 707.743714 343.194966 
L 707.478583 343.196265 
L 707.206975 343.197563 
L 706.928901 343.198861 
L 706.644376 343.200159 
L 706.353418 343.201457 
L 706.05605 343.202755 
z
" clip-path="url(#p493e0a7a2f)" style="fill: #1f77b4; fill-opacity: 0.7"/>
   </g>
   <g id="PolyCollection_6">
    <path d="M 920.357771 343.608982 
L 870.158109 343.608982 
L 868.97736 343.603581 
L 867.784174 343.598179 
L 866.580093 343.592778 
L 865.36666 343.587376 
L 864.145429 343.581974 
L 862.91798 343.576573 
L 861.685939 343.571171 
L 860.450991 343.565769 
L 859.214896 343.560368 
L 857.979509 343.554966 
L 856.746788 343.549564 
L 855.518809 343.544163 
L 854.297774 343.538761 
L 853.086018 343.53336 
L 851.886007 343.527958 
L 850.700345 343.522556 
L 849.531764 343.517155 
L 848.383122 343.511753 
L 847.257392 343.506351 
L 846.157653 343.50095 
L 845.087077 343.495548 
L 844.048916 343.490147 
L 843.046489 343.484745 
L 842.083167 343.479343 
L 841.162361 343.473942 
L 840.287504 343.46854 
L 839.462042 343.463138 
L 838.689416 343.457737 
L 837.973052 343.452335 
L 837.31634 343.446934 
L 836.722624 343.441532 
L 836.195181 343.43613 
L 835.737202 343.430729 
L 835.351768 343.425327 
L 835.041824 343.419925 
L 834.810149 343.414524 
L 834.659326 343.409122 
L 834.591701 343.403721 
L 834.609345 343.398319 
L 834.714009 343.392917 
L 834.907081 343.387516 
L 835.189539 343.382114 
L 835.561905 343.376712 
L 836.024199 343.371311 
L 836.575897 343.365909 
L 837.215895 343.360507 
L 837.942475 343.355106 
L 838.753282 343.349704 
L 839.645307 343.344303 
L 840.614881 343.338901 
L 841.657678 343.333499 
L 842.768733 343.328098 
L 843.942469 343.322696 
L 845.172735 343.317294 
L 846.45286 343.311893 
L 847.775711 343.306491 
L 849.133767 343.30109 
L 850.519199 343.295688 
L 851.923959 343.290286 
L 853.339873 343.284885 
L 854.75874 343.279483 
L 856.17243 343.274081 
L 857.572985 343.26868 
L 858.952722 343.263278 
L 860.30432 343.257877 
L 861.620919 343.252475 
L 862.896195 343.247073 
L 864.124444 343.241672 
L 865.300638 343.23627 
L 866.420489 343.230868 
L 867.480487 343.225467 
L 868.477935 343.220065 
L 869.410968 343.214664 
L 870.278559 343.209262 
L 871.080516 343.20386 
L 871.817465 343.198459 
L 872.490816 343.193057 
L 873.102731 343.187655 
L 873.656064 343.182254 
L 874.154309 343.176852 
L 874.601525 343.171451 
L 875.002263 343.166049 
L 875.361484 343.160647 
L 875.684468 343.155246 
L 875.97673 343.149844 
L 876.243923 343.144442 
L 876.491745 343.139041 
L 876.725852 343.133639 
L 876.951766 343.128237 
L 877.174793 343.122836 
L 877.399943 343.117434 
L 877.63186 343.112033 
L 877.874756 343.106631 
L 878.132363 343.101229 
L 878.407881 343.095828 
L 878.703951 343.090426 
L 879.022629 343.085024 
L 879.365377 343.079623 
L 879.733065 343.074221 
L 910.782815 343.074221 
L 910.782815 343.074221 
L 911.150503 343.079623 
L 911.493251 343.085024 
L 911.811929 343.090426 
L 912.107999 343.095828 
L 912.383517 343.101229 
L 912.641124 343.106631 
L 912.884021 343.112033 
L 913.115937 343.117434 
L 913.341087 343.122836 
L 913.564114 343.128237 
L 913.790028 343.133639 
L 914.024135 343.139041 
L 914.271957 343.144442 
L 914.53915 343.149844 
L 914.831412 343.155246 
L 915.154397 343.160647 
L 915.513617 343.166049 
L 915.914355 343.171451 
L 916.361571 343.176852 
L 916.859816 343.182254 
L 917.413149 343.187655 
L 918.025064 343.193057 
L 918.698415 343.198459 
L 919.435364 343.20386 
L 920.237321 343.209262 
L 921.104912 343.214664 
L 922.037945 343.220065 
L 923.035393 343.225467 
L 924.095391 343.230868 
L 925.215242 343.23627 
L 926.391436 343.241672 
L 927.619685 343.247073 
L 928.894961 343.252475 
L 930.21156 343.257877 
L 931.563158 343.263278 
L 932.942895 343.26868 
L 934.343451 343.274081 
L 935.75714 343.279483 
L 937.176007 343.284885 
L 938.591921 343.290286 
L 939.996681 343.295688 
L 941.382113 343.30109 
L 942.740169 343.306491 
L 944.06302 343.311893 
L 945.343145 343.317294 
L 946.573411 343.322696 
L 947.747147 343.328098 
L 948.858203 343.333499 
L 949.900999 343.338901 
L 950.870573 343.344303 
L 951.762598 343.349704 
L 952.573405 343.355106 
L 953.299985 343.360507 
L 953.939983 343.365909 
L 954.491681 343.371311 
L 954.953975 343.376712 
L 955.326341 343.382114 
L 955.608799 343.387516 
L 955.801871 343.392917 
L 955.906535 343.398319 
L 955.924179 343.403721 
L 955.856554 343.409122 
L 955.705731 343.414524 
L 955.474057 343.419925 
L 955.164112 343.425327 
L 954.778678 343.430729 
L 954.320699 343.43613 
L 953.793256 343.441532 
L 953.19954 343.446934 
L 952.542828 343.452335 
L 951.826464 343.457737 
L 951.053838 343.463138 
L 950.228376 343.46854 
L 949.353519 343.473942 
L 948.432713 343.479343 
L 947.469391 343.484745 
L 946.466964 343.490147 
L 945.428803 343.495548 
L 944.358227 343.50095 
L 943.258488 343.506351 
L 942.132758 343.511753 
L 940.984116 343.517155 
L 939.815535 343.522556 
L 938.629873 343.527958 
L 937.429863 343.53336 
L 936.218106 343.538761 
L 934.997071 343.544163 
L 933.769092 343.549564 
L 932.536371 343.554966 
L 931.300984 343.560368 
L 930.064889 343.565769 
L 928.829941 343.571171 
L 927.5979 343.576573 
L 926.370451 343.581974 
L 925.14922 343.587376 
L 923.935787 343.592778 
L 922.731706 343.598179 
L 921.53852 343.603581 
L 920.357771 343.608982 
z
" clip-path="url(#p493e0a7a2f)" style="fill: #1f77b4; fill-opacity: 0.7"/>
   </g>
   <g id="PolyCollection_7">
    <path d="M 706.05605 149.834584 
L 599.12992 149.834584 
L 598.832552 149.530003 
L 598.541594 149.225421 
L 598.257069 148.92084 
L 597.978996 148.616259 
L 597.707388 148.311678 
L 597.442257 148.007097 
L 597.183609 147.702516 
L 596.931449 147.397935 
L 596.685774 147.093353 
L 596.446582 146.788772 
L 596.213866 146.484191 
L 595.987616 146.17961 
L 595.767819 145.875029 
L 595.554459 145.570448 
L 595.347519 145.265867 
L 595.146978 144.961286 
L 594.952813 144.656704 
L 594.765 144.352123 
L 594.583513 144.047542 
L 594.408324 143.742961 
L 594.239402 143.43838 
L 594.076719 143.133799 
L 593.920242 142.829218 
L 593.769938 142.524637 
L 593.625775 142.220055 
L 593.487718 141.915474 
L 593.355734 141.610893 
L 593.229789 141.306312 
L 593.109848 141.001731 
L 592.995878 140.69715 
L 592.887846 140.392569 
L 592.785718 140.087988 
L 592.689463 139.783406 
L 592.599048 139.478825 
L 592.514445 139.174244 
L 592.435624 138.869663 
L 592.362557 138.565082 
L 592.295218 138.260501 
L 592.233582 137.95592 
L 592.177626 137.651338 
L 592.127329 137.346757 
L 592.082671 137.042176 
L 592.043634 136.737595 
L 592.010204 136.433014 
L 591.982366 136.128433 
L 591.960109 135.823852 
L 591.943424 135.519271 
L 591.932305 135.214689 
L 591.926747 134.910108 
L 591.926747 134.605527 
L 591.932305 134.300946 
L 591.943424 133.996365 
L 591.960109 133.691784 
L 591.982366 133.387203 
L 592.010204 133.082622 
L 592.043634 132.77804 
L 592.082671 132.473459 
L 592.127329 132.168878 
L 592.177626 131.864297 
L 592.233582 131.559716 
L 592.295218 131.255135 
L 592.362557 130.950554 
L 592.435624 130.645972 
L 592.514445 130.341391 
L 592.599048 130.03681 
L 592.689463 129.732229 
L 592.785718 129.427648 
L 592.887846 129.123067 
L 592.995878 128.818486 
L 593.109848 128.513905 
L 593.229789 128.209323 
L 593.355734 127.904742 
L 593.487718 127.600161 
L 593.625775 127.29558 
L 593.769938 126.990999 
L 593.920242 126.686418 
L 594.076719 126.381837 
L 594.239402 126.077256 
L 594.408324 125.772674 
L 594.583513 125.468093 
L 594.765 125.163512 
L 594.952813 124.858931 
L 595.146978 124.55435 
L 595.347519 124.249769 
L 595.554459 123.945188 
L 595.767819 123.640606 
L 595.987616 123.336025 
L 596.213866 123.031444 
L 596.446582 122.726863 
L 596.685774 122.422282 
L 596.931449 122.117701 
L 597.183609 121.81312 
L 597.442257 121.508539 
L 597.707388 121.203957 
L 597.978996 120.899376 
L 598.257069 120.594795 
L 598.541594 120.290214 
L 598.832552 119.985633 
L 599.12992 119.681052 
L 706.05605 119.681052 
L 706.05605 119.681052 
L 706.353418 119.985633 
L 706.644376 120.290214 
L 706.928901 120.594795 
L 707.206975 120.899376 
L 707.478583 121.203957 
L 707.743714 121.508539 
L 708.002361 121.81312 
L 708.254522 122.117701 
L 708.500196 122.422282 
L 708.739388 122.726863 
L 708.972104 123.031444 
L 709.198355 123.336025 
L 709.418152 123.640606 
L 709.631512 123.945188 
L 709.838452 124.249769 
L 710.038993 124.55435 
L 710.233158 124.858931 
L 710.420971 125.163512 
L 710.602458 125.468093 
L 710.777647 125.772674 
L 710.946568 126.077256 
L 711.109252 126.381837 
L 711.265729 126.686418 
L 711.416033 126.990999 
L 711.560196 127.29558 
L 711.698253 127.600161 
L 711.830237 127.904742 
L 711.956182 128.209323 
L 712.076123 128.513905 
L 712.190093 128.818486 
L 712.298125 129.123067 
L 712.400253 129.427648 
L 712.496508 129.732229 
L 712.586922 130.03681 
L 712.671525 130.341391 
L 712.750346 130.645972 
L 712.823413 130.950554 
L 712.890752 131.255135 
L 712.952388 131.559716 
L 713.008344 131.864297 
L 713.058641 132.168878 
L 713.1033 132.473459 
L 713.142336 132.77804 
L 713.175767 133.082622 
L 713.203605 133.387203 
L 713.225862 133.691784 
L 713.242546 133.996365 
L 713.253666 134.300946 
L 713.259224 134.605527 
L 713.259224 134.910108 
L 713.253666 135.214689 
L 713.242546 135.519271 
L 713.225862 135.823852 
L 713.203605 136.128433 
L 713.175767 136.433014 
L 713.142336 136.737595 
L 713.1033 137.042176 
L 713.058641 137.346757 
L 713.008344 137.651338 
L 712.952388 137.95592 
L 712.890752 138.260501 
L 712.823413 138.565082 
L 712.750346 138.869663 
L 712.671525 139.174244 
L 712.586922 139.478825 
L 712.496508 139.783406 
L 712.400253 140.087988 
L 712.298125 140.392569 
L 712.190093 140.69715 
L 712.076123 141.001731 
L 711.956182 141.306312 
L 711.830237 141.610893 
L 711.698253 141.915474 
L 711.560196 142.220055 
L 711.416033 142.524637 
L 711.265729 142.829218 
L 711.109252 143.133799 
L 710.946568 143.43838 
L 710.777647 143.742961 
L 710.602458 144.047542 
L 710.420971 144.352123 
L 710.233158 144.656704 
L 710.038993 144.961286 
L 709.838452 145.265867 
L 709.631512 145.570448 
L 709.418152 145.875029 
L 709.198355 146.17961 
L 708.972104 146.484191 
L 708.739388 146.788772 
L 708.500196 147.093353 
L 708.254522 147.397935 
L 708.002361 147.702516 
L 707.743714 148.007097 
L 707.478583 148.311678 
L 707.206975 148.616259 
L 706.928901 148.92084 
L 706.644376 149.225421 
L 706.353418 149.530003 
L 706.05605 149.834584 
z
" clip-path="url(#p493e0a7a2f)" style="fill: #ff7f0e; fill-opacity: 0.7"/>
   </g>
   <g id="PolyCollection_8">
    <path d="M 947.356831 157.017854 
L 843.159049 157.017854 
L 842.031448 156.510268 
L 840.967967 156.002682 
L 839.973339 155.495095 
L 839.052026 154.987509 
L 838.208186 154.479922 
L 837.445631 153.972336 
L 836.7678 153.464749 
L 836.177722 152.957163 
L 835.677991 152.449576 
L 835.270735 151.94199 
L 834.957599 151.434404 
L 834.739724 150.926817 
L 834.617728 150.419231 
L 834.591701 149.911644 
L 834.661193 149.404058 
L 834.825211 148.896471 
L 835.082223 148.388885 
L 835.430161 147.881298 
L 835.866433 147.373712 
L 836.38793 146.866126 
L 836.991054 146.358539 
L 837.671729 145.850953 
L 838.425433 145.343366 
L 839.247222 144.83578 
L 840.131765 144.328193 
L 841.073375 143.820607 
L 842.066047 143.313021 
L 843.103497 142.805434 
L 844.179202 142.297848 
L 845.286443 141.790261 
L 846.418346 141.282675 
L 847.567929 140.775088 
L 848.728143 140.267502 
L 849.891919 139.759915 
L 851.052212 139.252329 
L 852.202041 138.744743 
L 853.334535 138.237156 
L 854.442974 137.72957 
L 855.52083 137.221983 
L 856.561801 136.714397 
L 857.559853 136.20681 
L 858.509252 135.699224 
L 859.404596 135.191637 
L 860.240847 134.684051 
L 861.013357 134.176465 
L 861.717893 133.668878 
L 862.350663 133.161292 
L 862.908333 132.653705 
L 863.388042 132.146119 
L 863.787424 131.638532 
L 864.104612 131.130946 
L 864.338251 130.623359 
L 864.487505 130.115773 
L 864.552057 129.608187 
L 864.532113 129.1006 
L 864.428399 128.593014 
L 864.242155 128.085427 
L 863.975129 127.577841 
L 863.629565 127.070254 
L 863.208192 126.562668 
L 862.714208 126.055082 
L 862.151258 125.547495 
L 861.52342 125.039909 
L 860.835175 124.532322 
L 860.091385 124.024736 
L 859.297264 123.517149 
L 858.458347 123.009563 
L 857.580457 122.501976 
L 856.669673 121.99439 
L 855.732288 121.486804 
L 854.774779 120.979217 
L 853.80376 120.471631 
L 852.825945 119.964044 
L 851.848105 119.456458 
L 850.877026 118.948871 
L 849.919466 118.441285 
L 848.982112 117.933698 
L 848.071535 117.426112 
L 847.194152 116.918526 
L 846.35618 116.410939 
L 845.563597 115.903353 
L 844.822102 115.395766 
L 844.137083 114.88818 
L 843.513574 114.380593 
L 842.95623 113.873007 
L 842.469291 113.365421 
L 842.056563 112.857834 
L 841.721386 112.350248 
L 841.466622 111.842661 
L 841.294635 111.335075 
L 841.207281 110.827488 
L 841.205899 110.319902 
L 841.291307 109.812315 
L 841.463804 109.304729 
L 841.723173 108.797143 
L 842.068691 108.289556 
L 842.499139 107.78197 
L 843.012821 107.274383 
L 843.607585 106.766797 
L 946.908295 106.766797 
L 946.908295 106.766797 
L 947.503059 107.274383 
L 948.016741 107.78197 
L 948.44719 108.289556 
L 948.792707 108.797143 
L 949.052076 109.304729 
L 949.224573 109.812315 
L 949.309981 110.319902 
L 949.308599 110.827488 
L 949.221245 111.335075 
L 949.049258 111.842661 
L 948.794494 112.350248 
L 948.459317 112.857834 
L 948.046589 113.365421 
L 947.55965 113.873007 
L 947.002306 114.380593 
L 946.378797 114.88818 
L 945.693778 115.395766 
L 944.952283 115.903353 
L 944.1597 116.410939 
L 943.321728 116.918526 
L 942.444345 117.426112 
L 941.533768 117.933698 
L 940.596414 118.441285 
L 939.638854 118.948871 
L 938.667776 119.456458 
L 937.689935 119.964044 
L 936.71212 120.471631 
L 935.741101 120.979217 
L 934.783592 121.486804 
L 933.846208 121.99439 
L 932.935423 122.501976 
L 932.057533 123.009563 
L 931.218616 123.517149 
L 930.424495 124.024736 
L 929.680705 124.532322 
L 928.99246 125.039909 
L 928.364622 125.547495 
L 927.801673 126.055082 
L 927.307688 126.562668 
L 926.886315 127.070254 
L 926.540751 127.577841 
L 926.273725 128.085427 
L 926.087481 128.593014 
L 925.983767 129.1006 
L 925.963823 129.608187 
L 926.028375 130.115773 
L 926.177629 130.623359 
L 926.411268 131.130946 
L 926.728456 131.638532 
L 927.127838 132.146119 
L 927.607547 132.653705 
L 928.165217 133.161292 
L 928.797987 133.668878 
L 929.502523 134.176465 
L 930.275033 134.684051 
L 931.111284 135.191637 
L 932.006628 135.699224 
L 932.956027 136.20681 
L 933.954079 136.714397 
L 934.99505 137.221983 
L 936.072906 137.72957 
L 937.181345 138.237156 
L 938.31384 138.744743 
L 939.463668 139.252329 
L 940.623961 139.759915 
L 941.787737 140.267502 
L 942.947951 140.775088 
L 944.097534 141.282675 
L 945.229437 141.790261 
L 946.336678 142.297848 
L 947.412383 142.805434 
L 948.449833 143.313021 
L 949.442505 143.820607 
L 950.384115 144.328193 
L 951.268658 144.83578 
L 952.090447 145.343366 
L 952.844151 145.850953 
L 953.524826 146.358539 
L 954.12795 146.866126 
L 954.649447 147.373712 
L 955.085719 147.881298 
L 955.433657 148.388885 
L 955.690669 148.896471 
L 955.854687 149.404058 
L 955.924179 149.911644 
L 955.898152 150.419231 
L 955.776156 150.926817 
L 955.558281 151.434404 
L 955.245145 151.94199 
L 954.83789 152.449576 
L 954.338158 152.957163 
L 953.74808 153.464749 
L 953.070249 153.972336 
L 952.307694 154.479922 
L 951.463854 154.987509 
L 950.542541 155.495095 
L 949.547913 156.002682 
L 948.484432 156.510268 
L 947.356831 157.017854 
z
" clip-path="url(#p493e0a7a2f)" style="fill: #ff7f0e; fill-opacity: 0.7"/>
   </g>
   <g id="LineCollection_9">
    <path d="M 622.259866 343.138497 
L 682.926105 343.138497 
" clip-path="url(#p493e0a7a2f)" style="fill: none; stroke: #1f77b4; stroke-width: 1.5"/>
    <path d="M 864.924821 343.378359 
L 925.591059 343.378359 
" clip-path="url(#p493e0a7a2f)" style="fill: none; stroke: #1f77b4; stroke-width: 1.5"/>
   </g>
   <g id="LineCollection_10">
    <path d="M 622.259866 343.074238 
L 682.926105 343.074238 
" clip-path="url(#p493e0a7a2f)" style="fill: none; stroke: #1f77b4; stroke-width: 1.5"/>
    <path d="M 864.924821 343.074221 
L 925.591059 343.074221 
" clip-path="url(#p493e0a7a2f)" style="fill: none; stroke: #1f77b4; stroke-width: 1.5"/>
   </g>
   <g id="LineCollection_11">
    <path d="M 622.259866 343.202755 
L 682.926105 343.202755 
" clip-path="url(#p493e0a7a2f)" style="fill: none; stroke: #1f77b4; stroke-width: 1.5"/>
    <path d="M 864.924821 343.608982 
L 925.591059 343.608982 
" clip-path="url(#p493e0a7a2f)" style="fill: none; stroke: #1f77b4; stroke-width: 1.5"/>
   </g>
   <g id="LineCollection_12">
    <path d="M 652.592985 343.202755 
L 652.592985 343.074238 
" clip-path="url(#p493e0a7a2f)" style="fill: none; stroke: #1f77b4; stroke-width: 1.5"/>
    <path d="M 895.25794 343.608982 
L 895.25794 343.074221 
" clip-path="url(#p493e0a7a2f)" style="fill: none; stroke: #1f77b4; stroke-width: 1.5"/>
   </g>
   <g id="LineCollection_13">
    <path d="M 622.259866 134.757818 
L 682.926105 134.757818 
" clip-path="url(#p493e0a7a2f)" style="fill: none; stroke: #ff7f0e; stroke-width: 1.5"/>
    <path d="M 864.924821 131.647822 
L 925.591059 131.647822 
" clip-path="url(#p493e0a7a2f)" style="fill: none; stroke: #ff7f0e; stroke-width: 1.5"/>
   </g>
   <g id="LineCollection_14">
    <path d="M 622.259866 119.681052 
L 682.926105 119.681052 
" clip-path="url(#p493e0a7a2f)" style="fill: none; stroke: #ff7f0e; stroke-width: 1.5"/>
    <path d="M 864.924821 106.766797 
L 925.591059 106.766797 
" clip-path="url(#p493e0a7a2f)" style="fill: none; stroke: #ff7f0e; stroke-width: 1.5"/>
   </g>
   <g id="LineCollection_15">
    <path d="M 622.259866 149.834584 
L 682.926105 149.834584 
" clip-path="url(#p493e0a7a2f)" style="fill: none; stroke: #ff7f0e; stroke-width: 1.5"/>
    <path d="M 864.924821 157.017854 
L 925.591059 157.017854 
" clip-path="url(#p493e0a7a2f)" style="fill: none; stroke: #ff7f0e; stroke-width: 1.5"/>
   </g>
   <g id="LineCollection_16">
    <path d="M 652.592985 149.834584 
L 652.592985 119.681052 
" clip-path="url(#p493e0a7a2f)" style="fill: none; stroke: #ff7f0e; stroke-width: 1.5"/>
    <path d="M 895.25794 157.017854 
L 895.25794 106.766797 
" clip-path="url(#p493e0a7a2f)" style="fill: none; stroke: #ff7f0e; stroke-width: 1.5"/>
   </g>
   <g id="patch_6">
    <path d="M 573.726875 355.451092 
L 573.726875 94.924688 
" style="fill: none; stroke: #808080; stroke-width: 0.8; stroke-linejoin: miter; stroke-linecap: square"/>
   </g>
   <g id="patch_7">
    <path d="M 573.726875 355.451092 
L 974.12405 355.451092 
" style="fill: none; stroke: #808080; stroke-width: 0.8; stroke-linejoin: miter; stroke-linecap: square"/>
   </g>
   <g id="text_14">
    <text style="font: 22px 'PingFang SC', 'Heiti SC', 'STHeiti', 'Calibri', 'Arial', 'Helvetica Neue', 'Arial Unicode MS', 'Noto Sans CJK SC', 'DejaVu Sans', sans-serif; text-anchor: middle" x="773.925463" y="88.924688" transform="rotate(-0 773.925463 88.924688)">world=128 · 16 MB</text>
   </g>
  </g>
  <g id="text_15">
   <text style="font: 14px 'PingFang SC', 'Heiti SC', 'STHeiti', 'Calibri', 'Arial', 'Helvetica Neue', 'Arial Unicode MS', 'Noto Sans CJK SC', 'DejaVu Sans', sans-serif; text-anchor: middle" x="489.56405" y="22.09625" transform="rotate(-0 489.56405 22.09625)">P2P · 边类型带宽分布</text>
  </g>
 </g>
 <defs>
  <clipPath id="p1aaec8364d">
   <rect x="79.446875" y="94.924688" width="400.397175" height="260.526404"/>
  </clipPath>
  <clipPath id="p493e0a7a2f">
   <rect x="573.726875" y="94.924688" width="400.397175" height="260.526404"/>
  </clipPath>
 </defs>
</svg>
