<?xml version="1.0" encoding="utf-8" standalone="no"?>
<!DOCTYPE svg PUBLIC "-//W3C//DTD SVG 1.1//EN"
  "http://www.w3.org/Graphics/SVG/1.1/DTD/svg11.dtd">
<svg xmlns:xlink="http://www.w3.org/1999/xlink" width="702.916875pt" height="414.8025pt" viewBox="0 0 702.916875 414.8025" xmlns="http://www.w3.org/2000/svg" version="1.1">
 <metadata>
  <rdf:RDF xmlns:dc="http://purl.org/dc/elements/1.1/" xmlns:cc="http://creativecommons.org/ns#" xmlns:rdf="http://www.w3.org/1999/02/22-rdf-syntax-ns#">
   <cc:Work>
    <dc:type rdf:resource="http://purl.org/dc/dcmitype/StillImage"/>
    <dc:date>2026-07-11T21:56:31.939172</dc:date>
    <dc:format>image/svg+xml</dc:format>
    <dc:creator>
     <cc:Agent>
      <dc:title>Matplotlib v3.9.4, https://matplotlib.org/</dc:title>
     </cc:Agent>
    </dc:creator>
   </cc:Work>
  </rdf:RDF>
 </metadata>
 <defs>
  <style type="text/css">*{stroke-linejoin: round; stroke-linecap: butt}</style>
 </defs>
 <g id="figure_1">
  <g id="patch_1">
   <path d="M 0 414.8025 
L 702.916875 414.8025 
L 702.916875 0 
L 0 0 
z
" style="fill: #ffffff"/>
  </g>
  <g id="axes_1">
   <g id="patch_2">
    <path d="M 79.446875 352.0825 
L 692.116875 352.0825 
L 692.116875 34.640625 
L 79.446875 34.640625 
z
" style="fill: #ffffff"/>
   </g>
   <g id="matplotlib.axis_1">
    <g id="xtick_1">
     <g id="line2d_1">
      <defs>
       <path id="mb8898f274c" d="M 0 0 
L 0 3.5 
" style="stroke: #808080; stroke-width: 0.8"/>
      </defs>
      <g>
       <use xlink:href="#mb8898f274c" x="138.238441" y="352.0825" style="fill: #808080; stroke: #808080; stroke-width: 0.8"/>
      </g>
     </g>
     <g id="text_1">
      <text style="fill: #808080; font: 22px 'PingFang SC', 'Heiti SC', 'STHeiti', 'Calibri', 'Arial', 'Helvetica Neue', 'Arial Unicode MS', 'Noto Sans CJK SC', 'DejaVu Sans', sans-serif; text-anchor: middle" x="138.238441" y="376.593125" transform="rotate(-0 138.238441 376.593125)">8</text>
     </g>
    </g>
    <g id="xtick_2">
     <g id="line2d_2">
      <g>
       <use xlink:href="#mb8898f274c" x="262.010158" y="352.0825" style="fill: #808080; stroke: #808080; stroke-width: 0.8"/>
      </g>
     </g>
     <g id="text_2">
      <text style="fill: #808080; font: 22px 'PingFang SC', 'Heiti SC', 'STHeiti', 'Calibri', 'Arial', 'Helvetica Neue', 'Arial Unicode MS', 'Noto Sans CJK SC', 'DejaVu Sans', sans-serif; text-anchor: middle" x="262.010158" y="376.593125" transform="rotate(-0 262.010158 376.593125)">16</text>
     </g>
    </g>
    <g id="xtick_3">
     <g id="line2d_3">
      <g>
       <use xlink:href="#mb8898f274c" x="385.781875" y="352.0825" style="fill: #808080; stroke: #808080; stroke-width: 0.8"/>
      </g>
     </g>
     <g id="text_3">
      <text style="fill: #808080; font: 22px 'PingFang SC', 'Heiti SC', 'STHeiti', 'Calibri', 'Arial', 'Helvetica Neue', 'Arial Unicode MS', 'Noto Sans CJK SC', 'DejaVu Sans', sans-serif; text-anchor: middle" x="385.781875" y="376.593125" transform="rotate(-0 385.781875 376.593125)">32</text>
     </g>
    </g>
    <g id="xtick_4">
     <g id="line2d_4">
      <g>
       <use xlink:href="#mb8898f274c" x="509.553592" y="352.0825" style="fill: #808080; stroke: #808080; stroke-width: 0.8"/>
      </g>
     </g>
     <g id="text_4">
      <text style="fill: #808080; font: 22px 'PingFang SC', 'Heiti SC', 'STHeiti', 'Calibri', 'Arial', 'Helvetica Neue', 'Arial Unicode MS', 'Noto Sans CJK SC', 'DejaVu Sans', sans-serif; text-anchor: middle" x="509.553592" y="376.593125" transform="rotate(-0 509.553592 376.593125)">64</text>
     </g>
    </g>
    <g id="xtick_5">
     <g id="line2d_5">
      <g>
       <use xlink:href="#mb8898f274c" x="633.325309" y="352.0825" style="fill: #808080; stroke: #808080; stroke-width: 0.8"/>
      </g>
     </g>
     <g id="text_5">
      <text style="fill: #808080; font: 22px 'PingFang SC', 'Heiti SC', 'STHeiti', 'Calibri', 'Arial', 'Helvetica Neue', 'Arial Unicode MS', 'Noto Sans CJK SC', 'DejaVu Sans', sans-serif; text-anchor: middle" x="633.325309" y="376.593125" transform="rotate(-0 633.325309 376.593125)">128</text>
     </g>
    </g>
    <g id="text_6">
     <text style="font: 22px 'PingFang SC', 'Heiti SC', 'STHeiti', 'Calibri', 'Arial', 'Helvetica Neue', 'Arial Unicode MS', 'Noto Sans CJK SC', 'DejaVu Sans', sans-serif; text-anchor: middle" x="385.781875" y="401.053125" transform="rotate(-0 385.781875 401.053125)">World 规模</text>
    </g>
   </g>
   <g id="matplotlib.axis_2">
    <g id="ytick_1">
     <g id="line2d_6">
      <path d="M 79.446875 338.308303 
L 692.116875 338.308303 
" clip-path="url(#p3da3703d40)" style="fill: none; stroke-dasharray: 1,1.65; stroke-dashoffset: 0; stroke: #808080; stroke-opacity: 0.55"/>
     </g>
     <g id="line2d_7">
      <defs>
       <path id="me696a2485e" d="M 0 0 
L -3.5 0 
" style="stroke: #808080; stroke-width: 0.8"/>
      </defs>
      <g>
       <use xlink:href="#me696a2485e" x="79.446875" y="338.308303" style="fill: #808080; stroke: #808080; stroke-width: 0.8"/>
      </g>
     </g>
     <g id="text_7">
      <text style="fill: #808080; font: 22px 'PingFang SC', 'Heiti SC', 'STHeiti', 'Calibri', 'Arial', 'Helvetica Neue', 'Arial Unicode MS', 'Noto Sans CJK SC', 'DejaVu Sans', sans-serif; text-anchor: end" x="72.446875" y="347.063615" transform="rotate(-0 72.446875 347.063615)">0</text>
     </g>
    </g>
    <g id="ytick_2">
     <g id="line2d_8">
      <path d="M 79.446875 284.381588 
L 692.116875 284.381588 
" clip-path="url(#p3da3703d40)" style="fill: none; stroke-dasharray: 1,1.65; stroke-dashoffset: 0; stroke: #808080; stroke-opacity: 0.55"/>
     </g>
     <g id="line2d_9">
      <g>
       <use xlink:href="#me696a2485e" x="79.446875" y="284.381588" style="fill: #808080; stroke: #808080; stroke-width: 0.8"/>
      </g>
     </g>
     <g id="text_8">
      <text style="fill: #808080; font: 22px 'PingFang SC', 'Heiti SC', 'STHeiti', 'Calibri', 'Arial', 'Helvetica Neue', 'Arial Unicode MS', 'Noto Sans CJK SC', 'DejaVu Sans', sans-serif; text-anchor: end" x="72.446875" y="293.136901" transform="rotate(-0 72.446875 293.136901)">20</text>
     </g>
    </g>
    <g id="ytick_3">
     <g id="line2d_10">
      <path d="M 79.446875 230.454873 
L 692.116875 230.454873 
" clip-path="url(#p3da3703d40)" style="fill: none; stroke-dasharray: 1,1.65; stroke-dashoffset: 0; stroke: #808080; stroke-opacity: 0.55"/>
     </g>
     <g id="line2d_11">
      <g>
       <use xlink:href="#me696a2485e" x="79.446875" y="230.454873" style="fill: #808080; stroke: #808080; stroke-width: 0.8"/>
      </g>
     </g>
     <g id="text_9">
      <text style="fill: #808080; font: 22px 'PingFang SC', 'Heiti SC', 'STHeiti', 'Calibri', 'Arial', 'Helvetica Neue', 'Arial Unicode MS', 'Noto Sans CJK SC', 'DejaVu Sans', sans-serif; text-anchor: end" x="72.446875" y="239.210186" transform="rotate(-0 72.446875 239.210186)">40</text>
     </g>
    </g>
    <g id="ytick_4">
     <g id="line2d_12">
      <path d="M 79.446875 176.528159 
L 692.116875 176.528159 
" clip-path="url(#p3da3703d40)" style="fill: none; stroke-dasharray: 1,1.65; stroke-dashoffset: 0; stroke: #808080; stroke-opacity: 0.55"/>
     </g>
     <g id="line2d_13">
      <g>
       <use xlink:href="#me696a2485e" x="79.446875" y="176.528159" style="fill: #808080; stroke: #808080; stroke-width: 0.8"/>
      </g>
     </g>
     <g id="text_10">
      <text style="fill: #808080; font: 22px 'PingFang SC', 'Heiti SC', 'STHeiti', 'Calibri', 'Arial', 'Helvetica Neue', 'Arial Unicode MS', 'Noto Sans CJK SC', 'DejaVu Sans', sans-serif; text-anchor: end" x="72.446875" y="185.283471" transform="rotate(-0 72.446875 185.283471)">60</text>
     </g>
    </g>
    <g id="ytick_5">
     <g id="line2d_14">
      <path d="M 79.446875 122.601444 
L 692.116875 122.601444 
" clip-path="url(#p3da3703d40)" style="fill: none; stroke-dasharray: 1,1.65; stroke-dashoffset: 0; stroke: #808080; stroke-opacity: 0.55"/>
     </g>
     <g id="line2d_15">
      <g>
       <use xlink:href="#me696a2485e" x="79.446875" y="122.601444" style="fill: #808080; stroke: #808080; stroke-width: 0.8"/>
      </g>
     </g>
     <g id="text_11">
      <text style="fill: #808080; font: 22px 'PingFang SC', 'Heiti SC', 'STHeiti', 'Calibri', 'Arial', 'Helvetica Neue', 'Arial Unicode MS', 'Noto Sans CJK SC', 'DejaVu Sans', sans-serif; text-anchor: end" x="72.446875" y="131.356756" transform="rotate(-0 72.446875 131.356756)">80</text>
     </g>
    </g>
    <g id="ytick_6">
     <g id="line2d_16">
      <path d="M 79.446875 68.674729 
L 692.116875 68.674729 
" clip-path="url(#p3da3703d40)" style="fill: none; stroke-dasharray: 1,1.65; stroke-dashoffset: 0; stroke: #808080; stroke-opacity: 0.55"/>
     </g>
     <g id="line2d_17">
      <g>
       <use xlink:href="#me696a2485e" x="79.446875" y="68.674729" style="fill: #808080; stroke: #808080; stroke-width: 0.8"/>
      </g>
     </g>
     <g id="text_12">
      <text style="fill: #808080; font: 22px 'PingFang SC', 'Heiti SC', 'STHeiti', 'Calibri', 'Arial', 'Helvetica Neue', 'Arial Unicode MS', 'Noto Sans CJK SC', 'DejaVu Sans', sans-serif; text-anchor: end" x="72.446875" y="77.430042" transform="rotate(-0 72.446875 77.430042)">100</text>
     </g>
    </g>
    <g id="text_13">
     <text style="font: 22px 'PingFang SC', 'Heiti SC', 'STHeiti', 'Calibri', 'Arial', 'Helvetica Neue', 'Arial Unicode MS', 'Noto Sans CJK SC', 'DejaVu Sans', sans-serif; text-anchor: middle" x="28.929375" y="193.361562" transform="rotate(-90 28.929375 193.361562)">Bus 带宽 (GB/s)</text>
    </g>
   </g>
   <g id="PolyCollection_1">
    <path d="M 143.801911 49.818823 
L 132.674971 49.818823 
L 132.653395 49.811257 
L 132.641084 49.803691 
L 132.637542 49.796125 
L 132.642157 49.788559 
L 132.654208 49.780993 
L 132.672862 49.773428 
L 132.697182 49.765862 
L 132.726131 49.758296 
L 132.758582 49.75073 
L 132.793321 49.743164 
L 132.829058 49.735598 
L 132.864439 49.728032 
L 132.898049 49.720466 
L 132.92843 49.712901 
L 132.954084 49.705335 
L 132.973493 49.697769 
L 132.985121 49.690203 
L 132.987433 49.682637 
L 132.978901 49.675071 
L 132.958018 49.667505 
L 132.923308 49.659939 
L 132.873335 49.652374 
L 132.806715 49.644808 
L 132.722126 49.637242 
L 132.618315 49.629676 
L 132.494107 49.62211 
L 132.348414 49.614544 
L 132.180243 49.606978 
L 131.988699 49.599412 
L 131.772994 49.591847 
L 131.532452 49.584281 
L 131.266514 49.576715 
L 130.97474 49.569149 
L 130.656816 49.561583 
L 130.312553 49.554017 
L 129.941893 49.546451 
L 129.544909 49.538885 
L 129.121807 49.53132 
L 128.672928 49.523754 
L 128.198746 49.516188 
L 127.699869 49.508622 
L 127.177044 49.501056 
L 126.631146 49.49349 
L 126.063186 49.485924 
L 125.474307 49.478358 
L 124.865779 49.470793 
L 124.238999 49.463227 
L 123.595491 49.455661 
L 122.936895 49.448095 
L 122.264973 49.440529 
L 121.581597 49.432963 
L 120.888744 49.425397 
L 120.188498 49.417831 
L 119.483034 49.410266 
L 118.774619 49.4027 
L 118.065597 49.395134 
L 117.358388 49.387568 
L 116.655472 49.380002 
L 115.959385 49.372436 
L 115.272703 49.36487 
L 114.598034 49.357304 
L 113.938004 49.349739 
L 113.295246 49.342173 
L 112.672383 49.334607 
L 112.07202 49.327041 
L 111.496721 49.319475 
L 110.949003 49.311909 
L 110.431312 49.304343 
L 109.946016 49.296777 
L 109.495384 49.289212 
L 109.08157 49.281646 
L 108.706605 49.27408 
L 108.372372 49.266514 
L 108.080601 49.258948 
L 107.83285 49.251382 
L 107.630495 49.243816 
L 107.474715 49.23625 
L 107.366487 49.228685 
L 107.306572 49.221119 
L 107.295511 49.213553 
L 107.333616 49.205987 
L 107.420964 49.198421 
L 107.557402 49.190855 
L 107.742537 49.183289 
L 107.975741 49.175723 
L 108.256155 49.168158 
L 108.582692 49.160592 
L 108.954042 49.153026 
L 109.368683 49.14546 
L 109.824892 49.137894 
L 110.320752 49.130328 
L 110.854171 49.122762 
L 111.42289 49.115196 
L 112.024509 49.107631 
L 112.656492 49.100065 
L 113.316197 49.092499 
L 114.000887 49.084933 
L 114.70775 49.077367 
L 115.433925 49.069801 
L 161.042956 49.069801 
L 161.042956 49.069801 
L 161.769131 49.077367 
L 162.475995 49.084933 
L 163.160684 49.092499 
L 163.820389 49.100065 
L 164.452373 49.107631 
L 165.053991 49.115196 
L 165.622711 49.122762 
L 166.156129 49.130328 
L 166.651989 49.137894 
L 167.108198 49.14546 
L 167.52284 49.153026 
L 167.89419 49.160592 
L 168.220726 49.168158 
L 168.50114 49.175723 
L 168.734345 49.183289 
L 168.919479 49.190855 
L 169.055917 49.198421 
L 169.143266 49.205987 
L 169.18137 49.213553 
L 169.170309 49.221119 
L 169.110394 49.228685 
L 169.002166 49.23625 
L 168.846387 49.243816 
L 168.644031 49.251382 
L 168.39628 49.258948 
L 168.104509 49.266514 
L 167.770276 49.27408 
L 167.395311 49.281646 
L 166.981498 49.289212 
L 166.530865 49.296777 
L 166.045569 49.304343 
L 165.527879 49.311909 
L 164.98016 49.319475 
L 164.404861 49.327041 
L 163.804498 49.334607 
L 163.181636 49.342173 
L 162.538877 49.349739 
L 161.878848 49.357304 
L 161.204179 49.36487 
L 160.517496 49.372436 
L 159.821409 49.380002 
L 159.118494 49.387568 
L 158.411284 49.395134 
L 157.702263 49.4027 
L 156.993847 49.410266 
L 156.288383 49.417831 
L 155.588137 49.425397 
L 154.895285 49.432963 
L 154.211908 49.440529 
L 153.539986 49.448095 
L 152.881391 49.455661 
L 152.237882 49.463227 
L 151.611103 49.470793 
L 151.002574 49.478358 
L 150.413695 49.485924 
L 149.845736 49.49349 
L 149.299838 49.501056 
L 148.777012 49.508622 
L 148.278136 49.516188 
L 147.803953 49.523754 
L 147.355074 49.53132 
L 146.931972 49.538885 
L 146.534988 49.546451 
L 146.164328 49.554017 
L 145.820066 49.561583 
L 145.502141 49.569149 
L 145.210368 49.576715 
L 144.944429 49.584281 
L 144.703888 49.591847 
L 144.488183 49.599412 
L 144.296638 49.606978 
L 144.128467 49.614544 
L 143.982774 49.62211 
L 143.858566 49.629676 
L 143.754755 49.637242 
L 143.670166 49.644808 
L 143.603546 49.652374 
L 143.553573 49.659939 
L 143.518863 49.667505 
L 143.49798 49.675071 
L 143.489448 49.682637 
L 143.49176 49.690203 
L 143.503389 49.697769 
L 143.522797 49.705335 
L 143.548452 49.712901 
L 143.578832 49.720466 
L 143.612442 49.728032 
L 143.647823 49.735598 
L 143.683561 49.743164 
L 143.718299 49.75073 
L 143.75075 49.758296 
L 143.779699 49.765862 
L 143.804019 49.773428 
L 143.822673 49.780993 
L 143.834724 49.788559 
L 143.83934 49.796125 
L 143.835797 49.803691 
L 143.823486 49.811257 
L 143.801911 49.818823 
z
" clip-path="url(#p3da3703d40)" style="fill: #4c78a8; fill-opacity: 0.65"/>
   </g>
   <g id="PolyCollection_2">
    <path d="M 268.201873 336.313674 
L 255.818443 336.313674 
L 255.540748 336.313673 
L 255.248836 336.313672 
L 254.941206 336.313672 
L 254.61634 336.313671 
L 254.272729 336.31367 
L 253.908914 336.313669 
L 253.523515 336.313668 
L 253.115271 336.313667 
L 252.683082 336.313666 
L 252.226043 336.313666 
L 251.743486 336.313665 
L 251.235013 336.313664 
L 250.700533 336.313663 
L 250.140296 336.313662 
L 249.554914 336.313661 
L 248.945385 336.31366 
L 248.313115 336.31366 
L 247.659919 336.313659 
L 246.988032 336.313658 
L 246.3001 336.313657 
L 245.59917 336.313656 
L 244.88867 336.313655 
L 244.172377 336.313655 
L 243.45439 336.313654 
L 242.739075 336.313653 
L 242.031024 336.313652 
L 241.334992 336.313651 
L 240.655839 336.31365 
L 239.998456 336.313649 
L 239.3677 336.313649 
L 238.768318 336.313648 
L 238.204871 336.313647 
L 237.681659 336.313646 
L 237.202647 336.313645 
L 236.771397 336.313644 
L 236.390998 336.313643 
L 236.064004 336.313643 
L 235.792382 336.313642 
L 235.577462 336.313641 
L 235.419903 336.31364 
L 235.319657 336.313639 
L 235.27596 336.313638 
L 235.287318 336.313638 
L 235.351514 336.313637 
L 235.465624 336.313636 
L 235.626044 336.313635 
L 235.828529 336.313634 
L 236.068241 336.313633 
L 236.339812 336.313632 
L 236.637412 336.313632 
L 236.954826 336.313631 
L 237.28554 336.31363 
L 237.622834 336.313629 
L 237.959876 336.313628 
L 238.289825 336.313627 
L 238.605931 336.313626 
L 238.901636 336.313626 
L 239.170676 336.313625 
L 239.40718 336.313624 
L 239.605761 336.313623 
L 239.761602 336.313622 
L 239.870542 336.313621 
L 239.929141 336.31362 
L 239.934742 336.31362 
L 239.885524 336.313619 
L 239.780537 336.313618 
L 239.619728 336.313617 
L 239.403953 336.313616 
L 239.134975 336.313615 
L 238.815449 336.313615 
L 238.44889 336.313614 
L 238.039634 336.313613 
L 237.592779 336.313612 
L 237.114119 336.313611 
L 236.610065 336.31361 
L 236.087556 336.313609 
L 235.553959 336.313609 
L 235.016971 336.313608 
L 234.484501 336.313607 
L 233.964563 336.313606 
L 233.465157 336.313605 
L 232.994157 336.313604 
L 232.559196 336.313603 
L 232.167557 336.313603 
L 231.826072 336.313602 
L 231.541025 336.313601 
L 231.318068 336.3136 
L 231.162141 336.313599 
L 231.077413 336.313598 
L 231.067229 336.313598 
L 231.134069 336.313597 
L 231.279533 336.313596 
L 231.504321 336.313595 
L 231.808247 336.313594 
L 232.19025 336.313593 
L 232.648431 336.313592 
L 233.180094 336.313592 
L 233.781801 336.313591 
L 234.449436 336.31359 
L 289.57088 336.31359 
L 289.57088 336.31359 
L 290.238515 336.313591 
L 290.840221 336.313592 
L 291.371884 336.313592 
L 291.830066 336.313593 
L 292.212069 336.313594 
L 292.515995 336.313595 
L 292.740783 336.313596 
L 292.886246 336.313597 
L 292.953087 336.313598 
L 292.942902 336.313598 
L 292.858174 336.313599 
L 292.702248 336.3136 
L 292.47929 336.313601 
L 292.194244 336.313602 
L 291.852759 336.313603 
L 291.46112 336.313603 
L 291.026159 336.313604 
L 290.555159 336.313605 
L 290.055753 336.313606 
L 289.535815 336.313607 
L 289.003345 336.313608 
L 288.466356 336.313609 
L 287.93276 336.313609 
L 287.410251 336.31361 
L 286.906197 336.313611 
L 286.427537 336.313612 
L 285.980682 336.313613 
L 285.571426 336.313614 
L 285.204867 336.313615 
L 284.885341 336.313615 
L 284.616363 336.313616 
L 284.400588 336.313617 
L 284.239779 336.313618 
L 284.134792 336.313619 
L 284.085574 336.31362 
L 284.091175 336.31362 
L 284.149773 336.313621 
L 284.258713 336.313622 
L 284.414555 336.313623 
L 284.613135 336.313624 
L 284.849639 336.313625 
L 285.11868 336.313626 
L 285.414385 336.313626 
L 285.730491 336.313627 
L 286.06044 336.313628 
L 286.397482 336.313629 
L 286.734776 336.31363 
L 287.06549 336.313631 
L 287.382903 336.313632 
L 287.680503 336.313632 
L 287.952075 336.313633 
L 288.191787 336.313634 
L 288.394271 336.313635 
L 288.554691 336.313636 
L 288.668801 336.313637 
L 288.732997 336.313638 
L 288.744355 336.313638 
L 288.700658 336.313639 
L 288.600413 336.31364 
L 288.442853 336.313641 
L 288.227934 336.313642 
L 287.956312 336.313643 
L 287.629318 336.313643 
L 287.248919 336.313644 
L 286.817669 336.313645 
L 286.338657 336.313646 
L 285.815445 336.313647 
L 285.251997 336.313648 
L 284.652615 336.313649 
L 284.02186 336.313649 
L 283.364477 336.31365 
L 282.685323 336.313651 
L 281.989292 336.313652 
L 281.281241 336.313653 
L 280.565926 336.313654 
L 279.847938 336.313655 
L 279.131646 336.313655 
L 278.421145 336.313656 
L 277.720216 336.313657 
L 277.032284 336.313658 
L 276.360397 336.313659 
L 275.707201 336.31366 
L 275.07493 336.31366 
L 274.465402 336.313661 
L 273.880019 336.313662 
L 273.319782 336.313663 
L 272.785303 336.313664 
L 272.27683 336.313665 
L 271.794272 336.313666 
L 271.337233 336.313666 
L 270.905044 336.313667 
L 270.496801 336.313668 
L 270.111401 336.313669 
L 269.747586 336.31367 
L 269.403976 336.313671 
L 269.07911 336.313672 
L 268.77148 336.313672 
L 268.479568 336.313673 
L 268.201873 336.313674 
z
" clip-path="url(#p3da3703d40)" style="fill: #4c78a8; fill-opacity: 0.65"/>
   </g>
   <g id="PolyCollection_3">
    <path d="M 394.554621 337.56715 
L 377.009129 337.56715 
L 376.412155 337.567149 
L 375.808607 337.567149 
L 375.201117 337.567149 
L 374.592299 337.567149 
L 373.984706 337.567149 
L 373.380777 337.567149 
L 372.78279 337.567149 
L 372.192805 337.567149 
L 371.612618 337.567149 
L 371.0437 337.567148 
L 370.487151 337.567148 
L 369.943651 337.567148 
L 369.413418 337.567148 
L 368.896179 337.567148 
L 368.391147 337.567148 
L 367.897023 337.567148 
L 367.412008 337.567148 
L 366.933846 337.567148 
L 366.459881 337.567148 
L 365.987149 337.567147 
L 365.512486 337.567147 
L 365.032669 337.567147 
L 364.544567 337.567147 
L 364.045316 337.567147 
L 363.532495 337.567147 
L 363.004313 337.567147 
L 362.45978 337.567147 
L 361.898868 337.567147 
L 361.322646 337.567146 
L 360.733377 337.567146 
L 360.134584 337.567146 
L 359.531054 337.567146 
L 358.928806 337.567146 
L 358.334994 337.567146 
L 357.757765 337.567146 
L 357.206066 337.567146 
L 356.689407 337.567146 
L 356.217591 337.567146 
L 355.80042 337.567145 
L 355.447387 337.567145 
L 355.167371 337.567145 
L 354.968338 337.567145 
L 354.857074 337.567145 
L 354.838946 337.567145 
L 354.917713 337.567145 
L 355.095389 337.567145 
L 355.372158 337.567145 
L 355.746351 337.567144 
L 356.214488 337.567144 
L 356.771365 337.567144 
L 357.410204 337.567144 
L 358.122838 337.567144 
L 358.899946 337.567144 
L 359.731301 337.567144 
L 360.606049 337.567144 
L 361.512985 337.567144 
L 362.44084 337.567144 
L 363.378546 337.567143 
L 364.315486 337.567143 
L 365.241726 337.567143 
L 366.148203 337.567143 
L 367.026888 337.567143 
L 367.870908 337.567143 
L 368.674625 337.567143 
L 369.43368 337.567143 
L 370.144997 337.567143 
L 370.806752 337.567143 
L 371.418308 337.567142 
L 371.980126 337.567142 
L 372.493645 337.567142 
L 372.961154 337.567142 
L 373.385645 337.567142 
L 373.77066 337.567142 
L 374.120141 337.567142 
L 374.438281 337.567142 
L 374.729385 337.567142 
L 374.997743 337.567141 
L 375.24752 337.567141 
L 375.482666 337.567141 
L 375.706843 337.567141 
L 375.923374 337.567141 
L 376.135209 337.567141 
L 376.344913 337.567141 
L 376.554666 337.567141 
L 376.766275 337.567141 
L 376.981204 337.567141 
L 377.200597 337.56714 
L 377.425318 337.56714 
L 377.655984 337.56714 
L 377.892996 337.56714 
L 378.13657 337.56714 
L 378.386759 337.56714 
L 378.643472 337.56714 
L 378.906486 337.56714 
L 379.175453 337.56714 
L 379.449905 337.567139 
L 379.729249 337.567139 
L 380.012775 337.567139 
L 380.299649 337.567139 
L 391.264101 337.567139 
L 391.264101 337.567139 
L 391.550975 337.567139 
L 391.834501 337.567139 
L 392.113845 337.567139 
L 392.388297 337.56714 
L 392.657264 337.56714 
L 392.920278 337.56714 
L 393.176991 337.56714 
L 393.42718 337.56714 
L 393.670754 337.56714 
L 393.907766 337.56714 
L 394.138432 337.56714 
L 394.363153 337.56714 
L 394.582546 337.567141 
L 394.797475 337.567141 
L 395.009084 337.567141 
L 395.218837 337.567141 
L 395.428541 337.567141 
L 395.640376 337.567141 
L 395.856907 337.567141 
L 396.081084 337.567141 
L 396.31623 337.567141 
L 396.566007 337.567141 
L 396.834365 337.567142 
L 397.125469 337.567142 
L 397.443609 337.567142 
L 397.79309 337.567142 
L 398.178105 337.567142 
L 398.602596 337.567142 
L 399.070105 337.567142 
L 399.583624 337.567142 
L 400.145442 337.567142 
L 400.756998 337.567143 
L 401.418753 337.567143 
L 402.13007 337.567143 
L 402.889125 337.567143 
L 403.692842 337.567143 
L 404.536862 337.567143 
L 405.415547 337.567143 
L 406.322024 337.567143 
L 407.248264 337.567143 
L 408.185204 337.567143 
L 409.12291 337.567144 
L 410.050765 337.567144 
L 410.957701 337.567144 
L 411.832449 337.567144 
L 412.663804 337.567144 
L 413.440912 337.567144 
L 414.153546 337.567144 
L 414.792385 337.567144 
L 415.349262 337.567144 
L 415.817399 337.567144 
L 416.191592 337.567145 
L 416.468361 337.567145 
L 416.646037 337.567145 
L 416.724804 337.567145 
L 416.706676 337.567145 
L 416.595412 337.567145 
L 416.396379 337.567145 
L 416.116363 337.567145 
L 415.76333 337.567145 
L 415.346159 337.567146 
L 414.874343 337.567146 
L 414.357684 337.567146 
L 413.805985 337.567146 
L 413.228756 337.567146 
L 412.634944 337.567146 
L 412.032696 337.567146 
L 411.429166 337.567146 
L 410.830373 337.567146 
L 410.241104 337.567146 
L 409.664882 337.567147 
L 409.10397 337.567147 
L 408.559437 337.567147 
L 408.031255 337.567147 
L 407.518434 337.567147 
L 407.019183 337.567147 
L 406.531081 337.567147 
L 406.051264 337.567147 
L 405.576601 337.567147 
L 405.103869 337.567148 
L 404.629904 337.567148 
L 404.151742 337.567148 
L 403.666727 337.567148 
L 403.172603 337.567148 
L 402.667571 337.567148 
L 402.150332 337.567148 
L 401.620099 337.567148 
L 401.076599 337.567148 
L 400.52005 337.567148 
L 399.951132 337.567149 
L 399.370945 337.567149 
L 398.78096 337.567149 
L 398.182973 337.567149 
L 397.579044 337.567149 
L 396.971451 337.567149 
L 396.362633 337.567149 
L 395.755143 337.567149 
L 395.151595 337.567149 
L 394.554621 337.56715 
z
" clip-path="url(#p3da3703d40)" style="fill: #4c78a8; fill-opacity: 0.65"/>
   </g>
   <g id="PolyCollection_4">
    <path d="M 510.0461 337.618926 
L 509.061085 337.618926 
L 509.069561 337.618854 
L 509.094125 337.618783 
L 509.132326 337.618712 
L 509.180532 337.618641 
L 509.234496 337.61857 
L 509.289968 337.618499 
L 509.343229 337.618427 
L 509.391458 337.618356 
L 509.432894 337.618285 
L 509.466806 337.618214 
L 509.49332 337.618143 
L 509.513162 337.618071 
L 509.527397 337.618 
L 509.5372 337.617929 
L 509.543684 337.617858 
L 509.547808 337.617787 
L 509.55033 337.617715 
L 509.551816 337.617644 
L 509.552658 337.617573 
L 509.553117 337.617502 
L 509.553359 337.617431 
L 509.553482 337.617359 
L 509.553542 337.617288 
L 509.55357 337.617217 
L 509.553583 337.617146 
L 509.553588 337.617075 
L 509.553591 337.617004 
L 509.553592 337.616932 
L 509.553592 337.616861 
L 509.553592 337.61679 
L 509.553592 337.616719 
L 509.553592 337.616648 
L 509.553592 337.616576 
L 509.553592 337.616505 
L 509.553592 337.616434 
L 509.553592 337.616363 
L 509.553592 337.616292 
L 509.553592 337.61622 
L 509.553592 337.616149 
L 509.553592 337.616078 
L 509.553592 337.616007 
L 509.553592 337.615936 
L 509.553592 337.615864 
L 509.553592 337.615793 
L 509.553592 337.615722 
L 509.553592 337.615651 
L 509.553592 337.61558 
L 509.553592 337.615509 
L 509.553592 337.615437 
L 509.553592 337.615366 
L 509.553592 337.615295 
L 509.553592 337.615224 
L 509.553592 337.615153 
L 509.553592 337.615081 
L 509.553592 337.61501 
L 509.553592 337.614939 
L 509.553592 337.614868 
L 509.553592 337.614797 
L 509.553592 337.614725 
L 509.553592 337.614654 
L 509.553592 337.614583 
L 509.553592 337.614512 
L 509.553592 337.614441 
L 509.553592 337.614369 
L 509.553592 337.614298 
L 509.553592 337.614227 
L 509.553591 337.614156 
L 509.55359 337.614085 
L 509.553585 337.614013 
L 509.553571 337.613942 
L 509.553537 337.613871 
L 509.553451 337.6138 
L 509.553243 337.613729 
L 509.552758 337.613658 
L 509.551664 337.613586 
L 509.549291 337.613515 
L 509.544322 337.613444 
L 509.534295 337.613373 
L 509.514793 337.613302 
L 509.478244 337.61323 
L 509.412254 337.613159 
L 509.297515 337.613088 
L 509.105453 337.613017 
L 508.79609 337.612946 
L 508.316833 337.612874 
L 507.603227 337.612803 
L 506.582771 337.612732 
L 505.182732 337.612661 
L 503.342222 337.61259 
L 501.027737 337.612518 
L 498.249944 337.612447 
L 495.078225 337.612376 
L 491.648734 337.612305 
L 488.162023 337.612234 
L 484.867921 337.612163 
L 482.038064 337.612091 
L 479.929741 337.61202 
L 478.747543 337.611949 
L 478.610663 337.611878 
L 540.496521 337.611878 
L 540.496521 337.611878 
L 540.359642 337.611949 
L 539.177443 337.61202 
L 537.069121 337.612091 
L 534.239263 337.612163 
L 530.945161 337.612234 
L 527.458451 337.612305 
L 524.028959 337.612376 
L 520.85724 337.612447 
L 518.079447 337.612518 
L 515.764962 337.61259 
L 513.924452 337.612661 
L 512.524413 337.612732 
L 511.503957 337.612803 
L 510.790351 337.612874 
L 510.311094 337.612946 
L 510.001731 337.613017 
L 509.809669 337.613088 
L 509.69493 337.613159 
L 509.628941 337.61323 
L 509.592391 337.613302 
L 509.572889 337.613373 
L 509.562863 337.613444 
L 509.557894 337.613515 
L 509.55552 337.613586 
L 509.554427 337.613658 
L 509.553941 337.613729 
L 509.553733 337.6138 
L 509.553647 337.613871 
L 509.553613 337.613942 
L 509.5536 337.614013 
L 509.553595 337.614085 
L 509.553593 337.614156 
L 509.553592 337.614227 
L 509.553592 337.614298 
L 509.553592 337.614369 
L 509.553592 337.614441 
L 509.553592 337.614512 
L 509.553592 337.614583 
L 509.553592 337.614654 
L 509.553592 337.614725 
L 509.553592 337.614797 
L 509.553592 337.614868 
L 509.553592 337.614939 
L 509.553592 337.61501 
L 509.553592 337.615081 
L 509.553592 337.615153 
L 509.553592 337.615224 
L 509.553592 337.615295 
L 509.553592 337.615366 
L 509.553592 337.615437 
L 509.553592 337.615509 
L 509.553592 337.61558 
L 509.553592 337.615651 
L 509.553592 337.615722 
L 509.553592 337.615793 
L 509.553592 337.615864 
L 509.553592 337.615936 
L 509.553592 337.616007 
L 509.553592 337.616078 
L 509.553592 337.616149 
L 509.553592 337.61622 
L 509.553592 337.616292 
L 509.553592 337.616363 
L 509.553592 337.616434 
L 509.553592 337.616505 
L 509.553592 337.616576 
L 509.553592 337.616648 
L 509.553592 337.616719 
L 509.553592 337.61679 
L 509.553592 337.616861 
L 509.553593 337.616932 
L 509.553594 337.617004 
L 509.553596 337.617075 
L 509.553602 337.617146 
L 509.553615 337.617217 
L 509.553643 337.617288 
L 509.553703 337.617359 
L 509.553825 337.617431 
L 509.554067 337.617502 
L 509.554527 337.617573 
L 509.555369 337.617644 
L 509.556854 337.617715 
L 509.559377 337.617787 
L 509.5635 337.617858 
L 509.569985 337.617929 
L 509.579787 337.618 
L 509.594022 337.618071 
L 509.613864 337.618143 
L 509.640378 337.618214 
L 509.674291 337.618285 
L 509.715727 337.618356 
L 509.763956 337.618427 
L 509.817217 337.618499 
L 509.872689 337.61857 
L 509.926652 337.618641 
L 509.974858 337.618712 
L 510.013059 337.618783 
L 510.037623 337.618854 
L 510.0461 337.618926 
z
" clip-path="url(#p3da3703d40)" style="fill: #4c78a8; fill-opacity: 0.65"/>
   </g>
   <g id="PolyCollection_5">
    <path d="M 664.268239 337.653324 
L 602.38238 337.653324 
L 603.114102 337.653261 
L 606.401946 337.653198 
L 611.425258 337.653136 
L 617.065495 337.653073 
L 622.306348 337.65301 
L 626.509453 337.652948 
L 629.477134 337.652885 
L 631.342212 337.652822 
L 632.39251 337.652759 
L 632.924824 337.652697 
L 633.168367 337.652634 
L 633.269172 337.652571 
L 633.306981 337.652509 
L 633.319848 337.652446 
L 633.323824 337.652383 
L 633.324941 337.65232 
L 633.325226 337.652258 
L 633.325292 337.652195 
L 633.325306 337.652132 
L 633.325309 337.65207 
L 633.325309 337.652007 
L 633.325309 337.651944 
L 633.325309 337.651881 
L 633.325309 337.651819 
L 633.325309 337.651756 
L 633.325309 337.651693 
L 633.325309 337.651631 
L 633.325309 337.651568 
L 633.325309 337.651505 
L 633.325309 337.651442 
L 633.325309 337.65138 
L 633.325309 337.651317 
L 633.325309 337.651254 
L 633.325309 337.651192 
L 633.325309 337.651129 
L 633.325309 337.651066 
L 633.325309 337.651003 
L 633.325309 337.650941 
L 633.325309 337.650878 
L 633.325309 337.650815 
L 633.325309 337.650752 
L 633.325309 337.65069 
L 633.325309 337.650627 
L 633.325309 337.650564 
L 633.325309 337.650502 
L 633.325309 337.650439 
L 633.325309 337.650376 
L 633.325309 337.650313 
L 633.325309 337.650251 
L 633.325309 337.650188 
L 633.325309 337.650125 
L 633.325309 337.650063 
L 633.325309 337.65 
L 633.325309 337.649937 
L 633.325309 337.649874 
L 633.325309 337.649812 
L 633.325309 337.649749 
L 633.325309 337.649686 
L 633.325309 337.649624 
L 633.325309 337.649561 
L 633.325309 337.649498 
L 633.325309 337.649435 
L 633.325309 337.649373 
L 633.325309 337.64931 
L 633.325309 337.649247 
L 633.325309 337.649185 
L 633.325309 337.649122 
L 633.325309 337.649059 
L 633.325309 337.648996 
L 633.325309 337.648934 
L 633.325309 337.648871 
L 633.325309 337.648808 
L 633.325309 337.648746 
L 633.325309 337.648683 
L 633.325309 337.64862 
L 633.325309 337.648557 
L 633.325309 337.648495 
L 633.325309 337.648432 
L 633.325309 337.648369 
L 633.325309 337.648307 
L 633.325309 337.648244 
L 633.325309 337.648181 
L 633.325307 337.648118 
L 633.325301 337.648056 
L 633.325278 337.647993 
L 633.325201 337.64793 
L 633.32497 337.647868 
L 633.324339 337.647805 
L 633.322775 337.647742 
L 633.319272 337.647679 
L 633.312183 337.647617 
L 633.29926 337.647554 
L 633.278129 337.647491 
L 633.247321 337.647429 
L 633.207653 337.647366 
L 633.16331 337.647303 
L 633.121733 337.64724 
L 633.091826 337.647178 
L 633.08091 337.647115 
L 633.569708 337.647115 
L 633.569708 337.647115 
L 633.558793 337.647178 
L 633.528886 337.64724 
L 633.487309 337.647303 
L 633.442965 337.647366 
L 633.403297 337.647429 
L 633.372489 337.647491 
L 633.351359 337.647554 
L 633.338436 337.647617 
L 633.331346 337.647679 
L 633.327843 337.647742 
L 633.32628 337.647805 
L 633.325649 337.647868 
L 633.325418 337.64793 
L 633.325341 337.647993 
L 633.325318 337.648056 
L 633.325311 337.648118 
L 633.32531 337.648181 
L 633.325309 337.648244 
L 633.325309 337.648307 
L 633.325309 337.648369 
L 633.325309 337.648432 
L 633.325309 337.648495 
L 633.325309 337.648557 
L 633.325309 337.64862 
L 633.325309 337.648683 
L 633.325309 337.648746 
L 633.325309 337.648808 
L 633.325309 337.648871 
L 633.325309 337.648934 
L 633.325309 337.648996 
L 633.325309 337.649059 
L 633.325309 337.649122 
L 633.325309 337.649185 
L 633.325309 337.649247 
L 633.325309 337.64931 
L 633.325309 337.649373 
L 633.325309 337.649435 
L 633.325309 337.649498 
L 633.325309 337.649561 
L 633.325309 337.649624 
L 633.325309 337.649686 
L 633.325309 337.649749 
L 633.325309 337.649812 
L 633.325309 337.649874 
L 633.325309 337.649937 
L 633.325309 337.65 
L 633.325309 337.650063 
L 633.325309 337.650125 
L 633.325309 337.650188 
L 633.325309 337.650251 
L 633.325309 337.650313 
L 633.325309 337.650376 
L 633.325309 337.650439 
L 633.325309 337.650502 
L 633.325309 337.650564 
L 633.325309 337.650627 
L 633.325309 337.65069 
L 633.325309 337.650752 
L 633.325309 337.650815 
L 633.325309 337.650878 
L 633.325309 337.650941 
L 633.325309 337.651003 
L 633.325309 337.651066 
L 633.325309 337.651129 
L 633.325309 337.651192 
L 633.325309 337.651254 
L 633.325309 337.651317 
L 633.325309 337.65138 
L 633.325309 337.651442 
L 633.325309 337.651505 
L 633.325309 337.651568 
L 633.325309 337.651631 
L 633.325309 337.651693 
L 633.325309 337.651756 
L 633.325309 337.651819 
L 633.325309 337.651881 
L 633.325309 337.651944 
L 633.325309 337.652007 
L 633.32531 337.65207 
L 633.325313 337.652132 
L 633.325327 337.652195 
L 633.325393 337.652258 
L 633.325678 337.65232 
L 633.326795 337.652383 
L 633.330771 337.652446 
L 633.343637 337.652509 
L 633.381446 337.652571 
L 633.482252 337.652634 
L 633.725795 337.652697 
L 634.258108 337.652759 
L 635.308407 337.652822 
L 637.173485 337.652885 
L 640.141165 337.652948 
L 644.344271 337.65301 
L 649.585124 337.653073 
L 655.225361 337.653136 
L 660.248673 337.653198 
L 663.536517 337.653261 
L 664.268239 337.653324 
z
" clip-path="url(#p3da3703d40)" style="fill: #4c78a8; fill-opacity: 0.65"/>
   </g>
   <g id="LineCollection_1">
    <path d="M 122.766976 49.297901 
L 153.709905 49.297901 
" clip-path="url(#p3da3703d40)" style="fill: none; stroke: #1f77b4; stroke-width: 1.5"/>
    <path d="M 246.538693 336.31362 
L 277.481622 336.31362 
" clip-path="url(#p3da3703d40)" style="fill: none; stroke: #1f77b4; stroke-width: 1.5"/>
    <path d="M 370.31041 337.567145 
L 401.25334 337.567145 
" clip-path="url(#p3da3703d40)" style="fill: none; stroke: #1f77b4; stroke-width: 1.5"/>
    <path d="M 494.082128 337.612014 
L 525.025057 337.612014 
" clip-path="url(#p3da3703d40)" style="fill: none; stroke: #1f77b4; stroke-width: 1.5"/>
    <path d="M 617.853845 337.653261 
L 648.796774 337.653261 
" clip-path="url(#p3da3703d40)" style="fill: none; stroke: #1f77b4; stroke-width: 1.5"/>
   </g>
   <g id="LineCollection_2">
    <path d="M 122.766976 49.069801 
L 153.709905 49.069801 
" clip-path="url(#p3da3703d40)" style="fill: none; stroke: #1f77b4; stroke-width: 1.5"/>
    <path d="M 246.538693 336.31359 
L 277.481622 336.31359 
" clip-path="url(#p3da3703d40)" style="fill: none; stroke: #1f77b4; stroke-width: 1.5"/>
    <path d="M 370.31041 337.567139 
L 401.25334 337.567139 
" clip-path="url(#p3da3703d40)" style="fill: none; stroke: #1f77b4; stroke-width: 1.5"/>
    <path d="M 494.082128 337.611878 
L 525.025057 337.611878 
" clip-path="url(#p3da3703d40)" style="fill: none; stroke: #1f77b4; stroke-width: 1.5"/>
    <path d="M 617.853845 337.647115 
L 648.796774 337.647115 
" clip-path="url(#p3da3703d40)" style="fill: none; stroke: #1f77b4; stroke-width: 1.5"/>
   </g>
   <g id="LineCollection_3">
    <path d="M 122.766976 49.818823 
L 153.709905 49.818823 
" clip-path="url(#p3da3703d40)" style="fill: none; stroke: #1f77b4; stroke-width: 1.5"/>
    <path d="M 246.538693 336.313674 
L 277.481622 336.313674 
" clip-path="url(#p3da3703d40)" style="fill: none; stroke: #1f77b4; stroke-width: 1.5"/>
    <path d="M 370.31041 337.56715 
L 401.25334 337.56715 
" clip-path="url(#p3da3703d40)" style="fill: none; stroke: #1f77b4; stroke-width: 1.5"/>
    <path d="M 494.082128 337.618926 
L 525.025057 337.618926 
" clip-path="url(#p3da3703d40)" style="fill: none; stroke: #1f77b4; stroke-width: 1.5"/>
    <path d="M 617.853845 337.653324 
L 648.796774 337.653324 
" clip-path="url(#p3da3703d40)" style="fill: none; stroke: #1f77b4; stroke-width: 1.5"/>
   </g>
   <g id="LineCollection_4">
    <path d="M 138.238441 49.818823 
L 138.238441 49.069801 
" clip-path="url(#p3da3703d40)" style="fill: none; stroke: #1f77b4; stroke-width: 1.5"/>
    <path d="M 262.010158 336.313674 
L 262.010158 336.31359 
" clip-path="url(#p3da3703d40)" style="fill: none; stroke: #1f77b4; stroke-width: 1.5"/>
    <path d="M 385.781875 337.56715 
L 385.781875 337.567139 
" clip-path="url(#p3da3703d40)" style="fill: none; stroke: #1f77b4; stroke-width: 1.5"/>
    <path d="M 509.553592 337.618926 
L 509.553592 337.611878 
" clip-path="url(#p3da3703d40)" style="fill: none; stroke: #1f77b4; stroke-width: 1.5"/>
    <path d="M 633.325309 337.653324 
L 633.325309 337.647115 
" clip-path="url(#p3da3703d40)" style="fill: none; stroke: #1f77b4; stroke-width: 1.5"/>
   </g>
   <g id="LineCollection_5">
    <path d="M 122.766976 49.24182 
L 153.709905 49.24182 
" clip-path="url(#p3da3703d40)" style="fill: none; stroke: #1f77b4; stroke-width: 1.5"/>
    <path d="M 246.538693 336.313617 
L 277.481622 336.313617 
" clip-path="url(#p3da3703d40)" style="fill: none; stroke: #1f77b4; stroke-width: 1.5"/>
    <path d="M 370.31041 337.567145 
L 401.25334 337.567145 
" clip-path="url(#p3da3703d40)" style="fill: none; stroke: #1f77b4; stroke-width: 1.5"/>
    <path d="M 494.082128 337.611907 
L 525.025057 337.611907 
" clip-path="url(#p3da3703d40)" style="fill: none; stroke: #1f77b4; stroke-width: 1.5"/>
    <path d="M 617.853845 337.653308 
L 648.796774 337.653308 
" clip-path="url(#p3da3703d40)" style="fill: none; stroke: #1f77b4; stroke-width: 1.5"/>
   </g>
   <g id="patch_3">
    <path d="M 79.446875 352.0825 
L 79.446875 34.640625 
" style="fill: none; stroke: #808080; stroke-width: 0.8; stroke-linejoin: miter; stroke-linecap: square"/>
   </g>
   <g id="patch_4">
    <path d="M 79.446875 352.0825 
L 692.116875 352.0825 
" style="fill: none; stroke: #808080; stroke-width: 0.8; stroke-linejoin: miter; stroke-linecap: square"/>
   </g>
   <g id="text_14">
    <text style="font: 22px 'PingFang SC', 'Heiti SC', 'STHeiti', 'Calibri', 'Arial', 'Helvetica Neue', 'Arial Unicode MS', 'Noto Sans CJK SC', 'DejaVu Sans', sans-serif; text-anchor: middle" x="385.781875" y="28.640625" transform="rotate(-0 385.781875 28.640625)">Broadcast · 256 MB Rank 分布（Violin）</text>
   </g>
  </g>
 </g>
 <defs>
  <clipPath id="p3da3703d40">
   <rect x="79.446875" y="34.640625" width="612.67" height="317.441875"/>
  </clipPath>
 </defs>
</svg>
