<?xml version="1.0" encoding="utf-8" standalone="no"?>
<!DOCTYPE svg PUBLIC "-//W3C//DTD SVG 1.1//EN"
  "http://www.w3.org/Graphics/SVG/1.1/DTD/svg11.dtd">
<svg xmlns:xlink="http://www.w3.org/1999/xlink" width="702.916875pt" height="414.8025pt" viewBox="0 0 702.916875 414.8025" xmlns="http://www.w3.org/2000/svg" version="1.1">
 <metadata>
  <rdf:RDF xmlns:dc="http://purl.org/dc/elements/1.1/" xmlns:cc="http://creativecommons.org/ns#" xmlns:rdf="http://www.w3.org/1999/02/22-rdf-syntax-ns#">
   <cc:Work>
    <dc:type rdf:resource="http://purl.org/dc/dcmitype/StillImage"/>
    <dc:date>2026-07-11T21:56:31.891782</dc:date>
    <dc:format>image/svg+xml</dc:format>
    <dc:creator>
     <cc:Agent>
      <dc:title>Matplotlib v3.9.4, https://matplotlib.org/</dc:title>
     </cc:Agent>
    </dc:creator>
   </cc:Work>
  </rdf:RDF>
 </metadata>
 <defs>
  <style type="text/css">*{stroke-linejoin: round; stroke-linecap: butt}</style>
 </defs>
 <g id="figure_1">
  <g id="patch_1">
   <path d="M 0 414.8025 
L 702.916875 414.8025 
L 702.916875 0 
L 0 0 
z
" style="fill: #ffffff"/>
  </g>
  <g id="axes_1">
   <g id="patch_2">
    <path d="M 79.446875 352.0825 
L 692.116875 352.0825 
L 692.116875 34.640625 
L 79.446875 34.640625 
z
" style="fill: #ffffff"/>
   </g>
   <g id="matplotlib.axis_1">
    <g id="xtick_1">
     <g id="line2d_1">
      <defs>
       <path id="m2e2f24ff9d" d="M 0 0 
L 0 3.5 
" style="stroke: #808080; stroke-width: 0.8"/>
      </defs>
      <g>
       <use xlink:href="#m2e2f24ff9d" x="138.238441" y="352.0825" style="fill: #808080; stroke: #808080; stroke-width: 0.8"/>
      </g>
     </g>
     <g id="text_1">
      <text style="fill: #808080; font: 22px 'PingFang SC', 'Heiti SC', 'STHeiti', 'Calibri', 'Arial', 'Helvetica Neue', 'Arial Unicode MS', 'Noto Sans CJK SC', 'DejaVu Sans', sans-serif; text-anchor: middle" x="138.238441" y="376.593125" transform="rotate(-0 138.238441 376.593125)">8</text>
     </g>
    </g>
    <g id="xtick_2">
     <g id="line2d_2">
      <g>
       <use xlink:href="#m2e2f24ff9d" x="262.010158" y="352.0825" style="fill: #808080; stroke: #808080; stroke-width: 0.8"/>
      </g>
     </g>
     <g id="text_2">
      <text style="fill: #808080; font: 22px 'PingFang SC', 'Heiti SC', 'STHeiti', 'Calibri', 'Arial', 'Helvetica Neue', 'Arial Unicode MS', 'Noto Sans CJK SC', 'DejaVu Sans', sans-serif; text-anchor: middle" x="262.010158" y="376.593125" transform="rotate(-0 262.010158 376.593125)">16</text>
     </g>
    </g>
    <g id="xtick_3">
     <g id="line2d_3">
      <g>
       <use xlink:href="#m2e2f24ff9d" x="385.781875" y="352.0825" style="fill: #808080; stroke: #808080; stroke-width: 0.8"/>
      </g>
     </g>
     <g id="text_3">
      <text style="fill: #808080; font: 22px 'PingFang SC', 'Heiti SC', 'STHeiti', 'Calibri', 'Arial', 'Helvetica Neue', 'Arial Unicode MS', 'Noto Sans CJK SC', 'DejaVu Sans', sans-serif; text-anchor: middle" x="385.781875" y="376.593125" transform="rotate(-0 385.781875 376.593125)">32</text>
     </g>
    </g>
    <g id="xtick_4">
     <g id="line2d_4">
      <g>
       <use xlink:href="#m2e2f24ff9d" x="509.553592" y="352.0825" style="fill: #808080; stroke: #808080; stroke-width: 0.8"/>
      </g>
     </g>
     <g id="text_4">
      <text style="fill: #808080; font: 22px 'PingFang SC', 'Heiti SC', 'STHeiti', 'Calibri', 'Arial', 'Helvetica Neue', 'Arial Unicode MS', 'Noto Sans CJK SC', 'DejaVu Sans', sans-serif; text-anchor: middle" x="509.553592" y="376.593125" transform="rotate(-0 509.553592 376.593125)">64</text>
     </g>
    </g>
    <g id="xtick_5">
     <g id="line2d_5">
      <g>
       <use xlink:href="#m2e2f24ff9d" x="633.325309" y="352.0825" style="fill: #808080; stroke: #808080; stroke-width: 0.8"/>
      </g>
     </g>
     <g id="text_5">
      <text style="fill: #808080; font: 22px 'PingFang SC', 'Heiti SC', 'STHeiti', 'Calibri', 'Arial', 'Helvetica Neue', 'Arial Unicode MS', 'Noto Sans CJK SC', 'DejaVu Sans', sans-serif; text-anchor: middle" x="633.325309" y="376.593125" transform="rotate(-0 633.325309 376.593125)">128</text>
     </g>
    </g>
    <g id="text_6">
     <text style="font: 22px 'PingFang SC', 'Heiti SC', 'STHeiti', 'Calibri', 'Arial', 'Helvetica Neue', 'Arial Unicode MS', 'Noto Sans CJK SC', 'DejaVu Sans', sans-serif; text-anchor: middle" x="385.781875" y="401.053125" transform="rotate(-0 385.781875 401.053125)">World 规模</text>
    </g>
   </g>
   <g id="matplotlib.axis_2">
    <g id="ytick_1">
     <g id="line2d_6">
      <path d="M 79.446875 338.291439 
L 692.116875 338.291439 
" clip-path="url(#p992abe34ba)" style="fill: none; stroke-dasharray: 1,1.65; stroke-dashoffset: 0; stroke: #808080; stroke-opacity: 0.55"/>
     </g>
     <g id="line2d_7">
      <defs>
       <path id="m2501b7155d" d="M 0 0 
L -3.5 0 
" style="stroke: #808080; stroke-width: 0.8"/>
      </defs>
      <g>
       <use xlink:href="#m2501b7155d" x="79.446875" y="338.291439" style="fill: #808080; stroke: #808080; stroke-width: 0.8"/>
      </g>
     </g>
     <g id="text_7">
      <text style="fill: #808080; font: 22px 'PingFang SC', 'Heiti SC', 'STHeiti', 'Calibri', 'Arial', 'Helvetica Neue', 'Arial Unicode MS', 'Noto Sans CJK SC', 'DejaVu Sans', sans-serif; text-anchor: end" x="72.446875" y="347.046751" transform="rotate(-0 72.446875 347.046751)">0</text>
     </g>
    </g>
    <g id="ytick_2">
     <g id="line2d_8">
      <path d="M 79.446875 283.05596 
L 692.116875 283.05596 
" clip-path="url(#p992abe34ba)" style="fill: none; stroke-dasharray: 1,1.65; stroke-dashoffset: 0; stroke: #808080; stroke-opacity: 0.55"/>
     </g>
     <g id="line2d_9">
      <g>
       <use xlink:href="#m2501b7155d" x="79.446875" y="283.05596" style="fill: #808080; stroke: #808080; stroke-width: 0.8"/>
      </g>
     </g>
     <g id="text_8">
      <text style="fill: #808080; font: 22px 'PingFang SC', 'Heiti SC', 'STHeiti', 'Calibri', 'Arial', 'Helvetica Neue', 'Arial Unicode MS', 'Noto Sans CJK SC', 'DejaVu Sans', sans-serif; text-anchor: end" x="72.446875" y="291.811272" transform="rotate(-0 72.446875 291.811272)">20</text>
     </g>
    </g>
    <g id="ytick_3">
     <g id="line2d_10">
      <path d="M 79.446875 227.820481 
L 692.116875 227.820481 
" clip-path="url(#p992abe34ba)" style="fill: none; stroke-dasharray: 1,1.65; stroke-dashoffset: 0; stroke: #808080; stroke-opacity: 0.55"/>
     </g>
     <g id="line2d_11">
      <g>
       <use xlink:href="#m2501b7155d" x="79.446875" y="227.820481" style="fill: #808080; stroke: #808080; stroke-width: 0.8"/>
      </g>
     </g>
     <g id="text_9">
      <text style="fill: #808080; font: 22px 'PingFang SC', 'Heiti SC', 'STHeiti', 'Calibri', 'Arial', 'Helvetica Neue', 'Arial Unicode MS', 'Noto Sans CJK SC', 'DejaVu Sans', sans-serif; text-anchor: end" x="72.446875" y="236.575793" transform="rotate(-0 72.446875 236.575793)">40</text>
     </g>
    </g>
    <g id="ytick_4">
     <g id="line2d_12">
      <path d="M 79.446875 172.585002 
L 692.116875 172.585002 
" clip-path="url(#p992abe34ba)" style="fill: none; stroke-dasharray: 1,1.65; stroke-dashoffset: 0; stroke: #808080; stroke-opacity: 0.55"/>
     </g>
     <g id="line2d_13">
      <g>
       <use xlink:href="#m2501b7155d" x="79.446875" y="172.585002" style="fill: #808080; stroke: #808080; stroke-width: 0.8"/>
      </g>
     </g>
     <g id="text_10">
      <text style="fill: #808080; font: 22px 'PingFang SC', 'Heiti SC', 'STHeiti', 'Calibri', 'Arial', 'Helvetica Neue', 'Arial Unicode MS', 'Noto Sans CJK SC', 'DejaVu Sans', sans-serif; text-anchor: end" x="72.446875" y="181.340315" transform="rotate(-0 72.446875 181.340315)">60</text>
     </g>
    </g>
    <g id="ytick_5">
     <g id="line2d_14">
      <path d="M 79.446875 117.349523 
L 692.116875 117.349523 
" clip-path="url(#p992abe34ba)" style="fill: none; stroke-dasharray: 1,1.65; stroke-dashoffset: 0; stroke: #808080; stroke-opacity: 0.55"/>
     </g>
     <g id="line2d_15">
      <g>
       <use xlink:href="#m2501b7155d" x="79.446875" y="117.349523" style="fill: #808080; stroke: #808080; stroke-width: 0.8"/>
      </g>
     </g>
     <g id="text_11">
      <text style="fill: #808080; font: 22px 'PingFang SC', 'Heiti SC', 'STHeiti', 'Calibri', 'Arial', 'Helvetica Neue', 'Arial Unicode MS', 'Noto Sans CJK SC', 'DejaVu Sans', sans-serif; text-anchor: end" x="72.446875" y="126.104836" transform="rotate(-0 72.446875 126.104836)">80</text>
     </g>
    </g>
    <g id="ytick_6">
     <g id="line2d_16">
      <path d="M 79.446875 62.114044 
L 692.116875 62.114044 
" clip-path="url(#p992abe34ba)" style="fill: none; stroke-dasharray: 1,1.65; stroke-dashoffset: 0; stroke: #808080; stroke-opacity: 0.55"/>
     </g>
     <g id="line2d_17">
      <g>
       <use xlink:href="#m2501b7155d" x="79.446875" y="62.114044" style="fill: #808080; stroke: #808080; stroke-width: 0.8"/>
      </g>
     </g>
     <g id="text_12">
      <text style="fill: #808080; font: 22px 'PingFang SC', 'Heiti SC', 'STHeiti', 'Calibri', 'Arial', 'Helvetica Neue', 'Arial Unicode MS', 'Noto Sans CJK SC', 'DejaVu Sans', sans-serif; text-anchor: end" x="72.446875" y="70.869357" transform="rotate(-0 72.446875 70.869357)">100</text>
     </g>
    </g>
    <g id="text_13">
     <text style="font: 22px 'PingFang SC', 'Heiti SC', 'STHeiti', 'Calibri', 'Arial', 'Helvetica Neue', 'Arial Unicode MS', 'Noto Sans CJK SC', 'DejaVu Sans', sans-serif; text-anchor: middle" x="28.929375" y="193.361562" transform="rotate(-90 28.929375 193.361562)">Bus 带宽 (GB/s)</text>
    </g>
   </g>
   <g id="PolyCollection_1">
    <path d="M 153.013654 49.797078 
L 123.463228 49.797078 
L 122.920101 49.789731 
L 122.375642 49.782385 
L 121.830529 49.775039 
L 121.285417 49.767693 
L 120.740936 49.760347 
L 120.197692 49.753 
L 119.656265 49.745654 
L 119.117217 49.738308 
L 118.581088 49.730962 
L 118.048404 49.723615 
L 117.519681 49.716269 
L 116.995431 49.708923 
L 116.476164 49.701577 
L 115.9624 49.69423 
L 115.454673 49.686884 
L 114.95354 49.679538 
L 114.459588 49.672192 
L 113.973439 49.664846 
L 113.495765 49.657499 
L 113.027287 49.650153 
L 112.568788 49.642807 
L 112.121115 49.635461 
L 111.685187 49.628114 
L 111.261997 49.620768 
L 110.852615 49.613422 
L 110.458191 49.606076 
L 110.07995 49.59873 
L 109.719197 49.591383 
L 109.377303 49.584037 
L 109.055707 49.576691 
L 108.755903 49.569345 
L 108.479431 49.561998 
L 108.227862 49.554652 
L 108.002786 49.547306 
L 107.805796 49.53996 
L 107.638465 49.532613 
L 107.502331 49.525267 
L 107.398877 49.517921 
L 107.329504 49.510575 
L 107.295511 49.503229 
L 107.298078 49.495882 
L 107.338233 49.488536 
L 107.416842 49.48119 
L 107.534579 49.473844 
L 107.691915 49.466497 
L 107.889093 49.459151 
L 108.126119 49.451805 
L 108.402749 49.444459 
L 108.718476 49.437113 
L 109.072527 49.429766 
L 109.463862 49.42242 
L 109.891168 49.415074 
L 110.352872 49.407728 
L 110.847143 49.400381 
L 111.371905 49.393035 
L 111.924855 49.385689 
L 112.503479 49.378343 
L 113.105077 49.370996 
L 113.726784 49.36365 
L 114.365601 49.356304 
L 115.018422 49.348958 
L 115.682065 49.341612 
L 116.35331 49.334265 
L 117.028924 49.326919 
L 117.7057 49.319573 
L 118.380489 49.312227 
L 119.050233 49.30488 
L 119.711995 49.297534 
L 120.362988 49.290188 
L 121.000607 49.282842 
L 121.622448 49.275496 
L 122.226332 49.268149 
L 122.810326 49.260803 
L 123.372756 49.253457 
L 123.91222 49.246111 
L 124.427596 49.238764 
L 124.918043 49.231418 
L 125.383007 49.224072 
L 125.822213 49.216726 
L 126.235661 49.209379 
L 126.623613 49.202033 
L 126.986582 49.194687 
L 127.325314 49.187341 
L 127.640768 49.179995 
L 127.934097 49.172648 
L 128.206622 49.165302 
L 128.459808 49.157956 
L 128.69524 49.15061 
L 128.914594 49.143263 
L 129.119611 49.135917 
L 129.312071 49.128571 
L 129.493765 49.121225 
L 129.666472 49.113879 
L 129.831934 49.106532 
L 129.991833 49.099186 
L 130.147775 49.09184 
L 130.301263 49.084494 
L 130.45369 49.077147 
L 130.606321 49.069801 
L 145.870561 49.069801 
L 145.870561 49.069801 
L 146.023191 49.077147 
L 146.175618 49.084494 
L 146.329107 49.09184 
L 146.485048 49.099186 
L 146.644948 49.106532 
L 146.81041 49.113879 
L 146.983116 49.121225 
L 147.16481 49.128571 
L 147.35727 49.135917 
L 147.562287 49.143263 
L 147.781641 49.15061 
L 148.017073 49.157956 
L 148.27026 49.165302 
L 148.542784 49.172648 
L 148.836113 49.179995 
L 149.151567 49.187341 
L 149.490299 49.194687 
L 149.853268 49.202033 
L 150.24122 49.209379 
L 150.654668 49.216726 
L 151.093875 49.224072 
L 151.558838 49.231418 
L 152.049286 49.238764 
L 152.564661 49.246111 
L 153.104125 49.253457 
L 153.666556 49.260803 
L 154.25055 49.268149 
L 154.854434 49.275496 
L 155.476274 49.282842 
L 156.113893 49.290188 
L 156.764887 49.297534 
L 157.426648 49.30488 
L 158.096392 49.312227 
L 158.771182 49.319573 
L 159.447958 49.326919 
L 160.123571 49.334265 
L 160.794816 49.341612 
L 161.45846 49.348958 
L 162.11128 49.356304 
L 162.750097 49.36365 
L 163.371804 49.370996 
L 163.973402 49.378343 
L 164.552027 49.385689 
L 165.104977 49.393035 
L 165.629739 49.400381 
L 166.124009 49.407728 
L 166.585713 49.415074 
L 167.01302 49.42242 
L 167.404354 49.429766 
L 167.758406 49.437113 
L 168.074133 49.444459 
L 168.350762 49.451805 
L 168.587789 49.459151 
L 168.784967 49.466497 
L 168.942302 49.473844 
L 169.060039 49.48119 
L 169.138648 49.488536 
L 169.178804 49.495882 
L 169.18137 49.503229 
L 169.147378 49.510575 
L 169.078004 49.517921 
L 168.97455 49.525267 
L 168.838417 49.532613 
L 168.671086 49.53996 
L 168.474095 49.547306 
L 168.249019 49.554652 
L 167.99745 49.561998 
L 167.720978 49.569345 
L 167.421174 49.576691 
L 167.099578 49.584037 
L 166.757685 49.591383 
L 166.396931 49.59873 
L 166.018691 49.606076 
L 165.624266 49.613422 
L 165.214884 49.620768 
L 164.791694 49.628114 
L 164.355766 49.635461 
L 163.908093 49.642807 
L 163.449594 49.650153 
L 162.981116 49.657499 
L 162.503442 49.664846 
L 162.017294 49.672192 
L 161.523341 49.679538 
L 161.022208 49.686884 
L 160.514482 49.69423 
L 160.000718 49.701577 
L 159.481451 49.708923 
L 158.9572 49.716269 
L 158.428478 49.723615 
L 157.895794 49.730962 
L 157.359664 49.738308 
L 156.820616 49.745654 
L 156.279189 49.753 
L 155.735945 49.760347 
L 155.191464 49.767693 
L 154.646352 49.775039 
L 154.101239 49.782385 
L 153.55678 49.789731 
L 153.013654 49.797078 
z
" clip-path="url(#p992abe34ba)" style="fill: #4c78a8; fill-opacity: 0.65"/>
   </g>
   <g id="PolyCollection_2">
    <path d="M 275.988032 337.56978 
L 248.032284 337.56978 
L 247.435895 337.56978 
L 246.840027 337.56978 
L 246.245327 337.56978 
L 245.652331 337.56978 
L 245.061477 337.56978 
L 244.473119 337.56978 
L 243.887544 337.56978 
L 243.305 337.569779 
L 242.725717 337.569779 
L 242.149932 337.569779 
L 241.577916 337.569779 
L 241.009997 337.569779 
L 240.446586 337.569779 
L 239.888198 337.569779 
L 239.335466 337.569779 
L 238.789156 337.569779 
L 238.25018 337.569778 
L 237.719592 337.569778 
L 237.198592 337.569778 
L 236.688517 337.569778 
L 236.190827 337.569778 
L 235.707091 337.569778 
L 235.238961 337.569778 
L 234.788149 337.569778 
L 234.356393 337.569777 
L 233.945431 337.569777 
L 233.556962 337.569777 
L 233.192612 337.569777 
L 232.853903 337.569777 
L 232.542219 337.569777 
L 232.258773 337.569777 
L 232.004582 337.569777 
L 231.780442 337.569777 
L 231.586911 337.569776 
L 231.424292 337.569776 
L 231.292626 337.569776 
L 231.191693 337.569776 
L 231.12101 337.569776 
L 231.079844 337.569776 
L 231.067229 337.569776 
L 231.081984 337.569776 
L 231.122745 337.569775 
L 231.18799 337.569775 
L 231.276082 337.569775 
L 231.385299 337.569775 
L 231.513883 337.569775 
L 231.660077 337.569775 
L 231.822171 337.569775 
L 231.99854 337.569775 
L 232.187687 337.569775 
L 232.388275 337.569774 
L 232.599163 337.569774 
L 232.819433 337.569774 
L 233.048405 337.569774 
L 233.285659 337.569774 
L 233.531036 337.569774 
L 233.784636 337.569774 
L 234.046813 337.569774 
L 234.318153 337.569774 
L 234.599452 337.569773 
L 234.891681 337.569773 
L 235.195953 337.569773 
L 235.513472 337.569773 
L 235.845491 337.569773 
L 236.193261 337.569773 
L 236.557977 337.569773 
L 236.940733 337.569773 
L 237.342467 337.569772 
L 237.763924 337.569772 
L 238.205609 337.569772 
L 238.66776 337.569772 
L 239.150322 337.569772 
L 239.652928 337.569772 
L 240.174892 337.569772 
L 240.715216 337.569772 
L 241.272593 337.569772 
L 241.845432 337.569771 
L 242.431888 337.569771 
L 243.02989 337.569771 
L 243.637192 337.569771 
L 244.251409 337.569771 
L 244.870074 337.569771 
L 245.490684 337.569771 
L 246.11075 337.569771 
L 246.727848 337.56977 
L 247.339662 337.56977 
L 247.944024 337.56977 
L 248.538948 337.56977 
L 249.122663 337.56977 
L 249.693627 337.56977 
L 250.250545 337.56977 
L 250.792374 337.56977 
L 251.318321 337.56977 
L 251.827837 337.569769 
L 252.320598 337.569769 
L 252.796493 337.569769 
L 253.255593 337.569769 
L 253.69813 337.569769 
L 254.124465 337.569769 
L 269.89585 337.569769 
L 269.89585 337.569769 
L 270.322185 337.569769 
L 270.764722 337.569769 
L 271.223823 337.569769 
L 271.699717 337.569769 
L 272.192479 337.569769 
L 272.701994 337.56977 
L 273.227942 337.56977 
L 273.769771 337.56977 
L 274.326689 337.56977 
L 274.897653 337.56977 
L 275.481368 337.56977 
L 276.076292 337.56977 
L 276.680654 337.56977 
L 277.292467 337.56977 
L 277.909566 337.569771 
L 278.529632 337.569771 
L 279.150242 337.569771 
L 279.768907 337.569771 
L 280.383124 337.569771 
L 280.990425 337.569771 
L 281.588428 337.569771 
L 282.174883 337.569771 
L 282.747723 337.569772 
L 283.3051 337.569772 
L 283.845423 337.569772 
L 284.367388 337.569772 
L 284.869994 337.569772 
L 285.352555 337.569772 
L 285.814707 337.569772 
L 286.256392 337.569772 
L 286.677848 337.569772 
L 287.079583 337.569773 
L 287.462338 337.569773 
L 287.827055 337.569773 
L 288.174824 337.569773 
L 288.506843 337.569773 
L 288.824362 337.569773 
L 289.128634 337.569773 
L 289.420864 337.569773 
L 289.702163 337.569774 
L 289.973503 337.569774 
L 290.23568 337.569774 
L 290.48928 337.569774 
L 290.734656 337.569774 
L 290.97191 337.569774 
L 291.200883 337.569774 
L 291.421152 337.569774 
L 291.632041 337.569774 
L 291.832629 337.569775 
L 292.021775 337.569775 
L 292.198145 337.569775 
L 292.360239 337.569775 
L 292.506433 337.569775 
L 292.635017 337.569775 
L 292.744234 337.569775 
L 292.832325 337.569775 
L 292.897571 337.569775 
L 292.938332 337.569776 
L 292.953087 337.569776 
L 292.940472 337.569776 
L 292.899306 337.569776 
L 292.828623 337.569776 
L 292.727689 337.569776 
L 292.596024 337.569776 
L 292.433405 337.569776 
L 292.239873 337.569777 
L 292.015734 337.569777 
L 291.761543 337.569777 
L 291.478097 337.569777 
L 291.166412 337.569777 
L 290.827704 337.569777 
L 290.463354 337.569777 
L 290.074884 337.569777 
L 289.663922 337.569777 
L 289.232167 337.569778 
L 288.781355 337.569778 
L 288.313225 337.569778 
L 287.829489 337.569778 
L 287.331799 337.569778 
L 286.821724 337.569778 
L 286.300724 337.569778 
L 285.770136 337.569778 
L 285.231159 337.569779 
L 284.68485 337.569779 
L 284.132118 337.569779 
L 283.573729 337.569779 
L 283.010319 337.569779 
L 282.4424 337.569779 
L 281.870383 337.569779 
L 281.294598 337.569779 
L 280.715316 337.569779 
L 280.132772 337.56978 
L 279.547197 337.56978 
L 278.958838 337.56978 
L 278.367984 337.56978 
L 277.774989 337.56978 
L 277.180289 337.56978 
L 276.58442 337.56978 
L 275.988032 337.56978 
z
" clip-path="url(#p992abe34ba)" style="fill: #4c78a8; fill-opacity: 0.65"/>
   </g>
   <g id="PolyCollection_3">
    <path d="M 398.21196 337.571897 
L 373.35179 337.571897 
L 372.528867 337.571897 
L 371.690816 337.571897 
L 370.839793 337.571897 
L 369.978061 337.571897 
L 369.108026 337.571897 
L 368.232265 337.571896 
L 367.353563 337.571896 
L 366.474944 337.571896 
L 365.599693 337.571896 
L 364.731372 337.571896 
L 363.87382 337.571896 
L 363.031143 337.571896 
L 362.207677 337.571896 
L 361.407939 337.571896 
L 360.636564 337.571896 
L 359.898217 337.571896 
L 359.197497 337.571895 
L 358.538828 337.571895 
L 357.926345 337.571895 
L 357.363778 337.571895 
L 356.854342 337.571895 
L 356.400636 337.571895 
L 356.004556 337.571895 
L 355.66723 337.571895 
L 355.388976 337.571895 
L 355.169288 337.571895 
L 355.006853 337.571895 
L 354.899593 337.571895 
L 354.844741 337.571894 
L 354.838946 337.571894 
L 354.878393 337.571894 
L 354.958953 337.571894 
L 355.076341 337.571894 
L 355.22628 337.571894 
L 355.40467 337.571894 
L 355.607746 337.571894 
L 355.832224 337.571894 
L 356.075426 337.571894 
L 356.335376 337.571894 
L 356.610869 337.571894 
L 356.901496 337.571893 
L 357.207642 337.571893 
L 357.530432 337.571893 
L 357.871648 337.571893 
L 358.233612 337.571893 
L 358.619029 337.571893 
L 359.030815 337.571893 
L 359.471905 337.571893 
L 359.945047 337.571893 
L 360.452607 337.571893 
L 360.996373 337.571893 
L 361.577385 337.571892 
L 362.195793 337.571892 
L 362.850743 337.571892 
L 363.54031 337.571892 
L 364.261478 337.571892 
L 365.010162 337.571892 
L 365.781276 337.571892 
L 366.568857 337.571892 
L 367.366213 337.571892 
L 368.16612 337.571892 
L 368.961034 337.571892 
L 369.743329 337.571892 
L 370.505533 337.571891 
L 371.240568 337.571891 
L 371.941971 337.571891 
L 372.604097 337.571891 
L 373.222285 337.571891 
L 373.792992 337.571891 
L 374.313883 337.571891 
L 374.783872 337.571891 
L 375.203125 337.571891 
L 375.573006 337.571891 
L 375.895995 337.571891 
L 376.175564 337.57189 
L 376.416019 337.57189 
L 376.622326 337.57189 
L 376.799924 337.57189 
L 376.954524 337.57189 
L 377.091918 337.57189 
L 377.217798 337.57189 
L 377.337583 337.57189 
L 377.45628 337.57189 
L 377.578363 337.57189 
L 377.707682 337.57189 
L 377.847406 337.57189 
L 377.999989 337.571889 
L 378.167169 337.571889 
L 378.349989 337.571889 
L 378.54884 337.571889 
L 378.763526 337.571889 
L 378.993329 337.571889 
L 379.237099 337.571889 
L 379.493332 337.571889 
L 379.760259 337.571889 
L 380.035925 337.571889 
L 380.318266 337.571889 
L 380.605172 337.571889 
L 380.894549 337.571888 
L 390.669201 337.571888 
L 390.669201 337.571888 
L 390.958578 337.571889 
L 391.245484 337.571889 
L 391.527825 337.571889 
L 391.803491 337.571889 
L 392.070418 337.571889 
L 392.326651 337.571889 
L 392.570421 337.571889 
L 392.800224 337.571889 
L 393.01491 337.571889 
L 393.213761 337.571889 
L 393.396581 337.571889 
L 393.563761 337.571889 
L 393.716344 337.57189 
L 393.856068 337.57189 
L 393.985387 337.57189 
L 394.10747 337.57189 
L 394.226167 337.57189 
L 394.345952 337.57189 
L 394.471832 337.57189 
L 394.609226 337.57189 
L 394.763826 337.57189 
L 394.941424 337.57189 
L 395.147731 337.57189 
L 395.388186 337.57189 
L 395.667755 337.571891 
L 395.990744 337.571891 
L 396.360625 337.571891 
L 396.779878 337.571891 
L 397.249867 337.571891 
L 397.770758 337.571891 
L 398.341465 337.571891 
L 398.959653 337.571891 
L 399.621779 337.571891 
L 400.323182 337.571891 
L 401.058217 337.571891 
L 401.820421 337.571892 
L 402.602716 337.571892 
L 403.39763 337.571892 
L 404.197537 337.571892 
L 404.994893 337.571892 
L 405.782474 337.571892 
L 406.553588 337.571892 
L 407.302272 337.571892 
L 408.02344 337.571892 
L 408.713007 337.571892 
L 409.367957 337.571892 
L 409.986365 337.571892 
L 410.567377 337.571893 
L 411.111143 337.571893 
L 411.618703 337.571893 
L 412.091845 337.571893 
L 412.532935 337.571893 
L 412.944721 337.571893 
L 413.330138 337.571893 
L 413.692102 337.571893 
L 414.033318 337.571893 
L 414.356108 337.571893 
L 414.662254 337.571893 
L 414.952881 337.571894 
L 415.228374 337.571894 
L 415.488324 337.571894 
L 415.731526 337.571894 
L 415.956004 337.571894 
L 416.15908 337.571894 
L 416.33747 337.571894 
L 416.487409 337.571894 
L 416.604797 337.571894 
L 416.685357 337.571894 
L 416.724804 337.571894 
L 416.719009 337.571894 
L 416.664157 337.571895 
L 416.556897 337.571895 
L 416.394462 337.571895 
L 416.174774 337.571895 
L 415.89652 337.571895 
L 415.559194 337.571895 
L 415.163114 337.571895 
L 414.709408 337.571895 
L 414.199972 337.571895 
L 413.637405 337.571895 
L 413.024922 337.571895 
L 412.366253 337.571895 
L 411.665533 337.571896 
L 410.927186 337.571896 
L 410.155811 337.571896 
L 409.356073 337.571896 
L 408.532607 337.571896 
L 407.68993 337.571896 
L 406.832378 337.571896 
L 405.964057 337.571896 
L 405.088806 337.571896 
L 404.210187 337.571896 
L 403.331485 337.571896 
L 402.455724 337.571897 
L 401.585689 337.571897 
L 400.723957 337.571897 
L 399.872934 337.571897 
L 399.034883 337.571897 
L 398.21196 337.571897 
z
" clip-path="url(#p992abe34ba)" style="fill: #4c78a8; fill-opacity: 0.65"/>
   </g>
   <g id="PolyCollection_4">
    <path d="M 523.043599 337.578936 
L 496.063585 337.578936 
L 494.711502 337.578935 
L 493.326158 337.578935 
L 491.921574 337.578935 
L 490.513016 337.578934 
L 489.116648 337.578934 
L 487.749146 337.578934 
L 486.427278 337.578933 
L 485.16746 337.578933 
L 483.985335 337.578933 
L 482.895356 337.578932 
L 481.910428 337.578932 
L 481.041597 337.578932 
L 480.297828 337.578931 
L 479.685844 337.578931 
L 479.210069 337.578931 
L 478.872645 337.57893 
L 478.673528 337.57893 
L 478.610663 337.57893 
L 478.680196 337.578929 
L 478.876741 337.578929 
L 479.19366 337.578929 
L 479.623351 337.578928 
L 480.157522 337.578928 
L 480.787445 337.578928 
L 481.504174 337.578927 
L 482.298725 337.578927 
L 483.16221 337.578927 
L 484.085934 337.578927 
L 485.061449 337.578926 
L 486.080581 337.578926 
L 487.135429 337.578926 
L 488.218351 337.578925 
L 489.321943 337.578925 
L 490.439013 337.578925 
L 491.562568 337.578924 
L 492.685807 337.578924 
L 493.802128 337.578924 
L 494.905151 337.578923 
L 495.98875 337.578923 
L 497.047103 337.578923 
L 498.07474 337.578922 
L 499.066606 337.578922 
L 500.018114 337.578922 
L 500.925198 337.578921 
L 501.784361 337.578921 
L 502.592706 337.578921 
L 503.347954 337.57892 
L 504.048453 337.57892 
L 504.693161 337.57892 
L 505.281625 337.578919 
L 505.813939 337.578919 
L 506.29069 337.578919 
L 506.712894 337.578918 
L 507.081932 337.578918 
L 507.399476 337.578918 
L 507.667419 337.578917 
L 507.887804 337.578917 
L 508.062773 337.578917 
L 508.194508 337.578916 
L 508.285199 337.578916 
L 508.337021 337.578916 
L 508.352115 337.578915 
L 508.332601 337.578915 
L 508.280586 337.578915 
L 508.198192 337.578914 
L 508.087586 337.578914 
L 507.951022 337.578914 
L 507.79087 337.578913 
L 507.609661 337.578913 
L 507.410106 337.578913 
L 507.195119 337.578912 
L 506.967826 337.578912 
L 506.731552 337.578912 
L 506.489805 337.578911 
L 506.246238 337.578911 
L 506.004598 337.578911 
L 505.768666 337.57891 
L 505.542186 337.57891 
L 505.328786 337.57891 
L 505.131903 337.578909 
L 504.954706 337.578909 
L 504.800021 337.578909 
L 504.670271 337.578908 
L 504.567423 337.578908 
L 504.49295 337.578908 
L 504.447812 337.578907 
L 504.432442 337.578907 
L 504.446759 337.578907 
L 504.490185 337.578906 
L 504.561682 337.578906 
L 504.659792 337.578906 
L 504.782691 337.578905 
L 504.928244 337.578905 
L 505.094063 337.578905 
L 505.27757 337.578904 
L 505.476054 337.578904 
L 505.686728 337.578904 
L 505.906784 337.578903 
L 506.133442 337.578903 
L 512.973742 337.578903 
L 512.973742 337.578903 
L 513.2004 337.578903 
L 513.420457 337.578904 
L 513.63113 337.578904 
L 513.829614 337.578904 
L 514.013121 337.578905 
L 514.17894 337.578905 
L 514.324493 337.578905 
L 514.447392 337.578906 
L 514.545503 337.578906 
L 514.616999 337.578906 
L 514.660425 337.578907 
L 514.674742 337.578907 
L 514.659372 337.578907 
L 514.614234 337.578908 
L 514.539762 337.578908 
L 514.436913 337.578908 
L 514.307163 337.578909 
L 514.152478 337.578909 
L 513.975281 337.578909 
L 513.778399 337.57891 
L 513.564999 337.57891 
L 513.338518 337.57891 
L 513.102586 337.578911 
L 512.860946 337.578911 
L 512.617379 337.578911 
L 512.375633 337.578912 
L 512.139359 337.578912 
L 511.912065 337.578912 
L 511.697079 337.578913 
L 511.497523 337.578913 
L 511.316314 337.578913 
L 511.156163 337.578914 
L 511.019598 337.578914 
L 510.908992 337.578914 
L 510.826598 337.578915 
L 510.774583 337.578915 
L 510.755069 337.578915 
L 510.770164 337.578916 
L 510.821985 337.578916 
L 510.912677 337.578916 
L 511.044412 337.578917 
L 511.21938 337.578917 
L 511.439766 337.578917 
L 511.707708 337.578918 
L 512.025252 337.578918 
L 512.39429 337.578918 
L 512.816495 337.578919 
L 513.293245 337.578919 
L 513.825559 337.578919 
L 514.414024 337.57892 
L 515.058732 337.57892 
L 515.75923 337.57892 
L 516.514478 337.578921 
L 517.322823 337.578921 
L 518.181986 337.578921 
L 519.089071 337.578922 
L 520.040578 337.578922 
L 521.032444 337.578922 
L 522.060082 337.578923 
L 523.118434 337.578923 
L 524.202034 337.578923 
L 525.305056 337.578924 
L 526.421377 337.578924 
L 527.544616 337.578924 
L 528.668171 337.578925 
L 529.785241 337.578925 
L 530.888833 337.578925 
L 531.971755 337.578926 
L 533.026603 337.578926 
L 534.045735 337.578926 
L 535.02125 337.578927 
L 535.944974 337.578927 
L 536.808459 337.578927 
L 537.60301 337.578927 
L 538.319739 337.578928 
L 538.949662 337.578928 
L 539.483833 337.578928 
L 539.913524 337.578929 
L 540.230443 337.578929 
L 540.426989 337.578929 
L 540.496521 337.57893 
L 540.433656 337.57893 
L 540.23454 337.57893 
L 539.897115 337.578931 
L 539.42134 337.578931 
L 538.809356 337.578931 
L 538.065587 337.578932 
L 537.196757 337.578932 
L 536.211828 337.578932 
L 535.121849 337.578933 
L 533.939724 337.578933 
L 532.679907 337.578933 
L 531.358038 337.578934 
L 529.990537 337.578934 
L 528.594168 337.578934 
L 527.18561 337.578935 
L 525.781026 337.578935 
L 524.395682 337.578935 
L 523.043599 337.578936 
z
" clip-path="url(#p992abe34ba)" style="fill: #4c78a8; fill-opacity: 0.65"/>
   </g>
   <g id="PolyCollection_5">
    <path d="M 633.570365 337.653324 
L 633.080253 337.653324 
L 633.091222 337.653254 
L 633.121268 337.653184 
L 633.163022 337.653113 
L 633.207528 337.653043 
L 633.247309 337.652973 
L 633.278175 337.652903 
L 633.299319 337.652833 
L 633.312232 337.652763 
L 633.319305 337.652693 
L 633.322794 337.652623 
L 633.324348 337.652552 
L 633.324974 337.652482 
L 633.325203 337.652412 
L 633.325278 337.652342 
L 633.325301 337.652272 
L 633.325307 337.652202 
L 633.325309 337.652132 
L 633.325309 337.652062 
L 633.325309 337.651992 
L 633.325309 337.651921 
L 633.325309 337.651851 
L 633.325309 337.651781 
L 633.325309 337.651711 
L 633.325309 337.651641 
L 633.325309 337.651571 
L 633.325309 337.651501 
L 633.325309 337.651431 
L 633.325309 337.65136 
L 633.325309 337.65129 
L 633.325309 337.65122 
L 633.325309 337.65115 
L 633.325309 337.65108 
L 633.325309 337.65101 
L 633.325309 337.65094 
L 633.325309 337.65087 
L 633.325309 337.650799 
L 633.325309 337.650729 
L 633.325309 337.650659 
L 633.325309 337.650589 
L 633.325309 337.650519 
L 633.325309 337.650449 
L 633.325309 337.650379 
L 633.325309 337.650309 
L 633.325309 337.650238 
L 633.325309 337.650168 
L 633.325309 337.650098 
L 633.325309 337.650028 
L 633.325309 337.649958 
L 633.325309 337.649888 
L 633.325309 337.649818 
L 633.325309 337.649748 
L 633.325309 337.649677 
L 633.325309 337.649607 
L 633.325309 337.649537 
L 633.325309 337.649467 
L 633.325309 337.649397 
L 633.325309 337.649327 
L 633.325309 337.649257 
L 633.325309 337.649187 
L 633.325309 337.649116 
L 633.325309 337.649046 
L 633.325309 337.648976 
L 633.325309 337.648906 
L 633.325309 337.648836 
L 633.325309 337.648766 
L 633.325309 337.648696 
L 633.325309 337.648626 
L 633.325309 337.648555 
L 633.325309 337.648485 
L 633.325309 337.648415 
L 633.325309 337.648345 
L 633.325309 337.648275 
L 633.325309 337.648205 
L 633.325309 337.648135 
L 633.325309 337.648065 
L 633.325309 337.647994 
L 633.325309 337.647924 
L 633.325309 337.647854 
L 633.325309 337.647784 
L 633.325306 337.647714 
L 633.325289 337.647644 
L 633.325214 337.647574 
L 633.324891 337.647504 
L 633.323633 337.647433 
L 633.319186 337.647363 
L 633.304896 337.647293 
L 633.263211 337.647223 
L 633.152924 337.647153 
L 632.888625 337.647083 
L 632.315863 337.647013 
L 631.195958 337.646943 
L 629.226476 337.646872 
L 626.125474 337.646802 
L 621.784543 337.646732 
L 616.444349 337.646662 
L 610.79275 337.646592 
L 605.879546 337.646522 
L 602.818829 337.646452 
L 602.38238 337.646382 
L 664.268239 337.646382 
L 664.268239 337.646382 
L 663.83179 337.646452 
L 660.771073 337.646522 
L 655.857868 337.646592 
L 650.20627 337.646662 
L 644.866076 337.646732 
L 640.525144 337.646802 
L 637.424143 337.646872 
L 635.454661 337.646943 
L 634.334756 337.647013 
L 633.761994 337.647083 
L 633.497694 337.647153 
L 633.387408 337.647223 
L 633.345722 337.647293 
L 633.331433 337.647363 
L 633.326985 337.647433 
L 633.325728 337.647504 
L 633.325405 337.647574 
L 633.325329 337.647644 
L 633.325313 337.647714 
L 633.32531 337.647784 
L 633.325309 337.647854 
L 633.325309 337.647924 
L 633.325309 337.647994 
L 633.325309 337.648065 
L 633.325309 337.648135 
L 633.325309 337.648205 
L 633.325309 337.648275 
L 633.325309 337.648345 
L 633.325309 337.648415 
L 633.325309 337.648485 
L 633.325309 337.648555 
L 633.325309 337.648626 
L 633.325309 337.648696 
L 633.325309 337.648766 
L 633.325309 337.648836 
L 633.325309 337.648906 
L 633.325309 337.648976 
L 633.325309 337.649046 
L 633.325309 337.649116 
L 633.325309 337.649187 
L 633.325309 337.649257 
L 633.325309 337.649327 
L 633.325309 337.649397 
L 633.325309 337.649467 
L 633.325309 337.649537 
L 633.325309 337.649607 
L 633.325309 337.649677 
L 633.325309 337.649748 
L 633.325309 337.649818 
L 633.325309 337.649888 
L 633.325309 337.649958 
L 633.325309 337.650028 
L 633.325309 337.650098 
L 633.325309 337.650168 
L 633.325309 337.650238 
L 633.325309 337.650309 
L 633.325309 337.650379 
L 633.325309 337.650449 
L 633.325309 337.650519 
L 633.325309 337.650589 
L 633.325309 337.650659 
L 633.325309 337.650729 
L 633.325309 337.650799 
L 633.325309 337.65087 
L 633.325309 337.65094 
L 633.325309 337.65101 
L 633.325309 337.65108 
L 633.325309 337.65115 
L 633.325309 337.65122 
L 633.325309 337.65129 
L 633.325309 337.65136 
L 633.325309 337.651431 
L 633.325309 337.651501 
L 633.325309 337.651571 
L 633.325309 337.651641 
L 633.325309 337.651711 
L 633.325309 337.651781 
L 633.325309 337.651851 
L 633.325309 337.651921 
L 633.325309 337.651992 
L 633.325309 337.652062 
L 633.32531 337.652132 
L 633.325311 337.652202 
L 633.325318 337.652272 
L 633.32534 337.652342 
L 633.325416 337.652412 
L 633.325645 337.652482 
L 633.326271 337.652552 
L 633.327825 337.652623 
L 633.331313 337.652693 
L 633.338386 337.652763 
L 633.3513 337.652833 
L 633.372444 337.652903 
L 633.403309 337.652973 
L 633.443091 337.653043 
L 633.487596 337.653113 
L 633.529351 337.653184 
L 633.559397 337.653254 
L 633.570365 337.653324 
z
" clip-path="url(#p992abe34ba)" style="fill: #4c78a8; fill-opacity: 0.65"/>
   </g>
   <g id="LineCollection_1">
    <path d="M 122.766976 49.486583 
L 153.709905 49.486583 
" clip-path="url(#p992abe34ba)" style="fill: none; stroke: #1f77b4; stroke-width: 1.5"/>
    <path d="M 246.538693 337.569775 
L 277.481622 337.569775 
" clip-path="url(#p992abe34ba)" style="fill: none; stroke: #1f77b4; stroke-width: 1.5"/>
    <path d="M 370.31041 337.571894 
L 401.25334 337.571894 
" clip-path="url(#p992abe34ba)" style="fill: none; stroke: #1f77b4; stroke-width: 1.5"/>
    <path d="M 494.082128 337.578926 
L 525.025057 337.578926 
" clip-path="url(#p992abe34ba)" style="fill: none; stroke: #1f77b4; stroke-width: 1.5"/>
    <path d="M 617.853845 337.64646 
L 648.796774 337.64646 
" clip-path="url(#p992abe34ba)" style="fill: none; stroke: #1f77b4; stroke-width: 1.5"/>
   </g>
   <g id="LineCollection_2">
    <path d="M 122.766976 49.069801 
L 153.709905 49.069801 
" clip-path="url(#p992abe34ba)" style="fill: none; stroke: #1f77b4; stroke-width: 1.5"/>
    <path d="M 246.538693 337.569769 
L 277.481622 337.569769 
" clip-path="url(#p992abe34ba)" style="fill: none; stroke: #1f77b4; stroke-width: 1.5"/>
    <path d="M 370.31041 337.571888 
L 401.25334 337.571888 
" clip-path="url(#p992abe34ba)" style="fill: none; stroke: #1f77b4; stroke-width: 1.5"/>
    <path d="M 494.082128 337.578903 
L 525.025057 337.578903 
" clip-path="url(#p992abe34ba)" style="fill: none; stroke: #1f77b4; stroke-width: 1.5"/>
    <path d="M 617.853845 337.646382 
L 648.796774 337.646382 
" clip-path="url(#p992abe34ba)" style="fill: none; stroke: #1f77b4; stroke-width: 1.5"/>
   </g>
   <g id="LineCollection_3">
    <path d="M 122.766976 49.797078 
L 153.709905 49.797078 
" clip-path="url(#p992abe34ba)" style="fill: none; stroke: #1f77b4; stroke-width: 1.5"/>
    <path d="M 246.538693 337.56978 
L 277.481622 337.56978 
" clip-path="url(#p992abe34ba)" style="fill: none; stroke: #1f77b4; stroke-width: 1.5"/>
    <path d="M 370.31041 337.571897 
L 401.25334 337.571897 
" clip-path="url(#p992abe34ba)" style="fill: none; stroke: #1f77b4; stroke-width: 1.5"/>
    <path d="M 494.082128 337.578936 
L 525.025057 337.578936 
" clip-path="url(#p992abe34ba)" style="fill: none; stroke: #1f77b4; stroke-width: 1.5"/>
    <path d="M 617.853845 337.653324 
L 648.796774 337.653324 
" clip-path="url(#p992abe34ba)" style="fill: none; stroke: #1f77b4; stroke-width: 1.5"/>
   </g>
   <g id="LineCollection_4">
    <path d="M 138.238441 49.797078 
L 138.238441 49.069801 
" clip-path="url(#p992abe34ba)" style="fill: none; stroke: #1f77b4; stroke-width: 1.5"/>
    <path d="M 262.010158 337.56978 
L 262.010158 337.569769 
" clip-path="url(#p992abe34ba)" style="fill: none; stroke: #1f77b4; stroke-width: 1.5"/>
    <path d="M 385.781875 337.571897 
L 385.781875 337.571888 
" clip-path="url(#p992abe34ba)" style="fill: none; stroke: #1f77b4; stroke-width: 1.5"/>
    <path d="M 509.553592 337.578936 
L 509.553592 337.578903 
" clip-path="url(#p992abe34ba)" style="fill: none; stroke: #1f77b4; stroke-width: 1.5"/>
    <path d="M 633.325309 337.653324 
L 633.325309 337.646382 
" clip-path="url(#p992abe34ba)" style="fill: none; stroke: #1f77b4; stroke-width: 1.5"/>
   </g>
   <g id="LineCollection_5">
    <path d="M 122.766976 49.472347 
L 153.709905 49.472347 
" clip-path="url(#p992abe34ba)" style="fill: none; stroke: #1f77b4; stroke-width: 1.5"/>
    <path d="M 246.538693 337.569775 
L 277.481622 337.569775 
" clip-path="url(#p992abe34ba)" style="fill: none; stroke: #1f77b4; stroke-width: 1.5"/>
    <path d="M 370.31041 337.571894 
L 401.25334 337.571894 
" clip-path="url(#p992abe34ba)" style="fill: none; stroke: #1f77b4; stroke-width: 1.5"/>
    <path d="M 494.082128 337.578929 
L 525.025057 337.578929 
" clip-path="url(#p992abe34ba)" style="fill: none; stroke: #1f77b4; stroke-width: 1.5"/>
    <path d="M 617.853845 337.646407 
L 648.796774 337.646407 
" clip-path="url(#p992abe34ba)" style="fill: none; stroke: #1f77b4; stroke-width: 1.5"/>
   </g>
   <g id="patch_3">
    <path d="M 79.446875 352.0825 
L 79.446875 34.640625 
" style="fill: none; stroke: #808080; stroke-width: 0.8; stroke-linejoin: miter; stroke-linecap: square"/>
   </g>
   <g id="patch_4">
    <path d="M 79.446875 352.0825 
L 692.116875 352.0825 
" style="fill: none; stroke: #808080; stroke-width: 0.8; stroke-linejoin: miter; stroke-linecap: square"/>
   </g>
   <g id="text_14">
    <text style="font: 22px 'PingFang SC', 'Heiti SC', 'STHeiti', 'Calibri', 'Arial', 'Helvetica Neue', 'Arial Unicode MS', 'Noto Sans CJK SC', 'DejaVu Sans', sans-serif; text-anchor: middle" x="385.781875" y="28.640625" transform="rotate(-0 385.781875 28.640625)">Reduce-Scatter · 256 MB Rank 分布（Violin）</text>
   </g>
  </g>
 </g>
 <defs>
  <clipPath id="p992abe34ba">
   <rect x="79.446875" y="34.640625" width="612.67" height="317.441875"/>
  </clipPath>
 </defs>
</svg>
