<?xml version="1.0" encoding="utf-8" standalone="no"?>
<!DOCTYPE svg PUBLIC "-//W3C//DTD SVG 1.1//EN"
  "http://www.w3.org/Graphics/SVG/1.1/DTD/svg11.dtd">
<svg xmlns:xlink="http://www.w3.org/1999/xlink" width="702.916875pt" height="414.8025pt" viewBox="0 0 702.916875 414.8025" xmlns="http://www.w3.org/2000/svg" version="1.1">
 <metadata>
  <rdf:RDF xmlns:dc="http://purl.org/dc/elements/1.1/" xmlns:cc="http://creativecommons.org/ns#" xmlns:rdf="http://www.w3.org/1999/02/22-rdf-syntax-ns#">
   <cc:Work>
    <dc:type rdf:resource="http://purl.org/dc/dcmitype/StillImage"/>
    <dc:date>2026-07-11T21:56:31.851933</dc:date>
    <dc:format>image/svg+xml</dc:format>
    <dc:creator>
     <cc:Agent>
      <dc:title>Matplotlib v3.9.4, https://matplotlib.org/</dc:title>
     </cc:Agent>
    </dc:creator>
   </cc:Work>
  </rdf:RDF>
 </metadata>
 <defs>
  <style type="text/css">*{stroke-linejoin: round; stroke-linecap: butt}</style>
 </defs>
 <g id="figure_1">
  <g id="patch_1">
   <path d="M 0 414.8025 
L 702.916875 414.8025 
L 702.916875 0 
L 0 0 
z
" style="fill: #ffffff"/>
  </g>
  <g id="axes_1">
   <g id="patch_2">
    <path d="M 79.446875 352.0825 
L 692.116875 352.0825 
L 692.116875 34.640625 
L 79.446875 34.640625 
z
" style="fill: #ffffff"/>
   </g>
   <g id="matplotlib.axis_1">
    <g id="xtick_1">
     <g id="line2d_1">
      <defs>
       <path id="mbd7a329494" d="M 0 0 
L 0 3.5 
" style="stroke: #808080; stroke-width: 0.8"/>
      </defs>
      <g>
       <use xlink:href="#mbd7a329494" x="138.238441" y="352.0825" style="fill: #808080; stroke: #808080; stroke-width: 0.8"/>
      </g>
     </g>
     <g id="text_1">
      <text style="fill: #808080; font: 22px 'PingFang SC', 'Heiti SC', 'STHeiti', 'Calibri', 'Arial', 'Helvetica Neue', 'Arial Unicode MS', 'Noto Sans CJK SC', 'DejaVu Sans', sans-serif; text-anchor: middle" x="138.238441" y="376.593125" transform="rotate(-0 138.238441 376.593125)">8</text>
     </g>
    </g>
    <g id="xtick_2">
     <g id="line2d_2">
      <g>
       <use xlink:href="#mbd7a329494" x="262.010158" y="352.0825" style="fill: #808080; stroke: #808080; stroke-width: 0.8"/>
      </g>
     </g>
     <g id="text_2">
      <text style="fill: #808080; font: 22px 'PingFang SC', 'Heiti SC', 'STHeiti', 'Calibri', 'Arial', 'Helvetica Neue', 'Arial Unicode MS', 'Noto Sans CJK SC', 'DejaVu Sans', sans-serif; text-anchor: middle" x="262.010158" y="376.593125" transform="rotate(-0 262.010158 376.593125)">16</text>
     </g>
    </g>
    <g id="xtick_3">
     <g id="line2d_3">
      <g>
       <use xlink:href="#mbd7a329494" x="385.781875" y="352.0825" style="fill: #808080; stroke: #808080; stroke-width: 0.8"/>
      </g>
     </g>
     <g id="text_3">
      <text style="fill: #808080; font: 22px 'PingFang SC', 'Heiti SC', 'STHeiti', 'Calibri', 'Arial', 'Helvetica Neue', 'Arial Unicode MS', 'Noto Sans CJK SC', 'DejaVu Sans', sans-serif; text-anchor: middle" x="385.781875" y="376.593125" transform="rotate(-0 385.781875 376.593125)">32</text>
     </g>
    </g>
    <g id="xtick_4">
     <g id="line2d_4">
      <g>
       <use xlink:href="#mbd7a329494" x="509.553592" y="352.0825" style="fill: #808080; stroke: #808080; stroke-width: 0.8"/>
      </g>
     </g>
     <g id="text_4">
      <text style="fill: #808080; font: 22px 'PingFang SC', 'Heiti SC', 'STHeiti', 'Calibri', 'Arial', 'Helvetica Neue', 'Arial Unicode MS', 'Noto Sans CJK SC', 'DejaVu Sans', sans-serif; text-anchor: middle" x="509.553592" y="376.593125" transform="rotate(-0 509.553592 376.593125)">64</text>
     </g>
    </g>
    <g id="xtick_5">
     <g id="line2d_5">
      <g>
       <use xlink:href="#mbd7a329494" x="633.325309" y="352.0825" style="fill: #808080; stroke: #808080; stroke-width: 0.8"/>
      </g>
     </g>
     <g id="text_5">
      <text style="fill: #808080; font: 22px 'PingFang SC', 'Heiti SC', 'STHeiti', 'Calibri', 'Arial', 'Helvetica Neue', 'Arial Unicode MS', 'Noto Sans CJK SC', 'DejaVu Sans', sans-serif; text-anchor: middle" x="633.325309" y="376.593125" transform="rotate(-0 633.325309 376.593125)">128</text>
     </g>
    </g>
    <g id="text_6">
     <text style="font: 22px 'PingFang SC', 'Heiti SC', 'STHeiti', 'Calibri', 'Arial', 'Helvetica Neue', 'Arial Unicode MS', 'Noto Sans CJK SC', 'DejaVu Sans', sans-serif; text-anchor: middle" x="385.781875" y="401.053125" transform="rotate(-0 385.781875 401.053125)">World 规模</text>
    </g>
   </g>
   <g id="matplotlib.axis_2">
    <g id="ytick_1">
     <g id="line2d_6">
      <path d="M 79.446875 338.269714 
L 692.116875 338.269714 
" clip-path="url(#p265db24df9)" style="fill: none; stroke-dasharray: 1,1.65; stroke-dashoffset: 0; stroke: #808080; stroke-opacity: 0.55"/>
     </g>
     <g id="line2d_7">
      <defs>
       <path id="mf7f663ef3e" d="M 0 0 
L -3.5 0 
" style="stroke: #808080; stroke-width: 0.8"/>
      </defs>
      <g>
       <use xlink:href="#mf7f663ef3e" x="79.446875" y="338.269714" style="fill: #808080; stroke: #808080; stroke-width: 0.8"/>
      </g>
     </g>
     <g id="text_7">
      <text style="fill: #808080; font: 22px 'PingFang SC', 'Heiti SC', 'STHeiti', 'Calibri', 'Arial', 'Helvetica Neue', 'Arial Unicode MS', 'Noto Sans CJK SC', 'DejaVu Sans', sans-serif; text-anchor: end" x="72.446875" y="347.025027" transform="rotate(-0 72.446875 347.025027)">0</text>
     </g>
    </g>
    <g id="ytick_2">
     <g id="line2d_8">
      <path d="M 79.446875 285.16007 
L 692.116875 285.16007 
" clip-path="url(#p265db24df9)" style="fill: none; stroke-dasharray: 1,1.65; stroke-dashoffset: 0; stroke: #808080; stroke-opacity: 0.55"/>
     </g>
     <g id="line2d_9">
      <g>
       <use xlink:href="#mf7f663ef3e" x="79.446875" y="285.16007" style="fill: #808080; stroke: #808080; stroke-width: 0.8"/>
      </g>
     </g>
     <g id="text_8">
      <text style="fill: #808080; font: 22px 'PingFang SC', 'Heiti SC', 'STHeiti', 'Calibri', 'Arial', 'Helvetica Neue', 'Arial Unicode MS', 'Noto Sans CJK SC', 'DejaVu Sans', sans-serif; text-anchor: end" x="72.446875" y="293.915382" transform="rotate(-0 72.446875 293.915382)">20</text>
     </g>
    </g>
    <g id="ytick_3">
     <g id="line2d_10">
      <path d="M 79.446875 232.050425 
L 692.116875 232.050425 
" clip-path="url(#p265db24df9)" style="fill: none; stroke-dasharray: 1,1.65; stroke-dashoffset: 0; stroke: #808080; stroke-opacity: 0.55"/>
     </g>
     <g id="line2d_11">
      <g>
       <use xlink:href="#mf7f663ef3e" x="79.446875" y="232.050425" style="fill: #808080; stroke: #808080; stroke-width: 0.8"/>
      </g>
     </g>
     <g id="text_9">
      <text style="fill: #808080; font: 22px 'PingFang SC', 'Heiti SC', 'STHeiti', 'Calibri', 'Arial', 'Helvetica Neue', 'Arial Unicode MS', 'Noto Sans CJK SC', 'DejaVu Sans', sans-serif; text-anchor: end" x="72.446875" y="240.805738" transform="rotate(-0 72.446875 240.805738)">40</text>
     </g>
    </g>
    <g id="ytick_4">
     <g id="line2d_12">
      <path d="M 79.446875 178.940781 
L 692.116875 178.940781 
" clip-path="url(#p265db24df9)" style="fill: none; stroke-dasharray: 1,1.65; stroke-dashoffset: 0; stroke: #808080; stroke-opacity: 0.55"/>
     </g>
     <g id="line2d_13">
      <g>
       <use xlink:href="#mf7f663ef3e" x="79.446875" y="178.940781" style="fill: #808080; stroke: #808080; stroke-width: 0.8"/>
      </g>
     </g>
     <g id="text_10">
      <text style="fill: #808080; font: 22px 'PingFang SC', 'Heiti SC', 'STHeiti', 'Calibri', 'Arial', 'Helvetica Neue', 'Arial Unicode MS', 'Noto Sans CJK SC', 'DejaVu Sans', sans-serif; text-anchor: end" x="72.446875" y="187.696093" transform="rotate(-0 72.446875 187.696093)">60</text>
     </g>
    </g>
    <g id="ytick_5">
     <g id="line2d_14">
      <path d="M 79.446875 125.831136 
L 692.116875 125.831136 
" clip-path="url(#p265db24df9)" style="fill: none; stroke-dasharray: 1,1.65; stroke-dashoffset: 0; stroke: #808080; stroke-opacity: 0.55"/>
     </g>
     <g id="line2d_15">
      <g>
       <use xlink:href="#mf7f663ef3e" x="79.446875" y="125.831136" style="fill: #808080; stroke: #808080; stroke-width: 0.8"/>
      </g>
     </g>
     <g id="text_11">
      <text style="fill: #808080; font: 22px 'PingFang SC', 'Heiti SC', 'STHeiti', 'Calibri', 'Arial', 'Helvetica Neue', 'Arial Unicode MS', 'Noto Sans CJK SC', 'DejaVu Sans', sans-serif; text-anchor: end" x="72.446875" y="134.586449" transform="rotate(-0 72.446875 134.586449)">80</text>
     </g>
    </g>
    <g id="ytick_6">
     <g id="line2d_16">
      <path d="M 79.446875 72.721492 
L 692.116875 72.721492 
" clip-path="url(#p265db24df9)" style="fill: none; stroke-dasharray: 1,1.65; stroke-dashoffset: 0; stroke: #808080; stroke-opacity: 0.55"/>
     </g>
     <g id="line2d_17">
      <g>
       <use xlink:href="#mf7f663ef3e" x="79.446875" y="72.721492" style="fill: #808080; stroke: #808080; stroke-width: 0.8"/>
      </g>
     </g>
     <g id="text_12">
      <text style="fill: #808080; font: 22px 'PingFang SC', 'Heiti SC', 'STHeiti', 'Calibri', 'Arial', 'Helvetica Neue', 'Arial Unicode MS', 'Noto Sans CJK SC', 'DejaVu Sans', sans-serif; text-anchor: end" x="72.446875" y="81.476804" transform="rotate(-0 72.446875 81.476804)">100</text>
     </g>
    </g>
    <g id="text_13">
     <text style="font: 22px 'PingFang SC', 'Heiti SC', 'STHeiti', 'Calibri', 'Arial', 'Helvetica Neue', 'Arial Unicode MS', 'Noto Sans CJK SC', 'DejaVu Sans', sans-serif; text-anchor: middle" x="28.929375" y="193.361562" transform="rotate(-90 28.929375 193.361562)">Bus 带宽 (GB/s)</text>
    </g>
   </g>
   <g id="PolyCollection_1">
    <path d="M 144.985488 49.677143 
L 131.491393 49.677143 
L 131.389936 49.671008 
L 131.294305 49.664873 
L 131.204057 49.658739 
L 131.118662 49.652604 
L 131.037512 49.646469 
L 130.959919 49.640334 
L 130.88513 49.634199 
L 130.812327 49.628065 
L 130.740635 49.62193 
L 130.669131 49.615795 
L 130.596852 49.60966 
L 130.522802 49.603526 
L 130.445955 49.597391 
L 130.365272 49.591256 
L 130.279698 49.585121 
L 130.188175 49.578987 
L 130.089646 49.572852 
L 129.983062 49.566717 
L 129.867385 49.560582 
L 129.741593 49.554448 
L 129.604687 49.548313 
L 129.455692 49.542178 
L 129.293662 49.536043 
L 129.117682 49.529908 
L 128.926871 49.523774 
L 128.720389 49.517639 
L 128.497434 49.511504 
L 128.257251 49.505369 
L 127.999132 49.499235 
L 127.722422 49.4931 
L 127.426526 49.486965 
L 127.110912 49.48083 
L 126.775115 49.474696 
L 126.418753 49.468561 
L 126.041525 49.462426 
L 125.643225 49.456291 
L 125.223751 49.450157 
L 124.783113 49.444022 
L 124.321444 49.437887 
L 123.839013 49.431752 
L 123.336231 49.425617 
L 122.813662 49.419483 
L 122.272036 49.413348 
L 121.712252 49.407213 
L 121.135393 49.401078 
L 120.542725 49.394944 
L 119.935705 49.388809 
L 119.315983 49.382674 
L 118.685403 49.376539 
L 118.046001 49.370405 
L 117.399998 49.36427 
L 116.749796 49.358135 
L 116.097966 49.352 
L 115.447234 49.345866 
L 114.800468 49.339731 
L 114.160658 49.333596 
L 113.530892 49.327461 
L 112.91434 49.321326 
L 112.31422 49.315192 
L 111.733775 49.309057 
L 111.176245 49.302922 
L 110.644834 49.296787 
L 110.142682 49.290653 
L 109.672833 49.284518 
L 109.238206 49.278383 
L 108.841563 49.272248 
L 108.485484 49.266114 
L 108.172338 49.259979 
L 107.904256 49.253844 
L 107.683117 49.247709 
L 107.51052 49.241575 
L 107.387771 49.23544 
L 107.315872 49.229305 
L 107.295511 49.22317 
L 107.327055 49.217035 
L 107.410546 49.210901 
L 107.545711 49.204766 
L 107.731957 49.198631 
L 107.968387 49.192496 
L 108.253811 49.186362 
L 108.586757 49.180227 
L 108.965495 49.174092 
L 109.388052 49.167957 
L 109.852238 49.161823 
L 110.355668 49.155688 
L 110.895788 49.149553 
L 111.4699 49.143418 
L 112.075191 49.137284 
L 112.708758 49.131149 
L 113.367634 49.125014 
L 114.048817 49.118879 
L 114.749288 49.112744 
L 115.466045 49.10661 
L 116.196116 49.100475 
L 116.936583 49.09434 
L 117.684603 49.088205 
L 118.437422 49.082071 
L 119.192392 49.075936 
L 119.946982 49.069801 
L 156.529899 49.069801 
L 156.529899 49.069801 
L 157.284489 49.075936 
L 158.039459 49.082071 
L 158.792278 49.088205 
L 159.540298 49.09434 
L 160.280766 49.100475 
L 161.010836 49.10661 
L 161.727593 49.112744 
L 162.428065 49.118879 
L 163.109247 49.125014 
L 163.768124 49.131149 
L 164.401691 49.137284 
L 165.006982 49.143418 
L 165.581094 49.149553 
L 166.121213 49.155688 
L 166.624643 49.161823 
L 167.088829 49.167957 
L 167.511386 49.174092 
L 167.890124 49.180227 
L 168.22307 49.186362 
L 168.508494 49.192496 
L 168.744924 49.198631 
L 168.93117 49.204766 
L 169.066335 49.210901 
L 169.149827 49.217035 
L 169.18137 49.22317 
L 169.161009 49.229305 
L 169.089111 49.23544 
L 168.966362 49.241575 
L 168.793764 49.247709 
L 168.572625 49.253844 
L 168.304544 49.259979 
L 167.991397 49.266114 
L 167.635318 49.272248 
L 167.238675 49.278383 
L 166.804048 49.284518 
L 166.3342 49.290653 
L 165.832048 49.296787 
L 165.300637 49.302922 
L 164.743106 49.309057 
L 164.162661 49.315192 
L 163.562541 49.321326 
L 162.945989 49.327461 
L 162.316224 49.333596 
L 161.676413 49.339731 
L 161.029647 49.345866 
L 160.378916 49.352 
L 159.727085 49.358135 
L 159.076883 49.36427 
L 158.430881 49.370405 
L 157.791478 49.376539 
L 157.160899 49.382674 
L 156.541177 49.388809 
L 155.934156 49.394944 
L 155.341488 49.401078 
L 154.764629 49.407213 
L 154.204846 49.413348 
L 153.663219 49.419483 
L 153.14065 49.425617 
L 152.637868 49.431752 
L 152.155437 49.437887 
L 151.693769 49.444022 
L 151.253131 49.450157 
L 150.833656 49.456291 
L 150.435356 49.462426 
L 150.058128 49.468561 
L 149.701766 49.474696 
L 149.36597 49.48083 
L 149.050355 49.486965 
L 148.754459 49.4931 
L 148.47775 49.499235 
L 148.21963 49.505369 
L 147.979447 49.511504 
L 147.756492 49.517639 
L 147.55001 49.523774 
L 147.3592 49.529908 
L 147.183219 49.536043 
L 147.021189 49.542178 
L 146.872194 49.548313 
L 146.735288 49.554448 
L 146.609497 49.560582 
L 146.493819 49.566717 
L 146.387235 49.572852 
L 146.288706 49.578987 
L 146.197184 49.585121 
L 146.11161 49.591256 
L 146.030926 49.597391 
L 145.95408 49.603526 
L 145.880029 49.60966 
L 145.80775 49.615795 
L 145.736247 49.62193 
L 145.664555 49.628065 
L 145.591751 49.634199 
L 145.516962 49.640334 
L 145.43937 49.646469 
L 145.358219 49.652604 
L 145.272824 49.658739 
L 145.182576 49.664873 
L 145.086946 49.671008 
L 144.985488 49.677143 
z
" clip-path="url(#p265db24df9)" style="fill: #4c78a8; fill-opacity: 0.65"/>
   </g>
   <g id="PolyCollection_2">
    <path d="M 267.400182 337.549002 
L 256.620134 337.549002 
L 256.459764 337.549002 
L 256.301324 337.549002 
L 256.144049 337.549002 
L 255.987023 337.549002 
L 255.82919 337.549002 
L 255.669365 337.549002 
L 255.50625 337.549002 
L 255.338448 337.549001 
L 255.164482 337.549001 
L 254.982813 337.549001 
L 254.791859 337.549001 
L 254.590015 337.549001 
L 254.375676 337.549001 
L 254.147258 337.549001 
L 253.903217 337.549001 
L 253.64207 337.549001 
L 253.362418 337.549001 
L 253.062965 337.549001 
L 252.742541 337.549001 
L 252.400116 337.549 
L 252.034825 337.549 
L 251.645983 337.549 
L 251.233105 337.549 
L 250.795919 337.549 
L 250.334386 337.549 
L 249.848709 337.549 
L 249.339344 337.549 
L 248.807012 337.549 
L 248.252704 337.549 
L 247.677678 337.549 
L 247.083467 337.549 
L 246.471863 337.549 
L 245.844914 337.548999 
L 245.204907 337.548999 
L 244.554345 337.548999 
L 243.895928 337.548999 
L 243.232517 337.548999 
L 242.567104 337.548999 
L 241.902772 337.548999 
L 241.242657 337.548999 
L 240.589895 337.548999 
L 239.947586 337.548999 
L 239.318738 337.548999 
L 238.706226 337.548999 
L 238.112743 337.548999 
L 237.540759 337.548998 
L 236.992475 337.548998 
L 236.469798 337.548998 
L 235.974302 337.548998 
L 235.50721 337.548998 
L 235.069377 337.548998 
L 234.661281 337.548998 
L 234.283026 337.548998 
L 233.934349 337.548998 
L 233.614637 337.548998 
L 233.322955 337.548998 
L 233.058077 337.548998 
L 232.818528 337.548997 
L 232.602631 337.548997 
L 232.408556 337.548997 
L 232.234382 337.548997 
L 232.07815 337.548997 
L 231.937927 337.548997 
L 231.811867 337.548997 
L 231.698265 337.548997 
L 231.595621 337.548997 
L 231.502683 337.548997 
L 231.418501 337.548997 
L 231.342459 337.548997 
L 231.274311 337.548997 
L 231.214199 337.548996 
L 231.162671 337.548996 
L 231.120677 337.548996 
L 231.089563 337.548996 
L 231.071056 337.548996 
L 231.067229 337.548996 
L 231.080465 337.548996 
L 231.113413 337.548996 
L 231.168924 337.548996 
L 231.249997 337.548996 
L 231.359706 337.548996 
L 231.50113 337.548996 
L 231.677276 337.548995 
L 231.89101 337.548995 
L 232.144979 337.548995 
L 232.441541 337.548995 
L 232.782702 337.548995 
L 233.170056 337.548995 
L 233.604733 337.548995 
L 234.087357 337.548995 
L 234.618017 337.548995 
L 235.196242 337.548995 
L 235.820994 337.548995 
L 236.490669 337.548995 
L 237.203113 337.548995 
L 237.955647 337.548994 
L 238.745098 337.548994 
L 239.567849 337.548994 
L 240.419892 337.548994 
L 283.600424 337.548994 
L 283.600424 337.548994 
L 284.452467 337.548994 
L 285.275218 337.548994 
L 286.064669 337.548994 
L 286.817202 337.548995 
L 287.529647 337.548995 
L 288.199322 337.548995 
L 288.824074 337.548995 
L 289.402298 337.548995 
L 289.932958 337.548995 
L 290.415583 337.548995 
L 290.85026 337.548995 
L 291.237614 337.548995 
L 291.578775 337.548995 
L 291.875337 337.548995 
L 292.129306 337.548995 
L 292.34304 337.548995 
L 292.519186 337.548996 
L 292.66061 337.548996 
L 292.770319 337.548996 
L 292.851392 337.548996 
L 292.906903 337.548996 
L 292.93985 337.548996 
L 292.953087 337.548996 
L 292.94926 337.548996 
L 292.930752 337.548996 
L 292.899639 337.548996 
L 292.857645 337.548996 
L 292.806116 337.548996 
L 292.746005 337.548997 
L 292.677856 337.548997 
L 292.601814 337.548997 
L 292.517632 337.548997 
L 292.424695 337.548997 
L 292.32205 337.548997 
L 292.208449 337.548997 
L 292.082388 337.548997 
L 291.942166 337.548997 
L 291.785934 337.548997 
L 291.611759 337.548997 
L 291.417685 337.548997 
L 291.201787 337.548997 
L 290.962239 337.548998 
L 290.697361 337.548998 
L 290.405679 337.548998 
L 290.085967 337.548998 
L 289.73729 337.548998 
L 289.359035 337.548998 
L 288.950939 337.548998 
L 288.513105 337.548998 
L 288.046013 337.548998 
L 287.550517 337.548998 
L 287.02784 337.548998 
L 286.479557 337.548998 
L 285.907572 337.548999 
L 285.31409 337.548999 
L 284.701578 337.548999 
L 284.07273 337.548999 
L 283.430421 337.548999 
L 282.777659 337.548999 
L 282.117543 337.548999 
L 281.453212 337.548999 
L 280.787799 337.548999 
L 280.124388 337.548999 
L 279.46597 337.548999 
L 278.815409 337.548999 
L 278.175401 337.548999 
L 277.548453 337.549 
L 276.936849 337.549 
L 276.342637 337.549 
L 275.767612 337.549 
L 275.213303 337.549 
L 274.680972 337.549 
L 274.171607 337.549 
L 273.685929 337.549 
L 273.224396 337.549 
L 272.787211 337.549 
L 272.374333 337.549 
L 271.985491 337.549 
L 271.6202 337.549 
L 271.277775 337.549001 
L 270.95735 337.549001 
L 270.657898 337.549001 
L 270.378246 337.549001 
L 270.117099 337.549001 
L 269.873057 337.549001 
L 269.644639 337.549001 
L 269.430301 337.549001 
L 269.228457 337.549001 
L 269.037502 337.549001 
L 268.855833 337.549001 
L 268.681868 337.549001 
L 268.514066 337.549002 
L 268.350951 337.549002 
L 268.191126 337.549002 
L 268.033293 337.549002 
L 267.876266 337.549002 
L 267.718992 337.549002 
L 267.560552 337.549002 
L 267.400182 337.549002 
z
" clip-path="url(#p265db24df9)" style="fill: #4c78a8; fill-opacity: 0.65"/>
   </g>
   <g id="PolyCollection_3">
    <path d="M 391.62133 337.55152 
L 379.94242 337.55152 
L 379.815786 337.55152 
L 379.711726 337.55152 
L 379.629742 337.55152 
L 379.56866 337.55152 
L 379.526626 337.55152 
L 379.501112 337.551519 
L 379.488949 337.551519 
L 379.486378 337.551519 
L 379.489112 337.551519 
L 379.492426 337.551519 
L 379.491249 337.551519 
L 379.480278 337.551518 
L 379.454094 337.551518 
L 379.407283 337.551518 
L 379.334562 337.551518 
L 379.230898 337.551518 
L 379.091623 337.551518 
L 378.912538 337.551518 
L 378.690006 337.551517 
L 378.421025 337.551517 
L 378.10329 337.551517 
L 377.735226 337.551517 
L 377.316013 337.551517 
L 376.84558 337.551517 
L 376.324585 337.551516 
L 375.75438 337.551516 
L 375.136953 337.551516 
L 374.474867 337.551516 
L 373.77118 337.551516 
L 373.029371 337.551516 
L 372.253251 337.551515 
L 371.446893 337.551515 
L 370.614552 337.551515 
L 369.760607 337.551515 
L 368.889504 337.551515 
L 368.005728 337.551515 
L 367.113769 337.551514 
L 366.218122 337.551514 
L 365.323289 337.551514 
L 364.433793 337.551514 
L 363.554204 337.551514 
L 362.689168 337.551514 
L 361.843427 337.551514 
L 361.021852 337.551513 
L 360.229446 337.551513 
L 359.471346 337.551513 
L 358.752804 337.551513 
L 358.079148 337.551513 
L 357.455719 337.551513 
L 356.887787 337.551512 
L 356.380447 337.551512 
L 355.938498 337.551512 
L 355.566302 337.551512 
L 355.267644 337.551512 
L 355.045578 337.551512 
L 354.902285 337.551511 
L 354.838946 337.551511 
L 354.855622 337.551511 
L 354.951177 337.551511 
L 355.123217 337.551511 
L 355.36808 337.551511 
L 355.680861 337.551511 
L 356.055477 337.55151 
L 356.484782 337.55151 
L 356.960718 337.55151 
L 357.474503 337.55151 
L 358.016852 337.55151 
L 358.57822 337.55151 
L 359.149065 337.551509 
L 359.720112 337.551509 
L 360.282617 337.551509 
L 360.828615 337.551509 
L 361.351154 337.551509 
L 361.844481 337.551509 
L 362.304211 337.551508 
L 362.727432 337.551508 
L 363.112774 337.551508 
L 363.46042 337.551508 
L 363.772068 337.551508 
L 364.050846 337.551508 
L 364.301174 337.551507 
L 364.528591 337.551507 
L 364.739543 337.551507 
L 364.941151 337.551507 
L 365.140954 337.551507 
L 365.34665 337.551507 
L 365.565834 337.551507 
L 365.80575 337.551506 
L 366.073056 337.551506 
L 366.373621 337.551506 
L 366.712353 337.551506 
L 367.093059 337.551506 
L 367.518353 337.551506 
L 367.989601 337.551505 
L 368.506908 337.551505 
L 369.069147 337.551505 
L 369.674026 337.551505 
L 370.318185 337.551505 
L 370.997327 337.551505 
L 400.566423 337.551505 
L 400.566423 337.551505 
L 401.245565 337.551505 
L 401.889724 337.551505 
L 402.494603 337.551505 
L 403.056842 337.551505 
L 403.574149 337.551505 
L 404.045397 337.551506 
L 404.470691 337.551506 
L 404.851397 337.551506 
L 405.190129 337.551506 
L 405.490694 337.551506 
L 405.758 337.551506 
L 405.997916 337.551507 
L 406.2171 337.551507 
L 406.422796 337.551507 
L 406.622599 337.551507 
L 406.824207 337.551507 
L 407.035159 337.551507 
L 407.262576 337.551507 
L 407.512904 337.551508 
L 407.791682 337.551508 
L 408.10333 337.551508 
L 408.450976 337.551508 
L 408.836318 337.551508 
L 409.259539 337.551508 
L 409.719269 337.551509 
L 410.212596 337.551509 
L 410.735135 337.551509 
L 411.281133 337.551509 
L 411.843638 337.551509 
L 412.414685 337.551509 
L 412.98553 337.55151 
L 413.546898 337.55151 
L 414.089247 337.55151 
L 414.603032 337.55151 
L 415.078968 337.55151 
L 415.508273 337.55151 
L 415.882889 337.551511 
L 416.19567 337.551511 
L 416.440533 337.551511 
L 416.612573 337.551511 
L 416.708128 337.551511 
L 416.724804 337.551511 
L 416.661465 337.551511 
L 416.518172 337.551512 
L 416.296106 337.551512 
L 415.997448 337.551512 
L 415.625252 337.551512 
L 415.183303 337.551512 
L 414.675963 337.551512 
L 414.108031 337.551513 
L 413.484602 337.551513 
L 412.810946 337.551513 
L 412.092404 337.551513 
L 411.334304 337.551513 
L 410.541898 337.551513 
L 409.720323 337.551514 
L 408.874582 337.551514 
L 408.009546 337.551514 
L 407.129957 337.551514 
L 406.240461 337.551514 
L 405.345628 337.551514 
L 404.449981 337.551514 
L 403.558022 337.551515 
L 402.674246 337.551515 
L 401.803143 337.551515 
L 400.949198 337.551515 
L 400.116857 337.551515 
L 399.310499 337.551515 
L 398.534379 337.551516 
L 397.79257 337.551516 
L 397.088883 337.551516 
L 396.426797 337.551516 
L 395.80937 337.551516 
L 395.239165 337.551516 
L 394.71817 337.551517 
L 394.247737 337.551517 
L 393.828524 337.551517 
L 393.46046 337.551517 
L 393.142725 337.551517 
L 392.873744 337.551517 
L 392.651212 337.551518 
L 392.472127 337.551518 
L 392.332852 337.551518 
L 392.229188 337.551518 
L 392.156467 337.551518 
L 392.109656 337.551518 
L 392.083472 337.551518 
L 392.072501 337.551519 
L 392.071324 337.551519 
L 392.074638 337.551519 
L 392.077372 337.551519 
L 392.074801 337.551519 
L 392.062638 337.551519 
L 392.037124 337.55152 
L 391.99509 337.55152 
L 391.934008 337.55152 
L 391.852024 337.55152 
L 391.747964 337.55152 
L 391.62133 337.55152 
z
" clip-path="url(#p265db24df9)" style="fill: #4c78a8; fill-opacity: 0.65"/>
   </g>
   <g id="PolyCollection_4">
    <path d="M 520.26363 337.587055 
L 498.843555 337.587055 
L 497.829718 337.587055 
L 496.797088 337.587055 
L 495.75338 337.587054 
L 494.705985 337.587054 
L 493.661699 337.587054 
L 492.626488 337.587054 
L 491.605323 337.587053 
L 490.602103 337.587053 
L 489.61967 337.587053 
L 488.659919 337.587053 
L 487.724006 337.587052 
L 486.812637 337.587052 
L 485.926417 337.587052 
L 485.066229 337.587052 
L 484.233625 337.587051 
L 483.431173 337.587051 
L 482.66275 337.587051 
L 481.93374 337.587051 
L 481.251117 337.587051 
L 480.623392 337.58705 
L 480.060441 337.58705 
L 479.573186 337.58705 
L 479.173183 337.58705 
L 478.872108 337.587049 
L 478.681196 337.587049 
L 478.610663 337.587049 
L 478.669138 337.587049 
L 478.863162 337.587048 
L 479.196767 337.587048 
L 479.671176 337.587048 
L 480.284624 337.587048 
L 481.032329 337.587047 
L 481.906595 337.587047 
L 482.897048 337.587047 
L 483.990971 337.587047 
L 485.173741 337.587046 
L 486.429315 337.587046 
L 487.740748 337.587046 
L 489.090712 337.587046 
L 490.461996 337.587046 
L 491.837956 337.587045 
L 493.202903 337.587045 
L 494.542418 337.587045 
L 495.843589 337.587045 
L 497.095167 337.587044 
L 498.28765 337.587044 
L 499.413296 337.587044 
L 500.46608 337.587044 
L 501.441611 337.587043 
L 502.337007 337.587043 
L 503.150753 337.587043 
L 503.882551 337.587043 
L 504.533162 337.587042 
L 505.104256 337.587042 
L 505.59827 337.587042 
L 506.018278 337.587042 
L 506.367879 337.587041 
L 506.651097 337.587041 
L 506.872292 337.587041 
L 507.036087 337.587041 
L 507.147305 337.587041 
L 507.210905 337.58704 
L 507.231932 337.58704 
L 507.215465 337.58704 
L 507.166568 337.58704 
L 507.090237 337.587039 
L 506.991351 337.587039 
L 506.874618 337.587039 
L 506.744524 337.587039 
L 506.605282 337.587038 
L 506.460784 337.587038 
L 506.314559 337.587038 
L 506.169739 337.587038 
L 506.029031 337.587037 
L 505.894707 337.587037 
L 505.768603 337.587037 
L 505.65213 337.587037 
L 505.546311 337.587036 
L 505.451813 337.587036 
L 505.369009 337.587036 
L 505.298041 337.587036 
L 505.238883 337.587036 
L 505.19142 337.587035 
L 505.15551 337.587035 
L 505.13105 337.587035 
L 505.11802 337.587035 
L 505.116522 337.587034 
L 505.126794 337.587034 
L 505.149209 337.587034 
L 505.184252 337.587034 
L 505.232487 337.587033 
L 505.294496 337.587033 
L 505.37082 337.587033 
L 505.461887 337.587033 
L 505.567947 337.587032 
L 505.689 337.587032 
L 505.824748 337.587032 
L 505.974557 337.587032 
L 506.137432 337.587031 
L 512.969752 337.587031 
L 512.969752 337.587031 
L 513.132627 337.587032 
L 513.282436 337.587032 
L 513.418185 337.587032 
L 513.539237 337.587032 
L 513.645297 337.587033 
L 513.736365 337.587033 
L 513.812688 337.587033 
L 513.874697 337.587033 
L 513.922932 337.587034 
L 513.957976 337.587034 
L 513.98039 337.587034 
L 513.990662 337.587034 
L 513.989164 337.587035 
L 513.976134 337.587035 
L 513.951674 337.587035 
L 513.915765 337.587035 
L 513.868301 337.587036 
L 513.809144 337.587036 
L 513.738175 337.587036 
L 513.655372 337.587036 
L 513.560874 337.587036 
L 513.455054 337.587037 
L 513.338582 337.587037 
L 513.212477 337.587037 
L 513.078153 337.587037 
L 512.937445 337.587038 
L 512.792625 337.587038 
L 512.6464 337.587038 
L 512.501902 337.587038 
L 512.36266 337.587039 
L 512.232566 337.587039 
L 512.115833 337.587039 
L 512.016947 337.587039 
L 511.940617 337.58704 
L 511.89172 337.58704 
L 511.875253 337.58704 
L 511.89628 337.58704 
L 511.959879 337.587041 
L 512.071097 337.587041 
L 512.234893 337.587041 
L 512.456088 337.587041 
L 512.739306 337.587041 
L 513.088907 337.587042 
L 513.508915 337.587042 
L 514.002928 337.587042 
L 514.574022 337.587042 
L 515.224634 337.587043 
L 515.956432 337.587043 
L 516.770178 337.587043 
L 517.665573 337.587043 
L 518.641104 337.587044 
L 519.693889 337.587044 
L 520.819534 337.587044 
L 522.012017 337.587044 
L 523.263596 337.587045 
L 524.564766 337.587045 
L 525.904281 337.587045 
L 527.269228 337.587045 
L 528.645188 337.587046 
L 530.016473 337.587046 
L 531.366437 337.587046 
L 532.677869 337.587046 
L 533.933443 337.587046 
L 535.116214 337.587047 
L 536.210137 337.587047 
L 537.200589 337.587047 
L 538.074856 337.587047 
L 538.822561 337.587048 
L 539.436008 337.587048 
L 539.910417 337.587048 
L 540.244023 337.587048 
L 540.438047 337.587049 
L 540.496521 337.587049 
L 540.425988 337.587049 
L 540.235077 337.587049 
L 539.934001 337.58705 
L 539.533998 337.58705 
L 539.046744 337.58705 
L 538.483792 337.58705 
L 537.856068 337.587051 
L 537.173444 337.587051 
L 536.444435 337.587051 
L 535.676012 337.587051 
L 534.873559 337.587051 
L 534.040955 337.587052 
L 533.180768 337.587052 
L 532.294547 337.587052 
L 531.383179 337.587052 
L 530.447266 337.587053 
L 529.487514 337.587053 
L 528.505081 337.587053 
L 527.501862 337.587053 
L 526.480697 337.587054 
L 525.445485 337.587054 
L 524.401199 337.587054 
L 523.353805 337.587054 
L 522.310096 337.587055 
L 521.277466 337.587055 
L 520.26363 337.587055 
z
" clip-path="url(#p265db24df9)" style="fill: #4c78a8; fill-opacity: 0.65"/>
   </g>
   <g id="PolyCollection_5">
    <path d="M 633.570151 337.653324 
L 633.080468 337.653324 
L 633.091421 337.653249 
L 633.121428 337.653175 
L 633.163131 337.6531 
L 633.207588 337.653026 
L 633.247333 337.652952 
L 633.278177 337.652877 
L 633.299313 337.652803 
L 633.312225 337.652728 
L 633.3193 337.652654 
L 633.322791 337.652579 
L 633.324346 337.652505 
L 633.324973 337.65243 
L 633.325202 337.652356 
L 633.325278 337.652281 
L 633.325301 337.652207 
L 633.325307 337.652133 
L 633.325309 337.652058 
L 633.325309 337.651984 
L 633.325309 337.651909 
L 633.325309 337.651835 
L 633.325309 337.65176 
L 633.325309 337.651686 
L 633.325309 337.651611 
L 633.325309 337.651537 
L 633.325309 337.651462 
L 633.325309 337.651388 
L 633.325309 337.651314 
L 633.325309 337.651239 
L 633.325309 337.651165 
L 633.325309 337.65109 
L 633.325309 337.651016 
L 633.325309 337.650941 
L 633.325309 337.650867 
L 633.325309 337.650792 
L 633.325309 337.650718 
L 633.325309 337.650643 
L 633.325309 337.650569 
L 633.325309 337.650495 
L 633.325309 337.65042 
L 633.325309 337.650346 
L 633.325309 337.650271 
L 633.325309 337.650197 
L 633.325309 337.650122 
L 633.325309 337.650048 
L 633.325309 337.649973 
L 633.325309 337.649899 
L 633.325309 337.649824 
L 633.325309 337.64975 
L 633.325309 337.649676 
L 633.325309 337.649601 
L 633.325309 337.649527 
L 633.325309 337.649452 
L 633.325309 337.649378 
L 633.325309 337.649303 
L 633.325309 337.649229 
L 633.325309 337.649154 
L 633.325309 337.64908 
L 633.325309 337.649005 
L 633.325309 337.648931 
L 633.325309 337.648857 
L 633.325309 337.648782 
L 633.325309 337.648708 
L 633.325309 337.648633 
L 633.325309 337.648559 
L 633.325309 337.648484 
L 633.325309 337.64841 
L 633.325309 337.648335 
L 633.325309 337.648261 
L 633.325309 337.648186 
L 633.325309 337.648112 
L 633.325309 337.648037 
L 633.325309 337.647963 
L 633.325309 337.647889 
L 633.325309 337.647814 
L 633.325309 337.64774 
L 633.325309 337.647665 
L 633.325309 337.647591 
L 633.325309 337.647516 
L 633.325309 337.647442 
L 633.325306 337.647367 
L 633.32529 337.647293 
L 633.325217 337.647218 
L 633.324905 337.647144 
L 633.323686 337.64707 
L 633.319369 337.646995 
L 633.305467 337.646921 
L 633.264826 337.646846 
L 633.15707 337.646772 
L 632.898253 337.646697 
L 632.336063 337.646623 
L 631.234151 337.646548 
L 629.291337 337.646474 
L 626.223928 337.646399 
L 621.917115 337.646325 
L 616.60072 337.646251 
L 610.950526 337.646176 
L 606.008663 337.646102 
L 602.89114 337.646027 
L 602.38238 337.645953 
L 664.268239 337.645953 
L 664.268239 337.645953 
L 663.759479 337.646027 
L 660.641956 337.646102 
L 655.700092 337.646176 
L 650.049899 337.646251 
L 644.733504 337.646325 
L 640.426691 337.646399 
L 637.359282 337.646474 
L 635.416467 337.646548 
L 634.314555 337.646623 
L 633.752365 337.646697 
L 633.493549 337.646772 
L 633.385792 337.646846 
L 633.345152 337.646921 
L 633.33125 337.646995 
L 633.326932 337.64707 
L 633.325714 337.647144 
L 633.325401 337.647218 
L 633.325328 337.647293 
L 633.325313 337.647367 
L 633.32531 337.647442 
L 633.325309 337.647516 
L 633.325309 337.647591 
L 633.325309 337.647665 
L 633.325309 337.64774 
L 633.325309 337.647814 
L 633.325309 337.647889 
L 633.325309 337.647963 
L 633.325309 337.648037 
L 633.325309 337.648112 
L 633.325309 337.648186 
L 633.325309 337.648261 
L 633.325309 337.648335 
L 633.325309 337.64841 
L 633.325309 337.648484 
L 633.325309 337.648559 
L 633.325309 337.648633 
L 633.325309 337.648708 
L 633.325309 337.648782 
L 633.325309 337.648857 
L 633.325309 337.648931 
L 633.325309 337.649005 
L 633.325309 337.64908 
L 633.325309 337.649154 
L 633.325309 337.649229 
L 633.325309 337.649303 
L 633.325309 337.649378 
L 633.325309 337.649452 
L 633.325309 337.649527 
L 633.325309 337.649601 
L 633.325309 337.649676 
L 633.325309 337.64975 
L 633.325309 337.649824 
L 633.325309 337.649899 
L 633.325309 337.649973 
L 633.325309 337.650048 
L 633.325309 337.650122 
L 633.325309 337.650197 
L 633.325309 337.650271 
L 633.325309 337.650346 
L 633.325309 337.65042 
L 633.325309 337.650495 
L 633.325309 337.650569 
L 633.325309 337.650643 
L 633.325309 337.650718 
L 633.325309 337.650792 
L 633.325309 337.650867 
L 633.325309 337.650941 
L 633.325309 337.651016 
L 633.325309 337.65109 
L 633.325309 337.651165 
L 633.325309 337.651239 
L 633.325309 337.651314 
L 633.325309 337.651388 
L 633.325309 337.651462 
L 633.325309 337.651537 
L 633.325309 337.651611 
L 633.325309 337.651686 
L 633.325309 337.65176 
L 633.325309 337.651835 
L 633.325309 337.651909 
L 633.325309 337.651984 
L 633.32531 337.652058 
L 633.325311 337.652133 
L 633.325318 337.652207 
L 633.32534 337.652281 
L 633.325416 337.652356 
L 633.325646 337.65243 
L 633.326273 337.652505 
L 633.327828 337.652579 
L 633.331319 337.652654 
L 633.338394 337.652728 
L 633.351306 337.652803 
L 633.372442 337.652877 
L 633.403286 337.652952 
L 633.443031 337.653026 
L 633.487488 337.6531 
L 633.529191 337.653175 
L 633.559198 337.653249 
L 633.570151 337.653324 
z
" clip-path="url(#p265db24df9)" style="fill: #4c78a8; fill-opacity: 0.65"/>
   </g>
   <g id="LineCollection_1">
    <path d="M 122.766976 49.292929 
L 153.709905 49.292929 
" clip-path="url(#p265db24df9)" style="fill: none; stroke: #1f77b4; stroke-width: 1.5"/>
    <path d="M 246.538693 337.548997 
L 277.481622 337.548997 
" clip-path="url(#p265db24df9)" style="fill: none; stroke: #1f77b4; stroke-width: 1.5"/>
    <path d="M 370.31041 337.551511 
L 401.25334 337.551511 
" clip-path="url(#p265db24df9)" style="fill: none; stroke: #1f77b4; stroke-width: 1.5"/>
    <path d="M 494.082128 337.587048 
L 525.025057 337.587048 
" clip-path="url(#p265db24df9)" style="fill: none; stroke: #1f77b4; stroke-width: 1.5"/>
    <path d="M 617.853845 337.646034 
L 648.796774 337.646034 
" clip-path="url(#p265db24df9)" style="fill: none; stroke: #1f77b4; stroke-width: 1.5"/>
   </g>
   <g id="LineCollection_2">
    <path d="M 122.766976 49.069801 
L 153.709905 49.069801 
" clip-path="url(#p265db24df9)" style="fill: none; stroke: #1f77b4; stroke-width: 1.5"/>
    <path d="M 246.538693 337.548994 
L 277.481622 337.548994 
" clip-path="url(#p265db24df9)" style="fill: none; stroke: #1f77b4; stroke-width: 1.5"/>
    <path d="M 370.31041 337.551505 
L 401.25334 337.551505 
" clip-path="url(#p265db24df9)" style="fill: none; stroke: #1f77b4; stroke-width: 1.5"/>
    <path d="M 494.082128 337.587031 
L 525.025057 337.587031 
" clip-path="url(#p265db24df9)" style="fill: none; stroke: #1f77b4; stroke-width: 1.5"/>
    <path d="M 617.853845 337.645953 
L 648.796774 337.645953 
" clip-path="url(#p265db24df9)" style="fill: none; stroke: #1f77b4; stroke-width: 1.5"/>
   </g>
   <g id="LineCollection_3">
    <path d="M 122.766976 49.677143 
L 153.709905 49.677143 
" clip-path="url(#p265db24df9)" style="fill: none; stroke: #1f77b4; stroke-width: 1.5"/>
    <path d="M 246.538693 337.549002 
L 277.481622 337.549002 
" clip-path="url(#p265db24df9)" style="fill: none; stroke: #1f77b4; stroke-width: 1.5"/>
    <path d="M 370.31041 337.55152 
L 401.25334 337.55152 
" clip-path="url(#p265db24df9)" style="fill: none; stroke: #1f77b4; stroke-width: 1.5"/>
    <path d="M 494.082128 337.587055 
L 525.025057 337.587055 
" clip-path="url(#p265db24df9)" style="fill: none; stroke: #1f77b4; stroke-width: 1.5"/>
    <path d="M 617.853845 337.653324 
L 648.796774 337.653324 
" clip-path="url(#p265db24df9)" style="fill: none; stroke: #1f77b4; stroke-width: 1.5"/>
   </g>
   <g id="LineCollection_4">
    <path d="M 138.238441 49.677143 
L 138.238441 49.069801 
" clip-path="url(#p265db24df9)" style="fill: none; stroke: #1f77b4; stroke-width: 1.5"/>
    <path d="M 262.010158 337.549002 
L 262.010158 337.548994 
" clip-path="url(#p265db24df9)" style="fill: none; stroke: #1f77b4; stroke-width: 1.5"/>
    <path d="M 385.781875 337.55152 
L 385.781875 337.551505 
" clip-path="url(#p265db24df9)" style="fill: none; stroke: #1f77b4; stroke-width: 1.5"/>
    <path d="M 509.553592 337.587055 
L 509.553592 337.587031 
" clip-path="url(#p265db24df9)" style="fill: none; stroke: #1f77b4; stroke-width: 1.5"/>
    <path d="M 633.325309 337.653324 
L 633.325309 337.645953 
" clip-path="url(#p265db24df9)" style="fill: none; stroke: #1f77b4; stroke-width: 1.5"/>
   </g>
   <g id="LineCollection_5">
    <path d="M 122.766976 49.24984 
L 153.709905 49.24984 
" clip-path="url(#p265db24df9)" style="fill: none; stroke: #1f77b4; stroke-width: 1.5"/>
    <path d="M 246.538693 337.548997 
L 277.481622 337.548997 
" clip-path="url(#p265db24df9)" style="fill: none; stroke: #1f77b4; stroke-width: 1.5"/>
    <path d="M 370.31041 337.551511 
L 401.25334 337.551511 
" clip-path="url(#p265db24df9)" style="fill: none; stroke: #1f77b4; stroke-width: 1.5"/>
    <path d="M 494.082128 337.587049 
L 525.025057 337.587049 
" clip-path="url(#p265db24df9)" style="fill: none; stroke: #1f77b4; stroke-width: 1.5"/>
    <path d="M 617.853845 337.645978 
L 648.796774 337.645978 
" clip-path="url(#p265db24df9)" style="fill: none; stroke: #1f77b4; stroke-width: 1.5"/>
   </g>
   <g id="patch_3">
    <path d="M 79.446875 352.0825 
L 79.446875 34.640625 
" style="fill: none; stroke: #808080; stroke-width: 0.8; stroke-linejoin: miter; stroke-linecap: square"/>
   </g>
   <g id="patch_4">
    <path d="M 79.446875 352.0825 
L 692.116875 352.0825 
" style="fill: none; stroke: #808080; stroke-width: 0.8; stroke-linejoin: miter; stroke-linecap: square"/>
   </g>
   <g id="text_14">
    <text style="font: 22px 'PingFang SC', 'Heiti SC', 'STHeiti', 'Calibri', 'Arial', 'Helvetica Neue', 'Arial Unicode MS', 'Noto Sans CJK SC', 'DejaVu Sans', sans-serif; text-anchor: middle" x="385.781875" y="28.640625" transform="rotate(-0 385.781875 28.640625)">All-Gather · 256 MB Rank 分布（Violin）</text>
   </g>
  </g>
 </g>
 <defs>
  <clipPath id="p265db24df9">
   <rect x="79.446875" y="34.640625" width="612.67" height="317.441875"/>
  </clipPath>
 </defs>
</svg>
