<?xml version="1.0" encoding="utf-8" standalone="no"?>
<!DOCTYPE svg PUBLIC "-//W3C//DTD SVG 1.1//EN"
  "http://www.w3.org/Graphics/SVG/1.1/DTD/svg11.dtd">
<svg xmlns:xlink="http://www.w3.org/1999/xlink" width="702.916875pt" height="414.8025pt" viewBox="0 0 702.916875 414.8025" xmlns="http://www.w3.org/2000/svg" version="1.1">
 <metadata>
  <rdf:RDF xmlns:dc="http://purl.org/dc/elements/1.1/" xmlns:cc="http://creativecommons.org/ns#" xmlns:rdf="http://www.w3.org/1999/02/22-rdf-syntax-ns#">
   <cc:Work>
    <dc:type rdf:resource="http://purl.org/dc/dcmitype/StillImage"/>
    <dc:date>2026-07-11T21:56:31.792103</dc:date>
    <dc:format>image/svg+xml</dc:format>
    <dc:creator>
     <cc:Agent>
      <dc:title>Matplotlib v3.9.4, https://matplotlib.org/</dc:title>
     </cc:Agent>
    </dc:creator>
   </cc:Work>
  </rdf:RDF>
 </metadata>
 <defs>
  <style type="text/css">*{stroke-linejoin: round; stroke-linecap: butt}</style>
 </defs>
 <g id="figure_1">
  <g id="patch_1">
   <path d="M 0 414.8025 
L 702.916875 414.8025 
L 702.916875 0 
L 0 0 
z
" style="fill: #ffffff"/>
  </g>
  <g id="axes_1">
   <g id="patch_2">
    <path d="M 79.446875 352.0825 
L 692.116875 352.0825 
L 692.116875 34.640625 
L 79.446875 34.640625 
z
" style="fill: #ffffff"/>
   </g>
   <g id="matplotlib.axis_1">
    <g id="xtick_1">
     <g id="line2d_1">
      <defs>
       <path id="md237f0b919" d="M 0 0 
L 0 3.5 
" style="stroke: #808080; stroke-width: 0.8"/>
      </defs>
      <g>
       <use xlink:href="#md237f0b919" x="138.238441" y="352.0825" style="fill: #808080; stroke: #808080; stroke-width: 0.8"/>
      </g>
     </g>
     <g id="text_1">
      <text style="fill: #808080; font: 22px 'PingFang SC', 'Heiti SC', 'STHeiti', 'Calibri', 'Arial', 'Helvetica Neue', 'Arial Unicode MS', 'Noto Sans CJK SC', 'DejaVu Sans', sans-serif; text-anchor: middle" x="138.238441" y="376.593125" transform="rotate(-0 138.238441 376.593125)">8</text>
     </g>
    </g>
    <g id="xtick_2">
     <g id="line2d_2">
      <g>
       <use xlink:href="#md237f0b919" x="262.010158" y="352.0825" style="fill: #808080; stroke: #808080; stroke-width: 0.8"/>
      </g>
     </g>
     <g id="text_2">
      <text style="fill: #808080; font: 22px 'PingFang SC', 'Heiti SC', 'STHeiti', 'Calibri', 'Arial', 'Helvetica Neue', 'Arial Unicode MS', 'Noto Sans CJK SC', 'DejaVu Sans', sans-serif; text-anchor: middle" x="262.010158" y="376.593125" transform="rotate(-0 262.010158 376.593125)">16</text>
     </g>
    </g>
    <g id="xtick_3">
     <g id="line2d_3">
      <g>
       <use xlink:href="#md237f0b919" x="385.781875" y="352.0825" style="fill: #808080; stroke: #808080; stroke-width: 0.8"/>
      </g>
     </g>
     <g id="text_3">
      <text style="fill: #808080; font: 22px 'PingFang SC', 'Heiti SC', 'STHeiti', 'Calibri', 'Arial', 'Helvetica Neue', 'Arial Unicode MS', 'Noto Sans CJK SC', 'DejaVu Sans', sans-serif; text-anchor: middle" x="385.781875" y="376.593125" transform="rotate(-0 385.781875 376.593125)">32</text>
     </g>
    </g>
    <g id="xtick_4">
     <g id="line2d_4">
      <g>
       <use xlink:href="#md237f0b919" x="509.553592" y="352.0825" style="fill: #808080; stroke: #808080; stroke-width: 0.8"/>
      </g>
     </g>
     <g id="text_4">
      <text style="fill: #808080; font: 22px 'PingFang SC', 'Heiti SC', 'STHeiti', 'Calibri', 'Arial', 'Helvetica Neue', 'Arial Unicode MS', 'Noto Sans CJK SC', 'DejaVu Sans', sans-serif; text-anchor: middle" x="509.553592" y="376.593125" transform="rotate(-0 509.553592 376.593125)">64</text>
     </g>
    </g>
    <g id="xtick_5">
     <g id="line2d_5">
      <g>
       <use xlink:href="#md237f0b919" x="633.325309" y="352.0825" style="fill: #808080; stroke: #808080; stroke-width: 0.8"/>
      </g>
     </g>
     <g id="text_5">
      <text style="fill: #808080; font: 22px 'PingFang SC', 'Heiti SC', 'STHeiti', 'Calibri', 'Arial', 'Helvetica Neue', 'Arial Unicode MS', 'Noto Sans CJK SC', 'DejaVu Sans', sans-serif; text-anchor: middle" x="633.325309" y="376.593125" transform="rotate(-0 633.325309 376.593125)">128</text>
     </g>
    </g>
    <g id="text_6">
     <text style="font: 22px 'PingFang SC', 'Heiti SC', 'STHeiti', 'Calibri', 'Arial', 'Helvetica Neue', 'Arial Unicode MS', 'Noto Sans CJK SC', 'DejaVu Sans', sans-serif; text-anchor: middle" x="385.781875" y="401.053125" transform="rotate(-0 385.781875 401.053125)">World 规模</text>
    </g>
   </g>
   <g id="matplotlib.axis_2">
    <g id="ytick_1">
     <g id="line2d_6">
      <path d="M 79.446875 338.018362 
L 692.116875 338.018362 
" clip-path="url(#pedabbc68b3)" style="fill: none; stroke-dasharray: 1,1.65; stroke-dashoffset: 0; stroke: #808080; stroke-opacity: 0.55"/>
     </g>
     <g id="line2d_7">
      <defs>
       <path id="m5ce6ce44f1" d="M 0 0 
L -3.5 0 
" style="stroke: #808080; stroke-width: 0.8"/>
      </defs>
      <g>
       <use xlink:href="#m5ce6ce44f1" x="79.446875" y="338.018362" style="fill: #808080; stroke: #808080; stroke-width: 0.8"/>
      </g>
     </g>
     <g id="text_7">
      <text style="fill: #808080; font: 22px 'PingFang SC', 'Heiti SC', 'STHeiti', 'Calibri', 'Arial', 'Helvetica Neue', 'Arial Unicode MS', 'Noto Sans CJK SC', 'DejaVu Sans', sans-serif; text-anchor: end" x="72.446875" y="346.773674" transform="rotate(-0 72.446875 346.773674)">0</text>
     </g>
    </g>
    <g id="ytick_2">
     <g id="line2d_8">
      <path d="M 79.446875 262.251938 
L 692.116875 262.251938 
" clip-path="url(#pedabbc68b3)" style="fill: none; stroke-dasharray: 1,1.65; stroke-dashoffset: 0; stroke: #808080; stroke-opacity: 0.55"/>
     </g>
     <g id="line2d_9">
      <g>
       <use xlink:href="#m5ce6ce44f1" x="79.446875" y="262.251938" style="fill: #808080; stroke: #808080; stroke-width: 0.8"/>
      </g>
     </g>
     <g id="text_8">
      <text style="fill: #808080; font: 22px 'PingFang SC', 'Heiti SC', 'STHeiti', 'Calibri', 'Arial', 'Helvetica Neue', 'Arial Unicode MS', 'Noto Sans CJK SC', 'DejaVu Sans', sans-serif; text-anchor: end" x="72.446875" y="271.00725" transform="rotate(-0 72.446875 271.00725)">50</text>
     </g>
    </g>
    <g id="ytick_3">
     <g id="line2d_10">
      <path d="M 79.446875 186.485514 
L 692.116875 186.485514 
" clip-path="url(#pedabbc68b3)" style="fill: none; stroke-dasharray: 1,1.65; stroke-dashoffset: 0; stroke: #808080; stroke-opacity: 0.55"/>
     </g>
     <g id="line2d_11">
      <g>
       <use xlink:href="#m5ce6ce44f1" x="79.446875" y="186.485514" style="fill: #808080; stroke: #808080; stroke-width: 0.8"/>
      </g>
     </g>
     <g id="text_9">
      <text style="fill: #808080; font: 22px 'PingFang SC', 'Heiti SC', 'STHeiti', 'Calibri', 'Arial', 'Helvetica Neue', 'Arial Unicode MS', 'Noto Sans CJK SC', 'DejaVu Sans', sans-serif; text-anchor: end" x="72.446875" y="195.240826" transform="rotate(-0 72.446875 195.240826)">100</text>
     </g>
    </g>
    <g id="ytick_4">
     <g id="line2d_12">
      <path d="M 79.446875 110.71909 
L 692.116875 110.71909 
" clip-path="url(#pedabbc68b3)" style="fill: none; stroke-dasharray: 1,1.65; stroke-dashoffset: 0; stroke: #808080; stroke-opacity: 0.55"/>
     </g>
     <g id="line2d_13">
      <g>
       <use xlink:href="#m5ce6ce44f1" x="79.446875" y="110.71909" style="fill: #808080; stroke: #808080; stroke-width: 0.8"/>
      </g>
     </g>
     <g id="text_10">
      <text style="fill: #808080; font: 22px 'PingFang SC', 'Heiti SC', 'STHeiti', 'Calibri', 'Arial', 'Helvetica Neue', 'Arial Unicode MS', 'Noto Sans CJK SC', 'DejaVu Sans', sans-serif; text-anchor: end" x="72.446875" y="119.474403" transform="rotate(-0 72.446875 119.474403)">150</text>
     </g>
    </g>
    <g id="ytick_5">
     <g id="line2d_14">
      <path d="M 79.446875 34.952666 
L 692.116875 34.952666 
" clip-path="url(#pedabbc68b3)" style="fill: none; stroke-dasharray: 1,1.65; stroke-dashoffset: 0; stroke: #808080; stroke-opacity: 0.55"/>
     </g>
     <g id="line2d_15">
      <g>
       <use xlink:href="#m5ce6ce44f1" x="79.446875" y="34.952666" style="fill: #808080; stroke: #808080; stroke-width: 0.8"/>
      </g>
     </g>
     <g id="text_11">
      <text style="fill: #808080; font: 22px 'PingFang SC', 'Heiti SC', 'STHeiti', 'Calibri', 'Arial', 'Helvetica Neue', 'Arial Unicode MS', 'Noto Sans CJK SC', 'DejaVu Sans', sans-serif; text-anchor: end" x="72.446875" y="43.707979" transform="rotate(-0 72.446875 43.707979)">200</text>
     </g>
    </g>
    <g id="text_12">
     <text style="font: 22px 'PingFang SC', 'Heiti SC', 'STHeiti', 'Calibri', 'Arial', 'Helvetica Neue', 'Arial Unicode MS', 'Noto Sans CJK SC', 'DejaVu Sans', sans-serif; text-anchor: middle" x="28.929375" y="193.361562" transform="rotate(-90 28.929375 193.361562)">Bus 带宽 (GB/s)</text>
    </g>
   </g>
   <g id="PolyCollection_1">
    <path d="M 162.313558 49.513857 
L 114.163323 49.513857 
L 113.475956 49.509372 
L 112.812955 49.504886 
L 112.176982 49.500401 
L 111.570611 49.495915 
L 110.996307 49.49143 
L 110.456414 49.486945 
L 109.953141 49.482459 
L 109.488547 49.477974 
L 109.064528 49.473488 
L 108.682809 49.469003 
L 108.344933 49.464518 
L 108.052251 49.460032 
L 107.805918 49.455547 
L 107.606887 49.451061 
L 107.455901 49.446576 
L 107.353496 49.44209 
L 107.299996 49.437605 
L 107.295511 49.43312 
L 107.339944 49.428634 
L 107.432984 49.424149 
L 107.574118 49.419663 
L 107.76263 49.415178 
L 107.997605 49.410693 
L 108.277941 49.406207 
L 108.60235 49.401722 
L 108.969366 49.397236 
L 109.377357 49.392751 
L 109.824532 49.388265 
L 110.308953 49.38378 
L 110.828539 49.379295 
L 111.381087 49.374809 
L 111.964276 49.370324 
L 112.575682 49.365838 
L 113.212791 49.361353 
L 113.873013 49.356868 
L 114.553692 49.352382 
L 115.252123 49.347897 
L 115.965566 49.343411 
L 116.69126 49.338926 
L 117.426434 49.334441 
L 118.168327 49.329955 
L 118.914197 49.32547 
L 119.661339 49.320984 
L 120.407095 49.316499 
L 121.148872 49.312013 
L 121.884149 49.307528 
L 122.610495 49.303043 
L 123.325577 49.298557 
L 124.02717 49.294072 
L 124.713173 49.289586 
L 125.381611 49.285101 
L 126.030647 49.280616 
L 126.658588 49.27613 
L 127.263894 49.271645 
L 127.845177 49.267159 
L 128.401213 49.262674 
L 128.930938 49.258188 
L 129.433452 49.253703 
L 129.908025 49.249218 
L 130.354087 49.244732 
L 130.771237 49.240247 
L 131.159232 49.235761 
L 131.517994 49.231276 
L 131.847594 49.226791 
L 132.14826 49.222305 
L 132.420363 49.21782 
L 132.664413 49.213334 
L 132.881057 49.208849 
L 133.071064 49.204364 
L 133.235327 49.199878 
L 133.374846 49.195393 
L 133.490724 49.190907 
L 133.584159 49.186422 
L 133.656434 49.181936 
L 133.708905 49.177451 
L 133.742997 49.172966 
L 133.760187 49.16848 
L 133.762003 49.163995 
L 133.750003 49.159509 
L 133.725776 49.155024 
L 133.690922 49.150539 
L 133.647049 49.146053 
L 133.595758 49.141568 
L 133.538636 49.137082 
L 133.477243 49.132597 
L 133.413106 49.128112 
L 133.347705 49.123626 
L 133.282467 49.119141 
L 133.218756 49.114655 
L 133.157866 49.11017 
L 133.101011 49.105684 
L 133.049319 49.101199 
L 133.003826 49.096714 
L 132.965472 49.092228 
L 132.935092 49.087743 
L 132.913416 49.083257 
L 132.901064 49.078772 
L 132.898544 49.074287 
L 132.906255 49.069801 
L 143.570626 49.069801 
L 143.570626 49.069801 
L 143.578337 49.074287 
L 143.575818 49.078772 
L 143.563465 49.083257 
L 143.541789 49.087743 
L 143.511409 49.092228 
L 143.473055 49.096714 
L 143.427563 49.101199 
L 143.375871 49.105684 
L 143.319015 49.11017 
L 143.258125 49.114655 
L 143.194414 49.119141 
L 143.129176 49.123626 
L 143.063775 49.128112 
L 142.999638 49.132597 
L 142.938245 49.137082 
L 142.881123 49.141568 
L 142.829833 49.146053 
L 142.785959 49.150539 
L 142.751106 49.155024 
L 142.726878 49.159509 
L 142.714879 49.163995 
L 142.716694 49.16848 
L 142.733885 49.172966 
L 142.767976 49.177451 
L 142.820448 49.181936 
L 142.892722 49.186422 
L 142.986158 49.190907 
L 143.102036 49.195393 
L 143.241554 49.199878 
L 143.405817 49.204364 
L 143.595825 49.208849 
L 143.812468 49.213334 
L 144.056519 49.21782 
L 144.328621 49.222305 
L 144.629287 49.226791 
L 144.958888 49.231276 
L 145.317649 49.235761 
L 145.705645 49.240247 
L 146.122794 49.244732 
L 146.568857 49.249218 
L 147.043429 49.253703 
L 147.545944 49.258188 
L 148.075668 49.262674 
L 148.631704 49.267159 
L 149.212988 49.271645 
L 149.818293 49.27613 
L 150.446235 49.280616 
L 151.09527 49.285101 
L 151.763708 49.289586 
L 152.449711 49.294072 
L 153.151305 49.298557 
L 153.866386 49.303043 
L 154.592732 49.307528 
L 155.328009 49.312013 
L 156.069786 49.316499 
L 156.815542 49.320984 
L 157.562684 49.32547 
L 158.308554 49.329955 
L 159.050447 49.334441 
L 159.785621 49.338926 
L 160.511315 49.343411 
L 161.224758 49.347897 
L 161.92319 49.352382 
L 162.603868 49.356868 
L 163.26409 49.361353 
L 163.901199 49.365838 
L 164.512605 49.370324 
L 165.095794 49.374809 
L 165.648342 49.379295 
L 166.167929 49.38378 
L 166.652349 49.388265 
L 167.099525 49.392751 
L 167.507516 49.397236 
L 167.874532 49.401722 
L 168.19894 49.406207 
L 168.479276 49.410693 
L 168.714252 49.415178 
L 168.902763 49.419663 
L 169.043897 49.424149 
L 169.136938 49.428634 
L 169.18137 49.43312 
L 169.176885 49.437605 
L 169.123385 49.44209 
L 169.02098 49.446576 
L 168.869995 49.451061 
L 168.670963 49.455547 
L 168.42463 49.460032 
L 168.131949 49.464518 
L 167.794072 49.469003 
L 167.412354 49.473488 
L 166.988335 49.477974 
L 166.52374 49.482459 
L 166.020467 49.486945 
L 165.480574 49.49143 
L 164.90627 49.495915 
L 164.299899 49.500401 
L 163.663927 49.504886 
L 163.000926 49.509372 
L 162.313558 49.513857 
z
" clip-path="url(#pedabbc68b3)" style="fill: #4c78a8; fill-opacity: 0.65"/>
   </g>
   <g id="PolyCollection_2">
    <path d="M 270.702906 337.629956 
L 253.317409 337.629956 
L 252.931312 337.629956 
L 252.544834 337.629956 
L 252.157915 337.629956 
L 251.770304 337.629956 
L 251.381563 337.629956 
L 250.991075 337.629956 
L 250.59806 337.629956 
L 250.201594 337.629956 
L 249.80063 337.629956 
L 249.394028 337.629956 
L 248.980588 337.629956 
L 248.559079 337.629956 
L 248.128281 337.629956 
L 247.687017 337.629956 
L 247.234195 337.629956 
L 246.768847 337.629956 
L 246.290158 337.629955 
L 245.797507 337.629955 
L 245.290497 337.629955 
L 244.76898 337.629955 
L 244.23308 337.629955 
L 243.683214 337.629955 
L 243.120101 337.629955 
L 242.54477 337.629955 
L 241.958557 337.629955 
L 241.363105 337.629955 
L 240.760343 337.629955 
L 240.152474 337.629955 
L 239.541946 337.629955 
L 238.931423 337.629955 
L 238.323753 337.629955 
L 237.721923 337.629955 
L 237.129025 337.629955 
L 236.548205 337.629955 
L 235.982625 337.629955 
L 235.435414 337.629954 
L 234.909627 337.629954 
L 234.408204 337.629954 
L 233.933934 337.629954 
L 233.489421 337.629954 
L 233.077053 337.629954 
L 232.698987 337.629954 
L 232.357125 337.629954 
L 232.053107 337.629954 
L 231.788304 337.629954 
L 231.563822 337.629954 
L 231.380503 337.629954 
L 231.238939 337.629954 
L 231.139485 337.629954 
L 231.082272 337.629954 
L 231.067229 337.629954 
L 231.094098 337.629954 
L 231.162458 337.629954 
L 231.271737 337.629954 
L 231.42123 337.629953 
L 231.610116 337.629953 
L 231.837464 337.629953 
L 232.102247 337.629953 
L 232.403344 337.629953 
L 232.739549 337.629953 
L 233.109564 337.629953 
L 233.512008 337.629953 
L 233.945407 337.629953 
L 234.408199 337.629953 
L 234.898727 337.629953 
L 235.415241 337.629953 
L 235.955893 337.629953 
L 236.518746 337.629953 
L 237.101773 337.629953 
L 237.702864 337.629953 
L 238.319837 337.629953 
L 238.95045 337.629953 
L 239.592414 337.629953 
L 240.243413 337.629953 
L 240.901123 337.629952 
L 241.563233 337.629952 
L 242.227468 337.629952 
L 242.891612 337.629952 
L 243.553531 337.629952 
L 244.211198 337.629952 
L 244.862711 337.629952 
L 245.506316 337.629952 
L 246.140421 337.629952 
L 246.763611 337.629952 
L 247.374658 337.629952 
L 247.972529 337.629952 
L 248.556387 337.629952 
L 249.12559 337.629952 
L 249.679686 337.629952 
L 250.218404 337.629952 
L 250.741637 337.629952 
L 251.249432 337.629952 
L 251.741965 337.629952 
L 252.219526 337.629951 
L 252.682489 337.629951 
L 253.131295 337.629951 
L 253.566428 337.629951 
L 253.988388 337.629951 
L 254.397673 337.629951 
L 269.622642 337.629951 
L 269.622642 337.629951 
L 270.031928 337.629951 
L 270.453888 337.629951 
L 270.889021 337.629951 
L 271.337827 337.629951 
L 271.80079 337.629951 
L 272.27835 337.629952 
L 272.770884 337.629952 
L 273.278679 337.629952 
L 273.801912 337.629952 
L 274.340629 337.629952 
L 274.894726 337.629952 
L 275.463929 337.629952 
L 276.047787 337.629952 
L 276.645658 337.629952 
L 277.256705 337.629952 
L 277.879895 337.629952 
L 278.513999 337.629952 
L 279.157604 337.629952 
L 279.809118 337.629952 
L 280.466785 337.629952 
L 281.128704 337.629952 
L 281.792848 337.629952 
L 282.457082 337.629952 
L 283.119192 337.629952 
L 283.776903 337.629953 
L 284.427902 337.629953 
L 285.069866 337.629953 
L 285.700478 337.629953 
L 286.317451 337.629953 
L 286.918542 337.629953 
L 287.501569 337.629953 
L 288.064423 337.629953 
L 288.605075 337.629953 
L 289.121588 337.629953 
L 289.612116 337.629953 
L 290.074908 337.629953 
L 290.508308 337.629953 
L 290.910751 337.629953 
L 291.280767 337.629953 
L 291.616971 337.629953 
L 291.918069 337.629953 
L 292.182852 337.629953 
L 292.4102 337.629953 
L 292.599085 337.629953 
L 292.748579 337.629954 
L 292.857857 337.629954 
L 292.926217 337.629954 
L 292.953087 337.629954 
L 292.938044 337.629954 
L 292.880831 337.629954 
L 292.781376 337.629954 
L 292.639813 337.629954 
L 292.456494 337.629954 
L 292.232011 337.629954 
L 291.967209 337.629954 
L 291.66319 337.629954 
L 291.321328 337.629954 
L 290.943262 337.629954 
L 290.530895 337.629954 
L 290.086381 337.629954 
L 289.612112 337.629954 
L 289.110689 337.629954 
L 288.584902 337.629954 
L 288.037691 337.629955 
L 287.472111 337.629955 
L 286.891291 337.629955 
L 286.298392 337.629955 
L 285.696563 337.629955 
L 285.088892 337.629955 
L 284.47837 337.629955 
L 283.867842 337.629955 
L 283.259973 337.629955 
L 282.657211 337.629955 
L 282.061758 337.629955 
L 281.475546 337.629955 
L 280.900214 337.629955 
L 280.337101 337.629955 
L 279.787236 337.629955 
L 279.251336 337.629955 
L 278.729819 337.629955 
L 278.222809 337.629955 
L 277.730158 337.629955 
L 277.251469 337.629956 
L 276.78612 337.629956 
L 276.333299 337.629956 
L 275.892035 337.629956 
L 275.461236 337.629956 
L 275.039728 337.629956 
L 274.626287 337.629956 
L 274.219686 337.629956 
L 273.818722 337.629956 
L 273.422255 337.629956 
L 273.029241 337.629956 
L 272.638753 337.629956 
L 272.250011 337.629956 
L 271.8624 337.629956 
L 271.475482 337.629956 
L 271.089004 337.629956 
L 270.702906 337.629956 
z
" clip-path="url(#pedabbc68b3)" style="fill: #4c78a8; fill-opacity: 0.65"/>
   </g>
   <g id="PolyCollection_3">
    <path d="M 404.561877 337.610659 
L 367.001873 337.610659 
L 365.966292 337.610659 
L 364.941176 337.610659 
L 363.933409 337.610659 
L 362.949916 337.610659 
L 361.997566 337.610659 
L 361.083065 337.610659 
L 360.212851 337.610659 
L 359.392997 337.610659 
L 358.629114 337.610659 
L 357.926267 337.610659 
L 357.288898 337.610659 
L 356.720761 337.610659 
L 356.224878 337.610659 
L 355.803505 337.610659 
L 355.458115 337.610659 
L 355.189398 337.610659 
L 354.997281 337.610659 
L 354.88096 337.610659 
L 354.838946 337.610659 
L 354.869126 337.610659 
L 354.968836 337.610659 
L 355.134933 337.610659 
L 355.363886 337.610658 
L 355.651856 337.610658 
L 355.994784 337.610658 
L 356.388474 337.610658 
L 356.828671 337.610658 
L 357.311126 337.610658 
L 357.83166 337.610658 
L 358.386215 337.610658 
L 358.970887 337.610658 
L 359.581958 337.610658 
L 360.215908 337.610658 
L 360.869417 337.610658 
L 361.539365 337.610658 
L 362.222815 337.610658 
L 362.916989 337.610658 
L 363.619246 337.610658 
L 364.327053 337.610658 
L 365.037951 337.610658 
L 365.749529 337.610658 
L 366.459396 337.610658 
L 367.165156 337.610658 
L 367.86439 337.610658 
L 368.554644 337.610658 
L 369.233426 337.610658 
L 369.898199 337.610658 
L 370.546396 337.610658 
L 371.175433 337.610658 
L 371.782723 337.610658 
L 372.365712 337.610658 
L 372.921896 337.610658 
L 373.448867 337.610658 
L 373.944338 337.610658 
L 374.406186 337.610658 
L 374.832486 337.610658 
L 375.221548 337.610658 
L 375.571949 337.610658 
L 375.88257 337.610658 
L 376.152617 337.610658 
L 376.38165 337.610658 
L 376.569599 337.610658 
L 376.716781 337.610658 
L 376.823909 337.610658 
L 376.89209 337.610658 
L 376.922831 337.610658 
L 376.918022 337.610658 
L 376.879926 337.610658 
L 376.811161 337.610658 
L 376.714668 337.610658 
L 376.593686 337.610658 
L 376.451713 337.610658 
L 376.292467 337.610658 
L 376.119841 337.610658 
L 375.937853 337.610658 
L 375.750601 337.610658 
L 375.562204 337.610658 
L 375.376754 337.610658 
L 375.198258 337.610658 
L 375.030589 337.610658 
L 374.877429 337.610658 
L 374.742228 337.610657 
L 374.628151 337.610657 
L 374.538043 337.610657 
L 374.47439 337.610657 
L 374.43929 337.610657 
L 374.434431 337.610657 
L 374.461073 337.610657 
L 374.520039 337.610657 
L 374.611713 337.610657 
L 374.736048 337.610657 
L 374.892572 337.610657 
L 375.080411 337.610657 
L 375.298317 337.610657 
L 375.54469 337.610657 
L 375.817621 337.610657 
L 376.114929 337.610657 
L 376.4342 337.610657 
L 376.772837 337.610657 
L 394.790913 337.610657 
L 394.790913 337.610657 
L 395.12955 337.610657 
L 395.448821 337.610657 
L 395.746129 337.610657 
L 396.01906 337.610657 
L 396.265433 337.610657 
L 396.483339 337.610657 
L 396.671178 337.610657 
L 396.827702 337.610657 
L 396.952037 337.610657 
L 397.043711 337.610657 
L 397.102677 337.610657 
L 397.129319 337.610657 
L 397.12446 337.610657 
L 397.08936 337.610657 
L 397.025707 337.610657 
L 396.935599 337.610657 
L 396.821522 337.610657 
L 396.686321 337.610658 
L 396.533161 337.610658 
L 396.365492 337.610658 
L 396.186996 337.610658 
L 396.001546 337.610658 
L 395.813149 337.610658 
L 395.625897 337.610658 
L 395.443909 337.610658 
L 395.271283 337.610658 
L 395.112037 337.610658 
L 394.970064 337.610658 
L 394.849082 337.610658 
L 394.752589 337.610658 
L 394.683824 337.610658 
L 394.645728 337.610658 
L 394.640919 337.610658 
L 394.67166 337.610658 
L 394.739841 337.610658 
L 394.846969 337.610658 
L 394.994151 337.610658 
L 395.1821 337.610658 
L 395.411133 337.610658 
L 395.68118 337.610658 
L 395.991801 337.610658 
L 396.342202 337.610658 
L 396.731264 337.610658 
L 397.157564 337.610658 
L 397.619412 337.610658 
L 398.114883 337.610658 
L 398.641854 337.610658 
L 399.198038 337.610658 
L 399.781027 337.610658 
L 400.388317 337.610658 
L 401.017354 337.610658 
L 401.665551 337.610658 
L 402.330324 337.610658 
L 403.009106 337.610658 
L 403.69936 337.610658 
L 404.398594 337.610658 
L 405.104354 337.610658 
L 405.814221 337.610658 
L 406.525799 337.610658 
L 407.236697 337.610658 
L 407.944504 337.610658 
L 408.646761 337.610658 
L 409.340935 337.610658 
L 410.024385 337.610658 
L 410.694333 337.610658 
L 411.347842 337.610658 
L 411.981792 337.610658 
L 412.592863 337.610658 
L 413.177535 337.610658 
L 413.73209 337.610658 
L 414.252624 337.610658 
L 414.735079 337.610658 
L 415.175276 337.610658 
L 415.568966 337.610658 
L 415.911894 337.610658 
L 416.199864 337.610658 
L 416.428817 337.610659 
L 416.594914 337.610659 
L 416.694624 337.610659 
L 416.724804 337.610659 
L 416.68279 337.610659 
L 416.566469 337.610659 
L 416.374352 337.610659 
L 416.105635 337.610659 
L 415.760245 337.610659 
L 415.338872 337.610659 
L 414.842989 337.610659 
L 414.274852 337.610659 
L 413.637483 337.610659 
L 412.934636 337.610659 
L 412.170753 337.610659 
L 411.350899 337.610659 
L 410.480685 337.610659 
L 409.566184 337.610659 
L 408.613834 337.610659 
L 407.630341 337.610659 
L 406.622574 337.610659 
L 405.597458 337.610659 
L 404.561877 337.610659 
z
" clip-path="url(#pedabbc68b3)" style="fill: #4c78a8; fill-opacity: 0.65"/>
   </g>
   <g id="PolyCollection_4">
    <path d="M 510.368897 337.630846 
L 508.738287 337.630846 
L 508.731526 337.630846 
L 508.737858 337.630846 
L 508.75308 337.630846 
L 508.771683 337.630845 
L 508.787492 337.630845 
L 508.794408 337.630845 
L 508.787177 337.630845 
L 508.762077 337.630845 
L 508.717421 337.630845 
L 508.653831 337.630845 
L 508.574243 337.630845 
L 508.483643 337.630845 
L 508.388575 337.630845 
L 508.296469 337.630845 
L 508.214869 337.630845 
L 508.150637 337.630845 
L 508.109214 337.630845 
L 508.094017 337.630845 
L 508.106015 337.630845 
L 508.14353 337.630845 
L 508.202275 337.630845 
L 508.275628 337.630845 
L 508.355111 337.630845 
L 508.431047 337.630844 
L 508.493337 337.630844 
L 508.532317 337.630844 
L 508.539615 337.630844 
L 508.508959 337.630844 
L 508.436834 337.630844 
L 508.322926 337.630844 
L 508.170245 337.630844 
L 507.984867 337.630844 
L 507.775239 337.630844 
L 507.551056 337.630844 
L 507.321763 337.630844 
L 507.09484 337.630844 
L 506.874029 337.630844 
L 506.657763 337.630844 
L 506.437999 337.630844 
L 506.199654 337.630844 
L 505.920765 337.630844 
L 505.573415 337.630844 
L 505.12539 337.630843 
L 504.542479 337.630843 
L 503.791266 337.630843 
L 502.84226 337.630843 
L 501.673159 337.630843 
L 500.272019 337.630843 
L 498.640041 337.630843 
L 496.793654 337.630843 
L 494.765533 337.630843 
L 492.604259 337.630843 
L 490.372421 337.630843 
L 488.143151 337.630843 
L 485.995361 337.630843 
L 484.008151 337.630843 
L 482.255078 337.630843 
L 480.799002 337.630843 
L 479.688182 337.630843 
L 478.954031 337.630843 
L 478.610663 337.630843 
L 478.656035 337.630843 
L 479.074243 337.630842 
L 479.838401 337.630842 
L 480.913563 337.630842 
L 482.259281 337.630842 
L 483.83161 337.630842 
L 485.584567 337.630842 
L 487.471224 337.630842 
L 489.444633 337.630842 
L 491.458797 337.630842 
L 493.469766 337.630842 
L 495.436851 337.630842 
L 497.323864 337.630842 
L 499.100211 337.630842 
L 500.741718 337.630842 
L 502.231074 337.630842 
L 503.557858 337.630842 
L 504.71816 337.630842 
L 505.713881 337.630842 
L 506.551774 337.630842 
L 507.242356 337.630841 
L 507.79876 337.630841 
L 508.235639 337.630841 
L 508.56818 337.630841 
L 508.811293 337.630841 
L 508.979033 337.630841 
L 509.084249 337.630841 
L 509.138475 337.630841 
L 509.152007 337.630841 
L 509.134115 337.630841 
L 509.093307 337.630841 
L 509.037554 337.630841 
L 508.974419 337.630841 
L 508.911039 337.630841 
L 508.853953 337.630841 
L 508.80882 337.630841 
L 508.78007 337.630841 
L 508.770594 337.630841 
L 510.33659 337.630841 
L 510.33659 337.630841 
L 510.327114 337.630841 
L 510.298364 337.630841 
L 510.253231 337.630841 
L 510.196146 337.630841 
L 510.132766 337.630841 
L 510.069631 337.630841 
L 510.013878 337.630841 
L 509.973069 337.630841 
L 509.955178 337.630841 
L 509.968709 337.630841 
L 510.022935 337.630841 
L 510.128151 337.630841 
L 510.295891 337.630841 
L 510.539005 337.630841 
L 510.871545 337.630841 
L 511.308425 337.630841 
L 511.864829 337.630841 
L 512.55541 337.630842 
L 513.393303 337.630842 
L 514.389024 337.630842 
L 515.549327 337.630842 
L 516.87611 337.630842 
L 518.365466 337.630842 
L 520.006973 337.630842 
L 521.78332 337.630842 
L 523.670333 337.630842 
L 525.637419 337.630842 
L 527.648387 337.630842 
L 529.662551 337.630842 
L 531.63596 337.630842 
L 533.522617 337.630842 
L 535.275574 337.630842 
L 536.847903 337.630842 
L 538.193622 337.630842 
L 539.268784 337.630842 
L 540.032942 337.630842 
L 540.45115 337.630843 
L 540.496521 337.630843 
L 540.153153 337.630843 
L 539.419002 337.630843 
L 538.308183 337.630843 
L 536.852107 337.630843 
L 535.099033 337.630843 
L 533.111824 337.630843 
L 530.964034 337.630843 
L 528.734764 337.630843 
L 526.502925 337.630843 
L 524.341652 337.630843 
L 522.31353 337.630843 
L 520.467143 337.630843 
L 518.835166 337.630843 
L 517.434026 337.630843 
L 516.264924 337.630843 
L 515.315918 337.630843 
L 514.564705 337.630843 
L 513.981794 337.630843 
L 513.53377 337.630844 
L 513.186419 337.630844 
L 512.90753 337.630844 
L 512.669185 337.630844 
L 512.449422 337.630844 
L 512.233156 337.630844 
L 512.012345 337.630844 
L 511.785421 337.630844 
L 511.556129 337.630844 
L 511.331945 337.630844 
L 511.122318 337.630844 
L 510.936939 337.630844 
L 510.784258 337.630844 
L 510.67035 337.630844 
L 510.598225 337.630844 
L 510.567569 337.630844 
L 510.574868 337.630844 
L 510.613848 337.630844 
L 510.676138 337.630844 
L 510.752073 337.630845 
L 510.831557 337.630845 
L 510.90491 337.630845 
L 510.963655 337.630845 
L 511.001169 337.630845 
L 511.013167 337.630845 
L 510.99797 337.630845 
L 510.956548 337.630845 
L 510.892315 337.630845 
L 510.810715 337.630845 
L 510.71861 337.630845 
L 510.623542 337.630845 
L 510.532941 337.630845 
L 510.453353 337.630845 
L 510.389763 337.630845 
L 510.345107 337.630845 
L 510.320007 337.630845 
L 510.312777 337.630845 
L 510.319692 337.630845 
L 510.335501 337.630845 
L 510.354105 337.630846 
L 510.369326 337.630846 
L 510.375658 337.630846 
L 510.368897 337.630846 
z
" clip-path="url(#pedabbc68b3)" style="fill: #4c78a8; fill-opacity: 0.65"/>
   </g>
   <g id="PolyCollection_5">
    <path d="M 634.01717 337.653324 
L 632.633449 337.653324 
L 632.630626 337.653324 
L 632.635732 337.653324 
L 632.646538 337.653324 
L 632.659965 337.653324 
L 632.672183 337.653324 
L 632.678747 337.653324 
L 632.674775 337.653324 
L 632.655135 337.653324 
L 632.614657 337.653323 
L 632.548335 337.653323 
L 632.451529 337.653323 
L 632.320152 337.653323 
L 632.150828 337.653323 
L 631.941032 337.653323 
L 631.68918 337.653323 
L 631.394673 337.653323 
L 631.057892 337.653323 
L 630.680121 337.653323 
L 630.263422 337.653323 
L 629.810462 337.653323 
L 629.324309 337.653323 
L 628.808232 337.653323 
L 628.265531 337.653323 
L 627.699425 337.653323 
L 627.11302 337.653323 
L 626.509371 337.653323 
L 625.89162 337.653323 
L 625.263186 337.653323 
L 624.627964 337.653323 
L 623.990478 337.653323 
L 623.355929 337.653323 
L 622.730105 337.653323 
L 622.119126 337.653322 
L 621.529026 337.653322 
L 620.96523 337.653322 
L 620.431972 337.653322 
L 619.931749 337.653322 
L 619.464905 337.653322 
L 619.029414 337.653322 
L 618.620908 337.653322 
L 618.232989 337.653322 
L 617.857763 337.653322 
L 617.486561 337.653322 
L 617.110737 337.653322 
L 616.722448 337.653322 
L 616.315309 337.653322 
L 615.884852 337.653322 
L 615.428737 337.653322 
L 614.946724 337.653322 
L 614.440431 337.653322 
L 613.912945 337.653322 
L 613.36838 337.653322 
L 612.811433 337.653322 
L 612.247037 337.653322 
L 611.6801 337.653322 
L 611.11537 337.653322 
L 610.55736 337.653321 
L 610.010299 337.653321 
L 609.478055 337.653321 
L 608.963981 337.653321 
L 608.47068 337.653321 
L 607.99972 337.653321 
L 607.551345 337.653321 
L 607.124275 337.653321 
L 606.715675 337.653321 
L 606.32137 337.653321 
L 605.936328 337.653321 
L 605.555399 337.653321 
L 605.174236 337.653321 
L 604.79029 337.653321 
L 604.403736 337.653321 
L 604.018193 337.653321 
L 603.64113 337.653321 
L 603.283867 337.653321 
L 602.961186 337.653321 
L 602.690559 337.653321 
L 602.491106 337.653321 
L 602.38238 337.653321 
L 602.383122 337.653321 
L 602.510087 337.653321 
L 602.777045 337.65332 
L 603.194015 337.65332 
L 603.766757 337.65332 
L 604.496522 337.65332 
L 605.380037 337.65332 
L 606.40969 337.65332 
L 607.573882 337.65332 
L 608.857501 337.65332 
L 610.242506 337.65332 
L 611.70858 337.65332 
L 613.233835 337.65332 
L 614.795549 337.65332 
L 616.370914 337.65332 
L 617.937753 337.65332 
L 619.475191 337.65332 
L 620.964247 337.65332 
L 622.388311 337.65332 
L 623.733505 337.65332 
L 624.988895 337.65332 
L 641.661723 337.65332 
L 641.661723 337.65332 
L 642.917114 337.65332 
L 644.262307 337.65332 
L 645.686372 337.65332 
L 647.175427 337.65332 
L 648.712866 337.65332 
L 650.279705 337.65332 
L 651.85507 337.65332 
L 653.416784 337.65332 
L 654.942039 337.65332 
L 656.408113 337.65332 
L 657.793118 337.65332 
L 659.076737 337.65332 
L 660.240928 337.65332 
L 661.270582 337.65332 
L 662.154097 337.65332 
L 662.883862 337.65332 
L 663.456604 337.65332 
L 663.873574 337.65332 
L 664.140532 337.653321 
L 664.267497 337.653321 
L 664.268239 337.653321 
L 664.159513 337.653321 
L 663.960059 337.653321 
L 663.689432 337.653321 
L 663.366751 337.653321 
L 663.009489 337.653321 
L 662.632425 337.653321 
L 662.246883 337.653321 
L 661.860329 337.653321 
L 661.476382 337.653321 
L 661.095219 337.653321 
L 660.71429 337.653321 
L 660.329249 337.653321 
L 659.934944 337.653321 
L 659.526344 337.653321 
L 659.099273 337.653321 
L 658.650899 337.653321 
L 658.179939 337.653321 
L 657.686638 337.653321 
L 657.172563 337.653321 
L 656.640319 337.653321 
L 656.093259 337.653321 
L 655.535249 337.653322 
L 654.970519 337.653322 
L 654.403582 337.653322 
L 653.839185 337.653322 
L 653.282239 337.653322 
L 652.737673 337.653322 
L 652.210188 337.653322 
L 651.703894 337.653322 
L 651.221881 337.653322 
L 650.765767 337.653322 
L 650.335309 337.653322 
L 649.928171 337.653322 
L 649.539882 337.653322 
L 649.164058 337.653322 
L 648.792855 337.653322 
L 648.417629 337.653322 
L 648.02971 337.653322 
L 647.621205 337.653322 
L 647.185713 337.653322 
L 646.71887 337.653322 
L 646.218647 337.653322 
L 645.685388 337.653322 
L 645.121593 337.653322 
L 644.531493 337.653322 
L 643.920514 337.653323 
L 643.29469 337.653323 
L 642.660141 337.653323 
L 642.022654 337.653323 
L 641.387433 337.653323 
L 640.758998 337.653323 
L 640.141247 337.653323 
L 639.537598 337.653323 
L 638.951194 337.653323 
L 638.385088 337.653323 
L 637.842387 337.653323 
L 637.32631 337.653323 
L 636.840157 337.653323 
L 636.387197 337.653323 
L 635.970498 337.653323 
L 635.592727 337.653323 
L 635.255946 337.653323 
L 634.961439 337.653323 
L 634.709587 337.653323 
L 634.499791 337.653323 
L 634.330467 337.653323 
L 634.199089 337.653323 
L 634.102284 337.653323 
L 634.035962 337.653323 
L 633.995483 337.653324 
L 633.975844 337.653324 
L 633.971871 337.653324 
L 633.978436 337.653324 
L 633.990654 337.653324 
L 634.004081 337.653324 
L 634.014887 337.653324 
L 634.019993 337.653324 
L 634.01717 337.653324 
z
" clip-path="url(#pedabbc68b3)" style="fill: #4c78a8; fill-opacity: 0.65"/>
   </g>
   <g id="LineCollection_1">
    <path d="M 122.766976 49.38814 
L 153.709905 49.38814 
" clip-path="url(#pedabbc68b3)" style="fill: none; stroke: #1f77b4; stroke-width: 1.5"/>
    <path d="M 246.538693 337.629954 
L 277.481622 337.629954 
" clip-path="url(#pedabbc68b3)" style="fill: none; stroke: #1f77b4; stroke-width: 1.5"/>
    <path d="M 370.31041 337.610658 
L 401.25334 337.610658 
" clip-path="url(#pedabbc68b3)" style="fill: none; stroke: #1f77b4; stroke-width: 1.5"/>
    <path d="M 494.082128 337.630843 
L 525.025057 337.630843 
" clip-path="url(#pedabbc68b3)" style="fill: none; stroke: #1f77b4; stroke-width: 1.5"/>
    <path d="M 617.853845 337.653321 
L 648.796774 337.653321 
" clip-path="url(#pedabbc68b3)" style="fill: none; stroke: #1f77b4; stroke-width: 1.5"/>
   </g>
   <g id="LineCollection_2">
    <path d="M 122.766976 49.069801 
L 153.709905 49.069801 
" clip-path="url(#pedabbc68b3)" style="fill: none; stroke: #1f77b4; stroke-width: 1.5"/>
    <path d="M 246.538693 337.629951 
L 277.481622 337.629951 
" clip-path="url(#pedabbc68b3)" style="fill: none; stroke: #1f77b4; stroke-width: 1.5"/>
    <path d="M 370.31041 337.610657 
L 401.25334 337.610657 
" clip-path="url(#pedabbc68b3)" style="fill: none; stroke: #1f77b4; stroke-width: 1.5"/>
    <path d="M 494.082128 337.630841 
L 525.025057 337.630841 
" clip-path="url(#pedabbc68b3)" style="fill: none; stroke: #1f77b4; stroke-width: 1.5"/>
    <path d="M 617.853845 337.65332 
L 648.796774 337.65332 
" clip-path="url(#pedabbc68b3)" style="fill: none; stroke: #1f77b4; stroke-width: 1.5"/>
   </g>
   <g id="LineCollection_3">
    <path d="M 122.766976 49.513857 
L 153.709905 49.513857 
" clip-path="url(#pedabbc68b3)" style="fill: none; stroke: #1f77b4; stroke-width: 1.5"/>
    <path d="M 246.538693 337.629956 
L 277.481622 337.629956 
" clip-path="url(#pedabbc68b3)" style="fill: none; stroke: #1f77b4; stroke-width: 1.5"/>
    <path d="M 370.31041 337.610659 
L 401.25334 337.610659 
" clip-path="url(#pedabbc68b3)" style="fill: none; stroke: #1f77b4; stroke-width: 1.5"/>
    <path d="M 494.082128 337.630846 
L 525.025057 337.630846 
" clip-path="url(#pedabbc68b3)" style="fill: none; stroke: #1f77b4; stroke-width: 1.5"/>
    <path d="M 617.853845 337.653324 
L 648.796774 337.653324 
" clip-path="url(#pedabbc68b3)" style="fill: none; stroke: #1f77b4; stroke-width: 1.5"/>
   </g>
   <g id="LineCollection_4">
    <path d="M 138.238441 49.513857 
L 138.238441 49.069801 
" clip-path="url(#pedabbc68b3)" style="fill: none; stroke: #1f77b4; stroke-width: 1.5"/>
    <path d="M 262.010158 337.629956 
L 262.010158 337.629951 
" clip-path="url(#pedabbc68b3)" style="fill: none; stroke: #1f77b4; stroke-width: 1.5"/>
    <path d="M 385.781875 337.610659 
L 385.781875 337.610657 
" clip-path="url(#pedabbc68b3)" style="fill: none; stroke: #1f77b4; stroke-width: 1.5"/>
    <path d="M 509.553592 337.630846 
L 509.553592 337.630841 
" clip-path="url(#pedabbc68b3)" style="fill: none; stroke: #1f77b4; stroke-width: 1.5"/>
    <path d="M 633.325309 337.653324 
L 633.325309 337.65332 
" clip-path="url(#pedabbc68b3)" style="fill: none; stroke: #1f77b4; stroke-width: 1.5"/>
   </g>
   <g id="LineCollection_5">
    <path d="M 122.766976 49.421018 
L 153.709905 49.421018 
" clip-path="url(#pedabbc68b3)" style="fill: none; stroke: #1f77b4; stroke-width: 1.5"/>
    <path d="M 246.538693 337.629954 
L 277.481622 337.629954 
" clip-path="url(#pedabbc68b3)" style="fill: none; stroke: #1f77b4; stroke-width: 1.5"/>
    <path d="M 370.31041 337.610658 
L 401.25334 337.610658 
" clip-path="url(#pedabbc68b3)" style="fill: none; stroke: #1f77b4; stroke-width: 1.5"/>
    <path d="M 494.082128 337.630843 
L 525.025057 337.630843 
" clip-path="url(#pedabbc68b3)" style="fill: none; stroke: #1f77b4; stroke-width: 1.5"/>
    <path d="M 617.853845 337.653321 
L 648.796774 337.653321 
" clip-path="url(#pedabbc68b3)" style="fill: none; stroke: #1f77b4; stroke-width: 1.5"/>
   </g>
   <g id="patch_3">
    <path d="M 79.446875 352.0825 
L 79.446875 34.640625 
" style="fill: none; stroke: #808080; stroke-width: 0.8; stroke-linejoin: miter; stroke-linecap: square"/>
   </g>
   <g id="patch_4">
    <path d="M 79.446875 352.0825 
L 692.116875 352.0825 
" style="fill: none; stroke: #808080; stroke-width: 0.8; stroke-linejoin: miter; stroke-linecap: square"/>
   </g>
   <g id="text_13">
    <text style="font: 22px 'PingFang SC', 'Heiti SC', 'STHeiti', 'Calibri', 'Arial', 'Helvetica Neue', 'Arial Unicode MS', 'Noto Sans CJK SC', 'DejaVu Sans', sans-serif; text-anchor: middle" x="385.781875" y="28.640625" transform="rotate(-0 385.781875 28.640625)">All-Reduce · 256 MB Rank 分布（Violin）</text>
   </g>
  </g>
 </g>
 <defs>
  <clipPath id="pedabbc68b3">
   <rect x="79.446875" y="34.640625" width="612.67" height="317.441875"/>
  </clipPath>
 </defs>
</svg>
