<?xml version="1.0" encoding="utf-8" standalone="no"?>
<!DOCTYPE svg PUBLIC "-//W3C//DTD SVG 1.1//EN"
  "http://www.w3.org/Graphics/SVG/1.1/DTD/svg11.dtd">
<svg xmlns:xlink="http://www.w3.org/1999/xlink" width="702.915pt" height="415.047625pt" viewBox="0 0 702.915 415.047625" xmlns="http://www.w3.org/2000/svg" version="1.1">
 <metadata>
  <rdf:RDF xmlns:dc="http://purl.org/dc/elements/1.1/" xmlns:cc="http://creativecommons.org/ns#" xmlns:rdf="http://www.w3.org/1999/02/22-rdf-syntax-ns#">
   <cc:Work>
    <dc:type rdf:resource="http://purl.org/dc/dcmitype/StillImage"/>
    <dc:date>2026-07-11T21:56:33.002188</dc:date>
    <dc:format>image/svg+xml</dc:format>
    <dc:creator>
     <cc:Agent>
      <dc:title>Matplotlib v3.9.4, https://matplotlib.org/</dc:title>
     </cc:Agent>
    </dc:creator>
   </cc:Work>
  </rdf:RDF>
 </metadata>
 <defs>
  <style type="text/css">*{stroke-linejoin: round; stroke-linecap: butt}</style>
 </defs>
 <g id="figure_1">
  <g id="patch_1">
   <path d="M 0 415.047625 
L 702.915 415.047625 
L 702.915 0 
L 0 0 
z
" style="fill: #ffffff"/>
  </g>
  <g id="axes_1">
   <g id="patch_2">
    <path d="M 67.2575 360.402725 
L 692.115 360.402725 
L 692.115 34.929375 
L 67.2575 34.929375 
z
" style="fill: #ffffff"/>
   </g>
   <g id="matplotlib.axis_1">
    <g id="xtick_1">
     <g id="line2d_1">
      <defs>
       <path id="m1fbc24d465" d="M 0 0 
L 0 3.5 
" style="stroke: #808080; stroke-width: 0.8"/>
      </defs>
      <g>
       <use xlink:href="#m1fbc24d465" x="212.612052" y="360.402725" style="fill: #808080; stroke: #808080; stroke-width: 0.8"/>
      </g>
     </g>
     <g id="text_1">
      <text style="fill: #808080; font: 22px 'PingFang SC', 'Heiti SC', 'STHeiti', 'Calibri', 'Arial', 'Helvetica Neue', 'Arial Unicode MS', 'Noto Sans CJK SC', 'DejaVu Sans', sans-serif" transform="translate(148.097593 401.398747) rotate(-15)">环相邻</text>
     </g>
    </g>
    <g id="xtick_2">
     <g id="line2d_2">
      <g>
       <use xlink:href="#m1fbc24d465" x="546.760448" y="360.402725" style="fill: #808080; stroke: #808080; stroke-width: 0.8"/>
      </g>
     </g>
     <g id="text_2">
      <text style="fill: #808080; font: 22px 'PingFang SC', 'Heiti SC', 'STHeiti', 'Calibri', 'Arial', 'Helvetica Neue', 'Arial Unicode MS', 'Noto Sans CJK SC', 'DejaVu Sans', sans-serif" transform="translate(482.245989 401.398747) rotate(-15)">环闭合</text>
     </g>
    </g>
   </g>
   <g id="matplotlib.axis_2">
    <g id="ytick_1">
     <g id="line2d_3">
      <path d="M 67.2575 360.402725 
L 692.115 360.402725 
" clip-path="url(#p9787c76446)" style="fill: none; stroke-dasharray: 1,1.65; stroke-dashoffset: 0; stroke: #808080; stroke-opacity: 0.55"/>
     </g>
     <g id="line2d_4">
      <defs>
       <path id="m19bbb2dcfe" d="M 0 0 
L -3.5 0 
" style="stroke: #808080; stroke-width: 0.8"/>
      </defs>
      <g>
       <use xlink:href="#m19bbb2dcfe" x="67.2575" y="360.402725" style="fill: #808080; stroke: #808080; stroke-width: 0.8"/>
      </g>
     </g>
     <g id="text_3">
      <text style="fill: #808080; font: 22px 'PingFang SC', 'Heiti SC', 'STHeiti', 'Calibri', 'Arial', 'Helvetica Neue', 'Arial Unicode MS', 'Noto Sans CJK SC', 'DejaVu Sans', sans-serif; text-anchor: end" x="60.2575" y="369.158038" transform="rotate(-0 60.2575 369.158038)">0</text>
     </g>
    </g>
    <g id="ytick_2">
     <g id="line2d_5">
      <path d="M 67.2575 307.384467 
L 692.115 307.384467 
" clip-path="url(#p9787c76446)" style="fill: none; stroke-dasharray: 1,1.65; stroke-dashoffset: 0; stroke: #808080; stroke-opacity: 0.55"/>
     </g>
     <g id="line2d_6">
      <g>
       <use xlink:href="#m19bbb2dcfe" x="67.2575" y="307.384467" style="fill: #808080; stroke: #808080; stroke-width: 0.8"/>
      </g>
     </g>
     <g id="text_4">
      <text style="fill: #808080; font: 22px 'PingFang SC', 'Heiti SC', 'STHeiti', 'Calibri', 'Arial', 'Helvetica Neue', 'Arial Unicode MS', 'Noto Sans CJK SC', 'DejaVu Sans', sans-serif; text-anchor: end" x="60.2575" y="316.13978" transform="rotate(-0 60.2575 316.13978)">5</text>
     </g>
    </g>
    <g id="ytick_3">
     <g id="line2d_7">
      <path d="M 67.2575 254.366209 
L 692.115 254.366209 
" clip-path="url(#p9787c76446)" style="fill: none; stroke-dasharray: 1,1.65; stroke-dashoffset: 0; stroke: #808080; stroke-opacity: 0.55"/>
     </g>
     <g id="line2d_8">
      <g>
       <use xlink:href="#m19bbb2dcfe" x="67.2575" y="254.366209" style="fill: #808080; stroke: #808080; stroke-width: 0.8"/>
      </g>
     </g>
     <g id="text_5">
      <text style="fill: #808080; font: 22px 'PingFang SC', 'Heiti SC', 'STHeiti', 'Calibri', 'Arial', 'Helvetica Neue', 'Arial Unicode MS', 'Noto Sans CJK SC', 'DejaVu Sans', sans-serif; text-anchor: end" x="60.2575" y="263.121522" transform="rotate(-0 60.2575 263.121522)">10</text>
     </g>
    </g>
    <g id="ytick_4">
     <g id="line2d_9">
      <path d="M 67.2575 201.347951 
L 692.115 201.347951 
" clip-path="url(#p9787c76446)" style="fill: none; stroke-dasharray: 1,1.65; stroke-dashoffset: 0; stroke: #808080; stroke-opacity: 0.55"/>
     </g>
     <g id="line2d_10">
      <g>
       <use xlink:href="#m19bbb2dcfe" x="67.2575" y="201.347951" style="fill: #808080; stroke: #808080; stroke-width: 0.8"/>
      </g>
     </g>
     <g id="text_6">
      <text style="fill: #808080; font: 22px 'PingFang SC', 'Heiti SC', 'STHeiti', 'Calibri', 'Arial', 'Helvetica Neue', 'Arial Unicode MS', 'Noto Sans CJK SC', 'DejaVu Sans', sans-serif; text-anchor: end" x="60.2575" y="210.103264" transform="rotate(-0 60.2575 210.103264)">15</text>
     </g>
    </g>
    <g id="ytick_5">
     <g id="line2d_11">
      <path d="M 67.2575 148.329693 
L 692.115 148.329693 
" clip-path="url(#p9787c76446)" style="fill: none; stroke-dasharray: 1,1.65; stroke-dashoffset: 0; stroke: #808080; stroke-opacity: 0.55"/>
     </g>
     <g id="line2d_12">
      <g>
       <use xlink:href="#m19bbb2dcfe" x="67.2575" y="148.329693" style="fill: #808080; stroke: #808080; stroke-width: 0.8"/>
      </g>
     </g>
     <g id="text_7">
      <text style="fill: #808080; font: 22px 'PingFang SC', 'Heiti SC', 'STHeiti', 'Calibri', 'Arial', 'Helvetica Neue', 'Arial Unicode MS', 'Noto Sans CJK SC', 'DejaVu Sans', sans-serif; text-anchor: end" x="60.2575" y="157.085006" transform="rotate(-0 60.2575 157.085006)">20</text>
     </g>
    </g>
    <g id="ytick_6">
     <g id="line2d_13">
      <path d="M 67.2575 95.311435 
L 692.115 95.311435 
" clip-path="url(#p9787c76446)" style="fill: none; stroke-dasharray: 1,1.65; stroke-dashoffset: 0; stroke: #808080; stroke-opacity: 0.55"/>
     </g>
     <g id="line2d_14">
      <g>
       <use xlink:href="#m19bbb2dcfe" x="67.2575" y="95.311435" style="fill: #808080; stroke: #808080; stroke-width: 0.8"/>
      </g>
     </g>
     <g id="text_8">
      <text style="fill: #808080; font: 22px 'PingFang SC', 'Heiti SC', 'STHeiti', 'Calibri', 'Arial', 'Helvetica Neue', 'Arial Unicode MS', 'Noto Sans CJK SC', 'DejaVu Sans', sans-serif; text-anchor: end" x="60.2575" y="104.066748" transform="rotate(-0 60.2575 104.066748)">25</text>
     </g>
    </g>
    <g id="ytick_7">
     <g id="line2d_15">
      <path d="M 67.2575 42.293177 
L 692.115 42.293177 
" clip-path="url(#p9787c76446)" style="fill: none; stroke-dasharray: 1,1.65; stroke-dashoffset: 0; stroke: #808080; stroke-opacity: 0.55"/>
     </g>
     <g id="line2d_16">
      <g>
       <use xlink:href="#m19bbb2dcfe" x="67.2575" y="42.293177" style="fill: #808080; stroke: #808080; stroke-width: 0.8"/>
      </g>
     </g>
     <g id="text_9">
      <text style="fill: #808080; font: 22px 'PingFang SC', 'Heiti SC', 'STHeiti', 'Calibri', 'Arial', 'Helvetica Neue', 'Arial Unicode MS', 'Noto Sans CJK SC', 'DejaVu Sans', sans-serif; text-anchor: end" x="60.2575" y="51.04849" transform="rotate(-0 60.2575 51.04849)">30</text>
     </g>
    </g>
    <g id="text_10">
     <text style="font: 22px 'PingFang SC', 'Heiti SC', 'STHeiti', 'Calibri', 'Arial', 'Helvetica Neue', 'Arial Unicode MS', 'Noto Sans CJK SC', 'DejaVu Sans', sans-serif; text-anchor: middle" x="28.929375" y="197.66605" transform="rotate(-90 28.929375 197.66605)">平均带宽 (GB/s)</text>
    </g>
   </g>
   <g id="patch_3">
    <path d="M 95.660114 360.402725 
L 212.612052 360.402725 
L 212.612052 50.428106 
L 95.660114 50.428106 
z
" clip-path="url(#p9787c76446)" style="fill: url(#h8c50c55a00); stroke: #ff7f0e; stroke-width: 2; stroke-linejoin: miter"/>
   </g>
   <g id="patch_4">
    <path d="M 429.808509 360.402725 
L 546.760448 360.402725 
L 546.760448 356.729956 
L 429.808509 356.729956 
z
" clip-path="url(#p9787c76446)" style="fill: url(#h8c50c55a00); stroke: #ff7f0e; stroke-width: 2; stroke-linejoin: miter"/>
   </g>
   <g id="patch_5">
    <path d="M 212.612052 360.402725 
L 329.563991 360.402725 
L 329.563991 88.769747 
L 212.612052 88.769747 
z
" clip-path="url(#p9787c76446)" style="fill: url(#hf064fbe26f); stroke: #2ca02c; stroke-width: 2; stroke-linejoin: miter"/>
   </g>
   <g id="patch_6">
    <path d="M 546.760448 360.402725 
L 663.712386 360.402725 
L 663.712386 356.673439 
L 546.760448 356.673439 
z
" clip-path="url(#p9787c76446)" style="fill: url(#hf064fbe26f); stroke: #2ca02c; stroke-width: 2; stroke-linejoin: miter"/>
   </g>
   <g id="patch_7">
    <path d="M 67.2575 360.402725 
L 67.2575 34.929375 
" style="fill: none; stroke: #808080; stroke-width: 0.8; stroke-linejoin: miter; stroke-linecap: square"/>
   </g>
   <g id="patch_8">
    <path d="M 67.2575 360.402725 
L 692.115 360.402725 
" style="fill: none; stroke: #808080; stroke-width: 0.8; stroke-linejoin: miter; stroke-linecap: square"/>
   </g>
   <g id="text_11">
    <text style="font: 22px 'PingFang SC', 'Heiti SC', 'STHeiti', 'Calibri', 'Arial', 'Helvetica Neue', 'Arial Unicode MS', 'Noto Sans CJK SC', 'DejaVu Sans', sans-serif; text-anchor: middle" x="379.68625" y="28.929375" transform="rotate(-0 379.68625 28.929375)">P2P · 16 MB 边类型均值对比 (world 16 vs 128)</text>
   </g>
   <g id="legend_1">
    <g id="patch_9">
     <path d="M 532.995 100.809375 
L 679.515 100.809375 
Q 683.115 100.809375 683.115 97.209375 
L 683.115 47.529375 
Q 683.115 43.929375 679.515 43.929375 
L 532.995 43.929375 
Q 529.395 43.929375 529.395 47.529375 
L 529.395 97.209375 
Q 529.395 100.809375 532.995 100.809375 
z
" style="fill: #ffffff; opacity: 0.5; stroke: #cccccc; stroke-linejoin: miter"/>
    </g>
    <g id="patch_10">
     <path d="M 536.595 65.45625 
L 572.595 65.45625 
L 572.595 52.85625 
L 536.595 52.85625 
z
" style="fill: url(#h8c50c55a00); stroke: #ff7f0e; stroke-width: 2; stroke-linejoin: miter"/>
    </g>
    <g id="text_12">
     <text style="font: 18px 'PingFang SC', 'Heiti SC', 'STHeiti', 'Calibri', 'Arial', 'Helvetica Neue', 'Arial Unicode MS', 'Noto Sans CJK SC', 'DejaVu Sans', sans-serif; text-anchor: start" x="586.995" y="65.45625" transform="rotate(-0 586.995 65.45625)">world=16</text>
    </g>
    <g id="patch_11">
     <path d="M 536.595 91.19625 
L 572.595 91.19625 
L 572.595 78.59625 
L 536.595 78.59625 
z
" style="fill: url(#hf064fbe26f); stroke: #2ca02c; stroke-width: 2; stroke-linejoin: miter"/>
    </g>
    <g id="text_13">
     <text style="font: 18px 'PingFang SC', 'Heiti SC', 'STHeiti', 'Calibri', 'Arial', 'Helvetica Neue', 'Arial Unicode MS', 'Noto Sans CJK SC', 'DejaVu Sans', sans-serif; text-anchor: start" x="586.995" y="91.19625" transform="rotate(-0 586.995 91.19625)">world=128</text>
    </g>
   </g>
  </g>
 </g>
 <defs>
  <clipPath id="p9787c76446">
   <rect x="67.2575" y="34.929375" width="624.8575" height="325.47335"/>
  </clipPath>
 </defs>
 <defs>
  <pattern id="h8c50c55a00" patternUnits="userSpaceOnUse" x="0" y="0" width="72" height="72">
   <rect x="0" y="0" width="73" height="73" fill="none"/>
   <path d="M -36 36 
L 36 -36 
M -30 42 
L 42 -30 
M -24 48 
L 48 -24 
M -18 54 
L 54 -18 
M -12 60 
L 60 -12 
M -6 66 
L 66 -6 
M 0 72 
L 72 0 
M 6 78 
L 78 6 
M 12 84 
L 84 12 
M 18 90 
L 90 18 
M 24 96 
L 96 24 
M 30 102 
L 102 30 
M 36 108 
L 108 36 
" style="fill: #ff7f0e; stroke: #ff7f0e; stroke-width: 1.0; stroke-linecap: butt; stroke-linejoin: miter"/>
  </pattern>
  <pattern id="hf064fbe26f" patternUnits="userSpaceOnUse" x="0" y="0" width="72" height="72">
   <rect x="0" y="0" width="73" height="73" fill="none"/>
   <path d="M -36 36 
L 36 -36 
M -30 42 
L 42 -30 
M -24 48 
L 48 -24 
M -18 54 
L 54 -18 
M -12 60 
L 60 -12 
M -6 66 
L 66 -6 
M 0 72 
L 72 0 
M 6 78 
L 78 6 
M 12 84 
L 84 12 
M 18 90 
L 90 18 
M 24 96 
L 96 24 
M 30 102 
L 102 30 
M 36 108 
L 108 36 
M -36 36 
L 36 108 
M -30 30 
L 42 102 
M -24 24 
L 48 96 
M -18 18 
L 54 90 
M -12 12 
L 60 84 
M -6 6 
L 66 78 
M 0 0 
L 72 72 
M 6 -6 
L 78 66 
M 12 -12 
L 84 60 
M 18 -18 
L 90 54 
M 24 -24 
L 96 48 
M 30 -30 
L 102 42 
M 36 -36 
L 108 36 
" style="fill: #2ca02c; stroke: #2ca02c; stroke-width: 1.0; stroke-linecap: butt; stroke-linejoin: miter"/>
  </pattern>
 </defs>
</svg>
