<?xml version="1.0" encoding="utf-8" standalone="no"?>
<!DOCTYPE svg PUBLIC "-//W3C//DTD SVG 1.1//EN"
  "http://www.w3.org/Graphics/SVG/1.1/DTD/svg11.dtd">
<svg xmlns:xlink="http://www.w3.org/1999/xlink" width="990.915pt" height="442.843556pt" viewBox="0 0 990.915 442.843556" xmlns="http://www.w3.org/2000/svg" version="1.1">
 <metadata>
  <rdf:RDF xmlns:dc="http://purl.org/dc/elements/1.1/" xmlns:cc="http://creativecommons.org/ns#" xmlns:rdf="http://www.w3.org/1999/02/22-rdf-syntax-ns#">
   <cc:Work>
    <dc:type rdf:resource="http://purl.org/dc/dcmitype/StillImage"/>
    <dc:date>2026-07-11T21:56:32.773615</dc:date>
    <dc:format>image/svg+xml</dc:format>
    <dc:creator>
     <cc:Agent>
      <dc:title>Matplotlib v3.9.4, https://matplotlib.org/</dc:title>
     </cc:Agent>
    </dc:creator>
   </cc:Work>
  </rdf:RDF>
 </metadata>
 <defs>
  <style type="text/css">*{stroke-linejoin: round; stroke-linecap: butt}</style>
 </defs>
 <g id="figure_1">
  <g id="patch_1">
   <path d="M 0 442.843556 
L 990.915 442.843556 
L 990.915 0 
L 0 0 
z
" style="fill: #ffffff"/>
  </g>
  <g id="axes_1">
   <g id="patch_2">
    <path d="M 67.2575 383.244115 
L 485.835 383.244115 
L 485.835 94.924688 
L 67.2575 94.924688 
z
" style="fill: #ffffff"/>
   </g>
   <g id="matplotlib.axis_1">
    <g id="xtick_1">
     <g id="line2d_1">
      <defs>
       <path id="m2fc437d14f" d="M 0 0 
L 0 3.5 
" style="stroke: #808080; stroke-width: 0.8"/>
      </defs>
      <g>
       <use xlink:href="#m2fc437d14f" x="149.704583" y="383.244115" style="fill: #808080; stroke: #808080; stroke-width: 0.8"/>
      </g>
     </g>
     <g id="text_1">
      <text style="fill: #808080; font: 22px 'PingFang SC', 'Heiti SC', 'STHeiti', 'Calibri', 'Arial', 'Helvetica Neue', 'Arial Unicode MS', 'Noto Sans CJK SC', 'DejaVu Sans', sans-serif" transform="translate(86.676125 429.27205) rotate(-20)">环相邻</text>
     </g>
    </g>
    <g id="xtick_2">
     <g id="line2d_2">
      <g>
       <use xlink:href="#m2fc437d14f" x="403.387917" y="383.244115" style="fill: #808080; stroke: #808080; stroke-width: 0.8"/>
      </g>
     </g>
     <g id="text_2">
      <text style="fill: #808080; font: 22px 'PingFang SC', 'Heiti SC', 'STHeiti', 'Calibri', 'Arial', 'Helvetica Neue', 'Arial Unicode MS', 'Noto Sans CJK SC', 'DejaVu Sans', sans-serif" transform="translate(340.359458 429.27205) rotate(-20)">环闭合</text>
     </g>
    </g>
   </g>
   <g id="matplotlib.axis_2">
    <g id="ytick_1">
     <g id="line2d_3">
      <path d="M 67.2575 370.204029 
L 485.835 370.204029 
" clip-path="url(#p6ffc5e5840)" style="fill: none; stroke-dasharray: 1,1.65; stroke-dashoffset: 0; stroke: #808080; stroke-opacity: 0.55"/>
     </g>
     <g id="line2d_4">
      <defs>
       <path id="m7de1f35479" d="M 0 0 
L -3.5 0 
" style="stroke: #808080; stroke-width: 0.8"/>
      </defs>
      <g>
       <use xlink:href="#m7de1f35479" x="67.2575" y="370.204029" style="fill: #808080; stroke: #808080; stroke-width: 0.8"/>
      </g>
     </g>
     <g id="text_3">
      <text style="fill: #808080; font: 22px 'PingFang SC', 'Heiti SC', 'STHeiti', 'Calibri', 'Arial', 'Helvetica Neue', 'Arial Unicode MS', 'Noto Sans CJK SC', 'DejaVu Sans', sans-serif; text-anchor: end" x="60.2575" y="378.959341" transform="rotate(-0 60.2575 378.959341)">0</text>
     </g>
    </g>
    <g id="ytick_2">
     <g id="line2d_5">
      <path d="M 67.2575 293.444468 
L 485.835 293.444468 
" clip-path="url(#p6ffc5e5840)" style="fill: none; stroke-dasharray: 1,1.65; stroke-dashoffset: 0; stroke: #808080; stroke-opacity: 0.55"/>
     </g>
     <g id="line2d_6">
      <g>
       <use xlink:href="#m7de1f35479" x="67.2575" y="293.444468" style="fill: #808080; stroke: #808080; stroke-width: 0.8"/>
      </g>
     </g>
     <g id="text_4">
      <text style="fill: #808080; font: 22px 'PingFang SC', 'Heiti SC', 'STHeiti', 'Calibri', 'Arial', 'Helvetica Neue', 'Arial Unicode MS', 'Noto Sans CJK SC', 'DejaVu Sans', sans-serif; text-anchor: end" x="60.2575" y="302.199781" transform="rotate(-0 60.2575 302.199781)">10</text>
     </g>
    </g>
    <g id="ytick_3">
     <g id="line2d_7">
      <path d="M 67.2575 216.684908 
L 485.835 216.684908 
" clip-path="url(#p6ffc5e5840)" style="fill: none; stroke-dasharray: 1,1.65; stroke-dashoffset: 0; stroke: #808080; stroke-opacity: 0.55"/>
     </g>
     <g id="line2d_8">
      <g>
       <use xlink:href="#m7de1f35479" x="67.2575" y="216.684908" style="fill: #808080; stroke: #808080; stroke-width: 0.8"/>
      </g>
     </g>
     <g id="text_5">
      <text style="fill: #808080; font: 22px 'PingFang SC', 'Heiti SC', 'STHeiti', 'Calibri', 'Arial', 'Helvetica Neue', 'Arial Unicode MS', 'Noto Sans CJK SC', 'DejaVu Sans', sans-serif; text-anchor: end" x="60.2575" y="225.44022" transform="rotate(-0 60.2575 225.44022)">20</text>
     </g>
    </g>
    <g id="ytick_4">
     <g id="line2d_9">
      <path d="M 67.2575 139.925347 
L 485.835 139.925347 
" clip-path="url(#p6ffc5e5840)" style="fill: none; stroke-dasharray: 1,1.65; stroke-dashoffset: 0; stroke: #808080; stroke-opacity: 0.55"/>
     </g>
     <g id="line2d_10">
      <g>
       <use xlink:href="#m7de1f35479" x="67.2575" y="139.925347" style="fill: #808080; stroke: #808080; stroke-width: 0.8"/>
      </g>
     </g>
     <g id="text_6">
      <text style="fill: #808080; font: 22px 'PingFang SC', 'Heiti SC', 'STHeiti', 'Calibri', 'Arial', 'Helvetica Neue', 'Arial Unicode MS', 'Noto Sans CJK SC', 'DejaVu Sans', sans-serif; text-anchor: end" x="60.2575" y="148.68066" transform="rotate(-0 60.2575 148.68066)">30</text>
     </g>
    </g>
    <g id="text_7">
     <text style="font: 22px 'PingFang SC', 'Heiti SC', 'STHeiti', 'Calibri', 'Arial', 'Helvetica Neue', 'Arial Unicode MS', 'Noto Sans CJK SC', 'DejaVu Sans', sans-serif; text-anchor: middle" x="28.929375" y="239.084401" transform="rotate(-90 28.929375 239.084401)">带宽 (GB/s)</text>
    </g>
   </g>
   <g id="PolyCollection_1">
    <path d="M 155.53102 370.138687 
L 143.878147 370.138687 
L 143.853316 370.093448 
L 143.850201 370.04821 
L 143.867437 370.002971 
L 143.903232 369.957732 
L 143.9554 369.912494 
L 144.021415 369.867255 
L 144.098462 369.822017 
L 144.183512 369.776778 
L 144.273389 369.731539 
L 144.364852 369.686301 
L 144.45467 369.641062 
L 144.539706 369.595824 
L 144.616991 369.550585 
L 144.683791 369.505347 
L 144.73768 369.460108 
L 144.776582 369.414869 
L 144.798821 369.369631 
L 144.803147 369.324392 
L 144.788751 369.279154 
L 144.755265 369.233915 
L 144.702745 369.188676 
L 144.63164 369.143438 
L 144.542748 369.098199 
L 144.437156 369.052961 
L 144.316166 369.007722 
L 144.181215 368.962483 
L 144.033781 368.917245 
L 143.875289 368.872006 
L 143.707008 368.826768 
L 143.529947 368.781529 
L 143.344764 368.736291 
L 143.151663 368.691052 
L 142.950313 368.645813 
L 142.739772 368.600575 
L 142.518429 368.555336 
L 142.283953 368.510098 
L 142.03327 368.464859 
L 141.762555 368.41962 
L 141.467245 368.374382 
L 141.142072 368.329143 
L 140.781124 368.283905 
L 140.37792 368.238666 
L 139.925512 368.193428 
L 139.416603 368.148189 
L 138.843686 368.10295 
L 138.199199 368.057712 
L 137.475691 368.012473 
L 136.666004 367.967235 
L 135.763458 367.921996 
L 134.762043 367.876757 
L 133.656614 367.831519 
L 132.443075 367.78628 
L 131.118568 367.741042 
L 129.681638 367.695803 
L 128.132394 367.650564 
L 126.472641 367.605326 
L 124.705993 367.560087 
L 122.837959 367.514849 
L 120.875996 367.46961 
L 118.829528 367.424372 
L 116.709926 367.379133 
L 114.530454 367.333894 
L 112.30617 367.288656 
L 110.053785 367.243417 
L 107.791487 367.198179 
L 105.538719 367.15294 
L 103.315929 367.107701 
L 101.144279 367.062463 
L 99.045331 367.017224 
L 97.040707 366.971986 
L 95.151743 366.926747 
L 93.399122 366.881508 
L 91.802515 366.83627 
L 90.380236 366.791031 
L 89.148901 366.745793 
L 88.123124 366.700554 
L 87.315247 366.655316 
L 86.735101 366.610077 
L 86.389828 366.564838 
L 86.28375 366.5196 
L 86.418289 366.474361 
L 86.791955 366.429123 
L 87.400388 366.383884 
L 88.236459 366.338645 
L 89.290425 366.293407 
L 90.550132 366.248168 
L 92.001267 366.20293 
L 93.627646 366.157691 
L 95.411527 366.112452 
L 97.333949 366.067214 
L 99.375076 366.021975 
L 101.514553 365.976737 
L 103.731847 365.931498 
L 106.006577 365.88626 
L 108.318823 365.841021 
L 110.649408 365.795782 
L 112.980144 365.750544 
L 115.294047 365.705305 
L 117.575503 365.660067 
L 181.833664 365.660067 
L 181.833664 365.660067 
L 184.11512 365.705305 
L 186.429022 365.750544 
L 188.759758 365.795782 
L 191.090343 365.841021 
L 193.402589 365.88626 
L 195.677319 365.931498 
L 197.894613 365.976737 
L 200.034091 366.021975 
L 202.075218 366.067214 
L 203.997639 366.112452 
L 205.78152 366.157691 
L 207.4079 366.20293 
L 208.859035 366.248168 
L 210.118742 366.293407 
L 211.172707 366.338645 
L 212.008779 366.383884 
L 212.617212 366.429123 
L 212.990878 366.474361 
L 213.125417 366.5196 
L 213.019338 366.564838 
L 212.674066 366.610077 
L 212.09392 366.655316 
L 211.286042 366.700554 
L 210.260266 366.745793 
L 209.02893 366.791031 
L 207.606651 366.83627 
L 206.010045 366.881508 
L 204.257423 366.926747 
L 202.368459 366.971986 
L 200.363836 367.017224 
L 198.264887 367.062463 
L 196.093237 367.107701 
L 193.870448 367.15294 
L 191.61768 367.198179 
L 189.355382 367.243417 
L 187.102996 367.288656 
L 184.878712 367.333894 
L 182.699241 367.379133 
L 180.579639 367.424372 
L 178.533171 367.46961 
L 176.571208 367.514849 
L 174.703174 367.560087 
L 172.936526 367.605326 
L 171.276773 367.650564 
L 169.727529 367.695803 
L 168.290599 367.741042 
L 166.966092 367.78628 
L 165.752553 367.831519 
L 164.647124 367.876757 
L 163.645709 367.921996 
L 162.743163 367.967235 
L 161.933476 368.012473 
L 161.209968 368.057712 
L 160.565481 368.10295 
L 159.992564 368.148189 
L 159.483655 368.193428 
L 159.031246 368.238666 
L 158.628042 368.283905 
L 158.267094 368.329143 
L 157.941922 368.374382 
L 157.646611 368.41962 
L 157.375896 368.464859 
L 157.125214 368.510098 
L 156.890737 368.555336 
L 156.669394 368.600575 
L 156.458854 368.645813 
L 156.257504 368.691052 
L 156.064403 368.736291 
L 155.879219 368.781529 
L 155.702159 368.826768 
L 155.533877 368.872006 
L 155.375385 368.917245 
L 155.227952 368.962483 
L 155.093001 369.007722 
L 154.972011 369.052961 
L 154.866419 369.098199 
L 154.777527 369.143438 
L 154.706422 369.188676 
L 154.653901 369.233915 
L 154.620415 369.279154 
L 154.60602 369.324392 
L 154.610346 369.369631 
L 154.632585 369.414869 
L 154.671487 369.460108 
L 154.725375 369.505347 
L 154.792176 369.550585 
L 154.86946 369.595824 
L 154.954497 369.641062 
L 155.044315 369.686301 
L 155.135778 369.731539 
L 155.225655 369.776778 
L 155.310705 369.822017 
L 155.387752 369.867255 
L 155.453766 369.912494 
L 155.505935 369.957732 
L 155.541729 370.002971 
L 155.558966 370.04821 
L 155.555851 370.093448 
L 155.53102 370.138687 
z
" clip-path="url(#p6ffc5e5840)" style="fill: #1f77b4; fill-opacity: 0.7"/>
   </g>
   <g id="PolyCollection_2">
    <path d="M 466.80875 368.507891 
L 339.967083 368.507891 
L 339.967083 368.507891 
L 339.967083 368.507891 
L 339.967083 368.507891 
L 339.967083 368.507891 
L 339.967083 368.507891 
L 339.967083 368.507891 
L 339.967083 368.507891 
L 339.967083 368.507891 
L 339.967083 368.507891 
L 339.967083 368.507891 
L 339.967083 368.507891 
L 339.967083 368.507891 
L 339.967083 368.507891 
L 339.967083 368.507891 
L 339.967083 368.507891 
L 339.967083 368.507891 
L 339.967083 368.507891 
L 339.967083 368.507891 
L 339.967083 368.507891 
L 339.967083 368.507891 
L 339.967083 368.507891 
L 339.967083 368.507891 
L 339.967083 368.507891 
L 339.967083 368.507891 
L 339.967083 368.507891 
L 339.967083 368.507891 
L 339.967083 368.507891 
L 339.967083 368.507891 
L 339.967083 368.507891 
L 339.967083 368.507891 
L 339.967083 368.507891 
L 339.967083 368.507891 
L 339.967083 368.507891 
L 339.967083 368.507891 
L 339.967083 368.507891 
L 339.967083 368.507891 
L 339.967083 368.507891 
L 339.967083 368.507891 
L 339.967083 368.507891 
L 339.967083 368.507891 
L 339.967083 368.507891 
L 339.967083 368.507891 
L 339.967083 368.507891 
L 339.967083 368.507891 
L 339.967083 368.507891 
L 339.967083 368.507891 
L 339.967083 368.507891 
L 339.967083 368.507891 
L 339.967083 368.507891 
L 339.967083 368.507891 
L 339.967083 368.507891 
L 339.967083 368.507891 
L 339.967083 368.507891 
L 339.967083 368.507891 
L 339.967083 368.507891 
L 339.967083 368.507891 
L 339.967083 368.507891 
L 339.967083 368.507891 
L 339.967083 368.507891 
L 339.967083 368.507891 
L 339.967083 368.507891 
L 339.967083 368.507891 
L 339.967083 368.507891 
L 339.967083 368.507891 
L 339.967083 368.507891 
L 339.967083 368.507891 
L 339.967083 368.507891 
L 339.967083 368.507891 
L 339.967083 368.507891 
L 339.967083 368.507891 
L 339.967083 368.507891 
L 339.967083 368.507891 
L 339.967083 368.507891 
L 339.967083 368.507891 
L 339.967083 368.507891 
L 339.967083 368.507891 
L 339.967083 368.507891 
L 339.967083 368.507891 
L 339.967083 368.507891 
L 339.967083 368.507891 
L 339.967083 368.507891 
L 339.967083 368.507891 
L 339.967083 368.507891 
L 339.967083 368.507891 
L 339.967083 368.507891 
L 339.967083 368.507891 
L 339.967083 368.507891 
L 339.967083 368.507891 
L 339.967083 368.507891 
L 339.967083 368.507891 
L 339.967083 368.507891 
L 339.967083 368.507891 
L 339.967083 368.507891 
L 339.967083 368.507891 
L 339.967083 368.507891 
L 339.967083 368.507891 
L 339.967083 368.507891 
L 339.967083 368.507891 
L 339.967083 368.507891 
L 466.80875 368.507891 
L 466.80875 368.507891 
L 466.80875 368.507891 
L 466.80875 368.507891 
L 466.80875 368.507891 
L 466.80875 368.507891 
L 466.80875 368.507891 
L 466.80875 368.507891 
L 466.80875 368.507891 
L 466.80875 368.507891 
L 466.80875 368.507891 
L 466.80875 368.507891 
L 466.80875 368.507891 
L 466.80875 368.507891 
L 466.80875 368.507891 
L 466.80875 368.507891 
L 466.80875 368.507891 
L 466.80875 368.507891 
L 466.80875 368.507891 
L 466.80875 368.507891 
L 466.80875 368.507891 
L 466.80875 368.507891 
L 466.80875 368.507891 
L 466.80875 368.507891 
L 466.80875 368.507891 
L 466.80875 368.507891 
L 466.80875 368.507891 
L 466.80875 368.507891 
L 466.80875 368.507891 
L 466.80875 368.507891 
L 466.80875 368.507891 
L 466.80875 368.507891 
L 466.80875 368.507891 
L 466.80875 368.507891 
L 466.80875 368.507891 
L 466.80875 368.507891 
L 466.80875 368.507891 
L 466.80875 368.507891 
L 466.80875 368.507891 
L 466.80875 368.507891 
L 466.80875 368.507891 
L 466.80875 368.507891 
L 466.80875 368.507891 
L 466.80875 368.507891 
L 466.80875 368.507891 
L 466.80875 368.507891 
L 466.80875 368.507891 
L 466.80875 368.507891 
L 466.80875 368.507891 
L 466.80875 368.507891 
L 466.80875 368.507891 
L 466.80875 368.507891 
L 466.80875 368.507891 
L 466.80875 368.507891 
L 466.80875 368.507891 
L 466.80875 368.507891 
L 466.80875 368.507891 
L 466.80875 368.507891 
L 466.80875 368.507891 
L 466.80875 368.507891 
L 466.80875 368.507891 
L 466.80875 368.507891 
L 466.80875 368.507891 
L 466.80875 368.507891 
L 466.80875 368.507891 
L 466.80875 368.507891 
L 466.80875 368.507891 
L 466.80875 368.507891 
L 466.80875 368.507891 
L 466.80875 368.507891 
L 466.80875 368.507891 
L 466.80875 368.507891 
L 466.80875 368.507891 
L 466.80875 368.507891 
L 466.80875 368.507891 
L 466.80875 368.507891 
L 466.80875 368.507891 
L 466.80875 368.507891 
L 466.80875 368.507891 
L 466.80875 368.507891 
L 466.80875 368.507891 
L 466.80875 368.507891 
L 466.80875 368.507891 
L 466.80875 368.507891 
L 466.80875 368.507891 
L 466.80875 368.507891 
L 466.80875 368.507891 
L 466.80875 368.507891 
L 466.80875 368.507891 
L 466.80875 368.507891 
L 466.80875 368.507891 
L 466.80875 368.507891 
L 466.80875 368.507891 
L 466.80875 368.507891 
L 466.80875 368.507891 
L 466.80875 368.507891 
L 466.80875 368.507891 
L 466.80875 368.507891 
L 466.80875 368.507891 
L 466.80875 368.507891 
L 466.80875 368.507891 
z
" clip-path="url(#p6ffc5e5840)" style="fill: #1f77b4; fill-opacity: 0.7"/>
   </g>
   <g id="PolyCollection_3">
    <path d="M 155.014102 367.584805 
L 144.395065 367.584805 
L 144.403038 364.963041 
L 144.431744 362.341276 
L 144.480651 359.719512 
L 144.548949 357.097747 
L 144.63556 354.475983 
L 144.739153 351.854218 
L 144.858162 349.232453 
L 144.990805 346.610689 
L 145.135112 343.988924 
L 145.288947 341.36716 
L 145.450042 338.745395 
L 145.616018 336.123631 
L 145.784423 333.501866 
L 145.952752 330.880102 
L 146.118483 328.258337 
L 146.279098 325.636573 
L 146.432111 323.014808 
L 146.575089 320.393044 
L 146.705679 317.771279 
L 146.821619 315.149514 
L 146.920766 312.52775 
L 147.001104 309.905985 
L 147.060765 307.284221 
L 147.098039 304.662456 
L 147.111389 302.040692 
L 147.099462 299.418927 
L 147.061103 296.797163 
L 146.995361 294.175398 
L 146.901504 291.553634 
L 146.779028 288.931869 
L 146.627665 286.310105 
L 146.447388 283.68834 
L 146.238423 281.066575 
L 146.001247 278.444811 
L 145.736587 275.823046 
L 145.445424 273.201282 
L 145.128976 270.579517 
L 144.788691 267.957753 
L 144.426223 265.335988 
L 144.043409 262.714224 
L 143.642234 260.092459 
L 143.224792 257.470695 
L 142.793237 254.84893 
L 142.349729 252.227166 
L 141.89637 249.605401 
L 141.43514 246.983637 
L 140.967821 244.361872 
L 140.495925 241.740107 
L 140.020616 239.118343 
L 139.542631 236.496578 
L 139.062212 233.874814 
L 138.579035 231.253049 
L 138.092147 228.631285 
L 137.599924 226.00952 
L 137.100031 223.387756 
L 136.5894 220.765991 
L 136.064234 218.144227 
L 135.520021 215.522462 
L 134.951576 212.900698 
L 134.353106 210.278933 
L 133.718298 207.657168 
L 133.040424 205.035404 
L 132.312485 202.413639 
L 131.527357 199.791875 
L 130.677973 197.17011 
L 129.75751 194.548346 
L 128.759594 191.926581 
L 127.678516 189.304817 
L 126.509442 186.683052 
L 125.248634 184.061288 
L 123.893652 181.439523 
L 122.443549 178.817759 
L 120.899047 176.195994 
L 119.262683 173.574229 
L 117.538928 170.952465 
L 115.734268 168.3307 
L 113.857245 165.708936 
L 111.918453 163.087171 
L 109.930489 160.465407 
L 107.907854 157.843642 
L 105.866808 155.221878 
L 103.825171 152.600113 
L 101.802091 149.978349 
L 99.817757 147.356584 
L 97.893092 144.73482 
L 96.049398 142.113055 
L 94.307998 139.49129 
L 92.689852 136.869526 
L 91.21517 134.247761 
L 89.903035 131.625997 
L 88.771036 129.004232 
L 87.834921 126.382468 
L 87.108293 123.760703 
L 86.602331 121.138939 
L 86.325576 118.517174 
L 86.28375 115.89541 
L 86.479652 113.273645 
L 86.913099 110.651881 
L 87.580938 108.030116 
L 211.828229 108.030116 
L 211.828229 108.030116 
L 212.496067 110.651881 
L 212.929515 113.273645 
L 213.125417 115.89541 
L 213.083591 118.517174 
L 212.806835 121.138939 
L 212.300874 123.760703 
L 211.574245 126.382468 
L 210.638131 129.004232 
L 209.506131 131.625997 
L 208.193997 134.247761 
L 206.719315 136.869526 
L 205.101169 139.49129 
L 203.359769 142.113055 
L 201.516075 144.73482 
L 199.591409 147.356584 
L 197.607076 149.978349 
L 195.583995 152.600113 
L 193.542359 155.221878 
L 191.501312 157.843642 
L 189.478678 160.465407 
L 187.490714 163.087171 
L 185.551922 165.708936 
L 183.674898 168.3307 
L 181.870238 170.952465 
L 180.146483 173.574229 
L 178.51012 176.195994 
L 176.965618 178.817759 
L 175.515515 181.439523 
L 174.160532 184.061288 
L 172.899724 186.683052 
L 171.730651 189.304817 
L 170.649572 191.926581 
L 169.651657 194.548346 
L 168.731194 197.17011 
L 167.88181 199.791875 
L 167.096682 202.413639 
L 166.368742 205.035404 
L 165.690869 207.657168 
L 165.05606 210.278933 
L 164.457591 212.900698 
L 163.889146 215.522462 
L 163.344933 218.144227 
L 162.819766 220.765991 
L 162.309136 223.387756 
L 161.809242 226.00952 
L 161.31702 228.631285 
L 160.830132 231.253049 
L 160.346954 233.874814 
L 159.866536 236.496578 
L 159.388551 239.118343 
L 158.913241 241.740107 
L 158.441346 244.361872 
L 157.974027 246.983637 
L 157.512796 249.605401 
L 157.059437 252.227166 
L 156.615929 254.84893 
L 156.184375 257.470695 
L 155.766933 260.092459 
L 155.365758 262.714224 
L 154.982944 265.335988 
L 154.620476 267.957753 
L 154.28019 270.579517 
L 153.963742 273.201282 
L 153.672579 275.823046 
L 153.40792 278.444811 
L 153.170743 281.066575 
L 152.961778 283.68834 
L 152.781502 286.310105 
L 152.630138 288.931869 
L 152.507663 291.553634 
L 152.413806 294.175398 
L 152.348064 296.797163 
L 152.309704 299.418927 
L 152.297778 302.040692 
L 152.311128 304.662456 
L 152.348402 307.284221 
L 152.408063 309.905985 
L 152.488401 312.52775 
L 152.587548 315.149514 
L 152.703488 317.771279 
L 152.834077 320.393044 
L 152.977056 323.014808 
L 153.130068 325.636573 
L 153.290683 328.258337 
L 153.456414 330.880102 
L 153.624744 333.501866 
L 153.793148 336.123631 
L 153.959125 338.745395 
L 154.120219 341.36716 
L 154.274055 343.988924 
L 154.418362 346.610689 
L 154.551005 349.232453 
L 154.670014 351.854218 
L 154.773607 354.475983 
L 154.860218 357.097747 
L 154.928516 359.719512 
L 154.977423 362.341276 
L 155.006129 364.963041 
L 155.014102 367.584805 
z
" clip-path="url(#p6ffc5e5840)" style="fill: #ff7f0e; fill-opacity: 0.7"/>
   </g>
   <g id="PolyCollection_4">
    <path d="M 466.80875 367.545321 
L 339.967083 367.545321 
L 339.967083 367.545321 
L 339.967083 367.545321 
L 339.967083 367.545321 
L 339.967083 367.545321 
L 339.967083 367.545321 
L 339.967083 367.545321 
L 339.967083 367.545321 
L 339.967083 367.545321 
L 339.967083 367.545321 
L 339.967083 367.545321 
L 339.967083 367.545321 
L 339.967083 367.545321 
L 339.967083 367.545321 
L 339.967083 367.545321 
L 339.967083 367.545321 
L 339.967083 367.545321 
L 339.967083 367.545321 
L 339.967083 367.545321 
L 339.967083 367.545321 
L 339.967083 367.545321 
L 339.967083 367.545321 
L 339.967083 367.545321 
L 339.967083 367.545321 
L 339.967083 367.545321 
L 339.967083 367.545321 
L 339.967083 367.545321 
L 339.967083 367.545321 
L 339.967083 367.545321 
L 339.967083 367.545321 
L 339.967083 367.545321 
L 339.967083 367.545321 
L 339.967083 367.545321 
L 339.967083 367.545321 
L 339.967083 367.545321 
L 339.967083 367.545321 
L 339.967083 367.545321 
L 339.967083 367.545321 
L 339.967083 367.545321 
L 339.967083 367.545321 
L 339.967083 367.545321 
L 339.967083 367.545321 
L 339.967083 367.545321 
L 339.967083 367.545321 
L 339.967083 367.545321 
L 339.967083 367.545321 
L 339.967083 367.545321 
L 339.967083 367.545321 
L 339.967083 367.545321 
L 339.967083 367.545321 
L 339.967083 367.545321 
L 339.967083 367.545321 
L 339.967083 367.545321 
L 339.967083 367.545321 
L 339.967083 367.545321 
L 339.967083 367.545321 
L 339.967083 367.545321 
L 339.967083 367.545321 
L 339.967083 367.545321 
L 339.967083 367.545321 
L 339.967083 367.545321 
L 339.967083 367.545321 
L 339.967083 367.545321 
L 339.967083 367.545321 
L 339.967083 367.545321 
L 339.967083 367.545321 
L 339.967083 367.545321 
L 339.967083 367.545321 
L 339.967083 367.545321 
L 339.967083 367.545321 
L 339.967083 367.545321 
L 339.967083 367.545321 
L 339.967083 367.545321 
L 339.967083 367.545321 
L 339.967083 367.545321 
L 339.967083 367.545321 
L 339.967083 367.545321 
L 339.967083 367.545321 
L 339.967083 367.545321 
L 339.967083 367.545321 
L 339.967083 367.545321 
L 339.967083 367.545321 
L 339.967083 367.545321 
L 339.967083 367.545321 
L 339.967083 367.545321 
L 339.967083 367.545321 
L 339.967083 367.545321 
L 339.967083 367.545321 
L 339.967083 367.545321 
L 339.967083 367.545321 
L 339.967083 367.545321 
L 339.967083 367.545321 
L 339.967083 367.545321 
L 339.967083 367.545321 
L 339.967083 367.545321 
L 339.967083 367.545321 
L 339.967083 367.545321 
L 339.967083 367.545321 
L 339.967083 367.545321 
L 339.967083 367.545321 
L 466.80875 367.545321 
L 466.80875 367.545321 
L 466.80875 367.545321 
L 466.80875 367.545321 
L 466.80875 367.545321 
L 466.80875 367.545321 
L 466.80875 367.545321 
L 466.80875 367.545321 
L 466.80875 367.545321 
L 466.80875 367.545321 
L 466.80875 367.545321 
L 466.80875 367.545321 
L 466.80875 367.545321 
L 466.80875 367.545321 
L 466.80875 367.545321 
L 466.80875 367.545321 
L 466.80875 367.545321 
L 466.80875 367.545321 
L 466.80875 367.545321 
L 466.80875 367.545321 
L 466.80875 367.545321 
L 466.80875 367.545321 
L 466.80875 367.545321 
L 466.80875 367.545321 
L 466.80875 367.545321 
L 466.80875 367.545321 
L 466.80875 367.545321 
L 466.80875 367.545321 
L 466.80875 367.545321 
L 466.80875 367.545321 
L 466.80875 367.545321 
L 466.80875 367.545321 
L 466.80875 367.545321 
L 466.80875 367.545321 
L 466.80875 367.545321 
L 466.80875 367.545321 
L 466.80875 367.545321 
L 466.80875 367.545321 
L 466.80875 367.545321 
L 466.80875 367.545321 
L 466.80875 367.545321 
L 466.80875 367.545321 
L 466.80875 367.545321 
L 466.80875 367.545321 
L 466.80875 367.545321 
L 466.80875 367.545321 
L 466.80875 367.545321 
L 466.80875 367.545321 
L 466.80875 367.545321 
L 466.80875 367.545321 
L 466.80875 367.545321 
L 466.80875 367.545321 
L 466.80875 367.545321 
L 466.80875 367.545321 
L 466.80875 367.545321 
L 466.80875 367.545321 
L 466.80875 367.545321 
L 466.80875 367.545321 
L 466.80875 367.545321 
L 466.80875 367.545321 
L 466.80875 367.545321 
L 466.80875 367.545321 
L 466.80875 367.545321 
L 466.80875 367.545321 
L 466.80875 367.545321 
L 466.80875 367.545321 
L 466.80875 367.545321 
L 466.80875 367.545321 
L 466.80875 367.545321 
L 466.80875 367.545321 
L 466.80875 367.545321 
L 466.80875 367.545321 
L 466.80875 367.545321 
L 466.80875 367.545321 
L 466.80875 367.545321 
L 466.80875 367.545321 
L 466.80875 367.545321 
L 466.80875 367.545321 
L 466.80875 367.545321 
L 466.80875 367.545321 
L 466.80875 367.545321 
L 466.80875 367.545321 
L 466.80875 367.545321 
L 466.80875 367.545321 
L 466.80875 367.545321 
L 466.80875 367.545321 
L 466.80875 367.545321 
L 466.80875 367.545321 
L 466.80875 367.545321 
L 466.80875 367.545321 
L 466.80875 367.545321 
L 466.80875 367.545321 
L 466.80875 367.545321 
L 466.80875 367.545321 
L 466.80875 367.545321 
L 466.80875 367.545321 
L 466.80875 367.545321 
L 466.80875 367.545321 
L 466.80875 367.545321 
L 466.80875 367.545321 
L 466.80875 367.545321 
z
" clip-path="url(#p6ffc5e5840)" style="fill: #ff7f0e; fill-opacity: 0.7"/>
   </g>
   <g id="LineCollection_1">
    <path d="M 117.994167 366.882713 
L 181.415 366.882713 
" clip-path="url(#p6ffc5e5840)" style="fill: none; stroke: #1f77b4; stroke-width: 1.5"/>
    <path d="M 371.6775 368.507891 
L 435.098333 368.507891 
" clip-path="url(#p6ffc5e5840)" style="fill: none; stroke: #1f77b4; stroke-width: 1.5"/>
   </g>
   <g id="LineCollection_2">
    <path d="M 117.994167 365.660067 
L 181.415 365.660067 
" clip-path="url(#p6ffc5e5840)" style="fill: none; stroke: #1f77b4; stroke-width: 1.5"/>
    <path d="M 371.6775 368.507891 
L 435.098333 368.507891 
" clip-path="url(#p6ffc5e5840)" style="fill: none; stroke: #1f77b4; stroke-width: 1.5"/>
   </g>
   <g id="LineCollection_3">
    <path d="M 117.994167 370.138687 
L 181.415 370.138687 
" clip-path="url(#p6ffc5e5840)" style="fill: none; stroke: #1f77b4; stroke-width: 1.5"/>
    <path d="M 371.6775 368.507891 
L 435.098333 368.507891 
" clip-path="url(#p6ffc5e5840)" style="fill: none; stroke: #1f77b4; stroke-width: 1.5"/>
   </g>
   <g id="LineCollection_4">
    <path d="M 149.704583 370.138687 
L 149.704583 365.660067 
" clip-path="url(#p6ffc5e5840)" style="fill: none; stroke: #1f77b4; stroke-width: 1.5"/>
    <path d="M 403.387917 368.507891 
L 403.387917 368.507891 
" clip-path="url(#p6ffc5e5840)" style="fill: none; stroke: #1f77b4; stroke-width: 1.5"/>
   </g>
   <g id="LineCollection_5">
    <path d="M 117.994167 145.814201 
L 181.415 145.814201 
" clip-path="url(#p6ffc5e5840)" style="fill: none; stroke: #ff7f0e; stroke-width: 1.5"/>
    <path d="M 371.6775 367.545321 
L 435.098333 367.545321 
" clip-path="url(#p6ffc5e5840)" style="fill: none; stroke: #ff7f0e; stroke-width: 1.5"/>
   </g>
   <g id="LineCollection_6">
    <path d="M 117.994167 108.030116 
L 181.415 108.030116 
" clip-path="url(#p6ffc5e5840)" style="fill: none; stroke: #ff7f0e; stroke-width: 1.5"/>
    <path d="M 371.6775 367.545321 
L 435.098333 367.545321 
" clip-path="url(#p6ffc5e5840)" style="fill: none; stroke: #ff7f0e; stroke-width: 1.5"/>
   </g>
   <g id="LineCollection_7">
    <path d="M 117.994167 367.584805 
L 181.415 367.584805 
" clip-path="url(#p6ffc5e5840)" style="fill: none; stroke: #ff7f0e; stroke-width: 1.5"/>
    <path d="M 371.6775 367.545321 
L 435.098333 367.545321 
" clip-path="url(#p6ffc5e5840)" style="fill: none; stroke: #ff7f0e; stroke-width: 1.5"/>
   </g>
   <g id="LineCollection_8">
    <path d="M 149.704583 367.584805 
L 149.704583 108.030116 
" clip-path="url(#p6ffc5e5840)" style="fill: none; stroke: #ff7f0e; stroke-width: 1.5"/>
    <path d="M 403.387917 367.545321 
L 403.387917 367.545321 
" clip-path="url(#p6ffc5e5840)" style="fill: none; stroke: #ff7f0e; stroke-width: 1.5"/>
   </g>
   <g id="patch_3">
    <path d="M 67.2575 383.244115 
L 67.2575 94.924688 
" style="fill: none; stroke: #808080; stroke-width: 0.8; stroke-linejoin: miter; stroke-linecap: square"/>
   </g>
   <g id="patch_4">
    <path d="M 67.2575 383.244115 
L 485.835 383.244115 
" style="fill: none; stroke: #808080; stroke-width: 0.8; stroke-linejoin: miter; stroke-linecap: square"/>
   </g>
   <g id="text_8">
    <text style="font: 22px 'PingFang SC', 'Heiti SC', 'STHeiti', 'Calibri', 'Arial', 'Helvetica Neue', 'Arial Unicode MS', 'Noto Sans CJK SC', 'DejaVu Sans', sans-serif; text-anchor: middle" x="276.54625" y="88.924688" transform="rotate(-0 276.54625 88.924688)">world=16 · 16 MB</text>
   </g>
  </g>
  <g id="axes_2">
   <g id="patch_5">
    <path d="M 561.5375 383.244115 
L 980.115 383.244115 
L 980.115 94.924688 
L 561.5375 94.924688 
z
" style="fill: #ffffff"/>
   </g>
   <g id="matplotlib.axis_3">
    <g id="xtick_3">
     <g id="line2d_11">
      <g>
       <use xlink:href="#m2fc437d14f" x="643.984583" y="383.244115" style="fill: #808080; stroke: #808080; stroke-width: 0.8"/>
      </g>
     </g>
     <g id="text_9">
      <text style="fill: #808080; font: 22px 'PingFang SC', 'Heiti SC', 'STHeiti', 'Calibri', 'Arial', 'Helvetica Neue', 'Arial Unicode MS', 'Noto Sans CJK SC', 'DejaVu Sans', sans-serif" transform="translate(580.956125 429.27205) rotate(-20)">环相邻</text>
     </g>
    </g>
    <g id="xtick_4">
     <g id="line2d_12">
      <g>
       <use xlink:href="#m2fc437d14f" x="897.667917" y="383.244115" style="fill: #808080; stroke: #808080; stroke-width: 0.8"/>
      </g>
     </g>
     <g id="text_10">
      <text style="fill: #808080; font: 22px 'PingFang SC', 'Heiti SC', 'STHeiti', 'Calibri', 'Arial', 'Helvetica Neue', 'Arial Unicode MS', 'Noto Sans CJK SC', 'DejaVu Sans', sans-serif" transform="translate(834.639458 429.27205) rotate(-20)">环闭合</text>
     </g>
    </g>
   </g>
   <g id="matplotlib.axis_4">
    <g id="ytick_5">
     <g id="line2d_13">
      <path d="M 561.5375 370.167188 
L 980.115 370.167188 
" clip-path="url(#p185161d750)" style="fill: none; stroke-dasharray: 1,1.65; stroke-dashoffset: 0; stroke: #808080; stroke-opacity: 0.55"/>
     </g>
     <g id="line2d_14">
      <g>
       <use xlink:href="#m7de1f35479" x="561.5375" y="370.167188" style="fill: #808080; stroke: #808080; stroke-width: 0.8"/>
      </g>
     </g>
     <g id="text_11">
      <text style="fill: #808080; font: 22px 'PingFang SC', 'Heiti SC', 'STHeiti', 'Calibri', 'Arial', 'Helvetica Neue', 'Arial Unicode MS', 'Noto Sans CJK SC', 'DejaVu Sans', sans-serif; text-anchor: end" x="554.5375" y="378.9225" transform="rotate(-0 554.5375 378.9225)">0</text>
     </g>
    </g>
    <g id="ytick_6">
     <g id="line2d_15">
      <path d="M 561.5375 293.06292 
L 980.115 293.06292 
" clip-path="url(#p185161d750)" style="fill: none; stroke-dasharray: 1,1.65; stroke-dashoffset: 0; stroke: #808080; stroke-opacity: 0.55"/>
     </g>
     <g id="line2d_16">
      <g>
       <use xlink:href="#m7de1f35479" x="561.5375" y="293.06292" style="fill: #808080; stroke: #808080; stroke-width: 0.8"/>
      </g>
     </g>
     <g id="text_12">
      <text style="fill: #808080; font: 22px 'PingFang SC', 'Heiti SC', 'STHeiti', 'Calibri', 'Arial', 'Helvetica Neue', 'Arial Unicode MS', 'Noto Sans CJK SC', 'DejaVu Sans', sans-serif; text-anchor: end" x="554.5375" y="301.818232" transform="rotate(-0 554.5375 301.818232)">10</text>
     </g>
    </g>
    <g id="ytick_7">
     <g id="line2d_17">
      <path d="M 561.5375 215.958652 
L 980.115 215.958652 
" clip-path="url(#p185161d750)" style="fill: none; stroke-dasharray: 1,1.65; stroke-dashoffset: 0; stroke: #808080; stroke-opacity: 0.55"/>
     </g>
     <g id="line2d_18">
      <g>
       <use xlink:href="#m7de1f35479" x="561.5375" y="215.958652" style="fill: #808080; stroke: #808080; stroke-width: 0.8"/>
      </g>
     </g>
     <g id="text_13">
      <text style="fill: #808080; font: 22px 'PingFang SC', 'Heiti SC', 'STHeiti', 'Calibri', 'Arial', 'Helvetica Neue', 'Arial Unicode MS', 'Noto Sans CJK SC', 'DejaVu Sans', sans-serif; text-anchor: end" x="554.5375" y="224.713964" transform="rotate(-0 554.5375 224.713964)">20</text>
     </g>
    </g>
    <g id="ytick_8">
     <g id="line2d_19">
      <path d="M 561.5375 138.854383 
L 980.115 138.854383 
" clip-path="url(#p185161d750)" style="fill: none; stroke-dasharray: 1,1.65; stroke-dashoffset: 0; stroke: #808080; stroke-opacity: 0.55"/>
     </g>
     <g id="line2d_20">
      <g>
       <use xlink:href="#m7de1f35479" x="561.5375" y="138.854383" style="fill: #808080; stroke: #808080; stroke-width: 0.8"/>
      </g>
     </g>
     <g id="text_14">
      <text style="fill: #808080; font: 22px 'PingFang SC', 'Heiti SC', 'STHeiti', 'Calibri', 'Arial', 'Helvetica Neue', 'Arial Unicode MS', 'Noto Sans CJK SC', 'DejaVu Sans', sans-serif; text-anchor: end" x="554.5375" y="147.609696" transform="rotate(-0 554.5375 147.609696)">30</text>
     </g>
    </g>
    <g id="text_15">
     <text style="font: 22px 'PingFang SC', 'Heiti SC', 'STHeiti', 'Calibri', 'Arial', 'Helvetica Neue', 'Arial Unicode MS', 'Noto Sans CJK SC', 'DejaVu Sans', sans-serif; text-anchor: middle" x="523.209375" y="239.084401" transform="rotate(-90 523.209375 239.084401)">带宽 (GB/s)</text>
    </g>
   </g>
   <g id="PolyCollection_5">
    <path d="M 662.95555 370.138687 
L 625.013616 370.138687 
L 624.888673 370.099722 
L 624.893866 370.060758 
L 625.02657 370.021793 
L 625.281071 369.982829 
L 625.64874 369.943864 
L 626.118311 369.904899 
L 626.676256 369.865935 
L 627.307219 369.82697 
L 627.994518 369.788006 
L 628.720665 369.749041 
L 629.467903 369.710077 
L 630.218722 369.671112 
L 630.95635 369.632148 
L 631.665182 369.593183 
L 632.33116 369.554218 
L 632.942071 369.515254 
L 633.487768 369.476289 
L 633.960315 369.437325 
L 634.354055 369.39836 
L 634.665597 369.359396 
L 634.893748 369.320431 
L 635.039381 369.281467 
L 635.105248 369.242502 
L 635.095761 369.203538 
L 635.016743 369.164573 
L 634.87514 369.125608 
L 634.678738 369.086644 
L 634.435857 369.047679 
L 634.155045 369.008715 
L 633.844776 368.96975 
L 633.51316 368.930786 
L 633.167656 368.891821 
L 632.814813 368.852857 
L 632.460026 368.813892 
L 632.107327 368.774927 
L 631.759201 368.735963 
L 631.416445 368.696998 
L 631.078069 368.658034 
L 630.741243 368.619069 
L 630.401295 368.580105 
L 630.051763 368.54114 
L 629.684505 368.502176 
L 629.289861 368.463211 
L 628.856873 368.424246 
L 628.373561 368.385282 
L 627.827241 368.346317 
L 627.204891 368.307353 
L 626.493552 368.268388 
L 625.680751 368.229424 
L 624.754943 368.190459 
L 623.705953 368.151495 
L 622.525412 368.11253 
L 621.207167 368.073565 
L 619.747651 368.034601 
L 618.146214 367.995636 
L 616.405379 367.956672 
L 614.531029 367.917707 
L 612.532514 367.878743 
L 610.422659 367.839778 
L 608.217683 367.800814 
L 605.93702 367.761849 
L 603.603037 367.722884 
L 601.24067 367.68392 
L 598.876966 367.644955 
L 596.540565 367.605991 
L 594.261112 367.567026 
L 592.068634 367.528062 
L 589.992892 367.489097 
L 588.062731 367.450133 
L 586.30544 367.411168 
L 584.746158 367.372204 
L 583.407322 367.333239 
L 582.308195 367.294274 
L 581.464476 367.25531 
L 580.888001 367.216345 
L 580.586548 367.177381 
L 580.56375 367.138416 
L 580.819111 367.099452 
L 581.348118 367.060487 
L 582.142455 367.021523 
L 583.190289 366.982558 
L 584.476635 366.943593 
L 585.983768 366.904629 
L 587.691681 366.865664 
L 589.578567 366.8267 
L 591.621299 366.787735 
L 593.795922 366.748771 
L 596.078111 366.709806 
L 598.44361 366.670842 
L 600.868625 366.631877 
L 603.330178 366.592912 
L 605.806412 366.553948 
L 608.276841 366.514983 
L 610.722548 366.476019 
L 613.126343 366.437054 
L 615.472859 366.39809 
L 617.748614 366.359125 
L 619.942031 366.320161 
L 622.043424 366.281196 
L 665.925742 366.281196 
L 665.925742 366.281196 
L 668.027136 366.320161 
L 670.220553 366.359125 
L 672.496308 366.39809 
L 674.842823 366.437054 
L 677.246618 366.476019 
L 679.692326 366.514983 
L 682.162754 366.553948 
L 684.638988 366.592912 
L 687.100542 366.631877 
L 689.525556 366.670842 
L 691.891055 366.709806 
L 694.173245 366.748771 
L 696.347868 366.787735 
L 698.3906 366.8267 
L 700.277485 366.865664 
L 701.985399 366.904629 
L 703.492532 366.943593 
L 704.778877 366.982558 
L 705.826711 367.021523 
L 706.621048 367.060487 
L 707.150056 367.099452 
L 707.405417 367.138416 
L 707.382619 367.177381 
L 707.081166 367.216345 
L 706.50469 367.25531 
L 705.660971 367.294274 
L 704.561845 367.333239 
L 703.223009 367.372204 
L 701.663726 367.411168 
L 699.906436 367.450133 
L 697.976275 367.489097 
L 695.900533 367.528062 
L 693.708055 367.567026 
L 691.428602 367.605991 
L 689.092201 367.644955 
L 686.728497 367.68392 
L 684.366129 367.722884 
L 682.032147 367.761849 
L 679.751484 367.800814 
L 677.546508 367.839778 
L 675.436653 367.878743 
L 673.438137 367.917707 
L 671.563788 367.956672 
L 669.822952 367.995636 
L 668.221516 368.034601 
L 666.762 368.073565 
L 665.443754 368.11253 
L 664.263213 368.151495 
L 663.214224 368.190459 
L 662.288415 368.229424 
L 661.475615 368.268388 
L 660.764276 368.307353 
L 660.141926 368.346317 
L 659.595606 368.385282 
L 659.112293 368.424246 
L 658.679306 368.463211 
L 658.284661 368.502176 
L 657.917403 368.54114 
L 657.567872 368.580105 
L 657.227924 368.619069 
L 656.891097 368.658034 
L 656.552722 368.696998 
L 656.209966 368.735963 
L 655.861839 368.774927 
L 655.509141 368.813892 
L 655.154354 368.852857 
L 654.801511 368.891821 
L 654.456007 368.930786 
L 654.124391 368.96975 
L 653.814122 369.008715 
L 653.533309 369.047679 
L 653.290428 369.086644 
L 653.094027 369.125608 
L 652.952424 369.164573 
L 652.873405 369.203538 
L 652.863919 369.242502 
L 652.929786 369.281467 
L 653.075418 369.320431 
L 653.30357 369.359396 
L 653.615112 369.39836 
L 654.008851 369.437325 
L 654.481399 369.476289 
L 655.027095 369.515254 
L 655.638006 369.554218 
L 656.303985 369.593183 
L 657.012817 369.632148 
L 657.750444 369.671112 
L 658.501264 369.710077 
L 659.248502 369.749041 
L 659.974649 369.788006 
L 660.661948 369.82697 
L 661.292911 369.865935 
L 661.850856 369.904899 
L 662.320427 369.943864 
L 662.688095 369.982829 
L 662.942596 370.021793 
L 663.075301 370.060758 
L 663.080494 370.099722 
L 662.95555 370.138687 
z
" clip-path="url(#p185161d750)" style="fill: #1f77b4; fill-opacity: 0.7"/>
   </g>
   <g id="PolyCollection_6">
    <path d="M 961.08875 369.232189 
L 834.247083 369.232189 
L 834.247083 369.232189 
L 834.247083 369.232189 
L 834.247083 369.232189 
L 834.247083 369.232189 
L 834.247083 369.232189 
L 834.247083 369.232189 
L 834.247083 369.232189 
L 834.247083 369.232189 
L 834.247083 369.232189 
L 834.247083 369.232189 
L 834.247083 369.232189 
L 834.247083 369.232189 
L 834.247083 369.232189 
L 834.247083 369.232189 
L 834.247083 369.232189 
L 834.247083 369.232189 
L 834.247083 369.232189 
L 834.247083 369.232189 
L 834.247083 369.232189 
L 834.247083 369.232189 
L 834.247083 369.232189 
L 834.247083 369.232189 
L 834.247083 369.232189 
L 834.247083 369.232189 
L 834.247083 369.232189 
L 834.247083 369.232189 
L 834.247083 369.232189 
L 834.247083 369.232189 
L 834.247083 369.232189 
L 834.247083 369.232189 
L 834.247083 369.232189 
L 834.247083 369.232189 
L 834.247083 369.232189 
L 834.247083 369.232189 
L 834.247083 369.232189 
L 834.247083 369.232189 
L 834.247083 369.232189 
L 834.247083 369.232189 
L 834.247083 369.232189 
L 834.247083 369.232189 
L 834.247083 369.232189 
L 834.247083 369.232189 
L 834.247083 369.232189 
L 834.247083 369.232189 
L 834.247083 369.232189 
L 834.247083 369.232189 
L 834.247083 369.232189 
L 834.247083 369.232189 
L 834.247083 369.232189 
L 834.247083 369.232189 
L 834.247083 369.232189 
L 834.247083 369.232189 
L 834.247083 369.232189 
L 834.247083 369.232189 
L 834.247083 369.232189 
L 834.247083 369.232189 
L 834.247083 369.232189 
L 834.247083 369.232189 
L 834.247083 369.232189 
L 834.247083 369.232189 
L 834.247083 369.232189 
L 834.247083 369.232189 
L 834.247083 369.232189 
L 834.247083 369.232189 
L 834.247083 369.232189 
L 834.247083 369.232189 
L 834.247083 369.232189 
L 834.247083 369.232189 
L 834.247083 369.232189 
L 834.247083 369.232189 
L 834.247083 369.232189 
L 834.247083 369.232189 
L 834.247083 369.232189 
L 834.247083 369.232189 
L 834.247083 369.232189 
L 834.247083 369.232189 
L 834.247083 369.232189 
L 834.247083 369.232189 
L 834.247083 369.232189 
L 834.247083 369.232189 
L 834.247083 369.232189 
L 834.247083 369.232189 
L 834.247083 369.232189 
L 834.247083 369.232189 
L 834.247083 369.232189 
L 834.247083 369.232189 
L 834.247083 369.232189 
L 834.247083 369.232189 
L 834.247083 369.232189 
L 834.247083 369.232189 
L 834.247083 369.232189 
L 834.247083 369.232189 
L 834.247083 369.232189 
L 834.247083 369.232189 
L 834.247083 369.232189 
L 834.247083 369.232189 
L 834.247083 369.232189 
L 834.247083 369.232189 
L 834.247083 369.232189 
L 961.08875 369.232189 
L 961.08875 369.232189 
L 961.08875 369.232189 
L 961.08875 369.232189 
L 961.08875 369.232189 
L 961.08875 369.232189 
L 961.08875 369.232189 
L 961.08875 369.232189 
L 961.08875 369.232189 
L 961.08875 369.232189 
L 961.08875 369.232189 
L 961.08875 369.232189 
L 961.08875 369.232189 
L 961.08875 369.232189 
L 961.08875 369.232189 
L 961.08875 369.232189 
L 961.08875 369.232189 
L 961.08875 369.232189 
L 961.08875 369.232189 
L 961.08875 369.232189 
L 961.08875 369.232189 
L 961.08875 369.232189 
L 961.08875 369.232189 
L 961.08875 369.232189 
L 961.08875 369.232189 
L 961.08875 369.232189 
L 961.08875 369.232189 
L 961.08875 369.232189 
L 961.08875 369.232189 
L 961.08875 369.232189 
L 961.08875 369.232189 
L 961.08875 369.232189 
L 961.08875 369.232189 
L 961.08875 369.232189 
L 961.08875 369.232189 
L 961.08875 369.232189 
L 961.08875 369.232189 
L 961.08875 369.232189 
L 961.08875 369.232189 
L 961.08875 369.232189 
L 961.08875 369.232189 
L 961.08875 369.232189 
L 961.08875 369.232189 
L 961.08875 369.232189 
L 961.08875 369.232189 
L 961.08875 369.232189 
L 961.08875 369.232189 
L 961.08875 369.232189 
L 961.08875 369.232189 
L 961.08875 369.232189 
L 961.08875 369.232189 
L 961.08875 369.232189 
L 961.08875 369.232189 
L 961.08875 369.232189 
L 961.08875 369.232189 
L 961.08875 369.232189 
L 961.08875 369.232189 
L 961.08875 369.232189 
L 961.08875 369.232189 
L 961.08875 369.232189 
L 961.08875 369.232189 
L 961.08875 369.232189 
L 961.08875 369.232189 
L 961.08875 369.232189 
L 961.08875 369.232189 
L 961.08875 369.232189 
L 961.08875 369.232189 
L 961.08875 369.232189 
L 961.08875 369.232189 
L 961.08875 369.232189 
L 961.08875 369.232189 
L 961.08875 369.232189 
L 961.08875 369.232189 
L 961.08875 369.232189 
L 961.08875 369.232189 
L 961.08875 369.232189 
L 961.08875 369.232189 
L 961.08875 369.232189 
L 961.08875 369.232189 
L 961.08875 369.232189 
L 961.08875 369.232189 
L 961.08875 369.232189 
L 961.08875 369.232189 
L 961.08875 369.232189 
L 961.08875 369.232189 
L 961.08875 369.232189 
L 961.08875 369.232189 
L 961.08875 369.232189 
L 961.08875 369.232189 
L 961.08875 369.232189 
L 961.08875 369.232189 
L 961.08875 369.232189 
L 961.08875 369.232189 
L 961.08875 369.232189 
L 961.08875 369.232189 
L 961.08875 369.232189 
L 961.08875 369.232189 
L 961.08875 369.232189 
L 961.08875 369.232189 
L 961.08875 369.232189 
L 961.08875 369.232189 
z
" clip-path="url(#p185161d750)" style="fill: #1f77b4; fill-opacity: 0.7"/>
   </g>
   <g id="PolyCollection_7">
    <path d="M 654.721377 367.971628 
L 633.24779 367.971628 
L 633.222847 365.345956 
L 633.27694 362.720284 
L 633.4087 360.094612 
L 633.615066 357.46894 
L 633.891399 354.843269 
L 634.231652 352.217597 
L 634.628588 349.591925 
L 635.074031 346.966253 
L 635.559135 344.340581 
L 636.074669 341.714909 
L 636.611291 339.089238 
L 637.159812 336.463566 
L 637.711426 333.837894 
L 638.25791 331.212222 
L 638.791785 328.58655 
L 639.306421 325.960878 
L 639.796109 323.335207 
L 640.256081 320.709535 
L 640.682488 318.083863 
L 641.072346 315.458191 
L 641.423448 312.832519 
L 641.734261 310.206847 
L 642.003797 307.581176 
L 642.231489 304.955504 
L 642.417063 302.329832 
L 642.56042 299.70416 
L 642.661528 297.078488 
L 642.720345 294.452816 
L 642.736756 291.827145 
L 642.710539 289.201473 
L 642.641371 286.575801 
L 642.528844 283.950129 
L 642.37253 281.324457 
L 642.172057 278.698785 
L 641.927213 276.073114 
L 641.638067 273.447442 
L 641.305096 270.82177 
L 640.929321 268.196098 
L 640.512427 265.570426 
L 640.056874 262.944754 
L 639.565982 260.319082 
L 639.043979 257.693411 
L 638.496008 255.067739 
L 637.928082 252.442067 
L 637.346986 249.816395 
L 636.760118 247.190723 
L 636.175274 244.565051 
L 635.600376 241.93938 
L 635.04315 239.313708 
L 634.510764 236.688036 
L 634.009442 234.062364 
L 633.544054 231.436692 
L 633.117727 228.81102 
L 632.731463 226.185349 
L 632.383806 223.559677 
L 632.070572 220.934005 
L 631.784657 218.308333 
L 631.515937 215.682661 
L 631.251289 213.056989 
L 630.974717 210.431318 
L 630.667626 207.805646 
L 630.30921 205.179974 
L 629.876979 202.554302 
L 629.347403 199.92863 
L 628.696668 197.302958 
L 627.901522 194.677287 
L 626.940195 192.051615 
L 625.793351 189.425943 
L 624.445059 186.800271 
L 622.883729 184.174599 
L 621.102991 181.548927 
L 619.10246 178.923256 
L 616.888358 176.297584 
L 614.473956 173.671912 
L 611.879794 171.04624 
L 609.133654 168.420568 
L 606.270272 165.794896 
L 603.330771 163.169225 
L 600.361826 160.543553 
L 597.414568 157.917881 
L 594.543259 155.292209 
L 591.803787 152.666537 
L 589.252015 150.040865 
L 586.942073 147.415194 
L 584.924636 144.789522 
L 583.245278 142.16385 
L 581.94297 139.538178 
L 581.048785 136.912506 
L 580.584873 134.286834 
L 580.56375 131.661163 
L 580.987934 129.035491 
L 581.849946 126.409819 
L 583.13266 123.784147 
L 584.810001 121.158475 
L 586.847938 118.532803 
L 589.205729 115.907132 
L 591.837353 113.28146 
L 594.693064 110.655788 
L 597.721001 108.030116 
L 690.248166 108.030116 
L 690.248166 108.030116 
L 693.276102 110.655788 
L 696.131814 113.28146 
L 698.763437 115.907132 
L 701.121228 118.532803 
L 703.159166 121.158475 
L 704.836507 123.784147 
L 706.119221 126.409819 
L 706.981232 129.035491 
L 707.405417 131.661163 
L 707.384293 134.286834 
L 706.920382 136.912506 
L 706.026197 139.538178 
L 704.723889 142.16385 
L 703.044531 144.789522 
L 701.027094 147.415194 
L 698.717152 150.040865 
L 696.16538 152.666537 
L 693.425907 155.292209 
L 690.554599 157.917881 
L 687.60734 160.543553 
L 684.638396 163.169225 
L 681.698895 165.794896 
L 678.835513 168.420568 
L 676.089373 171.04624 
L 673.495211 173.671912 
L 671.080809 176.297584 
L 668.866707 178.923256 
L 666.866175 181.548927 
L 665.085437 184.174599 
L 663.524108 186.800271 
L 662.175815 189.425943 
L 661.028971 192.051615 
L 660.067644 194.677287 
L 659.272499 197.302958 
L 658.621764 199.92863 
L 658.092187 202.554302 
L 657.659956 205.179974 
L 657.30154 207.805646 
L 656.99445 210.431318 
L 656.717878 213.056989 
L 656.453229 215.682661 
L 656.18451 218.308333 
L 655.898595 220.934005 
L 655.585361 223.559677 
L 655.237704 226.185349 
L 654.851439 228.81102 
L 654.425113 231.436692 
L 653.959725 234.062364 
L 653.458402 236.688036 
L 652.926017 239.313708 
L 652.368791 241.93938 
L 651.793892 244.565051 
L 651.209049 247.190723 
L 650.622181 249.816395 
L 650.041085 252.442067 
L 649.473159 255.067739 
L 648.925188 257.693411 
L 648.403185 260.319082 
L 647.912293 262.944754 
L 647.45674 265.570426 
L 647.039845 268.196098 
L 646.66407 270.82177 
L 646.3311 273.447442 
L 646.041954 276.073114 
L 645.79711 278.698785 
L 645.596637 281.324457 
L 645.440323 283.950129 
L 645.327796 286.575801 
L 645.258627 289.201473 
L 645.232411 291.827145 
L 645.248821 294.452816 
L 645.307638 297.078488 
L 645.408747 299.70416 
L 645.552103 302.329832 
L 645.737678 304.955504 
L 645.96537 307.581176 
L 646.234906 310.206847 
L 646.545718 312.832519 
L 646.896821 315.458191 
L 647.286679 318.083863 
L 647.713085 320.709535 
L 648.173057 323.335207 
L 648.662746 325.960878 
L 649.177382 328.58655 
L 649.711256 331.212222 
L 650.257741 333.837894 
L 650.809355 336.463566 
L 651.357875 339.089238 
L 651.894498 341.714909 
L 652.410032 344.340581 
L 652.895136 346.966253 
L 653.340578 349.591925 
L 653.737515 352.217597 
L 654.077768 354.843269 
L 654.3541 357.46894 
L 654.560466 360.094612 
L 654.692227 362.720284 
L 654.74632 365.345956 
L 654.721377 367.971628 
z
" clip-path="url(#p185161d750)" style="fill: #ff7f0e; fill-opacity: 0.7"/>
   </g>
   <g id="PolyCollection_8">
    <path d="M 961.08875 367.455444 
L 834.247083 367.455444 
L 834.247083 367.455444 
L 834.247083 367.455444 
L 834.247083 367.455444 
L 834.247083 367.455444 
L 834.247083 367.455444 
L 834.247083 367.455444 
L 834.247083 367.455444 
L 834.247083 367.455444 
L 834.247083 367.455444 
L 834.247083 367.455444 
L 834.247083 367.455444 
L 834.247083 367.455444 
L 834.247083 367.455444 
L 834.247083 367.455444 
L 834.247083 367.455444 
L 834.247083 367.455444 
L 834.247083 367.455444 
L 834.247083 367.455444 
L 834.247083 367.455444 
L 834.247083 367.455444 
L 834.247083 367.455444 
L 834.247083 367.455444 
L 834.247083 367.455444 
L 834.247083 367.455444 
L 834.247083 367.455444 
L 834.247083 367.455444 
L 834.247083 367.455444 
L 834.247083 367.455444 
L 834.247083 367.455444 
L 834.247083 367.455444 
L 834.247083 367.455444 
L 834.247083 367.455444 
L 834.247083 367.455444 
L 834.247083 367.455444 
L 834.247083 367.455444 
L 834.247083 367.455444 
L 834.247083 367.455444 
L 834.247083 367.455444 
L 834.247083 367.455444 
L 834.247083 367.455444 
L 834.247083 367.455444 
L 834.247083 367.455444 
L 834.247083 367.455444 
L 834.247083 367.455444 
L 834.247083 367.455444 
L 834.247083 367.455444 
L 834.247083 367.455444 
L 834.247083 367.455444 
L 834.247083 367.455444 
L 834.247083 367.455444 
L 834.247083 367.455444 
L 834.247083 367.455444 
L 834.247083 367.455444 
L 834.247083 367.455444 
L 834.247083 367.455444 
L 834.247083 367.455444 
L 834.247083 367.455444 
L 834.247083 367.455444 
L 834.247083 367.455444 
L 834.247083 367.455444 
L 834.247083 367.455444 
L 834.247083 367.455444 
L 834.247083 367.455444 
L 834.247083 367.455444 
L 834.247083 367.455444 
L 834.247083 367.455444 
L 834.247083 367.455444 
L 834.247083 367.455444 
L 834.247083 367.455444 
L 834.247083 367.455444 
L 834.247083 367.455444 
L 834.247083 367.455444 
L 834.247083 367.455444 
L 834.247083 367.455444 
L 834.247083 367.455444 
L 834.247083 367.455444 
L 834.247083 367.455444 
L 834.247083 367.455444 
L 834.247083 367.455444 
L 834.247083 367.455444 
L 834.247083 367.455444 
L 834.247083 367.455444 
L 834.247083 367.455444 
L 834.247083 367.455444 
L 834.247083 367.455444 
L 834.247083 367.455444 
L 834.247083 367.455444 
L 834.247083 367.455444 
L 834.247083 367.455444 
L 834.247083 367.455444 
L 834.247083 367.455444 
L 834.247083 367.455444 
L 834.247083 367.455444 
L 834.247083 367.455444 
L 834.247083 367.455444 
L 834.247083 367.455444 
L 834.247083 367.455444 
L 834.247083 367.455444 
L 834.247083 367.455444 
L 961.08875 367.455444 
L 961.08875 367.455444 
L 961.08875 367.455444 
L 961.08875 367.455444 
L 961.08875 367.455444 
L 961.08875 367.455444 
L 961.08875 367.455444 
L 961.08875 367.455444 
L 961.08875 367.455444 
L 961.08875 367.455444 
L 961.08875 367.455444 
L 961.08875 367.455444 
L 961.08875 367.455444 
L 961.08875 367.455444 
L 961.08875 367.455444 
L 961.08875 367.455444 
L 961.08875 367.455444 
L 961.08875 367.455444 
L 961.08875 367.455444 
L 961.08875 367.455444 
L 961.08875 367.455444 
L 961.08875 367.455444 
L 961.08875 367.455444 
L 961.08875 367.455444 
L 961.08875 367.455444 
L 961.08875 367.455444 
L 961.08875 367.455444 
L 961.08875 367.455444 
L 961.08875 367.455444 
L 961.08875 367.455444 
L 961.08875 367.455444 
L 961.08875 367.455444 
L 961.08875 367.455444 
L 961.08875 367.455444 
L 961.08875 367.455444 
L 961.08875 367.455444 
L 961.08875 367.455444 
L 961.08875 367.455444 
L 961.08875 367.455444 
L 961.08875 367.455444 
L 961.08875 367.455444 
L 961.08875 367.455444 
L 961.08875 367.455444 
L 961.08875 367.455444 
L 961.08875 367.455444 
L 961.08875 367.455444 
L 961.08875 367.455444 
L 961.08875 367.455444 
L 961.08875 367.455444 
L 961.08875 367.455444 
L 961.08875 367.455444 
L 961.08875 367.455444 
L 961.08875 367.455444 
L 961.08875 367.455444 
L 961.08875 367.455444 
L 961.08875 367.455444 
L 961.08875 367.455444 
L 961.08875 367.455444 
L 961.08875 367.455444 
L 961.08875 367.455444 
L 961.08875 367.455444 
L 961.08875 367.455444 
L 961.08875 367.455444 
L 961.08875 367.455444 
L 961.08875 367.455444 
L 961.08875 367.455444 
L 961.08875 367.455444 
L 961.08875 367.455444 
L 961.08875 367.455444 
L 961.08875 367.455444 
L 961.08875 367.455444 
L 961.08875 367.455444 
L 961.08875 367.455444 
L 961.08875 367.455444 
L 961.08875 367.455444 
L 961.08875 367.455444 
L 961.08875 367.455444 
L 961.08875 367.455444 
L 961.08875 367.455444 
L 961.08875 367.455444 
L 961.08875 367.455444 
L 961.08875 367.455444 
L 961.08875 367.455444 
L 961.08875 367.455444 
L 961.08875 367.455444 
L 961.08875 367.455444 
L 961.08875 367.455444 
L 961.08875 367.455444 
L 961.08875 367.455444 
L 961.08875 367.455444 
L 961.08875 367.455444 
L 961.08875 367.455444 
L 961.08875 367.455444 
L 961.08875 367.455444 
L 961.08875 367.455444 
L 961.08875 367.455444 
L 961.08875 367.455444 
L 961.08875 367.455444 
L 961.08875 367.455444 
L 961.08875 367.455444 
L 961.08875 367.455444 
z
" clip-path="url(#p185161d750)" style="fill: #ff7f0e; fill-opacity: 0.7"/>
   </g>
   <g id="LineCollection_9">
    <path d="M 612.274167 367.794306 
L 675.695 367.794306 
" clip-path="url(#p185161d750)" style="fill: none; stroke: #1f77b4; stroke-width: 1.5"/>
    <path d="M 865.9575 369.232189 
L 929.378333 369.232189 
" clip-path="url(#p185161d750)" style="fill: none; stroke: #1f77b4; stroke-width: 1.5"/>
   </g>
   <g id="LineCollection_10">
    <path d="M 612.274167 366.281196 
L 675.695 366.281196 
" clip-path="url(#p185161d750)" style="fill: none; stroke: #1f77b4; stroke-width: 1.5"/>
    <path d="M 865.9575 369.232189 
L 929.378333 369.232189 
" clip-path="url(#p185161d750)" style="fill: none; stroke: #1f77b4; stroke-width: 1.5"/>
   </g>
   <g id="LineCollection_11">
    <path d="M 612.274167 370.138687 
L 675.695 370.138687 
" clip-path="url(#p185161d750)" style="fill: none; stroke: #1f77b4; stroke-width: 1.5"/>
    <path d="M 865.9575 369.232189 
L 929.378333 369.232189 
" clip-path="url(#p185161d750)" style="fill: none; stroke: #1f77b4; stroke-width: 1.5"/>
   </g>
   <g id="LineCollection_12">
    <path d="M 643.984583 370.138687 
L 643.984583 366.281196 
" clip-path="url(#p185161d750)" style="fill: none; stroke: #1f77b4; stroke-width: 1.5"/>
    <path d="M 897.667917 369.232189 
L 897.667917 369.232189 
" clip-path="url(#p185161d750)" style="fill: none; stroke: #1f77b4; stroke-width: 1.5"/>
   </g>
   <g id="LineCollection_13">
    <path d="M 612.274167 172.64974 
L 675.695 172.64974 
" clip-path="url(#p185161d750)" style="fill: none; stroke: #ff7f0e; stroke-width: 1.5"/>
    <path d="M 865.9575 367.455444 
L 929.378333 367.455444 
" clip-path="url(#p185161d750)" style="fill: none; stroke: #ff7f0e; stroke-width: 1.5"/>
   </g>
   <g id="LineCollection_14">
    <path d="M 612.274167 108.030116 
L 675.695 108.030116 
" clip-path="url(#p185161d750)" style="fill: none; stroke: #ff7f0e; stroke-width: 1.5"/>
    <path d="M 865.9575 367.455444 
L 929.378333 367.455444 
" clip-path="url(#p185161d750)" style="fill: none; stroke: #ff7f0e; stroke-width: 1.5"/>
   </g>
   <g id="LineCollection_15">
    <path d="M 612.274167 367.971628 
L 675.695 367.971628 
" clip-path="url(#p185161d750)" style="fill: none; stroke: #ff7f0e; stroke-width: 1.5"/>
    <path d="M 865.9575 367.455444 
L 929.378333 367.455444 
" clip-path="url(#p185161d750)" style="fill: none; stroke: #ff7f0e; stroke-width: 1.5"/>
   </g>
   <g id="LineCollection_16">
    <path d="M 643.984583 367.971628 
L 643.984583 108.030116 
" clip-path="url(#p185161d750)" style="fill: none; stroke: #ff7f0e; stroke-width: 1.5"/>
    <path d="M 897.667917 367.455444 
L 897.667917 367.455444 
" clip-path="url(#p185161d750)" style="fill: none; stroke: #ff7f0e; stroke-width: 1.5"/>
   </g>
   <g id="patch_6">
    <path d="M 561.5375 383.244115 
L 561.5375 94.924688 
" style="fill: none; stroke: #808080; stroke-width: 0.8; stroke-linejoin: miter; stroke-linecap: square"/>
   </g>
   <g id="patch_7">
    <path d="M 561.5375 383.244115 
L 980.115 383.244115 
" style="fill: none; stroke: #808080; stroke-width: 0.8; stroke-linejoin: miter; stroke-linecap: square"/>
   </g>
   <g id="text_16">
    <text style="font: 22px 'PingFang SC', 'Heiti SC', 'STHeiti', 'Calibri', 'Arial', 'Helvetica Neue', 'Arial Unicode MS', 'Noto Sans CJK SC', 'DejaVu Sans', sans-serif; text-anchor: middle" x="770.82625" y="88.924688" transform="rotate(-0 770.82625 88.924688)">world=128 · 16 MB</text>
   </g>
  </g>
  <g id="text_17">
   <text style="font: 14px 'PingFang SC', 'Heiti SC', 'STHeiti', 'Calibri', 'Arial', 'Helvetica Neue', 'Arial Unicode MS', 'Noto Sans CJK SC', 'DejaVu Sans', sans-serif; text-anchor: middle" x="495.555" y="22.09625" transform="rotate(-0 495.555 22.09625)">P2P · 边类型带宽分布</text>
  </g>
 </g>
 <defs>
  <clipPath id="p6ffc5e5840">
   <rect x="67.2575" y="94.924688" width="418.5775" height="288.319428"/>
  </clipPath>
  <clipPath id="p185161d750">
   <rect x="561.5375" y="94.924688" width="418.5775" height="288.319428"/>
  </clipPath>
 </defs>
</svg>
